solid ascii
 facet normal 0.789359 -0.0221485 -0.613533
  outer loop
   vertex 68.912 44.1328 426.858
   vertex 68.6967 43.4406 426.606
   vertex 68.1115 44.6891 425.808
  endloop
 endfacet
 facet normal 0.804118 0.0372798 -0.593299
  outer loop
   vertex 68.912 44.1328 426.858
   vertex 68.1115 44.6891 425.808
   vertex 68.7214 44.8701 426.646
  endloop
 endfacet
 facet normal 0.717355 -0.104064 -0.688892
  outer loop
   vertex 68.1115 44.6891 425.808
   vertex 68.6967 43.4406 426.606
   vertex 67.9979 43.2573 425.906
  endloop
 endfacet
 facet normal 0.716379 -0.262621 -0.646398
  outer loop
   vertex 68.5351 42.889 426.651
   vertex 67.9979 43.2573 425.906
   vertex 68.6967 43.4406 426.606
  endloop
 endfacet
 facet normal 0.759904 -0.104205 -0.641628
  outer loop
   vertex 67.9979 43.2573 425.906
   vertex 67.0569 43.8517 424.695
   vertex 68.1115 44.6891 425.808
  endloop
 endfacet
 facet normal 0.693329 -0.266472 -0.669542
  outer loop
   vertex 67.1996 42.7506 425.281
   vertex 67.0569 43.8517 424.695
   vertex 67.9979 43.2573 425.906
  endloop
 endfacet
 facet normal 0.782467 0.0243261 -0.622217
  outer loop
   vertex 67.6417 46.2185 425.277
   vertex 68.1115 44.6891 425.808
   vertex 66.7334 45.8662 424.121
  endloop
 endfacet
 facet normal 0.749096 -0.0674831 -0.659016
  outer loop
   vertex 67.0569 43.8517 424.695
   vertex 66.7334 45.8662 424.121
   vertex 68.1115 44.6891 425.808
  endloop
 endfacet
 facet normal 0.798592 -0.0428182 -0.600348
  outer loop
   vertex 66.4085 44.3212 423.799
   vertex 66.7334 45.8662 424.121
   vertex 67.0569 43.8517 424.695
  endloop
 endfacet
 facet normal 0.771997 -0.197993 -0.604003
  outer loop
   vertex 66.2281 43.5488 423.735
   vertex 67.0569 43.8517 424.695
   vertex 66.6044 43.0727 424.372
  endloop
 endfacet
 facet normal 0.770346 -0.128142 -0.624617
  outer loop
   vertex 66.4085 44.3212 423.799
   vertex 67.0569 43.8517 424.695
   vertex 66.2281 43.5488 423.735
  endloop
 endfacet
 facet normal 0.753643 -0.122487 -0.64577
  outer loop
   vertex 66.2281 43.5488 423.735
   vertex 65.6709 44.1746 422.966
   vertex 66.4085 44.3212 423.799
  endloop
 endfacet
 facet normal 0.771395 0.0665055 -0.632872
  outer loop
   vertex 65.6569 46.0386 422.827
   vertex 66.0575 47.4444 423.463
   vertex 66.7334 45.8662 424.121
  endloop
 endfacet
 facet normal 0.765307 -0.0421502 -0.642284
  outer loop
   vertex 65.6709 44.1746 422.966
   vertex 65.6569 46.0386 422.827
   vertex 66.7334 45.8662 424.121
  endloop
 endfacet
 facet normal 0.750278 -0.0200558 -0.660818
  outer loop
   vertex 66.4085 44.3212 423.799
   vertex 65.6709 44.1746 422.966
   vertex 66.7334 45.8662 424.121
  endloop
 endfacet
 facet normal 0.778337 0.0609137 -0.624885
  outer loop
   vertex 65.6569 46.0386 422.827
   vertex 65.2389 47.5634 422.455
   vertex 66.0575 47.4444 423.463
  endloop
 endfacet
 facet normal 0.695073 -0.221552 -0.68395
  outer loop
   vertex 65.8166 43.3722 423.374
   vertex 65.6709 44.1746 422.966
   vertex 66.2281 43.5488 423.735
  endloop
 endfacet
 facet normal 0.781399 -0.0405698 -0.622712
  outer loop
   vertex 65.6569 46.0386 422.827
   vertex 65.6709 44.1746 422.966
   vertex 65.0522 44.8136 422.148
  endloop
 endfacet
 facet normal 0.763197 0.0520843 -0.644064
  outer loop
   vertex 65.2389 47.5634 422.455
   vertex 65.6569 46.0386 422.827
   vertex 64.3531 46.4338 421.314
  endloop
 endfacet
 facet normal 0.751501 0.0729914 -0.655682
  outer loop
   vertex 64.3531 46.4338 421.314
   vertex 64.2959 47.8493 421.406
   vertex 65.2389 47.5634 422.455
  endloop
 endfacet
 facet normal 0.756129 -0.0105666 -0.654337
  outer loop
   vertex 65.0522 44.8136 422.148
   vertex 64.3531 46.4338 421.314
   vertex 65.6569 46.0386 422.827
  endloop
 endfacet
 facet normal 0.755412 0.163864 -0.63443
  outer loop
   vertex 64.4777 48.827 421.875
   vertex 65.2389 47.5634 422.455
   vertex 64.2959 47.8493 421.406
  endloop
 endfacet
 facet normal 0.749795 -0.144768 -0.645639
  outer loop
   vertex 64.7166 44.244 421.886
   vertex 64.3223 44.677 421.331
   vertex 65.0522 44.8136 422.148
  endloop
 endfacet
 facet normal 0.747226 -0.0195276 -0.664283
  outer loop
   vertex 64.3223 44.677 421.331
   vertex 64.3531 46.4338 421.314
   vertex 65.0522 44.8136 422.148
  endloop
 endfacet
 facet normal 0.771796 -0.0196805 -0.635566
  outer loop
   vertex 64.3531 46.4338 421.314
   vertex 64.3223 44.677 421.331
   vertex 63.6631 45.1454 420.516
  endloop
 endfacet
 facet normal 0.788341 0.171151 -0.590954
  outer loop
   vertex 63.8451 49.1871 421.236
   vertex 63.6197 48.4989 420.736
   vertex 63.4197 49.4098 420.733
  endloop
 endfacet
 facet normal 0.69106 -0.223467 -0.687386
  outer loop
   vertex 63.7345 44.5972 420.766
   vertex 63.6631 45.1454 420.516
   vertex 64.3223 44.677 421.331
  endloop
 endfacet
 facet normal 0.786116 0.260471 -0.560514
  outer loop
   vertex 63.4197 49.4098 420.733
   vertex 63.0975 49.7259 420.428
   vertex 63.3415 49.7943 420.802
  endloop
 endfacet
 facet normal 0.748296 0.103026 -0.655315
  outer loop
   vertex 63.6197 48.4989 420.736
   vertex 64.2959 47.8493 421.406
   vertex 61.4023 46.3936 417.873
  endloop
 endfacet
 facet normal 0.743939 0.124893 -0.656473
  outer loop
   vertex 63.4197 49.4098 420.733
   vertex 61.4023 46.3936 417.873
   vertex 63.0975 49.7259 420.428
  endloop
 endfacet
 facet normal 0.721938 0.156298 -0.674075
  outer loop
   vertex 63.6197 48.4989 420.736
   vertex 61.4023 46.3936 417.873
   vertex 63.4197 49.4098 420.733
  endloop
 endfacet
 facet normal 0.756672 0.0728133 -0.649727
  outer loop
   vertex 64.2959 47.8493 421.406
   vertex 64.3531 46.4338 421.314
   vertex 61.4023 46.3936 417.873
  endloop
 endfacet
 facet normal 0.798612 0.0533763 -0.599475
  outer loop
   vertex 61.4023 46.3936 417.873
   vertex 62.7558 49.8518 419.984
   vertex 63.0975 49.7259 420.428
  endloop
 endfacet
 facet normal 0.767674 0.0871055 -0.634893
  outer loop
   vertex 61.4023 46.3936 417.873
   vertex 62.2898 50.2049 419.469
   vertex 62.7558 49.8518 419.984
  endloop
 endfacet
 facet normal 0.807885 0.0574898 -0.58653
  outer loop
   vertex 61.6828 49.5936 418.573
   vertex 62.2898 50.2049 419.469
   vertex 61.4023 46.3936 417.873
  endloop
 endfacet
 facet normal 0.786074 0.0655524 -0.614647
  outer loop
   vertex 61.6828 49.5936 418.573
   vertex 61.4023 46.3936 417.873
   vertex 60.5017 48.3138 416.926
  endloop
 endfacet
 facet normal 0.756346 0.130885 -0.640944
  outer loop
   vertex 61.7925 50.6638 418.921
   vertex 61.6828 49.5936 418.573
   vertex 61.1231 50.9965 418.199
  endloop
 endfacet
 facet normal 0.767089 0.106277 -0.632677
  outer loop
   vertex 61.6828 49.5936 418.573
   vertex 60.5017 48.3138 416.926
   vertex 60.3842 51.4895 417.317
  endloop
 endfacet
 facet normal 0.799508 0.165006 -0.577547
  outer loop
   vertex 61.1231 50.9965 418.199
   vertex 61.6828 49.5936 418.573
   vertex 60.3842 51.4895 417.317
  endloop
 endfacet
 facet normal 0.755736 0.0318654 -0.654101
  outer loop
   vertex 60.5017 48.3138 416.926
   vertex 61.4023 46.3936 417.873
   vertex 60.3292 46.6367 416.645
  endloop
 endfacet
 facet normal 0.742453 0.108852 -0.660995
  outer loop
   vertex 60.5017 48.3138 416.926
   vertex 60.2069 47.8228 416.514
   vertex 60.3842 51.4895 417.317
  endloop
 endfacet
 facet normal 0.815875 0.190846 -0.545825
  outer loop
   vertex 59.8497 51.5471 416.653
   vertex 59.5134 52.081 416.337
   vertex 59.779 52.1153 416.746
  endloop
 endfacet
 facet normal 0.778441 0.11909 -0.616318
  outer loop
   vertex 59.8497 51.5471 416.653
   vertex 60.3842 51.4895 417.317
   vertex 59.1834 49.3609 415.389
  endloop
 endfacet
 facet normal 0.796181 0.0924487 -0.597954
  outer loop
   vertex 59.1834 49.3609 415.389
   vertex 60.3842 51.4895 417.317
   vertex 60.2069 47.8228 416.514
  endloop
 endfacet
 facet normal 0.773655 0.341503 -0.533697
  outer loop
   vertex 59.5134 52.081 416.337
   vertex 58.9144 52.3675 415.652
   vertex 59.3291 52.3594 416.248
  endloop
 endfacet
 facet normal 0.771132 0.115099 -0.626184
  outer loop
   vertex 59.5134 52.081 416.337
   vertex 59.8497 51.5471 416.653
   vertex 58.9144 52.3675 415.652
  endloop
 endfacet
 facet normal 0.773585 0.12358 -0.621525
  outer loop
   vertex 59.8497 51.5471 416.653
   vertex 59.1834 49.3609 415.389
   vertex 58.9144 52.3675 415.652
  endloop
 endfacet
 facet normal 0.765785 0.0401204 -0.641844
  outer loop
   vertex 58.503 47.7257 414.475
   vertex 59.1834 49.3609 415.389
   vertex 60.2069 47.8228 416.514
  endloop
 endfacet
 facet normal 0.725134 0.526702 -0.443582
  outer loop
   vertex 58.676 52.7168 415.441
   vertex 58.1834 52.8543 414.799
   vertex 58.4398 52.8786 415.247
  endloop
 endfacet
 facet normal 0.797518 0.200625 -0.568959
  outer loop
   vertex 58.9144 52.3675 415.652
   vertex 58.1834 52.8543 414.799
   vertex 58.676 52.7168 415.441
  endloop
 endfacet
 facet normal 0.803341 0.122847 -0.58271
  outer loop
   vertex 59.1834 49.3609 415.389
   vertex 58.4681 50.4714 414.637
   vertex 58.9144 52.3675 415.652
  endloop
 endfacet
 facet normal 0.803437 -0.00151287 -0.595388
  outer loop
   vertex 59.1834 49.3609 415.389
   vertex 58.503 47.7257 414.475
   vertex 58.3905 48.9805 414.32
  endloop
 endfacet
 facet normal 0.784415 0.0896562 -0.613722
  outer loop
   vertex 58.3905 48.9805 414.32
   vertex 58.4681 50.4714 414.637
   vertex 59.1834 49.3609 415.389
  endloop
 endfacet
 facet normal 0.789126 0.135024 -0.599206
  outer loop
   vertex 58.4681 50.4714 414.637
   vertex 58.1834 52.8543 414.799
   vertex 58.9144 52.3675 415.652
  endloop
 endfacet
 facet normal 0.793539 -0.00402083 -0.608507
  outer loop
   vertex 58.3905 48.9805 414.32
   vertex 58.503 47.7257 414.475
   vertex 57.8735 48.1938 413.651
  endloop
 endfacet
 facet normal 0.779284 -0.0514419 -0.624556
  outer loop
   vertex 58.1959 47.7357 414.091
   vertex 57.8735 48.1938 413.651
   vertex 58.503 47.7257 414.475
  endloop
 endfacet
 facet normal 0.784876 0.134896 -0.604792
  outer loop
   vertex 56.5344 50.7561 412.191
   vertex 58.1834 52.8543 414.799
   vertex 58.4681 50.4714 414.637
  endloop
 endfacet
 facet normal 0.786368 0.0890415 -0.611308
  outer loop
   vertex 56.5344 50.7561 412.191
   vertex 58.4681 50.4714 414.637
   vertex 58.3905 48.9805 414.32
  endloop
 endfacet
 facet normal 0.76193 0.175939 -0.623304
  outer loop
   vertex 56.5344 50.7561 412.191
   vertex 56.5197 53.7071 413.006
   vertex 58.1834 52.8543 414.799
  endloop
 endfacet
 facet normal 0.765374 0.0291885 -0.642923
  outer loop
   vertex 56.9501 48.556 412.586
   vertex 56.5344 50.7561 412.191
   vertex 58.3905 48.9805 414.32
  endloop
 endfacet
 facet normal 0.788237 0.167465 -0.592147
  outer loop
   vertex 55.4548 51.3151 410.912
   vertex 56.5197 53.7071 413.006
   vertex 56.5344 50.7561 412.191
  endloop
 endfacet
 facet normal 0.762624 0.0474151 -0.645101
  outer loop
   vertex 57.8735 48.1938 413.651
   vertex 56.9501 48.556 412.586
   vertex 58.3905 48.9805 414.32
  endloop
 endfacet
 facet normal 0.823768 0.0543339 -0.564318
  outer loop
   vertex 56.4544 49.3931 411.943
   vertex 56.5344 50.7561 412.191
   vertex 56.9501 48.556 412.586
  endloop
 endfacet
 facet normal 0.76317 0.198572 -0.614932
  outer loop
   vertex 56.1659 53.8498 412.613
   vertex 56.5197 53.7071 413.006
   vertex 55.4548 51.3151 410.912
  endloop
 endfacet
 facet normal 0.724958 -0.094761 -0.682244
  outer loop
   vertex 56.4544 49.3931 411.943
   vertex 56.9501 48.556 412.586
   vertex 56.0664 48.779 411.616
  endloop
 endfacet
 facet normal 0.762067 0.19958 -0.615973
  outer loop
   vertex 56.1659 53.8498 412.613
   vertex 55.4548 51.3151 410.912
   vertex 55.6922 54.0876 412.104
  endloop
 endfacet
 facet normal 0.759513 -0.0809655 -0.645433
  outer loop
   vertex 56.4544 49.3931 411.943
   vertex 56.0494 49.0217 411.513
   vertex 55.6726 49.4729 411.013
  endloop
 endfacet
 facet normal 0.801209 0.0612843 -0.595238
  outer loop
   vertex 56.4544 49.3931 411.943
   vertex 55.8413 50.2796 411.209
   vertex 56.5344 50.7561 412.191
  endloop
 endfacet
 facet normal 0.7653 -0.00364424 -0.643663
  outer loop
   vertex 56.4544 49.3931 411.943
   vertex 55.6726 49.4729 411.013
   vertex 55.8413 50.2796 411.209
  endloop
 endfacet
 facet normal 0.78359 0.11748 -0.61007
  outer loop
   vertex 55.4548 51.3151 410.912
   vertex 56.5344 50.7561 412.191
   vertex 55.8413 50.2796 411.209
  endloop
 endfacet
 facet normal 0.789314 0.164554 -0.591529
  outer loop
   vertex 55.6922 54.0876 412.104
   vertex 54.443 51.5601 409.734
   vertex 55.298 54.4255 411.672
  endloop
 endfacet
 facet normal 0.776206 0.111732 -0.620499
  outer loop
   vertex 55.8413 50.2796 411.209
   vertex 55.0869 50.4556 410.297
   vertex 55.4548 51.3151 410.912
  endloop
 endfacet
 facet normal 0.769967 -0.00598281 -0.638055
  outer loop
   vertex 55.8413 50.2796 411.209
   vertex 55.6726 49.4729 411.013
   vertex 55.0869 50.4556 410.297
  endloop
 endfacet
 facet normal 0.76056 -0.0195452 -0.648974
  outer loop
   vertex 55.0869 50.4556 410.297
   vertex 55.6726 49.4729 411.013
   vertex 55.0174 49.7433 410.237
  endloop
 endfacet
 facet normal 0.717706 -0.186404 -0.670934
  outer loop
   vertex 55.6726 49.4729 411.013
   vertex 55.3151 49.2878 410.682
   vertex 55.0174 49.7433 410.237
  endloop
 endfacet
 facet normal 0.801755 0.151739 -0.57807
  outer loop
   vertex 54.443 51.5601 409.734
   vertex 54.0085 54.9912 410.032
   vertex 55.298 54.4255 411.672
  endloop
 endfacet
 facet normal 0.763502 0.198801 -0.614446
  outer loop
   vertex 55.4548 51.3151 410.912
   vertex 54.443 51.5601 409.734
   vertex 55.6922 54.0876 412.104
  endloop
 endfacet
 facet normal 0.740055 -0.0155742 -0.672366
  outer loop
   vertex 55.0174 49.7433 410.237
   vertex 54.238 50.2235 409.368
   vertex 55.0869 50.4556 410.297
  endloop
 endfacet
 facet normal 0.765335 0.124272 -0.631521
  outer loop
   vertex 55.4548 51.3151 410.912
   vertex 55.0869 50.4556 410.297
   vertex 54.443 51.5601 409.734
  endloop
 endfacet
 facet normal 0.684727 -0.170779 -0.708507
  outer loop
   vertex 54.238 50.2235 409.368
   vertex 55.0174 49.7433 410.237
   vertex 54.5376 49.7777 409.765
  endloop
 endfacet
 facet normal 0.726631 0.0755388 -0.682863
  outer loop
   vertex 54.238 50.2235 409.368
   vertex 54.443 51.5601 409.734
   vertex 55.0869 50.4556 410.297
  endloop
 endfacet
 facet normal 0.775366 0.151438 -0.613086
  outer loop
   vertex 52.9992 51.4587 407.883
   vertex 54.0085 54.9912 410.032
   vertex 54.443 51.5601 409.734
  endloop
 endfacet
 facet normal 0.815455 0.112432 -0.567797
  outer loop
   vertex 52.9992 51.4587 407.883
   vertex 53.3716 54.8634 409.092
   vertex 54.0085 54.9912 410.032
  endloop
 endfacet
 facet normal 0.774247 0.0539198 -0.630582
  outer loop
   vertex 54.238 50.2235 409.368
   vertex 53.4879 50.5626 408.476
   vertex 54.443 51.5601 409.734
  endloop
 endfacet
 facet normal 0.694358 -0.244464 -0.676834
  outer loop
   vertex 53.4879 50.5626 408.476
   vertex 54.238 50.2235 409.368
   vertex 53.7771 50.1991 408.904
  endloop
 endfacet
 facet normal 0.787716 0.0221774 -0.615639
  outer loop
   vertex 52.9992 51.4587 407.883
   vertex 54.443 51.5601 409.734
   vertex 53.4879 50.5626 408.476
  endloop
 endfacet
 facet normal 0.790571 0.126306 -0.599204
  outer loop
   vertex 52.9992 51.4587 407.883
   vertex 52.434 56.3247 408.163
   vertex 53.3716 54.8634 409.092
  endloop
 endfacet
 facet normal 0.826597 0.478805 -0.295776
  outer loop
   vertex 52.434 56.3247 408.163
   vertex 51.7437 57.1433 407.559
   vertex 52.4102 56.4634 408.321
  endloop
 endfacet
 facet normal 0.798939 0.12663 -0.587929
  outer loop
   vertex 51.9222 53.4577 406.85
   vertex 52.434 56.3247 408.163
   vertex 52.9992 51.4587 407.883
  endloop
 endfacet
 facet normal 0.783119 -0.0578786 -0.619173
  outer loop
   vertex 52.5661 51.3433 407.346
   vertex 52.9992 51.4587 407.883
   vertex 52.931 50.9104 407.848
  endloop
 endfacet
 facet normal 0.811318 0.11744 -0.572687
  outer loop
   vertex 51.9222 53.4577 406.85
   vertex 51.3257 56.691 406.668
   vertex 52.434 56.3247 408.163
  endloop
 endfacet
 facet normal 0.801451 0.289848 -0.523129
  outer loop
   vertex 51.7437 57.1433 407.559
   vertex 52.434 56.3247 408.163
   vertex 51.3257 56.691 406.668
  endloop
 endfacet
 facet normal 0.797993 0.125311 -0.589494
  outer loop
   vertex 52.1466 52.0287 406.85
   vertex 51.9222 53.4577 406.85
   vertex 52.9992 51.4587 407.883
  endloop
 endfacet
 facet normal 0.776234 0.019073 -0.630157
  outer loop
   vertex 52.1466 52.0287 406.85
   vertex 52.9992 51.4587 407.883
   vertex 52.5661 51.3433 407.346
  endloop
 endfacet
 facet normal 0.698309 -0.0867748 -0.710517
  outer loop
   vertex 52.1466 52.0287 406.85
   vertex 52.5661 51.3433 407.346
   vertex 52.0646 51.6637 406.814
  endloop
 endfacet
 facet normal 0.752332 0.10216 -0.650815
  outer loop
   vertex 50.6394 52.9218 405.283
   vertex 51.3257 56.691 406.668
   vertex 51.9222 53.4577 406.85
  endloop
 endfacet
 facet normal 0.718705 -0.0934792 -0.689003
  outer loop
   vertex 52.1466 52.0287 406.85
   vertex 52.0646 51.6637 406.814
   vertex 51.7141 51.9909 406.404
  endloop
 endfacet
 facet normal 0.747311 0.117352 -0.654029
  outer loop
   vertex 52.1466 52.0287 406.85
   vertex 51.4569 52.4805 406.143
   vertex 51.9222 53.4577 406.85
  endloop
 endfacet
 facet normal 0.748873 0.115547 -0.652562
  outer loop
   vertex 51.4569 52.4805 406.143
   vertex 50.6394 52.9218 405.283
   vertex 51.9222 53.4577 406.85
  endloop
 endfacet
 facet normal 0.797108 0.21871 -0.562837
  outer loop
   vertex 50.4548 56.8307 405.401
   vertex 50.2595 58.9244 405.938
   vertex 50.9013 57.8154 406.416
  endloop
 endfacet
 facet normal 0.818995 0.187587 -0.542271
  outer loop
   vertex 50.9013 57.8154 406.416
   vertex 51.3257 56.691 406.668
   vertex 50.4548 56.8307 405.401
  endloop
 endfacet
 facet normal 0.869064 0.0674457 -0.490081
  outer loop
   vertex 15.2531 66.9631 347.416
   vertex 15.5306 65.5528 347.714
   vertex 15.0162 66.092 346.876
  endloop
 endfacet
 facet normal 0.82505 0.100708 -0.556013
  outer loop
   vertex 50.4548 56.8307 405.401
   vertex 51.3257 56.691 406.668
   vertex 50.5288 54.9104 405.163
  endloop
 endfacet
 facet normal 0.873966 0.0193051 -0.485604
  outer loop
   vertex 50.6394 52.9218 405.283
   vertex 50.5288 54.9104 405.163
   vertex 51.3257 56.691 406.668
  endloop
 endfacet
 facet normal 0.837281 0.013584 -0.546603
  outer loop
   vertex 50.5288 54.9104 405.163
   vertex 50.6394 52.9218 405.283
   vertex 50.2309 53.7165 404.677
  endloop
 endfacet
 facet normal 0.852045 0.203208 -0.482416
  outer loop
   vertex 50.4548 56.8307 405.401
   vertex 49.5148 58.2082 404.321
   vertex 50.2595 58.9244 405.938
  endloop
 endfacet
 facet normal 0.85865 -0.00561749 -0.512531
  outer loop
   vertex 50.2309 53.7165 404.677
   vertex 49.8285 54.7064 403.992
   vertex 50.5288 54.9104 405.163
  endloop
 endfacet
 facet normal 0.846367 0.0975118 -0.523597
  outer loop
   vertex 50.5288 54.9104 405.163
   vertex 49.7845 55.9421 404.152
   vertex 50.4548 56.8307 405.401
  endloop
 endfacet
 facet normal 0.842706 -0.0294253 -0.53757
  outer loop
   vertex 50.2309 53.7165 404.677
   vertex 49.6303 54.2369 403.707
   vertex 49.8285 54.7064 403.992
  endloop
 endfacet
 facet normal 0.827959 0.139057 -0.543275
  outer loop
   vertex 49.7845 55.9421 404.152
   vertex 49.5148 58.2082 404.321
   vertex 50.4548 56.8307 405.401
  endloop
 endfacet
 facet normal 0.846505 0.0979003 -0.523302
  outer loop
   vertex 49.8285 54.7064 403.992
   vertex 49.7845 55.9421 404.152
   vertex 50.5288 54.9104 405.163
  endloop
 endfacet
 facet normal 0.796321 -0.165426 -0.581813
  outer loop
   vertex 49.6303 54.2369 403.707
   vertex 50.2309 53.7165 404.677
   vertex 49.753 53.9061 403.969
  endloop
 endfacet
 facet normal 0.854577 0.0965016 -0.510279
  outer loop
   vertex 49.3548 55.2685 403.305
   vertex 49.7845 55.9421 404.152
   vertex 49.8285 54.7064 403.992
  endloop
 endfacet
 facet normal 0.857951 0.0207388 -0.513313
  outer loop
   vertex 15.0162 66.092 346.876
   vertex 15.5306 65.5528 347.714
   vertex 15.0569 64.8781 346.895
  endloop
 endfacet
 facet normal 0.685663 -0.278367 -0.672591
  outer loop
   vertex 49.6303 54.2369 403.707
   vertex 49.753 53.9061 403.969
   vertex 49.4574 54.0357 403.614
  endloop
 endfacet
 facet normal 0.792833 0.184648 -0.580794
  outer loop
   vertex 48.7813 57.8379 403.202
   vertex 49.3322 60.0491 404.657
   vertex 49.5148 58.2082 404.321
  endloop
 endfacet
 facet normal 0.80655 0.138847 -0.574629
  outer loop
   vertex 49.5148 58.2082 404.321
   vertex 49.7845 55.9421 404.152
   vertex 48.7813 57.8379 403.202
  endloop
 endfacet
 facet normal 0.826385 0.00825202 -0.563045
  outer loop
   vertex 49.8285 54.7064 403.992
   vertex 49.1583 54.6825 403.008
   vertex 49.3548 55.2685 403.305
  endloop
 endfacet
 facet normal 0.845779 0.0999429 -0.524089
  outer loop
   vertex 48.69 60.4758 403.702
   vertex 49.3322 60.0491 404.657
   vertex 48.0151 60.3141 402.582
  endloop
 endfacet
 facet normal 0.833679 0.14325 -0.533347
  outer loop
   vertex 48.7813 57.8379 403.202
   vertex 46.0517 60.0817 399.538
   vertex 49.3322 60.0491 404.657
  endloop
 endfacet
 facet normal 0.841072 -0.0422937 -0.539267
  outer loop
   vertex 46.0517 60.0817 399.538
   vertex 48.0151 60.3141 402.582
   vertex 49.3322 60.0491 404.657
  endloop
 endfacet
 facet normal 0.839374 0.188737 -0.509734
  outer loop
   vertex 49.7845 55.9421 404.152
   vertex 46.0517 60.0817 399.538
   vertex 48.7813 57.8379 403.202
  endloop
 endfacet
 facet normal 0.822872 0.123899 -0.554555
  outer loop
   vertex 49.7845 55.9421 404.152
   vertex 48.7642 55.4898 402.537
   vertex 46.0517 60.0817 399.538
  endloop
 endfacet
 facet normal 0.82608 0.146982 -0.544047
  outer loop
   vertex 47.2854 61.9833 401.925
   vertex 48.0151 60.3141 402.582
   vertex 46.0517 60.0817 399.538
  endloop
 endfacet
 facet normal 0.70079 -0.0507565 -0.711559
  outer loop
   vertex 46.9679 56.2589 400.713
   vertex 46.0517 60.0817 399.538
   vertex 48.7642 55.4898 402.537
  endloop
 endfacet
 facet normal 0.891575 0.0764806 -0.446368
  outer loop
   vertex 46.0517 60.0817 399.538
   vertex 46.9679 56.2589 400.713
   vertex 46.5937 57.2185 400.13
  endloop
 endfacet
 facet normal 0.819276 0.159746 -0.550698
  outer loop
   vertex 47.2854 61.9833 401.925
   vertex 46.0517 60.0817 399.538
   vertex 46.9149 62.4494 401.509
  endloop
 endfacet
 facet normal 0.820584 -0.026859 -0.570894
  outer loop
   vertex 46.6914 56.5689 400.301
   vertex 46.5937 57.2185 400.13
   vertex 46.9679 56.2589 400.713
  endloop
 endfacet
 facet normal 0.829815 0.158074 -0.535182
  outer loop
   vertex 45.0794 60.6027 398.091
   vertex 45.7618 64.1709 400.203
   vertex 46.1889 63.3406 400.62
  endloop
 endfacet
 facet normal 0.857667 0.0566833 -0.511071
  outer loop
   vertex 46.5937 57.2185 400.13
   vertex 45.9657 58.6873 399.239
   vertex 46.0517 60.0817 399.538
  endloop
 endfacet
 facet normal 0.753943 -0.0588361 -0.654299
  outer loop
   vertex 46.5937 57.2185 400.13
   vertex 46.6914 56.5689 400.301
   vertex 46.3711 56.7237 399.918
  endloop
 endfacet
 facet normal 0.867252 0.120123 -0.483161
  outer loop
   vertex 45.3663 64.9106 399.677
   vertex 45.7618 64.1709 400.203
   vertex 45.0794 60.6027 398.091
  endloop
 endfacet
 facet normal 0.772045 -0.0540493 -0.633265
  outer loop
   vertex 45.9657 58.6873 399.239
   vertex 46.5937 57.2185 400.13
   vertex 45.9231 57.1885 399.315
  endloop
 endfacet
 facet normal 0.918092 0.175507 -0.355393
  outer loop
   vertex 45.3663 64.9106 399.677
   vertex 45.0895 65.8098 399.406
   vertex 45.2644 65.5388 399.724
  endloop
 endfacet
 facet normal 0.858878 0.104308 -0.501446
  outer loop
   vertex 46.0517 60.0817 399.538
   vertex 45.7306 61.0576 399.191
   vertex 46.9149 62.4494 401.509
  endloop
 endfacet
 facet normal 0.866413 0.120682 -0.484526
  outer loop
   vertex 45.0794 60.6027 398.091
   vertex 45.0895 65.8098 399.406
   vertex 45.3663 64.9106 399.677
  endloop
 endfacet
 facet normal 0.85996 0.0621724 -0.50656
  outer loop
   vertex 15.5306 65.5528 347.714
   vertex 15.2531 66.9631 347.416
   vertex 15.7409 66.7342 348.216
  endloop
 endfacet
 facet normal 0.841088 0.0869259 -0.533868
  outer loop
   vertex 46.0517 60.0817 399.538
   vertex 45.0794 60.6027 398.091
   vertex 45.7306 61.0576 399.191
  endloop
 endfacet
 facet normal 0.838854 0.0641669 -0.540562
  outer loop
   vertex 46.0517 60.0817 399.538
   vertex 45.9657 58.6873 399.239
   vertex 45.0794 60.6027 398.091
  endloop
 endfacet
 facet normal 0.838085 0.015603 -0.545316
  outer loop
   vertex 45.6162 58.1326 398.686
   vertex 45.0545 59.0151 397.848
   vertex 45.9657 58.6873 399.239
  endloop
 endfacet
 facet normal 0.841875 0.068731 -0.535279
  outer loop
   vertex 45.0545 59.0151 397.848
   vertex 45.0794 60.6027 398.091
   vertex 45.9657 58.6873 399.239
  endloop
 endfacet
 facet normal 0.877444 0.17453 -0.446801
  outer loop
   vertex 45.0895 65.8098 399.406
   vertex 43.7459 67.2706 397.338
   vertex 44.0105 67.5633 397.972
  endloop
 endfacet
 facet normal 0.869004 0.119569 -0.480141
  outer loop
   vertex 43.7459 67.2706 397.338
   vertex 45.0895 65.8098 399.406
   vertex 45.0794 60.6027 398.091
  endloop
 endfacet
 facet normal 0.833003 0.0709252 -0.548704
  outer loop
   vertex 43.5699 59.0911 395.604
   vertex 45.0794 60.6027 398.091
   vertex 45.0545 59.0151 397.848
  endloop
 endfacet
 facet normal 0.841128 0.033804 -0.539778
  outer loop
   vertex 42.9148 59.1026 394.624
   vertex 41.9678 62.2596 393.346
   vertex 45.0794 60.6027 398.091
  endloop
 endfacet
 facet normal 0.84832 0.111194 -0.517676
  outer loop
   vertex 43.7459 67.2706 397.338
   vertex 45.0794 60.6027 398.091
   vertex 42.7013 66.3664 395.432
  endloop
 endfacet
 facet normal 0.828986 0.0823022 -0.553181
  outer loop
   vertex 45.0794 60.6027 398.091
   vertex 43.5699 59.0911 395.604
   vertex 42.9148 59.1026 394.624
  endloop
 endfacet
 facet normal 0.83162 -0.0590816 -0.552193
  outer loop
   vertex 45.0545 59.0151 397.848
   vertex 44.3598 58.2931 396.879
   vertex 43.5699 59.0911 395.604
  endloop
 endfacet
 facet normal 0.848417 0.11132 -0.51749
  outer loop
   vertex 45.0794 60.6027 398.091
   vertex 41.9678 62.2596 393.346
   vertex 42.7013 66.3664 395.432
  endloop
 endfacet
 facet normal 0.839429 0.119379 -0.530196
  outer loop
   vertex 42.4766 65.9078 394.973
   vertex 42.7013 66.3664 395.432
   vertex 41.9678 62.2596 393.346
  endloop
 endfacet
 facet normal 0.855576 0.106597 -0.506584
  outer loop
   vertex 42.4766 65.9078 394.973
   vertex 41.9678 62.2596 393.346
   vertex 42.0526 65.5757 394.187
  endloop
 endfacet
 facet normal 0.721141 0.406685 -0.560859
  outer loop
   vertex 42.0526 65.5757 394.187
   vertex 42.1495 65.9486 394.582
   vertex 42.4766 65.9078 394.973
  endloop
 endfacet
 facet normal 0.84682 0.110303 -0.520316
  outer loop
   vertex 42.0526 65.5757 394.187
   vertex 41.9678 62.2596 393.346
   vertex 41.4885 65.0996 393.168
  endloop
 endfacet
 facet normal 0.901551 0.100032 -0.42095
  outer loop
   vertex 42.2495 60.6423 393.565
   vertex 41.9678 62.2596 393.346
   vertex 42.9148 59.1026 394.624
  endloop
 endfacet
 facet normal 0.88421 0.0638164 -0.46271
  outer loop
   vertex 42.5489 59.5464 393.986
   vertex 42.2495 60.6423 393.565
   vertex 42.9148 59.1026 394.624
  endloop
 endfacet
 facet normal 0.803106 -0.162116 -0.573357
  outer loop
   vertex 42.357 59.0484 393.858
   vertex 42.5489 59.5464 393.986
   vertex 42.9148 59.1026 394.624
  endloop
 endfacet
 facet normal 0.842036 -0.0357606 -0.538234
  outer loop
   vertex 15.4859 64.4098 347.72
   vertex 15.5306 65.5528 347.714
   vertex 16.07 64.2261 348.646
  endloop
 endfacet
 facet normal 0.887133 0.0375442 -0.459985
  outer loop
   vertex 15.7409 66.7342 348.216
   vertex 16.07 64.2261 348.646
   vertex 15.5306 65.5528 347.714
  endloop
 endfacet
 facet normal 0.851964 0.078292 -0.517715
  outer loop
   vertex 41.5282 59.6372 392.226
   vertex 41.9678 62.2596 393.346
   vertex 42.2495 60.6423 393.565
  endloop
 endfacet
 facet normal 0.870834 0.0288044 -0.490733
  outer loop
   vertex 42.2495 60.6423 393.565
   vertex 42.2138 59.5068 393.435
   vertex 41.5282 59.6372 392.226
  endloop
 endfacet
 facet normal 0.851656 -0.157323 -0.499932
  outer loop
   vertex 41.9768 59.1485 393.144
   vertex 41.5282 59.6372 392.226
   vertex 42.2138 59.5068 393.435
  endloop
 endfacet
 facet normal 0.845695 0.109995 -0.522207
  outer loop
   vertex 41.9678 62.2596 393.346
   vertex 39.8816 59.8646 389.463
   vertex 41.4885 65.0996 393.168
  endloop
 endfacet
 facet normal 0.834273 0.124113 -0.537201
  outer loop
   vertex 41.4885 65.0996 393.168
   vertex 39.8816 59.8646 389.463
   vertex 40.6028 65.435 391.87
  endloop
 endfacet
 facet normal 0.859387 0.0721347 -0.506211
  outer loop
   vertex 41.5282 59.6372 392.226
   vertex 39.8816 59.8646 389.463
   vertex 41.9678 62.2596 393.346
  endloop
 endfacet
 facet normal 0.895288 0.0739155 -0.439313
  outer loop
   vertex 40.1621 65.1207 390.919
   vertex 40.6028 65.435 391.87
   vertex 39.8816 59.8646 389.463
  endloop
 endfacet
 facet normal 0.820598 0.111479 -0.560528
  outer loop
   vertex 40.1621 65.1207 390.919
   vertex 39.8816 59.8646 389.463
   vertex 39.3926 65.4451 389.857
  endloop
 endfacet
 facet normal 0.93048 0.106286 -0.350586
  outer loop
   vertex 39.3926 65.4451 389.857
   vertex 39.8816 59.8646 389.463
   vertex 39.1217 65.0526 389.019
  endloop
 endfacet
 facet normal 0.886752 0.0911009 -0.453179
  outer loop
   vertex 39.1217 65.0526 389.019
   vertex 39.8816 59.8646 389.463
   vertex 38.811 64.5001 388.3
  endloop
 endfacet
 facet normal 0.845654 -0.0769855 -0.52815
  outer loop
   vertex 39.2298 59.7095 388.442
   vertex 38.0167 61.4632 386.244
   vertex 39.8816 59.8646 389.463
  endloop
 endfacet
 facet normal 0.880013 0.0860545 -0.467088
  outer loop
   vertex 38.811 64.5001 388.3
   vertex 39.8816 59.8646 389.463
   vertex 38.0167 61.4632 386.244
  endloop
 endfacet
 facet normal 0.875875 0.0916494 -0.473754
  outer loop
   vertex 37.4561 61.0726 385.132
   vertex 38.811 64.5001 388.3
   vertex 38.0167 61.4632 386.244
  endloop
 endfacet
 facet normal 0.863579 0.175436 -0.472709
  outer loop
   vertex 36.3589 65.1729 384.07
   vertex 37.0372 65.5092 385.434
   vertex 38.811 64.5001 388.3
  endloop
 endfacet
 facet normal 0.867487 0.106263 -0.485977
  outer loop
   vertex 38.811 64.5001 388.3
   vertex 37.4561 61.0726 385.132
   vertex 36.3589 65.1729 384.07
  endloop
 endfacet
 facet normal 0.887075 0.0368546 -0.460153
  outer loop
   vertex 38.0167 61.4632 386.244
   vertex 38.3854 60.3302 386.864
   vertex 37.4561 61.0726 385.132
  endloop
 endfacet
 facet normal 0.878016 -0.0168969 -0.478332
  outer loop
   vertex 37.4561 61.0726 385.132
   vertex 38.3854 60.3302 386.864
   vertex 37.3425 60.2934 384.951
  endloop
 endfacet
 facet normal 0.880304 0.109977 -0.461486
  outer loop
   vertex 37.4561 61.0726 385.132
   vertex 36.7705 61.6425 383.96
   vertex 36.4843 63.7824 383.924
  endloop
 endfacet
 facet normal 0.891746 0.126055 -0.434625
  outer loop
   vertex 36.3589 65.1729 384.07
   vertex 37.4561 61.0726 385.132
   vertex 36.4843 63.7824 383.924
  endloop
 endfacet
 facet normal 0.884107 -0.0204551 -0.466837
  outer loop
   vertex 37.3425 60.2934 384.951
   vertex 36.975 60.5449 384.244
   vertex 37.4561 61.0726 385.132
  endloop
 endfacet
 facet normal 0.799735 -0.29742 -0.521504
  outer loop
   vertex 36.975 60.5449 384.244
   vertex 37.3425 60.2934 384.951
   vertex 36.9871 60.2004 384.459
  endloop
 endfacet
 facet normal 0.869915 0.0347825 -0.491973
  outer loop
   vertex 37.4561 61.0726 385.132
   vertex 36.975 60.5449 384.244
   vertex 36.7705 61.6425 383.96
  endloop
 endfacet
 facet normal 0.89216 0.0399239 -0.449952
  outer loop
   vertex 15.7409 66.7342 348.216
   vertex 16.0462 67.181 348.861
   vertex 16.07 64.2261 348.646
  endloop
 endfacet
 facet normal 0.848995 0.130331 -0.512075
  outer loop
   vertex 36.4843 63.7824 383.924
   vertex 35.4197 65.6606 382.637
   vertex 36.3589 65.1729 384.07
  endloop
 endfacet
 facet normal 0.865138 0.0520503 -0.498826
  outer loop
   vertex 36.7705 61.6425 383.96
   vertex 36.6493 60.6288 383.644
   vertex 36.2475 60.7135 382.956
  endloop
 endfacet
 facet normal 0.83505 -0.200486 -0.512345
  outer loop
   vertex 36.6559 60.365 383.758
   vertex 36.2475 60.7135 382.956
   vertex 36.6493 60.6288 383.644
  endloop
 endfacet
 facet normal 0.83974 0.103349 -0.533063
  outer loop
   vertex 36.4843 63.7824 383.924
   vertex 36.7705 61.6425 383.96
   vertex 36.2475 60.7135 382.956
  endloop
 endfacet
 facet normal 0.85319 0.139133 -0.502701
  outer loop
   vertex 35.1856 61.8066 381.173
   vertex 35.4197 65.6606 382.637
   vertex 36.4843 63.7824 383.924
  endloop
 endfacet
 facet normal 0.877461 0.0813951 -0.472691
  outer loop
   vertex 36.4843 63.7824 383.924
   vertex 36.2475 60.7135 382.956
   vertex 35.1856 61.8066 381.173
  endloop
 endfacet
 facet normal 0.884634 0.117658 -0.451197
  outer loop
   vertex 35.1856 61.8066 381.173
   vertex 35.0192 65.4698 381.802
   vertex 35.4197 65.6606 382.637
  endloop
 endfacet
 facet normal 0.873461 0.060497 -0.483121
  outer loop
   vertex 35.1856 61.8066 381.173
   vertex 36.2475 60.7135 382.956
   vertex 35.7911 60.7468 382.135
  endloop
 endfacet
 facet normal 0.880341 0.11884 -0.459214
  outer loop
   vertex 34.7278 62.663 380.517
   vertex 35.0192 65.4698 381.802
   vertex 35.1856 61.8066 381.173
  endloop
 endfacet
 facet normal 0.868979 0.0495469 -0.492363
  outer loop
   vertex 35.1216 60.9912 380.978
   vertex 35.1856 61.8066 381.173
   vertex 35.7911 60.7468 382.135
  endloop
 endfacet
 facet normal 0.835913 -0.174183 -0.520489
  outer loop
   vertex 35.3073 60.6781 381.381
   vertex 35.1216 60.9912 380.978
   vertex 35.7911 60.7468 382.135
  endloop
 endfacet
 facet normal 0.861517 0.0759959 -0.502009
  outer loop
   vertex 34.5283 61.3179 379.971
   vertex 34.7278 62.663 380.517
   vertex 35.1856 61.8066 381.173
  endloop
 endfacet
 facet normal 0.867534 0.0502509 -0.494833
  outer loop
   vertex 35.1216 60.9912 380.978
   vertex 34.5283 61.3179 379.971
   vertex 35.1856 61.8066 381.173
  endloop
 endfacet
 facet normal 0.875585 0.122967 -0.467152
  outer loop
   vertex 34.7278 62.663 380.517
   vertex 34.4573 65.2425 380.689
   vertex 35.0192 65.4698 381.802
  endloop
 endfacet
 facet normal 0.870617 0.123058 -0.476322
  outer loop
   vertex 34.0246 64.0925 379.601
   vertex 34.4573 65.2425 380.689
   vertex 34.7278 62.663 380.517
  endloop
 endfacet
 facet normal 0.853577 0.15065 -0.49871
  outer loop
   vertex 34.4573 65.2425 380.689
   vertex 34.0246 64.0925 379.601
   vertex 33.7502 65.8392 379.659
  endloop
 endfacet
 facet normal 0.866092 0.114205 -0.486664
  outer loop
   vertex 34.7278 62.663 380.517
   vertex 34.133 62.286 379.37
   vertex 34.0246 64.0925 379.601
  endloop
 endfacet
 facet normal 0.87737 0.0629521 -0.475667
  outer loop
   vertex 34.5283 61.3179 379.971
   vertex 34.133 62.286 379.37
   vertex 34.7278 62.663 380.517
  endloop
 endfacet
 facet normal 0.86748 0.046743 -0.495271
  outer loop
   vertex 34.133 62.286 379.37
   vertex 34.5283 61.3179 379.971
   vertex 33.6328 61.3125 378.402
  endloop
 endfacet
 facet normal 0.863854 0.114567 -0.490541
  outer loop
   vertex 33.4547 62.7848 378.292
   vertex 34.0246 64.0925 379.601
   vertex 34.133 62.286 379.37
  endloop
 endfacet
 facet normal 0.857986 0.0657203 -0.509451
  outer loop
   vertex 33.6328 61.3125 378.402
   vertex 33.4547 62.7848 378.292
   vertex 34.133 62.286 379.37
  endloop
 endfacet
 facet normal 0.852259 0.113084 -0.510751
  outer loop
   vertex 32.4353 61.7597 376.364
   vertex 32.2889 65.6272 376.976
   vertex 33.4547 62.7848 378.292
  endloop
 endfacet
 facet normal 0.865342 0.0675699 -0.496607
  outer loop
   vertex 33.4547 62.7848 378.292
   vertex 33.6328 61.3125 378.402
   vertex 32.944 61.4685 377.223
  endloop
 endfacet
 facet normal 0.867967 0.0632759 -0.492574
  outer loop
   vertex 32.944 61.4685 377.223
   vertex 32.4353 61.7597 376.364
   vertex 33.4547 62.7848 378.292
  endloop
 endfacet
 facet normal 0.841874 -0.0959029 -0.531084
  outer loop
   vertex 32.2514 61.2474 376.165
   vertex 32.4353 61.7597 376.364
   vertex 32.944 61.4685 377.223
  endloop
 endfacet
 facet normal 0.863095 0.110649 -0.492771
  outer loop
   vertex 31.9299 61.9922 375.531
   vertex 32.2889 65.6272 376.976
   vertex 32.4353 61.7597 376.364
  endloop
 endfacet
 facet normal 0.852164 0.0447969 -0.521354
  outer loop
   vertex 16.0462 67.181 348.861
   vertex 17.1388 64.3895 350.407
   vertex 16.07 64.2261 348.646
  endloop
 endfacet
 facet normal 0.829101 0.133904 -0.542826
  outer loop
   vertex 30.7442 61.5382 373.608
   vertex 32.2889 65.6272 376.976
   vertex 31.9299 61.9922 375.531
  endloop
 endfacet
 facet normal 0.867627 0.0768587 -0.491239
  outer loop
   vertex 32.2889 65.6272 376.976
   vertex 30.7442 61.5382 373.608
   vertex 29.3548 65.2195 371.73
  endloop
 endfacet
 facet normal 0.878918 0.0930747 -0.467805
  outer loop
   vertex 29.9903 61.9425 372.272
   vertex 29.3548 65.2195 371.73
   vertex 30.7442 61.5382 373.608
  endloop
 endfacet
 facet normal 0.858317 0.0826941 -0.506413
  outer loop
   vertex 29.3548 65.2195 371.73
   vertex 29.9903 61.9425 372.272
   vertex 29.4727 62.1095 371.422
  endloop
 endfacet
 facet normal 0.860754 0.164243 -0.481796
  outer loop
   vertex 29.1227 65.9606 371.568
   vertex 29.3548 65.2195 371.73
   vertex 28.9094 65.6 371.064
  endloop
 endfacet
 facet normal 0.853797 0.107989 -0.509282
  outer loop
   vertex 28.9094 65.6 371.064
   vertex 29.3548 65.2195 371.73
   vertex 28.3275 63.004 369.538
  endloop
 endfacet
 facet normal 0.868364 0.0813708 -0.489206
  outer loop
   vertex 28.3275 63.004 369.538
   vertex 29.3548 65.2195 371.73
   vertex 29.4727 62.1095 371.422
  endloop
 endfacet
 facet normal 0.84673 0.115484 -0.519338
  outer loop
   vertex 28.3275 63.004 369.538
   vertex 28.1381 66.133 369.925
   vertex 28.9094 65.6 371.064
  endloop
 endfacet
 facet normal 0.835732 -0.075617 -0.543906
  outer loop
   vertex 28.9991 61.7808 370.74
   vertex 28.3275 63.004 369.538
   vertex 29.4727 62.1095 371.422
  endloop
 endfacet
 facet normal 0.886319 0.109304 -0.449991
  outer loop
   vertex 28.1381 66.133 369.925
   vertex 28.3275 63.004 369.538
   vertex 27.8746 64.3587 368.975
  endloop
 endfacet
 facet normal 0.866351 0.0345367 -0.498239
  outer loop
   vertex 28.3275 63.004 369.538
   vertex 28.5401 62.302 369.859
   vertex 28.0914 62.276 369.077
  endloop
 endfacet
 facet normal 0.845237 0.0619932 -0.530784
  outer loop
   vertex 28.3275 63.004 369.538
   vertex 28.0914 62.276 369.077
   vertex 27.8746 64.3587 368.975
  endloop
 endfacet
 facet normal 0.875155 0.0676388 -0.479092
  outer loop
   vertex 27.8746 64.3587 368.975
   vertex 28.0914 62.276 369.077
   vertex 27.6273 62.7772 368.3
  endloop
 endfacet
 facet normal 0.843097 0.0941475 -0.529455
  outer loop
   vertex 26.6204 62.3858 366.627
   vertex 27.8746 64.3587 368.975
   vertex 27.6273 62.7772 368.3
  endloop
 endfacet
 facet normal 0.85348 -0.0171573 -0.520843
  outer loop
   vertex 27.6135 62.0296 368.302
   vertex 27.6273 62.7772 368.3
   vertex 28.0914 62.276 369.077
  endloop
 endfacet
 facet normal 0.85628 0.00481504 -0.51649
  outer loop
   vertex 27.0033 62.1918 367.26
   vertex 26.6204 62.3858 366.627
   vertex 27.6273 62.7772 368.3
  endloop
 endfacet
 facet normal 0.854062 0.0704284 -0.515382
  outer loop
   vertex 26.6204 62.3858 366.627
   vertex 27.2221 65.8169 368.093
   vertex 27.8746 64.3587 368.975
  endloop
 endfacet
 facet normal 0.86879 0.05777 -0.4918
  outer loop
   vertex 26.6204 62.3858 366.627
   vertex 26.7626 66.0361 367.307
   vertex 27.2221 65.8169 368.093
  endloop
 endfacet
 facet normal 0.862998 0.0598308 -0.501651
  outer loop
   vertex 26.6204 62.3858 366.627
   vertex 26.392 65.8729 366.65
   vertex 26.7626 66.0361 367.307
  endloop
 endfacet
 facet normal 0.883275 0.0609165 -0.464882
  outer loop
   vertex 26.6204 62.3858 366.627
   vertex 26.2153 64.7567 366.168
   vertex 26.392 65.8729 366.65
  endloop
 endfacet
 facet normal 0.860387 0.0810657 -0.503152
  outer loop
   vertex 26.2153 64.7567 366.168
   vertex 26.0275 66.0485 366.055
   vertex 26.392 65.8729 366.65
  endloop
 endfacet
 facet normal 0.873749 0.055748 -0.483171
  outer loop
   vertex 26.2153 64.7567 366.168
   vertex 26.6204 62.3858 366.627
   vertex 26.0845 62.9152 365.719
  endloop
 endfacet
 facet normal 0.865567 0.0597533 -0.497215
  outer loop
   vertex 26.0845 62.9152 365.719
   vertex 25.6888 64.1872 365.183
   vertex 26.2153 64.7567 366.168
  endloop
 endfacet
 facet normal 0.797048 0.0633341 -0.600585
  outer loop
   vertex 26.0275 66.0485 366.055
   vertex 26.2153 64.7567 366.168
   vertex 25.2764 66.5871 365.115
  endloop
 endfacet
 facet normal 0.841342 0.129705 -0.52471
  outer loop
   vertex 25.6888 64.1872 365.183
   vertex 25.2764 66.5871 365.115
   vertex 26.2153 64.7567 366.168
  endloop
 endfacet
 facet normal 0.841949 0.0350444 -0.538418
  outer loop
   vertex 25.6888 64.1872 365.183
   vertex 26.0845 62.9152 365.719
   vertex 25.6398 62.4453 364.993
  endloop
 endfacet
 facet normal 0.886695 0.117957 -0.447056
  outer loop
   vertex 24.9612 66.5764 364.487
   vertex 25.2764 66.5871 365.115
   vertex 25.168 64.4837 364.345
  endloop
 endfacet
 facet normal 0.862253 0.134329 -0.488339
  outer loop
   vertex 25.6888 64.1872 365.183
   vertex 25.168 64.4837 364.345
   vertex 25.2764 66.5871 365.115
  endloop
 endfacet
 facet normal 0.854022 0.0326099 -0.519213
  outer loop
   vertex 25.6398 62.4453 364.993
   vertex 25.168 64.4837 364.345
   vertex 25.6888 64.1872 365.183
  endloop
 endfacet
 facet normal 0.879673 0.118186 -0.460661
  outer loop
   vertex 24.4701 66.3223 363.484
   vertex 24.9612 66.5764 364.487
   vertex 25.168 64.4837 364.345
  endloop
 endfacet
 facet normal 0.869709 0.0450494 -0.491504
  outer loop
   vertex 25.6398 62.4453 364.993
   vertex 24.8161 63.051 363.591
   vertex 25.168 64.4837 364.345
  endloop
 endfacet
 facet normal 0.824801 -0.143979 -0.546784
  outer loop
   vertex 24.5577 62.4936 363.348
   vertex 24.8161 63.051 363.591
   vertex 25.6398 62.4453 364.993
  endloop
 endfacet
 facet normal 0.869162 0.0456629 -0.492415
  outer loop
   vertex 25.168 64.4837 364.345
   vertex 24.8161 63.051 363.591
   vertex 24.2942 63.0533 362.67
  endloop
 endfacet
 facet normal 0.864648 0.0974129 -0.492843
  outer loop
   vertex 23.9045 66.4402 362.515
   vertex 24.4701 66.3223 363.484
   vertex 25.168 64.4837 364.345
  endloop
 endfacet
 facet normal 0.858973 0.0819889 -0.505414
  outer loop
   vertex 23.9045 66.4402 362.515
   vertex 25.168 64.4837 364.345
   vertex 23.8549 63.0083 361.874
  endloop
 endfacet
 facet normal 0.874251 0.0331045 -0.484345
  outer loop
   vertex 24.2942 63.0533 362.67
   vertex 23.8549 63.0083 361.874
   vertex 25.168 64.4837 364.345
  endloop
 endfacet
 facet normal 0.875075 0.0766143 -0.477886
  outer loop
   vertex 23.9045 66.4402 362.515
   vertex 23.8549 63.0083 361.874
   vertex 23.271 64.856 361.101
  endloop
 endfacet
 facet normal 0.85599 0.108815 -0.505412
  outer loop
   vertex 23.9045 66.4402 362.515
   vertex 23.271 64.856 361.101
   vertex 23.2893 66.319 361.447
  endloop
 endfacet
 facet normal 0.822217 0.0218968 -0.568752
  outer loop
   vertex 23.8549 63.0083 361.874
   vertex 23.5455 62.7821 361.418
   vertex 23.271 64.856 361.101
  endloop
 endfacet
 facet normal 0.84977 0.111228 -0.515285
  outer loop
   vertex 23.271 64.856 361.101
   vertex 22.4069 66.7462 360.084
   vertex 23.2893 66.319 361.447
  endloop
 endfacet
 facet normal 0.872248 0.0409616 -0.487345
  outer loop
   vertex 23.271 64.856 361.101
   vertex 23.5455 62.7821 361.418
   vertex 22.7722 64.1867 360.152
  endloop
 endfacet
 facet normal 0.85952 0.0126845 -0.510944
  outer loop
   vertex 22.8259 63.0446 360.214
   vertex 22.7722 64.1867 360.152
   vertex 23.5455 62.7821 361.418
  endloop
 endfacet
 facet normal 0.847006 0.107055 -0.520692
  outer loop
   vertex 23.271 64.856 361.101
   vertex 22.7722 64.1867 360.152
   vertex 22.4069 66.7462 360.084
  endloop
 endfacet
 facet normal 0.867608 0.0138184 -0.497057
  outer loop
   vertex 22.7722 64.1867 360.152
   vertex 22.8259 63.0446 360.214
   vertex 22.3037 63.6021 359.318
  endloop
 endfacet
 facet normal 0.862393 0.109956 -0.494154
  outer loop
   vertex 21.3158 65.2639 357.85
   vertex 22.4069 66.7462 360.084
   vertex 22.7722 64.1867 360.152
  endloop
 endfacet
 facet normal 0.854723 0.0518631 -0.516486
  outer loop
   vertex 22.3037 63.6021 359.318
   vertex 21.3158 65.2639 357.85
   vertex 22.7722 64.1867 360.152
  endloop
 endfacet
 facet normal 0.845062 -0.0619592 -0.531066
  outer loop
   vertex 22.4652 62.899 359.657
   vertex 22.3037 63.6021 359.318
   vertex 22.8259 63.0446 360.214
  endloop
 endfacet
 facet normal 0.850963 0.116557 -0.512128
  outer loop
   vertex 21.3158 65.2639 357.85
   vertex 21.6188 66.5536 358.647
   vertex 22.1053 66.4069 359.422
  endloop
 endfacet
 facet normal 0.860264 0.0646567 -0.505732
  outer loop
   vertex 22.3037 63.6021 359.318
   vertex 21.7242 63.3734 358.303
   vertex 21.3158 65.2639 357.85
  endloop
 endfacet
 facet normal 0.811881 0.15679 -0.562375
  outer loop
   vertex 21.3158 65.2639 357.85
   vertex 21.3563 66.8512 358.351
   vertex 21.6188 66.5536 358.647
  endloop
 endfacet
 facet normal 0.863793 0.0669412 -0.49938
  outer loop
   vertex 21.3158 65.2639 357.85
   vertex 21.7242 63.3734 358.303
   vertex 21.2476 63.3091 357.47
  endloop
 endfacet
 facet normal 0.867216 0.0661009 -0.493525
  outer loop
   vertex 17.4307 66.9509 351.263
   vertex 17.1388 64.3895 350.407
   vertex 16.0462 67.181 348.861
  endloop
 endfacet
 facet normal 0.853014 0.13717 -0.503539
  outer loop
   vertex 21.3563 66.8512 358.351
   vertex 21.3158 65.2639 357.85
   vertex 20.4063 66.8487 356.741
  endloop
 endfacet
 facet normal 0.86633 0.0660189 -0.49509
  outer loop
   vertex 20.6958 63.6207 356.546
   vertex 21.3158 65.2639 357.85
   vertex 21.2476 63.3091 357.47
  endloop
 endfacet
 facet normal 0.849016 0.0924862 -0.52021
  outer loop
   vertex 19.9687 63.3996 355.32
   vertex 21.3158 65.2639 357.85
   vertex 20.6958 63.6207 356.546
  endloop
 endfacet
 facet normal 0.864384 0.163251 -0.475593
  outer loop
   vertex 20.4063 66.8487 356.741
   vertex 21.3158 65.2639 357.85
   vertex 19.9139 66.6941 355.793
  endloop
 endfacet
 facet normal 0.850671 0.0885463 -0.518188
  outer loop
   vertex 19.9687 63.3996 355.32
   vertex 19.9139 66.6941 355.793
   vertex 21.3158 65.2639 357.85
  endloop
 endfacet
 facet normal 0.848648 0.124197 -0.51417
  outer loop
   vertex 19.3465 64.0176 354.21
   vertex 18.8804 67.037 354.17
   vertex 19.9139 66.6941 355.793
  endloop
 endfacet
 facet normal 0.887824 0.0798348 -0.453206
  outer loop
   vertex 19.9687 63.3996 355.32
   vertex 19.3465 64.0176 354.21
   vertex 19.9139 66.6941 355.793
  endloop
 endfacet
 facet normal 0.866264 0.127328 -0.483088
  outer loop
   vertex 18.7433 64.2857 353.199
   vertex 18.8804 67.037 354.17
   vertex 19.3465 64.0176 354.21
  endloop
 endfacet
 facet normal 0.870074 -0.00921626 -0.492836
  outer loop
   vertex 19.9687 63.3996 355.32
   vertex 19.0185 63.6392 353.638
   vertex 19.3465 64.0176 354.21
  endloop
 endfacet
 facet normal 0.676223 -0.572558 -0.463572
  outer loop
   vertex 19.0563 63.4628 353.911
   vertex 19.0185 63.6392 353.638
   vertex 19.9687 63.3996 355.32
  endloop
 endfacet
 facet normal 0.881864 0.117236 -0.456697
  outer loop
   vertex 18.7433 64.2857 353.199
   vertex 17.4179 65.8528 351.042
   vertex 18.8804 67.037 354.17
  endloop
 endfacet
 facet normal 0.861067 0.021564 -0.508034
  outer loop
   vertex 19.0185 63.6392 353.638
   vertex 18.7433 64.2857 353.199
   vertex 19.3465 64.0176 354.21
  endloop
 endfacet
 facet normal 0.906827 -0.00669713 -0.42145
  outer loop
   vertex 17.4179 65.8528 351.042
   vertex 18.1687 66.8268 352.642
   vertex 18.8804 67.037 354.17
  endloop
 endfacet
 facet normal 0.851605 -0.00124448 -0.524182
  outer loop
   vertex 17.4179 65.8528 351.042
   vertex 18.7433 64.2857 353.199
   vertex 18.1318 63.6705 352.207
  endloop
 endfacet
 facet normal 0.890544 0.0552644 -0.451528
  outer loop
   vertex 17.4179 65.8528 351.042
   vertex 17.737 66.7405 351.78
   vertex 18.1687 66.8268 352.642
  endloop
 endfacet
 facet normal 0.886925 0.0447092 -0.459745
  outer loop
   vertex 17.5892 64.3055 351.222
   vertex 17.4179 65.8528 351.042
   vertex 18.1318 63.6705 352.207
  endloop
 endfacet
 facet normal 0.876281 0.0411701 -0.480038
  outer loop
   vertex 17.4179 65.8528 351.042
   vertex 17.5892 64.3055 351.222
   vertex 17.1388 64.3895 350.407
  endloop
 endfacet
 facet normal 0.862927 -0.124548 -0.48974
  outer loop
   vertex 17.1003 63.8122 350.486
   vertex 17.1388 64.3895 350.407
   vertex 17.5892 64.3055 351.222
  endloop
 endfacet
 facet normal 0.787406 0.112793 -0.606028
  outer loop
   vertex 17.1388 64.3895 350.407
   vertex 17.4307 66.9509 351.263
   vertex 17.4179 65.8528 351.042
  endloop
 endfacet
endsolid
