solid ascii
 facet normal -0.297638 0.0653906 -0.952437
  outer loop
   vertex 7.03829 65.3821 344.731
   vertex 6.77865 64.8266 344.774
   vertex 6.70477 65.51 344.844
  endloop
 endfacet
 facet normal -0.553988 0.0253544 -0.832138
  outer loop
   vertex 6.70477 65.51 344.844
   vertex 6.77865 64.8266 344.774
   vertex 6.40471 66.1412 345.063
  endloop
 endfacet
 facet normal -0.223587 0.222916 -0.948851
  outer loop
   vertex 6.70477 65.51 344.844
   vertex 6.40471 66.1412 345.063
   vertex 6.79782 65.8417 344.9
  endloop
 endfacet
 facet normal -0.650141 -0.0179429 -0.759602
  outer loop
   vertex 6.33375 64.0549 345.173
   vertex 6.40471 66.1412 345.063
   vertex 6.77865 64.8266 344.774
  endloop
 endfacet
 facet normal -0.303896 -0.0398584 -0.951871
  outer loop
   vertex 6.33375 64.0549 345.173
   vertex 5.40184 64.6403 345.446
   vertex 6.40471 66.1412 345.063
  endloop
 endfacet
 facet normal -0.288956 -0.0135675 -0.957246
  outer loop
   vertex 6.33375 64.0549 345.173
   vertex 5.19518 64.1734 345.515
   vertex 5.40184 64.6403 345.446
  endloop
 endfacet
 facet normal -0.281671 -0.0562372 -0.957862
  outer loop
   vertex 6.40471 66.1412 345.063
   vertex 5.40184 64.6403 345.446
   vertex 5.38764 66.1081 345.364
  endloop
 endfacet
 facet normal -0.488145 0.0877378 -0.868341
  outer loop
   vertex 5.40184 64.6403 345.446
   vertex 5.19518 64.1734 345.515
   vertex 4.26114 64.014 346.024
  endloop
 endfacet
 facet normal -0.430159 -0.0484308 -0.901453
  outer loop
   vertex 4.84209 66.6156 345.607
   vertex 5.40184 64.6403 345.446
   vertex 4.26114 64.014 346.024
  endloop
 endfacet
 facet normal -0.550824 -0.0107627 -0.834552
  outer loop
   vertex 4.26114 64.014 346.024
   vertex 3.41988 63.8779 346.581
   vertex 4.84209 66.6156 345.607
  endloop
 endfacet
 facet normal -0.43379 0.148799 -0.888642
  outer loop
   vertex 4.84209 66.6156 345.607
   vertex 1.69062 67.2165 347.246
   vertex 3.34675 67.3027 346.452
  endloop
 endfacet
 facet normal -0.470574 -0.0685133 -0.879697
  outer loop
   vertex 4.84209 66.6156 345.607
   vertex 3.41988 63.8779 346.581
   vertex 1.69062 67.2165 347.246
  endloop
 endfacet
 facet normal -0.358946 -5.73515e-006 -0.933358
  outer loop
   vertex 3.41988 63.8779 346.581
   vertex 2.04433 65.4378 347.11
   vertex 1.69062 67.2165 347.246
  endloop
 endfacet
 facet normal -0.493651 -0.144492 -0.857573
  outer loop
   vertex 3.41988 63.8779 346.581
   vertex 1.63685 63.7021 347.637
   vertex 2.04433 65.4378 347.11
  endloop
 endfacet
 facet normal -0.38196 -0.00528549 -0.924164
  outer loop
   vertex 1.25859 66.443 347.429
   vertex 1.69062 67.2165 347.246
   vertex 2.04433 65.4378 347.11
  endloop
 endfacet
 facet normal -0.405741 -0.177006 -0.896684
  outer loop
   vertex 2.04433 65.4378 347.11
   vertex 1.63685 63.7021 347.637
   vertex 1.11187 65.0219 347.614
  endloop
 endfacet
 facet normal -0.450227 -0.0694226 -0.890211
  outer loop
   vertex 2.04433 65.4378 347.11
   vertex 1.11187 65.0219 347.614
   vertex 1.25859 66.443 347.429
  endloop
 endfacet
 facet normal -0.450542 -0.0693699 -0.890056
  outer loop
   vertex 0.255015 66.2121 347.955
   vertex 1.25859 66.443 347.429
   vertex 1.11187 65.0219 347.614
  endloop
 endfacet
 facet normal -0.463128 -0.00604173 -0.886271
  outer loop
   vertex 1.25859 66.443 347.429
   vertex 0.255015 66.2121 347.955
   vertex 0.651361 67.0729 347.742
  endloop
 endfacet
 facet normal -0.460008 -0.126729 -0.878824
  outer loop
   vertex -0.174332 65.0098 348.289
   vertex 1.11187 65.0219 347.614
   vertex 0.566603 64.1234 348.029
  endloop
 endfacet
 facet normal -0.462606 -0.0800939 -0.882939
  outer loop
   vertex -0.174332 65.0098 348.289
   vertex 0.255015 66.2121 347.955
   vertex 1.11187 65.0219 347.614
  endloop
 endfacet
 facet normal -0.470138 -0.13724 -0.871857
  outer loop
   vertex -0.544563 63.8704 348.668
   vertex -0.174332 65.0098 348.289
   vertex 0.566603 64.1234 348.029
  endloop
 endfacet
 facet normal -0.654044 -0.0389752 -0.755452
  outer loop
   vertex -70.3424 43.7129 394.83
   vertex -70.1401 44.5433 394.612
   vertex -69.2777 44.0076 393.893
  endloop
 endfacet
 facet normal -0.695499 -0.15818 -0.700899
  outer loop
   vertex -70.0778 47.0343 393.988
   vertex -70.1401 44.5433 394.612
   vertex -70.9565 44.8805 395.346
  endloop
 endfacet
 facet normal -0.691594 -0.159186 -0.704527
  outer loop
   vertex -70.0778 47.0343 393.988
   vertex -68.5707 47.5901 392.383
   vertex -70.1401 44.5433 394.612
  endloop
 endfacet
 facet normal -0.689245 -0.161665 -0.706262
  outer loop
   vertex -69.2777 44.0076 393.893
   vertex -70.1401 44.5433 394.612
   vertex -68.5707 47.5901 392.383
  endloop
 endfacet
 facet normal -0.627083 -0.194204 -0.754355
  outer loop
   vertex -68.5707 47.5901 392.383
   vertex -68.5797 44.2514 393.25
   vertex -69.2777 44.0076 393.893
  endloop
 endfacet
 facet normal -0.646494 -0.190125 -0.738849
  outer loop
   vertex -68.5797 44.2514 393.25
   vertex -68.5707 47.5901 392.383
   vertex -68.0793 44.5629 392.732
  endloop
 endfacet
 facet normal -0.687581 -0.187376 -0.701515
  outer loop
   vertex -69.099 48.0162 392.787
   vertex -68.5707 47.5901 392.383
   vertex -69.4082 47.7094 393.172
  endloop
 endfacet
 facet normal -0.639179 -0.0660174 -0.76622
  outer loop
   vertex -68.7275 48.3421 392.449
   vertex -68.5707 47.5901 392.383
   vertex -69.099 48.0162 392.787
  endloop
 endfacet
 facet normal -0.628708 -0.189021 -0.754319
  outer loop
   vertex -68.5707 47.5901 392.383
   vertex -67.4977 44.8073 392.186
   vertex -68.0793 44.5629 392.732
  endloop
 endfacet
 facet normal -0.543831 -0.37878 -0.748848
  outer loop
   vertex -67.6596 44.5613 392.428
   vertex -68.0793 44.5629 392.732
   vertex -67.4977 44.8073 392.186
  endloop
 endfacet
 facet normal -0.674563 -0.118354 -0.728668
  outer loop
   vertex -66.6416 47.5478 390.604
   vertex -68.5707 47.5901 392.383
   vertex -67.7644 49.1142 391.389
  endloop
 endfacet
 facet normal -0.705673 -0.0853987 -0.703372
  outer loop
   vertex -68.5707 47.5901 392.383
   vertex -68.7275 48.3421 392.449
   vertex -67.7644 49.1142 391.389
  endloop
 endfacet
 facet normal -0.647572 -0.197596 -0.735939
  outer loop
   vertex -67.4977 44.8073 392.186
   vertex -68.5707 47.5901 392.383
   vertex -66.7025 45.0057 391.433
  endloop
 endfacet
 facet normal -0.664296 -0.217316 -0.715181
  outer loop
   vertex -66.6416 47.5478 390.604
   vertex -66.7025 45.0057 391.433
   vertex -68.5707 47.5901 392.383
  endloop
 endfacet
 facet normal -0.709791 -0.202971 -0.674537
  outer loop
   vertex -66.7025 45.0057 391.433
   vertex -66.6416 47.5478 390.604
   vertex -66.0484 46.497 390.296
  endloop
 endfacet
 facet normal -0.521346 -0.0504806 -0.851851
  outer loop
   vertex -0.503746 66.8932 348.379
   vertex 0.255015 66.2121 347.955
   vertex -0.174332 65.0098 348.289
  endloop
 endfacet
 facet normal -0.634294 -0.0687613 -0.770028
  outer loop
   vertex -66.6416 47.5478 390.604
   vertex -67.7644 49.1142 391.389
   vertex -66.412 48.8566 390.298
  endloop
 endfacet
 facet normal -0.619797 -0.00341208 -0.784755
  outer loop
   vertex -67.1356 49.4299 390.867
   vertex -66.4974 49.8817 390.361
   vertex -66.412 48.8566 390.298
  endloop
 endfacet
 facet normal -0.589865 0.000479102 -0.807502
  outer loop
   vertex -66.4974 49.8817 390.361
   vertex -65.9345 50.2281 389.95
   vertex -66.412 48.8566 390.298
  endloop
 endfacet
 facet normal -0.639905 -0.0667305 -0.765552
  outer loop
   vertex -65.4151 47.7863 389.558
   vertex -66.6416 47.5478 390.604
   vertex -66.412 48.8566 390.298
  endloop
 endfacet
 facet normal -0.62861 -0.13011 -0.76676
  outer loop
   vertex -65.4151 47.7863 389.558
   vertex -66.0484 46.497 390.296
   vertex -66.6416 47.5478 390.604
  endloop
 endfacet
 facet normal -0.682801 0.0528322 -0.728692
  outer loop
   vertex -65.5291 50.571 389.595
   vertex -66.412 48.8566 390.298
   vertex -65.9345 50.2281 389.95
  endloop
 endfacet
 facet normal -0.633705 0.00916568 -0.77352
  outer loop
   vertex -65.5291 50.571 389.595
   vertex -65.1016 50.7596 389.247
   vertex -66.412 48.8566 390.298
  endloop
 endfacet
 facet normal -0.61392 -0.0263665 -0.788928
  outer loop
   vertex -66.412 48.8566 390.298
   vertex -62.6773 48.6698 387.398
   vertex -65.4151 47.7863 389.558
  endloop
 endfacet
 facet normal -0.654009 -0.107371 -0.748828
  outer loop
   vertex -65.4151 47.7863 389.558
   vertex -64.803 46.5479 389.201
   vertex -66.0484 46.497 390.296
  endloop
 endfacet
 facet normal -0.637288 -0.0944984 -0.76481
  outer loop
   vertex -64.2389 47.4619 388.618
   vertex -64.803 46.5479 389.201
   vertex -65.4151 47.7863 389.558
  endloop
 endfacet
 facet normal -0.615597 -0.117133 -0.779308
  outer loop
   vertex -64.803 46.5479 389.201
   vertex -64.2389 47.4619 388.618
   vertex -64.053 46.6447 388.594
  endloop
 endfacet
 facet normal -0.621996 0.0133811 -0.782906
  outer loop
   vertex -62.6773 48.6698 387.398
   vertex -64.2389 47.4619 388.618
   vertex -65.4151 47.7863 389.558
  endloop
 endfacet
 facet normal -0.613448 -0.00460807 -0.789721
  outer loop
   vertex -64.6972 51.0769 388.953
   vertex -62.6773 48.6698 387.398
   vertex -66.412 48.8566 390.298
  endloop
 endfacet
 facet normal -0.484092 -0.0429081 -0.873965
  outer loop
   vertex -0.174332 65.0098 348.289
   vertex -1.3684 65.8326 348.91
   vertex -0.503746 66.8932 348.379
  endloop
 endfacet
 facet normal -0.57896 0.0436461 -0.814187
  outer loop
   vertex -63.5202 51.6845 388.159
   vertex -62.6773 48.6698 387.398
   vertex -64.1509 51.3583 388.59
  endloop
 endfacet
 facet normal -0.570681 0.0505892 -0.819612
  outer loop
   vertex -64.6972 51.0769 388.953
   vertex -64.1509 51.3583 388.59
   vertex -62.6773 48.6698 387.398
  endloop
 endfacet
 facet normal -0.617783 -0.117684 -0.777493
  outer loop
   vertex -64.2389 47.4619 388.618
   vertex -63.3967 47.1435 387.997
   vertex -64.053 46.6447 388.594
  endloop
 endfacet
 facet normal -0.600626 -0.0304519 -0.79895
  outer loop
   vertex -62.6773 48.6698 387.398
   vertex -63.3967 47.1435 387.997
   vertex -64.2389 47.4619 388.618
  endloop
 endfacet
 facet normal -0.56457 0.0501121 -0.823863
  outer loop
   vertex -63.5202 51.6845 388.159
   vertex -62.9788 51.9971 387.807
   vertex -62.6773 48.6698 387.398
  endloop
 endfacet
 facet normal -0.610382 -0.0230364 -0.791772
  outer loop
   vertex -62.6773 48.6698 387.398
   vertex -62.7176 47.5035 387.463
   vertex -63.3967 47.1435 387.997
  endloop
 endfacet
 facet normal -0.523883 0.000633788 -0.85179
  outer loop
   vertex -1.3684 65.8326 348.91
   vertex -1.48887 67.0261 348.985
   vertex -0.503746 66.8932 348.379
  endloop
 endfacet
 facet normal -0.590188 0.0455922 -0.805978
  outer loop
   vertex -62.3581 52.1474 387.361
   vertex -62.6773 48.6698 387.398
   vertex -62.9788 51.9971 387.807
  endloop
 endfacet
 facet normal -0.566565 0.0432441 -0.822881
  outer loop
   vertex -61.8191 52.416 387.004
   vertex -62.6773 48.6698 387.398
   vertex -62.3581 52.1474 387.361
  endloop
 endfacet
 facet normal -0.608142 0.0560325 -0.791849
  outer loop
   vertex -61.8191 52.416 387.004
   vertex -61.9166 49.0686 386.842
   vertex -62.6773 48.6698 387.398
  endloop
 endfacet
 facet normal -0.566848 -0.0263037 -0.823403
  outer loop
   vertex -62.7176 47.5035 387.463
   vertex -62.6773 48.6698 387.398
   vertex -61.8493 47.8242 386.855
  endloop
 endfacet
 facet normal -0.575981 -0.03968 -0.816499
  outer loop
   vertex -61.9166 49.0686 386.842
   vertex -61.8493 47.8242 386.855
   vertex -62.6773 48.6698 387.398
  endloop
 endfacet
 facet normal -0.555097 -0.0860061 -0.827327
  outer loop
   vertex -60.9587 47.9441 386.245
   vertex -61.8493 47.8242 386.855
   vertex -60.8526 48.7694 386.088
  endloop
 endfacet
 facet normal -0.585205 -0.0401098 -0.809893
  outer loop
   vertex -61.8493 47.8242 386.855
   vertex -61.9166 49.0686 386.842
   vertex -60.8526 48.7694 386.088
  endloop
 endfacet
 facet normal -0.551713 0.0563381 -0.832129
  outer loop
   vertex -61.3596 52.6179 386.713
   vertex -61.9166 49.0686 386.842
   vertex -61.8191 52.416 387.004
  endloop
 endfacet
 facet normal -0.566092 0.0589544 -0.822231
  outer loop
   vertex -61.3596 52.6179 386.713
   vertex -60.8526 48.7694 386.088
   vertex -61.9166 49.0686 386.842
  endloop
 endfacet
 facet normal -0.57735 0.0562252 -0.814559
  outer loop
   vertex -60.8526 48.7694 386.088
   vertex -61.3596 52.6179 386.713
   vertex -59.7013 49.4072 385.316
  endloop
 endfacet
 facet normal -0.493268 -0.0609216 -0.867741
  outer loop
   vertex -1.12033 64.4365 348.867
   vertex -1.3684 65.8326 348.91
   vertex -0.174332 65.0098 348.289
  endloop
 endfacet
 facet normal -0.536337 0.0882088 -0.839382
  outer loop
   vertex -61.3596 52.6179 386.713
   vertex -58.3596 49.3718 384.455
   vertex -59.7013 49.4072 385.316
  endloop
 endfacet
 facet normal -0.578506 0.0323027 -0.815038
  outer loop
   vertex -59.7105 53.3621 385.572
   vertex -58.3596 49.3718 384.455
   vertex -61.3596 52.6179 386.713
  endloop
 endfacet
 facet normal -0.528672 0.0580755 -0.846837
  outer loop
   vertex -59.7105 53.3621 385.572
   vertex -58.5858 51.8187 384.764
   vertex -58.3596 49.3718 384.455
  endloop
 endfacet
 facet normal -0.561708 0.0236158 -0.826998
  outer loop
   vertex -58.6271 53.6021 384.843
   vertex -58.5858 51.8187 384.764
   vertex -59.7105 53.3621 385.572
  endloop
 endfacet
 facet normal -0.763819 0.0108901 -0.645338
  outer loop
   vertex -58.3596 49.3718 384.455
   vertex -58.5858 51.8187 384.764
   vertex -58.6271 53.6021 384.843
  endloop
 endfacet
 facet normal -0.582636 0.0376206 -0.811862
  outer loop
   vertex -58.3596 49.3718 384.455
   vertex -58.6271 53.6021 384.843
   vertex -57.1821 54.7466 383.859
  endloop
 endfacet
 facet normal -0.557943 0.0302743 -0.829327
  outer loop
   vertex -56.4716 54.8286 383.384
   vertex -58.3596 49.3718 384.455
   vertex -57.1821 54.7466 383.859
  endloop
 endfacet
 facet normal -0.523972 0.0141455 -0.851618
  outer loop
   vertex -56.4898 50.1804 383.318
   vertex -58.3596 49.3718 384.455
   vertex -56.4716 54.8286 383.384
  endloop
 endfacet
 facet normal -0.524173 0.0141445 -0.851494
  outer loop
   vertex -56.4716 54.8286 383.384
   vertex -55.4698 50.4765 382.695
   vertex -56.4898 50.1804 383.318
  endloop
 endfacet
 facet normal -0.522841 -0.0667285 -0.849814
  outer loop
   vertex -1.12033 64.4365 348.867
   vertex -1.89614 63.7655 349.397
   vertex -1.3684 65.8326 348.91
  endloop
 endfacet
 facet normal -0.467881 0.032123 -0.883208
  outer loop
   vertex -55.4698 50.4765 382.695
   vertex -56.4716 54.8286 383.384
   vertex -54.782 50.596 382.335
  endloop
 endfacet
 facet normal -0.543234 -0.00878066 -0.839535
  outer loop
   vertex -54.1915 51.3506 381.945
   vertex -54.782 50.596 382.335
   vertex -56.4716 54.8286 383.384
  endloop
 endfacet
 facet normal -0.570349 -0.0654836 -0.818788
  outer loop
   vertex -54.7044 55.6623 382.118
   vertex -52.3195 52.1329 380.739
   vertex -55.8734 55.3162 382.96
  endloop
 endfacet
 facet normal -0.555497 -0.0407163 -0.830521
  outer loop
   vertex -55.8734 55.3162 382.96
   vertex -52.3195 52.1329 380.739
   vertex -56.4716 54.8286 383.384
  endloop
 endfacet
 facet normal -0.494493 0.0351443 -0.868471
  outer loop
   vertex -53.7044 51.3839 381.669
   vertex -54.1915 51.3506 381.945
   vertex -56.4716 54.8286 383.384
  endloop
 endfacet
 facet normal -0.568536 -0.0136075 -0.822546
  outer loop
   vertex -52.412 55.0287 380.544
   vertex -54.7044 55.6623 382.118
   vertex -53.8966 56.3673 381.548
  endloop
 endfacet
 facet normal -0.578186 -0.0731913 -0.812615
  outer loop
   vertex -52.412 55.0287 380.544
   vertex -52.3195 52.1329 380.739
   vertex -54.7044 55.6623 382.118
  endloop
 endfacet
 facet normal -0.658906 0.545272 -0.51819
  outer loop
   vertex -53.4499 56.6923 381.322
   vertex -53.4217 56.6095 381.199
   vertex -53.8966 56.3673 381.548
  endloop
 endfacet
 facet normal -0.550888 -0.0301709 -0.834034
  outer loop
   vertex -52.8571 51.8871 381.103
   vertex -56.4716 54.8286 383.384
   vertex -52.3195 52.1329 380.739
  endloop
 endfacet
 facet normal -0.528863 0.00824025 -0.848667
  outer loop
   vertex -56.4716 54.8286 383.384
   vertex -52.8571 51.8871 381.103
   vertex -53.3001 51.6765 381.377
  endloop
 endfacet
 facet normal -0.564353 -0.0429083 -0.824417
  outer loop
   vertex -56.4716 54.8286 383.384
   vertex -53.3001 51.6765 381.377
   vertex -53.7044 51.3839 381.669
  endloop
 endfacet
 facet normal -0.406943 -0.299034 -0.86312
  outer loop
   vertex -53.3001 51.6765 381.377
   vertex -53.1554 51.3671 381.416
   vertex -53.7044 51.3839 381.669
  endloop
 endfacet
 facet normal -0.580598 -0.033778 -0.813489
  outer loop
   vertex -53.8966 56.3673 381.548
   vertex -53.4217 56.6095 381.199
   vertex -52.412 55.0287 380.544
  endloop
 endfacet
 facet normal -0.515017 0.0260498 -0.856784
  outer loop
   vertex -52.9598 56.9267 380.931
   vertex -52.412 55.0287 380.544
   vertex -53.4217 56.6095 381.199
  endloop
 endfacet
 facet normal -0.562427 -0.0734263 -0.82358
  outer loop
   vertex -51.7299 52.8662 380.271
   vertex -52.3195 52.1329 380.739
   vertex -52.412 55.0287 380.544
  endloop
 endfacet
 facet normal -0.552945 -0.0320762 -0.8326
  outer loop
   vertex -52.3191 56.9317 380.409
   vertex -51.7352 57.5086 379.999
   vertex -52.412 55.0287 380.544
  endloop
 endfacet
 facet normal -0.576948 -0.0793528 -0.812917
  outer loop
   vertex -52.412 55.0287 380.544
   vertex -51.0989 53.0523 379.805
   vertex -51.7299 52.8662 380.271
  endloop
 endfacet
 facet normal -0.50103 -0.317325 -0.805154
  outer loop
   vertex -51.1213 52.6487 379.978
   vertex -51.7299 52.8662 380.271
   vertex -51.0989 53.0523 379.805
  endloop
 endfacet
 facet normal -0.592972 -0.0949776 -0.799602
  outer loop
   vertex -51.0989 53.0523 379.805
   vertex -52.412 55.0287 380.544
   vertex -50.7622 53.4169 379.512
  endloop
 endfacet
 facet normal -0.543609 -0.0191481 -0.83912
  outer loop
   vertex -52.412 55.0287 380.544
   vertex -50.2153 53.7544 379.15
   vertex -50.7622 53.4169 379.512
  endloop
 endfacet
 facet normal -0.55311 0.0382219 -0.832231
  outer loop
   vertex -50.6524 58.557 379.26
   vertex -50.9076 58.0648 379.407
   vertex -50.9065 58.6681 379.434
  endloop
 endfacet
 facet normal -0.570578 -0.0246863 -0.820872
  outer loop
   vertex -52.412 55.0287 380.544
   vertex -51.7352 57.5086 379.999
   vertex -50.9076 58.0648 379.407
  endloop
 endfacet
 facet normal -0.583194 0.0604354 -0.810082
  outer loop
   vertex -50.9076 58.0648 379.407
   vertex -50.6524 58.557 379.26
   vertex -50.1832 58.8759 378.946
  endloop
 endfacet
 facet normal -0.56052 -0.0321585 -0.827517
  outer loop
   vertex -52.412 55.0287 380.544
   vertex -50.9076 58.0648 379.407
   vertex -48.6652 54.8513 378.013
  endloop
 endfacet
 facet normal -0.560697 -0.0634074 -0.825589
  outer loop
   vertex -52.412 55.0287 380.544
   vertex -48.6652 54.8513 378.013
   vertex -50.2153 53.7544 379.15
  endloop
 endfacet
 facet normal -0.555806 0.024107 -0.830962
  outer loop
   vertex -50.9076 58.0648 379.407
   vertex -50.1832 58.8759 378.946
   vertex -49.4877 58.1581 378.46
  endloop
 endfacet
 facet normal -0.553551 -0.025162 -0.832435
  outer loop
   vertex -50.9076 58.0648 379.407
   vertex -49.4877 58.1581 378.46
   vertex -48.6652 54.8513 378.013
  endloop
 endfacet
 facet normal -0.59748 -0.0365242 -0.801052
  outer loop
   vertex -49.7697 59.3717 378.615
   vertex -49.4877 58.1581 378.46
   vertex -50.1832 58.8759 378.946
  endloop
 endfacet
 facet normal -0.481945 -0.202557 -0.852467
  outer loop
   vertex -49.1942 54.153 378.478
   vertex -50.2153 53.7544 379.15
   vertex -48.6652 54.8513 378.013
  endloop
 endfacet
 facet normal -0.530913 0.298228 -0.793216
  outer loop
   vertex -1.84995 67.3036 349.331
   vertex -1.48887 67.0261 348.985
   vertex -2.55544 66.9174 349.658
  endloop
 endfacet
 facet normal -0.529422 -0.0170312 -0.848187
  outer loop
   vertex -49.4877 58.1581 378.46
   vertex -48.12 55.3345 377.663
   vertex -48.6652 54.8513 378.013
  endloop
 endfacet
 facet normal -0.53506 -0.00304922 -0.844809
  outer loop
   vertex -45.35 57.2159 375.754
   vertex -48.5873 60.359 377.793
   vertex -48.182 60.9978 377.534
  endloop
 endfacet
 facet normal -0.574685 -0.0625632 -0.81598
  outer loop
   vertex -48.5873 60.359 377.793
   vertex -45.35 57.2159 375.754
   vertex -49.6665 59.7862 378.597
  endloop
 endfacet
 facet normal -0.548767 -0.0300007 -0.835437
  outer loop
   vertex -49.4877 58.1581 378.46
   vertex -47.4476 55.65 377.21
   vertex -48.12 55.3345 377.663
  endloop
 endfacet
 facet normal -0.568312 -0.0387314 -0.821901
  outer loop
   vertex -47.6103 61.4793 377.116
   vertex -45.35 57.2159 375.754
   vertex -48.182 60.9978 377.534
  endloop
 endfacet
 facet normal -0.573966 -0.0598404 -0.81669
  outer loop
   vertex -47.0146 56.0004 376.88
   vertex -47.4476 55.65 377.21
   vertex -49.4877 58.1581 378.46
  endloop
 endfacet
 facet normal -0.54561 0.0105905 -0.837973
  outer loop
   vertex -49.6665 59.7862 378.597
   vertex -45.35 57.2159 375.754
   vertex -49.4877 58.1581 378.46
  endloop
 endfacet
 facet normal -0.621706 -0.0807182 -0.779081
  outer loop
   vertex -47.2241 61.4196 376.814
   vertex -45.35 57.2159 375.754
   vertex -47.6103 61.4793 377.116
  endloop
 endfacet
 facet normal -0.551962 -0.0307156 -0.833303
  outer loop
   vertex -46.5057 56.4155 376.549
   vertex -49.4877 58.1581 378.46
   vertex -45.35 57.2159 375.754
  endloop
 endfacet
 facet normal -0.541923 -0.00574604 -0.840408
  outer loop
   vertex -49.4877 58.1581 378.46
   vertex -46.5057 56.4155 376.549
   vertex -47.0146 56.0004 376.88
  endloop
 endfacet
 facet normal -0.38873 -0.234008 -0.891139
  outer loop
   vertex -46.5941 55.8883 376.726
   vertex -47.0146 56.0004 376.88
   vertex -46.5057 56.4155 376.549
  endloop
 endfacet
 facet normal -0.494265 -0.00115024 -0.86931
  outer loop
   vertex -45.35 57.2159 375.754
   vertex -47.2241 61.4196 376.814
   vertex -44.8288 59.9739 375.454
  endloop
 endfacet
 facet normal -0.602766 0.0819822 -0.793695
  outer loop
   vertex -45.9347 56.7315 376.148
   vertex -46.5057 56.4155 376.549
   vertex -45.35 57.2159 375.754
  endloop
 endfacet
 facet normal -0.537254 0.0172271 -0.843245
  outer loop
   vertex -46.9426 61.9259 376.645
   vertex -46.3533 62.0963 376.273
   vertex -47.2241 61.4196 376.814
  endloop
 endfacet
 facet normal -0.730755 0.421373 -0.537069
  outer loop
   vertex -45.915 63.103 376.11
   vertex -46.0602 62.827 376.091
   vertex -46.2008 62.8062 376.266
  endloop
 endfacet
 facet normal -0.508601 -0.0333247 -0.860357
  outer loop
   vertex -46.3533 62.0963 376.273
   vertex -44.8288 59.9739 375.454
   vertex -47.2241 61.4196 376.814
  endloop
 endfacet
 facet normal -0.731189 0.421551 -0.536337
  outer loop
   vertex -45.915 63.103 376.11
   vertex -45.7613 63.1279 375.92
   vertex -46.0602 62.827 376.091
  endloop
 endfacet
 facet normal -0.515737 0.0256717 -0.856362
  outer loop
   vertex -45.7613 63.1279 375.92
   vertex -45.8006 62.3048 375.919
   vertex -46.0602 62.827 376.091
  endloop
 endfacet
 facet normal -0.541409 0.00775803 -0.840723
  outer loop
   vertex -46.3533 62.0963 376.273
   vertex -46.0602 62.827 376.091
   vertex -45.8006 62.3048 375.919
  endloop
 endfacet
 facet normal -0.52536 -0.0495772 -0.849435
  outer loop
   vertex -46.3533 62.0963 376.273
   vertex -45.8006 62.3048 375.919
   vertex -44.8288 59.9739 375.454
  endloop
 endfacet
 facet normal -0.532358 0.008532 -0.846477
  outer loop
   vertex -44.8288 59.9739 375.454
   vertex -44.5891 57.4693 375.278
   vertex -45.35 57.2159 375.754
  endloop
 endfacet
 facet normal -0.564182 0.0279465 -0.825177
  outer loop
   vertex -45.3556 63.1092 375.642
   vertex -45.8006 62.3048 375.919
   vertex -45.7613 63.1279 375.92
  endloop
 endfacet
 facet normal -0.578325 0.0460281 -0.814507
  outer loop
   vertex -45.1958 63.613 375.557
   vertex -44.918 63.5819 375.358
   vertex -45.3556 63.1092 375.642
  endloop
 endfacet
 facet normal -0.566741 0.0299915 -0.82335
  outer loop
   vertex -45.3556 63.1092 375.642
   vertex -44.918 63.5819 375.358
   vertex -45.8006 62.3048 375.919
  endloop
 endfacet
 facet normal -0.577533 0.0409682 -0.815339
  outer loop
   vertex -44.4962 63.7764 375.069
   vertex -45.8006 62.3048 375.919
   vertex -44.918 63.5819 375.358
  endloop
 endfacet
 facet normal -0.598442 0.0183102 -0.800957
  outer loop
   vertex -44.4328 64.2733 375.033
   vertex -43.9618 64.2699 374.681
   vertex -44.4962 63.7764 375.069
  endloop
 endfacet
 facet normal -0.531681 0.00862657 -0.846901
  outer loop
   vertex -44.5891 57.4693 375.278
   vertex -44.8288 59.9739 375.454
   vertex -43.5283 58.2493 374.62
  endloop
 endfacet
 facet normal -0.240067 -0.414177 -0.877967
  outer loop
   vertex -44.0336 57.8278 374.957
   vertex -44.5891 57.4693 375.278
   vertex -43.5283 58.2493 374.62
  endloop
 endfacet
 facet normal -0.533589 -0.000725781 -0.845744
  outer loop
   vertex -1.48887 67.0261 348.985
   vertex -1.3684 65.8326 348.91
   vertex -2.55544 66.9174 349.658
  endloop
 endfacet
 facet normal -0.706326 0.241783 -0.665315
  outer loop
   vertex -45.8006 62.3048 375.919
   vertex -44.4962 63.7764 375.069
   vertex -43.9618 64.2699 374.681
  endloop
 endfacet
 facet normal -0.465203 -0.141026 -0.873898
  outer loop
   vertex -43.6537 57.8201 374.756
   vertex -44.0336 57.8278 374.957
   vertex -43.5283 58.2493 374.62
  endloop
 endfacet
 facet normal -0.54312 -0.0035068 -0.839648
  outer loop
   vertex -43.5283 58.2493 374.62
   vertex -44.8288 59.9739 375.454
   vertex -42.7206 59.3394 374.093
  endloop
 endfacet
 facet normal -0.522168 -0.0478347 -0.8515
  outer loop
   vertex -44.8288 59.9739 375.454
   vertex -45.8006 62.3048 375.919
   vertex -43.9618 64.2699 374.681
  endloop
 endfacet
 facet normal -0.513319 -0.0342257 -0.857515
  outer loop
   vertex -43.0663 58.3607 374.339
   vertex -43.5283 58.2493 374.62
   vertex -42.7206 59.3394 374.093
  endloop
 endfacet
 facet normal -0.513683 -0.00195194 -0.857978
  outer loop
   vertex -43.9618 64.2699 374.681
   vertex -43.6989 64.9705 374.522
   vertex -43.1037 64.8227 374.166
  endloop
 endfacet
 facet normal -0.485514 -0.0589637 -0.872238
  outer loop
   vertex -43.9618 64.2699 374.681
   vertex -43.1037 64.8227 374.166
   vertex -44.8288 59.9739 375.454
  endloop
 endfacet
 facet normal -0.50455 -0.0494623 -0.861965
  outer loop
   vertex -44.8288 59.9739 375.454
   vertex -43.1037 64.8227 374.166
   vertex -39.5306 63.0015 372.179
  endloop
 endfacet
 facet normal -0.533321 0.0404168 -0.844947
  outer loop
   vertex -40.9597 60.562 373.04
   vertex -42.7206 59.3394 374.093
   vertex -44.8288 59.9739 375.454
  endloop
 endfacet
 facet normal -0.485026 0.00251337 -0.874496
  outer loop
   vertex -43.1037 64.8227 374.166
   vertex -42.8838 66.2083 374.048
   vertex -39.5306 63.0015 372.179
  endloop
 endfacet
 facet normal -0.53058 0.0116777 -0.847555
  outer loop
   vertex -40.9597 60.562 373.04
   vertex -44.8288 59.9739 375.454
   vertex -39.5306 63.0015 372.179
  endloop
 endfacet
 facet normal -0.508092 -0.00995824 -0.861245
  outer loop
   vertex -41.6947 59.0591 373.491
   vertex -42.7206 59.3394 374.093
   vertex -40.9597 60.562 373.04
  endloop
 endfacet
 facet normal -0.51129 0.0308267 -0.858855
  outer loop
   vertex -41.7402 67.9785 373.367
   vertex -41.0566 68.3392 372.973
   vertex -40.5127 67.3861 372.615
  endloop
 endfacet
 facet normal -0.516949 0.0153239 -0.855879
  outer loop
   vertex -42.3737 67.1602 373.735
   vertex -41.7402 67.9785 373.367
   vertex -40.5127 67.3861 372.615
  endloop
 endfacet
 facet normal -0.499337 -0.0172657 -0.866236
  outer loop
   vertex -39.5306 63.0015 372.179
   vertex -42.8838 66.2083 374.048
   vertex -42.3737 67.1602 373.735
  endloop
 endfacet
 facet normal -0.512785 -0.0295373 -0.858009
  outer loop
   vertex -39.5306 63.0015 372.179
   vertex -42.3737 67.1602 373.735
   vertex -40.5127 67.3861 372.615
  endloop
 endfacet
 facet normal -0.48021 0.0547929 -0.875441
  outer loop
   vertex -40.4257 68.2924 372.624
   vertex -40.5127 67.3861 372.615
   vertex -41.0566 68.3392 372.973
  endloop
 endfacet
 facet normal -0.529523 0.0592364 -0.846225
  outer loop
   vertex -39.8329 67.9345 372.228
   vertex -40.5127 67.3861 372.615
   vertex -40.4257 68.2924 372.624
  endloop
 endfacet
 facet normal -0.474118 -0.0327971 -0.87985
  outer loop
   vertex -39.3968 59.8867 372.223
   vertex -40.9597 60.562 373.04
   vertex -39.5306 63.0015 372.179
  endloop
 endfacet
 facet normal -0.474967 -0.0354398 -0.87929
  outer loop
   vertex -40.9597 60.562 373.04
   vertex -39.3968 59.8867 372.223
   vertex -40.5072 59.3358 372.845
  endloop
 endfacet
 facet normal -0.499988 -0.0259117 -0.865644
  outer loop
   vertex -39.3713 67.3436 371.957
   vertex -39.5306 63.0015 372.179
   vertex -40.5127 67.3861 372.615
  endloop
 endfacet
 facet normal -0.512009 -0.0341203 -0.858302
  outer loop
   vertex -39.3968 59.8867 372.223
   vertex -39.5306 63.0015 372.179
   vertex -38.7728 60.5342 371.825
  endloop
 endfacet
 facet normal -0.505763 -0.0255285 -0.862294
  outer loop
   vertex -38.5948 66.9571 371.513
   vertex -39.5306 63.0015 372.179
   vertex -39.3713 67.3436 371.957
  endloop
 endfacet
 facet normal -0.849882 0.114456 -0.514393
  outer loop
   vertex -38.5948 66.9571 371.513
   vertex -38.8255 65.8238 371.642
   vertex -39.5306 63.0015 372.179
  endloop
 endfacet
 facet normal -0.466114 -0.0162548 -0.884575
  outer loop
   vertex -39.5306 63.0015 372.179
   vertex -37.9973 60.3361 371.42
   vertex -38.7728 60.5342 371.825
  endloop
 endfacet
 facet normal -0.493997 -0.207841 -0.844256
  outer loop
   vertex -38.2837 59.8145 371.716
   vertex -38.7728 60.5342 371.825
   vertex -37.9973 60.3361 371.42
  endloop
 endfacet
 facet normal -0.500262 -0.0395926 -0.864969
  outer loop
   vertex -39.5306 63.0015 372.179
   vertex -38.8255 65.8238 371.642
   vertex -37.052 62.3784 370.774
  endloop
 endfacet
 facet normal -0.547904 0.0163335 -0.836382
  outer loop
   vertex -38.8255 65.8238 371.642
   vertex -38.5948 66.9571 371.513
   vertex -36.7813 65.8811 370.304
  endloop
 endfacet
 facet normal -0.502282 -0.0517187 -0.863156
  outer loop
   vertex -37.2355 60.0549 371.02
   vertex -39.5306 63.0015 372.179
   vertex -37.052 62.3784 370.774
  endloop
 endfacet
 facet normal -0.470424 -0.0194029 -0.882227
  outer loop
   vertex -37.9973 60.3361 371.42
   vertex -39.5306 63.0015 372.179
   vertex -37.2355 60.0549 371.02
  endloop
 endfacet
 facet normal -0.544938 -0.0700016 -0.835549
  outer loop
   vertex -37.052 62.3784 370.774
   vertex -38.8255 65.8238 371.642
   vertex -36.7813 65.8811 370.304
  endloop
 endfacet
 facet normal -0.513759 0.092482 -0.852935
  outer loop
   vertex -36.7813 65.8811 370.304
   vertex -38.5948 66.9571 371.513
   vertex -36.9622 66.5086 370.481
  endloop
 endfacet
 facet normal -0.524225 -0.0486131 -0.850191
  outer loop
   vertex -37.052 62.3784 370.774
   vertex -35.453 60.8225 369.877
   vertex -37.2355 60.0549 371.02
  endloop
 endfacet
 facet normal -0.504989 -0.0736804 -0.859975
  outer loop
   vertex -1.3684 65.8326 348.91
   vertex -1.89614 63.7655 349.397
   vertex -2.94007 65.6797 349.846
  endloop
 endfacet
 facet normal -0.513565 0.0293263 -0.85755
  outer loop
   vertex -2.94007 65.6797 349.846
   vertex -2.55544 66.9174 349.658
   vertex -1.3684 65.8326 348.91
  endloop
 endfacet
 facet normal -0.555145 -0.129849 -0.821555
  outer loop
   vertex -36.7813 65.8811 370.304
   vertex -35.7497 65.773 369.624
   vertex -33.6374 64.5371 368.392
  endloop
 endfacet
 facet normal -0.54022 -0.070768 -0.838543
  outer loop
   vertex -36.7813 65.8811 370.304
   vertex -33.6374 64.5371 368.392
   vertex -37.052 62.3784 370.774
  endloop
 endfacet
 facet normal -0.506513 -0.0236562 -0.861908
  outer loop
   vertex -35.453 60.8225 369.877
   vertex -37.052 62.3784 370.774
   vertex -34.3286 60.7946 369.217
  endloop
 endfacet
 facet normal -0.526493 -0.05406 -0.848459
  outer loop
   vertex -33.6374 64.5371 368.392
   vertex -35.7497 65.773 369.624
   vertex -34.3934 65.9199 368.773
  endloop
 endfacet
 facet normal -0.532218 -0.0873387 -0.84209
  outer loop
   vertex -37.052 62.3784 370.774
   vertex -33.6374 64.5371 368.392
   vertex -34.3286 60.7946 369.217
  endloop
 endfacet
 facet normal -0.48647 -0.025326 -0.87333
  outer loop
   vertex -33.0443 65.9728 368.02
   vertex -33.6374 64.5371 368.392
   vertex -34.3934 65.9199 368.773
  endloop
 endfacet
 facet normal -0.532092 0.000424146 -0.846687
  outer loop
   vertex -32.4994 64.873 367.677
   vertex -33.6374 64.5371 368.392
   vertex -33.0443 65.9728 368.02
  endloop
 endfacet
 facet normal -0.540188 -0.0848023 -0.837261
  outer loop
   vertex -33.6374 64.5371 368.392
   vertex -32.3102 63.0038 367.691
   vertex -34.3286 60.7946 369.217
  endloop
 endfacet
 facet normal -0.550229 -0.0719321 -0.83191
  outer loop
   vertex -33.0777 61.0912 368.364
   vertex -34.3286 60.7946 369.217
   vertex -32.3102 63.0038 367.691
  endloop
 endfacet
 facet normal -0.486748 -0.109626 -0.866637
  outer loop
   vertex -31.8104 60.5791 367.717
   vertex -33.0777 61.0912 368.364
   vertex -32.3102 63.0038 367.691
  endloop
 endfacet
 facet normal -0.507359 0.0173166 -0.861561
  outer loop
   vertex -32.4994 64.873 367.677
   vertex -33.0443 65.9728 368.02
   vertex -31.8136 66.0096 367.296
  endloop
 endfacet
 facet normal -0.51856 -0.0588812 -0.853011
  outer loop
   vertex -32.3102 63.0038 367.691
   vertex -33.6374 64.5371 368.392
   vertex -32.4994 64.873 367.677
  endloop
 endfacet
 facet normal -0.489681 0.00318537 -0.871896
  outer loop
   vertex -31.3982 64.7299 367.058
   vertex -32.4994 64.873 367.677
   vertex -31.8136 66.0096 367.296
  endloop
 endfacet
 facet normal -0.49479 -0.0565813 -0.867168
  outer loop
   vertex -31.3982 64.7299 367.058
   vertex -32.3102 63.0038 367.691
   vertex -32.4994 64.873 367.677
  endloop
 endfacet
 facet normal -0.579425 -0.128067 -0.804901
  outer loop
   vertex -32.3102 63.0038 367.691
   vertex -30.8489 61.3136 366.908
   vertex -31.8104 60.5791 367.717
  endloop
 endfacet
 facet normal -0.501386 -0.00185537 -0.865222
  outer loop
   vertex -31.3982 64.7299 367.058
   vertex -31.8136 66.0096 367.296
   vertex -30.7041 66.0246 366.653
  endloop
 endfacet
 facet normal -0.518753 -0.0532062 -0.853267
  outer loop
   vertex -28.7452 62.8052 365.536
   vertex -30.8489 61.3136 366.908
   vertex -32.3102 63.0038 367.691
  endloop
 endfacet
 facet normal -0.377534 -0.136404 -0.915894
  outer loop
   vertex -32.3102 63.0038 367.691
   vertex -31.3982 64.7299 367.058
   vertex -29.8429 66.3609 366.174
  endloop
 endfacet
 facet normal -0.517562 -0.00625473 -0.855623
  outer loop
   vertex -28.7452 62.8052 365.536
   vertex -32.3102 63.0038 367.691
   vertex -29.8429 66.3609 366.174
  endloop
 endfacet
 facet normal -0.506268 -0.0761 -0.859012
  outer loop
   vertex -28.7452 62.8052 365.536
   vertex -29.7885 61.1222 366.3
   vertex -30.8489 61.3136 366.908
  endloop
 endfacet
 facet normal -0.563541 -0.0254726 -0.825696
  outer loop
   vertex -29.7885 61.1222 366.3
   vertex -28.7452 62.8052 365.536
   vertex -29.0021 61.4553 365.753
  endloop
 endfacet
 facet normal -0.446094 -0.0334965 -0.894359
  outer loop
   vertex -1.89614 63.7655 349.397
   vertex -3.20328 64.2187 350.032
   vertex -2.94007 65.6797 349.846
  endloop
 endfacet
 facet normal -0.517697 -0.0388562 -0.854681
  outer loop
   vertex -28.0823 61.5403 365.192
   vertex -29.0021 61.4553 365.753
   vertex -28.7452 62.8052 365.536
  endloop
 endfacet
 facet normal -0.53099 -0.0118943 -0.847295
  outer loop
   vertex -28.8422 66.0681 365.551
   vertex -28.7452 62.8052 365.536
   vertex -29.8429 66.3609 366.174
  endloop
 endfacet
 facet normal -0.509788 -0.112642 -0.852894
  outer loop
   vertex -28.2884 61.0797 365.376
   vertex -29.0021 61.4553 365.753
   vertex -28.0823 61.5403 365.192
  endloop
 endfacet
 facet normal -0.550075 -0.0125181 -0.835021
  outer loop
   vertex -28.7452 62.8052 365.536
   vertex -28.8422 66.0681 365.551
   vertex -27.9988 65.9608 364.997
  endloop
 endfacet
 facet normal -0.507365 -0.0316825 -0.861149
  outer loop
   vertex -27.3053 61.7628 364.726
   vertex -28.0823 61.5403 365.192
   vertex -28.7452 62.8052 365.536
  endloop
 endfacet
 facet normal -0.511316 -0.0257826 -0.859006
  outer loop
   vertex -27.2852 66.136 364.567
   vertex -28.7452 62.8052 365.536
   vertex -27.9988 65.9608 364.997
  endloop
 endfacet
 facet normal -0.537118 -0.00994702 -0.843449
  outer loop
   vertex -27.2852 66.136 364.567
   vertex -26.4836 66.18 364.056
   vertex -28.7452 62.8052 365.536
  endloop
 endfacet
 facet normal -0.505898 -0.0433597 -0.861503
  outer loop
   vertex -26.7243 61.3805 364.421
   vertex -28.7452 62.8052 365.536
   vertex -26.0811 61.4062 364.042
  endloop
 endfacet
 facet normal -0.561042 0.0129987 -0.827685
  outer loop
   vertex -28.7452 62.8052 365.536
   vertex -26.4836 66.18 364.056
   vertex -25.7131 66.2617 363.535
  endloop
 endfacet
 facet normal -0.525558 -0.0311548 -0.850187
  outer loop
   vertex -25.7131 66.2617 363.535
   vertex -24.8116 66.0361 362.986
   vertex -28.7452 62.8052 365.536
  endloop
 endfacet
 facet normal -0.520605 -0.0840221 -0.849653
  outer loop
   vertex -24.1227 61.5582 362.827
   vertex -26.0811 61.4062 364.042
   vertex -28.7452 62.8052 365.536
  endloop
 endfacet
 facet normal -0.515658 0.113902 -0.84919
  outer loop
   vertex -24.8116 66.0361 362.986
   vertex -24.5157 66.5705 362.878
   vertex -22.6419 66.1966 361.69
  endloop
 endfacet
 facet normal -0.508722 -0.0585579 -0.858937
  outer loop
   vertex -22.6419 66.1966 361.69
   vertex -28.7452 62.8052 365.536
   vertex -24.8116 66.0361 362.986
  endloop
 endfacet
 facet normal -0.525844 -0.0180522 -0.85039
  outer loop
   vertex -22.6419 66.1966 361.69
   vertex -20.7098 63.1478 360.56
   vertex -28.7452 62.8052 365.536
  endloop
 endfacet
 facet normal -0.521558 -0.0901974 -0.848435
  outer loop
   vertex -24.1227 61.5582 362.827
   vertex -28.7452 62.8052 365.536
   vertex -20.7098 63.1478 360.56
  endloop
 endfacet
 facet normal -0.513902 -0.00773265 -0.857814
  outer loop
   vertex -22.6419 66.1966 361.69
   vertex -21.9457 66.1867 361.273
   vertex -20.7098 63.1478 360.56
  endloop
 endfacet
 facet normal -0.440435 0.0313953 -0.897235
  outer loop
   vertex -21.9457 66.1867 361.273
   vertex -21.1821 66.6957 360.916
   vertex -20.7098 63.1478 360.56
  endloop
 endfacet
 facet normal -0.53048 0.0144256 -0.847575
  outer loop
   vertex -20.7098 63.1478 360.56
   vertex -21.1821 66.6957 360.916
   vertex -18.2099 63.1855 358.996
  endloop
 endfacet
 facet normal -0.582224 -0.0490948 -0.811545
  outer loop
   vertex -21.1821 66.6957 360.916
   vertex -19.7515 66.1441 359.923
   vertex -18.2099 63.1855 358.996
  endloop
 endfacet
 facet normal -0.525244 -0.120014 -0.842446
  outer loop
   vertex -19.0141 62.0021 359.666
   vertex -20.7098 63.1478 360.56
   vertex -18.2099 63.1855 358.996
  endloop
 endfacet
 facet normal -0.478497 0.0256848 -0.877713
  outer loop
   vertex -18.2099 63.1855 358.996
   vertex -19.7515 66.1441 359.923
   vertex -18.7778 66.7188 359.409
  endloop
 endfacet
 facet normal -0.52837 -0.00495769 -0.849
  outer loop
   vertex -17.672 65.4517 358.648
   vertex -17.2263 63.5066 358.382
   vertex -18.2099 63.1855 358.996
  endloop
 endfacet
 facet normal -0.561938 0.0063641 -0.827155
  outer loop
   vertex -18.7778 66.7188 359.409
   vertex -17.672 65.4517 358.648
   vertex -18.2099 63.1855 358.996
  endloop
 endfacet
 facet normal -0.543806 0.0291236 -0.838705
  outer loop
   vertex -17.672 65.4517 358.648
   vertex -18.7778 66.7188 359.409
   vertex -17.5701 66.4325 358.616
  endloop
 endfacet
 facet normal -0.473454 -0.0627526 -0.87858
  outer loop
   vertex -16.6584 62.2324 358.228
   vertex -18.1715 62.4057 359.031
   vertex -18.2099 63.1855 358.996
  endloop
 endfacet
 facet normal -0.497827 -0.118039 -0.859206
  outer loop
   vertex -17.2263 63.5066 358.382
   vertex -16.6584 62.2324 358.228
   vertex -18.2099 63.1855 358.996
  endloop
 endfacet
 facet normal -0.513025 -0.00015945 -0.858374
  outer loop
   vertex -16.1839 63.3678 357.759
   vertex -17.2263 63.5066 358.382
   vertex -17.672 65.4517 358.648
  endloop
 endfacet
 facet normal -0.521367 -0.130452 -0.843302
  outer loop
   vertex -16.1839 63.3678 357.759
   vertex -16.6584 62.2324 358.228
   vertex -17.2263 63.5066 358.382
  endloop
 endfacet
 facet normal -0.471703 0.0389569 -0.880896
  outer loop
   vertex -16.1839 63.3678 357.759
   vertex -17.672 65.4517 358.648
   vertex -14.4331 62.4974 356.783
  endloop
 endfacet
 facet normal -0.50303 -0.0058972 -0.864249
  outer loop
   vertex -15.7962 66.3641 357.55
   vertex -14.4331 62.4974 356.783
   vertex -17.672 65.4517 358.648
  endloop
 endfacet
 facet normal -0.549022 0.136362 -0.824609
  outer loop
   vertex -15.7962 66.3641 357.55
   vertex -17.672 65.4517 358.648
   vertex -16.6745 66.8615 358.217
  endloop
 endfacet
 facet normal -0.501742 -0.0403267 -0.864077
  outer loop
   vertex -14.4331 62.4974 356.783
   vertex -15.8349 62.5396 357.595
   vertex -16.1839 63.3678 357.759
  endloop
 endfacet
 facet normal -0.522529 -0.0151039 -0.852488
  outer loop
   vertex -14.4331 62.4974 356.783
   vertex -15.7962 66.3641 357.55
   vertex -14.4387 66.4151 356.717
  endloop
 endfacet
 facet normal -0.523118 -0.0150986 -0.852127
  outer loop
   vertex -14.4387 66.4151 356.717
   vertex -13.3766 66.8089 356.058
   vertex -14.4331 62.4974 356.783
  endloop
 endfacet
 facet normal -0.544323 -0.00766839 -0.838841
  outer loop
   vertex -13.3766 66.8089 356.058
   vertex -13.3548 62.8579 356.08
   vertex -14.4331 62.4974 356.783
  endloop
 endfacet
 facet normal -0.454018 -0.00745998 -0.890961
  outer loop
   vertex -13.3548 62.8579 356.08
   vertex -13.3766 66.8089 356.058
   vertex -11.9264 62.6305 355.354
  endloop
 endfacet
 facet normal -0.486359 0.109567 -0.866862
  outer loop
   vertex -13.3766 66.8089 356.058
   vertex -12.1873 66.9849 355.413
   vertex -11.3211 65.9563 354.797
  endloop
 endfacet
 facet normal -0.535551 -0.0437767 -0.843368
  outer loop
   vertex -11.9264 62.6305 355.354
   vertex -13.3766 66.8089 356.058
   vertex -11.3211 65.9563 354.797
  endloop
 endfacet
 facet normal -0.555883 -0.0379037 -0.830396
  outer loop
   vertex -10.3512 64.5922 354.21
   vertex -11.9264 62.6305 355.354
   vertex -11.3211 65.9563 354.797
  endloop
 endfacet
 facet normal -0.48482 0.0314089 -0.87405
  outer loop
   vertex -10.3945 67.0134 354.321
   vertex -10.3512 64.5922 354.21
   vertex -11.3211 65.9563 354.797
  endloop
 endfacet
 facet normal -0.624544 0.046862 -0.779583
  outer loop
   vertex -10.3512 64.5922 354.21
   vertex -10.9092 63.2112 354.574
   vertex -11.9264 62.6305 355.354
  endloop
 endfacet
 facet normal -0.498725 -0.0268451 -0.866345
  outer loop
   vertex -9.74599 63.1589 353.906
   vertex -10.9092 63.2112 354.574
   vertex -10.3512 64.5922 354.21
  endloop
 endfacet
 facet normal -0.535746 -0.0474186 -0.843047
  outer loop
   vertex -10.3512 64.5922 354.21
   vertex -9.37376 64.0383 353.62
   vertex -9.74599 63.1589 353.906
  endloop
 endfacet
 facet normal -0.517268 0.0299687 -0.855298
  outer loop
   vertex -9.14293 66.5831 353.549
   vertex -10.3512 64.5922 354.21
   vertex -10.3945 67.0134 354.321
  endloop
 endfacet
 facet normal -0.511968 0.169494 -0.842117
  outer loop
   vertex -9.14293 66.5831 353.549
   vertex -9.77748 67.1356 354.046
   vertex -7.82599 67.1625 352.865
  endloop
 endfacet
 facet normal -0.507475 0.0220041 -0.861386
  outer loop
   vertex -9.14293 66.5831 353.549
   vertex -9.37376 64.0383 353.62
   vertex -10.3512 64.5922 354.21
  endloop
 endfacet
 facet normal -0.519951 0.0233452 -0.853877
  outer loop
   vertex -9.14293 66.5831 353.549
   vertex -8.05667 65.7946 352.866
   vertex -9.37376 64.0383 353.62
  endloop
 endfacet
 facet normal -0.487423 0.0815583 -0.869348
  outer loop
   vertex -9.14293 66.5831 353.549
   vertex -7.82599 67.1625 352.865
   vertex -8.05667 65.7946 352.866
  endloop
 endfacet
 facet normal -0.527543 -0.139697 -0.837964
  outer loop
   vertex -9.37376 64.0383 353.62
   vertex -7.45597 63.4484 352.511
   vertex -8.85694 62.9263 353.48
  endloop
 endfacet
 facet normal -0.499891 0.00306191 -0.866083
  outer loop
   vertex -7.45597 63.4484 352.511
   vertex -9.37376 64.0383 353.62
   vertex -8.05667 65.7946 352.866
  endloop
 endfacet
 facet normal -0.513444 0.0693609 -0.855315
  outer loop
   vertex -7.3374 66.7909 352.515
   vertex -6.47119 66.8646 352.001
   vertex -8.05667 65.7946 352.866
  endloop
 endfacet
 facet normal -0.48342 0.00868059 -0.875345
  outer loop
   vertex -7.45597 63.4484 352.511
   vertex -8.05667 65.7946 352.866
   vertex -6.47119 66.8646 352.001
  endloop
 endfacet
 facet normal -0.47075 -0.136422 -0.871656
  outer loop
   vertex -1.89614 63.7655 349.397
   vertex -3.00524 63.5673 350.027
   vertex -3.20328 64.2187 350.032
  endloop
 endfacet
 facet normal -0.529739 0.0261511 -0.847757
  outer loop
   vertex -6.29395 63.971 351.801
   vertex -7.45597 63.4484 352.511
   vertex -6.47119 66.8646 352.001
  endloop
 endfacet
 facet normal -0.515938 0.0275788 -0.856182
  outer loop
   vertex -6.29395 63.971 351.801
   vertex -6.47119 66.8646 352.001
   vertex -5.63648 66.7398 351.494
  endloop
 endfacet
 facet normal -0.480094 0.229093 -0.846774
  outer loop
   vertex -6.47119 66.8646 352.001
   vertex -5.83425 67.2494 351.744
   vertex -5.63648 66.7398 351.494
  endloop
 endfacet
 facet normal -0.501633 0.0232297 -0.864769
  outer loop
   vertex -4.68045 64.0816 350.868
   vertex -6.29395 63.971 351.801
   vertex -5.63648 66.7398 351.494
  endloop
 endfacet
 facet normal -0.50828 0.0355313 -0.860459
  outer loop
   vertex -4.01831 65.0901 350.47
   vertex -5.63648 66.7398 351.494
   vertex -4.62382 66.8657 350.901
  endloop
 endfacet
 facet normal -0.526966 0.0105981 -0.84982
  outer loop
   vertex -4.01831 65.0901 350.47
   vertex -4.68045 64.0816 350.868
   vertex -5.63648 66.7398 351.494
  endloop
 endfacet
 facet normal -0.49092 -0.0214043 -0.870942
  outer loop
   vertex -3.20328 64.2187 350.032
   vertex -4.68045 64.0816 350.868
   vertex -4.01831 65.0901 350.47
  endloop
 endfacet
 facet normal -0.502925 0.0533901 -0.862679
  outer loop
   vertex -4.62382 66.8657 350.901
   vertex -3.61705 66.9453 350.319
   vertex -2.94007 65.6797 349.846
  endloop
 endfacet
 facet normal -0.513986 0.0327874 -0.857172
  outer loop
   vertex -2.94007 65.6797 349.846
   vertex -4.01831 65.0901 350.47
   vertex -4.62382 66.8657 350.901
  endloop
 endfacet
 facet normal -0.42293 -0.426085 -0.799738
  outer loop
   vertex -3.00524 63.5673 350.027
   vertex -3.1813 63.3911 350.214
   vertex -4.67567 63.4911 350.951
  endloop
 endfacet
 facet normal -0.526619 0.0570969 -0.848182
  outer loop
   vertex -3.23234 67.181 350.096
   vertex -2.55544 66.9174 349.658
   vertex -3.61705 66.9453 350.319
  endloop
 endfacet
 facet normal -0.527576 0.0350117 -0.848786
  outer loop
   vertex -2.55544 66.9174 349.658
   vertex -2.94007 65.6797 349.846
   vertex -3.61705 66.9453 350.319
  endloop
 endfacet
 facet normal -0.491614 -0.0222618 -0.870529
  outer loop
   vertex -3.20328 64.2187 350.032
   vertex -4.01831 65.0901 350.47
   vertex -2.94007 65.6797 349.846
  endloop
 endfacet
 facet normal -0.474608 -0.137612 -0.869374
  outer loop
   vertex -3.00524 63.5673 350.027
   vertex -4.67567 63.4911 350.951
   vertex -3.20328 64.2187 350.032
  endloop
 endfacet
endsolid
