solid ascii
 facet normal -0.903144 -0.0992277 -0.417713
  outer loop
   vertex -37.1902 -10.815 375.558
   vertex -37.1826 -10.4379 375.452
   vertex -37.0602 -10.8532 375.286
  endloop
 endfacet
 facet normal -0.889461 0.189127 -0.416041
  outer loop
   vertex -37.1279 -9.67689 375.681
   vertex -37.0085 -9.81709 375.362
   vertex -37.1826 -10.4379 375.452
  endloop
 endfacet
 facet normal -0.856016 0.271678 -0.439804
  outer loop
   vertex -36.8817 -8.93514 375.66
   vertex -37.0085 -9.81709 375.362
   vertex -37.1279 -9.67689 375.681
  endloop
 endfacet
 facet normal -0.663534 0.323359 -0.674657
  outer loop
   vertex -37.0085 -9.81709 375.362
   vertex -36.8817 -8.93514 375.66
   vertex -36.7218 -9.11405 375.417
  endloop
 endfacet
 facet normal -0.930145 -0.0818804 -0.357946
  outer loop
   vertex -37.1902 -10.815 375.558
   vertex -37.3384 -10.5915 375.892
   vertex -37.1826 -10.4379 375.452
  endloop
 endfacet
 facet normal -0.947148 0.152936 -0.281994
  outer loop
   vertex -37.1279 -9.67689 375.681
   vertex -37.1826 -10.4379 375.452
   vertex -37.3384 -10.5915 375.892
  endloop
 endfacet
 facet normal -0.933899 0.138942 -0.329436
  outer loop
   vertex -37.1279 -9.67689 375.681
   vertex -37.3384 -10.5915 375.892
   vertex -37.4912 -10.3595 376.423
  endloop
 endfacet
 facet normal -0.713127 0.378306 -0.590199
  outer loop
   vertex -36.411 -7.04573 376.004
   vertex -36.6032 -7.2364 376.114
   vertex -36.5901 -6.82325 376.363
  endloop
 endfacet
 facet normal -0.946804 -0.286029 -0.147476
  outer loop
   vertex -37.4912 -10.3595 376.423
   vertex -37.3384 -10.5915 375.892
   vertex -37.3068 -10.7688 376.033
  endloop
 endfacet
 facet normal -0.906893 0.238218 -0.347559
  outer loop
   vertex -36.6032 -7.2364 376.114
   vertex -37.2658 -8.01251 377.311
   vertex -36.5901 -6.82325 376.363
  endloop
 endfacet
 facet normal -0.935586 0.305527 -0.177011
  outer loop
   vertex -36.8817 -8.93514 375.66
   vertex -37.1279 -9.67689 375.681
   vertex -37.4912 -10.3595 376.423
  endloop
 endfacet
 facet normal -0.906854 0.241065 -0.345692
  outer loop
   vertex -36.6032 -7.2364 376.114
   vertex -36.8817 -8.93514 375.66
   vertex -37.2658 -8.01251 377.311
  endloop
 endfacet
 facet normal -0.893839 0.157621 -0.419771
  outer loop
   vertex -36.8817 -8.93514 375.66
   vertex -37.4912 -10.3595 376.423
   vertex -38.0122 -9.75072 377.761
  endloop
 endfacet
 facet normal -0.941097 -0.188641 -0.280625
  outer loop
   vertex -37.4912 -10.3595 376.423
   vertex -37.6487 -10.4321 377
   vertex -38.0122 -9.75072 377.761
  endloop
 endfacet
 facet normal -0.885791 0.285686 -0.365728
  outer loop
   vertex -37.2658 -8.01251 377.311
   vertex -36.8817 -8.93514 375.66
   vertex -38.0122 -9.75072 377.761
  endloop
 endfacet
 facet normal -0.895759 0.187735 -0.402954
  outer loop
   vertex -37.2658 -8.01251 377.311
   vertex -37.0146 -5.99828 377.691
   vertex -36.5901 -6.82325 376.363
  endloop
 endfacet
 facet normal -0.873912 0.270757 -0.403693
  outer loop
   vertex -37.2658 -8.01251 377.311
   vertex -38.0122 -9.75072 377.761
   vertex -38.6461 -9.13829 379.544
  endloop
 endfacet
 facet normal -0.947695 -0.0862226 -0.307309
  outer loop
   vertex -38.6461 -9.13829 379.544
   vertex -38.0122 -9.75072 377.761
   vertex -38.4763 -9.39711 379.093
  endloop
 endfacet
 facet normal -0.877188 0.192392 -0.439917
  outer loop
   vertex -37.5149 -5.79844 378.776
   vertex -37.0146 -5.99828 377.691
   vertex -37.2658 -8.01251 377.311
  endloop
 endfacet
 facet normal -0.875868 0.239984 -0.418645
  outer loop
   vertex -37.2999 -5.42895 378.538
   vertex -37.2143 -5.91024 378.083
   vertex -37.5149 -5.79844 378.776
  endloop
 endfacet
 facet normal -0.885081 0.233349 -0.402716
  outer loop
   vertex -38.8672 -5.98967 381.771
   vertex -39.0234 -8.53057 380.642
   vertex -39.5222 -8.03571 382.025
  endloop
 endfacet
 facet normal -0.62797 0.577509 -0.521668
  outer loop
   vertex -37.9177 -4.20918 380.618
   vertex -37.9017 -4.53504 380.238
   vertex -38.0362 -4.36334 380.59
  endloop
 endfacet
 facet normal -0.618255 0.583595 -0.526477
  outer loop
   vertex -37.6318 -4.64875 379.795
   vertex -37.9017 -4.53504 380.238
   vertex -37.9177 -4.20918 380.618
  endloop
 endfacet
 facet normal -0.705802 0.451479 -0.545904
  outer loop
   vertex -37.9017 -4.53504 380.238
   vertex -37.6318 -4.64875 379.795
   vertex -37.8211 -4.92051 379.815
  endloop
 endfacet
 facet normal -0.905213 0.213764 -0.367279
  outer loop
   vertex -37.9017 -4.53504 380.238
   vertex -37.8211 -4.92051 379.815
   vertex -38.8672 -5.98967 381.771
  endloop
 endfacet
 facet normal -0.91783 -0.35294 -0.181717
  outer loop
   vertex -38.5887 -9.29683 379.562
   vertex -38.8358 -8.92762 380.093
   vertex -38.6461 -9.13829 379.544
  endloop
 endfacet
 facet normal -0.903758 0.152691 -0.399884
  outer loop
   vertex -37.8211 -4.92051 379.815
   vertex -37.614 -5.12725 379.268
   vertex -38.8672 -5.98967 381.771
  endloop
 endfacet
 facet normal -0.696256 0.446231 -0.562233
  outer loop
   vertex -37.4009 -5.08329 379.039
   vertex -37.614 -5.12725 379.268
   vertex -37.5794 -4.83137 379.46
  endloop
 endfacet
 facet normal -0.804616 0.386558 -0.450739
  outer loop
   vertex -37.5794 -4.83137 379.46
   vertex -37.614 -5.12725 379.268
   vertex -37.8211 -4.92051 379.815
  endloop
 endfacet
 facet normal -0.903667 0.158265 -0.397918
  outer loop
   vertex -38.8672 -5.98967 381.771
   vertex -37.614 -5.12725 379.268
   vertex -37.5149 -5.79844 378.776
  endloop
 endfacet
 facet normal -0.880606 0.186342 -0.435671
  outer loop
   vertex -39.0234 -8.53057 380.642
   vertex -37.2658 -8.01251 377.311
   vertex -38.8358 -8.92762 380.093
  endloop
 endfacet
 facet normal -0.873219 0.241704 -0.423163
  outer loop
   vertex -38.8672 -5.98967 381.771
   vertex -37.2658 -8.01251 377.311
   vertex -39.0234 -8.53057 380.642
  endloop
 endfacet
 facet normal -0.720539 0.3376 -0.605681
  outer loop
   vertex -37.4009 -5.08329 379.039
   vertex -37.5149 -5.79844 378.776
   vertex -37.614 -5.12725 379.268
  endloop
 endfacet
 facet normal -0.903275 0.161417 -0.39754
  outer loop
   vertex -37.5149 -5.79844 378.776
   vertex -37.2658 -8.01251 377.311
   vertex -38.8672 -5.98967 381.771
  endloop
 endfacet
 facet normal -0.874054 0.268333 -0.405003
  outer loop
   vertex -37.2658 -8.01251 377.311
   vertex -38.6461 -9.13829 379.544
   vertex -38.8358 -8.92762 380.093
  endloop
 endfacet
 facet normal -0.886572 0.277449 -0.370151
  outer loop
   vertex -37.4009 -5.08329 379.039
   vertex -37.2999 -5.42895 378.538
   vertex -37.5149 -5.79844 378.776
  endloop
 endfacet
 facet normal -0.988757 0.0719831 -0.131063
  outer loop
   vertex -49.337 39.0812 425.274
   vertex -49.4558 39.1573 426.212
   vertex -49.3505 39.8208 425.782
  endloop
 endfacet
 facet normal -0.986848 0.092605 -0.132494
  outer loop
   vertex -49.337 39.0812 425.274
   vertex -49.5886 37.7235 426.199
   vertex -49.4558 39.1573 426.212
  endloop
 endfacet
 facet normal -0.961785 0.142885 -0.233568
  outer loop
   vertex -49.3505 39.8208 425.782
   vertex -49.2088 40.3332 425.512
   vertex -49.337 39.0812 425.274
  endloop
 endfacet
 facet normal -0.946269 0.151233 -0.285839
  outer loop
   vertex -48.2749 41.735 423.162
   vertex -49.337 39.0812 425.274
   vertex -49.2088 40.3332 425.512
  endloop
 endfacet
 facet normal -0.945747 0.133489 -0.296217
  outer loop
   vertex -48.9729 40.895 425.012
   vertex -48.2749 41.735 423.162
   vertex -49.2088 40.3332 425.512
  endloop
 endfacet
 facet normal -0.981761 0.0587368 -0.180821
  outer loop
   vertex -49.1733 38.5912 424.226
   vertex -49.5886 37.7235 426.199
   vertex -49.337 39.0812 425.274
  endloop
 endfacet
 facet normal -0.942882 0.204738 -0.262785
  outer loop
   vertex -48.7717 41.6329 424.865
   vertex -48.2749 41.735 423.162
   vertex -48.9729 40.895 425.012
  endloop
 endfacet
 facet normal -0.96328 0.123473 -0.238424
  outer loop
   vertex -48.5467 42.4724 424.642
   vertex -48.2749 41.735 423.162
   vertex -48.6325 42.0444 424.767
  endloop
 endfacet
 facet normal -0.932425 0.254277 -0.256764
  outer loop
   vertex -48.7717 41.6329 424.865
   vertex -48.6325 42.0444 424.767
   vertex -48.2749 41.735 423.162
  endloop
 endfacet
 facet normal -0.952145 0.191458 -0.238251
  outer loop
   vertex -48.2749 41.735 423.162
   vertex -49.1733 38.5912 424.226
   vertex -49.337 39.0812 425.274
  endloop
 endfacet
 facet normal -0.968129 0.201008 -0.149406
  outer loop
   vertex -49.6803 36.1359 424.392
   vertex -49.8177 35.1627 423.973
   vertex -50.3385 33.0832 424.55
  endloop
 endfacet
 facet normal -0.94982 0.172978 -0.260617
  outer loop
   vertex -48.3925 43.0961 424.494
   vertex -48.2749 41.735 423.162
   vertex -48.5467 42.4724 424.642
  endloop
 endfacet
 facet normal -0.971655 0.21792 -0.0916381
  outer loop
   vertex -50.3385 33.0832 424.55
   vertex -49.8177 35.1627 423.973
   vertex -50.0213 34.2612 423.988
  endloop
 endfacet
 facet normal -0.981919 0.0819555 -0.170643
  outer loop
   vertex -49.1733 38.5912 424.226
   vertex -49.0926 38.0339 423.494
   vertex -49.5886 37.7235 426.199
  endloop
 endfacet
 facet normal -0.967507 0.172192 -0.18515
  outer loop
   vertex -50.0213 34.2612 423.988
   vertex -50.1139 33.4764 423.742
   vertex -50.3385 33.0832 424.55
  endloop
 endfacet
 facet normal -0.962451 0.218348 -0.161283
  outer loop
   vertex -50.1139 33.4764 423.742
   vertex -50.2401 32.813 423.597
   vertex -50.3385 33.0832 424.55
  endloop
 endfacet
 facet normal -0.920184 0.139439 -0.365811
  outer loop
   vertex -47.5265 47.3399 424.303
   vertex -46.9225 44.8957 421.852
   vertex -47.8891 45.5058 424.516
  endloop
 endfacet
 facet normal -0.962259 0.226787 -0.150418
  outer loop
   vertex -49.5886 37.7235 426.199
   vertex -49.0926 38.0339 423.494
   vertex -49.6803 36.1359 424.392
  endloop
 endfacet
 facet normal -0.918728 0.258308 -0.298691
  outer loop
   vertex -49.5708 35.0383 423.106
   vertex -49.8177 35.1627 423.973
   vertex -49.6803 36.1359 424.392
  endloop
 endfacet
 facet normal -0.890374 0.250141 -0.380347
  outer loop
   vertex -47.8891 45.5058 424.516
   vertex -46.9225 44.8957 421.852
   vertex -48.0884 44.2247 424.14
  endloop
 endfacet
 facet normal -0.842247 0.263491 -0.470312
  outer loop
   vertex -46.7222 48.0081 423.237
   vertex -46.9225 44.8957 421.852
   vertex -47.5265 47.3399 424.303
  endloop
 endfacet
 facet normal -0.929967 0.152544 -0.334501
  outer loop
   vertex -47.9391 39.9426 421.411
   vertex -49.1733 38.5912 424.226
   vertex -48.2749 41.735 423.162
  endloop
 endfacet
 facet normal -0.953995 0.183046 -0.237459
  outer loop
   vertex -49.0926 38.0339 423.494
   vertex -49.5708 35.0383 423.106
   vertex -49.6803 36.1359 424.392
  endloop
 endfacet
 facet normal -0.933001 0.205799 -0.295222
  outer loop
   vertex -49.8177 35.1627 423.973
   vertex -49.5708 35.0383 423.106
   vertex -50.0213 34.2612 423.988
  endloop
 endfacet
 facet normal -0.929156 0.160849 -0.332861
  outer loop
   vertex -49.5708 35.0383 423.106
   vertex -49.9214 32.3757 422.798
   vertex -50.0213 34.2612 423.988
  endloop
 endfacet
 facet normal -0.898242 0.108448 -0.42591
  outer loop
   vertex -46.9225 44.8957 421.852
   vertex -48.3925 43.0961 424.494
   vertex -48.0884 44.2247 424.14
  endloop
 endfacet
 facet normal -0.906315 0.282089 -0.314672
  outer loop
   vertex -49.1733 38.5912 424.226
   vertex -48.0199 38.8634 421.148
   vertex -49.0926 38.0339 423.494
  endloop
 endfacet
 facet normal -0.908401 0.249694 -0.335352
  outer loop
   vertex -46.9225 44.8957 421.852
   vertex -48.2749 41.735 423.162
   vertex -48.3925 43.0961 424.494
  endloop
 endfacet
 facet normal -0.929957 0.151292 -0.335098
  outer loop
   vertex -47.9391 39.9426 421.411
   vertex -48.0199 38.8634 421.148
   vertex -49.1733 38.5912 424.226
  endloop
 endfacet
 facet normal -0.916437 0.191787 -0.351229
  outer loop
   vertex -49.5708 35.0383 423.106
   vertex -49.0926 38.0339 423.494
   vertex -48.0199 38.8634 421.148
  endloop
 endfacet
 facet normal -0.830369 0.307299 -0.464816
  outer loop
   vertex -45.5618 48.5526 421.524
   vertex -45.4055 47.2022 420.352
   vertex -46.7222 48.0081 423.237
  endloop
 endfacet
 facet normal -0.899846 0.231898 -0.36946
  outer loop
   vertex -46.9225 44.8957 421.852
   vertex -47.0599 42.8554 420.906
   vertex -48.2749 41.735 423.162
  endloop
 endfacet
 facet normal -0.84919 0.259355 -0.460013
  outer loop
   vertex -45.4055 47.2022 420.352
   vertex -46.9225 44.8957 421.852
   vertex -46.7222 48.0081 423.237
  endloop
 endfacet
 facet normal -0.910688 0.188481 -0.367591
  outer loop
   vertex -48.2749 41.735 423.162
   vertex -47.7694 40.7586 421.409
   vertex -47.9391 39.9426 421.411
  endloop
 endfacet
 facet normal -0.900454 0.213831 -0.37876
  outer loop
   vertex -47.0599 42.8554 420.906
   vertex -47.7694 40.7586 421.409
   vertex -48.2749 41.735 423.162
  endloop
 endfacet
 facet normal -0.795278 0.247836 -0.553273
  outer loop
   vertex -45.1495 49.0653 421.161
   vertex -45.0533 48.836 420.92
   vertex -45.5618 48.5526 421.524
  endloop
 endfacet
 facet normal -0.88813 0.241196 -0.391216
  outer loop
   vertex -46.2711 44.6002 420.191
   vertex -47.0599 42.8554 420.906
   vertex -46.9225 44.8957 421.852
  endloop
 endfacet
 facet normal -0.790334 0.357124 -0.49783
  outer loop
   vertex -45.0533 48.836 420.92
   vertex -45.3674 47.8718 420.727
   vertex -45.5618 48.5526 421.524
  endloop
 endfacet
 facet normal -0.829856 0.307842 -0.465373
  outer loop
   vertex -45.4055 47.2022 420.352
   vertex -45.5618 48.5526 421.524
   vertex -45.3674 47.8718 420.727
  endloop
 endfacet
 facet normal -0.904982 0.166526 -0.391505
  outer loop
   vertex -47.5469 38.5257 419.911
   vertex -49.5708 35.0383 423.106
   vertex -48.0199 38.8634 421.148
  endloop
 endfacet
 facet normal -0.87631 0.181138 -0.446396
  outer loop
   vertex -46.1454 42.1979 418.805
   vertex -47.9391 39.9426 421.411
   vertex -47.7694 40.7586 421.409
  endloop
 endfacet
 facet normal -0.875288 0.175367 -0.450686
  outer loop
   vertex -47.9391 39.9426 421.411
   vertex -46.1454 42.1979 418.805
   vertex -48.0199 38.8634 421.148
  endloop
 endfacet
 facet normal -0.889892 0.219125 -0.400095
  outer loop
   vertex -46.1454 42.1979 418.805
   vertex -47.5469 38.5257 419.911
   vertex -48.0199 38.8634 421.148
  endloop
 endfacet
 facet normal -0.906749 0.174578 -0.383835
  outer loop
   vertex -47.5469 38.5257 419.911
   vertex -47.2816 37.5423 418.837
   vertex -49.5708 35.0383 423.106
  endloop
 endfacet
 facet normal -0.876808 0.190814 -0.441358
  outer loop
   vertex -47.7694 40.7586 421.409
   vertex -47.0599 42.8554 420.906
   vertex -46.1454 42.1979 418.805
  endloop
 endfacet
 facet normal -0.907283 0.189082 -0.375614
  outer loop
   vertex -47.2816 37.5423 418.837
   vertex -48.1217 34.3654 419.267
   vertex -49.5708 35.0383 423.106
  endloop
 endfacet
 facet normal -0.886518 0.238243 -0.396643
  outer loop
   vertex -46.2711 44.6002 420.191
   vertex -46.5749 42.7222 419.742
   vertex -47.0599 42.8554 420.906
  endloop
 endfacet
 facet normal -0.923094 -0.086499 -0.374721
  outer loop
   vertex -46.1454 42.1979 418.805
   vertex -47.0599 42.8554 420.906
   vertex -46.5749 42.7222 419.742
  endloop
 endfacet
 facet normal -0.871539 0.272503 -0.407629
  outer loop
   vertex -45.8011 46.0709 420.24
   vertex -45.9387 45.2075 419.957
   vertex -46.9225 44.8957 421.852
  endloop
 endfacet
 facet normal -0.861496 0.319443 -0.394691
  outer loop
   vertex -46.9225 44.8957 421.852
   vertex -45.9387 45.2075 419.957
   vertex -46.2711 44.6002 420.191
  endloop
 endfacet
 facet normal -0.806559 0.257679 -0.532038
  outer loop
   vertex -46.5749 42.7222 419.742
   vertex -46.2711 44.6002 420.191
   vertex -45.9703 43.6339 419.267
  endloop
 endfacet
 facet normal -0.813465 0.241331 -0.529183
  outer loop
   vertex -45.9387 45.2075 419.957
   vertex -45.8815 44.4925 419.543
   vertex -46.2711 44.6002 420.191
  endloop
 endfacet
 facet normal -0.885062 0.213154 -0.4138
  outer loop
   vertex -47.2816 37.5423 418.837
   vertex -47.5469 38.5257 419.911
   vertex -46.1454 42.1979 418.805
  endloop
 endfacet
 facet normal -0.901822 0.217523 -0.373365
  outer loop
   vertex -46.3921 40.6602 418.505
   vertex -47.2816 37.5423 418.837
   vertex -46.1454 42.1979 418.805
  endloop
 endfacet
 facet normal -0.913258 0.163085 -0.373313
  outer loop
   vertex -49.5708 35.0383 423.106
   vertex -48.1217 34.3654 419.267
   vertex -49.3169 31.2319 420.822
  endloop
 endfacet
 facet normal -0.80976 0.253806 -0.529029
  outer loop
   vertex -45.8815 44.4925 419.543
   vertex -45.9703 43.6339 419.267
   vertex -46.2711 44.6002 420.191
  endloop
 endfacet
 facet normal -0.837177 0.326615 -0.438699
  outer loop
   vertex -45.9703 43.6339 419.267
   vertex -46.2355 42.7473 419.113
   vertex -46.5749 42.7222 419.742
  endloop
 endfacet
 facet normal -0.9357 0.220058 -0.275754
  outer loop
   vertex -48.1217 34.3654 419.267
   vertex -48.8907 30.9928 419.185
   vertex -49.3169 31.2319 420.822
  endloop
 endfacet
 facet normal -0.923826 0.16879 -0.343592
  outer loop
   vertex -48.8907 30.9928 419.185
   vertex -49.151 29.8022 419.3
   vertex -49.1859 30.8407 419.904
  endloop
 endfacet
 facet normal -0.598744 0.307547 -0.739541
  outer loop
   vertex -45.9703 43.6339 419.267
   vertex -45.9996 42.9084 418.989
   vertex -46.2355 42.7473 419.113
  endloop
 endfacet
 facet normal -0.87581 0.118661 -0.467843
  outer loop
   vertex -46.1454 42.1979 418.805
   vertex -46.5749 42.7222 419.742
   vertex -46.2355 42.7473 419.113
  endloop
 endfacet
 facet normal -0.600742 0.313725 -0.735314
  outer loop
   vertex -45.9996 42.9084 418.989
   vertex -46.1454 42.1979 418.805
   vertex -46.2355 42.7473 419.113
  endloop
 endfacet
 facet normal -0.54499 0.24393 -0.802174
  outer loop
   vertex -46.152 41.3841 418.562
   vertex -46.3921 40.6602 418.505
   vertex -46.1454 42.1979 418.805
  endloop
 endfacet
 facet normal -0.936448 0.175392 -0.303814
  outer loop
   vertex -49.0743 29.311 418.78
   vertex -49.151 29.8022 419.3
   vertex -48.8907 30.9928 419.185
  endloop
 endfacet
 facet normal -0.885582 0.176003 -0.429847
  outer loop
   vertex -46.6825 36.2535 417.075
   vertex -48.1217 34.3654 419.267
   vertex -47.2816 37.5423 418.837
  endloop
 endfacet
 facet normal -0.805123 0.16916 -0.568473
  outer loop
   vertex -46.2438 40.173 418.15
   vertex -47.2816 37.5423 418.837
   vertex -46.3921 40.6602 418.505
  endloop
 endfacet
 facet normal -0.686015 0.280405 -0.671384
  outer loop
   vertex -46.2438 40.173 418.15
   vertex -46.3921 40.6602 418.505
   vertex -46.152 41.3841 418.562
  endloop
 endfacet
 facet normal -0.887468 0.197193 -0.416551
  outer loop
   vertex -48.8907 30.9928 419.185
   vertex -47.6539 29.3177 415.757
   vertex -49.0743 29.311 418.78
  endloop
 endfacet
 facet normal -0.881887 0.21133 -0.421445
  outer loop
   vertex -48.1217 34.3654 419.267
   vertex -47.6539 29.3177 415.757
   vertex -48.8907 30.9928 419.185
  endloop
 endfacet
 facet normal -0.843574 0.202945 -0.497188
  outer loop
   vertex -47.2816 37.5423 418.837
   vertex -46.2438 40.173 418.15
   vertex -46.2436 39.6398 417.932
  endloop
 endfacet
 facet normal -0.872496 0.113238 -0.475319
  outer loop
   vertex -46.6825 36.2535 417.075
   vertex -46.2895 34.9244 416.037
   vertex -48.1217 34.3654 419.267
  endloop
 endfacet
 facet normal -0.896618 0.137297 -0.420983
  outer loop
   vertex -47.6539 29.3177 415.757
   vertex -49.0501 28.6994 418.529
   vertex -49.0743 29.311 418.78
  endloop
 endfacet
 facet normal -0.973407 0.0155258 -0.228557
  outer loop
   vertex -49.0501 28.6994 418.529
   vertex -48.8427 27.7468 417.581
   vertex -48.9782 28.0992 418.182
  endloop
 endfacet
 facet normal -0.967658 0.0497307 -0.247317
  outer loop
   vertex -48.9782 28.0992 418.182
   vertex -48.8427 27.7468 417.581
   vertex -48.9279 27.4815 417.861
  endloop
 endfacet
 facet normal -0.877336 0.260203 -0.403206
  outer loop
   vertex -46.2436 39.6398 417.932
   vertex -46.3198 38.9304 417.64
   vertex -47.2816 37.5423 418.837
  endloop
 endfacet
 facet normal -0.885387 0.362003 -0.291622
  outer loop
   vertex -46.4849 38.5427 417.66
   vertex -47.2816 37.5423 418.837
   vertex -46.3198 38.9304 417.64
  endloop
 endfacet
 facet normal -0.882533 0.204782 -0.42332
  outer loop
   vertex -46.4849 38.5427 417.66
   vertex -46.551 37.8589 417.467
   vertex -47.2816 37.5423 418.837
  endloop
 endfacet
 facet normal -0.891553 0.206862 -0.402915
  outer loop
   vertex -49.0501 28.6994 418.529
   vertex -47.6539 29.3177 415.757
   vertex -48.8427 27.7468 417.581
  endloop
 endfacet
 facet normal -0.757751 0.24405 -0.605188
  outer loop
   vertex -46.4849 38.5427 417.66
   vertex -46.3502 38.4228 417.443
   vertex -46.551 37.8589 417.467
  endloop
 endfacet
 facet normal -0.862709 0.232372 -0.44915
  outer loop
   vertex -48.1217 34.3654 419.267
   vertex -46.2895 34.9244 416.037
   vertex -47.6539 29.3177 415.757
  endloop
 endfacet
 facet normal -0.946766 0.10612 -0.303928
  outer loop
   vertex -48.8427 27.7468 417.581
   vertex -48.7741 26.8867 417.067
   vertex -48.8989 27.0478 417.512
  endloop
 endfacet
 facet normal -0.888039 0.181595 -0.422386
  outer loop
   vertex -47.6539 29.3177 415.757
   vertex -48.7741 26.8867 417.067
   vertex -48.8427 27.7468 417.581
  endloop
 endfacet
 facet normal -0.875395 0.157009 -0.457199
  outer loop
   vertex -47.4215 24.0616 413.507
   vertex -48.7741 26.8867 417.067
   vertex -47.6539 29.3177 415.757
  endloop
 endfacet
 facet normal -0.85551 0.190985 -0.481277
  outer loop
   vertex -46.3382 30.1437 413.746
   vertex -46.3307 29.3835 413.431
   vertex -47.6539 29.3177 415.757
  endloop
 endfacet
 facet normal -0.864889 0.164735 -0.474162
  outer loop
   vertex -47.6539 29.3177 415.757
   vertex -46.1897 26.8532 412.23
   vertex -47.4215 24.0616 413.507
  endloop
 endfacet
 facet normal -0.857001 0.181213 -0.482401
  outer loop
   vertex -46.3307 29.3835 413.431
   vertex -46.1897 26.8532 412.23
   vertex -47.6539 29.3177 415.757
  endloop
 endfacet
 facet normal -0.929097 0.176364 -0.325076
  outer loop
   vertex -47.4215 24.0616 413.507
   vertex -47.9345 20.5776 413.083
   vertex -48.076 21.6422 414.065
  endloop
 endfacet
 facet normal -0.891804 0.210264 -0.400594
  outer loop
   vertex -46.1897 26.8532 412.23
   vertex -46.1926 25.0538 411.292
   vertex -47.4215 24.0616 413.507
  endloop
 endfacet
 facet normal -0.907483 0.179824 -0.379656
  outer loop
   vertex -47.4215 24.0616 413.507
   vertex -46.4269 21.702 410.012
   vertex -47.9345 20.5776 413.083
  endloop
 endfacet
 facet normal -0.891833 0.20917 -0.401101
  outer loop
   vertex -46.1926 25.0538 411.292
   vertex -46.0912 24.0844 410.561
   vertex -47.4215 24.0616 413.507
  endloop
 endfacet
 facet normal -0.930709 0.0605732 -0.360709
  outer loop
   vertex -47.9345 20.5776 413.083
   vertex -47.216 20.3805 411.196
   vertex -47.8707 19.7655 412.782
  endloop
 endfacet
 facet normal -0.931558 0.185964 -0.312437
  outer loop
   vertex -47.216 20.3805 411.196
   vertex -47.6595 18.8779 411.624
   vertex -47.8707 19.7655 412.782
  endloop
 endfacet
 facet normal -0.905734 0.212002 -0.367016
  outer loop
   vertex -46.4269 21.702 410.012
   vertex -47.216 20.3805 411.196
   vertex -47.9345 20.5776 413.083
  endloop
 endfacet
 facet normal -0.894015 0.142928 -0.424628
  outer loop
   vertex -47.216 20.3805 411.196
   vertex -46.6578 19.5523 409.742
   vertex -47.6595 18.8779 411.624
  endloop
 endfacet
 facet normal -0.892783 0.147083 -0.425798
  outer loop
   vertex -47.5144 17.8075 410.95
   vertex -47.7008 18.2451 411.492
   vertex -47.6595 18.8779 411.624
  endloop
 endfacet
 facet normal -0.890165 0.217673 -0.400281
  outer loop
   vertex -46.0912 24.0844 410.561
   vertex -46.4269 21.702 410.012
   vertex -47.4215 24.0616 413.507
  endloop
 endfacet
 facet normal -0.894033 0.145584 -0.423686
  outer loop
   vertex -46.6578 19.5523 409.742
   vertex -47.5144 17.8075 410.95
   vertex -47.6595 18.8779 411.624
  endloop
 endfacet
 facet normal -0.907082 0.220194 -0.358771
  outer loop
   vertex -46.4269 21.702 410.012
   vertex -46.7294 20.8974 410.283
   vertex -47.216 20.3805 411.196
  endloop
 endfacet
 facet normal -0.913718 0.209048 -0.348451
  outer loop
   vertex -46.0912 24.0844 410.561
   vertex -46.1079 23.5297 410.272
   vertex -46.4269 21.702 410.012
  endloop
 endfacet
 facet normal -0.904787 0.143534 -0.400948
  outer loop
   vertex -46.7294 20.8974 410.283
   vertex -46.7984 20.0351 410.13
   vertex -47.216 20.3805 411.196
  endloop
 endfacet
 facet normal -0.927404 0.02959 -0.372889
  outer loop
   vertex -46.7984 20.0351 410.13
   vertex -46.6578 19.5523 409.742
   vertex -47.216 20.3805 411.196
  endloop
 endfacet
 facet normal -0.900943 -0.0711162 -0.428071
  outer loop
   vertex -47.5144 17.8075 410.95
   vertex -46.3345 17.6794 408.488
   vertex -47.5604 17.4453 411.107
  endloop
 endfacet
 facet normal -0.890519 0.136792 -0.433893
  outer loop
   vertex -46.3345 17.6794 408.488
   vertex -47.5144 17.8075 410.95
   vertex -46.6578 19.5523 409.742
  endloop
 endfacet
 facet normal -0.856207 0.216191 -0.469223
  outer loop
   vertex -46.1079 23.5297 410.272
   vertex -46.0279 22.401 409.606
   vertex -46.4269 21.702 410.012
  endloop
 endfacet
 facet normal -0.458064 0.42744 -0.779405
  outer loop
   vertex -45.9866 22.8975 409.854
   vertex -46.0279 22.401 409.606
   vertex -46.1079 23.5297 410.272
  endloop
 endfacet
 facet normal -0.898787 0.165606 -0.405902
  outer loop
   vertex -46.3345 17.6794 408.488
   vertex -47.3366 16.5128 410.231
   vertex -47.5604 17.4453 411.107
  endloop
 endfacet
 facet normal -0.845234 0.144493 -0.514492
  outer loop
   vertex -46.4269 21.702 410.012
   vertex -45.8072 20.5842 408.68
   vertex -46.7294 20.8974 410.283
  endloop
 endfacet
 facet normal -0.84206 0.158832 -0.515468
  outer loop
   vertex -45.8072 20.5842 408.68
   vertex -46.7984 20.0351 410.13
   vertex -46.7294 20.8974 410.283
  endloop
 endfacet
 facet normal -0.592396 0.398923 -0.699948
  outer loop
   vertex -45.8635 22.4083 409.471
   vertex -46.0279 22.401 409.606
   vertex -45.9866 22.8975 409.854
  endloop
 endfacet
 facet normal -0.84227 0.16669 -0.512636
  outer loop
   vertex -46.7984 20.0351 410.13
   vertex -45.8072 20.5842 408.68
   vertex -46.6578 19.5523 409.742
  endloop
 endfacet
 facet normal -0.838915 0.180659 -0.513404
  outer loop
   vertex -46.0279 22.401 409.606
   vertex -45.8771 21.2768 408.964
   vertex -46.4269 21.702 410.012
  endloop
 endfacet
 facet normal -0.858953 0.117658 -0.498354
  outer loop
   vertex -45.8072 20.5842 408.68
   vertex -46.4269 21.702 410.012
   vertex -45.8771 21.2768 408.964
  endloop
 endfacet
 facet normal -0.975874 -0.0349758 -0.215516
  outer loop
   vertex -47.2926 15.9512 409.912
   vertex -47.0764 15.3721 409.027
   vertex -47.1129 15.0719 409.241
  endloop
 endfacet
 facet normal -0.925902 0.12911 -0.355016
  outer loop
   vertex -47.3366 16.5128 410.231
   vertex -46.7282 16.1849 408.525
   vertex -47.2926 15.9512 409.912
  endloop
 endfacet
 facet normal -0.9211 0.182042 -0.344144
  outer loop
   vertex -47.2926 15.9512 409.912
   vertex -46.7282 16.1849 408.525
   vertex -47.0764 15.3721 409.027
  endloop
 endfacet
 facet normal -0.902218 0.228623 -0.365697
  outer loop
   vertex -46.3345 17.6794 408.488
   vertex -46.7282 16.1849 408.525
   vertex -47.3366 16.5128 410.231
  endloop
 endfacet
 facet normal -0.724887 0.197455 -0.659963
  outer loop
   vertex -45.8072 20.5842 408.68
   vertex -45.8771 21.2768 408.964
   vertex -45.6968 20.8926 408.651
  endloop
 endfacet
 facet normal -0.838655 0.153456 -0.522599
  outer loop
   vertex -46.6578 19.5523 409.742
   vertex -45.8072 20.5842 408.68
   vertex -45.4184 18.8029 407.533
  endloop
 endfacet
 facet normal -0.926157 0.198831 -0.320467
  outer loop
   vertex -46.7282 16.1849 408.525
   vertex -46.9487 14.8709 408.347
   vertex -47.0764 15.3721 409.027
  endloop
 endfacet
 facet normal -0.437583 0.0723919 -0.896259
  outer loop
   vertex -45.6968 20.8926 408.651
   vertex -45.4533 20.6684 408.514
   vertex -45.8072 20.5842 408.68
  endloop
 endfacet
 facet normal -0.818748 0.215096 -0.53234
  outer loop
   vertex -45.4184 18.8029 407.533
   vertex -46.3345 17.6794 408.488
   vertex -46.6578 19.5523 409.742
  endloop
 endfacet
 facet normal -0.898018 0.203536 -0.390047
  outer loop
   vertex -46.7282 16.1849 408.525
   vertex -46.6628 14.835 407.67
   vertex -46.9487 14.8709 408.347
  endloop
 endfacet
 facet normal -0.802679 0.197524 -0.562753
  outer loop
   vertex -46.3345 17.6794 408.488
   vertex -45.1718 18.1734 407.003
   vertex -46.7282 16.1849 408.525
  endloop
 endfacet
 facet normal -0.978852 0.104184 -0.176053
  outer loop
   vertex -46.9487 14.8709 408.347
   vertex -46.9513 13.8326 407.747
   vertex -47.0254 14.1672 408.357
  endloop
 endfacet
 facet normal -0.951522 0.205879 -0.228517
  outer loop
   vertex -47.0254 14.1672 408.357
   vertex -46.9513 13.8326 407.747
   vertex -47.0465 13.6157 407.948
  endloop
 endfacet
 facet normal -0.802529 0.167679 -0.572565
  outer loop
   vertex -45.4184 18.8029 407.533
   vertex -45.1718 18.1734 407.003
   vertex -46.3345 17.6794 408.488
  endloop
 endfacet
 facet normal -0.827438 0.271316 -0.491664
  outer loop
   vertex -46.6628 14.835 407.67
   vertex -46.7282 16.1849 408.525
   vertex -45.1718 18.1734 407.003
  endloop
 endfacet
 facet normal -0.89278 0.227066 -0.389082
  outer loop
   vertex -46.6628 14.835 407.67
   vertex -46.9513 13.8326 407.747
   vertex -46.9487 14.8709 408.347
  endloop
 endfacet
 facet normal -0.799948 0.248106 -0.546376
  outer loop
   vertex -45.1718 18.1734 407.003
   vertex -45.6226 14.4473 405.971
   vertex -46.6628 14.835 407.67
  endloop
 endfacet
 facet normal -0.867868 0.215396 -0.447671
  outer loop
   vertex -46.6628 14.835 407.67
   vertex -46.618 13.6375 407.007
   vertex -46.9513 13.8326 407.747
  endloop
 endfacet
 facet normal -0.79476 0.2494 -0.553314
  outer loop
   vertex -45.1421 17.7356 406.763
   vertex -45.6226 14.4473 405.971
   vertex -45.1718 18.1734 407.003
  endloop
 endfacet
 facet normal -0.861255 0.234441 -0.450863
  outer loop
   vertex -45.1421 17.7356 406.763
   vertex -45.1644 16.9652 406.405
   vertex -45.6226 14.4473 405.971
  endloop
 endfacet
 facet normal -0.809963 0.131248 -0.571607
  outer loop
   vertex -46.618 13.6375 407.007
   vertex -45.5372 13.779 405.508
   vertex -46.8494 12.5884 407.094
  endloop
 endfacet
 facet normal -0.832802 0.288536 -0.472428
  outer loop
   vertex -45.5372 13.779 405.508
   vertex -46.6326 11.996 406.35
   vertex -46.8494 12.5884 407.094
  endloop
 endfacet
 facet normal -0.818454 0.239001 -0.522505
  outer loop
   vertex -45.6226 14.4473 405.971
   vertex -45.1644 16.9652 406.405
   vertex -44.9738 16.5751 405.928
  endloop
 endfacet
 facet normal -0.79247 0.272473 -0.545664
  outer loop
   vertex -46.6628 14.835 407.67
   vertex -45.5372 13.779 405.508
   vertex -46.618 13.6375 407.007
  endloop
 endfacet
 facet normal -0.82281 0.240482 -0.514929
  outer loop
   vertex -44.9738 16.5751 405.928
   vertex -44.8676 16.0648 405.52
   vertex -45.6226 14.4473 405.971
  endloop
 endfacet
 facet normal -0.789683 0.278003 -0.546914
  outer loop
   vertex -45.5372 13.779 405.508
   vertex -46.6628 14.835 407.67
   vertex -45.6226 14.4473 405.971
  endloop
 endfacet
 facet normal -0.758113 0.168213 -0.630055
  outer loop
   vertex -46.6326 11.996 406.35
   vertex -45.5372 13.779 405.508
   vertex -46.6163 11.56 406.214
  endloop
 endfacet
 facet normal -0.379308 0.463364 -0.800886
  outer loop
   vertex -44.6935 16.6317 405.828
   vertex -44.9738 16.5751 405.928
   vertex -44.9385 17.062 406.193
  endloop
 endfacet
 facet normal -0.714854 0.373544 -0.591143
  outer loop
   vertex -44.9385 17.062 406.193
   vertex -44.9738 16.5751 405.928
   vertex -45.1644 16.9652 406.405
  endloop
 endfacet
 facet normal -0.377917 0.528926 -0.759879
  outer loop
   vertex -44.6935 16.6317 405.828
   vertex -44.8676 16.0648 405.52
   vertex -44.9738 16.5751 405.928
  endloop
 endfacet
 facet normal -0.85055 0.271411 -0.450445
  outer loop
   vertex -44.8676 16.0648 405.52
   vertex -44.7025 14.8562 404.48
   vertex -45.6226 14.4473 405.971
  endloop
 endfacet
 facet normal -0.856303 0.215699 -0.469274
  outer loop
   vertex -44.7025 14.8562 404.48
   vertex -45.5372 13.779 405.508
   vertex -45.6226 14.4473 405.971
  endloop
 endfacet
 facet normal -0.843027 0.26019 -0.470751
  outer loop
   vertex -46.6163 11.56 406.214
   vertex -45.5372 13.779 405.508
   vertex -46.4829 11.1491 405.748
  endloop
 endfacet
 facet normal -0.506482 0.526537 -0.682814
  outer loop
   vertex -44.8676 16.0648 405.52
   vertex -44.6935 16.6317 405.828
   vertex -44.6624 15.903 405.243
  endloop
 endfacet
 facet normal -0.514272 0.517943 -0.683564
  outer loop
   vertex -44.6624 15.903 405.243
   vertex -44.7025 14.8562 404.48
   vertex -44.8676 16.0648 405.52
  endloop
 endfacet
 facet normal -0.86415 0.256351 -0.433047
  outer loop
   vertex -44.7025 14.8562 404.48
   vertex -44.7566 14.4204 404.33
   vertex -45.5372 13.779 405.508
  endloop
 endfacet
 facet normal -0.9765 0.152341 -0.152449
  outer loop
   vertex -45.9263 58.4129 425.342
   vertex -46.1882 56.565 425.173
   vertex -46.0888 57.4073 425.378
  endloop
 endfacet
 facet normal -0.925338 0.169561 -0.339115
  outer loop
   vertex -46.1882 56.565 425.173
   vertex -46.26 55.9332 425.053
   vertex -46.3461 55.8753 425.259
  endloop
 endfacet
 facet normal -0.89266 0.0790095 -0.443753
  outer loop
   vertex -46.26 55.9332 425.053
   vertex -45.6129 52.4381 423.129
   vertex -46.4263 55.1888 425.255
  endloop
 endfacet
 facet normal -0.802217 0.198129 -0.563199
  outer loop
   vertex -46.1882 56.565 425.173
   vertex -45.0999 55.9941 423.422
   vertex -46.26 55.9332 425.053
  endloop
 endfacet
 facet normal -0.846149 0.14678 -0.512335
  outer loop
   vertex -44.8623 61.7716 424.547
   vertex -44.1006 59.3352 422.591
   vertex -45.9263 58.4129 425.342
  endloop
 endfacet
 facet normal -0.806837 0.163181 -0.567791
  outer loop
   vertex -45.6129 52.4381 423.129
   vertex -46.26 55.9332 425.053
   vertex -45.0999 55.9941 423.422
  endloop
 endfacet
 facet normal -0.812284 0.166256 -0.559065
  outer loop
   vertex -45.9263 58.4129 425.342
   vertex -45.0999 55.9941 423.422
   vertex -46.1882 56.565 425.173
  endloop
 endfacet
 facet normal -0.750469 0.254913 -0.609767
  outer loop
   vertex -43.8257 59.6087 422.367
   vertex -44.1006 59.3352 422.591
   vertex -44.8623 61.7716 424.547
  endloop
 endfacet
 facet normal -0.819214 0.157772 -0.551359
  outer loop
   vertex -45.9263 58.4129 425.342
   vertex -44.164 56.2058 422.092
   vertex -45.0999 55.9941 423.422
  endloop
 endfacet
 facet normal -0.84375 0.122355 -0.522605
  outer loop
   vertex -43.8257 59.6087 422.367
   vertex -44.8623 61.7716 424.547
   vertex -44.0368 61.8732 423.238
  endloop
 endfacet
 facet normal -0.842151 0.0737046 -0.534181
  outer loop
   vertex -44.1006 59.3352 422.591
   vertex -44.0384 58.4008 422.364
   vertex -45.9263 58.4129 425.342
  endloop
 endfacet
 facet normal -0.838872 0.11396 -0.532266
  outer loop
   vertex -44.0384 58.4008 422.364
   vertex -44.164 56.2058 422.092
   vertex -45.9263 58.4129 425.342
  endloop
 endfacet
 facet normal -0.80206 0.163049 -0.574556
  outer loop
   vertex -44.2955 54.32 421.824
   vertex -45.6129 52.4381 423.129
   vertex -45.0999 55.9941 423.422
  endloop
 endfacet
 facet normal -0.698368 0.124721 -0.704789
  outer loop
   vertex -44.0384 58.4008 422.364
   vertex -44.1006 59.3352 422.591
   vertex -43.8257 59.6087 422.367
  endloop
 endfacet
 facet normal -0.165541 0.0668767 -0.983933
  outer loop
   vertex -43.6104 60.3329 422.38
   vertex -43.5727 59.5435 422.32
   vertex -43.8257 59.6087 422.367
  endloop
 endfacet
 facet normal -0.156189 0.102087 -0.982437
  outer loop
   vertex -43.5727 59.5435 422.32
   vertex -43.7875 58.4642 422.242
   vertex -43.8257 59.6087 422.367
  endloop
 endfacet
 facet normal -0.452509 0.0818812 -0.887993
  outer loop
   vertex -43.7875 58.4642 422.242
   vertex -44.0384 58.4008 422.364
   vertex -43.8257 59.6087 422.367
  endloop
 endfacet
 facet normal -0.8356 0.155358 -0.526913
  outer loop
   vertex -44.3706 55.5042 422.121
   vertex -44.5041 54.7014 422.096
   vertex -45.0999 55.9941 423.422
  endloop
 endfacet
 facet normal -0.460707 0.135067 -0.877215
  outer loop
   vertex -43.7875 58.4642 422.242
   vertex -44.164 56.2058 422.092
   vertex -44.0384 58.4008 422.364
  endloop
 endfacet
 facet normal -0.81419 0.217511 -0.538315
  outer loop
   vertex -44.164 56.2058 422.092
   vertex -44.3706 55.5042 422.121
   vertex -45.0999 55.9941 423.422
  endloop
 endfacet
 facet normal -0.562213 0.225328 -0.795704
  outer loop
   vertex -44.3044 54.9843 421.927
   vertex -44.3706 55.5042 422.121
   vertex -44.1635 55.41 421.948
  endloop
 endfacet
 facet normal -0.750734 0.144907 -0.644516
  outer loop
   vertex -44.3706 55.5042 422.121
   vertex -44.3044 54.9843 421.927
   vertex -44.5041 54.7014 422.096
  endloop
 endfacet
 facet normal -0.808451 0.15135 -0.56877
  outer loop
   vertex -46.931 51.6544 424.794
   vertex -45.6129 52.4381 423.129
   vertex -47.1273 50.9515 424.886
  endloop
 endfacet
 facet normal -0.810745 0.180421 -0.556903
  outer loop
   vertex -46.5099 54.2412 425.019
   vertex -45.6129 52.4381 423.129
   vertex -46.931 51.6544 424.794
  endloop
 endfacet
 facet normal -0.820172 0.203602 -0.534662
  outer loop
   vertex -47.1874 50.0004 424.616
   vertex -47.1273 50.9515 424.886
   vertex -45.6129 52.4381 423.129
  endloop
 endfacet
 facet normal -0.813572 0.190328 -0.549433
  outer loop
   vertex -46.7222 48.0081 423.237
   vertex -47.1874 50.0004 424.616
   vertex -45.6129 52.4381 423.129
  endloop
 endfacet
 facet normal -0.788641 0.183171 -0.586936
  outer loop
   vertex -45.6129 52.4381 423.129
   vertex -44.605 51.0227 421.333
   vertex -46.7222 48.0081 423.237
  endloop
 endfacet
 facet normal -0.869978 0.116243 -0.479194
  outer loop
   vertex -44.7474 52.2141 421.707
   vertex -44.7826 53.3399 422.044
   vertex -44.6666 52.926 421.733
  endloop
 endfacet
 facet normal -0.779518 0.221718 -0.585826
  outer loop
   vertex -44.4734 53.5709 421.72
   vertex -44.6666 52.926 421.733
   vertex -44.7826 53.3399 422.044
  endloop
 endfacet
 facet normal -0.517133 0.137894 -0.844724
  outer loop
   vertex -44.4234 52.8762 421.576
   vertex -44.6666 52.926 421.733
   vertex -44.4734 53.5709 421.72
  endloop
 endfacet
 facet normal -0.526992 0.0906755 -0.845019
  outer loop
   vertex -44.6666 52.926 421.733
   vertex -44.4234 52.8762 421.576
   vertex -44.7474 52.2141 421.707
  endloop
 endfacet
 facet normal -0.810615 0.316248 -0.492839
  outer loop
   vertex -46.6438 33.6486 415.833
   vertex -46.5233 33.278 415.397
   vertex -46.725 33.1662 415.657
  endloop
 endfacet
 facet normal -0.813909 0.259846 -0.519646
  outer loop
   vertex -46.5233 33.278 415.397
   vertex -46.7266 32.3872 415.27
   vertex -46.725 33.1662 415.657
  endloop
 endfacet
 facet normal -0.789145 0.259478 -0.556705
  outer loop
   vertex -46.5233 33.278 415.397
   vertex -46.4481 32.7064 415.024
   vertex -46.7266 32.3872 415.27
  endloop
 endfacet
 facet normal -0.791896 0.26807 -0.548671
  outer loop
   vertex -46.4481 32.7064 415.024
   vertex -46.4363 32.0966 414.709
   vertex -46.7266 32.3872 415.27
  endloop
 endfacet
 facet normal -0.884485 0.0997874 -0.455772
  outer loop
   vertex -47.4215 24.0616 413.507
   vertex -48.3842 23.5855 415.271
   vertex -48.5088 24.9566 415.813
  endloop
 endfacet
 facet normal -0.879661 0.22375 -0.419682
  outer loop
   vertex -48.3842 23.5855 415.271
   vertex -47.4215 24.0616 413.507
   vertex -48.2989 23.1481 414.859
  endloop
 endfacet
 facet normal -0.872975 0.152995 -0.463149
  outer loop
   vertex -48.2989 23.1481 414.859
   vertex -47.4215 24.0616 413.507
   vertex -48.2405 22.5913 414.565
  endloop
 endfacet
 facet normal -0.9845 -0.13837 -0.107763
  outer loop
   vertex -48.1549 22.0944 414.421
   vertex -48.2405 22.5913 414.565
   vertex -48.1396 22.1226 414.245
  endloop
 endfacet
 facet normal -0.867392 0.139417 -0.477697
  outer loop
   vertex -48.2405 22.5913 414.565
   vertex -47.4215 24.0616 413.507
   vertex -48.1396 22.1226 414.245
  endloop
 endfacet
 facet normal -0.89228 0.271896 -0.360428
  outer loop
   vertex -45.5372 13.779 405.508
   vertex -46.2732 10.2979 404.704
   vertex -46.4481 10.7592 405.485
  endloop
 endfacet
 facet normal -0.829448 0.286162 -0.479715
  outer loop
   vertex -46.2732 10.2979 404.704
   vertex -45.5372 13.779 405.508
   vertex -45.4389 12.2065 404.4
  endloop
 endfacet
 facet normal -0.878538 0.237218 -0.414608
  outer loop
   vertex -45.5372 13.779 405.508
   vertex -44.571 12.876 402.944
   vertex -45.4389 12.2065 404.4
  endloop
 endfacet
 facet normal -0.835392 0.284081 -0.470551
  outer loop
   vertex -45.4052 11.0267 403.603
   vertex -46.0425 9.66942 403.915
   vertex -46.2732 10.2979 404.704
  endloop
 endfacet
 facet normal -0.835521 0.290988 -0.46608
  outer loop
   vertex -45.4389 12.2065 404.4
   vertex -45.4052 11.0267 403.603
   vertex -46.2732 10.2979 404.704
  endloop
 endfacet
 facet normal -0.877886 0.250591 -0.40807
  outer loop
   vertex -44.571 12.876 402.944
   vertex -45.4052 11.0267 403.603
   vertex -45.4389 12.2065 404.4
  endloop
 endfacet
 facet normal -0.880774 0.275841 -0.384902
  outer loop
   vertex -44.4768 13.3791 403.089
   vertex -44.571 12.876 402.944
   vertex -44.5715 13.6042 403.467
  endloop
 endfacet
 facet normal -0.734472 0.311309 -0.603024
  outer loop
   vertex -44.571 12.876 402.944
   vertex -44.4768 13.3791 403.089
   vertex -44.3308 13.0185 402.725
  endloop
 endfacet
 facet normal -0.875191 0.246442 -0.416302
  outer loop
   vertex -44.4414 12.5389 402.472
   vertex -45.4052 11.0267 403.603
   vertex -44.571 12.876 402.944
  endloop
 endfacet
 facet normal -0.733292 0.44177 -0.516838
  outer loop
   vertex -44.4414 12.5389 402.472
   vertex -44.571 12.876 402.944
   vertex -44.3308 13.0185 402.725
  endloop
 endfacet
 facet normal -0.875718 0.197 -0.440805
  outer loop
   vertex -44.1029 11.4791 401.218
   vertex -45.4052 11.0267 403.603
   vertex -44.1975 11.759 401.531
  endloop
 endfacet
 facet normal -0.973981 -0.0538795 -0.22013
  outer loop
   vertex -45.7291 6.9191 401.875
   vertex -45.3141 5.83565 400.304
   vertex -45.6276 6.44486 401.542
  endloop
 endfacet
 facet normal -0.890324 0.234418 -0.390348
  outer loop
   vertex -44.4314 6.10289 398.425
   vertex -45.7291 6.9191 401.875
   vertex -45.4052 11.0267 403.603
  endloop
 endfacet
 facet normal -0.894433 0.221072 -0.388737
  outer loop
   vertex -45.3141 5.83565 400.304
   vertex -45.7291 6.9191 401.875
   vertex -44.4314 6.10289 398.425
  endloop
 endfacet
 facet normal -0.9535 0.0923443 -0.286899
  outer loop
   vertex -45.4652 5.69226 400.76
   vertex -45.6276 6.44486 401.542
   vertex -45.3141 5.83565 400.304
  endloop
 endfacet
 facet normal -0.966218 0.162824 -0.199776
  outer loop
   vertex -44.1022 9.91158 399.937
   vertex -44.4314 6.10289 398.425
   vertex -44.1029 11.4791 401.218
  endloop
 endfacet
 facet normal -0.865425 0.27161 -0.421032
  outer loop
   vertex -44.4314 6.10289 398.425
   vertex -45.4052 11.0267 403.603
   vertex -44.1029 11.4791 401.218
  endloop
 endfacet
 facet normal -0.913895 0.215555 -0.343994
  outer loop
   vertex -44.4314 6.10289 398.425
   vertex -44.1022 9.91158 399.937
   vertex -44.0005 9.34053 399.309
  endloop
 endfacet
 facet normal -0.948833 0.248553 -0.194776
  outer loop
   vertex -43.711 9.09827 398.738
   vertex -43.8029 8.38698 398.278
   vertex -44.4314 6.10289 398.425
  endloop
 endfacet
 facet normal -0.881384 0.215475 -0.420395
  outer loop
   vertex -43.8029 8.38698 398.278
   vertex -43.4818 7.79423 397.301
   vertex -44.4314 6.10289 398.425
  endloop
 endfacet
 facet normal -0.898452 0.192316 -0.394714
  outer loop
   vertex -44.4314 6.10289 398.425
   vertex -44.8757 3.77888 398.304
   vertex -45.3141 5.83565 400.304
  endloop
 endfacet
 facet normal -0.766021 0.415929 -0.490116
  outer loop
   vertex -43.6807 8.7817 398.422
   vertex -43.8029 8.38698 398.278
   vertex -43.711 9.09827 398.738
  endloop
 endfacet
 facet normal -0.788291 0.411056 -0.457855
  outer loop
   vertex -43.6807 8.7817 398.422
   vertex -43.6535 8.38163 398.016
   vertex -43.8029 8.38698 398.278
  endloop
 endfacet
 facet normal -0.815282 0.335865 -0.471709
  outer loop
   vertex -43.6535 8.38163 398.016
   vertex -43.4818 7.79423 397.301
   vertex -43.8029 8.38698 398.278
  endloop
 endfacet
 facet normal -0.895807 0.266659 -0.35556
  outer loop
   vertex -43.4818 7.79423 397.301
   vertex -43.4347 7.29911 396.811
   vertex -44.4314 6.10289 398.425
  endloop
 endfacet
 facet normal -0.878391 0.190747 -0.438229
  outer loop
   vertex -44.7913 3.27158 397.914
   vertex -44.8757 3.77888 398.304
   vertex -44.4314 6.10289 398.425
  endloop
 endfacet
 facet normal -0.520758 0.57497 -0.631047
  outer loop
   vertex -43.2249 7.03475 396.397
   vertex -43.4347 7.29911 396.811
   vertex -43.4818 7.79423 397.301
  endloop
 endfacet
 facet normal -0.988798 -0.134969 -0.0637332
  outer loop
   vertex -44.569 2.8608 397.226
   vertex -44.423 2.09293 396.587
   vertex -44.498 2.32271 397.264
  endloop
 endfacet
 facet normal -0.989047 0.0660582 -0.131991
  outer loop
   vertex -44.423 2.09293 396.587
   vertex -44.4618 2.18136 396.922
   vertex -44.498 2.32271 397.264
  endloop
 endfacet
 facet normal -0.547602 0.551239 -0.629498
  outer loop
   vertex -43.2249 7.03475 396.397
   vertex -43.3229 6.91227 396.375
   vertex -43.4347 7.29911 396.811
  endloop
 endfacet
 facet normal -0.892804 0.197991 -0.4046
  outer loop
   vertex -43.4347 7.29911 396.811
   vertex -43.3229 6.91227 396.375
   vertex -44.4314 6.10289 398.425
  endloop
 endfacet
 facet normal -0.889248 0.188274 -0.416882
  outer loop
   vertex -44.4314 6.10289 398.425
   vertex -42.8241 5.62581 394.781
   vertex -44.7913 3.27158 397.914
  endloop
 endfacet
 facet normal -0.892765 0.232253 -0.386043
  outer loop
   vertex -42.8241 5.62581 394.781
   vertex -43.1146 4.44599 394.743
   vertex -44.7913 3.27158 397.914
  endloop
 endfacet
 facet normal -0.892551 0.204669 -0.401826
  outer loop
   vertex -43.3229 6.91227 396.375
   vertex -43.2256 6.27836 395.836
   vertex -44.4314 6.10289 398.425
  endloop
 endfacet
 facet normal -0.895245 0.190299 -0.402893
  outer loop
   vertex -43.1146 4.44599 394.743
   vertex -44.569 2.8608 397.226
   vertex -44.7913 3.27158 397.914
  endloop
 endfacet
 facet normal -0.915973 0.178087 -0.359553
  outer loop
   vertex -44.423 2.09293 396.587
   vertex -43.943 2.16928 395.402
   vertex -44.263 1.79129 396.03
  endloop
 endfacet
 facet normal -0.491697 0.519026 -0.699175
  outer loop
   vertex -43.2249 7.03475 396.397
   vertex -43.2256 6.27836 395.836
   vertex -43.3229 6.91227 396.375
  endloop
 endfacet
 facet normal -0.92201 0.128595 -0.365187
  outer loop
   vertex -44.569 2.8608 397.226
   vertex -43.943 2.16928 395.402
   vertex -44.423 2.09293 396.587
  endloop
 endfacet
 facet normal -0.903673 0.112143 -0.413277
  outer loop
   vertex -43.2256 6.27836 395.836
   vertex -42.8241 5.62581 394.781
   vertex -44.4314 6.10289 398.425
  endloop
 endfacet
 facet normal -0.896294 0.213642 -0.388605
  outer loop
   vertex -43.1146 4.44599 394.743
   vertex -43.943 2.16928 395.402
   vertex -44.569 2.8608 397.226
  endloop
 endfacet
 facet normal -0.700397 0.425615 -0.572971
  outer loop
   vertex -43.2249 7.03475 396.397
   vertex -42.9091 6.08706 395.307
   vertex -43.2256 6.27836 395.836
  endloop
 endfacet
 facet normal -0.627823 0.532112 -0.568062
  outer loop
   vertex -42.8241 5.62581 394.781
   vertex -43.2256 6.27836 395.836
   vertex -42.9091 6.08706 395.307
  endloop
 endfacet
 facet normal -0.970455 -0.0641833 -0.232589
  outer loop
   vertex -44.0355 1.16356 395.254
   vertex -44.2922 1.67826 396.183
   vertex -44.263 1.79129 396.03
  endloop
 endfacet
 facet normal -0.913779 0.140153 -0.381268
  outer loop
   vertex -44.263 1.79129 396.03
   vertex -43.943 2.16928 395.402
   vertex -44.0355 1.16356 395.254
  endloop
 endfacet
 facet normal -0.867058 0.22776 -0.443097
  outer loop
   vertex -42.6572 4.71844 393.988
   vertex -43.1146 4.44599 394.743
   vertex -42.8241 5.62581 394.781
  endloop
 endfacet
 facet normal -0.8744 0.18878 -0.446975
  outer loop
   vertex -43.943 2.16928 395.402
   vertex -43.1146 4.44599 394.743
   vertex -42.3382 3.95786 393.018
  endloop
 endfacet
 facet normal -0.867961 0.209955 -0.450069
  outer loop
   vertex -43.1146 4.44599 394.743
   vertex -42.6572 4.71844 393.988
   vertex -42.3382 3.95786 393.018
  endloop
 endfacet
 facet normal -0.871451 0.227598 -0.43448
  outer loop
   vertex -43.5619 1.24225 394.152
   vertex -43.943 2.16928 395.402
   vertex -42.0678 3.0744 392.115
  endloop
 endfacet
 facet normal -0.874433 0.189048 -0.446797
  outer loop
   vertex -42.3382 3.95786 393.018
   vertex -42.0678 3.0744 392.115
   vertex -43.943 2.16928 395.402
  endloop
 endfacet
 facet normal -0.816939 0.291795 -0.49746
  outer loop
   vertex -42.3891 4.62001 393.49
   vertex -42.3382 3.95786 393.018
   vertex -42.6572 4.71844 393.988
  endloop
 endfacet
 facet normal -0.587254 0.439392 -0.679756
  outer loop
   vertex -42.1727 4.35539 393.132
   vertex -42.3382 3.95786 393.018
   vertex -42.3891 4.62001 393.49
  endloop
 endfacet
 facet normal -0.912435 0.401925 -0.0769289
  outer loop
   vertex -42.2425 4.15846 392.931
   vertex -42.3382 3.95786 393.018
   vertex -42.1727 4.35539 393.132
  endloop
 endfacet
 facet normal -0.853823 0.220612 -0.471505
  outer loop
   vertex -42.3382 3.95786 393.018
   vertex -42.0675 3.70392 392.409
   vertex -42.0678 3.0744 392.115
  endloop
 endfacet
 facet normal -0.919618 0.0990151 -0.380131
  outer loop
   vertex -43.5619 1.24225 394.152
   vertex -42.7007 -1.20935 391.43
   vertex -43.1523 -1.34957 392.486
  endloop
 endfacet
 facet normal -0.920024 0.0888688 -0.381652
  outer loop
   vertex -42.7007 -1.20935 391.43
   vertex -42.8374 -1.99756 391.576
   vertex -43.1523 -1.34957 392.486
  endloop
 endfacet
 facet normal -0.867309 0.200961 -0.4554
  outer loop
   vertex -42.0678 3.0744 392.115
   vertex -42.7007 -1.20935 391.43
   vertex -43.5619 1.24225 394.152
  endloop
 endfacet
 facet normal -0.856368 0.202481 -0.475012
  outer loop
   vertex -41.2494 2.19102 390.263
   vertex -42.7007 -1.20935 391.43
   vertex -42.0678 3.0744 392.115
  endloop
 endfacet
 facet normal -0.913706 0.0848528 -0.397418
  outer loop
   vertex -42.5818 -2.57527 390.865
   vertex -42.8374 -1.99756 391.576
   vertex -42.7007 -1.20935 391.43
  endloop
 endfacet
 facet normal -0.902089 0.075322 -0.424926
  outer loop
   vertex -41.9599 -0.827651 389.925
   vertex -42.4663 -2.84186 390.643
   vertex -42.7007 -1.20935 391.43
  endloop
 endfacet
 facet normal -0.91115 0.287605 -0.295107
  outer loop
   vertex -42.7007 -1.20935 391.43
   vertex -41.2494 2.19102 390.263
   vertex -41.2758 1.66925 389.836
  endloop
 endfacet
 facet normal -0.894804 0.231554 -0.381717
  outer loop
   vertex -41.2758 1.66925 389.836
   vertex -41.9599 -0.827651 389.925
   vertex -42.7007 -1.20935 391.43
  endloop
 endfacet
 facet normal -0.799262 0.31288 -0.513115
  outer loop
   vertex -41.1322 1.71137 389.638
   vertex -41.0957 1.36999 389.373
   vertex -41.2758 1.66925 389.836
  endloop
 endfacet
 facet normal -0.643192 0.504334 -0.576152
  outer loop
   vertex -41.0957 1.36999 389.373
   vertex -40.8302 0.751277 388.535
   vertex -41.2758 1.66925 389.836
  endloop
 endfacet
 facet normal -0.626914 0.625881 -0.463953
  outer loop
   vertex -40.9279 1.7197 389.618
   vertex -40.9071 1.39213 389.148
   vertex -41.0957 1.36999 389.373
  endloop
 endfacet
 facet normal -0.864385 0.220722 -0.451797
  outer loop
   vertex -41.2758 1.66925 389.836
   vertex -40.8302 0.751277 388.535
   vertex -41.9599 -0.827651 389.925
  endloop
 endfacet
 facet normal -0.895948 0.170828 -0.409993
  outer loop
   vertex -41.0957 1.36999 389.373
   vertex -40.9248 1.10716 388.89
   vertex -40.8302 0.751277 388.535
  endloop
 endfacet
 facet normal -0.68164 0.513888 -0.520852
  outer loop
   vertex -40.9071 1.39213 389.148
   vertex -40.9248 1.10716 388.89
   vertex -41.0957 1.36999 389.373
  endloop
 endfacet
 facet normal -0.864809 0.22252 -0.4501
  outer loop
   vertex -41.9599 -0.827651 389.925
   vertex -40.8302 0.751277 388.535
   vertex -40.619 0.249242 387.881
  endloop
 endfacet
 facet normal -0.815085 0.311967 -0.488173
  outer loop
   vertex -40.3966 0.232522 387.499
   vertex -40.3655 -0.0445792 387.27
   vertex -40.619 0.249242 387.881
  endloop
 endfacet
 facet normal -0.781112 0.370797 -0.502368
  outer loop
   vertex -40.3655 -0.0445792 387.27
   vertex -40.2365 -0.328314 386.86
   vertex -40.619 0.249242 387.881
  endloop
 endfacet
 facet normal -0.864812 0.222751 -0.44998
  outer loop
   vertex -40.619 0.249242 387.881
   vertex -40.2365 -0.328314 386.86
   vertex -41.9599 -0.827651 389.925
  endloop
 endfacet
 facet normal -0.868856 0.188256 -0.457874
  outer loop
   vertex -41.9599 -0.827651 389.925
   vertex -40.2365 -0.328314 386.86
   vertex -41.8209 -2.84692 388.831
  endloop
 endfacet
 facet normal -0.891005 0.140318 -0.431765
  outer loop
   vertex -41.8209 -2.84692 388.831
   vertex -40.7189 -4.55732 386.001
   vertex -41.474 -4.69656 387.514
  endloop
 endfacet
 facet normal -0.746144 0.414101 -0.521334
  outer loop
   vertex -40.2346 -0.025252 387.098
   vertex -40.2365 -0.328314 386.86
   vertex -40.3655 -0.0445792 387.27
  endloop
 endfacet
 facet normal -0.894427 0.0896448 -0.438136
  outer loop
   vertex -41.3605 -5.11354 387.197
   vertex -41.474 -4.69656 387.514
   vertex -40.7189 -4.55732 386.001
  endloop
 endfacet
 facet normal -0.876427 0.21361 -0.431562
  outer loop
   vertex -40.2365 -0.328314 386.86
   vertex -40.1268 -1.29649 386.158
   vertex -41.8209 -2.84692 388.831
  endloop
 endfacet
 facet normal -0.874748 0.180486 -0.449711
  outer loop
   vertex -40.1268 -1.29649 386.158
   vertex -40.7189 -4.55732 386.001
   vertex -41.8209 -2.84692 388.831
  endloop
 endfacet
 facet normal -0.84951 0.243203 -0.468171
  outer loop
   vertex -39.8082 -0.922832 385.774
   vertex -40.1268 -1.29649 386.158
   vertex -40.2365 -0.328314 386.86
  endloop
 endfacet
 facet normal -0.845115 0.200673 -0.49549
  outer loop
   vertex -40.1523 -3.87735 385.31
   vertex -40.7189 -4.55732 386.001
   vertex -40.4827 -3.40955 386.063
  endloop
 endfacet
 facet normal -0.860668 0.166593 -0.481142
  outer loop
   vertex -40.1268 -1.29649 386.158
   vertex -40.1523 -3.87735 385.31
   vertex -40.4827 -3.40955 386.063
  endloop
 endfacet
 facet normal -0.847084 0.229781 -0.479218
  outer loop
   vertex -39.8082 -0.922832 385.774
   vertex -39.7359 -1.62397 385.31
   vertex -40.1268 -1.29649 386.158
  endloop
 endfacet
 facet normal -0.871205 0.16099 -0.463772
  outer loop
   vertex -39.7359 -1.62397 385.31
   vertex -40.1523 -3.87735 385.31
   vertex -40.1268 -1.29649 386.158
  endloop
 endfacet
 facet normal -0.855316 0.158053 -0.493411
  outer loop
   vertex -39.7359 -1.62397 385.31
   vertex -39.2844 -1.76551 384.482
   vertex -40.1523 -3.87735 385.31
  endloop
 endfacet
 facet normal -0.920121 0.265128 -0.288243
  outer loop
   vertex -39.2844 -1.76551 384.482
   vertex -39.3478 -2.2508 384.238
   vertex -40.1523 -3.87735 385.31
  endloop
 endfacet
 facet normal -0.754128 0.441028 -0.486607
  outer loop
   vertex -39.4421 -1.33123 385.12
   vertex -39.2844 -1.76551 384.482
   vertex -39.7359 -1.62397 385.31
  endloop
 endfacet
 facet normal -0.886088 0.148991 -0.438919
  outer loop
   vertex -40.1523 -3.87735 385.31
   vertex -39.3478 -2.2508 384.238
   vertex -39.5169 -4.62344 383.774
  endloop
 endfacet
 facet normal -0.865826 0.203586 -0.457055
  outer loop
   vertex -40.7132 -6.27628 385.304
   vertex -40.1523 -3.87735 385.31
   vertex -39.5169 -4.62344 383.774
  endloop
 endfacet
 facet normal -0.875163 0.24996 -0.414258
  outer loop
   vertex -40.7132 -6.27628 385.304
   vertex -39.5169 -4.62344 383.774
   vertex -40.371 -6.4454 384.479
  endloop
 endfacet
 facet normal -0.712022 0.387438 -0.585591
  outer loop
   vertex -39.048 -2.06109 383.999
   vertex -39.3478 -2.2508 384.238
   vertex -39.2844 -1.76551 384.482
  endloop
 endfacet
 facet normal -0.862036 0.155765 -0.482319
  outer loop
   vertex -39.0627 -2.27696 383.72
   vertex -39.5169 -4.62344 383.774
   vertex -39.3478 -2.2508 384.238
  endloop
 endfacet
 facet normal -0.699057 0.582896 -0.414188
  outer loop
   vertex -39.048 -2.06109 383.999
   vertex -39.0627 -2.27696 383.72
   vertex -39.3478 -2.2508 384.238
  endloop
 endfacet
 facet normal -0.946451 0.176989 -0.27001
  outer loop
   vertex -39.0575 -2.63972 383.464
   vertex -39.5169 -4.62344 383.774
   vertex -39.0627 -2.27696 383.72
  endloop
 endfacet
 facet normal -0.762762 0.365543 -0.533454
  outer loop
   vertex -38.8645 -2.5055 383.28
   vertex -39.0575 -2.63972 383.464
   vertex -39.0627 -2.27696 383.72
  endloop
 endfacet
 facet normal -0.889492 0.137915 -0.435642
  outer loop
   vertex -39.5169 -4.62344 383.774
   vertex -39.0575 -2.63972 383.464
   vertex -38.8195 -2.80413 382.926
  endloop
 endfacet
 facet normal -0.760363 0.445592 -0.472543
  outer loop
   vertex -38.8645 -2.5055 383.28
   vertex -38.8195 -2.80413 382.926
   vertex -39.0575 -2.63972 383.464
  endloop
 endfacet
 facet normal -0.895847 0.173651 -0.409028
  outer loop
   vertex -38.6464 -2.99213 382.56
   vertex -38.8672 -5.98967 381.771
   vertex -39.5169 -4.62344 383.774
  endloop
 endfacet
 facet normal -0.873915 0.11485 -0.472315
  outer loop
   vertex -38.6464 -2.99213 382.56
   vertex -39.5169 -4.62344 383.774
   vertex -38.8195 -2.80413 382.926
  endloop
 endfacet
 facet normal -0.872182 0.223322 -0.435232
  outer loop
   vertex -39.5169 -4.62344 383.774
   vertex -38.8672 -5.98967 381.771
   vertex -40.2698 -6.88372 384.123
  endloop
 endfacet
 facet normal -0.870707 0.24662 -0.425496
  outer loop
   vertex -39.6598 -7.26972 382.651
   vertex -40.2698 -6.88372 384.123
   vertex -38.8672 -5.98967 381.771
  endloop
 endfacet
 facet normal -0.862664 0.269314 -0.428114
  outer loop
   vertex -40.2698 -6.88372 384.123
   vertex -39.6598 -7.26972 382.651
   vertex -39.9781 -7.35936 383.236
  endloop
 endfacet
 facet normal -0.868079 -0.0960439 -0.487046
  outer loop
   vertex -39.8216 -7.62787 383.01
   vertex -39.9781 -7.35936 383.236
   vertex -39.6598 -7.26972 382.651
  endloop
 endfacet
 facet normal -0.945584 0.126821 -0.299644
  outer loop
   vertex -39.6598 -7.26972 382.651
   vertex -39.7293 -7.75482 382.665
   vertex -39.8216 -7.62787 383.01
  endloop
 endfacet
 facet normal -0.949463 0.12775 -0.286704
  outer loop
   vertex -39.6598 -7.26972 382.651
   vertex -39.629 -7.8196 382.304
   vertex -39.7293 -7.75482 382.665
  endloop
 endfacet
 facet normal -0.864279 0.269646 -0.424632
  outer loop
   vertex -38.4506 -3.4905 381.845
   vertex -38.5019 -3.73211 381.796
   vertex -38.6464 -2.99213 382.56
  endloop
 endfacet
 facet normal -0.932636 0.154521 -0.326056
  outer loop
   vertex -38.6464 -2.99213 382.56
   vertex -38.5019 -3.73211 381.796
   vertex -38.8672 -5.98967 381.771
  endloop
 endfacet
 facet normal -0.817193 0.297107 -0.493886
  outer loop
   vertex -38.0955 -4.05717 380.928
   vertex -38.5019 -3.73211 381.796
   vertex -38.2304 -3.83812 381.283
  endloop
 endfacet
 facet normal -0.873673 0.146507 -0.463931
  outer loop
   vertex -38.0955 -4.05717 380.928
   vertex -38.8672 -5.98967 381.771
   vertex -38.5019 -3.73211 381.796
  endloop
 endfacet
 facet normal -0.948248 0.126556 -0.291221
  outer loop
   vertex -43.5619 1.24225 394.152
   vertex -43.6482 0.0180356 393.901
   vertex -43.8959 0.47473 394.906
  endloop
 endfacet
 facet normal -0.900705 0.147292 -0.4087
  outer loop
   vertex -43.5619 1.24225 394.152
   vertex -43.4433 -0.205172 393.369
   vertex -43.6482 0.0180356 393.901
  endloop
 endfacet
 facet normal -0.980511 -0.13532 -0.142433
  outer loop
   vertex -43.6482 0.0180356 393.901
   vertex -43.5386 -0.412975 393.556
   vertex -43.6425 -0.192734 394.062
  endloop
 endfacet
 facet normal -0.953631 -0.293145 -0.0682206
  outer loop
   vertex -43.5386 -0.412975 393.556
   vertex -43.465 -0.632392 393.47
   vertex -43.6425 -0.192734 394.062
  endloop
 endfacet
 facet normal -0.919644 0.074775 -0.385569
  outer loop
   vertex -43.4433 -0.205172 393.369
   vertex -43.5386 -0.412975 393.556
   vertex -43.6482 0.0180356 393.901
  endloop
 endfacet
 facet normal -0.849189 -0.0802752 -0.521953
  outer loop
   vertex -43.465 -0.632392 393.47
   vertex -43.5386 -0.412975 393.556
   vertex -43.4433 -0.205172 393.369
  endloop
 endfacet
endsolid
