solid ascii
 facet normal 0.130424 0.991225 -0.0214991
  outer loop
   vertex 56.9474 67.5804 408.98
   vertex 56.7352 67.5888 408.08
   vertex 56.1256 67.6997 409.495
  endloop
 endfacet
 facet normal -0.0738906 0.991234 -0.109521
  outer loop
   vertex 56.7352 67.5888 408.08
   vertex 54.818 67.5651 409.159
   vertex 56.1256 67.6997 409.495
  endloop
 endfacet
 facet normal -0.0413849 0.997809 -0.0516197
  outer loop
   vertex 56.7352 67.5888 408.08
   vertex 55.5403 67.4902 407.132
   vertex 54.818 67.5651 409.159
  endloop
 endfacet
 facet normal -0.140117 0.98636 -0.0863784
  outer loop
   vertex 55.5403 67.4902 407.132
   vertex 53.0086 67.1845 407.748
   vertex 54.818 67.5651 409.159
  endloop
 endfacet
 facet normal -0.149476 0.980476 -0.127765
  outer loop
   vertex 53.0086 67.1845 407.748
   vertex 55.5403 67.4902 407.132
   vertex 54.6288 67.1172 405.336
  endloop
 endfacet
 facet normal -0.150817 0.980362 -0.12706
  outer loop
   vertex 55.947 67.4369 406.238
   vertex 54.6288 67.1172 405.336
   vertex 55.5403 67.4902 407.132
  endloop
 endfacet
 facet normal -0.121275 0.99261 -0.00423148
  outer loop
   vertex 53.0086 67.1845 407.748
   vertex 48.2719 66.5958 405.407
   vertex 51.1523 66.9561 407.372
  endloop
 endfacet
 facet normal -0.0984393 0.993848 -0.0507483
  outer loop
   vertex 48.2719 66.5958 405.407
   vertex 53.0086 67.1845 407.748
   vertex 51.3143 66.8371 404.231
  endloop
 endfacet
 facet normal -0.110739 0.992523 -0.0513353
  outer loop
   vertex 53.0086 67.1845 407.748
   vertex 53.0498 67.054 405.136
   vertex 52.5408 66.9729 404.666
  endloop
 endfacet
 facet normal -0.0907753 0.994379 -0.0544929
  outer loop
   vertex 52.5408 66.9729 404.666
   vertex 51.3143 66.8371 404.231
   vertex 53.0086 67.1845 407.748
  endloop
 endfacet
 facet normal -0.0928679 0.995024 -0.0360938
  outer loop
   vertex 48.2719 66.5958 405.407
   vertex 51.3143 66.8371 404.231
   vertex 49.9702 66.6712 403.116
  endloop
 endfacet
 facet normal -0.00340892 0.957252 -0.289236
  outer loop
   vertex 52.3877 66.8651 404.311
   vertex 51.3143 66.8371 404.231
   vertex 52.5408 66.9729 404.666
  endloop
 endfacet
 facet normal -0.0783584 0.996853 -0.0120082
  outer loop
   vertex 48.2719 66.5958 405.407
   vertex 46.5075 66.4292 403.09
   vertex 47.1295 66.4987 404.801
  endloop
 endfacet
 facet normal 0.0247258 0.998466 -0.049548
  outer loop
   vertex 45.4535 66.5348 404.692
   vertex 47.1295 66.4987 404.801
   vertex 46.5075 66.4292 403.09
  endloop
 endfacet
 facet normal -0.0777839 0.99666 -0.0248583
  outer loop
   vertex 48.4622 66.5473 402.867
   vertex 48.2719 66.5958 405.407
   vertex 49.9702 66.6712 403.116
  endloop
 endfacet
 facet normal -0.0106835 0.997292 -0.0727675
  outer loop
   vertex 44.5829 66.4455 403.596
   vertex 45.4535 66.5348 404.692
   vertex 46.5075 66.4292 403.09
  endloop
 endfacet
 facet normal -0.0629947 0.997731 -0.0237707
  outer loop
   vertex 46.5075 66.4292 403.09
   vertex 48.2719 66.5958 405.407
   vertex 48.4622 66.5473 402.867
  endloop
 endfacet
 facet normal -0.266206 0.899674 0.346008
  outer loop
   vertex 42.8595 66.5486 403.553
   vertex 42.4616 66.5374 403.276
   vertex 42.4725 66.4514 403.508
  endloop
 endfacet
 facet normal -0.1591 0.923248 0.349715
  outer loop
   vertex 42.4616 66.5374 403.276
   vertex 41.7322 66.5136 403.007
   vertex 42.4725 66.4514 403.508
  endloop
 endfacet
 facet normal 0.00204149 0.999699 -0.0244462
  outer loop
   vertex 44.5829 66.4455 403.596
   vertex 46.5075 66.4292 403.09
   vertex 45.7089 66.3839 401.171
  endloop
 endfacet
 facet normal -0.0678204 0.995426 -0.0672927
  outer loop
   vertex 48.4622 66.5473 402.867
   vertex 47.6247 66.4509 402.285
   vertex 46.5075 66.4292 403.09
  endloop
 endfacet
 facet normal 0.0596561 0.998216 0.00234344
  outer loop
   vertex 45.7089 66.3839 401.171
   vertex 42.8595 66.5486 403.553
   vertex 44.5829 66.4455 403.596
  endloop
 endfacet
 facet normal 0.00719896 0.99962 -0.0265906
  outer loop
   vertex 45.7089 66.3839 401.171
   vertex 46.5075 66.4292 403.09
   vertex 46.2383 66.3956 401.754
  endloop
 endfacet
 facet normal 0.0489175 0.998191 -0.0349608
  outer loop
   vertex 46.5075 66.4292 403.09
   vertex 47.2354 66.3495 401.833
   vertex 46.2383 66.3956 401.754
  endloop
 endfacet
 facet normal 0.0108874 0.998371 -0.0560049
  outer loop
   vertex 45.7089 66.3839 401.171
   vertex 42.4616 66.5374 403.276
   vertex 42.8595 66.5486 403.553
  endloop
 endfacet
 facet normal 0.0215059 0.996585 0.0797252
  outer loop
   vertex 40.5084 66.558 402.316
   vertex 39.1856 66.8395 399.154
   vertex 39.8614 66.5802 402.213
  endloop
 endfacet
 facet normal -0.0337928 0.995202 0.0918245
  outer loop
   vertex 39.4151 66.5859 401.987
   vertex 39.8614 66.5802 402.213
   vertex 39.1856 66.8395 399.154
  endloop
 endfacet
 facet normal -0.0182269 0.995193 0.0962231
  outer loop
   vertex 41.7322 66.5136 403.007
   vertex 39.1856 66.8395 399.154
   vertex 40.5084 66.558 402.316
  endloop
 endfacet
 facet normal 0.201461 0.958407 -0.202163
  outer loop
   vertex 46.131 66.3169 401.274
   vertex 45.7089 66.3839 401.171
   vertex 46.2383 66.3956 401.754
  endloop
 endfacet
 facet normal 0.0890489 0.993911 0.0648962
  outer loop
   vertex 42.4616 66.5374 403.276
   vertex 45.7089 66.3839 401.171
   vertex 44.28 66.5289 400.911
  endloop
 endfacet
 facet normal 0.0437948 0.998587 0.0300843
  outer loop
   vertex 44.28 66.5289 400.911
   vertex 42.6182 66.621 400.273
   vertex 42.4616 66.5374 403.276
  endloop
 endfacet
 facet normal 0.0434692 0.997504 0.0556412
  outer loop
   vertex 39.1856 66.8395 399.154
   vertex 41.7322 66.5136 403.007
   vertex 41.6664 66.7088 399.559
  endloop
 endfacet
 facet normal -0.0420315 0.998788 0.0256143
  outer loop
   vertex 42.6182 66.621 400.273
   vertex 41.7322 66.5136 403.007
   vertex 42.4616 66.5374 403.276
  endloop
 endfacet
 facet normal 0.0503573 0.997188 0.0554918
  outer loop
   vertex 42.6182 66.621 400.273
   vertex 41.6664 66.7088 399.559
   vertex 41.7322 66.5136 403.007
  endloop
 endfacet
 facet normal 0.00386299 0.995239 0.0973892
  outer loop
   vertex 39.1856 66.8395 399.154
   vertex 37.812 66.8919 398.673
   vertex 38.0859 66.6369 401.268
  endloop
 endfacet
 facet normal -0.0448782 0.994216 0.0975714
  outer loop
   vertex 38.0859 66.6369 401.268
   vertex 36.564 66.7583 399.331
   vertex 36.7193 66.613 400.883
  endloop
 endfacet
 facet normal -0.0519792 0.993313 0.103094
  outer loop
   vertex 37.812 66.8919 398.673
   vertex 36.564 66.7583 399.331
   vertex 38.0859 66.6369 401.268
  endloop
 endfacet
 facet normal 0.0666987 0.993901 -0.0878129
  outer loop
   vertex 40.7584 66.7078 398.858
   vertex 39.1856 66.8395 399.154
   vertex 41.6664 66.7088 399.559
  endloop
 endfacet
 facet normal 0.0105962 0.975839 0.218232
  outer loop
   vertex 37.812 66.8919 398.673
   vertex 33.7376 66.7702 399.415
   vertex 36.564 66.7583 399.331
  endloop
 endfacet
 facet normal 0.0956979 0.99318 0.0666007
  outer loop
   vertex 39.1856 66.8395 399.154
   vertex 40.7584 66.7078 398.858
   vertex 39.2043 66.8841 398.462
  endloop
 endfacet
 facet normal 0.0153971 0.997784 0.0647275
  outer loop
   vertex 37.812 66.8919 398.673
   vertex 39.1856 66.8395 399.154
   vertex 39.2043 66.8841 398.462
  endloop
 endfacet
 facet normal 0.0643137 0.993148 0.097578
  outer loop
   vertex 33.7376 66.7702 399.415
   vertex 33.8358 67.0978 396.016
   vertex 32.8999 66.8611 399.042
  endloop
 endfacet
 facet normal 0.159037 0.96424 -0.212011
  outer loop
   vertex 38.2805 66.9162 397.915
   vertex 39.2043 66.8841 398.462
   vertex 38.9705 66.8268 398.026
  endloop
 endfacet
 facet normal 0.0115298 0.999167 0.0391573
  outer loop
   vertex 39.2043 66.8841 398.462
   vertex 38.2805 66.9162 397.915
   vertex 37.812 66.8919 398.673
  endloop
 endfacet
 facet normal -0.0150484 0.99596 0.088526
  outer loop
   vertex 31.041 67.0436 396.474
   vertex 29.9994 66.9028 397.881
   vertex 30.6241 66.895 398.075
  endloop
 endfacet
 facet normal 0.00979926 0.996667 0.0809927
  outer loop
   vertex 32.7121 67.165 395.325
   vertex 32.8999 66.8611 399.042
   vertex 33.8358 67.0978 396.016
  endloop
 endfacet
 facet normal -0.0202071 0.996387 0.082486
  outer loop
   vertex 32.7121 67.165 395.325
   vertex 30.6241 66.895 398.075
   vertex 32.8999 66.8611 399.042
  endloop
 endfacet
 facet normal 0.0202763 0.993227 0.114403
  outer loop
   vertex 29.5647 66.9513 397.537
   vertex 29.9994 66.9028 397.881
   vertex 31.041 67.0436 396.474
  endloop
 endfacet
 facet normal -0.0139719 0.99614 0.0866567
  outer loop
   vertex 37.812 66.8919 398.673
   vertex 35.981 67.0362 396.719
   vertex 33.7376 66.7702 399.415
  endloop
 endfacet
 facet normal 0.0160177 0.99365 0.111366
  outer loop
   vertex 35.981 67.0362 396.719
   vertex 34.7648 67.0669 396.62
   vertex 33.7376 66.7702 399.415
  endloop
 endfacet
 facet normal -0.0287178 0.995056 0.0950742
  outer loop
   vertex 34.7648 67.0669 396.62
   vertex 33.8358 67.0978 396.016
   vertex 33.7376 66.7702 399.415
  endloop
 endfacet
 facet normal 0.0335803 0.990594 0.132651
  outer loop
   vertex 31.041 67.0436 396.474
   vertex 28.9684 67.0066 397.275
   vertex 29.5647 66.9513 397.537
  endloop
 endfacet
 facet normal -0.0107079 0.995916 0.0896521
  outer loop
   vertex 32.7121 67.165 395.325
   vertex 31.041 67.0436 396.474
   vertex 30.6241 66.895 398.075
  endloop
 endfacet
 facet normal 0.0366035 0.998815 0.0320883
  outer loop
   vertex 28.1447 67.0524 396.789
   vertex 28.9684 67.0066 397.275
   vertex 25.5274 67.2507 393.602
  endloop
 endfacet
 facet normal 0.00573855 0.998124 0.0609578
  outer loop
   vertex 31.041 67.0436 396.474
   vertex 25.5274 67.2507 393.602
   vertex 28.9684 67.0066 397.275
  endloop
 endfacet
 facet normal 0.0110906 0.998272 0.057699
  outer loop
   vertex 26.2175 67.1294 395.568
   vertex 25.5274 67.2507 393.602
   vertex 25.1127 67.1422 395.559
  endloop
 endfacet
 facet normal -0.0342074 0.997614 0.0599635
  outer loop
   vertex 31.6033 67.1721 394.657
   vertex 30.3347 67.1649 394.053
   vertex 31.041 67.0436 396.474
  endloop
 endfacet
 facet normal -0.00432146 0.996772 0.0801732
  outer loop
   vertex 31.041 67.0436 396.474
   vertex 29.5892 67.2182 394.225
   vertex 25.5274 67.2507 393.602
  endloop
 endfacet
 facet normal -0.178386 0.92689 -0.330233
  outer loop
   vertex -43.0245 67.6206 394.419
   vertex -42.6743 67.626 394.245
   vertex -43.0058 67.5141 394.11
  endloop
 endfacet
 facet normal 0.164613 0.975404 -0.14659
  outer loop
   vertex -43.6175 67.5709 394.2
   vertex -44.0603 67.6584 394.285
   vertex -43.8191 67.6449 394.466
  endloop
 endfacet
 facet normal 0.0775526 0.996614 0.0273085
  outer loop
   vertex 30.3347 67.1649 394.053
   vertex 29.5892 67.2182 394.225
   vertex 31.041 67.0436 396.474
  endloop
 endfacet
 facet normal -0.0179834 0.999484 0.026624
  outer loop
   vertex 25.1127 67.1422 395.559
   vertex 23.1253 67.1672 393.278
   vertex 22.4199 67.1263 394.337
  endloop
 endfacet
 facet normal 0.00374619 0.999609 0.0277236
  outer loop
   vertex 29.5892 67.2182 394.225
   vertex 29.0528 67.2356 393.67
   vertex 25.5274 67.2507 393.602
  endloop
 endfacet
 facet normal -0.187775 0.931637 -0.311116
  outer loop
   vertex -42.2245 67.5921 393.872
   vertex -43.0058 67.5141 394.11
   vertex -42.6743 67.626 394.245
  endloop
 endfacet
 facet normal 0.206292 0.975987 0.0699515
  outer loop
   vertex -43.6175 67.5709 394.2
   vertex -44.328 67.7367 393.982
   vertex -44.0603 67.6584 394.285
  endloop
 endfacet
 facet normal -0.0409877 0.99807 0.0466521
  outer loop
   vertex 25.5274 67.2507 393.602
   vertex 23.1253 67.1672 393.278
   vertex 25.1127 67.1422 395.559
  endloop
 endfacet
 facet normal 0.0982951 0.994332 0.0405261
  outer loop
   vertex -43.6175 67.5709 394.2
   vertex -43.0058 67.5141 394.11
   vertex -43.2743 67.5684 393.429
  endloop
 endfacet
 facet normal 0.256176 0.961019 -0.103999
  outer loop
   vertex -43.6175 67.5709 394.2
   vertex -44.1893 67.6493 393.516
   vertex -44.328 67.7367 393.982
  endloop
 endfacet
 facet normal -0.134941 0.956722 -0.257824
  outer loop
   vertex -41.1549 67.6799 393.638
   vertex -42.2245 67.5921 393.872
   vertex -41.602 67.6993 393.944
  endloop
 endfacet
 facet normal -0.0669226 0.992165 0.105495
  outer loop
   vertex -42.2245 67.5921 393.872
   vertex -43.2743 67.5684 393.429
   vertex -43.0058 67.5141 394.11
  endloop
 endfacet
 facet normal 0.0915515 0.995093 0.0375219
  outer loop
   vertex -44.1893 67.6493 393.516
   vertex -43.6175 67.5709 394.2
   vertex -43.2743 67.5684 393.429
  endloop
 endfacet
 facet normal -0.0744074 0.996654 0.0338414
  outer loop
   vertex -41.1549 67.6799 393.638
   vertex -42.2305 67.6214 392.996
   vertex -42.2245 67.5921 393.872
  endloop
 endfacet
 facet normal -0.00186968 0.9993 0.0373504
  outer loop
   vertex 22.1939 67.1831 392.806
   vertex 22.4199 67.1263 394.337
   vertex 23.1253 67.1672 393.278
  endloop
 endfacet
 facet normal 0.000892596 0.927144 -0.374705
  outer loop
   vertex -40.1915 67.982 393.944
   vertex -39.3982 67.8119 393.525
   vertex -40.1717 67.7205 393.297
  endloop
 endfacet
 facet normal -0.0246142 0.998548 0.047907
  outer loop
   vertex -40.1717 67.7205 393.297
   vertex -41.4111 67.7622 391.791
   vertex -41.1549 67.6799 393.638
  endloop
 endfacet
 facet normal -0.0878131 0.994534 0.0564944
  outer loop
   vertex -41.1549 67.6799 393.638
   vertex -41.4111 67.7622 391.791
   vertex -42.2305 67.6214 392.996
  endloop
 endfacet
 facet normal -0.0367541 0.998758 0.0336539
  outer loop
   vertex -43.2743 67.5684 393.429
   vertex -42.2245 67.5921 393.872
   vertex -42.2305 67.6214 392.996
  endloop
 endfacet
 facet normal 0.00476562 0.999674 -0.0250954
  outer loop
   vertex 28.6419 67.2286 393.313
   vertex 25.5274 67.2507 393.602
   vertex 29.0528 67.2356 393.67
  endloop
 endfacet
 facet normal 0.00609376 0.977747 -0.209698
  outer loop
   vertex -39.3982 67.8119 393.525
   vertex -38.6122 67.7521 393.269
   vertex -39.4464 67.6951 392.979
  endloop
 endfacet
 facet normal -0.055301 0.977367 -0.204197
  outer loop
   vertex -39.3982 67.8119 393.525
   vertex -39.4464 67.6951 392.979
   vertex -40.1717 67.7205 393.297
  endloop
 endfacet
 facet normal 0.0388604 0.998667 0.0339607
  outer loop
   vertex 19.899 67.2574 393.247
   vertex 20.5062 67.2235 393.549
   vertex 22.1939 67.1831 392.806
  endloop
 endfacet
 facet normal 0.0392356 0.998584 0.0359272
  outer loop
   vertex 19.2441 67.3026 392.706
   vertex 19.899 67.2574 393.247
   vertex 22.1939 67.1831 392.806
  endloop
 endfacet
 facet normal -0.169518 0.917512 -0.359771
  outer loop
   vertex -37.9748 67.8662 393.359
   vertex -37.3179 67.946 393.253
   vertex -37.5954 67.7571 392.902
  endloop
 endfacet
 facet normal -0.4653 0.692297 -0.551561
  outer loop
   vertex -38.1293 67.7273 393.315
   vertex -37.9748 67.8662 393.359
   vertex -37.5954 67.7571 392.902
  endloop
 endfacet
 facet normal -0.0982778 0.991273 0.0878644
  outer loop
   vertex -38.6122 67.7521 393.269
   vertex -39.074 67.8757 391.358
   vertex -39.4464 67.6951 392.979
  endloop
 endfacet
 facet normal 0.0646095 0.995602 0.0678466
  outer loop
   vertex -40.1717 67.7205 393.297
   vertex -39.4464 67.6951 392.979
   vertex -39.8084 67.8311 391.328
  endloop
 endfacet
 facet normal -0.00778389 0.998231 0.0589426
  outer loop
   vertex 24.9793 67.3164 392.417
   vertex 25.5274 67.2507 393.602
   vertex 26.7971 67.3226 392.552
  endloop
 endfacet
 facet normal -0.0448747 0.996099 0.0759801
  outer loop
   vertex 25.5274 67.2507 393.602
   vertex 24.9793 67.3164 392.417
   vertex 23.1253 67.1672 393.278
  endloop
 endfacet
 facet normal -0.0635499 0.776967 -0.626326
  outer loop
   vertex -36.6613 67.9262 393.017
   vertex -36.7318 67.7455 392.8
   vertex -37.5954 67.7571 392.902
  endloop
 endfacet
 facet normal -0.127834 0.782187 -0.609789
  outer loop
   vertex -36.1759 67.8122 392.769
   vertex -36.7318 67.7455 392.8
   vertex -36.6613 67.9262 393.017
  endloop
 endfacet
 facet normal 0.0392713 0.991713 0.122327
  outer loop
   vertex -37.5954 67.7571 392.902
   vertex -38.6122 67.7521 393.269
   vertex -38.1293 67.7273 393.315
  endloop
 endfacet
 facet normal -0.0282227 0.998306 0.05087
  outer loop
   vertex -39.8084 67.8311 391.328
   vertex -41.4111 67.7622 391.791
   vertex -40.1717 67.7205 393.297
  endloop
 endfacet
 facet normal -0.167777 0.879813 -0.444725
  outer loop
   vertex -35.4323 68.0032 392.978
   vertex -35.1909 67.8339 392.552
   vertex -35.6107 67.8974 392.836
  endloop
 endfacet
 facet normal -0.0647932 0.949176 -0.308005
  outer loop
   vertex -35.7191 67.7787 392.493
   vertex -35.6107 67.8974 392.836
   vertex -35.1909 67.8339 392.552
  endloop
 endfacet
 facet normal -0.10824 0.949534 -0.294397
  outer loop
   vertex -35.7191 67.7787 392.493
   vertex -36.1759 67.8122 392.769
   vertex -35.6107 67.8974 392.836
  endloop
 endfacet
 facet normal 0.0169119 0.998027 0.0604654
  outer loop
   vertex -38.6122 67.7521 393.269
   vertex -37.5954 67.7571 392.902
   vertex -39.074 67.8757 391.358
  endloop
 endfacet
 facet normal -0.0642437 0.993315 0.0959106
  outer loop
   vertex -39.8084 67.8311 391.328
   vertex -39.4464 67.6951 392.979
   vertex -39.074 67.8757 391.358
  endloop
 endfacet
 facet normal 0.0141068 0.999762 0.0166321
  outer loop
   vertex 19.2441 67.3026 392.706
   vertex 16.8241 67.3694 390.743
   vertex 18.5355 67.312 392.742
  endloop
 endfacet
 facet normal -0.119657 0.992769 -0.00955203
  outer loop
   vertex -36.1759 67.8122 392.769
   vertex -36.4689 67.7715 392.209
   vertex -36.7318 67.7455 392.8
  endloop
 endfacet
 facet normal 0.0216541 0.998199 0.0559373
  outer loop
   vertex -36.4689 67.7715 392.209
   vertex -39.074 67.8757 391.358
   vertex -37.5954 67.7571 392.902
  endloop
 endfacet
 facet normal 0.00275127 0.991766 0.128034
  outer loop
   vertex -42.2305 67.6214 392.996
   vertex -43.4039 67.7025 392.393
   vertex -43.2743 67.5684 393.429
  endloop
 endfacet
 facet normal -0.144177 0.951069 -0.273277
  outer loop
   vertex -34.2133 67.8166 391.976
   vertex -35.1909 67.8339 392.552
   vertex -34.7332 67.9099 392.575
  endloop
 endfacet
 facet normal 0.0196372 0.998419 0.0526632
  outer loop
   vertex -37.5954 67.7571 392.902
   vertex -36.7318 67.7455 392.8
   vertex -36.4689 67.7715 392.209
  endloop
 endfacet
 facet normal -0.151828 0.94808 -0.279452
  outer loop
   vertex -34.7332 67.9099 392.575
   vertex -34.1576 67.9555 392.417
   vertex -34.2133 67.8166 391.976
  endloop
 endfacet
 facet normal 0.0222701 0.996212 -0.0840606
  outer loop
   vertex -35.7191 67.7787 392.493
   vertex -36.4689 67.7715 392.209
   vertex -36.1759 67.8122 392.769
  endloop
 endfacet
 facet normal -0.00966694 0.993933 0.109563
  outer loop
   vertex -41.4111 67.7622 391.791
   vertex -42.4101 67.7268 392.024
   vertex -42.2305 67.6214 392.996
  endloop
 endfacet
 facet normal -0.012341 0.954176 -0.29899
  outer loop
   vertex -34.1576 67.9555 392.417
   vertex -33.8107 67.9133 392.268
   vertex -34.2133 67.8166 391.976
  endloop
 endfacet
 facet normal -0.0114847 0.999894 0.00899898
  outer loop
   vertex 25.9105 67.329 392.205
   vertex 25.3133 67.3251 391.876
   vertex 24.9793 67.3164 392.417
  endloop
 endfacet
 facet normal 0.014714 0.994352 0.105103
  outer loop
   vertex -43.4039 67.7025 392.393
   vertex -42.2305 67.6214 392.996
   vertex -42.4101 67.7268 392.024
  endloop
 endfacet
 facet normal -0.134627 0.933709 0.331758
  outer loop
   vertex -35.1909 67.8339 392.552
   vertex -36.4689 67.7715 392.209
   vertex -35.7191 67.7787 392.493
  endloop
 endfacet
 facet normal 0.116333 0.941039 -0.317666
  outer loop
   vertex 24.9451 67.2788 391.604
   vertex 24.2316 67.3238 391.476
   vertex 25.3133 67.3251 391.876
  endloop
 endfacet
 facet normal -0.00582568 0.999905 0.012493
  outer loop
   vertex 24.2316 67.3238 391.476
   vertex 24.9793 67.3164 392.417
   vertex 25.3133 67.3251 391.876
  endloop
 endfacet
 facet normal 0.038636 0.99786 0.0527482
  outer loop
   vertex 19.2441 67.3026 392.706
   vertex 22.1939 67.1831 392.806
   vertex 20.0425 67.4207 389.887
  endloop
 endfacet
 facet normal -0.05595 0.997063 0.0522993
  outer loop
   vertex 24.9793 67.3164 392.417
   vertex 24.2316 67.3238 391.476
   vertex 23.1253 67.1672 393.278
  endloop
 endfacet
 facet normal -0.0196037 0.997192 0.0722728
  outer loop
   vertex 23.0472 67.3254 391.074
   vertex 22.1939 67.1831 392.806
   vertex 23.1253 67.1672 393.278
  endloop
 endfacet
 facet normal -0.00518289 0.99917 0.0403927
  outer loop
   vertex 20.0425 67.4207 389.887
   vertex 16.8241 67.3694 390.743
   vertex 19.2441 67.3026 392.706
  endloop
 endfacet
 facet normal -0.150069 0.941179 -0.302757
  outer loop
   vertex -31.8704 67.9359 391.523
   vertex -32.1053 67.8296 391.309
   vertex -32.5517 67.8604 391.626
  endloop
 endfacet
 facet normal -0.123453 0.980261 -0.154428
  outer loop
   vertex -34.2133 67.8166 391.976
   vertex -33.8107 67.9133 392.268
   vertex -32.2377 67.8836 390.822
  endloop
 endfacet
 facet normal 0.00127829 0.993051 0.117681
  outer loop
   vertex -39.074 67.8757 391.358
   vertex -36.4689 67.7715 392.209
   vertex -38.2161 67.9015 391.131
  endloop
 endfacet
 facet normal 0.0705527 0.995918 0.0562921
  outer loop
   vertex -32.5517 67.8604 391.626
   vertex -32.2377 67.8836 390.822
   vertex -33.8107 67.9133 392.268
  endloop
 endfacet
 facet normal 0.065112 0.994615 0.0806321
  outer loop
   vertex -34.275 68.0225 389.486
   vertex -35.1909 67.8339 392.552
   vertex -34.2133 67.8166 391.976
  endloop
 endfacet
 facet normal -0.0232234 0.997106 0.0723949
  outer loop
   vertex 24.2316 67.3238 391.476
   vertex 23.0472 67.3254 391.074
   vertex 23.1253 67.1672 393.278
  endloop
 endfacet
 facet normal 0.0164493 0.998875 -0.0444821
  outer loop
   vertex 23.6737 67.3117 390.998
   vertex 23.0472 67.3254 391.074
   vertex 24.2316 67.3238 391.476
  endloop
 endfacet
 facet normal -0.258421 0.652978 -0.711926
  outer loop
   vertex -30.9416 68.1432 391.376
   vertex -30.8745 67.9844 391.206
   vertex -31.8704 67.9359 391.523
  endloop
 endfacet
 facet normal -0.159304 0.919328 -0.359802
  outer loop
   vertex -30.8745 67.9844 391.206
   vertex -31.5043 67.8694 391.191
   vertex -31.8704 67.9359 391.523
  endloop
 endfacet
 facet normal -0.126173 0.936655 -0.326739
  outer loop
   vertex -32.1053 67.8296 391.309
   vertex -31.8704 67.9359 391.523
   vertex -31.5043 67.8694 391.191
  endloop
 endfacet
 facet normal -0.0242578 0.997253 0.0699848
  outer loop
   vertex 23.0472 67.3254 391.074
   vertex 22.1937 67.3344 390.65
   vertex 22.1939 67.1831 392.806
  endloop
 endfacet
 facet normal 0.122536 0.989518 0.0764088
  outer loop
   vertex -32.5517 67.8604 391.626
   vertex -32.1053 67.8296 391.309
   vertex -32.2377 67.8836 390.822
  endloop
 endfacet
 facet normal -0.166126 0.946054 -0.278178
  outer loop
   vertex -30.8745 67.9844 391.206
   vertex -30.8989 67.9019 390.94
   vertex -31.5043 67.8694 391.191
  endloop
 endfacet
 facet normal 0.0141339 0.996528 0.0820536
  outer loop
   vertex -32.2377 67.8836 390.822
   vertex -34.275 68.0225 389.486
   vertex -34.2133 67.8166 391.976
  endloop
 endfacet
 facet normal -0.0949532 0.993039 0.0696956
  outer loop
   vertex 22.1937 67.3344 390.65
   vertex 21.5143 67.3173 389.968
   vertex 22.1939 67.1831 392.806
  endloop
 endfacet
 facet normal -0.310937 0.714278 -0.626997
  outer loop
   vertex -30.5689 68.1701 391.266
   vertex -30.2946 68.0569 391.001
   vertex -30.8745 67.9844 391.206
  endloop
 endfacet
 facet normal -0.21331 0.9385 -0.271507
  outer loop
   vertex -30.8745 67.9844 391.206
   vertex -30.2946 68.0569 391.001
   vertex -30.8989 67.9019 390.94
  endloop
 endfacet
 facet normal -0.0811344 0.989165 0.122352
  outer loop
   vertex -36.3555 67.9562 390.791
   vertex -36.4689 67.7715 392.209
   vertex -35.1909 67.8339 392.552
  endloop
 endfacet
 facet normal -0.0327212 0.991425 0.126517
  outer loop
   vertex -37.4164 67.9245 390.765
   vertex -36.4689 67.7715 392.209
   vertex -36.3555 67.9562 390.791
  endloop
 endfacet
 facet normal -0.0418578 0.991727 0.121347
  outer loop
   vertex -31.5043 67.8694 391.191
   vertex -32.2377 67.8836 390.822
   vertex -32.1053 67.8296 391.309
  endloop
 endfacet
 facet normal 0.0683632 0.997185 0.0307834
  outer loop
   vertex 20.0425 67.4207 389.887
   vertex 22.1939 67.1831 392.806
   vertex 21.5143 67.3173 389.968
  endloop
 endfacet
 facet normal 0.00312389 0.997733 0.0672247
  outer loop
   vertex -36.3555 67.9562 390.791
   vertex -35.1909 67.8339 392.552
   vertex -35.166 67.9927 390.194
  endloop
 endfacet
 facet normal -0.0206171 0.996636 0.0793216
  outer loop
   vertex -32.2377 67.8836 390.822
   vertex -31.5043 67.8694 391.191
   vertex -30.8989 67.9019 390.94
  endloop
 endfacet
 facet normal 0.020187 0.997522 0.0673907
  outer loop
   vertex -34.275 68.0225 389.486
   vertex -35.166 67.9927 390.194
   vertex -35.1909 67.8339 392.552
  endloop
 endfacet
 facet normal 0.0479822 0.996846 0.0632104
  outer loop
   vertex 14.6113 67.5371 389.778
   vertex 14.3999 67.4968 390.574
   vertex 16.8241 67.3694 390.743
  endloop
 endfacet
 facet normal -0.299662 0.875316 -0.379505
  outer loop
   vertex -27.9733 68.3593 390.261
   vertex -27.9218 68.171 389.786
   vertex -28.3995 68.1475 390.109
  endloop
 endfacet
 facet normal -0.229728 0.934541 -0.271768
  outer loop
   vertex -28.5561 68.0395 389.87
   vertex -28.3995 68.1475 390.109
   vertex -27.9218 68.171 389.786
  endloop
 endfacet
 facet normal -0.00578401 0.999256 0.0381378
  outer loop
   vertex 16.8241 67.3694 390.743
   vertex 20.0425 67.4207 389.887
   vertex 18.8249 67.4414 389.16
  endloop
 endfacet
 facet normal 0.0143951 0.997873 0.0635797
  outer loop
   vertex 16.8241 67.3694 390.743
   vertex 18.8249 67.4414 389.16
   vertex 15.9791 67.4678 389.39
  endloop
 endfacet
 facet normal 0.0604211 0.997566 0.0348123
  outer loop
   vertex 15.9791 67.4678 389.39
   vertex 14.6113 67.5371 389.778
   vertex 16.8241 67.3694 390.743
  endloop
 endfacet
 facet normal -0.0399381 0.998569 -0.0355716
  outer loop
   vertex -30.2946 68.0569 391.001
   vertex -29.0582 68.0796 390.25
   vertex -28.9125 68.0586 389.497
  endloop
 endfacet
 facet normal -0.0995979 0.994003 -0.0451572
  outer loop
   vertex -27.403 68.1875 389.005
   vertex -28.9125 68.0586 389.497
   vertex -27.9218 68.171 389.786
  endloop
 endfacet
 facet normal -0.171239 0.961953 0.212895
  outer loop
   vertex -28.9125 68.0586 389.497
   vertex -28.5561 68.0395 389.87
   vertex -27.9218 68.171 389.786
  endloop
 endfacet
 facet normal 0.0376733 0.992404 0.11711
  outer loop
   vertex -33.0533 68.0885 389.348
   vertex -32.2377 67.8836 390.822
   vertex -32.4975 68.1021 389.054
  endloop
 endfacet
 facet normal 0.0711932 0.994767 0.0732868
  outer loop
   vertex 14.6113 67.5371 389.778
   vertex 15.9791 67.4678 389.39
   vertex 15.0582 67.6672 387.578
  endloop
 endfacet
 facet normal 0.00641832 0.999357 -0.035283
  outer loop
   vertex 18.8249 67.4414 389.16
   vertex 17.9769 67.4329 388.765
   vertex 15.9791 67.4678 389.39
  endloop
 endfacet
 facet normal 0.144231 0.988906 0.0355225
  outer loop
   vertex 15.0582 67.6672 387.578
   vertex 15.9791 67.4678 389.39
   vertex 16.1931 67.4909 387.878
  endloop
 endfacet
 facet normal -0.100478 0.985523 0.13656
  outer loop
   vertex -30.2946 68.0569 391.001
   vertex -32.4975 68.1021 389.054
   vertex -32.2377 67.8836 390.822
  endloop
 endfacet
 facet normal -0.00642098 0.999399 0.0340763
  outer loop
   vertex -32.4975 68.1021 389.054
   vertex -32.8862 68.0981 389.098
   vertex -33.0533 68.0885 389.348
  endloop
 endfacet
 facet normal -0.0389574 0.996977 0.0672202
  outer loop
   vertex -30.2946 68.0569 391.001
   vertex -31.5255 68.1746 388.542
   vertex -32.4975 68.1021 389.054
  endloop
 endfacet
 facet normal 0.0852802 0.993181 0.0794917
  outer loop
   vertex -28.9558 68.2689 386.916
   vertex -30.2946 68.0569 391.001
   vertex -28.9125 68.0586 389.497
  endloop
 endfacet
 facet normal -0.058218 0.994927 0.0820413
  outer loop
   vertex -27.403 68.1875 389.005
   vertex -28.9558 68.2689 386.916
   vertex -28.9125 68.0586 389.497
  endloop
 endfacet
 facet normal -0.146381 0.979384 -0.139211
  outer loop
   vertex -31.5255 68.1746 388.542
   vertex -31.9198 68.1087 388.493
   vertex -32.4975 68.1021 389.054
  endloop
 endfacet
 facet normal -0.058625 0.998256 0.00695476
  outer loop
   vertex 16.7083 67.516 388.618
   vertex 16.1931 67.4909 387.878
   vertex 15.9791 67.4678 389.39
  endloop
 endfacet
 facet normal 0.138027 0.970001 -0.200116
  outer loop
   vertex 14.6113 67.5371 389.778
   vertex 10.3019 67.8951 388.541
   vertex 10.8452 67.8898 388.89
  endloop
 endfacet
 facet normal 0.0817323 0.9938 0.0753705
  outer loop
   vertex 14.6113 67.5371 389.778
   vertex 15.0582 67.6672 387.578
   vertex 14.3109 67.7753 386.963
  endloop
 endfacet
 facet normal -0.0237301 0.998119 0.0565303
  outer loop
   vertex -27.403 68.1875 389.005
   vertex -26.6969 68.2398 388.378
   vertex -28.9558 68.2689 386.916
  endloop
 endfacet
 facet normal -0.0144227 0.998382 0.0550062
  outer loop
   vertex -31.5255 68.1746 388.542
   vertex -30.2946 68.0569 391.001
   vertex -30.7216 68.2158 388.005
  endloop
 endfacet
 facet normal 0.0752412 0.996817 0.0263675
  outer loop
   vertex 10.3019 67.8951 388.541
   vertex 14.6113 67.5371 389.778
   vertex 8.84778 68.0352 387.394
  endloop
 endfacet
 facet normal -0.185869 0.961053 -0.204523
  outer loop
   vertex -30.7216 68.2158 388.005
   vertex -31.3723 68.1306 388.196
   vertex -31.5255 68.1746 388.542
  endloop
 endfacet
 facet normal 0.0939425 0.992172 0.0822783
  outer loop
   vertex -29.7771 68.2848 387.662
   vertex -30.2946 68.0569 391.001
   vertex -28.9558 68.2689 386.916
  endloop
 endfacet
 facet normal -0.0509868 0.996887 0.0601382
  outer loop
   vertex -29.7771 68.2848 387.662
   vertex -30.7216 68.2158 388.005
   vertex -30.2946 68.0569 391.001
  endloop
 endfacet
 facet normal -0.265378 0.853787 -0.447909
  outer loop
   vertex -23.6472 68.615 387.761
   vertex -24.0478 68.5823 387.936
   vertex -23.738 68.7426 388.058
  endloop
 endfacet
 facet normal -0.115439 0.984188 0.134344
  outer loop
   vertex -24.745 68.4769 387.896
   vertex -26.5674 68.5285 385.952
   vertex -26.0071 68.3361 387.843
  endloop
 endfacet
 facet normal -0.130253 0.983377 -0.126503
  outer loop
   vertex -23.6472 68.615 387.761
   vertex -23.1319 68.639 387.417
   vertex -24.1312 68.5069 387.419
  endloop
 endfacet
 facet normal -0.133537 0.983518 -0.121899
  outer loop
   vertex -24.0478 68.5823 387.936
   vertex -23.6472 68.615 387.761
   vertex -24.1312 68.5069 387.419
  endloop
 endfacet
 facet normal -0.141628 0.982564 -0.120454
  outer loop
   vertex -24.745 68.4769 387.896
   vertex -24.0478 68.5823 387.936
   vertex -24.1312 68.5069 387.419
  endloop
 endfacet
 facet normal -0.0163242 0.998992 0.0418222
  outer loop
   vertex -24.1312 68.5069 387.419
   vertex -26.5674 68.5285 385.952
   vertex -24.745 68.4769 387.896
  endloop
 endfacet
 facet normal -0.0519881 0.992393 0.111596
  outer loop
   vertex -26.0071 68.3361 387.843
   vertex -27.5318 68.4312 386.287
   vertex -26.6969 68.2398 388.378
  endloop
 endfacet
 facet normal 0.137479 0.99048 0.00704671
  outer loop
   vertex 14.8809 67.6945 387.199
   vertex 14.3109 67.7753 386.963
   vertex 15.0582 67.6672 387.578
  endloop
 endfacet
 facet normal -0.14044 0.96152 0.236126
  outer loop
   vertex -26.6969 68.2398 388.378
   vertex -28.0326 68.3809 387.009
   vertex -28.9558 68.2689 386.916
  endloop
 endfacet
 facet normal -0.0848988 0.996365 0.00703687
  outer loop
   vertex -22.1459 68.7273 386.81
   vertex -23.7558 68.5923 386.502
   vertex -23.1319 68.639 387.417
  endloop
 endfacet
 facet normal -0.0589154 0.991227 0.118313
  outer loop
   vertex -26.5674 68.5285 385.952
   vertex -27.5318 68.4312 386.287
   vertex -26.0071 68.3361 387.843
  endloop
 endfacet
 facet normal 0.0199352 0.99633 0.0832387
  outer loop
   vertex -27.5318 68.4312 386.287
   vertex -28.0326 68.3809 387.009
   vertex -26.6969 68.2398 388.378
  endloop
 endfacet
 facet normal -0.130881 0.990643 0.0386826
  outer loop
   vertex -23.1319 68.639 387.417
   vertex -23.7558 68.5923 386.502
   vertex -24.1312 68.5069 387.419
  endloop
 endfacet
 facet normal -0.0377361 0.99629 0.0773403
  outer loop
   vertex -23.7558 68.5923 386.502
   vertex -26.5674 68.5285 385.952
   vertex -24.1312 68.5069 387.419
  endloop
 endfacet
 facet normal 0.0470597 0.998686 -0.0202809
  outer loop
   vertex 7.29294 68.1127 386.792
   vertex 6.26664 68.1228 384.908
   vertex 6.71152 68.1377 386.674
  endloop
 endfacet
 facet normal 0.0495332 0.995646 0.0789628
  outer loop
   vertex 14.3109 67.7753 386.963
   vertex 12.9105 67.9012 386.254
   vertex 14.6113 67.5371 389.778
  endloop
 endfacet
 facet normal -0.082863 0.996554 -0.0036882
  outer loop
   vertex -22.1459 68.7273 386.81
   vertex -22.6961 68.6791 386.147
   vertex -23.7558 68.5923 386.502
  endloop
 endfacet
 facet normal -0.148388 0.988809 -0.0153986
  outer loop
   vertex -20.9083 68.9077 386.468
   vertex -21.439 68.8158 385.681
   vertex -22.1459 68.7273 386.81
  endloop
 endfacet
 facet normal 0.0734534 0.995022 0.0673536
  outer loop
   vertex 12.9105 67.9012 386.254
   vertex 11.8389 68.0283 385.545
   vertex 14.6113 67.5371 389.778
  endloop
 endfacet
 facet normal -0.103209 0.99457 0.0133408
  outer loop
   vertex -21.439 68.8158 385.681
   vertex -22.6961 68.6791 386.147
   vertex -22.1459 68.7273 386.81
  endloop
 endfacet
 facet normal 0.0556578 0.995742 0.0734876
  outer loop
   vertex 14.6113 67.5371 389.778
   vertex 10.953 68.1289 384.53
   vertex 8.84778 68.0352 387.394
  endloop
 endfacet
 facet normal -0.076415 0.983468 0.164169
  outer loop
   vertex 11.8389 68.0283 385.545
   vertex 10.953 68.1289 384.53
   vertex 14.6113 67.5371 389.778
  endloop
 endfacet
 facet normal -0.0398806 0.995285 0.0884193
  outer loop
   vertex -23.776 68.7665 384.532
   vertex -26.5674 68.5285 385.952
   vertex -23.7558 68.5923 386.502
  endloop
 endfacet
 facet normal -0.0489754 0.994092 0.0968633
  outer loop
   vertex -22.8064 68.8207 384.638
   vertex -23.7558 68.5923 386.502
   vertex -22.6961 68.6791 386.147
  endloop
 endfacet
 facet normal -0.0714742 0.99258 0.098366
  outer loop
   vertex -21.439 68.8158 385.681
   vertex -22.8064 68.8207 384.638
   vertex -22.6961 68.6791 386.147
  endloop
 endfacet
 facet normal -0.134024 0.990655 -0.0252999
  outer loop
   vertex -20.0826 69.0095 386.08
   vertex -21.439 68.8158 385.681
   vertex -20.9083 68.9077 386.468
  endloop
 endfacet
 facet normal 0.0424512 0.998801 0.0243702
  outer loop
   vertex 4.93519 68.1567 385.838
   vertex 6.26664 68.1228 384.908
   vertex 3.99554 68.2053 385.483
  endloop
 endfacet
 facet normal -0.0652399 0.993932 0.0885597
  outer loop
   vertex -23.7558 68.5923 386.502
   vertex -22.8064 68.8207 384.638
   vertex -23.776 68.7665 384.532
  endloop
 endfacet
 facet normal -0.125906 0.961015 0.246166
  outer loop
   vertex -19.2245 69.0702 385.706
   vertex -17.768 69.3184 385.482
   vertex -17.5384 69.36 385.437
  endloop
 endfacet
 facet normal -0.12356 0.990474 -0.0607883
  outer loop
   vertex -19.9791 68.9595 385.055
   vertex -21.439 68.8158 385.681
   vertex -20.0826 69.0095 386.08
  endloop
 endfacet
 facet normal 0.03803 0.997119 0.0656351
  outer loop
   vertex 11.5734 68.082 384.883
   vertex 10.953 68.1289 384.53
   vertex 11.8389 68.0283 385.545
  endloop
 endfacet
 facet normal 0.0288862 0.998129 0.053887
  outer loop
   vertex 10.953 68.1289 384.53
   vertex 7.29294 68.1127 386.792
   vertex 8.84778 68.0352 387.394
  endloop
 endfacet
 facet normal -0.112532 0.992906 -0.0383916
  outer loop
   vertex -18.8061 69.0776 384.671
   vertex -19.9791 68.9595 385.055
   vertex -19.2245 69.0702 385.706
  endloop
 endfacet
 facet normal 0.0802333 0.995591 0.0485857
  outer loop
   vertex 11.9086 68.0462 385.063
   vertex 11.5734 68.082 384.883
   vertex 11.8389 68.0283 385.545
  endloop
 endfacet
 facet normal 0.0333965 0.997568 0.061181
  outer loop
   vertex 10.5541 68.2034 383.533
   vertex 7.29294 68.1127 386.792
   vertex 10.953 68.1289 384.53
  endloop
 endfacet
 facet normal -0.179156 0.981644 -0.0654049
  outer loop
   vertex -19.2245 69.0702 385.706
   vertex -17.5384 69.36 385.437
   vertex -18.8061 69.0776 384.671
  endloop
 endfacet
 facet normal -0.0779484 0.995858 0.0468167
  outer loop
   vertex -19.9791 68.9595 385.055
   vertex -21.4053 68.9245 383.425
   vertex -21.439 68.8158 385.681
  endloop
 endfacet
 facet normal -0.000588879 1 0.000698239
  outer loop
   vertex 5.38674 68.2088 381.641
   vertex 2.7017 68.2049 384.96
   vertex 3.99554 68.2053 385.483
  endloop
 endfacet
 facet normal -0.0926977 0.995429 0.0229721
  outer loop
   vertex -18.8061 69.0776 384.671
   vertex -19.2227 69.089 382.496
   vertex -19.9791 68.9595 385.055
  endloop
 endfacet
 facet normal -0.0327398 0.998329 0.047611
  outer loop
   vertex -21.4053 68.9245 383.425
   vertex -22.8064 68.8207 384.638
   vertex -21.439 68.8158 385.681
  endloop
 endfacet
 facet normal 0.0402076 0.999072 0.0154699
  outer loop
   vertex 3.99554 68.2053 385.483
   vertex 6.26664 68.1228 384.908
   vertex 5.38674 68.2088 381.641
  endloop
 endfacet
 facet normal -0.214437 0.976724 -0.00520559
  outer loop
   vertex -18.5362 69.1238 382.222
   vertex -18.8061 69.0776 384.671
   vertex -17.5384 69.36 385.437
  endloop
 endfacet
 facet normal -0.0614276 0.997588 0.0323243
  outer loop
   vertex -19.2227 69.089 382.496
   vertex -21.4053 68.9245 383.425
   vertex -19.9791 68.9595 385.055
  endloop
 endfacet
 facet normal -0.0525644 0.99818 -0.0295711
  outer loop
   vertex -22.608 68.7996 383.573
   vertex -23.776 68.7665 384.532
   vertex -22.8064 68.8207 384.638
  endloop
 endfacet
 facet normal -0.021374 0.999589 -0.0191192
  outer loop
   vertex -17.5384 69.36 385.437
   vertex -16.5932 69.3678 384.788
   vertex -16.5582 69.3152 381.999
  endloop
 endfacet
 facet normal -0.0531275 0.998397 -0.0194952
  outer loop
   vertex -15.5608 69.4077 384.018
   vertex -16.5582 69.3152 381.999
   vertex -16.5932 69.3678 384.788
  endloop
 endfacet
 facet normal 0.25729 0.965844 -0.0307685
  outer loop
   vertex 11.0269 68.0893 383.905
   vertex 10.5541 68.2034 383.533
   vertex 10.953 68.1289 384.53
  endloop
 endfacet
 facet normal -0.0788535 0.975422 -0.205754
  outer loop
   vertex -15.2014 69.592 384.754
   vertex -14.481 69.5435 384.248
   vertex -15.5608 69.4077 384.018
  endloop
 endfacet
 facet normal -0.100888 0.994023 -0.0417167
  outer loop
   vertex -18.5362 69.1238 382.222
   vertex -17.5384 69.36 385.437
   vertex -16.5582 69.3152 381.999
  endloop
 endfacet
 facet normal -0.108059 0.993347 -0.0398135
  outer loop
   vertex -22.8064 68.8207 384.638
   vertex -21.4053 68.9245 383.425
   vertex -22.608 68.7996 383.573
  endloop
 endfacet
 facet normal -0.014536 0.999806 0.013279
  outer loop
   vertex 7.29294 68.1127 386.792
   vertex 10.5541 68.2034 383.533
   vertex 6.26664 68.1228 384.908
  endloop
 endfacet
 facet normal 0.00545148 0.998895 -0.0466851
  outer loop
   vertex 0.552249 68.186 383.306
   vertex -0.773315 68.2273 384.035
   vertex 0.432137 68.229 384.212
  endloop
 endfacet
 facet normal 0.0491269 0.996077 -0.073595
  outer loop
   vertex 1.84182 68.218 384.6
   vertex 0.552249 68.186 383.306
   vertex 0.9661 68.2572 384.546
  endloop
 endfacet
 facet normal -0.063072 0.994497 -0.0836508
  outer loop
   vertex -14.481 69.5435 384.248
   vertex -13.3283 69.5886 383.915
   vertex -14.5118 69.4566 383.238
  endloop
 endfacet
 facet normal -0.107154 0.990856 -0.0819932
  outer loop
   vertex -15.5608 69.4077 384.018
   vertex -14.481 69.5435 384.248
   vertex -14.5118 69.4566 383.238
  endloop
 endfacet
 facet normal -0.0451052 0.998886 0.0138743
  outer loop
   vertex -18.8061 69.0776 384.671
   vertex -18.5362 69.1238 382.222
   vertex -19.2227 69.089 382.496
  endloop
 endfacet
 facet normal 0.110061 0.99308 -0.0409618
  outer loop
   vertex -3.07269 68.3784 383.791
   vertex -1.65601 68.2056 383.408
   vertex -2.3979 68.2601 382.736
  endloop
 endfacet
 facet normal 0.0981435 0.994808 0.0269339
  outer loop
   vertex -8.61307 69.7098 381.069
   vertex -9.0863 69.6832 383.776
   vertex -8.15969 69.6018 383.406
  endloop
 endfacet
 facet normal 0.0237176 0.999513 -0.0202815
  outer loop
   vertex 1.84182 68.218 384.6
   vertex 2.7017 68.2049 384.96
   vertex 0.666714 68.1676 380.742
  endloop
 endfacet
 facet normal 0.0102963 0.999943 0.00298091
  outer loop
   vertex -1.65601 68.2056 383.408
   vertex -0.718081 68.1992 382.313
   vertex -1.70425 68.2087 382.533
  endloop
 endfacet
 facet normal 0.0737438 0.997277 -0.000526501
  outer loop
   vertex -2.3979 68.2601 382.736
   vertex -1.65601 68.2056 383.408
   vertex -1.70425 68.2087 382.533
  endloop
 endfacet
 facet normal 0.29919 0.954092 -0.0139508
  outer loop
   vertex -7.49759 69.3991 383.743
   vertex -8.61307 69.7098 381.069
   vertex -8.15969 69.6018 383.406
  endloop
 endfacet
 facet normal 0.227236 0.96655 0.118936
  outer loop
   vertex -4.94164 68.7871 383.145
   vertex -4.84989 69.0739 380.639
   vertex -6.24694 69.0973 383.118
  endloop
 endfacet
 facet normal -0.114735 0.967368 -0.225908
  outer loop
   vertex -10.6089 69.6664 382.867
   vertex -13.3283 69.5886 383.915
   vertex -12.0068 69.7834 384.078
  endloop
 endfacet
 facet normal -0.0127068 0.999779 -0.0167215
  outer loop
   vertex -1.65601 68.2056 383.408
   vertex -0.773315 68.2273 384.035
   vertex -0.718081 68.1992 382.313
  endloop
 endfacet
 facet normal -0.0214013 0.999738 -0.00813195
  outer loop
   vertex 8.20395 68.1236 379.907
   vertex 6.26664 68.1228 384.908
   vertex 10.5541 68.2034 383.533
  endloop
 endfacet
 facet normal 0.0225767 0.999624 -0.0155872
  outer loop
   vertex 0.552249 68.186 383.306
   vertex -0.718081 68.1992 382.313
   vertex -0.773315 68.2273 384.035
  endloop
 endfacet
 facet normal -0.0588939 0.998126 -0.0166341
  outer loop
   vertex -16.5582 69.3152 381.999
   vertex -15.5608 69.4077 384.018
   vertex -14.5118 69.4566 383.238
  endloop
 endfacet
 facet normal 0.215438 0.976118 0.0279347
  outer loop
   vertex -3.1279 68.4017 382.624
   vertex -4.94164 68.7871 383.145
   vertex -3.5306 68.4595 383.71
  endloop
 endfacet
 facet normal 0.221172 0.968371 0.115502
  outer loop
   vertex -4.84989 69.0739 380.639
   vertex -6.57909 69.4005 381.212
   vertex -6.24694 69.0973 383.118
  endloop
 endfacet
 facet normal 0.281549 0.954035 0.1027
  outer loop
   vertex -6.57909 69.4005 381.212
   vertex -7.49759 69.3991 383.743
   vertex -6.24694 69.0973 383.118
  endloop
 endfacet
 facet normal -0.0168614 0.999826 -0.00792564
  outer loop
   vertex 0.552249 68.186 383.306
   vertex 1.84182 68.218 384.6
   vertex 0.666714 68.1676 380.742
  endloop
 endfacet
 facet normal -0.104065 0.994498 -0.0119884
  outer loop
   vertex -14.1917 69.4624 380.941
   vertex -14.5118 69.4566 383.238
   vertex -13.3283 69.5886 383.915
  endloop
 endfacet
 facet normal -0.11099 0.983912 -0.139998
  outer loop
   vertex -16.5582 69.3152 381.999
   vertex -17.4824 69.1953 381.889
   vertex -18.5362 69.1238 382.222
  endloop
 endfacet
 facet normal -0.00571699 0.999771 0.02061
  outer loop
   vertex -0.718081 68.1992 382.313
   vertex 0.552249 68.186 383.306
   vertex 0.587067 68.2293 381.215
  endloop
 endfacet
 facet normal 0.23897 0.963703 0.11904
  outer loop
   vertex -3.1279 68.4017 382.624
   vertex -4.84989 69.0739 380.639
   vertex -4.94164 68.7871 383.145
  endloop
 endfacet
 facet normal -0.0471467 0.998884 0.00274849
  outer loop
   vertex -9.68664 69.7144 381.241
   vertex -11.7471 69.6186 380.714
   vertex -10.6089 69.6664 382.867
  endloop
 endfacet
 facet normal -0.0257413 0.999641 0.00741222
  outer loop
   vertex -13.3283 69.5886 383.915
   vertex -10.6089 69.6664 382.867
   vertex -12.3227 69.6372 380.853
  endloop
 endfacet
 facet normal 0.0202837 0.99964 0.0175835
  outer loop
   vertex 5.38674 68.2088 381.641
   vertex 4.11966 68.2435 381.13
   vertex 2.7017 68.2049 384.96
  endloop
 endfacet
 facet normal -0.0221842 0.999752 0.00186195
  outer loop
   vertex 0.666714 68.1676 380.742
   vertex 2.7017 68.2049 384.96
   vertex 4.11966 68.2435 381.13
  endloop
 endfacet
 facet normal -0.0214012 0.99962 0.0173729
  outer loop
   vertex -9.0863 69.6832 383.776
   vertex -9.68664 69.7144 381.241
   vertex -10.6089 69.6664 382.867
  endloop
 endfacet
 facet normal -0.0795312 0.996796 -0.0085636
  outer loop
   vertex -14.1917 69.4624 380.941
   vertex -14.9835 69.4024 381.31
   vertex -14.5118 69.4566 383.238
  endloop
 endfacet
 facet normal -0.0246848 0.997026 -0.0730098
  outer loop
   vertex -16.5582 69.3152 381.999
   vertex -14.5118 69.4566 383.238
   vertex -16.309 69.2767 381.389
  endloop
 endfacet
 facet normal 0.0238806 0.999109 -0.0348054
  outer loop
   vertex -12.3227 69.6372 380.853
   vertex -10.6089 69.6664 382.867
   vertex -11.7471 69.6186 380.714
  endloop
 endfacet
 facet normal 0.0122413 0.999045 0.0419365
  outer loop
   vertex -0.287529 68.2485 381.013
   vertex -0.718081 68.1992 382.313
   vertex 0.587067 68.2293 381.215
  endloop
 endfacet
 facet normal 0.00602814 0.999923 0.0108808
  outer loop
   vertex -8.61307 69.7098 381.069
   vertex -9.68664 69.7144 381.241
   vertex -9.0863 69.6832 383.776
  endloop
 endfacet
 facet normal -0.0615897 0.998017 -0.0129874
  outer loop
   vertex -14.5118 69.4566 383.238
   vertex -14.9835 69.4024 381.31
   vertex -15.6779 69.3596 381.314
  endloop
 endfacet
 facet normal -0.127026 0.991532 0.0269991
  outer loop
   vertex -16.309 69.2767 381.389
   vertex -14.5118 69.4566 383.238
   vertex -15.6779 69.3596 381.314
  endloop
 endfacet
 facet normal 0.269381 0.958727 0.0909735
  outer loop
   vertex -4.84989 69.0739 380.639
   vertex -3.1279 68.4017 382.624
   vertex -4.16938 68.9085 380.367
  endloop
 endfacet
 facet normal 0.146433 0.987763 0.0536852
  outer loop
   vertex -7.49759 69.3991 383.743
   vertex -6.57909 69.4005 381.212
   vertex -8.61307 69.7098 381.069
  endloop
 endfacet
 facet normal 0.02207 0.998735 0.04518
  outer loop
   vertex -0.287529 68.2485 381.013
   vertex -0.812819 68.2796 380.582
   vertex -0.718081 68.1992 382.313
  endloop
 endfacet
 facet normal 0.049536 0.997819 0.0436342
  outer loop
   vertex -2.1666 68.2785 382.144
   vertex -0.718081 68.1992 382.313
   vertex -0.812819 68.2796 380.582
  endloop
 endfacet
 facet normal 0.189039 0.973495 0.128733
  outer loop
   vertex -3.1279 68.4017 382.624
   vertex -2.1666 68.2785 382.144
   vertex -2.94243 68.6176 380.719
  endloop
 endfacet
 facet normal -0.141458 0.989944 -0.000939511
  outer loop
   vertex -13.3283 69.5886 383.915
   vertex -13.4171 69.5731 380.95
   vertex -14.1917 69.4624 380.941
  endloop
 endfacet
 facet normal 0.0977171 0.991544 0.0853879
  outer loop
   vertex -0.812819 68.2796 380.582
   vertex -1.50797 68.3525 380.531
   vertex -2.1666 68.2785 382.144
  endloop
 endfacet
 facet normal 0.19356 0.972562 0.129067
  outer loop
   vertex -2.94243 68.6176 380.719
   vertex -4.16938 68.9085 380.367
   vertex -3.1279 68.4017 382.624
  endloop
 endfacet
 facet normal 0.139053 0.980055 0.141974
  outer loop
   vertex -8.61307 69.7098 381.069
   vertex -6.57909 69.4005 381.212
   vertex -7.05135 69.5437 380.686
  endloop
 endfacet
 facet normal -0.17088 0.984459 -0.0404939
  outer loop
   vertex -12.3227 69.6372 380.853
   vertex -12.8713 69.5377 380.749
   vertex -13.3283 69.5886 383.915
  endloop
 endfacet
 facet normal 0.196089 0.972626 0.124688
  outer loop
   vertex -1.50797 68.3525 380.531
   vertex -2.94243 68.6176 380.719
   vertex -2.1666 68.2785 382.144
  endloop
 endfacet
 facet normal 0.0621255 0.998043 -0.00707903
  outer loop
   vertex -13.4171 69.5731 380.95
   vertex -13.3283 69.5886 383.915
   vertex -12.8713 69.5377 380.749
  endloop
 endfacet
 facet normal -0.121294 0.885279 -0.448964
  outer loop
   vertex -13.4171 69.5731 380.95
   vertex -13.5046 69.4546 380.74
   vertex -14.1917 69.4624 380.941
  endloop
 endfacet
 facet normal 0.0404862 0.999149 0.00789974
  outer loop
   vertex 7.36955 68.1218 379.382
   vertex 5.00569 68.2146 379.76
   vertex 6.26664 68.1228 384.908
  endloop
 endfacet
 facet normal 0.223347 0.972618 0.0642672
  outer loop
   vertex -6.43568 69.4121 380.538
   vertex -7.05135 69.5437 380.686
   vertex -6.57909 69.4005 381.212
  endloop
 endfacet
 facet normal -0.0796035 0.890117 -0.448726
  outer loop
   vertex -11.7471 69.6186 380.714
   vertex -12.329 69.4965 380.575
   vertex -12.3227 69.6372 380.853
  endloop
 endfacet
 facet normal 0.191744 0.978753 -0.0726464
  outer loop
   vertex -6.43568 69.4121 380.538
   vertex -6.72424 69.4598 380.419
   vertex -7.05135 69.5437 380.686
  endloop
 endfacet
 facet normal -0.00180789 0.999998 -0.000541692
  outer loop
   vertex 8.20395 68.1236 379.907
   vertex 7.36955 68.1218 379.382
   vertex 6.26664 68.1228 384.908
  endloop
 endfacet
 facet normal 0.277864 0.941559 -0.190416
  outer loop
   vertex -2.94243 68.6176 380.719
   vertex -3.53012 68.716 380.348
   vertex -4.16938 68.9085 380.367
  endloop
 endfacet
 facet normal -0.0352133 0.997997 0.0525549
  outer loop
   vertex 7.36955 68.1218 379.382
   vertex 8.20395 68.1236 379.907
   vertex 8.51111 68.2011 378.641
  endloop
 endfacet
 facet normal 0.0461744 0.99601 0.0763625
  outer loop
   vertex 8.14226 68.1743 378.23
   vertex 6.99042 68.2024 378.56
   vertex 7.36955 68.1218 379.382
  endloop
 endfacet
 facet normal 0.0509551 0.995944 0.074151
  outer loop
   vertex 7.36955 68.1218 379.382
   vertex 6.99042 68.2024 378.56
   vertex 5.00569 68.2146 379.76
  endloop
 endfacet
endsolid
