solid ascii
 facet normal 0.848054 -0.529151 0.0283508
  outer loop
   vertex 55.6778 65.3335 409.286
   vertex 56.4439 66.523 408.571
   vertex 55.947 65.7883 409.722
  endloop
 endfacet
 facet normal 0.683782 -0.665061 0.300226
  outer loop
   vertex 55.1045 64.582 408.927
   vertex 55.6778 65.3335 409.286
   vertex 55.4163 65.0994 409.363
  endloop
 endfacet
 facet normal 0.812017 -0.57674 -0.0894325
  outer loop
   vertex 55.1045 64.582 408.927
   vertex 56.4439 66.523 408.571
   vertex 55.6778 65.3335 409.286
  endloop
 endfacet
 facet normal 0.8252 -0.564089 0.0291475
  outer loop
   vertex 56.5635 66.5941 406.561
   vertex 56.4439 66.523 408.571
   vertex 55.1045 64.582 408.927
  endloop
 endfacet
 facet normal 0.761102 -0.639975 0.105618
  outer loop
   vertex 54.1206 63.1911 407.597
   vertex 54.5363 63.8855 408.809
   vertex 53.9782 63.1579 408.422
  endloop
 endfacet
 facet normal 0.756607 -0.645446 0.104622
  outer loop
   vertex 53.5508 62.6013 408.079
   vertex 54.1206 63.1911 407.597
   vertex 53.9782 63.1579 408.422
  endloop
 endfacet
 facet normal 0.860428 -0.508489 0.0332103
  outer loop
   vertex 56.5635 66.5941 406.561
   vertex 56.894 67.2299 407.733
   vertex 56.4439 66.523 408.571
  endloop
 endfacet
 facet normal 0.816871 -0.576667 0.0133142
  outer loop
   vertex 56.5635 66.5941 406.561
   vertex 55.1045 64.582 408.927
   vertex 54.212 63.2615 406.491
  endloop
 endfacet
 facet normal 0.767918 -0.637329 0.0641325
  outer loop
   vertex 54.5363 63.8855 408.809
   vertex 54.212 63.2615 406.491
   vertex 55.1045 64.582 408.927
  endloop
 endfacet
 facet normal 0.830845 -0.555506 0.033302
  outer loop
   vertex 54.5363 63.8855 408.809
   vertex 54.1206 63.1911 407.597
   vertex 54.212 63.2615 406.491
  endloop
 endfacet
 facet normal 0.742414 -0.667129 0.0613131
  outer loop
   vertex 54.1206 63.1911 407.597
   vertex 53.5508 62.6013 408.079
   vertex 53.5881 62.5475 407.042
  endloop
 endfacet
 facet normal 0.739858 -0.669959 0.061368
  outer loop
   vertex 53.0773 62.0402 407.662
   vertex 53.5881 62.5475 407.042
   vertex 53.5508 62.6013 408.079
  endloop
 endfacet
 facet normal 0.653835 -0.756414 0.0183764
  outer loop
   vertex 52.8333 61.7919 406.123
   vertex 53.0773 62.0402 407.662
   vertex 52.6326 61.6577 407.74
  endloop
 endfacet
 facet normal 0.761054 -0.648328 0.0216259
  outer loop
   vertex 53.5881 62.5475 407.042
   vertex 54.212 63.2615 406.491
   vertex 54.1206 63.1911 407.597
  endloop
 endfacet
 facet normal 0.784809 -0.61802 0.0461188
  outer loop
   vertex 51.7194 60.4535 407.143
   vertex 52.8333 61.7919 406.123
   vertex 52.6326 61.6577 407.74
  endloop
 endfacet
 facet normal 0.813535 -0.581086 0.0223529
  outer loop
   vertex 54.212 63.2615 406.491
   vertex 55.418 64.926 405.869
   vertex 55.9838 65.7431 406.518
  endloop
 endfacet
 facet normal 0.703386 -0.710805 -0.00210119
  outer loop
   vertex 53.3662 62.3328 405.389
   vertex 53.5881 62.5475 407.042
   vertex 53.0773 62.0402 407.662
  endloop
 endfacet
 facet normal 0.712518 -0.701654 0.000237506
  outer loop
   vertex 52.8333 61.7919 406.123
   vertex 53.3662 62.3328 405.389
   vertex 53.0773 62.0402 407.662
  endloop
 endfacet
 facet normal 0.816593 -0.575617 0.0429165
  outer loop
   vertex 54.6632 63.8409 405.677
   vertex 55.418 64.926 405.869
   vertex 54.212 63.2615 406.491
  endloop
 endfacet
 facet normal 0.74753 -0.664078 -0.0140963
  outer loop
   vertex 53.5881 62.5475 407.042
   vertex 53.3662 62.3328 405.389
   vertex 54.212 63.2615 406.491
  endloop
 endfacet
 facet normal 0.761255 -0.647292 -0.0387761
  outer loop
   vertex 53.3662 62.3328 405.389
   vertex 54.6632 63.8409 405.677
   vertex 54.212 63.2615 406.491
  endloop
 endfacet
 facet normal 0.795171 -0.589266 0.14307
  outer loop
   vertex 52.8333 61.7919 406.123
   vertex 53.0924 61.7402 404.47
   vertex 53.3662 62.3328 405.389
  endloop
 endfacet
 facet normal 0.780382 -0.611075 0.132631
  outer loop
   vertex 52.0317 60.1988 404.132
   vertex 51.7194 60.4535 407.143
   vertex 50.7111 59.0775 406.736
  endloop
 endfacet
 facet normal 0.812022 -0.565337 0.144963
  outer loop
   vertex 53.0924 61.7402 404.47
   vertex 52.8333 61.7919 406.123
   vertex 51.7194 60.4535 407.143
  endloop
 endfacet
 facet normal 0.802737 -0.581439 0.132443
  outer loop
   vertex 52.0317 60.1988 404.132
   vertex 53.0924 61.7402 404.47
   vertex 51.7194 60.4535 407.143
  endloop
 endfacet
 facet normal 0.736641 -0.62653 0.254599
  outer loop
   vertex 49.2292 56.6876 405.138
   vertex 50.2736 58.4418 406.433
   vertex 49.6654 57.6304 406.196
  endloop
 endfacet
 facet normal 0.784244 -0.605102 0.137162
  outer loop
   vertex 52.0317 60.1988 404.132
   vertex 50.7111 59.0775 406.736
   vertex 50.2736 58.4418 406.433
  endloop
 endfacet
 facet normal 0.646648 -0.644824 0.407491
  outer loop
   vertex -18.3032 -11.9553 405.741
   vertex -18.6958 -12.3844 405.685
   vertex -18.9896 -13.0247 405.138
  endloop
 endfacet
 facet normal 0.740589 -0.596692 0.309007
  outer loop
   vertex 47.831 54.9864 405.204
   vertex 49.2292 56.6876 405.138
   vertex 48.2144 55.6518 405.57
  endloop
 endfacet
 facet normal 0.755293 -0.614012 0.229175
  outer loop
   vertex -18.9896 -13.0247 405.138
   vertex -18.6217 -13.001 403.989
   vertex -18.3032 -11.9553 405.741
  endloop
 endfacet
 facet normal 0.661679 -0.690625 0.291921
  outer loop
   vertex -18.6217 -13.001 403.989
   vertex -17.0583 -11.02 405.132
   vertex -18.3032 -11.9553 405.741
  endloop
 endfacet
 facet normal 0.797982 -0.578886 0.167677
  outer loop
   vertex 50.2736 58.4418 406.433
   vertex 51.4282 59.3498 404.073
   vertex 52.0317 60.1988 404.132
  endloop
 endfacet
 facet normal 0.783303 -0.596229 0.175921
  outer loop
   vertex 49.7796 56.8197 403.135
   vertex 50.2736 58.4418 406.433
   vertex 49.2292 56.6876 405.138
  endloop
 endfacet
 facet normal 0.764635 -0.621884 0.169099
  outer loop
   vertex 49.7796 56.8197 403.135
   vertex 49.2292 56.6876 405.138
   vertex 47.831 54.9864 405.204
  endloop
 endfacet
 facet normal 0.797563 -0.580002 0.165804
  outer loop
   vertex 49.7796 56.8197 403.135
   vertex 50.703 58.287 403.826
   vertex 50.2736 58.4418 406.433
  endloop
 endfacet
 facet normal 0.623803 -0.679636 0.385959
  outer loop
   vertex -14.3718 -9.11015 404.06
   vertex -14.9101 -9.36458 404.482
   vertex -15.2946 -9.82652 404.29
  endloop
 endfacet
 facet normal 0.796252 -0.581831 0.165697
  outer loop
   vertex 50.703 58.287 403.826
   vertex 51.4282 59.3498 404.073
   vertex 50.2736 58.4418 406.433
  endloop
 endfacet
 facet normal 0.717386 -0.637962 0.279932
  outer loop
   vertex 46.7859 52.9743 403.578
   vertex 46.9969 53.5604 404.373
   vertex 46.3623 52.8762 404.44
  endloop
 endfacet
 facet normal 0.688768 -0.683324 0.242213
  outer loop
   vertex -17.9153 -12.4733 403.469
   vertex -17.0583 -11.02 405.132
   vertex -18.6217 -13.001 403.989
  endloop
 endfacet
 facet normal 0.776454 -0.57471 0.258512
  outer loop
   vertex 47.7801 54.1053 403.232
   vertex 47.1975 54.1148 405.003
   vertex 46.9969 53.5604 404.373
  endloop
 endfacet
 facet normal 0.621548 -0.749104 0.229176
  outer loop
   vertex -16.261 -10.4907 404.74
   vertex -15.419 -10.4896 402.46
   vertex -15.2946 -9.82652 404.29
  endloop
 endfacet
 facet normal 0.819762 -0.570644 0.0485377
  outer loop
   vertex 50.703 58.287 403.826
   vertex 51.2511 59.0492 403.53
   vertex 51.4282 59.3498 404.073
  endloop
 endfacet
 facet normal 0.624258 -0.725202 0.290489
  outer loop
   vertex -16.261 -10.4907 404.74
   vertex -17.0583 -11.02 405.132
   vertex -16.4638 -11.1892 403.432
  endloop
 endfacet
 facet normal 0.631207 -0.715316 0.299835
  outer loop
   vertex -17.9153 -12.4733 403.469
   vertex -17.4154 -12.0435 403.442
   vertex -17.0583 -11.02 405.132
  endloop
 endfacet
 facet normal 0.814865 -0.579624 0.00557957
  outer loop
   vertex 52.0317 60.1988 404.132
   vertex 51.4282 59.3498 404.073
   vertex 51.5558 59.525 403.638
  endloop
 endfacet
 facet normal 0.754422 -0.606323 0.251434
  outer loop
   vertex 47.1975 54.1148 405.003
   vertex 47.7801 54.1053 403.232
   vertex 47.831 54.9864 405.204
  endloop
 endfacet
 facet normal 0.764406 -0.59893 0.238676
  outer loop
   vertex 46.7859 52.9743 403.578
   vertex 47.7801 54.1053 403.232
   vertex 46.9969 53.5604 404.373
  endloop
 endfacet
 facet normal 0.750114 -0.582122 0.31379
  outer loop
   vertex 45.4657 51.5419 403.892
   vertex 46.1541 52.0484 403.186
   vertex 45.9342 52.4782 404.509
  endloop
 endfacet
 facet normal 0.631871 -0.74148 0.225712
  outer loop
   vertex -15.419 -10.4896 402.46
   vertex -14.3718 -9.11015 404.06
   vertex -15.2946 -9.82652 404.29
  endloop
 endfacet
 facet normal 0.690335 -0.677208 0.254613
  outer loop
   vertex -16.4638 -11.1892 403.432
   vertex -15.419 -10.4896 402.46
   vertex -16.261 -10.4907 404.74
  endloop
 endfacet
 facet normal 0.778447 -0.592059 0.208535
  outer loop
   vertex 47.831 54.9864 405.204
   vertex 48.9638 55.6326 402.81
   vertex 49.7796 56.8197 403.135
  endloop
 endfacet
 facet normal 0.640125 -0.709591 0.294484
  outer loop
   vertex -17.4154 -12.0435 403.442
   vertex -16.4638 -11.1892 403.432
   vertex -17.0583 -11.02 405.132
  endloop
 endfacet
 facet normal 0.799085 -0.556331 0.227944
  outer loop
   vertex 47.7801 54.1053 403.232
   vertex 48.9638 55.6326 402.81
   vertex 47.831 54.9864 405.204
  endloop
 endfacet
 facet normal 0.713556 -0.622774 0.32092
  outer loop
   vertex 46.1541 52.0484 403.186
   vertex 46.7859 52.9743 403.578
   vertex 45.9342 52.4782 404.509
  endloop
 endfacet
 facet normal 0.846521 -0.531721 0.0259926
  outer loop
   vertex 50.293 57.5932 402.986
   vertex 51.0419 58.8 403.283
   vertex 50.703 58.287 403.826
  endloop
 endfacet
 facet normal 0.836221 -0.546674 0.0433705
  outer loop
   vertex 49.7796 56.8197 403.135
   vertex 50.293 57.5932 402.986
   vertex 50.703 58.287 403.826
  endloop
 endfacet
 facet normal 0.727763 -0.617037 0.299378
  outer loop
   vertex 44.0999 49.2796 402.498
   vertex 44.8738 50.8367 403.826
   vertex 44.0934 49.7416 403.466
  endloop
 endfacet
 facet normal 0.728732 -0.636315 0.253087
  outer loop
   vertex 44.8738 50.8367 403.826
   vertex 46.0543 51.0201 400.888
   vertex 46.1541 52.0484 403.186
  endloop
 endfacet
 facet normal 0.622405 -0.741154 0.251601
  outer loop
   vertex -13.6064 -8.60894 403.643
   vertex -14.3718 -9.11015 404.06
   vertex -13.9068 -9.48448 401.807
  endloop
 endfacet
 facet normal 0.79947 -0.558481 0.221239
  outer loop
   vertex 47.7801 54.1053 403.232
   vertex 48.4512 54.7051 402.321
   vertex 48.9638 55.6326 402.81
  endloop
 endfacet
 facet normal 0.719548 -0.624833 0.303043
  outer loop
   vertex 42.9409 48.1103 402.839
   vertex 44.0999 49.2796 402.498
   vertex 44.0934 49.7416 403.466
  endloop
 endfacet
 facet normal 0.608088 -0.742157 0.281836
  outer loop
   vertex -12.364 -7.65535 403.173
   vertex -11.5269 -7.31733 402.257
   vertex -11.6835 -7.1707 402.981
  endloop
 endfacet
 facet normal 0.825198 -0.56478 -0.00845078
  outer loop
   vertex 49.7796 56.8197 403.135
   vertex 48.9638 55.6326 402.81
   vertex 49.5104 56.4358 402.505
  endloop
 endfacet
 facet normal 0.606381 -0.744462 0.279425
  outer loop
   vertex -12.6436 -8.57897 401.319
   vertex -11.5269 -7.31733 402.257
   vertex -12.364 -7.65535 403.173
  endloop
 endfacet
 facet normal 0.64785 -0.71633 0.259156
  outer loop
   vertex -12.6436 -8.57897 401.319
   vertex -12.364 -7.65535 403.173
   vertex -13.6064 -8.60894 403.643
  endloop
 endfacet
 facet normal 0.578698 -0.762618 0.289
  outer loop
   vertex -14.546 -9.89528 402.337
   vertex -14.3718 -9.11015 404.06
   vertex -15.0732 -10.1987 402.592
  endloop
 endfacet
 facet normal 0.764664 -0.601121 0.232256
  outer loop
   vertex 47.0816 52.83 402.231
   vertex 47.7801 54.1053 403.232
   vertex 46.7859 52.9743 403.578
  endloop
 endfacet
 facet normal 0.663063 -0.704205 0.253853
  outer loop
   vertex -14.546 -9.89528 402.337
   vertex -13.9068 -9.48448 401.807
   vertex -14.3718 -9.11015 404.06
  endloop
 endfacet
 facet normal 0.755169 -0.613301 0.231476
  outer loop
   vertex 46.1541 52.0484 403.186
   vertex 47.0816 52.83 402.231
   vertex 46.7859 52.9743 403.578
  endloop
 endfacet
 facet normal 0.721894 -0.636011 0.272689
  outer loop
   vertex 44.2599 48.5647 400.407
   vertex 44.0999 49.2796 402.498
   vertex 42.9409 48.1103 402.839
  endloop
 endfacet
 facet normal 0.746914 -0.605519 0.274712
  outer loop
   vertex 44.0999 49.2796 402.498
   vertex 45.4903 50.3382 401.051
   vertex 44.8738 50.8367 403.826
  endloop
 endfacet
 facet normal 0.876722 -0.480949 -0.00680644
  outer loop
   vertex 48.4512 54.7051 402.321
   vertex 48.8847 55.4974 402.175
   vertex 48.9638 55.6326 402.81
  endloop
 endfacet
 facet normal 0.785182 -0.58925 0.190455
  outer loop
   vertex 47.8238 53.7385 401.917
   vertex 48.4512 54.7051 402.321
   vertex 47.7801 54.1053 403.232
  endloop
 endfacet
 facet normal 0.757711 -0.607309 0.238849
  outer loop
   vertex 46.1541 52.0484 403.186
   vertex 46.0543 51.0201 400.888
   vertex 47.0816 52.83 402.231
  endloop
 endfacet
 facet normal 0.598181 -0.756942 0.263093
  outer loop
   vertex -13.6064 -8.60894 403.643
   vertex -13.9068 -9.48448 401.807
   vertex -13.2126 -8.90912 401.884
  endloop
 endfacet
 facet normal 0.497491 -0.867462 -0.00363791
  outer loop
   vertex -15.0732 -10.1987 402.592
   vertex -14.9065 -10.1016 402.235
   vertex -14.546 -9.89528 402.337
  endloop
 endfacet
 facet normal 0.732072 -0.598868 0.324696
  outer loop
   vertex 41.7276 46.2311 402.203
   vertex 42.5601 47.1734 402.064
   vertex 42.2621 47.1431 402.68
  endloop
 endfacet
 facet normal 0.668623 -0.693607 0.268055
  outer loop
   vertex -13.2126 -8.90912 401.884
   vertex -12.6436 -8.57897 401.319
   vertex -13.6064 -8.60894 403.643
  endloop
 endfacet
 facet normal 0.84118 -0.540602 -0.0128921
  outer loop
   vertex 47.8238 53.7385 401.917
   vertex 48.2034 54.3299 401.886
   vertex 48.4512 54.7051 402.321
  endloop
 endfacet
 facet normal 0.791456 -0.581438 0.188484
  outer loop
   vertex 47.0816 52.83 402.231
   vertex 47.8238 53.7385 401.917
   vertex 47.7801 54.1053 403.232
  endloop
 endfacet
 facet normal 0.772179 -0.573056 0.274494
  outer loop
   vertex 45.4903 50.3382 401.051
   vertex 46.0543 51.0201 400.888
   vertex 44.8738 50.8367 403.826
  endloop
 endfacet
 facet normal 0.764338 -0.566079 0.308775
  outer loop
   vertex 42.5601 47.1734 402.064
   vertex 44.2599 48.5647 400.407
   vertex 42.9409 48.1103 402.839
  endloop
 endfacet
 facet normal 0.842358 -0.53369 0.0748862
  outer loop
   vertex 46.5875 51.884 401.047
   vertex 47.0816 52.83 402.231
   vertex 46.0543 51.0201 400.888
  endloop
 endfacet
 facet normal 0.786442 -0.610841 0.0915593
  outer loop
   vertex 47.2484 52.9145 401.362
   vertex 47.8238 53.7385 401.917
   vertex 47.0816 52.83 402.231
  endloop
 endfacet
 facet normal 0.822558 -0.55918 0.103515
  outer loop
   vertex 46.5875 51.884 401.047
   vertex 47.2484 52.9145 401.362
   vertex 47.0816 52.83 402.231
  endloop
 endfacet
 facet normal 0.703306 -0.672566 0.230251
  outer loop
   vertex -10.744 -6.37129 402.629
   vertex -11.5269 -7.31733 402.257
   vertex -11.4385 -7.70315 400.86
  endloop
 endfacet
 facet normal 0.629202 -0.738064 0.243651
  outer loop
   vertex -12.6436 -8.57897 401.319
   vertex -11.4385 -7.70315 400.86
   vertex -11.5269 -7.31733 402.257
  endloop
 endfacet
 facet normal 0.584727 -0.802297 0.120055
  outer loop
   vertex -13.1152 -8.90592 401.431
   vertex -12.6436 -8.57897 401.319
   vertex -13.2126 -8.90912 401.884
  endloop
 endfacet
 facet normal 0.756738 -0.590488 0.280484
  outer loop
   vertex 42.5601 47.1734 402.064
   vertex 42.9469 46.9452 400.54
   vertex 44.2599 48.5647 400.407
  endloop
 endfacet
 facet normal 0.611409 -0.736896 0.28838
  outer loop
   vertex -9.84453 -6.67027 399.958
   vertex -9.32534 -5.6517 401.46
   vertex -10.744 -6.37129 402.629
  endloop
 endfacet
 facet normal 0.739653 -0.612247 0.279406
  outer loop
   vertex 41.7276 46.2311 402.203
   vertex 42.9469 46.9452 400.54
   vertex 42.5601 47.1734 402.064
  endloop
 endfacet
 facet normal 0.65207 -0.64392 0.400215
  outer loop
   vertex -8.32712 -5.00195 400.879
   vertex -8.57859 -4.96822 401.343
   vertex -9.32534 -5.6517 401.46
  endloop
 endfacet
 facet normal 0.77222 -0.612079 0.170399
  outer loop
   vertex 43.9755 48.0369 399.8
   vertex 44.2599 48.5647 400.407
   vertex 42.9469 46.9452 400.54
  endloop
 endfacet
 facet normal 0.831782 -0.454806 -0.31826
  outer loop
   vertex 46.0543 51.0201 400.888
   vertex 46.0822 51.1684 400.749
   vertex 46.5875 51.884 401.047
  endloop
 endfacet
 facet normal 0.609709 -0.738458 0.287983
  outer loop
   vertex -10.6179 -7.21482 400.199
   vertex -9.84453 -6.67027 399.958
   vertex -10.744 -6.37129 402.629
  endloop
 endfacet
 facet normal 0.647278 -0.709071 0.279731
  outer loop
   vertex -11.4385 -7.70315 400.86
   vertex -10.6179 -7.21482 400.199
   vertex -10.744 -6.37129 402.629
  endloop
 endfacet
 facet normal 0.758708 -0.576204 0.303892
  outer loop
   vertex 39.6834 42.5495 400.082
   vertex 39.7495 43.4134 401.555
   vertex 39.3055 42.5946 401.111
  endloop
 endfacet
 facet normal 0.715074 -0.635838 0.290481
  outer loop
   vertex 38.7503 41.8688 400.889
   vertex 39.6834 42.5495 400.082
   vertex 39.3055 42.5946 401.111
  endloop
 endfacet
 facet normal 0.625801 -0.746758 0.225223
  outer loop
   vertex -11.067 -7.59842 400.175
   vertex -10.6179 -7.21482 400.199
   vertex -11.4385 -7.70315 400.86
  endloop
 endfacet
 facet normal 0.725751 -0.637619 0.258318
  outer loop
   vertex 42.6728 46.2054 399.484
   vertex 42.9469 46.9452 400.54
   vertex 41.7276 46.2311 402.203
  endloop
 endfacet
 facet normal 0.751501 -0.586848 0.301424
  outer loop
   vertex 39.7495 43.4134 401.555
   vertex 40.8719 43.5502 399.023
   vertex 41.1164 45.4345 402.082
  endloop
 endfacet
 facet normal 0.664123 -0.697016 0.270387
  outer loop
   vertex -8.12709 -5.58255 398.891
   vertex -7.35546 -4.31316 400.268
   vertex -8.32712 -5.00195 400.879
  endloop
 endfacet
 facet normal 0.631828 -0.72461 0.275197
  outer loop
   vertex -9.32534 -5.6517 401.46
   vertex -8.12709 -5.58255 398.891
   vertex -8.32712 -5.00195 400.879
  endloop
 endfacet
 facet normal 0.780307 -0.560925 0.276558
  outer loop
   vertex 41.896 45.0464 399.325
   vertex 42.6728 46.2054 399.484
   vertex 41.7276 46.2311 402.203
  endloop
 endfacet
 facet normal 0.736229 -0.609538 0.29399
  outer loop
   vertex 41.1164 45.4345 402.082
   vertex 41.896 45.0464 399.325
   vertex 41.7276 46.2311 402.203
  endloop
 endfacet
 facet normal 0.412733 -0.90686 0.0851902
  outer loop
   vertex -11.067 -7.59842 400.175
   vertex -11.4385 -7.70315 400.86
   vertex -11.3674 -7.72612 400.271
  endloop
 endfacet
 facet normal 0.759236 -0.579473 0.296263
  outer loop
   vertex 40.8719 43.5502 399.023
   vertex 41.896 45.0464 399.325
   vertex 41.1164 45.4345 402.082
  endloop
 endfacet
 facet normal 0.757545 -0.577351 0.304617
  outer loop
   vertex 39.6834 42.5495 400.082
   vertex 40.8719 43.5502 399.023
   vertex 39.7495 43.4134 401.555
  endloop
 endfacet
 facet normal 0.658312 -0.708892 0.253177
  outer loop
   vertex -9.32534 -5.6517 401.46
   vertex -9.84453 -6.67027 399.958
   vertex -9.35192 -6.55138 399.01
  endloop
 endfacet
 facet normal 0.602074 -0.780423 0.168661
  outer loop
   vertex -10.6179 -7.21482 400.199
   vertex -10.1325 -6.9778 399.563
   vertex -9.84453 -6.67027 399.958
  endloop
 endfacet
 facet normal 0.794836 -0.574292 0.196021
  outer loop
   vertex 42.6728 46.2054 399.484
   vertex 43.1786 46.9382 399.58
   vertex 42.9469 46.9452 400.54
  endloop
 endfacet
 facet normal 0.65277 -0.703004 0.28227
  outer loop
   vertex -8.12709 -5.58255 398.891
   vertex -6.55769 -3.81331 399.668
   vertex -7.35546 -4.31316 400.268
  endloop
 endfacet
 facet normal 0.613764 -0.743232 0.26627
  outer loop
   vertex -9.32534 -5.6517 401.46
   vertex -9.35192 -6.55138 399.01
   vertex -8.12709 -5.58255 398.891
  endloop
 endfacet
 facet normal 0.734571 -0.607941 0.301353
  outer loop
   vertex 37.0818 39.2674 399.711
   vertex 38.1682 39.7042 397.944
   vertex 37.8929 40.4477 400.115
  endloop
 endfacet
 facet normal 0.690326 -0.651506 0.314625
  outer loop
   vertex 38.0051 41.1981 400.966
   vertex 39.7619 42.0667 398.91
   vertex 39.6834 42.5495 400.082
  endloop
 endfacet
 facet normal 0.637851 -0.731923 0.239656
  outer loop
   vertex -9.35192 -6.55138 399.01
   vertex -9.84453 -6.67027 399.958
   vertex -9.66594 -6.71928 399.333
  endloop
 endfacet
 facet normal 0.553819 -0.802718 0.221196
  outer loop
   vertex -10.1325 -6.9778 399.563
   vertex -9.66594 -6.71928 399.333
   vertex -9.84453 -6.67027 399.958
  endloop
 endfacet
 facet normal 0.872127 -0.41828 0.253843
  outer loop
   vertex 37.8929 40.4477 400.115
   vertex 38.1682 39.7042 397.944
   vertex 38.0051 41.1981 400.966
  endloop
 endfacet
 facet normal 0.815497 -0.57366 0.0766754
  outer loop
   vertex 41.6529 44.6273 398.775
   vertex 41.896 45.0464 399.325
   vertex 40.8719 43.5502 399.023
  endloop
 endfacet
 facet normal 0.657681 -0.650036 0.380669
  outer loop
   vertex 35.2073 35.9894 397.744
   vertex 35.6387 37.4144 399.432
   vertex 35.0468 36.8659 399.518
  endloop
 endfacet
 facet normal 0.754867 -0.587087 0.292411
  outer loop
   vertex 39.6834 42.5495 400.082
   vertex 39.7619 42.0667 398.91
   vertex 40.8719 43.5502 399.023
  endloop
 endfacet
 facet normal 0.732197 -0.581995 0.353793
  outer loop
   vertex 34.7249 36.1126 398.945
   vertex 35.2073 35.9894 397.744
   vertex 35.0468 36.8659 399.518
  endloop
 endfacet
 facet normal 0.701668 -0.629597 0.333572
  outer loop
   vertex 38.0051 41.1981 400.966
   vertex 38.9067 40.6855 398.102
   vertex 39.7619 42.0667 398.91
  endloop
 endfacet
 facet normal 0.725803 -0.600303 0.335927
  outer loop
   vertex 38.1682 39.7042 397.944
   vertex 38.9067 40.6855 398.102
   vertex 38.0051 41.1981 400.966
  endloop
 endfacet
 facet normal 0.769848 -0.593836 0.233865
  outer loop
   vertex 39.7619 42.0667 398.91
   vertex 40.484 42.8323 398.477
   vertex 40.8719 43.5502 399.023
  endloop
 endfacet
 facet normal 0.633736 -0.745816 0.205274
  outer loop
   vertex 35.9613 38.4207 400.094
   vertex 38.1682 39.7042 397.944
   vertex 37.0818 39.2674 399.711
  endloop
 endfacet
 facet normal 0.612415 -0.740106 0.277834
  outer loop
   vertex -9.35192 -6.55138 399.01
   vertex -8.62759 -6.12471 398.55
   vertex -8.12709 -5.58255 398.891
  endloop
 endfacet
 facet normal 0.709284 -0.600148 0.369782
  outer loop
   vertex 35.9613 38.4207 400.094
   vertex 37.658 39.0698 397.893
   vertex 38.1682 39.7042 397.944
  endloop
 endfacet
 facet normal 0.691862 -0.635323 0.343063
  outer loop
   vertex 33.968 35.169 398.724
   vertex 35.2073 35.9894 397.744
   vertex 34.7249 36.1126 398.945
  endloop
 endfacet
 facet normal 0.769698 -0.594785 0.231937
  outer loop
   vertex 39.9227 41.9753 398.142
   vertex 40.484 42.8323 398.477
   vertex 39.7619 42.0667 398.91
  endloop
 endfacet
 facet normal 0.599794 -0.748983 0.281552
  outer loop
   vertex -6.6208 -4.91189 396.88
   vertex -5.87261 -3.60715 398.757
   vertex -6.55769 -3.81331 399.668
  endloop
 endfacet
 facet normal 0.641791 -0.714479 0.278613
  outer loop
   vertex -5.87261 -3.60715 398.757
   vertex -5.07245 -3.40235 397.439
   vertex -5.47385 -3.17057 398.958
  endloop
 endfacet
 facet normal 0.667376 -0.701632 0.249644
  outer loop
   vertex -8.12709 -5.58255 398.891
   vertex -7.86903 -5.60252 398.145
   vertex -6.55769 -3.81331 399.668
  endloop
 endfacet
 facet normal 0.633935 -0.735536 0.238983
  outer loop
   vertex -8.62759 -6.12471 398.55
   vertex -7.86903 -5.60252 398.145
   vertex -8.12709 -5.58255 398.891
  endloop
 endfacet
 facet normal 0.687197 -0.649624 0.325191
  outer loop
   vertex 35.2073 35.9894 397.744
   vertex 33.968 35.169 398.724
   vertex 33.2865 34.375 398.578
  endloop
 endfacet
 facet normal 0.850004 -0.516764 -0.102221
  outer loop
   vertex 39.9227 41.9753 398.142
   vertex 40.3912 42.7475 398.134
   vertex 40.484 42.8323 398.477
  endloop
 endfacet
 facet normal 0.760722 -0.606414 0.231441
  outer loop
   vertex 38.9067 40.6855 398.102
   vertex 39.9227 41.9753 398.142
   vertex 39.7619 42.0667 398.91
  endloop
 endfacet
 facet normal 0.694313 -0.67479 0.250177
  outer loop
   vertex -7.12905 -5.09116 397.807
   vertex -6.6208 -4.91189 396.88
   vertex -6.55769 -3.81331 399.668
  endloop
 endfacet
 facet normal 0.686001 -0.616868 0.385844
  outer loop
   vertex 33.2865 34.375 398.578
   vertex 32.8834 33.7053 398.224
   vertex 35.2073 35.9894 397.744
  endloop
 endfacet
 facet normal 0.631054 -0.716202 0.298035
  outer loop
   vertex -6.55769 -3.81331 399.668
   vertex -7.86903 -5.60252 398.145
   vertex -7.12905 -5.09116 397.807
  endloop
 endfacet
 facet normal 0.680148 -0.653847 0.331485
  outer loop
   vertex 35.9613 38.4207 400.094
   vertex 37.4027 38.4686 397.231
   vertex 37.658 39.0698 397.893
  endloop
 endfacet
 facet normal 0.622875 -0.736538 0.263701
  outer loop
   vertex -5.87261 -3.60715 398.757
   vertex -6.6208 -4.91189 396.88
   vertex -5.07245 -3.40235 397.439
  endloop
 endfacet
 facet normal 0.698238 -0.645252 0.310023
  outer loop
   vertex 31.9064 32.453 397.818
   vertex 35.2073 35.9894 397.744
   vertex 32.8834 33.7053 398.224
  endloop
 endfacet
 facet normal 0.665754 -0.691085 0.281376
  outer loop
   vertex -5.07245 -3.40235 397.439
   vertex -3.93851 -2.20411 397.699
   vertex -5.47385 -3.17057 398.958
  endloop
 endfacet
 facet normal 0.618154 -0.758736 0.205439
  outer loop
   vertex -7.63931 -5.52475 397.741
   vertex -7.12905 -5.09116 397.807
   vertex -7.86903 -5.60252 398.145
  endloop
 endfacet
 facet normal 0.616131 -0.767264 0.178012
  outer loop
   vertex -7.48671 -5.43475 397.564
   vertex -7.1139 -5.19291 397.316
   vertex -7.12905 -5.09116 397.807
  endloop
 endfacet
 facet normal 0.628204 -0.762699 0.153788
  outer loop
   vertex -7.63931 -5.52475 397.741
   vertex -7.48671 -5.43475 397.564
   vertex -7.12905 -5.09116 397.807
  endloop
 endfacet
 facet normal 0.745242 -0.568276 0.348823
  outer loop
   vertex 35.9732 36.6691 397.215
   vertex 35.9613 38.4207 400.094
   vertex 35.2073 35.9894 397.744
  endloop
 endfacet
 facet normal 0.708 -0.615563 0.346148
  outer loop
   vertex 36.8022 37.553 396.831
   vertex 37.4027 38.4686 397.231
   vertex 35.9613 38.4207 400.094
  endloop
 endfacet
 facet normal 0.822904 -0.54092 0.17388
  outer loop
   vertex 37.4027 38.4686 397.231
   vertex 37.9891 39.2543 396.9
   vertex 37.658 39.0698 397.893
  endloop
 endfacet
 facet normal 0.754886 -0.558913 0.343166
  outer loop
   vertex 35.9732 36.6691 397.215
   vertex 36.8022 37.553 396.831
   vertex 35.9613 38.4207 400.094
  endloop
 endfacet
 facet normal 0.597667 -0.733171 0.324429
  outer loop
   vertex -5.07245 -3.40235 397.439
   vertex -6.6208 -4.91189 396.88
   vertex -5.94468 -4.45145 396.675
  endloop
 endfacet
 facet normal 0.628486 -0.72594 0.279315
  outer loop
   vertex -5.94468 -4.45145 396.675
   vertex -5.05525 -3.90958 396.082
   vertex -5.07245 -3.40235 397.439
  endloop
 endfacet
 facet normal 0.73844 -0.606835 0.294036
  outer loop
   vertex 30.4035 30.1898 397.004
   vertex 31.776 30.3981 393.987
   vertex 30.9354 30.9863 397.312
  endloop
 endfacet
 facet normal 0.714855 -0.631922 0.299428
  outer loop
   vertex 34.5022 34.2114 395.675
   vertex 35.1373 34.9924 395.807
   vertex 35.2073 35.9894 397.744
  endloop
 endfacet
 facet normal 0.616533 -0.74105 0.265957
  outer loop
   vertex -2.97945 -1.69977 396.881
   vertex -3.93851 -2.20411 397.699
   vertex -4.12855 -3.42598 394.735
  endloop
 endfacet
 facet normal 0.677781 -0.694066 0.242661
  outer loop
   vertex -3.93851 -2.20411 397.699
   vertex -5.07245 -3.40235 397.439
   vertex -4.12855 -3.42598 394.735
  endloop
 endfacet
 facet normal 0.739066 -0.609445 0.286983
  outer loop
   vertex 35.1373 34.9924 395.807
   vertex 35.9732 36.6691 397.215
   vertex 35.2073 35.9894 397.744
  endloop
 endfacet
 facet normal 0.711257 -0.655433 0.254009
  outer loop
   vertex -5.07245 -3.40235 397.439
   vertex -5.05525 -3.90958 396.082
   vertex -4.12855 -3.42598 394.735
  endloop
 endfacet
 facet normal 0.757833 -0.608563 0.235244
  outer loop
   vertex 36.2463 36.6292 396.232
   vertex 36.8022 37.553 396.831
   vertex 35.9732 36.6691 397.215
  endloop
 endfacet
 facet normal 0.7039 -0.651083 0.28393
  outer loop
   vertex 33.4796 32.8412 394.808
   vertex 35.2073 35.9894 397.744
   vertex 31.9064 32.453 397.818
  endloop
 endfacet
 facet normal 0.548329 -0.770152 0.325886
  outer loop
   vertex -4.12855 -3.42598 394.735
   vertex -3.2198 -2.88095 394.494
   vertex -2.97945 -1.69977 396.881
  endloop
 endfacet
 facet normal 0.732786 -0.597472 0.325656
  outer loop
   vertex 30.9354 30.9863 397.312
   vertex 32.588 31.7868 395.062
   vertex 31.9064 32.453 397.818
  endloop
 endfacet
 facet normal 0.619511 -0.744479 0.248911
  outer loop
   vertex -5.56903 -4.35985 396.014
   vertex -5.05525 -3.90958 396.082
   vertex -5.94468 -4.45145 396.675
  endloop
 endfacet
 facet normal 0.599025 -0.696745 0.394607
  outer loop
   vertex 33.4796 32.8412 394.808
   vertex 34.5022 34.2114 395.675
   vertex 35.2073 35.9894 397.744
  endloop
 endfacet
 facet normal 0.759427 -0.564077 0.324172
  outer loop
   vertex 32.588 31.7868 395.062
   vertex 33.4796 32.8412 394.808
   vertex 31.9064 32.453 397.818
  endloop
 endfacet
 facet normal 0.63346 -0.716971 0.290998
  outer loop
   vertex -2.97945 -1.69977 396.881
   vertex -3.2198 -2.88095 394.494
   vertex -1.78747 -0.899085 396.259
  endloop
 endfacet
 facet normal 0.765997 -0.592098 0.250337
  outer loop
   vertex 35.6532 35.7541 396.03
   vertex 35.9732 36.6691 397.215
   vertex 35.1373 34.9924 395.807
  endloop
 endfacet
 facet normal 0.709227 -0.641322 0.292751
  outer loop
   vertex 32.588 31.7868 395.062
   vertex 30.9354 30.9863 397.312
   vertex 31.776 30.3981 393.987
  endloop
 endfacet
 facet normal 0.760616 -0.572289 0.306509
  outer loop
   vertex 29.5555 28.8137 396.539
   vertex 31.776 30.3981 393.987
   vertex 30.4035 30.1898 397.004
  endloop
 endfacet
 facet normal 0.777123 -0.581986 0.239524
  outer loop
   vertex 35.9732 36.6691 397.215
   vertex 35.6532 35.7541 396.03
   vertex 36.2463 36.6292 396.232
  endloop
 endfacet
 facet normal 0.876208 -0.449461 -0.173909
  outer loop
   vertex 36.1605 36.5517 396
   vertex 36.4524 37.0809 396.103
   vertex 36.2463 36.6292 396.232
  endloop
 endfacet
 facet normal 0.769235 -0.547526 0.329382
  outer loop
   vertex 29.5555 28.8137 396.539
   vertex 31.1568 29.5775 394.069
   vertex 31.776 30.3981 393.987
  endloop
 endfacet
 facet normal 0.840884 -0.523851 -0.135994
  outer loop
   vertex 35.8853 36.1411 395.88
   vertex 36.1605 36.5517 396
   vertex 36.2463 36.6292 396.232
  endloop
 endfacet
 facet normal 0.834307 -0.541161 -0.105245
  outer loop
   vertex 35.6532 35.7541 396.03
   vertex 35.8853 36.1411 395.88
   vertex 36.2463 36.6292 396.232
  endloop
 endfacet
 facet normal 0.825969 -0.54746 -0.134399
  outer loop
   vertex 35.5376 35.6639 395.687
   vertex 35.8853 36.1411 395.88
   vertex 35.6532 35.7541 396.03
  endloop
 endfacet
 facet normal 0.72966 -0.580142 0.361982
  outer loop
   vertex 27.6431 26.0771 395.984
   vertex 28.3391 26.5781 395.384
   vertex 27.9572 26.4684 395.978
  endloop
 endfacet
 facet normal 0.75768 -0.580815 0.297616
  outer loop
   vertex 29.0386 28.0733 396.41
   vertex 30.3477 28.4216 393.757
   vertex 29.5555 28.8137 396.539
  endloop
 endfacet
 facet normal 0.778228 -0.559611 0.28495
  outer loop
   vertex 28.3391 26.5781 395.384
   vertex 29.4792 27.1503 393.394
   vertex 29.0386 28.0733 396.41
  endloop
 endfacet
 facet normal 0.769322 -0.569808 0.288897
  outer loop
   vertex 27.0163 24.7797 395.323
   vertex 27.3925 24.6711 394.107
   vertex 27.4118 25.3076 395.311
  endloop
 endfacet
 facet normal 0.750044 -0.596674 0.285332
  outer loop
   vertex 26.6247 24.1392 395.013
   vertex 27.3925 24.6711 394.107
   vertex 27.0163 24.7797 395.323
  endloop
 endfacet
 facet normal 0.657238 -0.707163 0.260689
  outer loop
   vertex -3.2198 -2.88095 394.494
   vertex -2.52315 -2.3942 394.058
   vertex -1.78747 -0.899085 396.259
  endloop
 endfacet
 facet normal 0.749045 -0.594944 0.2915
  outer loop
   vertex 29.0386 28.0733 396.41
   vertex 29.4792 27.1503 393.394
   vertex 30.3477 28.4216 393.757
  endloop
 endfacet
 facet normal 0.747266 -0.602997 0.279265
  outer loop
   vertex 26.6247 24.1392 395.013
   vertex 26.58 23.8189 394.441
   vertex 27.3925 24.6711 394.107
  endloop
 endfacet
 facet normal 0.624761 -0.73363 0.267321
  outer loop
   vertex -1.71379 -1.97284 393.14
   vertex -0.694004 -0.372712 395.148
   vertex -1.78747 -0.899085 396.259
  endloop
 endfacet
 facet normal 0.743085 -0.600087 0.296176
  outer loop
   vertex 30.3477 28.4216 393.757
   vertex 31.1568 29.5775 394.069
   vertex 29.5555 28.8137 396.539
  endloop
 endfacet
 facet normal 0.651618 -0.685378 0.32504
  outer loop
   vertex 0.102713 0.327375 395.027
   vertex -0.694004 -0.372712 395.148
   vertex 0.149486 0.126658 394.51
  endloop
 endfacet
 facet normal 0.660216 -0.705233 0.258383
  outer loop
   vertex -1.71379 -1.97284 393.14
   vertex -1.78747 -0.899085 396.259
   vertex -2.52315 -2.3942 394.058
  endloop
 endfacet
 facet normal 0.671161 -0.71973 0.17757
  outer loop
   vertex 27.6431 26.0771 395.984
   vertex 29.4792 27.1503 393.394
   vertex 28.3391 26.5781 395.384
  endloop
 endfacet
 facet normal 0.630617 -0.730567 0.261906
  outer loop
   vertex -1.71379 -1.97284 393.14
   vertex 0.149486 0.126658 394.51
   vertex -0.694004 -0.372712 395.148
  endloop
 endfacet
 facet normal 0.547486 -0.786607 0.285497
  outer loop
   vertex -4.12855 -3.42598 394.735
   vertex -3.57236 -3.15283 394.421
   vertex -3.2198 -2.88095 394.494
  endloop
 endfacet
 facet normal 0.756921 -0.583155 0.294958
  outer loop
   vertex 27.6431 26.0771 395.984
   vertex 28.5129 25.8298 393.263
   vertex 29.4792 27.1503 393.394
  endloop
 endfacet
 facet normal 0.695297 -0.651601 0.303279
  outer loop
   vertex 26.6402 23.1147 392.79
   vertex 26.58 23.8189 394.441
   vertex 25.9325 23.0051 394.177
  endloop
 endfacet
 facet normal 0.659795 -0.696686 0.281601
  outer loop
   vertex 24.6362 21.716 394.025
   vertex 26.6402 23.1147 392.79
   vertex 25.9325 23.0051 394.177
  endloop
 endfacet
 facet normal 0.785632 -0.540928 0.300298
  outer loop
   vertex 27.6431 26.0771 395.984
   vertex 27.3925 24.6711 394.107
   vertex 28.5129 25.8298 393.263
  endloop
 endfacet
 facet normal 0.619699 -0.75952 0.197743
  outer loop
   vertex -2.1557 -2.25868 393.427
   vertex -1.71379 -1.97284 393.14
   vertex -2.52315 -2.3942 394.058
  endloop
 endfacet
 facet normal 0.63262 -0.730074 0.258426
  outer loop
   vertex 0.149486 0.126658 394.51
   vertex -1.71379 -1.97284 393.14
   vertex -0.816667 -1.36255 392.668
  endloop
 endfacet
 facet normal 0.617787 -0.744028 0.254481
  outer loop
   vertex 2.09163 0.453901 390.552
   vertex 2.22547 1.54495 393.417
   vertex 1.36006 0.980639 393.868
  endloop
 endfacet
 facet normal 0.76797 -0.616745 0.172763
  outer loop
   vertex 28.1397 25.2029 392.684
   vertex 28.5129 25.8298 393.263
   vertex 27.3925 24.6711 394.107
  endloop
 endfacet
 facet normal 0.50851 -0.858072 -0.0716257
  outer loop
   vertex -2.1557 -2.25868 393.427
   vertex -2.09019 -2.19298 393.105
   vertex -1.71379 -1.97284 393.14
  endloop
 endfacet
 facet normal 0.6443 -0.720445 0.256585
  outer loop
   vertex 2.09163 0.453901 390.552
   vertex 1.36006 0.980639 393.868
   vertex 0.149486 0.126658 394.51
  endloop
 endfacet
 facet normal 0.747346 -0.604076 0.276706
  outer loop
   vertex 27.289 23.8807 392.661
   vertex 27.3925 24.6711 394.107
   vertex 26.58 23.8189 394.441
  endloop
 endfacet
 facet normal 0.755249 -0.592499 0.280256
  outer loop
   vertex 26.6402 23.1147 392.79
   vertex 27.289 23.8807 392.661
   vertex 26.58 23.8189 394.441
  endloop
 endfacet
 facet normal 0.63249 -0.733223 0.24968
  outer loop
   vertex 3.45922 2.38855 392.769
   vertex 2.22547 1.54495 393.417
   vertex 2.09163 0.453901 390.552
  endloop
 endfacet
 facet normal 0.792217 -0.593714 0.141049
  outer loop
   vertex 28.5129 25.8298 393.263
   vertex 29.1691 26.5859 392.76
   vertex 29.4792 27.1503 393.394
  endloop
 endfacet
 facet normal 0.816419 -0.529294 0.230885
  outer loop
   vertex 27.289 23.8807 392.661
   vertex 28.1397 25.2029 392.684
   vertex 27.3925 24.6711 394.107
  endloop
 endfacet
 facet normal 0.382931 -0.908872 -0.165271
  outer loop
   vertex -1.38635 -1.78487 392.865
   vertex -1.71379 -1.97284 393.14
   vertex -1.82656 -1.96598 392.841
  endloop
 endfacet
 facet normal 0.508042 -0.835148 -0.210764
  outer loop
   vertex -1.71379 -1.97284 393.14
   vertex -2.09019 -2.19298 393.105
   vertex -1.82656 -1.96598 392.841
  endloop
 endfacet
 facet normal 0.649065 -0.721046 0.242502
  outer loop
   vertex 0.149486 0.126658 394.51
   vertex -0.816667 -1.36255 392.668
   vertex -0.26483 -1.09114 391.998
  endloop
 endfacet
 facet normal 0.630853 -0.734938 0.248779
  outer loop
   vertex -1.38635 -1.78487 392.865
   vertex -0.816667 -1.36255 392.668
   vertex -1.71379 -1.97284 393.14
  endloop
 endfacet
 facet normal 0.648312 -0.715997 0.258921
  outer loop
   vertex 2.09163 0.453901 390.552
   vertex 0.149486 0.126658 394.51
   vertex 0.436849 -0.526251 391.985
  endloop
 endfacet
 facet normal 0.602633 -0.74718 0.280277
  outer loop
   vertex 3.45922 2.38855 392.769
   vertex 2.09163 0.453901 390.552
   vertex 3.74223 2.09052 391.366
  endloop
 endfacet
 facet normal 0.764608 -0.615352 0.191617
  outer loop
   vertex 26.6402 23.1147 392.79
   vertex 26.6123 22.844 392.032
   vertex 27.289 23.8807 392.661
  endloop
 endfacet
 facet normal 0.66252 -0.688268 0.295557
  outer loop
   vertex 24.6362 21.716 394.025
   vertex 25.8698 22.1116 392.181
   vertex 26.6402 23.1147 392.79
  endloop
 endfacet
 facet normal 0.607983 -0.749158 0.262906
  outer loop
   vertex -0.26483 -1.09114 391.998
   vertex 0.436849 -0.526251 391.985
   vertex 0.149486 0.126658 394.51
  endloop
 endfacet
 facet normal 0.70738 -0.673504 0.21449
  outer loop
   vertex 26.6402 23.1147 392.79
   vertex 25.8698 22.1116 392.181
   vertex 26.6123 22.844 392.032
  endloop
 endfacet
 facet normal 0.62902 -0.731213 0.263933
  outer loop
   vertex 25.5525 21.4629 391.14
   vertex 25.8698 22.1116 392.181
   vertex 24.6362 21.716 394.025
  endloop
 endfacet
 facet normal 0.694206 -0.663627 0.278707
  outer loop
   vertex 24.6362 21.716 394.025
   vertex 24.2133 20.8192 392.943
   vertex 25.5525 21.4629 391.14
  endloop
 endfacet
 facet normal 0.635507 -0.738851 0.224122
  outer loop
   vertex -0.816667 -1.36255 392.668
   vertex -0.604605 -1.31635 392.219
   vertex -0.26483 -1.09114 391.998
  endloop
 endfacet
 facet normal 0.62213 -0.730848 0.280741
  outer loop
   vertex 3.74223 2.09052 391.366
   vertex 4.51659 3.04393 392.132
   vertex 3.45922 2.38855 392.769
  endloop
 endfacet
 facet normal 0.551427 -0.745649 0.37408
  outer loop
   vertex 21.7881 18.2501 391.767
   vertex 22.5706 19.3701 392.846
   vertex 21.6462 18.6323 392.738
  endloop
 endfacet
 facet normal 0.588115 -0.797677 0.133538
  outer loop
   vertex 2.09163 0.453901 390.552
   vertex 0.436849 -0.526251 391.985
   vertex 1.34309 -0.0256649 390.984
  endloop
 endfacet
 facet normal 0.708498 -0.679526 0.19046
  outer loop
   vertex 25.8698 22.1116 392.181
   vertex 26.0324 22.0883 391.493
   vertex 26.6123 22.844 392.032
  endloop
 endfacet
 facet normal 0.615664 -0.768802 0.17292
  outer loop
   vertex 0.562232 -0.556068 391.406
   vertex 1.34309 -0.0256649 390.984
   vertex 0.436849 -0.526251 391.985
  endloop
 endfacet
 facet normal 0.640192 -0.68568 0.346406
  outer loop
   vertex 5.92334 4.20967 391.822
   vertex 5.16854 3.57719 391.965
   vertex 5.96238 3.92835 391.193
  endloop
 endfacet
 facet normal 0.650725 -0.720666 0.23916
  outer loop
   vertex 3.74223 2.09052 391.366
   vertex 5.16854 3.57719 391.965
   vertex 4.51659 3.04393 392.132
  endloop
 endfacet
 facet normal 0.60745 -0.710404 0.355432
  outer loop
   vertex 5.92334 4.20967 391.822
   vertex 5.96238 3.92835 391.193
   vertex 6.6674 4.70732 391.545
  endloop
 endfacet
 facet normal 0.57814 -0.798803 0.166339
  outer loop
   vertex 0.295476 -0.72831 391.506
   vertex 0.562232 -0.556068 391.406
   vertex 0.436849 -0.526251 391.985
  endloop
 endfacet
 facet normal 0.638382 -0.711015 0.294833
  outer loop
   vertex 5.96238 3.92835 391.193
   vertex 7.28445 4.95116 390.797
   vertex 6.6674 4.70732 391.545
  endloop
 endfacet
 facet normal 0.722667 -0.663626 0.193271
  outer loop
   vertex 26.0324 22.0883 391.493
   vertex 25.8698 22.1116 392.181
   vertex 25.5525 21.4629 391.14
  endloop
 endfacet
 facet normal 0.814278 -0.573229 -0.0914299
  outer loop
   vertex 25.5525 21.4629 391.14
   vertex 25.7513 21.7528 391.093
   vertex 26.0324 22.0883 391.493
  endloop
 endfacet
 facet normal 0.620413 -0.720263 0.310337
  outer loop
   vertex 5.16854 3.57719 391.965
   vertex 3.74223 2.09052 391.366
   vertex 5.96238 3.92835 391.193
  endloop
 endfacet
 facet normal 0.663496 -0.708709 0.239802
  outer loop
   vertex 24.7427 20.5552 390.698
   vertex 25.5525 21.4629 391.14
   vertex 24.2133 20.8192 392.943
  endloop
 endfacet
 facet normal 0.631542 -0.732858 0.253128
  outer loop
   vertex 22.5706 19.3701 392.846
   vertex 23.8218 19.7634 390.863
   vertex 24.2133 20.8192 392.943
  endloop
 endfacet
 facet normal 0.63794 -0.732056 0.23901
  outer loop
   vertex 5.92157 3.21303 389.111
   vertex 7.28445 4.95116 390.797
   vertex 5.96238 3.92835 391.193
  endloop
 endfacet
 facet normal 0.657328 -0.714685 0.23905
  outer loop
   vertex 24.2133 20.8192 392.943
   vertex 23.8218 19.7634 390.863
   vertex 24.7427 20.5552 390.698
  endloop
 endfacet
 facet normal 0.649 -0.71191 0.268298
  outer loop
   vertex 21.7881 18.2501 391.767
   vertex 23.8218 19.7634 390.863
   vertex 22.5706 19.3701 392.846
  endloop
 endfacet
 facet normal 0.449612 -0.872814 -0.189856
  outer loop
   vertex 1.50098 0.115486 390.709
   vertex 2.09163 0.453901 390.552
   vertex 1.34309 -0.0256649 390.984
  endloop
 endfacet
 facet normal 0.627355 -0.74518 0.226125
  outer loop
   vertex 3.74223 2.09052 391.366
   vertex 2.09163 0.453901 390.552
   vertex 3.97641 1.78425 389.707
  endloop
 endfacet
 facet normal 0.657915 -0.717521 0.228715
  outer loop
   vertex 23.9707 19.563 389.806
   vertex 24.7427 20.5552 390.698
   vertex 23.8218 19.7634 390.863
  endloop
 endfacet
 facet normal 0.644068 -0.74214 0.185486
  outer loop
   vertex 23.8056 19.2167 388.629
   vertex 21.7881 18.2501 391.767
   vertex 21.1463 17.7441 391.971
  endloop
 endfacet
 facet normal 0.62991 -0.738235 0.241291
  outer loop
   vertex 3.74223 2.09052 391.366
   vertex 5.92157 3.21303 389.111
   vertex 5.96238 3.92835 391.193
  endloop
 endfacet
 facet normal 0.662682 -0.718668 0.21064
  outer loop
   vertex 19.867 16.342 391.212
   vertex 23.8056 19.2167 388.629
   vertex 21.1463 17.7441 391.971
  endloop
 endfacet
 facet normal 0.641703 -0.72141 0.260355
  outer loop
   vertex 7.13192 4.21495 389.133
   vertex 8.61604 6.20131 390.979
   vertex 7.28445 4.95116 390.797
  endloop
 endfacet
 facet normal 0.637274 -0.749603 0.178819
  outer loop
   vertex 23.8056 19.2167 388.629
   vertex 23.8218 19.7634 390.863
   vertex 21.7881 18.2501 391.767
  endloop
 endfacet
 facet normal 0.616565 -0.740008 0.268766
  outer loop
   vertex 17.2571 13.7965 390.364
   vertex 16.241 12.9045 390.239
   vertex 16.9365 12.422 387.315
  endloop
 endfacet
 facet normal 0.610494 -0.74349 0.272984
  outer loop
   vertex 7.28445 4.95116 390.797
   vertex 5.92157 3.21303 389.111
   vertex 7.13192 4.21495 389.133
  endloop
 endfacet
 facet normal 0.653689 -0.713479 0.252267
  outer loop
   vertex 4.5036 2.16191 389.595
   vertex 5.04739 2.59295 389.405
   vertex 3.74223 2.09052 391.366
  endloop
 endfacet
 facet normal 0.633464 -0.727766 0.262832
  outer loop
   vertex 18.0529 14.6075 390.786
   vertex 19.5927 14.9333 387.977
   vertex 19.0212 15.5305 391.008
  endloop
 endfacet
 facet normal 0.598564 -0.768431 0.226353
  outer loop
   vertex 3.97641 1.78425 389.707
   vertex 4.5036 2.16191 389.595
   vertex 3.74223 2.09052 391.366
  endloop
 endfacet
 facet normal 0.623306 -0.732999 0.272402
  outer loop
   vertex 8.61604 6.20131 390.979
   vertex 9.32357 5.80774 388.301
   vertex 10.2743 7.20151 389.876
  endloop
 endfacet
 facet normal 0.634218 -0.727105 0.262844
  outer loop
   vertex 19.5927 14.9333 387.977
   vertex 19.867 16.342 391.212
   vertex 19.0212 15.5305 391.008
  endloop
 endfacet
 facet normal 0.611836 -0.762055 0.211965
  outer loop
   vertex 5.04739 2.59295 389.405
   vertex 5.92157 3.21303 389.111
   vertex 3.74223 2.09052 391.366
  endloop
 endfacet
 facet normal 0.629509 -0.727374 0.273214
  outer loop
   vertex 9.32357 5.80774 388.301
   vertex 8.61604 6.20131 390.979
   vertex 8.37355 5.14405 388.723
  endloop
 endfacet
 facet normal 0.64912 -0.684677 0.331453
  outer loop
   vertex 12.6264 9.13511 389.277
   vertex 13.7711 10.6696 390.205
   vertex 12.3375 9.248 390.076
  endloop
 endfacet
 facet normal 0.634775 -0.69946 0.328354
  outer loop
   vertex 10.7081 7.93547 390.43
   vertex 12.6264 9.13511 389.277
   vertex 12.3375 9.248 390.076
  endloop
 endfacet
 facet normal 0.624518 -0.780848 0.0159463
  outer loop
   vertex 5.04739 2.59295 389.405
   vertex 4.5036 2.16191 389.595
   vertex 4.67437 2.29216 389.285
  endloop
 endfacet
 facet normal 0.620842 -0.741538 0.254316
  outer loop
   vertex 17.2571 13.7965 390.364
   vertex 19.5927 14.9333 387.977
   vertex 18.0529 14.6075 390.786
  endloop
 endfacet
 facet normal 0.671765 -0.698326 0.247129
  outer loop
   vertex 19.5927 14.9333 387.977
   vertex 23.8056 19.2167 388.629
   vertex 19.867 16.342 391.212
  endloop
 endfacet
 facet normal 0.618321 -0.751969 0.228523
  outer loop
   vertex 6.65824 3.67412 388.635
   vertex 7.13192 4.21495 389.133
   vertex 5.92157 3.21303 389.111
  endloop
 endfacet
 facet normal 0.638339 -0.718614 0.275894
  outer loop
   vertex 15.4783 11.3098 387.85
   vertex 16.241 12.9045 390.239
   vertex 14.9849 11.8202 390.321
  endloop
 endfacet
 facet normal 0.646588 -0.711159 0.276001
  outer loop
   vertex 14.9849 11.8202 390.321
   vertex 14.705 10.5124 387.607
   vertex 15.4783 11.3098 387.85
  endloop
 endfacet
 facet normal 0.64729 -0.710644 0.275681
  outer loop
   vertex 14.705 10.5124 387.607
   vertex 14.9849 11.8202 390.321
   vertex 13.7711 10.6696 390.205
  endloop
 endfacet
 facet normal 0.684738 -0.675795 0.27283
  outer loop
   vertex 13.7711 10.6696 390.205
   vertex 12.6264 9.13511 389.277
   vertex 12.7548 8.8849 388.335
  endloop
 endfacet
 facet normal 0.632498 -0.725268 0.271906
  outer loop
   vertex 8.37355 5.14405 388.723
   vertex 8.61604 6.20131 390.979
   vertex 7.13192 4.21495 389.133
  endloop
 endfacet
 facet normal 0.625199 -0.735343 0.261529
  outer loop
   vertex 17.853 13.1405 387.095
   vertex 19.5927 14.9333 387.977
   vertex 17.2571 13.7965 390.364
  endloop
 endfacet
 facet normal 0.633594 -0.728094 0.261605
  outer loop
   vertex 16.9365 12.422 387.315
   vertex 17.853 13.1405 387.095
   vertex 17.2571 13.7965 390.364
  endloop
 endfacet
 facet normal 0.64466 -0.714719 0.271276
  outer loop
   vertex 15.4783 11.3098 387.85
   vertex 16.9365 12.422 387.315
   vertex 16.241 12.9045 390.239
  endloop
 endfacet
 facet normal 0.645998 -0.698392 0.308115
  outer loop
   vertex 10.7081 7.93547 390.43
   vertex 10.1622 6.64038 388.639
   vertex 10.9625 7.19534 388.219
  endloop
 endfacet
 facet normal 0.628294 -0.752498 0.197469
  outer loop
   vertex 7.13192 4.21495 389.133
   vertex 7.61426 4.42454 388.397
   vertex 8.37355 5.14405 388.723
  endloop
 endfacet
 facet normal 0.688344 -0.665878 0.28773
  outer loop
   vertex 14.705 10.5124 387.607
   vertex 13.7711 10.6696 390.205
   vertex 13.8459 9.79846 388.01
  endloop
 endfacet
 facet normal 0.618238 -0.735357 0.277548
  outer loop
   vertex 9.32357 5.80774 388.301
   vertex 10.1622 6.64038 388.639
   vertex 10.2743 7.20151 389.876
  endloop
 endfacet
 facet normal 0.627348 -0.721481 0.293086
  outer loop
   vertex 12.6264 9.13511 389.277
   vertex 10.7081 7.93547 390.43
   vertex 11.3453 7.40491 387.76
  endloop
 endfacet
 facet normal 0.706906 -0.642241 0.296327
  outer loop
   vertex 10.9625 7.19534 388.219
   vertex 11.3453 7.40491 387.76
   vertex 10.7081 7.93547 390.43
  endloop
 endfacet
 facet normal 0.639523 -0.716907 0.277587
  outer loop
   vertex 12.7548 8.8849 388.335
   vertex 12.6264 9.13511 389.277
   vertex 11.3453 7.40491 387.76
  endloop
 endfacet
 facet normal 0.612704 -0.736089 0.287692
  outer loop
   vertex 17.853 13.1405 387.095
   vertex 18.9764 14.0369 386.996
   vertex 19.5927 14.9333 387.977
  endloop
 endfacet
 facet normal 0.663514 -0.687372 0.295414
  outer loop
   vertex 12.7548 8.8849 388.335
   vertex 13.8459 9.79846 388.01
   vertex 13.7711 10.6696 390.205
  endloop
 endfacet
 facet normal 0.72737 -0.682249 0.0739528
  outer loop
   vertex 23.7018 18.9575 388.4
   vertex 20.6135 15.5042 386.917
   vertex 23.5482 18.7312 387.823
  endloop
 endfacet
 facet normal 0.627159 -0.752627 0.200559
  outer loop
   vertex 10.6662 6.83438 387.791
   vertex 10.9625 7.19534 388.219
   vertex 10.1622 6.64038 388.639
  endloop
 endfacet
 facet normal 0.664255 -0.707028 0.242647
  outer loop
   vertex 13.1788 9.01934 387.566
   vertex 13.8459 9.79846 388.01
   vertex 12.7548 8.8849 388.335
  endloop
 endfacet
 facet normal 0.63663 -0.747482 0.189663
  outer loop
   vertex 10.6662 6.83438 387.791
   vertex 11.3453 7.40491 387.76
   vertex 10.9625 7.19534 388.219
  endloop
 endfacet
 facet normal 0.666466 -0.696123 0.266899
  outer loop
   vertex 20.6135 15.5042 386.917
   vertex 23.8056 19.2167 388.629
   vertex 19.5927 14.9333 387.977
  endloop
 endfacet
 facet normal 0.669981 -0.715282 0.19874
  outer loop
   vertex 12.7548 8.8849 388.335
   vertex 11.3453 7.40491 387.76
   vertex 12.1872 8.15959 387.638
  endloop
 endfacet
 facet normal 0.647044 -0.727043 0.229658
  outer loop
   vertex 12.1872 8.15959 387.638
   vertex 13.1788 9.01934 387.566
   vertex 12.7548 8.8849 388.335
  endloop
 endfacet
 facet normal 0.662156 -0.686519 0.300402
  outer loop
   vertex 23.5482 18.7312 387.823
   vertex 20.6135 15.5042 386.917
   vertex 23.3954 18.4136 387.434
  endloop
 endfacet
 facet normal 0.652652 -0.682509 0.328978
  outer loop
   vertex 23.1142 17.9895 387.112
   vertex 23.3954 18.4136 387.434
   vertex 20.6135 15.5042 386.917
  endloop
 endfacet
 facet normal 0.65379 -0.716319 0.243815
  outer loop
   vertex 18.9764 14.0369 386.996
   vertex 20.6135 15.5042 386.917
   vertex 19.5927 14.9333 387.977
  endloop
 endfacet
 facet normal 0.635648 -0.742991 -0.209563
  outer loop
   vertex 12.1872 8.15959 387.638
   vertex 11.3453 7.40491 387.76
   vertex 11.4161 7.5312 387.527
  endloop
 endfacet
 facet normal 0.621817 -0.752019 -0.218658
  outer loop
   vertex 10.6662 6.83438 387.791
   vertex 11.4161 7.5312 387.527
   vertex 11.3453 7.40491 387.76
  endloop
 endfacet
 facet normal 0.68495 -0.711734 0.155817
  outer loop
   vertex 14.705 10.5124 387.607
   vertex 15.5201 11.2202 387.257
   vertex 15.4783 11.3098 387.85
  endloop
 endfacet
 facet normal 0.671782 -0.726363 0.145279
  outer loop
   vertex 13.9085 9.71915 387.324
   vertex 14.705 10.5124 387.607
   vertex 13.8459 9.79846 388.01
  endloop
 endfacet
 facet normal 0.70945 -0.689786 0.144487
  outer loop
   vertex 13.1788 9.01934 387.566
   vertex 13.9085 9.71915 387.324
   vertex 13.8459 9.79846 388.01
  endloop
 endfacet
 facet normal 0.65106 -0.756294 -0.064341
  outer loop
   vertex 12.1872 8.15959 387.638
   vertex 12.687 8.61052 387.395
   vertex 13.1788 9.01934 387.566
  endloop
 endfacet
 facet normal 0.65204 -0.71372 0.255828
  outer loop
   vertex 20.6135 15.5042 386.917
   vertex 18.9764 14.0369 386.996
   vertex 20.02 14.5677 385.817
  endloop
 endfacet
 facet normal 0.673681 -0.697107 0.245349
  outer loop
   vertex 23.1142 17.9895 387.112
   vertex 20.6135 15.5042 386.917
   vertex 22.4814 17.133 386.416
  endloop
 endfacet
 facet normal 0.673962 -0.704237 0.223215
  outer loop
   vertex 21.7125 16.1531 385.646
   vertex 22.4814 17.133 386.416
   vertex 20.6135 15.5042 386.917
  endloop
 endfacet
 facet normal 0.625051 -0.750249 0.215494
  outer loop
   vertex 18.9764 14.0369 386.996
   vertex 19.3197 14.0555 386.065
   vertex 20.02 14.5677 385.817
  endloop
 endfacet
 facet normal 0.734108 -0.658268 0.166643
  outer loop
   vertex 23.1202 17.8535 386.448
   vertex 22.4814 17.133 386.416
   vertex 22.5595 16.9067 385.178
  endloop
 endfacet
 facet normal 0.662884 -0.719933 0.205623
  outer loop
   vertex 21.0322 15.2788 384.778
   vertex 21.7125 16.1531 385.646
   vertex 20.6135 15.5042 386.917
  endloop
 endfacet
 facet normal 0.696511 -0.686529 0.208685
  outer loop
   vertex 20.02 14.5677 385.817
   vertex 21.0322 15.2788 384.778
   vertex 20.6135 15.5042 386.917
  endloop
 endfacet
 facet normal 0.705842 -0.687613 0.170224
  outer loop
   vertex 21.7125 16.1531 385.646
   vertex 22.5595 16.9067 385.178
   vertex 22.4814 17.133 386.416
  endloop
 endfacet
 facet normal 0.706286 -0.686515 0.172795
  outer loop
   vertex 21.7125 16.1531 385.646
   vertex 22.001 16.1821 384.582
   vertex 22.5595 16.9067 385.178
  endloop
 endfacet
 facet normal 0.690227 -0.703827 0.167969
  outer loop
   vertex 21.0322 15.2788 384.778
   vertex 22.001 16.1821 384.582
   vertex 21.7125 16.1531 385.646
  endloop
 endfacet
 facet normal 0.734987 -0.666986 0.122158
  outer loop
   vertex 22.001 16.1821 384.582
   vertex 22.45 16.6223 384.284
   vertex 22.5595 16.9067 385.178
  endloop
 endfacet
 facet normal 0.722817 -0.687045 0.074191
  outer loop
   vertex 22.45 16.6223 384.284
   vertex 22.001 16.1821 384.582
   vertex 21.9877 16.1058 384.005
  endloop
 endfacet
endsolid
