solid ascii
 facet normal -0.976857 -0.203622 -0.0654905
  outer loop
   vertex -11.463 58.471 420.944
   vertex -11.5552 59.0201 420.612
   vertex -11.4235 58.5983 419.959
  endloop
 endfacet
 facet normal -0.981555 -0.169459 -0.0885054
  outer loop
   vertex -11.4235 58.5983 419.959
   vertex -11.5552 59.0201 420.612
   vertex -11.5668 59.3641 420.082
  endloop
 endfacet
 facet normal -0.983255 -0.177078 -0.0430449
  outer loop
   vertex -11.5661 59.5277 419.393
   vertex -11.4235 58.5983 419.959
   vertex -11.5668 59.3641 420.082
  endloop
 endfacet
 facet normal -0.999444 -0.0321833 -0.0086571
  outer loop
   vertex -11.5668 59.3641 420.082
   vertex -11.5744 59.6878 419.756
   vertex -11.5661 59.5277 419.393
  endloop
 endfacet
 facet normal -0.959048 -0.27058 -0.0837443
  outer loop
   vertex -11.2157 57.9537 419.662
   vertex -11.4235 58.5983 419.959
   vertex -11.224 58.201 418.958
  endloop
 endfacet
 facet normal -0.981291 -0.184359 -0.0554953
  outer loop
   vertex -11.4264 58.9569 418.819
   vertex -11.4235 58.5983 419.959
   vertex -11.5661 59.5277 419.393
  endloop
 endfacet
 facet normal -0.974419 -0.224294 -0.0141109
  outer loop
   vertex -11.5773 59.6153 418.774
   vertex -11.4264 58.9569 418.819
   vertex -11.5661 59.5277 419.393
  endloop
 endfacet
 facet normal -0.958704 -0.271988 -0.083117
  outer loop
   vertex -11.4264 58.9569 418.819
   vertex -11.224 58.201 418.958
   vertex -11.4235 58.5983 419.959
  endloop
 endfacet
 facet normal -0.916758 -0.380124 -0.122724
  outer loop
   vertex -11.095 57.8053 419.22
   vertex -11.2157 57.9537 419.662
   vertex -11.224 58.201 418.958
  endloop
 endfacet
 facet normal -0.971155 -0.227471 -0.0715221
  outer loop
   vertex -11.4264 58.9569 418.819
   vertex -11.5773 59.6153 418.774
   vertex -11.4803 59.4002 418.141
  endloop
 endfacet
 facet normal -0.979356 -0.181845 -0.0882833
  outer loop
   vertex -11.5952 59.8957 418.395
   vertex -11.4803 59.4002 418.141
   vertex -11.5773 59.6153 418.774
  endloop
 endfacet
 facet normal -0.959776 -0.270695 -0.0745271
  outer loop
   vertex -11.224 58.201 418.958
   vertex -11.4264 58.9569 418.819
   vertex -11.1837 58.3739 417.811
  endloop
 endfacet
 facet normal -0.966525 0.227412 -0.118798
  outer loop
   vertex -11.4328 60.3107 417.627
   vertex -11.5244 59.9825 417.744
   vertex -11.5735 60.1024 418.373
  endloop
 endfacet
 facet normal -0.964155 -0.250603 -0.0872023
  outer loop
   vertex -11.1837 58.3739 417.811
   vertex -11.4264 58.9569 418.819
   vertex -11.4803 59.4002 418.141
  endloop
 endfacet
 facet normal -0.962977 -0.236979 -0.128514
  outer loop
   vertex -11.4803 59.4002 418.141
   vertex -11.3478 59.3493 417.242
   vertex -11.1837 58.3739 417.811
  endloop
 endfacet
 facet normal -0.977464 -0.201384 -0.063316
  outer loop
   vertex -11.3478 59.3493 417.242
   vertex -11.1633 58.5 417.095
   vertex -11.1837 58.3739 417.811
  endloop
 endfacet
 facet normal -0.976937 -0.165758 -0.134604
  outer loop
   vertex -11.5244 59.9825 417.744
   vertex -11.3478 59.3493 417.242
   vertex -11.4803 59.4002 418.141
  endloop
 endfacet
 facet normal -0.966138 0.254505 -0.0424778
  outer loop
   vertex -11.4328 60.3107 417.627
   vertex -11.4472 60.1614 417.06
   vertex -11.5244 59.9825 417.744
  endloop
 endfacet
 facet normal -0.933825 -0.346818 -0.0876858
  outer loop
   vertex -11.1633 58.5 417.095
   vertex -10.9742 58.117 416.596
   vertex -11.1837 58.3739 417.811
  endloop
 endfacet
 facet normal -0.976691 -0.153234 -0.150315
  outer loop
   vertex -11.4472 60.1614 417.06
   vertex -11.3478 59.3493 417.242
   vertex -11.5244 59.9825 417.744
  endloop
 endfacet
 facet normal -0.973728 0.22508 -0.0345372
  outer loop
   vertex -11.3816 60.401 416.772
   vertex -11.4472 60.1614 417.06
   vertex -11.4328 60.3107 417.627
  endloop
 endfacet
 facet normal -0.972307 -0.157671 -0.172509
  outer loop
   vertex -11.4472 60.1614 417.06
   vertex -11.2982 59.9986 416.369
   vertex -11.3478 59.3493 417.242
  endloop
 endfacet
 facet normal -0.955337 -0.230122 -0.185407
  outer loop
   vertex -11.1155 58.872 416.387
   vertex -10.9742 58.117 416.596
   vertex -11.1633 58.5 417.095
  endloop
 endfacet
 facet normal -0.969811 -0.182729 -0.161484
  outer loop
   vertex -11.3478 59.3493 417.242
   vertex -11.1155 58.872 416.387
   vertex -11.1633 58.5 417.095
  endloop
 endfacet
 facet normal -0.976929 0.0111217 -0.213272
  outer loop
   vertex -11.2982 59.9986 416.369
   vertex -11.4472 60.1614 417.06
   vertex -11.3816 60.401 416.772
  endloop
 endfacet
 facet normal -0.971524 -0.160339 -0.174448
  outer loop
   vertex -11.3478 59.3493 417.242
   vertex -11.2982 59.9986 416.369
   vertex -11.1155 58.872 416.387
  endloop
 endfacet
 facet normal -0.967435 -0.217091 -0.130158
  outer loop
   vertex -10.9742 58.117 416.596
   vertex -11.1155 58.872 416.387
   vertex -10.9114 58.2946 415.833
  endloop
 endfacet
 facet normal -0.968703 -0.160125 -0.18967
  outer loop
   vertex -11.1155 58.872 416.387
   vertex -11.2982 59.9986 416.369
   vertex -11.1398 59.5852 415.909
  endloop
 endfacet
 facet normal -0.968066 -0.138164 -0.209187
  outer loop
   vertex -11.1227 60.1452 415.46
   vertex -11.1398 59.5852 415.909
   vertex -11.2982 59.9986 416.369
  endloop
 endfacet
 facet normal -0.980947 -0.0223036 -0.192988
  outer loop
   vertex -11.2569 60.5009 416.101
   vertex -11.1227 60.1452 415.46
   vertex -11.2982 59.9986 416.369
  endloop
 endfacet
 facet normal -0.971731 -0.153393 -0.179472
  outer loop
   vertex -11.1398 59.5852 415.909
   vertex -10.8612 58.4755 415.349
   vertex -11.1155 58.872 416.387
  endloop
 endfacet
 facet normal -0.968968 -0.181137 -0.168197
  outer loop
   vertex -11.1155 58.872 416.387
   vertex -10.8612 58.4755 415.349
   vertex -10.9114 58.2946 415.833
  endloop
 endfacet
 facet normal -0.968229 -0.137766 -0.208696
  outer loop
   vertex -10.8612 58.4755 415.349
   vertex -11.1398 59.5852 415.909
   vertex -11.1227 60.1452 415.46
  endloop
 endfacet
 facet normal -0.970314 -0.1388 -0.198053
  outer loop
   vertex -11.1227 60.1452 415.46
   vertex -10.8282 60.5835 413.71
   vertex -10.8612 58.4755 415.349
  endloop
 endfacet
 facet normal -0.986893 0.030053 -0.158553
  outer loop
   vertex -10.9677 60.5662 414.575
   vertex -10.8282 60.5835 413.71
   vertex -11.1227 60.1452 415.46
  endloop
 endfacet
 facet normal -0.982533 -0.0256891 -0.184307
  outer loop
   vertex -11.1227 60.1452 415.46
   vertex -11.1027 60.6285 415.286
   vertex -10.9677 60.5662 414.575
  endloop
 endfacet
 facet normal -0.956842 -0.212268 0.198485
  outer loop
   vertex -13.0517 63.3937 381.152
   vertex -12.9307 63.0063 381.321
   vertex -12.954 63.2656 381.486
  endloop
 endfacet
 facet normal -0.968551 -0.1431 -0.203548
  outer loop
   vertex -10.8282 60.5835 413.71
   vertex -10.6454 58.4558 414.336
   vertex -10.8612 58.4755 415.349
  endloop
 endfacet
 facet normal -0.966007 -0.160485 -0.202668
  outer loop
   vertex -10.7811 58.2358 415.157
   vertex -10.8612 58.4755 415.349
   vertex -10.6454 58.4558 414.336
  endloop
 endfacet
 facet normal -0.950902 -0.25017 0.18221
  outer loop
   vertex -13.1035 63.8018 381.442
   vertex -13.0517 63.3937 381.152
   vertex -12.954 63.2656 381.486
  endloop
 endfacet
 facet normal -0.959659 0.276539 -0.0508073
  outer loop
   vertex -10.8505 60.8658 413.992
   vertex -10.9677 60.5662 414.575
   vertex -10.8943 60.8244 414.594
  endloop
 endfacet
 facet normal -0.984388 0.0792454 -0.157165
  outer loop
   vertex -10.9677 60.5662 414.575
   vertex -10.8505 60.8658 413.992
   vertex -10.8282 60.5835 413.71
  endloop
 endfacet
 facet normal -0.922099 -0.298972 -0.245659
  outer loop
   vertex -10.482 58.5114 413.655
   vertex -10.5068 58.145 414.194
   vertex -10.6454 58.4558 414.336
  endloop
 endfacet
 facet normal -0.965272 -0.14656 -0.216265
  outer loop
   vertex -10.6454 58.4558 414.336
   vertex -10.8282 60.5835 413.71
   vertex -10.6529 59.5086 413.656
  endloop
 endfacet
 facet normal -0.956181 -0.163624 -0.242786
  outer loop
   vertex -10.6529 59.5086 413.656
   vertex -10.482 58.5114 413.655
   vertex -10.6454 58.4558 414.336
  endloop
 endfacet
 facet normal -0.966859 -0.165503 -0.194402
  outer loop
   vertex -10.482 58.5114 413.655
   vertex -10.6529 59.5086 413.656
   vertex -10.4421 58.9126 413.115
  endloop
 endfacet
 facet normal -0.976629 -0.151623 -0.152338
  outer loop
   vertex -10.6529 59.5086 413.656
   vertex -10.8282 60.5835 413.71
   vertex -10.697 60.5492 412.903
  endloop
 endfacet
 facet normal -0.983453 -0.0921533 -0.155976
  outer loop
   vertex -10.8114 60.8866 413.425
   vertex -10.697 60.5492 412.903
   vertex -10.8282 60.5835 413.71
  endloop
 endfacet
 facet normal -0.972745 -0.161573 -0.166317
  outer loop
   vertex -10.697 60.5492 412.903
   vertex -10.429 59.3135 412.536
   vertex -10.6529 59.5086 413.656
  endloop
 endfacet
 facet normal -0.967263 -0.197875 -0.158898
  outer loop
   vertex -10.429 59.3135 412.536
   vertex -10.4421 58.9126 413.115
   vertex -10.6529 59.5086 413.656
  endloop
 endfacet
 facet normal -0.964886 -0.171651 -0.198824
  outer loop
   vertex -10.4421 58.9126 413.115
   vertex -10.3427 58.516 412.975
   vertex -10.482 58.5114 413.655
  endloop
 endfacet
 facet normal -0.978842 -0.189024 -0.0783426
  outer loop
   vertex -10.6848 60.8433 412.041
   vertex -10.429 59.3135 412.536
   vertex -10.697 60.5492 412.903
  endloop
 endfacet
 facet normal -0.969974 -0.189133 -0.152906
  outer loop
   vertex -10.4421 58.9126 413.115
   vertex -10.429 59.3135 412.536
   vertex -10.3427 58.516 412.975
  endloop
 endfacet
 facet normal -0.997208 -0.0652252 -0.0363655
  outer loop
   vertex -10.697 60.5492 412.903
   vertex -10.7209 61.0434 412.672
   vertex -10.6848 60.8433 412.041
  endloop
 endfacet
 facet normal -0.971039 -0.186964 -0.148757
  outer loop
   vertex -10.429 59.3135 412.536
   vertex -10.2189 58.5541 412.119
   vertex -10.3427 58.516 412.975
  endloop
 endfacet
 facet normal -0.975077 -0.196426 -0.10316
  outer loop
   vertex -10.429 59.3135 412.536
   vertex -10.6848 60.8433 412.041
   vertex -10.1771 58.6229 411.47
  endloop
 endfacet
 facet normal -0.971359 -0.221492 -0.0860427
  outer loop
   vertex -10.429 59.3135 412.536
   vertex -10.1771 58.6229 411.47
   vertex -10.2189 58.5541 412.119
  endloop
 endfacet
 facet normal -0.975132 -0.221555 -0.0054871
  outer loop
   vertex -10.552 60.2779 411.27
   vertex -10.1771 58.6229 411.47
   vertex -10.6848 60.8433 412.041
  endloop
 endfacet
 facet normal -0.90427 -0.414552 -0.102188
  outer loop
   vertex -10.1771 58.6229 411.47
   vertex -10.0723 58.4118 411.399
   vertex -10.2189 58.5541 412.119
  endloop
 endfacet
 facet normal -0.903496 -0.420279 -0.0840197
  outer loop
   vertex -10.14 58.6441 410.965
   vertex -10.0723 58.4118 411.399
   vertex -10.1771 58.6229 411.47
  endloop
 endfacet
 facet normal -0.982765 -0.18125 -0.0363588
  outer loop
   vertex -10.552 60.2779 411.27
   vertex -10.6848 60.8433 412.041
   vertex -10.6837 61.0293 411.084
  endloop
 endfacet
 facet normal -0.973718 -0.224909 -0.0358918
  outer loop
   vertex -10.1771 58.6229 411.47
   vertex -10.552 60.2779 411.27
   vertex -10.581 60.5758 410.19
  endloop
 endfacet
 facet normal -0.983761 -0.178043 -0.0226946
  outer loop
   vertex -10.6837 61.0293 411.084
   vertex -10.581 60.5758 410.19
   vertex -10.552 60.2779 411.27
  endloop
 endfacet
 facet normal -0.931594 -0.352296 -0.0895602
  outer loop
   vertex -10.0229 58.4552 410.49
   vertex -10.14 58.6441 410.965
   vertex -10.1238 58.8387 410.031
  endloop
 endfacet
 facet normal -0.944295 -0.318529 -0.0827451
  outer loop
   vertex -10.1771 58.6229 411.47
   vertex -10.1238 58.8387 410.031
   vertex -10.14 58.6441 410.965
  endloop
 endfacet
 facet normal -0.98592 -0.164545 -0.0297899
  outer loop
   vertex -10.6774 61.1869 410.005
   vertex -10.581 60.5758 410.19
   vertex -10.6837 61.0293 411.084
  endloop
 endfacet
 facet normal -0.966114 -0.247604 -0.0729169
  outer loop
   vertex -10.581 60.5758 410.19
   vertex -10.1238 58.8387 410.031
   vertex -10.1771 58.6229 411.47
  endloop
 endfacet
 facet normal -0.96643 0.255876 -0.0232503
  outer loop
   vertex -10.6774 61.1869 410.005
   vertex -10.6404 61.345 410.207
   vertex -10.62 61.3798 409.742
  endloop
 endfacet
 facet normal -0.928072 -0.235053 0.288847
  outer loop
   vertex -13.1035 63.8018 381.442
   vertex -12.954 63.2656 381.486
   vertex -12.8988 63.6203 381.952
  endloop
 endfacet
 facet normal -0.967263 -0.251428 -0.0344388
  outer loop
   vertex -10.1238 58.8387 410.031
   vertex -10.581 60.5758 410.19
   vertex -10.3646 59.8526 409.392
  endloop
 endfacet
 facet normal -0.965919 0.257939 -0.0216261
  outer loop
   vertex -10.618 61.3291 409.048
   vertex -10.6774 61.1869 410.005
   vertex -10.62 61.3798 409.742
  endloop
 endfacet
 facet normal -0.966202 -0.254667 -0.0399778
  outer loop
   vertex -10.1238 58.8387 410.031
   vertex -10.3646 59.8526 409.392
   vertex -10.1547 59.1294 408.926
  endloop
 endfacet
 facet normal -0.970459 -0.236218 -0.0490905
  outer loop
   vertex -10.3646 59.8526 409.392
   vertex -10.581 60.5758 410.19
   vertex -10.5937 60.8252 409.241
  endloop
 endfacet
 facet normal -0.985898 -0.164626 -0.0300696
  outer loop
   vertex -10.5937 60.8252 409.241
   vertex -10.581 60.5758 410.19
   vertex -10.6774 61.1869 410.005
  endloop
 endfacet
 facet normal -0.946851 -0.316616 -0.0568159
  outer loop
   vertex -10.1547 59.1294 408.926
   vertex -10.0038 58.6408 409.134
   vertex -10.1238 58.8387 410.031
  endloop
 endfacet
 facet normal -0.994438 -0.0759148 -0.0730035
  outer loop
   vertex -10.618 61.3291 409.048
   vertex -10.5937 60.8252 409.241
   vertex -10.6774 61.1869 410.005
  endloop
 endfacet
 facet normal -0.97088 -0.235511 -0.0439005
  outer loop
   vertex -10.5937 60.8252 409.241
   vertex -10.4642 60.4235 408.532
   vertex -10.3646 59.8526 409.392
  endloop
 endfacet
 facet normal -0.998644 -0.051372 -0.00839301
  outer loop
   vertex -10.5937 60.8252 409.241
   vertex -10.618 61.3291 409.048
   vertex -10.6035 61.1237 408.58
  endloop
 endfacet
 facet normal -0.965673 -0.257302 -0.0356505
  outer loop
   vertex -10.1547 59.1294 408.926
   vertex -10.3646 59.8526 409.392
   vertex -10.2933 59.6813 408.697
  endloop
 endfacet
 facet normal -0.948711 -0.312731 -0.0463407
  outer loop
   vertex -10.0038 58.6408 409.134
   vertex -10.1547 59.1294 408.926
   vertex -10.039 58.8399 408.511
  endloop
 endfacet
 facet normal -0.971538 -0.233093 -0.042219
  outer loop
   vertex -10.4642 60.4235 408.532
   vertex -10.2933 59.6813 408.697
   vertex -10.3646 59.8526 409.392
  endloop
 endfacet
 facet normal -0.97921 -0.189926 -0.0712496
  outer loop
   vertex -10.6035 61.1237 408.58
   vertex -10.4642 60.4235 408.532
   vertex -10.5937 60.8252 409.241
  endloop
 endfacet
 facet normal -0.965223 -0.258522 -0.0388618
  outer loop
   vertex -10.2933 59.6813 408.697
   vertex -10.2204 59.5169 407.98
   vertex -10.1547 59.1294 408.926
  endloop
 endfacet
 facet normal -0.952401 -0.299555 -0.0565606
  outer loop
   vertex -10.2204 59.5169 407.98
   vertex -10.039 58.8399 408.511
   vertex -10.1547 59.1294 408.926
  endloop
 endfacet
 facet normal -0.998908 0.0176279 -0.0432702
  outer loop
   vertex -10.5831 61.4255 408.232
   vertex -10.5655 61.1415 407.71
   vertex -10.6035 61.1237 408.58
  endloop
 endfacet
 facet normal -0.980315 -0.191825 -0.0467433
  outer loop
   vertex -10.4642 60.4235 408.532
   vertex -10.6035 61.1237 408.58
   vertex -10.5655 61.1415 407.71
  endloop
 endfacet
 facet normal -0.98292 -0.180393 -0.0364366
  outer loop
   vertex -10.4462 60.4961 407.687
   vertex -10.4642 60.4235 408.532
   vertex -10.5655 61.1415 407.71
  endloop
 endfacet
 facet normal -0.971262 -0.233686 -0.0451707
  outer loop
   vertex -10.4642 60.4235 408.532
   vertex -10.2204 59.5169 407.98
   vertex -10.2933 59.6813 408.697
  endloop
 endfacet
 facet normal -0.970856 -0.236135 -0.0409689
  outer loop
   vertex -10.2204 59.5169 407.98
   vertex -10.4642 60.4235 408.532
   vertex -10.4462 60.4961 407.687
  endloop
 endfacet
 facet normal -0.943806 -0.319426 -0.084833
  outer loop
   vertex -10.2204 59.5169 407.98
   vertex -9.98217 58.7907 408.064
   vertex -10.039 58.8399 408.511
  endloop
 endfacet
 facet normal -0.948724 -0.314687 -0.0299076
  outer loop
   vertex -10.2204 59.5169 407.98
   vertex -9.99882 58.8983 407.46
   vertex -9.98217 58.7907 408.064
  endloop
 endfacet
 facet normal -0.943137 -0.33234 -0.00652819
  outer loop
   vertex -10.1533 59.3485 406.859
   vertex -9.99882 58.8983 407.46
   vertex -10.2204 59.5169 407.98
  endloop
 endfacet
 facet normal -0.980101 -0.196955 -0.0247096
  outer loop
   vertex -10.4943 60.8421 406.837
   vertex -10.3507 60.1324 406.798
   vertex -10.4462 60.4961 407.687
  endloop
 endfacet
 facet normal -0.973616 -0.227908 -0.0113496
  outer loop
   vertex -10.2204 59.5169 407.98
   vertex -10.4462 60.4961 407.687
   vertex -10.3507 60.1324 406.798
  endloop
 endfacet
 facet normal -0.983296 -0.181116 -0.0180815
  outer loop
   vertex -10.5655 61.1415 407.71
   vertex -10.4943 60.8421 406.837
   vertex -10.4462 60.4961 407.687
  endloop
 endfacet
 facet normal -0.96912 -0.245684 -0.0211012
  outer loop
   vertex -10.1533 59.3485 406.859
   vertex -10.2204 59.5169 407.98
   vertex -10.3507 60.1324 406.798
  endloop
 endfacet
 facet normal -0.985578 -0.167671 -0.0228787
  outer loop
   vertex -10.4943 60.8421 406.837
   vertex -10.5655 61.1415 407.71
   vertex -10.5707 61.3665 406.285
  endloop
 endfacet
 facet normal -0.999362 0.0345446 0.00910095
  outer loop
   vertex -10.5655 61.1415 407.71
   vertex -10.5549 61.5401 407.361
   vertex -10.5707 61.3665 406.285
  endloop
 endfacet
 facet normal -0.980175 -0.197374 -0.0173472
  outer loop
   vertex -10.4943 60.8421 406.837
   vertex -10.4422 60.6789 405.75
   vertex -10.3507 60.1324 406.798
  endloop
 endfacet
 facet normal -0.978165 -0.206625 -0.0223465
  outer loop
   vertex -10.4422 60.6789 405.75
   vertex -10.2369 59.7095 405.727
   vertex -10.3507 60.1324 406.798
  endloop
 endfacet
 facet normal -0.985715 -0.166955 -0.0221797
  outer loop
   vertex -10.4422 60.6789 405.75
   vertex -10.4943 60.8421 406.837
   vertex -10.5707 61.3665 406.285
  endloop
 endfacet
 facet normal -0.969588 -0.244659 -0.00641703
  outer loop
   vertex -10.2369 59.7095 405.727
   vertex -10.1533 59.3485 406.859
   vertex -10.3507 60.1324 406.798
  endloop
 endfacet
 facet normal -0.897332 -0.293459 0.329662
  outer loop
   vertex -12.7244 62.7972 381.694
   vertex -12.8988 63.6203 381.952
   vertex -12.954 63.2656 381.486
  endloop
 endfacet
 facet normal -0.956087 -0.292211 -0.0225786
  outer loop
   vertex -10.2369 59.7095 405.727
   vertex -10.0303 58.9918 406.267
   vertex -10.1533 59.3485 406.859
  endloop
 endfacet
 facet normal -0.895425 -0.445196 0.00382664
  outer loop
   vertex -10.0573 59.0394 405.487
   vertex -9.88044 58.6874 405.92
   vertex -10.0303 58.9918 406.267
  endloop
 endfacet
 facet normal -0.964205 -0.264597 0.0172286
  outer loop
   vertex -10.0303 58.9918 406.267
   vertex -10.2369 59.7095 405.727
   vertex -10.0573 59.0394 405.487
  endloop
 endfacet
 facet normal -0.985208 -0.170461 -0.0175517
  outer loop
   vertex -10.5481 61.3648 405.033
   vertex -10.4422 60.6789 405.75
   vertex -10.5707 61.3665 406.285
  endloop
 endfacet
 facet normal -0.965357 -0.260864 0.00594342
  outer loop
   vertex -10.1744 59.4601 404.932
   vertex -10.0573 59.0394 405.487
   vertex -10.2369 59.7095 405.727
  endloop
 endfacet
 facet normal -0.981825 -0.18678 -0.0336622
  outer loop
   vertex -10.3384 60.3508 404.543
   vertex -10.4422 60.6789 405.75
   vertex -10.5481 61.3648 405.033
  endloop
 endfacet
 facet normal -0.963539 -0.267568 0.000477739
  outer loop
   vertex -10.0573 59.0394 405.487
   vertex -10.1744 59.4601 404.932
   vertex -10.0448 58.9933 404.88
  endloop
 endfacet
 facet normal -0.913947 -0.405657 0.0119858
  outer loop
   vertex -9.92627 58.7342 405.149
   vertex -10.0573 59.0394 405.487
   vertex -10.0448 58.9933 404.88
  endloop
 endfacet
 facet normal -0.978053 -0.206467 -0.0279863
  outer loop
   vertex -10.2369 59.7095 405.727
   vertex -10.4422 60.6789 405.75
   vertex -10.3384 60.3508 404.543
  endloop
 endfacet
 facet normal -0.981879 -0.188653 -0.0180094
  outer loop
   vertex -10.3384 60.3508 404.543
   vertex -10.1744 59.4601 404.932
   vertex -10.2369 59.7095 405.727
  endloop
 endfacet
 facet normal -0.963962 -0.263758 -0.0347765
  outer loop
   vertex -10.1744 59.4601 404.932
   vertex -10.0844 59.2294 404.187
   vertex -10.0448 58.9933 404.88
  endloop
 endfacet
 facet normal -0.989897 -0.136913 -0.0368602
  outer loop
   vertex -10.5481 61.3648 405.033
   vertex -10.5832 61.7898 404.397
   vertex -10.5007 61.273 404.101
  endloop
 endfacet
 facet normal -0.981698 -0.187834 -0.0314275
  outer loop
   vertex -10.5007 61.273 404.101
   vertex -10.3384 60.3508 404.543
   vertex -10.5481 61.3648 405.033
  endloop
 endfacet
 facet normal -0.852029 -0.438507 0.285935
  outer loop
   vertex -13.376 64.7557 381.891
   vertex -13.2363 64.3343 381.661
   vertex -13.1563 64.4312 382.048
  endloop
 endfacet
 facet normal -0.936937 -0.343673 -0.0635473
  outer loop
   vertex -9.93162 58.7563 404.493
   vertex -10.0448 58.9933 404.88
   vertex -10.0844 59.2294 404.187
  endloop
 endfacet
 facet normal -0.977438 -0.203957 -0.0549227
  outer loop
   vertex -10.3384 60.3508 404.543
   vertex -10.0844 59.2294 404.187
   vertex -10.1744 59.4601 404.932
  endloop
 endfacet
 facet normal -0.978014 -0.200165 -0.0585087
  outer loop
   vertex -10.5007 61.273 404.101
   vertex -10.3445 60.5972 403.802
   vertex -10.3384 60.3508 404.543
  endloop
 endfacet
 facet normal -0.982204 -0.182412 0.044725
  outer loop
   vertex -10.5007 61.273 404.101
   vertex -10.5832 61.7898 404.397
   vertex -10.5809 61.5359 403.412
  endloop
 endfacet
 facet normal -0.977481 -0.200951 -0.0644224
  outer loop
   vertex -9.96457 58.9219 403.328
   vertex -10.0844 59.2294 404.187
   vertex -10.3384 60.3508 404.543
  endloop
 endfacet
 facet normal -0.973796 -0.227366 0.00517284
  outer loop
   vertex -10.5007 61.273 404.101
   vertex -10.3391 60.5604 403.201
   vertex -10.3445 60.5972 403.802
  endloop
 endfacet
 facet normal -0.977007 -0.204596 -0.0599903
  outer loop
   vertex -10.3445 60.5972 403.802
   vertex -9.96457 58.9219 403.328
   vertex -10.3384 60.3508 404.543
  endloop
 endfacet
 facet normal -0.969446 -0.244526 0.0195401
  outer loop
   vertex -10.5809 61.5359 403.412
   vertex -10.3391 60.5604 403.201
   vertex -10.5007 61.273 404.101
  endloop
 endfacet
 facet normal -0.974927 -0.222473 0.00486309
  outer loop
   vertex -10.3391 60.5604 403.201
   vertex -9.96457 58.9219 403.328
   vertex -10.3445 60.5972 403.802
  endloop
 endfacet
 facet normal -0.963787 -0.255452 0.0765421
  outer loop
   vertex -10.3391 60.5604 403.201
   vertex -10.5809 61.5359 403.412
   vertex -10.495 60.9757 402.624
  endloop
 endfacet
 facet normal -0.974929 -0.22246 0.00504216
  outer loop
   vertex -9.96457 58.9219 403.328
   vertex -10.3391 60.5604 403.201
   vertex -10.1079 59.5347 402.651
  endloop
 endfacet
 facet normal -0.964168 -0.254273 0.0756619
  outer loop
   vertex -10.6957 61.6549 402.349
   vertex -10.495 60.9757 402.624
   vertex -10.5809 61.5359 403.412
  endloop
 endfacet
 facet normal -0.968939 -0.243008 0.0458816
  outer loop
   vertex -10.3391 60.5604 403.201
   vertex -10.2591 60.0494 402.184
   vertex -10.1079 59.5347 402.651
  endloop
 endfacet
 facet normal -0.894811 -0.354716 0.27109
  outer loop
   vertex -12.5637 62.8068 382.237
   vertex -12.7244 62.7972 381.694
   vertex -12.5099 62.5297 382.052
  endloop
 endfacet
 facet normal -0.959738 -0.273935 0.0621449
  outer loop
   vertex -10.495 60.9757 402.624
   vertex -10.2591 60.0494 402.184
   vertex -10.3391 60.5604 403.201
  endloop
 endfacet
 facet normal -0.9379 -0.346906 0.000892244
  outer loop
   vertex -9.89689 58.7667 402.502
   vertex -9.99921 59.0439 402.721
   vertex -10.0239 59.108 401.691
  endloop
 endfacet
 facet normal -0.955425 -0.283103 0.0837586
  outer loop
   vertex -10.495 60.9757 402.624
   vertex -10.5276 60.8227 401.735
   vertex -10.2591 60.0494 402.184
  endloop
 endfacet
 facet normal -0.976598 -0.214839 0.0100391
  outer loop
   vertex -10.1079 59.5347 402.651
   vertex -10.0239 59.108 401.691
   vertex -9.99921 59.0439 402.721
  endloop
 endfacet
 facet normal -0.964248 -0.252986 0.0788988
  outer loop
   vertex -10.495 60.9757 402.624
   vertex -10.6957 61.6549 402.349
   vertex -10.5276 60.8227 401.735
  endloop
 endfacet
 facet normal -0.953523 -0.294759 0.0625479
  outer loop
   vertex -10.5276 60.8227 401.735
   vertex -10.1654 59.3934 400.521
   vertex -10.2591 60.0494 402.184
  endloop
 endfacet
 facet normal -0.965991 -0.25687 0.0296491
  outer loop
   vertex -10.2591 60.0494 402.184
   vertex -10.0239 59.108 401.691
   vertex -10.1079 59.5347 402.651
  endloop
 endfacet
 facet normal -0.964709 -0.25177 0.0771246
  outer loop
   vertex -10.7926 61.6589 401.15
   vertex -10.5276 60.8227 401.735
   vertex -10.6957 61.6549 402.349
  endloop
 endfacet
 facet normal -0.918759 -0.281456 0.276882
  outer loop
   vertex -12.8988 63.6203 381.952
   vertex -12.7244 62.7972 381.694
   vertex -12.5637 62.8068 382.237
  endloop
 endfacet
 facet normal -0.962274 -0.267224 0.0511931
  outer loop
   vertex -10.1654 59.3934 400.521
   vertex -10.0239 59.108 401.691
   vertex -10.2591 60.0494 402.184
  endloop
 endfacet
 facet normal -0.953326 -0.295257 0.0631938
  outer loop
   vertex -10.1654 59.3934 400.521
   vertex -10.5276 60.8227 401.735
   vertex -10.6013 60.8385 400.697
  endloop
 endfacet
 facet normal -0.963395 -0.260226 0.064442
  outer loop
   vertex -10.7926 61.6589 401.15
   vertex -10.6013 60.8385 400.697
   vertex -10.5276 60.8227 401.735
  endloop
 endfacet
 facet normal -0.848161 -0.414834 0.329447
  outer loop
   vertex -13.2362 64.9416 382.485
   vertex -13.376 64.7557 381.891
   vertex -13.1563 64.4312 382.048
  endloop
 endfacet
 facet normal -0.820095 -0.462021 0.33761
  outer loop
   vertex -13.376 64.7557 381.891
   vertex -13.2362 64.9416 382.485
   vertex -13.5569 65.2339 382.106
  endloop
 endfacet
 facet normal -0.946308 -0.321246 0.0360848
  outer loop
   vertex -10.1654 59.3934 400.521
   vertex -9.98615 58.8893 400.734
   vertex -10.0239 59.108 401.691
  endloop
 endfacet
 facet normal -0.961752 -0.264199 0.0723313
  outer loop
   vertex -10.8427 61.602 400.276
   vertex -10.6013 60.8385 400.697
   vertex -10.7926 61.6589 401.15
  endloop
 endfacet
 facet normal -0.955448 -0.292768 0.0374947
  outer loop
   vertex -10.6013 60.8385 400.697
   vertex -10.2614 59.5639 399.406
   vertex -10.1654 59.3934 400.521
  endloop
 endfacet
 facet normal -0.958296 -0.28361 0.0351465
  outer loop
   vertex -10.8427 61.602 400.276
   vertex -10.7739 61.2606 399.397
   vertex -10.6013 60.8385 400.697
  endloop
 endfacet
 facet normal -0.956802 -0.288832 0.0332525
  outer loop
   vertex -10.7739 61.2606 399.397
   vertex -10.2614 59.5639 399.406
   vertex -10.6013 60.8385 400.697
  endloop
 endfacet
 facet normal -0.956567 -0.289002 0.0381669
  outer loop
   vertex -10.2614 59.5639 399.406
   vertex -10.0789 59.0441 400.044
   vertex -10.1654 59.3934 400.521
  endloop
 endfacet
 facet normal -0.967969 -0.250156 0.0213962
  outer loop
   vertex -10.7739 61.2606 399.397
   vertex -10.8427 61.602 400.276
   vertex -10.9201 61.8406 399.564
  endloop
 endfacet
 facet normal -0.959139 -0.278994 0.0470569
  outer loop
   vertex -10.2614 59.5639 399.406
   vertex -10.122 59.0656 399.293
   vertex -10.0789 59.0441 400.044
  endloop
 endfacet
 facet normal -0.957277 -0.289123 0.00540962
  outer loop
   vertex -10.7739 61.2606 399.397
   vertex -10.5381 60.4676 398.741
   vertex -10.2614 59.5639 399.406
  endloop
 endfacet
 facet normal -0.956409 -0.292028 0.00110039
  outer loop
   vertex -10.5381 60.4676 398.741
   vertex -10.4535 60.1876 397.963
   vertex -10.2614 59.5639 399.406
  endloop
 endfacet
 facet normal -0.925643 -0.378366 -0.00487256
  outer loop
   vertex -10.0505 58.8977 398.748
   vertex -10.122 59.0656 399.293
   vertex -10.165 59.1815 398.462
  endloop
 endfacet
 facet normal -0.963236 -0.265615 0.0403162
  outer loop
   vertex -10.7739 61.2606 399.397
   vertex -10.9406 61.739 398.566
   vertex -10.8781 61.4319 398.036
  endloop
 endfacet
 facet normal -0.950026 -0.310349 0.0336744
  outer loop
   vertex -10.5381 60.4676 398.741
   vertex -10.7739 61.2606 399.397
   vertex -10.8781 61.4319 398.036
  endloop
 endfacet
 facet normal -0.962665 -0.270463 0.0112543
  outer loop
   vertex -10.4535 60.1876 397.963
   vertex -10.165 59.1815 398.462
   vertex -10.2614 59.5639 399.406
  endloop
 endfacet
 facet normal -0.962256 -0.271886 0.0118726
  outer loop
   vertex -10.2614 59.5639 399.406
   vertex -10.165 59.1815 398.462
   vertex -10.122 59.0656 399.293
  endloop
 endfacet
 facet normal -0.909634 -0.261666 0.32264
  outer loop
   vertex -12.5779 63.5713 382.817
   vertex -12.8988 63.6203 381.952
   vertex -12.5637 62.8068 382.237
  endloop
 endfacet
 facet normal -0.948531 -0.315638 0.0257195
  outer loop
   vertex -10.8781 61.4319 398.036
   vertex -10.6275 60.6234 397.356
   vertex -10.5381 60.4676 398.741
  endloop
 endfacet
 facet normal -0.974473 -0.22401 0.0148842
  outer loop
   vertex -11.0224 62.0658 398.129
   vertex -10.8781 61.4319 398.036
   vertex -10.9406 61.739 398.566
  endloop
 endfacet
 facet normal -0.938602 -0.34431 0.0218532
  outer loop
   vertex -10.4535 60.1876 397.963
   vertex -10.5381 60.4676 398.741
   vertex -10.6275 60.6234 397.356
  endloop
 endfacet
 facet normal -0.961237 -0.275724 -0.000178738
  outer loop
   vertex -10.1687 59.195 397.536
   vertex -10.165 59.1815 398.462
   vertex -10.4535 60.1876 397.963
  endloop
 endfacet
 facet normal -0.921744 -0.387794 -0.00197043
  outer loop
   vertex -10.1687 59.195 397.536
   vertex -10.0748 58.9703 397.833
   vertex -10.165 59.1815 398.462
  endloop
 endfacet
 facet normal -0.957349 -0.287414 0.0295883
  outer loop
   vertex -10.3316 59.7025 397.195
   vertex -10.1687 59.195 397.536
   vertex -10.4535 60.1876 397.963
  endloop
 endfacet
 facet normal -0.962619 -0.238076 0.12917
  outer loop
   vertex -11.0224 62.0658 398.129
   vertex -11.0839 61.9401 397.439
   vertex -10.8781 61.4319 398.036
  endloop
 endfacet
 facet normal -0.885167 -0.320965 0.336841
  outer loop
   vertex -13.1563 64.4312 382.048
   vertex -12.8988 63.6203 381.952
   vertex -12.9333 64.3042 382.513
  endloop
 endfacet
 facet normal -0.979506 -0.0841188 0.183007
  outer loop
   vertex -11.0839 61.9401 397.439
   vertex -11.1035 62.2401 397.472
   vertex -11.1968 62.0821 396.9
  endloop
 endfacet
 facet normal -0.987791 0.0295811 0.152952
  outer loop
   vertex -11.1968 62.0821 396.9
   vertex -11.1035 62.2401 397.472
   vertex -11.2019 62.2738 396.83
  endloop
 endfacet
 facet normal -0.846227 -0.532045 0.0287784
  outer loop
   vertex -10.1714 59.163 396.865
   vertex -10.0532 58.9783 396.926
   vertex -10.1687 59.195 397.536
  endloop
 endfacet
 facet normal -0.957279 -0.271839 0.0985892
  outer loop
   vertex -11.0839 61.9401 397.439
   vertex -11.0131 61.4739 396.841
   vertex -10.8781 61.4319 398.036
  endloop
 endfacet
 facet normal -0.94857 -0.313034 0.0471643
  outer loop
   vertex -10.6275 60.6234 397.356
   vertex -10.3316 59.7025 397.195
   vertex -10.4535 60.1876 397.963
  endloop
 endfacet
 facet normal -0.92666 -0.3645 0.0918735
  outer loop
   vertex -11.0131 61.4739 396.841
   vertex -10.6275 60.6234 397.356
   vertex -10.8781 61.4319 398.036
  endloop
 endfacet
 facet normal -0.955436 -0.294656 0.0178966
  outer loop
   vertex -10.3316 59.7025 397.195
   vertex -10.1714 59.163 396.865
   vertex -10.1687 59.195 397.536
  endloop
 endfacet
 facet normal -0.947218 -0.314882 0.060223
  outer loop
   vertex -10.6275 60.6234 397.356
   vertex -10.475 59.991 396.448
   vertex -10.3316 59.7025 397.195
  endloop
 endfacet
 facet normal -0.947095 -0.297695 0.119953
  outer loop
   vertex -11.1968 62.0821 396.9
   vertex -11.0131 61.4739 396.841
   vertex -11.0839 61.9401 397.439
  endloop
 endfacet
 facet normal -0.929416 -0.349315 0.119016
  outer loop
   vertex -11.0131 61.4739 396.841
   vertex -10.7596 60.5817 396.202
   vertex -10.6275 60.6234 397.356
  endloop
 endfacet
 facet normal -0.94789 -0.3141 0.0533464
  outer loop
   vertex -10.2575 59.298 396.13
   vertex -10.1714 59.163 396.865
   vertex -10.3316 59.7025 397.195
  endloop
 endfacet
 facet normal -0.912946 -0.39046 0.118617
  outer loop
   vertex -10.475 59.991 396.448
   vertex -10.6275 60.6234 397.356
   vertex -10.7596 60.5817 396.202
  endloop
 endfacet
 facet normal -0.944832 -0.322596 0.056786
  outer loop
   vertex -10.475 59.991 396.448
   vertex -10.2575 59.298 396.13
   vertex -10.3316 59.7025 397.195
  endloop
 endfacet
 facet normal -0.842233 -0.539113 -0.000361233
  outer loop
   vertex -10.0532 58.9783 396.926
   vertex -10.1714 59.163 396.865
   vertex -10.2575 59.298 396.13
  endloop
 endfacet
 facet normal -0.892986 -0.40063 0.205115
  outer loop
   vertex -11.0131 61.4739 396.841
   vertex -11.0851 61.1352 395.866
   vertex -10.7596 60.5817 396.202
  endloop
 endfacet
 facet normal -0.825674 -0.563959 -0.0145905
  outer loop
   vertex -10.2575 59.298 396.13
   vertex -10.0619 59.0174 395.907
   vertex -10.0532 58.9783 396.926
  endloop
 endfacet
 facet normal -0.898504 -0.304606 0.316078
  outer loop
   vertex -12.9333 64.3042 382.513
   vertex -12.8988 63.6203 381.952
   vertex -12.5779 63.5713 382.817
  endloop
 endfacet
 facet normal -0.960579 -0.16938 0.220451
  outer loop
   vertex -11.2693 61.8637 396.269
   vertex -11.3083 62.2111 396.366
   vertex -11.4305 62.1284 395.77
  endloop
 endfacet
 facet normal -0.923616 -0.3358 0.184856
  outer loop
   vertex -11.0131 61.4739 396.841
   vertex -11.2693 61.8637 396.269
   vertex -11.0851 61.1352 395.866
  endloop
 endfacet
 facet normal -0.919621 -0.340689 0.195521
  outer loop
   vertex -11.3482 61.6428 395.513
   vertex -11.0851 61.1352 395.866
   vertex -11.2693 61.8637 396.269
  endloop
 endfacet
 facet normal -0.913697 -0.374094 0.158781
  outer loop
   vertex -10.5182 59.664 395.429
   vertex -10.475 59.991 396.448
   vertex -10.7596 60.5817 396.202
  endloop
 endfacet
 facet normal -0.92021 -0.359673 0.15443
  outer loop
   vertex -10.5182 59.664 395.429
   vertex -10.2575 59.298 396.13
   vertex -10.475 59.991 396.448
  endloop
 endfacet
 facet normal -0.89426 -0.401606 0.197512
  outer loop
   vertex -10.8443 60.2667 395.178
   vertex -10.5182 59.664 395.429
   vertex -10.7596 60.5817 396.202
  endloop
 endfacet
 facet normal -0.951822 -0.25301 0.173263
  outer loop
   vertex -11.2693 61.8637 396.269
   vertex -11.4305 62.1284 395.77
   vertex -11.3482 61.6428 395.513
  endloop
 endfacet
 facet normal -0.964814 -0.230484 0.126536
  outer loop
   vertex -11.5103 62.0809 395.075
   vertex -11.3482 61.6428 395.513
   vertex -11.4305 62.1284 395.77
  endloop
 endfacet
 facet normal -0.892729 -0.40461 0.198309
  outer loop
   vertex -10.8443 60.2667 395.178
   vertex -10.7596 60.5817 396.202
   vertex -11.0851 61.1352 395.866
  endloop
 endfacet
 facet normal -0.911314 -0.379373 0.159946
  outer loop
   vertex -11.136 60.8776 394.965
   vertex -10.8443 60.2667 395.178
   vertex -11.0851 61.1352 395.866
  endloop
 endfacet
 facet normal -0.917153 -0.366483 0.156591
  outer loop
   vertex -11.3482 61.6428 395.513
   vertex -11.136 60.8776 394.965
   vertex -11.0851 61.1352 395.866
  endloop
 endfacet
 facet normal -0.955209 -0.288778 0.0646733
  outer loop
   vertex -11.5103 62.0809 395.075
   vertex -11.3847 61.5875 394.727
   vertex -11.3482 61.6428 395.513
  endloop
 endfacet
 facet normal -0.948396 -0.310172 0.065862
  outer loop
   vertex -11.3847 61.5875 394.727
   vertex -11.136 60.8776 394.965
   vertex -11.3482 61.6428 395.513
  endloop
 endfacet
 facet normal -0.894236 -0.423446 0.145034
  outer loop
   vertex -10.8443 60.2667 395.178
   vertex -10.6489 59.5225 394.21
   vertex -10.5182 59.664 395.429
  endloop
 endfacet
 facet normal -0.910858 -0.401288 0.0964714
  outer loop
   vertex -11.136 60.8776 394.965
   vertex -10.9284 60.2143 394.166
   vertex -10.8443 60.2667 395.178
  endloop
 endfacet
 facet normal -0.891247 -0.429571 0.145424
  outer loop
   vertex -10.5182 59.664 395.429
   vertex -10.6489 59.5225 394.21
   vertex -10.4286 59.2303 394.697
  endloop
 endfacet
 facet normal -0.97238 -0.23242 -0.0214224
  outer loop
   vertex -11.5103 62.0809 395.075
   vertex -11.5058 62.1289 394.35
   vertex -11.3847 61.5875 394.727
  endloop
 endfacet
 facet normal -0.944418 -0.328682 0.0064953
  outer loop
   vertex -11.136 60.8776 394.965
   vertex -11.3847 61.5875 394.727
   vertex -11.1905 61.0177 394.13
  endloop
 endfacet
 facet normal -0.950772 -0.309726 0.0100905
  outer loop
   vertex -11.1905 61.0177 394.13
   vertex -10.9284 60.2143 394.166
   vertex -11.136 60.8776 394.965
  endloop
 endfacet
 facet normal -0.925016 -0.367624 0.0959049
  outer loop
   vertex -10.9284 60.2143 394.166
   vertex -10.6489 59.5225 394.21
   vertex -10.8443 60.2667 395.178
  endloop
 endfacet
 facet normal -0.967412 -0.248873 -0.0466468
  outer loop
   vertex -11.5058 62.1289 394.35
   vertex -11.3866 61.7139 394.092
   vertex -11.3847 61.5875 394.727
  endloop
 endfacet
 facet normal -0.960528 -0.273365 -0.0515428
  outer loop
   vertex -11.3847 61.5875 394.727
   vertex -11.3866 61.7139 394.092
   vertex -11.1905 61.0177 394.13
  endloop
 endfacet
 facet normal -0.908648 -0.339094 0.243668
  outer loop
   vertex -12.5099 62.5297 382.052
   vertex -12.3986 62.4729 382.388
   vertex -12.5637 62.8068 382.237
  endloop
 endfacet
 facet normal -0.901925 -0.309945 0.300775
  outer loop
   vertex -12.5637 62.8068 382.237
   vertex -12.3986 62.4729 382.388
   vertex -12.2081 62.4746 382.961
  endloop
 endfacet
 facet normal -0.809903 -0.50771 0.293747
  outer loop
   vertex -13.7138 65.641 382.377
   vertex -13.5569 65.2339 382.106
   vertex -13.2362 64.9416 382.485
  endloop
 endfacet
 facet normal -0.958963 -0.274074 -0.072616
  outer loop
   vertex -11.1905 61.0177 394.13
   vertex -11.3866 61.7139 394.092
   vertex -11.2743 61.4659 393.545
  endloop
 endfacet
 facet normal -0.927439 -0.373473 0.0193384
  outer loop
   vertex -10.9284 60.2143 394.166
   vertex -10.8007 59.8468 393.193
   vertex -10.6489 59.5225 394.21
  endloop
 endfacet
 facet normal -0.9633 -0.261148 -0.0620913
  outer loop
   vertex -11.2743 61.4659 393.545
   vertex -11.0567 60.7272 393.276
   vertex -11.1905 61.0177 394.13
  endloop
 endfacet
 facet normal -0.803915 -0.590089 0.0742718
  outer loop
   vertex -10.5109 59.2445 393.495
   vertex -10.6489 59.5225 394.21
   vertex -10.6351 59.3835 393.255
  endloop
 endfacet
 facet normal -0.942552 -0.33225 0.0347395
  outer loop
   vertex -10.8007 59.8468 393.193
   vertex -10.6351 59.3835 393.255
   vertex -10.6489 59.5225 394.21
  endloop
 endfacet
 facet normal -0.966462 -0.240806 -0.089239
  outer loop
   vertex -11.4259 62.0636 393.574
   vertex -11.2743 61.4659 393.545
   vertex -11.3866 61.7139 394.092
  endloop
 endfacet
 facet normal -0.949253 -0.311596 -0.0427301
  outer loop
   vertex -11.1905 61.0177 394.13
   vertex -11.0567 60.7272 393.276
   vertex -10.9284 60.2143 394.166
  endloop
 endfacet
 facet normal -0.673896 -0.73482 -0.0768427
  outer loop
   vertex -10.5109 59.2445 393.495
   vertex -10.6351 59.3835 393.255
   vertex -10.5143 59.3227 392.777
  endloop
 endfacet
 facet normal -0.960548 -0.277294 -0.0213334
  outer loop
   vertex -11.0567 60.7272 393.276
   vertex -10.8007 59.8468 393.193
   vertex -10.9284 60.2143 394.166
  endloop
 endfacet
 facet normal -0.962892 -0.235883 -0.13114
  outer loop
   vertex -11.412 62.3827 392.907
   vertex -11.0567 60.7272 393.276
   vertex -11.2743 61.4659 393.545
  endloop
 endfacet
 facet normal -0.751952 -0.650426 -0.107304
  outer loop
   vertex -10.6576 59.5146 392.618
   vertex -10.5143 59.3227 392.777
   vertex -10.6351 59.3835 393.255
  endloop
 endfacet
 facet normal -0.939435 -0.34073 -0.0369428
  outer loop
   vertex -10.6351 59.3835 393.255
   vertex -10.8007 59.8468 393.193
   vertex -10.6576 59.5146 392.618
  endloop
 endfacet
 facet normal -0.960502 -0.27581 -0.0369298
  outer loop
   vertex -10.779 59.8588 392.539
   vertex -10.8007 59.8468 393.193
   vertex -11.0567 60.7272 393.276
  endloop
 endfacet
 facet normal -0.939676 -0.340014 -0.0374165
  outer loop
   vertex -10.779 59.8588 392.539
   vertex -10.6576 59.5146 392.618
   vertex -10.8007 59.8468 393.193
  endloop
 endfacet
 facet normal -0.968748 -0.229101 -0.0950739
  outer loop
   vertex -10.779 59.8588 392.539
   vertex -11.0567 60.7272 393.276
   vertex -11.412 62.3827 392.907
  endloop
 endfacet
 facet normal -0.935181 -0.34658 -0.0729263
  outer loop
   vertex -10.779 59.8588 392.539
   vertex -10.7219 59.8234 391.975
   vertex -10.6576 59.5146 392.618
  endloop
 endfacet
 facet normal -0.977019 -0.210755 -0.031866
  outer loop
   vertex -11.3525 62.249 391.967
   vertex -11.1856 61.5586 391.416
   vertex -11.412 62.3827 392.907
  endloop
 endfacet
 facet normal -0.970343 -0.241329 -0.0139539
  outer loop
   vertex -11.1856 61.5586 391.416
   vertex -10.779 59.8588 392.539
   vertex -11.412 62.3827 392.907
  endloop
 endfacet
 facet normal -0.97812 -0.204041 -0.0406123
  outer loop
   vertex -11.428 62.7017 391.511
   vertex -11.1856 61.5586 391.416
   vertex -11.3525 62.249 391.967
  endloop
 endfacet
 facet normal -0.891146 -0.449458 -0.0620107
  outer loop
   vertex -10.7219 59.8234 391.975
   vertex -10.779 59.8588 392.539
   vertex -10.7854 60.0841 390.998
  endloop
 endfacet
 facet normal -0.971621 -0.236462 -0.00612431
  outer loop
   vertex -10.779 59.8588 392.539
   vertex -11.1856 61.5586 391.416
   vertex -10.9526 60.6206 390.667
  endloop
 endfacet
 facet normal -0.904668 -0.422683 -0.0539873
  outer loop
   vertex -10.6297 59.7041 391.364
   vertex -10.7219 59.8234 391.975
   vertex -10.7854 60.0841 390.998
  endloop
 endfacet
 facet normal -0.988125 0.0570379 0.142674
  outer loop
   vertex -11.5156 63.0326 390.772
   vertex -11.428 62.7017 391.511
   vertex -11.3883 62.9742 391.677
  endloop
 endfacet
 facet normal -0.86496 -0.397582 0.306224
  outer loop
   vertex -12.9333 64.3042 382.513
   vertex -13.2362 64.9416 382.485
   vertex -13.1563 64.4312 382.048
  endloop
 endfacet
 facet normal -0.976348 -0.21097 0.0472809
  outer loop
   vertex -11.428 62.7017 391.511
   vertex -11.4229 62.4439 390.466
   vertex -11.1856 61.5586 391.416
  endloop
 endfacet
 facet normal -0.945973 -0.321373 -0.0430566
  outer loop
   vertex -10.9526 60.6206 390.667
   vertex -10.7854 60.0841 390.998
   vertex -10.779 59.8588 392.539
  endloop
 endfacet
 facet normal -0.983849 -0.174848 0.038333
  outer loop
   vertex -11.5156 63.0326 390.772
   vertex -11.4229 62.4439 390.466
   vertex -11.428 62.7017 391.511
  endloop
 endfacet
 facet normal -0.988423 0.0894532 0.122548
  outer loop
   vertex -11.4967 63.3072 390.724
   vertex -11.5156 63.0326 390.772
   vertex -11.4543 63.1332 391.193
  endloop
 endfacet
 facet normal -0.97031 -0.241862 0.00104669
  outer loop
   vertex -11.1856 61.5586 391.416
   vertex -10.8618 60.253 389.897
   vertex -10.9526 60.6206 390.667
  endloop
 endfacet
 facet normal -0.79036 -0.48117 0.379219
  outer loop
   vertex -13.7138 65.641 382.377
   vertex -13.2362 64.9416 382.485
   vertex -13.2678 65.5184 383.151
  endloop
 endfacet
 facet normal -0.980132 0.0976404 0.172646
  outer loop
   vertex -11.5156 63.0326 390.772
   vertex -11.4967 63.3072 390.724
   vertex -11.5862 63.3742 390.178
  endloop
 endfacet
 facet normal -0.981964 -0.181734 0.0521532
  outer loop
   vertex -11.5156 63.0326 390.772
   vertex -11.545 62.9217 389.832
   vertex -11.4229 62.4439 390.466
  endloop
 endfacet
 facet normal -0.95838 -0.28458 0.0228474
  outer loop
   vertex -10.9526 60.6206 390.667
   vertex -10.8618 60.253 389.897
   vertex -10.7854 60.0841 390.998
  endloop
 endfacet
 facet normal -0.905319 -0.424727 -0.00233423
  outer loop
   vertex -10.7854 60.0841 390.998
   vertex -10.8618 60.253 389.897
   vertex -10.6871 59.8774 390.483
  endloop
 endfacet
 facet normal -0.968155 -0.250201 0.00867366
  outer loop
   vertex -11.4229 62.4439 390.466
   vertex -10.8618 60.253 389.897
   vertex -11.1856 61.5586 391.416
  endloop
 endfacet
 facet normal -0.978303 -0.204298 0.034444
  outer loop
   vertex -11.545 62.9217 389.832
   vertex -11.4203 62.2701 389.509
   vertex -11.4229 62.4439 390.466
  endloop
 endfacet
 facet normal -0.964953 -0.258647 0.0443508
  outer loop
   vertex -10.8618 60.253 389.897
   vertex -11.4229 62.4439 390.466
   vertex -11.4203 62.2701 389.509
  endloop
 endfacet
 facet normal -0.908199 -0.263542 0.325147
  outer loop
   vertex -12.5779 63.5713 382.817
   vertex -12.5637 62.8068 382.237
   vertex -12.2081 62.4746 382.961
  endloop
 endfacet
 facet normal -0.99107 -0.125236 0.0457724
  outer loop
   vertex -11.5156 63.0326 390.772
   vertex -11.5862 63.3742 390.178
   vertex -11.545 62.9217 389.832
  endloop
 endfacet
 facet normal -0.989609 -0.141949 0.0228808
  outer loop
   vertex -11.646 63.557 389.405
   vertex -11.543 62.7485 388.844
   vertex -11.545 62.9217 389.832
  endloop
 endfacet
 facet normal -0.978391 -0.203984 0.0337783
  outer loop
   vertex -11.543 62.7485 388.844
   vertex -11.4203 62.2701 389.509
   vertex -11.545 62.9217 389.832
  endloop
 endfacet
 facet normal -0.964866 -0.254894 0.0637349
  outer loop
   vertex -11.371 61.8897 388.734
   vertex -10.8618 60.253 389.897
   vertex -11.4203 62.2701 389.509
  endloop
 endfacet
 facet normal -0.963212 -0.250729 0.096732
  outer loop
   vertex -11.2062 61.1239 388.725
   vertex -11.0471 60.6346 389.041
   vertex -10.8618 60.253 389.897
  endloop
 endfacet
 facet normal -0.929154 -0.367821 0.0371607
  outer loop
   vertex -11.0471 60.6346 389.041
   vertex -10.9147 60.3055 389.094
   vertex -10.8618 60.253 389.897
  endloop
 endfacet
 facet normal -0.977214 0.039028 0.20864
  outer loop
   vertex -11.6662 64.0402 389.22
   vertex -11.7589 64.0178 388.79
   vertex -11.646 63.557 389.405
  endloop
 endfacet
 facet normal -0.969178 -0.21008 0.12869
  outer loop
   vertex -11.371 61.8897 388.734
   vertex -11.2062 61.1239 388.725
   vertex -10.8618 60.253 389.897
  endloop
 endfacet
 facet normal -0.960815 -0.269397 -0.0652647
  outer loop
   vertex -13.8324 66.2116 382.69
   vertex -13.747 65.9138 382.662
   vertex -13.8245 66.1466 382.842
  endloop
 endfacet
 facet normal -0.97898 -0.200711 0.0362417
  outer loop
   vertex -11.543 62.7485 388.844
   vertex -11.371 61.8897 388.734
   vertex -11.4203 62.2701 389.509
  endloop
 endfacet
 facet normal -0.985479 -0.161636 0.0520104
  outer loop
   vertex -11.646 63.557 389.405
   vertex -11.6979 63.4667 388.141
   vertex -11.543 62.7485 388.844
  endloop
 endfacet
 facet normal -0.975659 -0.210678 0.060862
  outer loop
   vertex -11.316 61.4423 388.067
   vertex -11.2062 61.1239 388.725
   vertex -11.371 61.8897 388.734
  endloop
 endfacet
 facet normal -0.983891 -0.170855 0.0526039
  outer loop
   vertex -11.6979 63.4667 388.141
   vertex -11.646 63.557 389.405
   vertex -11.7589 64.0178 388.79
  endloop
 endfacet
 facet normal -0.98293 -0.175141 0.0563334
  outer loop
   vertex -11.8328 64.2447 388.206
   vertex -11.6979 63.4667 388.141
   vertex -11.7589 64.0178 388.79
  endloop
 endfacet
 facet normal -0.982539 -0.183832 0.0286864
  outer loop
   vertex -11.6979 63.4667 388.141
   vertex -11.4821 62.2462 387.711
   vertex -11.543 62.7485 388.844
  endloop
 endfacet
 facet normal -0.978972 -0.200726 0.0363678
  outer loop
   vertex -11.543 62.7485 388.844
   vertex -11.4821 62.2462 387.711
   vertex -11.371 61.8897 388.734
  endloop
 endfacet
 facet normal -0.976174 -0.20785 0.0623162
  outer loop
   vertex -11.2017 60.8905 388.017
   vertex -11.2062 61.1239 388.725
   vertex -11.316 61.4423 388.067
  endloop
 endfacet
 facet normal -0.988432 0.0472388 0.144121
  outer loop
   vertex -11.8328 64.2447 388.206
   vertex -11.8106 64.5688 388.252
   vertex -11.8615 64.831 387.817
  endloop
 endfacet
 facet normal -0.983954 -0.178046 0.0115527
  outer loop
   vertex -11.7003 63.406 387.001
   vertex -11.4821 62.2462 387.711
   vertex -11.6979 63.4667 388.141
  endloop
 endfacet
 facet normal -0.981993 -0.184077 0.0424975
  outer loop
   vertex -11.371 61.8897 388.734
   vertex -11.4821 62.2462 387.711
   vertex -11.316 61.4423 388.067
  endloop
 endfacet
 facet normal -0.985397 -0.169762 -0.0131671
  outer loop
   vertex -11.9459 64.9589 387.462
   vertex -11.6979 63.4667 388.141
   vertex -11.8328 64.2447 388.206
  endloop
 endfacet
 facet normal -0.95168 0.136073 0.275298
  outer loop
   vertex -11.8615 64.831 387.817
   vertex -11.9459 64.9589 387.462
   vertex -11.8328 64.2447 388.206
  endloop
 endfacet
 facet normal -0.981785 -0.18627 0.0374493
  outer loop
   vertex -11.4821 62.2462 387.711
   vertex -11.3013 61.2068 387.281
   vertex -11.316 61.4423 388.067
  endloop
 endfacet
 facet normal -0.98718 -0.159262 0.0105592
  outer loop
   vertex -11.9459 64.9589 387.462
   vertex -11.7003 63.406 387.001
   vertex -11.6979 63.4667 388.141
  endloop
 endfacet
 facet normal -0.988414 -0.150412 0.0203713
  outer loop
   vertex -11.5597 62.644 386.883
   vertex -11.4463 61.83 386.375
   vertex -11.4821 62.2462 387.711
  endloop
 endfacet
 facet normal -0.983261 -0.182146 0.00464234
  outer loop
   vertex -11.7003 63.406 387.001
   vertex -11.5597 62.644 386.883
   vertex -11.4821 62.2462 387.711
  endloop
 endfacet
 facet normal -0.9825 -0.183682 0.0308944
  outer loop
   vertex -11.4463 61.83 386.375
   vertex -11.3013 61.2068 387.281
   vertex -11.4821 62.2462 387.711
  endloop
 endfacet
 facet normal -0.95076 -0.272051 0.148469
  outer loop
   vertex -12.1781 65.2322 386.641
   vertex -11.8871 64.1279 386.481
   vertex -12.0309 64.9077 386.989
  endloop
 endfacet
 facet normal -0.978258 -0.183439 0.0967534
  outer loop
   vertex -11.8871 64.1279 386.481
   vertex -11.7003 63.406 387.001
   vertex -11.9459 64.9589 387.462
  endloop
 endfacet
 facet normal -0.982583 -0.183177 0.0312554
  outer loop
   vertex -11.3013 61.2068 387.281
   vertex -11.4463 61.83 386.375
   vertex -11.3202 61.1814 386.538
  endloop
 endfacet
 facet normal -0.980774 -0.188682 0.0498092
  outer loop
   vertex -11.5597 62.644 386.883
   vertex -11.7003 63.406 387.001
   vertex -11.6736 62.9895 385.949
  endloop
 endfacet
 facet normal -0.961891 -0.271342 0.0337428
  outer loop
   vertex -11.2355 60.9238 386.881
   vertex -11.3013 61.2068 387.281
   vertex -11.3202 61.1814 386.538
  endloop
 endfacet
 facet normal -0.964518 -0.0985242 0.244946
  outer loop
   vertex -12.2614 65.4958 386.419
   vertex -12.3852 65.3627 385.878
   vertex -12.1781 65.2322 386.641
  endloop
 endfacet
 facet normal -0.953764 -0.270356 0.131306
  outer loop
   vertex -12.0914 64.3785 385.513
   vertex -11.8871 64.1279 386.481
   vertex -12.1781 65.2322 386.641
  endloop
 endfacet
 facet normal -0.97587 -0.210364 0.0585179
  outer loop
   vertex -11.7003 63.406 387.001
   vertex -11.8871 64.1279 386.481
   vertex -11.6736 62.9895 385.949
  endloop
 endfacet
 facet normal -0.983468 -0.172122 0.0562634
  outer loop
   vertex -11.6736 62.9895 385.949
   vertex -11.4463 61.83 386.375
   vertex -11.5597 62.644 386.883
  endloop
 endfacet
 facet normal -0.919079 -0.344991 0.190458
  outer loop
   vertex -12.0914 64.3785 385.513
   vertex -12.1781 65.2322 386.641
   vertex -12.3852 65.3627 385.878
  endloop
 endfacet
 facet normal -0.982788 -0.156731 0.0977939
  outer loop
   vertex -11.6215 62.1549 385.135
   vertex -11.4463 61.83 386.375
   vertex -11.6736 62.9895 385.949
  endloop
 endfacet
 facet normal -0.97406 -0.215273 0.0697485
  outer loop
   vertex -11.6736 62.9895 385.949
   vertex -11.8871 64.1279 386.481
   vertex -11.8535 63.6833 385.578
  endloop
 endfacet
 facet normal -0.966108 -0.247389 0.0737176
  outer loop
   vertex -11.3454 61.3129 385.962
   vertex -11.4463 61.83 386.375
   vertex -11.4584 61.6046 385.46
  endloop
 endfacet
 facet normal -0.885415 -0.401622 0.233964
  outer loop
   vertex -12.7878 65.6689 384.88
   vertex -12.5037 64.9913 384.792
   vertex -12.3852 65.3627 385.878
  endloop
 endfacet
 facet normal -0.909384 -0.353039 0.219964
  outer loop
   vertex -12.0914 64.3785 385.513
   vertex -12.3852 65.3627 385.878
   vertex -12.5037 64.9913 384.792
  endloop
 endfacet
 facet normal -0.942826 -0.311574 0.118326
  outer loop
   vertex -11.8535 63.6833 385.578
   vertex -11.8871 64.1279 386.481
   vertex -12.0914 64.3785 385.513
  endloop
 endfacet
 facet normal -0.967128 -0.243644 0.0728086
  outer loop
   vertex -11.4463 61.83 386.375
   vertex -11.6215 62.1549 385.135
   vertex -11.4584 61.6046 385.46
  endloop
 endfacet
 facet normal -0.905333 -0.333567 0.262879
  outer loop
   vertex -12.7028 65.822 385.367
   vertex -12.7878 65.6689 384.88
   vertex -12.3852 65.3627 385.878
  endloop
 endfacet
 facet normal -0.972717 -0.165028 0.163059
  outer loop
   vertex -11.6736 62.9895 385.949
   vertex -11.8535 63.6833 385.578
   vertex -11.9166 63.246 384.759
  endloop
 endfacet
 facet normal -0.927272 -0.295864 0.229417
  outer loop
   vertex -12.0914 64.3785 385.513
   vertex -11.9166 63.246 384.759
   vertex -11.8535 63.6833 385.578
  endloop
 endfacet
 facet normal -0.966032 -0.208804 0.152258
  outer loop
   vertex -11.6736 62.9895 385.949
   vertex -11.9166 63.246 384.759
   vertex -11.6215 62.1549 385.135
  endloop
 endfacet
 facet normal -0.909143 -0.354529 0.21856
  outer loop
   vertex -12.2758 64.1418 384.362
   vertex -12.0914 64.3785 385.513
   vertex -12.5037 64.9913 384.792
  endloop
 endfacet
 facet normal -0.936209 -0.283126 0.208213
  outer loop
   vertex -12.2758 64.1418 384.362
   vertex -11.9166 63.246 384.759
   vertex -12.0914 64.3785 385.513
  endloop
 endfacet
 facet normal -0.966595 -0.211564 0.144692
  outer loop
   vertex -11.9166 63.246 384.759
   vertex -11.7522 61.9751 383.999
   vertex -11.6215 62.1549 385.135
  endloop
 endfacet
 facet normal -0.916541 -0.285841 0.279726
  outer loop
   vertex -11.985 62.244 383.511
   vertex -11.7522 61.9751 383.999
   vertex -11.9166 63.246 384.759
  endloop
 endfacet
 facet normal -0.892459 -0.373975 0.252307
  outer loop
   vertex -13.1622 66.1461 384.263
   vertex -12.9948 65.5658 383.995
   vertex -12.7878 65.6689 384.88
  endloop
 endfacet
 facet normal -0.880155 -0.401847 0.252676
  outer loop
   vertex -12.7878 65.6689 384.88
   vertex -12.9948 65.5658 383.995
   vertex -12.5037 64.9913 384.792
  endloop
 endfacet
 facet normal -0.93849 -0.242328 0.245994
  outer loop
   vertex -12.2317 63.2502 383.561
   vertex -11.985 62.244 383.511
   vertex -11.9166 63.246 384.759
  endloop
 endfacet
 facet normal -0.826137 -0.0745287 0.558519
  outer loop
   vertex -13.4993 66.5104 383.813
   vertex -13.1622 66.1461 384.263
   vertex -13.2124 66.4327 384.227
  endloop
 endfacet
 facet normal -0.890372 -0.371816 0.262662
  outer loop
   vertex -12.7587 64.6624 383.462
   vertex -12.2758 64.1418 384.362
   vertex -12.5037 64.9913 384.792
  endloop
 endfacet
 facet normal -0.932586 -0.265654 0.244359
  outer loop
   vertex -11.9166 63.246 384.759
   vertex -12.2758 64.1418 384.362
   vertex -12.2317 63.2502 383.561
  endloop
 endfacet
 facet normal -0.883086 -0.38717 0.265062
  outer loop
   vertex -12.9948 65.5658 383.995
   vertex -12.7587 64.6624 383.462
   vertex -12.5037 64.9913 384.792
  endloop
 endfacet
 facet normal -0.844457 -0.405319 0.350156
  outer loop
   vertex -13.1622 66.1461 384.263
   vertex -13.4448 66.1526 383.589
   vertex -12.9948 65.5658 383.995
  endloop
 endfacet
 facet normal -0.927796 -0.273682 0.253559
  outer loop
   vertex -12.4277 63.9341 383.582
   vertex -12.2317 63.2502 383.561
   vertex -12.2758 64.1418 384.362
  endloop
 endfacet
 facet normal -0.863067 -0.355863 0.358436
  outer loop
   vertex -13.4993 66.5104 383.813
   vertex -13.4448 66.1526 383.589
   vertex -13.1622 66.1461 384.263
  endloop
 endfacet
 facet normal -0.944783 -0.284623 0.162402
  outer loop
   vertex -13.7138 65.641 382.377
   vertex -13.8019 66.4829 383.34
   vertex -13.747 65.9138 382.662
  endloop
 endfacet
 facet normal -0.892558 -0.36117 0.269993
  outer loop
   vertex -12.2758 64.1418 384.362
   vertex -12.7587 64.6624 383.462
   vertex -12.4277 63.9341 383.582
  endloop
 endfacet
 facet normal -0.702107 -0.70985 -0.0562021
  outer loop
   vertex -11.8344 62.0762 383.749
   vertex -11.7522 61.9751 383.999
   vertex -11.985 62.244 383.511
  endloop
 endfacet
 facet normal -0.912168 -0.270861 0.307544
  outer loop
   vertex -12.2317 63.2502 383.561
   vertex -12.4277 63.9341 383.582
   vertex -12.5779 63.5713 382.817
  endloop
 endfacet
 facet normal -0.845832 -0.442163 0.298429
  outer loop
   vertex -13.4448 66.1526 383.589
   vertex -13.2678 65.5184 383.151
   vertex -12.9948 65.5658 383.995
  endloop
 endfacet
 facet normal -0.930254 -0.241799 0.275972
  outer loop
   vertex -12.2317 63.2502 383.561
   vertex -12.2081 62.4746 382.961
   vertex -11.985 62.244 383.511
  endloop
 endfacet
 facet normal -0.930688 -0.238148 0.277678
  outer loop
   vertex -12.2081 62.4746 382.961
   vertex -12.1126 62.2413 383.081
   vertex -11.985 62.244 383.511
  endloop
 endfacet
 facet normal -0.756512 -0.501236 0.420061
  outer loop
   vertex -13.8019 66.4829 383.34
   vertex -13.2678 65.5184 383.151
   vertex -13.4448 66.1526 383.589
  endloop
 endfacet
 facet normal -0.877313 -0.343505 0.335152
  outer loop
   vertex -12.7587 64.6624 383.462
   vertex -12.5779 63.5713 382.817
   vertex -12.4277 63.9341 383.582
  endloop
 endfacet
 facet normal -0.863536 -0.403856 0.302004
  outer loop
   vertex -12.7587 64.6624 383.462
   vertex -12.9948 65.5658 383.995
   vertex -13.2678 65.5184 383.151
  endloop
 endfacet
 facet normal -0.862832 -0.401653 0.306914
  outer loop
   vertex -13.2678 65.5184 383.151
   vertex -13.2362 64.9416 382.485
   vertex -12.7587 64.6624 383.462
  endloop
 endfacet
 facet normal -0.903315 -0.319143 0.286653
  outer loop
   vertex -12.9333 64.3042 382.513
   vertex -12.5779 63.5713 382.817
   vertex -12.7587 64.6624 383.462
  endloop
 endfacet
 facet normal -0.91265 -0.267113 0.309386
  outer loop
   vertex -12.5779 63.5713 382.817
   vertex -12.2081 62.4746 382.961
   vertex -12.2317 63.2502 383.561
  endloop
 endfacet
 facet normal -0.780251 -0.504513 0.369697
  outer loop
   vertex -13.8019 66.4829 383.34
   vertex -13.7138 65.641 382.377
   vertex -13.2678 65.5184 383.151
  endloop
 endfacet
 facet normal -0.864225 -0.397115 0.308892
  outer loop
   vertex -13.2362 64.9416 382.485
   vertex -12.9333 64.3042 382.513
   vertex -12.7587 64.6624 383.462
  endloop
 endfacet
 facet normal -0.722972 -0.556884 0.40889
  outer loop
   vertex -13.8245 66.1466 382.842
   vertex -13.747 65.9138 382.662
   vertex -13.8019 66.4829 383.34
  endloop
 endfacet
endsolid
