solid ascii
 facet normal -0.802058 -0.580703 0.139594
  outer loop
   vertex -20.2444 47.0465 416.216
   vertex -19.1853 45.701 416.704
   vertex -19.9924 46.8244 416.74
  endloop
 endfacet
 facet normal -0.795881 -0.601538 0.0687411
  outer loop
   vertex -19.1853 45.701 416.704
   vertex -20.2444 47.0465 416.216
   vertex -19.4546 45.8916 415.254
  endloop
 endfacet
 facet normal -0.77009 -0.626557 0.119951
  outer loop
   vertex -20.3207 47.0503 415.746
   vertex -19.4546 45.8916 415.254
   vertex -20.2444 47.0465 416.216
  endloop
 endfacet
 facet normal -0.801974 -0.595801 0.0431068
  outer loop
   vertex -19.1116 45.4998 416.22
   vertex -19.4546 45.8916 415.254
   vertex -18.5049 44.6642 415.958
  endloop
 endfacet
 facet normal -0.829169 -0.456588 0.322502
  outer loop
   vertex -19.4546 45.8916 415.254
   vertex -18.7708 44.4584 414.983
   vertex -18.5049 44.6642 415.958
  endloop
 endfacet
 facet normal -0.86176 -0.46891 0.193633
  outer loop
   vertex -20.5946 47.6342 415.941
   vertex -21.0457 47.8529 414.463
   vertex -20.3207 47.0503 415.746
  endloop
 endfacet
 facet normal -0.788641 -0.611614 0.0630423
  outer loop
   vertex -21.0457 47.8529 414.463
   vertex -20.0444 46.5389 414.241
   vertex -20.3207 47.0503 415.746
  endloop
 endfacet
 facet normal -0.785932 -0.614923 0.064664
  outer loop
   vertex -20.3207 47.0503 415.746
   vertex -20.0444 46.5389 414.241
   vertex -19.4546 45.8916 415.254
  endloop
 endfacet
 facet normal -0.901792 -0.432064 0.00955553
  outer loop
   vertex -19.4546 45.8916 415.254
   vertex -18.8371 44.5876 414.568
   vertex -18.7708 44.4584 414.983
  endloop
 endfacet
 facet normal -0.87607 -0.465945 0.124087
  outer loop
   vertex -19.5377 45.8625 414.558
   vertex -19.08 44.9452 414.345
   vertex -19.4546 45.8916 415.254
  endloop
 endfacet
 facet normal -0.859305 -0.487805 0.153756
  outer loop
   vertex -19.4546 45.8916 415.254
   vertex -19.08 44.9452 414.345
   vertex -18.8371 44.5876 414.568
  endloop
 endfacet
 facet normal -0.820881 -0.558058 0.121349
  outer loop
   vertex -20.0444 46.5389 414.241
   vertex -19.5377 45.8625 414.558
   vertex -19.4546 45.8916 415.254
  endloop
 endfacet
 facet normal -0.816009 -0.576899 -0.0362816
  outer loop
   vertex -19.08 44.9452 414.345
   vertex -18.9986 44.8422 414.152
   vertex -18.8371 44.5876 414.568
  endloop
 endfacet
 facet normal -0.819214 -0.563338 0.107417
  outer loop
   vertex -20.0444 46.5389 414.241
   vertex -19.6382 45.7354 413.125
   vertex -19.5377 45.8625 414.558
  endloop
 endfacet
 facet normal -0.866936 -0.487442 0.104033
  outer loop
   vertex -19.6382 45.7354 413.125
   vertex -19.409 45.4556 413.724
   vertex -19.5377 45.8625 414.558
  endloop
 endfacet
 facet normal -0.856939 -0.479835 0.188186
  outer loop
   vertex -21.2614 48.3597 414.773
   vertex -21.4427 48.3156 413.835
   vertex -21.0457 47.8529 414.463
  endloop
 endfacet
 facet normal -0.861413 -0.496052 0.109085
  outer loop
   vertex -19.1615 45.092 414.025
   vertex -19.5377 45.8625 414.558
   vertex -19.409 45.4556 413.724
  endloop
 endfacet
 facet normal -0.790337 -0.610653 0.0497025
  outer loop
   vertex -21.0457 47.8529 414.463
   vertex -21.4427 48.3156 413.835
   vertex -20.0444 46.5389 414.241
  endloop
 endfacet
 facet normal -0.791294 -0.608023 0.0645085
  outer loop
   vertex -21.4427 48.3156 413.835
   vertex -20.4383 46.9849 413.613
   vertex -20.0444 46.5389 414.241
  endloop
 endfacet
 facet normal -0.831115 -0.548385 0.0923192
  outer loop
   vertex -19.9486 46.0922 412.45
   vertex -19.6382 45.7354 413.125
   vertex -20.0444 46.5389 414.241
  endloop
 endfacet
 facet normal -0.811522 -0.575671 0.100173
  outer loop
   vertex -20.4383 46.9849 413.613
   vertex -19.9486 46.0922 412.45
   vertex -20.0444 46.5389 414.241
  endloop
 endfacet
 facet normal -0.858458 -0.489586 0.152825
  outer loop
   vertex -21.7858 48.8629 413.661
   vertex -21.8909 48.6804 412.486
   vertex -21.4427 48.3156 413.835
  endloop
 endfacet
 facet normal -0.786638 -0.609836 0.0964444
  outer loop
   vertex -20.4383 46.9849 413.613
   vertex -21.4427 48.3156 413.835
   vertex -21.8909 48.6804 412.486
  endloop
 endfacet
 facet normal -0.835617 -0.543632 0.0787905
  outer loop
   vertex -21.8909 48.6804 412.486
   vertex -21.9159 48.7668 412.817
   vertex -22.1646 49.0956 412.448
  endloop
 endfacet
 facet normal -0.814425 -0.572222 0.0963035
  outer loop
   vertex -20.4383 46.9849 413.613
   vertex -20.2439 46.4652 412.169
   vertex -19.9486 46.0922 412.45
  endloop
 endfacet
 facet normal -0.766389 -0.642001 0.0219557
  outer loop
   vertex -20.4383 46.9849 413.613
   vertex -21.8909 48.6804 412.486
   vertex -21.9041 48.6806 412.031
  endloop
 endfacet
 facet normal -0.835683 -0.548688 0.0240069
  outer loop
   vertex -22.1646 49.0956 412.448
   vertex -21.9041 48.6806 412.031
   vertex -21.8909 48.6804 412.486
  endloop
 endfacet
 facet normal -0.813688 -0.573193 0.0967521
  outer loop
   vertex -20.2439 46.4652 412.169
   vertex -20.4383 46.9849 413.613
   vertex -20.5146 46.7563 411.617
  endloop
 endfacet
 facet normal -0.734432 -0.678679 0.00225598
  outer loop
   vertex -20.5146 46.7563 411.617
   vertex -20.2657 46.4869 411.601
   vertex -20.2439 46.4652 412.169
  endloop
 endfacet
 facet normal -0.873055 -0.47956 0.0882978
  outer loop
   vertex -20.5146 46.7563 411.617
   vertex -20.4383 46.9849 413.613
   vertex -20.6826 46.9572 411.047
  endloop
 endfacet
 facet normal -0.778679 -0.622191 0.0808524
  outer loop
   vertex -20.6826 46.9572 411.047
   vertex -20.4383 46.9849 413.613
   vertex -20.9463 47.2676 410.896
  endloop
 endfacet
 facet normal -0.837716 -0.543967 0.0482904
  outer loop
   vertex -22.757 49.9409 411.432
   vertex -22.016 48.7266 410.608
   vertex -21.9041 48.6806 412.031
  endloop
 endfacet
 facet normal -0.7843 -0.616922 0.0654332
  outer loop
   vertex -20.4383 46.9849 413.613
   vertex -21.9041 48.6806 412.031
   vertex -21.2174 47.5594 409.691
  endloop
 endfacet
 facet normal -0.805103 -0.578912 0.129114
  outer loop
   vertex -22.7686 49.7543 410.523
   vertex -22.016 48.7266 410.608
   vertex -22.757 49.9409 411.432
  endloop
 endfacet
 facet normal -0.836522 -0.545815 0.0481367
  outer loop
   vertex -22.016 48.7266 410.608
   vertex -21.6558 48.0562 409.266
   vertex -21.9041 48.6806 412.031
  endloop
 endfacet
 facet normal -0.798733 -0.598337 0.0633909
  outer loop
   vertex -21.6558 48.0562 409.266
   vertex -21.458 47.8429 409.745
   vertex -21.9041 48.6806 412.031
  endloop
 endfacet
 facet normal -0.750253 -0.654515 0.0934377
  outer loop
   vertex -21.458 47.8429 409.745
   vertex -21.2174 47.5594 409.691
   vertex -21.9041 48.6806 412.031
  endloop
 endfacet
 facet normal -0.64206 -0.759852 -0.101903
  outer loop
   vertex -22.1723 48.6818 407.666
   vertex -22.0475 48.6206 407.336
   vertex -21.8611 48.3774 407.975
  endloop
 endfacet
 facet normal -0.803335 -0.594615 0.032965
  outer loop
   vertex -24.3328 51.6891 407.586
   vertex -22.551 49.2028 406.16
   vertex -22.016 48.7266 410.608
  endloop
 endfacet
 facet normal -0.762576 -0.630216 0.145966
  outer loop
   vertex -23.6527 50.5917 406.401
   vertex -22.551 49.2028 406.16
   vertex -24.3328 51.6891 407.586
  endloop
 endfacet
 facet normal -0.627346 -0.77306 -0.0938884
  outer loop
   vertex -22.3681 48.9285 406.943
   vertex -22.0475 48.6206 407.336
   vertex -22.1723 48.6818 407.666
  endloop
 endfacet
 facet normal -0.745669 -0.644545 0.168939
  outer loop
   vertex -24.1064 51.2036 406.733
   vertex -23.6527 50.5917 406.401
   vertex -24.3328 51.6891 407.586
  endloop
 endfacet
 facet normal -0.587482 -0.796222 -0.144554
  outer loop
   vertex -22.0475 48.6206 407.336
   vertex -22.3681 48.9285 406.943
   vertex -22.179 48.8153 406.798
  endloop
 endfacet
 facet normal -0.58647 -0.797366 -0.14234
  outer loop
   vertex -22.551 49.2028 406.16
   vertex -22.179 48.8153 406.798
   vertex -22.3681 48.9285 406.943
  endloop
 endfacet
 facet normal -0.799155 -0.600926 0.015455
  outer loop
   vertex -24.5578 51.7902 406.2
   vertex -23.6527 50.5917 406.401
   vertex -24.1064 51.2036 406.733
  endloop
 endfacet
 facet normal -0.777921 -0.626166 0.0524781
  outer loop
   vertex -23.6527 50.5917 406.401
   vertex -22.7855 49.471 405.884
   vertex -22.551 49.2028 406.16
  endloop
 endfacet
 facet normal -0.842635 -0.534056 0.0689298
  outer loop
   vertex -24.5578 51.7902 406.2
   vertex -24.9069 52.2988 405.873
   vertex -24.8413 52.1438 405.474
  endloop
 endfacet
 facet normal -0.782709 -0.621447 0.0342175
  outer loop
   vertex -22.9732 49.6823 405.428
   vertex -22.7855 49.471 405.884
   vertex -23.6527 50.5917 406.401
  endloop
 endfacet
 facet normal -0.784217 -0.619686 0.0315184
  outer loop
   vertex -23.239 49.9967 404.996
   vertex -22.9732 49.6823 405.428
   vertex -23.6527 50.5917 406.401
  endloop
 endfacet
 facet normal -0.799387 -0.600518 0.0189342
  outer loop
   vertex -24.5578 51.7902 406.2
   vertex -23.239 49.9967 404.996
   vertex -23.6527 50.5917 406.401
  endloop
 endfacet
 facet normal -0.799199 -0.60075 0.0194858
  outer loop
   vertex -24.8413 52.1438 405.474
   vertex -23.239 49.9967 404.996
   vertex -24.5578 51.7902 406.2
  endloop
 endfacet
 facet normal -0.799518 -0.600406 0.0168711
  outer loop
   vertex -23.239 49.9967 404.996
   vertex -24.8413 52.1438 405.474
   vertex -24.9252 52.2177 404.128
  endloop
 endfacet
 facet normal -0.805546 -0.589942 0.0553554
  outer loop
   vertex -24.9252 52.2177 404.128
   vertex -23.5323 50.3651 404.654
   vertex -23.239 49.9967 404.996
  endloop
 endfacet
 facet normal -0.82788 -0.560519 0.020829
  outer loop
   vertex -24.8413 52.1438 405.474
   vertex -25.1243 52.5331 404.702
   vertex -24.9252 52.2177 404.128
  endloop
 endfacet
 facet normal -0.799934 -0.600069 0.00482851
  outer loop
   vertex -24.9252 52.2177 404.128
   vertex -23.5176 50.3404 404.02
   vertex -23.5323 50.3651 404.654
  endloop
 endfacet
 facet normal -0.865963 -0.499435 -0.0259445
  outer loop
   vertex -25.378 53.0027 404.13
   vertex -24.9252 52.2177 404.128
   vertex -25.1243 52.5331 404.702
  endloop
 endfacet
 facet normal -0.862022 -0.497478 0.0971253
  outer loop
   vertex -25.378 53.0027 404.13
   vertex -25.4299 52.9626 403.464
   vertex -24.9252 52.2177 404.128
  endloop
 endfacet
 facet normal -0.799966 -0.600034 0.00380849
  outer loop
   vertex -24.9252 52.2177 404.128
   vertex -25.243 52.6309 402.475
   vertex -23.5176 50.3404 404.02
  endloop
 endfacet
 facet normal -0.796649 -0.604408 -0.00638005
  outer loop
   vertex -25.243 52.6309 402.475
   vertex -23.6512 50.5227 403.432
   vertex -23.5176 50.3404 404.02
  endloop
 endfacet
 facet normal -0.837697 -0.545578 0.024675
  outer loop
   vertex -25.4299 52.9626 403.464
   vertex -25.243 52.6309 402.475
   vertex -24.9252 52.2177 404.128
  endloop
 endfacet
 facet normal -0.797093 -0.60384 -0.00439198
  outer loop
   vertex -23.6512 50.5227 403.432
   vertex -25.243 52.6309 402.475
   vertex -23.7419 50.6471 402.79
  endloop
 endfacet
 facet normal -0.793134 -0.606684 0.0535911
  outer loop
   vertex -25.5086 52.9988 402.709
   vertex -25.243 52.6309 402.475
   vertex -25.4299 52.9626 403.464
  endloop
 endfacet
 facet normal -0.797754 -0.602969 0.00424565
  outer loop
   vertex -25.243 52.6309 402.475
   vertex -23.8683 50.8115 402.388
   vertex -23.7419 50.6471 402.79
  endloop
 endfacet
 facet normal -0.797605 -0.599451 -0.0669639
  outer loop
   vertex -25.243 52.6309 402.475
   vertex -24.9184 52.3335 401.271
   vertex -23.8683 50.8115 402.388
  endloop
 endfacet
 facet normal -0.823428 -0.567419 0.000958378
  outer loop
   vertex -24.9184 52.3335 401.271
   vertex -24.04 51.0594 401.635
   vertex -23.8683 50.8115 402.388
  endloop
 endfacet
 facet normal -0.567273 -0.811895 -0.137938
  outer loop
   vertex -23.633 50.7385 401.85
   vertex -23.8683 50.8115 402.388
   vertex -24.04 51.0594 401.635
  endloop
 endfacet
 facet normal -0.781954 -0.620678 -0.0575012
  outer loop
   vertex -25.9213 53.6057 401.177
   vertex -24.9184 52.3335 401.271
   vertex -25.243 52.6309 402.475
  endloop
 endfacet
 facet normal -0.808645 -0.582009 -0.0857806
  outer loop
   vertex -24.9184 52.3335 401.271
   vertex -24.0144 51.0875 401.203
   vertex -24.04 51.0594 401.635
  endloop
 endfacet
 facet normal -0.809303 -0.58347 -0.0677598
  outer loop
   vertex -24.9184 52.3335 401.271
   vertex -24.1623 51.3751 400.493
   vertex -24.0144 51.0875 401.203
  endloop
 endfacet
 facet normal -0.781162 -0.620742 -0.0668184
  outer loop
   vertex -25.957 53.7291 400.448
   vertex -24.9184 52.3335 401.271
   vertex -25.9213 53.6057 401.177
  endloop
 endfacet
 facet normal -0.791913 -0.610377 -0.0177124
  outer loop
   vertex -24.4212 51.7267 399.952
   vertex -24.1623 51.3751 400.493
   vertex -24.9184 52.3335 401.271
  endloop
 endfacet
 facet normal -0.747926 -0.659974 -0.0709955
  outer loop
   vertex -24.2712 51.5793 399.742
   vertex -24.1623 51.3751 400.493
   vertex -24.4212 51.7267 399.952
  endloop
 endfacet
 facet normal -0.55955 -0.688498 -0.461384
  outer loop
   vertex -26.0996 54.0132 400.197
   vertex -24.9184 52.3335 401.271
   vertex -25.957 53.7291 400.448
  endloop
 endfacet
 facet normal -0.903125 -0.421409 -0.0823392
  outer loop
   vertex -26.0485 53.9922 399.744
   vertex -26.0996 54.0132 400.197
   vertex -26.2271 54.3263 399.993
  endloop
 endfacet
 facet normal -0.797296 -0.600385 -0.0621047
  outer loop
   vertex -26.0485 53.9922 399.744
   vertex -24.9184 52.3335 401.271
   vertex -26.0996 54.0132 400.197
  endloop
 endfacet
 facet normal -0.903424 -0.420478 -0.0838038
  outer loop
   vertex -26.0485 53.9922 399.744
   vertex -26.2271 54.3263 399.993
   vertex -25.9984 53.9858 399.236
  endloop
 endfacet
 facet normal -0.853982 -0.513175 -0.0858264
  outer loop
   vertex -24.9184 52.3335 401.271
   vertex -24.3711 51.7619 399.243
   vertex -24.4212 51.7267 399.952
  endloop
 endfacet
 facet normal -0.756748 -0.648071 -0.0856531
  outer loop
   vertex -24.3711 51.7619 399.243
   vertex -24.2712 51.5793 399.742
   vertex -24.4212 51.7267 399.952
  endloop
 endfacet
 facet normal -0.851858 -0.523313 -0.0219711
  outer loop
   vertex -25.9984 53.9858 399.236
   vertex -26.2271 54.3263 399.993
   vertex -26.3164 54.4948 399.442
  endloop
 endfacet
 facet normal -0.792929 -0.605212 -0.07058
  outer loop
   vertex -24.9184 52.3335 401.271
   vertex -26.0485 53.9922 399.744
   vertex -25.9984 53.9858 399.236
  endloop
 endfacet
 facet normal -0.77448 -0.631842 -0.0309242
  outer loop
   vertex -24.9184 52.3335 401.271
   vertex -24.7505 52.2642 398.482
   vertex -24.3711 51.7619 399.243
  endloop
 endfacet
 facet normal -0.808664 -0.586394 -0.0469493
  outer loop
   vertex -25.9984 53.9858 399.236
   vertex -24.957 52.6447 398.049
   vertex -24.9184 52.3335 401.271
  endloop
 endfacet
 facet normal -0.858952 -0.510566 -0.039023
  outer loop
   vertex -24.9184 52.3335 401.271
   vertex -24.957 52.6447 398.049
   vertex -24.7505 52.2642 398.482
  endloop
 endfacet
 facet normal -0.848638 -0.528965 -0.00303368
  outer loop
   vertex -26.448 54.7103 398.68
   vertex -25.9984 53.9858 399.236
   vertex -26.3164 54.4948 399.442
  endloop
 endfacet
 facet normal -0.819466 -0.567885 -0.0773381
  outer loop
   vertex -26.448 54.7103 398.68
   vertex -24.957 52.6447 398.049
   vertex -25.9984 53.9858 399.236
  endloop
 endfacet
 facet normal -0.946499 -0.313947 0.0746769
  outer loop
   vertex -26.4999 54.9015 398.826
   vertex -26.448 54.7103 398.68
   vertex -26.3164 54.4948 399.442
  endloop
 endfacet
 facet normal -0.956314 -0.289676 0.039402
  outer loop
   vertex -26.4914 54.7974 398.267
   vertex -26.448 54.7103 398.68
   vertex -26.4999 54.9015 398.826
  endloop
 endfacet
 facet normal -0.795378 -0.589937 -0.139094
  outer loop
   vertex -24.957 52.6447 398.049
   vertex -24.6093 52.129 398.248
   vertex -24.7505 52.2642 398.482
  endloop
 endfacet
 facet normal -0.815508 -0.577618 -0.0361221
  outer loop
   vertex -26.4914 54.7974 398.267
   vertex -24.957 52.6447 398.049
   vertex -26.448 54.7103 398.68
  endloop
 endfacet
 facet normal -0.767379 -0.602273 -0.219992
  outer loop
   vertex -24.6093 52.129 398.248
   vertex -24.957 52.6447 398.049
   vertex -24.4692 52.1828 397.612
  endloop
 endfacet
 facet normal -0.814303 -0.568612 -0.116585
  outer loop
   vertex -26.4914 54.7974 398.267
   vertex -26.1294 54.4832 397.271
   vertex -24.957 52.6447 398.049
  endloop
 endfacet
 facet normal -0.767561 -0.636177 -0.0782819
  outer loop
   vertex -26.4798 54.872 397.547
   vertex -26.1294 54.4832 397.271
   vertex -26.4914 54.7974 398.267
  endloop
 endfacet
 facet normal -0.917556 -0.397587 -0.00392666
  outer loop
   vertex -26.6476 55.2637 397.097
   vertex -26.6746 55.3427 395.407
   vertex -26.4798 54.872 397.547
  endloop
 endfacet
 facet normal -0.765502 -0.639506 -0.0709791
  outer loop
   vertex -26.6746 55.3427 395.407
   vertex -26.1294 54.4832 397.271
   vertex -26.4798 54.872 397.547
  endloop
 endfacet
 facet normal -0.817153 -0.566394 -0.107049
  outer loop
   vertex -25.9642 54.4091 396.402
   vertex -24.957 52.6447 398.049
   vertex -26.1294 54.4832 397.271
  endloop
 endfacet
 facet normal -0.717868 -0.692741 -0.0691068
  outer loop
   vertex -24.4692 52.1828 397.612
   vertex -24.957 52.6447 398.049
   vertex -24.8901 52.6891 396.909
  endloop
 endfacet
 facet normal -0.74674 -0.659569 -0.0857181
  outer loop
   vertex -26.6746 55.3427 395.407
   vertex -25.9642 54.4091 396.402
   vertex -26.1294 54.4832 397.271
  endloop
 endfacet
 facet normal -0.769971 -0.631544 -0.0910901
  outer loop
   vertex -24.8086 52.7495 396.068
   vertex -24.957 52.6447 398.049
   vertex -25.0702 53.0882 395.931
  endloop
 endfacet
 facet normal -0.73896 -0.666603 -0.0978725
  outer loop
   vertex -26.1585 54.7559 395.507
   vertex -25.9642 54.4091 396.402
   vertex -26.6746 55.3427 395.407
  endloop
 endfacet
 facet normal -0.837405 -0.542237 -0.0687856
  outer loop
   vertex -25.9642 54.4091 396.402
   vertex -25.0702 53.0882 395.931
   vertex -24.957 52.6447 398.049
  endloop
 endfacet
 facet normal -0.840147 -0.533169 -0.0994206
  outer loop
   vertex -25.9642 54.4091 396.402
   vertex -25.7692 54.2648 395.528
   vertex -25.0702 53.0882 395.931
  endloop
 endfacet
 facet normal -0.780152 -0.621496 -0.071452
  outer loop
   vertex -26.1585 54.7559 395.507
   vertex -25.7692 54.2648 395.528
   vertex -25.9642 54.4091 396.402
  endloop
 endfacet
 facet normal -0.751745 -0.654322 -0.0821122
  outer loop
   vertex -24.8712 52.905 395.569
   vertex -25.0702 53.0882 395.931
   vertex -25.0655 53.1591 395.323
  endloop
 endfacet
 facet normal -0.843546 -0.530276 -0.0850786
  outer loop
   vertex -25.7692 54.2648 395.528
   vertex -25.6056 54.152 394.609
   vertex -25.0702 53.0882 395.931
  endloop
 endfacet
 facet normal -0.855666 -0.513243 -0.0664641
  outer loop
   vertex -25.0655 53.1591 395.323
   vertex -25.0702 53.0882 395.931
   vertex -25.6056 54.152 394.609
  endloop
 endfacet
 facet normal -0.749416 -0.661899 -0.0162928
  outer loop
   vertex -26.6746 55.3427 395.407
   vertex -25.6056 54.152 394.609
   vertex -26.1585 54.7559 395.507
  endloop
 endfacet
 facet normal -0.780797 -0.621632 -0.0626951
  outer loop
   vertex -26.1585 54.7559 395.507
   vertex -25.6056 54.152 394.609
   vertex -25.7692 54.2648 395.528
  endloop
 endfacet
 facet normal -0.829246 -0.543805 -0.128949
  outer loop
   vertex -25.0143 53.261 394.564
   vertex -25.0655 53.1591 395.323
   vertex -25.6056 54.152 394.609
  endloop
 endfacet
 facet normal -0.774579 -0.631577 0.0337368
  outer loop
   vertex -26.9803 55.6822 394.744
   vertex -26.6412 55.2222 393.918
   vertex -26.6746 55.3427 395.407
  endloop
 endfacet
 facet normal -0.730487 -0.681823 0.0387922
  outer loop
   vertex -26.6746 55.3427 395.407
   vertex -26.6412 55.2222 393.918
   vertex -25.6056 54.152 394.609
  endloop
 endfacet
 facet normal -0.831447 -0.546803 -0.0985017
  outer loop
   vertex -25.0143 53.261 394.564
   vertex -25.6056 54.152 394.609
   vertex -24.9731 53.3077 393.957
  endloop
 endfacet
 facet normal -0.782007 -0.622736 0.0257636
  outer loop
   vertex -27.2257 55.9631 394.085
   vertex -26.6412 55.2222 393.918
   vertex -26.9803 55.6822 394.744
  endloop
 endfacet
 facet normal -0.530412 -0.83931 -0.119255
  outer loop
   vertex -25.6268 54.2309 394.148
   vertex -25.6056 54.152 394.609
   vertex -25.8043 54.4046 393.715
  endloop
 endfacet
 facet normal -0.703577 -0.709254 -0.044021
  outer loop
   vertex -26.6412 55.2222 393.918
   vertex -25.8043 54.4046 393.715
   vertex -25.6056 54.152 394.609
  endloop
 endfacet
 facet normal -0.816505 -0.575426 -0.0469431
  outer loop
   vertex -24.9731 53.3077 393.957
   vertex -25.6056 54.152 394.609
   vertex -25.4301 53.9622 393.883
  endloop
 endfacet
 facet normal -0.831315 -0.552932 -0.0564036
  outer loop
   vertex -25.6268 54.2309 394.148
   vertex -25.4301 53.9622 393.883
   vertex -25.6056 54.152 394.609
  endloop
 endfacet
 facet normal -0.773851 -0.630078 0.0644662
  outer loop
   vertex -25.8043 54.4046 393.715
   vertex -25.4301 53.9622 393.883
   vertex -25.6268 54.2309 394.148
  endloop
 endfacet
 facet normal -0.773975 -0.629831 0.0653932
  outer loop
   vertex -25.8043 54.4046 393.715
   vertex -25.1408 53.5391 393.232
   vertex -25.4301 53.9622 393.883
  endloop
 endfacet
 facet normal -0.820269 -0.571933 0.00719149
  outer loop
   vertex -25.4301 53.9622 393.883
   vertex -25.1408 53.5391 393.232
   vertex -24.9731 53.3077 393.957
  endloop
 endfacet
 facet normal -0.701098 -0.712797 -0.019532
  outer loop
   vertex -26.6412 55.2222 393.918
   vertex -25.8942 54.5116 393.037
   vertex -25.8043 54.4046 393.715
  endloop
 endfacet
 facet normal -0.791319 -0.611345 0.00844173
  outer loop
   vertex -25.8942 54.5116 393.037
   vertex -25.1408 53.5391 393.232
   vertex -25.8043 54.4046 393.715
  endloop
 endfacet
 facet normal -0.654481 -0.750907 -0.0882794
  outer loop
   vertex -25.1408 53.5391 393.232
   vertex -24.9914 53.4351 393.009
   vertex -24.9731 53.3077 393.957
  endloop
 endfacet
 facet normal -0.720009 -0.693948 0.00483423
  outer loop
   vertex -27.2407 55.8292 393.424
   vertex -27.0196 55.594 392.592
   vertex -26.7441 55.3135 393.359
  endloop
 endfacet
 facet normal -0.652736 -0.757577 -0.00357788
  outer loop
   vertex -26.6412 55.2222 393.918
   vertex -26.7441 55.3135 393.359
   vertex -25.8546 54.5562 391.432
  endloop
 endfacet
 facet normal -0.663611 -0.741529 -0.0987697
  outer loop
   vertex -24.9914 53.4351 393.009
   vertex -25.1408 53.5391 393.232
   vertex -25.1399 53.5993 392.774
  endloop
 endfacet
 facet normal -0.786704 -0.616369 -0.0344408
  outer loop
   vertex -25.1408 53.5391 393.232
   vertex -25.8942 54.5116 393.037
   vertex -25.3237 53.842 391.989
  endloop
 endfacet
 facet normal -0.59806 -0.794464 -0.105598
  outer loop
   vertex -25.3237 53.842 391.989
   vertex -25.1399 53.5993 392.774
   vertex -25.1408 53.5391 393.232
  endloop
 endfacet
 facet normal -0.678583 -0.734107 -0.0247322
  outer loop
   vertex -27.0196 55.594 392.592
   vertex -25.8546 54.5562 391.432
   vertex -26.7441 55.3135 393.359
  endloop
 endfacet
 facet normal -0.716468 -0.6961 -0.0460313
  outer loop
   vertex -26.6412 55.2222 393.918
   vertex -26.0271 54.7001 392.255
   vertex -25.8942 54.5116 393.037
  endloop
 endfacet
 facet normal -0.776246 -0.630113 -0.0199655
  outer loop
   vertex -26.0271 54.7001 392.255
   vertex -25.3237 53.842 391.989
   vertex -25.8942 54.5116 393.037
  endloop
 endfacet
 facet normal -0.656845 -0.754003 -0.00583528
  outer loop
   vertex -25.8546 54.5562 391.432
   vertex -26.0271 54.7001 392.255
   vertex -26.6412 55.2222 393.918
  endloop
 endfacet
 facet normal -0.780462 -0.622807 -0.054685
  outer loop
   vertex -25.3237 53.842 391.989
   vertex -26.0271 54.7001 392.255
   vertex -25.8546 54.5562 391.432
  endloop
 endfacet
 facet normal -0.69692 -0.714583 -0.0606159
  outer loop
   vertex -27.2624 55.861 392.236
   vertex -25.8546 54.5562 391.432
   vertex -27.0196 55.594 392.592
  endloop
 endfacet
 facet normal -0.71038 0.222801 -0.667623
  outer loop
   vertex -20.7157 65.4756 377.398
   vertex -20.7217 66.0078 377.582
   vertex -20.5281 66.2026 377.441
  endloop
 endfacet
 facet normal -0.753467 -0.647797 -0.112458
  outer loop
   vertex -25.8546 54.5562 391.432
   vertex -25.1963 53.8452 391.117
   vertex -25.3237 53.842 391.989
  endloop
 endfacet
 facet normal -0.774261 -0.609405 -0.17072
  outer loop
   vertex -27.2424 56.11 390.939
   vertex -26.9526 55.6558 391.246
   vertex -27.3423 56.061 391.567
  endloop
 endfacet
 facet normal -0.616484 -0.784061 -0.0720791
  outer loop
   vertex -26.3859 55.0075 391.067
   vertex -26.0665 54.7548 391.084
   vertex -25.8546 54.5562 391.432
  endloop
 endfacet
 facet normal -0.797743 -0.583299 0.152868
  outer loop
   vertex -26.0665 54.7548 391.084
   vertex -26.1517 54.7788 390.731
   vertex -25.8546 54.5562 391.432
  endloop
 endfacet
 facet normal -0.788119 -0.609864 -0.0832679
  outer loop
   vertex -26.9526 55.6558 391.246
   vertex -26.6498 55.3187 390.849
   vertex -26.6588 55.2835 391.192
  endloop
 endfacet
 facet normal -0.713176 -0.696271 0.081155
  outer loop
   vertex -25.1963 53.8452 391.117
   vertex -25.8546 54.5562 391.432
   vertex -26.1517 54.7788 390.731
  endloop
 endfacet
 facet normal -0.702927 -0.64748 -0.294387
  outer loop
   vertex -27.0581 56.3032 390.074
   vertex -26.9526 55.6558 391.246
   vertex -27.2424 56.11 390.939
  endloop
 endfacet
 facet normal -0.620716 -0.778023 0.096906
  outer loop
   vertex -26.3859 55.0075 391.067
   vertex -26.1517 54.7788 390.731
   vertex -26.0665 54.7548 391.084
  endloop
 endfacet
 facet normal -0.804267 -0.543519 -0.240294
  outer loop
   vertex -27.2984 56.3728 390.532
   vertex -27.2424 56.11 390.939
   vertex -27.4842 56.4846 390.901
  endloop
 endfacet
 facet normal -0.836021 -0.50867 -0.205729
  outer loop
   vertex -26.9526 55.6558 391.246
   vertex -27.0581 56.3032 390.074
   vertex -26.6498 55.3187 390.849
  endloop
 endfacet
 facet normal -0.703102 -0.710775 0.0211449
  outer loop
   vertex -26.1517 54.7788 390.731
   vertex -25.4694 54.0989 390.564
   vertex -25.1963 53.8452 391.117
  endloop
 endfacet
 facet normal -0.735593 -0.610717 -0.293135
  outer loop
   vertex -27.2984 56.3728 390.532
   vertex -27.0581 56.3032 390.074
   vertex -27.2424 56.11 390.939
  endloop
 endfacet
 facet normal -0.70316 -0.71073 0.0207241
  outer loop
   vertex -25.4694 54.0989 390.564
   vertex -26.1517 54.7788 390.731
   vertex -25.6018 54.2133 389.995
  endloop
 endfacet
 facet normal -0.787202 -0.548451 -0.281983
  outer loop
   vertex -27.0581 56.3032 390.074
   vertex -26.7522 55.9464 389.914
   vertex -26.6498 55.3187 390.849
  endloop
 endfacet
 facet normal -0.740608 -0.668555 -0.0673303
  outer loop
   vertex -26.6498 55.3187 390.849
   vertex -25.9762 54.6712 389.869
   vertex -26.1517 54.7788 390.731
  endloop
 endfacet
 facet normal -0.821066 -0.439754 -0.36396
  outer loop
   vertex -27.2984 56.3728 390.532
   vertex -27.2904 56.6434 390.187
   vertex -27.0581 56.3032 390.074
  endloop
 endfacet
 facet normal -0.910297 -0.113037 -0.398223
  outer loop
   vertex -27.2904 56.6434 390.187
   vertex -27.2918 57 390.089
   vertex -27.1587 56.8335 389.832
  endloop
 endfacet
 facet normal -0.832413 -0.497967 -0.24314
  outer loop
   vertex -26.7522 55.9464 389.914
   vertex -25.9762 54.6712 389.869
   vertex -26.6498 55.3187 390.849
  endloop
 endfacet
 facet normal -0.773351 -0.474462 -0.420494
  outer loop
   vertex -27.0581 56.3032 390.074
   vertex -26.819 56.3575 389.573
   vertex -26.7522 55.9464 389.914
  endloop
 endfacet
 facet normal -0.819158 -0.546377 -0.174504
  outer loop
   vertex -25.7375 54.3871 389.638
   vertex -25.8299 54.4311 389.934
   vertex -25.9762 54.6712 389.869
  endloop
 endfacet
 facet normal -0.817262 -0.323902 -0.476623
  outer loop
   vertex -27.1587 56.8335 389.832
   vertex -26.819 56.3575 389.573
   vertex -27.2904 56.6434 390.187
  endloop
 endfacet
 facet normal -0.806021 -0.407918 -0.428873
  outer loop
   vertex -27.2904 56.6434 390.187
   vertex -26.819 56.3575 389.573
   vertex -27.0581 56.3032 390.074
  endloop
 endfacet
 facet normal -0.829381 -0.508256 -0.231954
  outer loop
   vertex -25.9762 54.6712 389.869
   vertex -25.6521 54.4166 389.268
   vertex -25.7375 54.3871 389.638
  endloop
 endfacet
 facet normal -0.784773 -0.576672 -0.227113
  outer loop
   vertex -25.7375 54.3871 389.638
   vertex -25.6521 54.4166 389.268
   vertex -25.4919 54.1596 389.367
  endloop
 endfacet
 facet normal -0.614508 -0.560428 -0.555248
  outer loop
   vertex -26.819 56.3575 389.573
   vertex -26.7088 56.6508 389.155
   vertex -26.7522 55.9464 389.914
  endloop
 endfacet
 facet normal -0.897325 -0.39491 -0.197113
  outer loop
   vertex -26.7088 56.6508 389.155
   vertex -26.922 57.0424 389.341
   vertex -26.7455 57.0182 388.586
  endloop
 endfacet
 facet normal -0.949894 -0.22709 -0.214781
  outer loop
   vertex -26.9381 57.2904 389.15
   vertex -26.7455 57.0182 388.586
   vertex -26.922 57.0424 389.341
  endloop
 endfacet
 facet normal -0.765269 -0.449423 -0.460849
  outer loop
   vertex -26.7088 56.6508 389.155
   vertex -25.9762 54.6712 389.869
   vertex -26.7522 55.9464 389.914
  endloop
 endfacet
 facet normal -0.831924 -0.433021 -0.34698
  outer loop
   vertex -26.7088 56.6508 389.155
   vertex -25.6669 55.1467 388.534
   vertex -25.9762 54.6712 389.869
  endloop
 endfacet
 facet normal -0.90235 -0.343101 -0.260856
  outer loop
   vertex -26.8278 57.2985 388.502
   vertex -26.618 57.0136 388.151
   vertex -26.7455 57.0182 388.586
  endloop
 endfacet
 facet normal -0.563021 -0.804771 0.188019
  outer loop
   vertex -26.1115 56.0285 388.28
   vertex -25.7884 55.7597 388.097
   vertex -26.7088 56.6508 389.155
  endloop
 endfacet
 facet normal -0.829191 -0.424008 -0.364224
  outer loop
   vertex -25.6669 55.1467 388.534
   vertex -26.7088 56.6508 389.155
   vertex -25.7884 55.7597 388.097
  endloop
 endfacet
 facet normal -0.713845 0.0213866 -0.699978
  outer loop
   vertex -21.0708 63.7432 377.494
   vertex -21.2459 63.9217 377.678
   vertex -20.9318 64.3245 377.37
  endloop
 endfacet
 facet normal -0.827278 -0.509311 -0.237094
  outer loop
   vertex -26.618 57.0136 388.151
   vertex -26.2328 56.4056 388.113
   vertex -26.7455 57.0182 388.586
  endloop
 endfacet
 facet normal -0.862488 -0.409259 -0.297694
  outer loop
   vertex -26.2328 56.4056 388.113
   vertex -26.1115 56.0285 388.28
   vertex -26.7088 56.6508 389.155
  endloop
 endfacet
 facet normal -0.83017 -0.491234 -0.263641
  outer loop
   vertex -26.2328 56.4056 388.113
   vertex -26.7088 56.6508 389.155
   vertex -26.7455 57.0182 388.586
  endloop
 endfacet
 facet normal -0.743402 -0.479658 -0.466135
  outer loop
   vertex -25.6669 55.1467 388.534
   vertex -25.7884 55.7597 388.097
   vertex -25.4575 55.2099 388.135
  endloop
 endfacet
 facet normal -0.802311 -0.486715 -0.345551
  outer loop
   vertex -26.407 56.8951 387.828
   vertex -26.2328 56.4056 388.113
   vertex -26.618 57.0136 388.151
  endloop
 endfacet
 facet normal -0.642622 -0.543263 -0.540279
  outer loop
   vertex -25.4364 56.2721 387.3
   vertex -26.2328 56.4056 388.113
   vertex -26.407 56.8951 387.828
  endloop
 endfacet
 facet normal -0.641777 -0.530437 -0.553859
  outer loop
   vertex -25.3476 57.0052 386.495
   vertex -25.4364 56.2721 387.3
   vertex -26.407 56.8951 387.828
  endloop
 endfacet
 facet normal -0.649268 -0.516123 -0.55863
  outer loop
   vertex -26.4347 57.7179 387.1
   vertex -25.3476 57.0052 386.495
   vertex -26.407 56.8951 387.828
  endloop
 endfacet
 facet normal -0.665818 -0.425544 -0.612862
  outer loop
   vertex -25.4364 56.2721 387.3
   vertex -24.1952 55.2273 386.677
   vertex -24.5737 55.2031 387.105
  endloop
 endfacet
 facet normal -0.56883 -0.575877 -0.587195
  outer loop
   vertex -25.3476 57.0052 386.495
   vertex -25.164 56.4945 386.818
   vertex -25.4364 56.2721 387.3
  endloop
 endfacet
 facet normal -0.676796 -0.443873 -0.587303
  outer loop
   vertex -24.6937 56.1558 386.532
   vertex -25.4364 56.2721 387.3
   vertex -25.164 56.4945 386.818
  endloop
 endfacet
 facet normal -0.674142 -0.453031 -0.583349
  outer loop
   vertex -24.6937 56.1558 386.532
   vertex -24.1952 55.2273 386.677
   vertex -25.4364 56.2721 387.3
  endloop
 endfacet
 facet normal -0.641542 -0.6843 -0.346638
  outer loop
   vertex -25.9746 57.5839 386.513
   vertex -25.3476 57.0052 386.495
   vertex -26.4347 57.7179 387.1
  endloop
 endfacet
 facet normal -0.618509 -0.566657 -0.544377
  outer loop
   vertex -25.0189 56.8914 386.24
   vertex -25.164 56.4945 386.818
   vertex -25.3476 57.0052 386.495
  endloop
 endfacet
 facet normal -0.684224 -0.509589 -0.521687
  outer loop
   vertex -25.0189 56.8914 386.24
   vertex -24.6937 56.1558 386.532
   vertex -25.164 56.4945 386.818
  endloop
 endfacet
 facet normal -0.760579 -0.477105 -0.440331
  outer loop
   vertex -24.6937 56.1558 386.532
   vertex -24.3155 56.0319 386.013
   vertex -24.1952 55.2273 386.677
  endloop
 endfacet
 facet normal -0.687356 -0.520677 -0.506396
  outer loop
   vertex -24.1952 55.2273 386.677
   vertex -24.3155 56.0319 386.013
   vertex -23.7429 55.666 385.612
  endloop
 endfacet
 facet normal -0.601073 -0.627719 -0.494652
  outer loop
   vertex -25.1095 57.3958 385.71
   vertex -25.0189 56.8914 386.24
   vertex -25.3476 57.0052 386.495
  endloop
 endfacet
 facet normal -0.737293 -0.504374 -0.449451
  outer loop
   vertex -24.6727 56.5867 386.014
   vertex -24.6937 56.1558 386.532
   vertex -25.0189 56.8914 386.24
  endloop
 endfacet
 facet normal -0.648621 -0.584988 -0.486909
  outer loop
   vertex -26.0246 57.9473 386.143
   vertex -25.6389 57.7527 385.863
   vertex -25.9746 57.5839 386.513
  endloop
 endfacet
 facet normal -0.603296 -0.638791 -0.477472
  outer loop
   vertex -25.9746 57.5839 386.513
   vertex -25.6389 57.7527 385.863
   vertex -25.3476 57.0052 386.495
  endloop
 endfacet
 facet normal -0.651069 -0.571147 -0.499901
  outer loop
   vertex -26.0246 57.9473 386.143
   vertex -25.7374 58.0698 385.629
   vertex -25.6389 57.7527 385.863
  endloop
 endfacet
 facet normal -0.729084 -0.629974 -0.267523
  outer loop
   vertex -25.0189 56.8914 386.24
   vertex -23.9148 56.1389 385.003
   vertex -24.6727 56.5867 386.014
  endloop
 endfacet
 facet normal -0.579219 -0.646034 -0.497137
  outer loop
   vertex -25.3476 57.0052 386.495
   vertex -25.6389 57.7527 385.863
   vertex -25.1095 57.3958 385.71
  endloop
 endfacet
 facet normal -0.741463 -0.339496 -0.578771
  outer loop
   vertex -25.7329 58.3123 385.481
   vertex -25.7374 58.0698 385.629
   vertex -25.9514 58.1962 385.829
  endloop
 endfacet
 facet normal -0.561882 -0.581005 -0.588831
  outer loop
   vertex -25.6389 57.7527 385.863
   vertex -25.4435 58.2681 385.168
   vertex -25.1095 57.3958 385.71
  endloop
 endfacet
 facet normal -0.528078 -0.60431 -0.59661
  outer loop
   vertex -25.7374 58.0698 385.629
   vertex -25.4435 58.2681 385.168
   vertex -25.6389 57.7527 385.863
  endloop
 endfacet
 facet normal -0.710445 -0.356988 -0.606488
  outer loop
   vertex -25.4435 58.2681 385.168
   vertex -25.7374 58.0698 385.629
   vertex -25.7329 58.3123 385.481
  endloop
 endfacet
 facet normal -0.748182 -0.53245 -0.395879
  outer loop
   vertex -25.4435 58.2681 385.168
   vertex -24.4067 57.3696 384.417
   vertex -25.1095 57.3958 385.71
  endloop
 endfacet
 facet normal -0.768529 -0.523923 -0.367244
  outer loop
   vertex -25.1095 57.3958 385.71
   vertex -23.9148 56.1389 385.003
   vertex -25.0189 56.8914 386.24
  endloop
 endfacet
 facet normal -0.765476 -0.499249 -0.405952
  outer loop
   vertex -25.1095 57.3958 385.71
   vertex -24.4067 57.3696 384.417
   vertex -23.9148 56.1389 385.003
  endloop
 endfacet
 facet normal -0.74747 -0.470796 -0.468658
  outer loop
   vertex -24.4067 57.3696 384.417
   vertex -25.4435 58.2681 385.168
   vertex -25.3397 58.4985 384.771
  endloop
 endfacet
 facet normal -0.628915 -0.672752 -0.389707
  outer loop
   vertex -23.6886 56.2472 384.451
   vertex -23.6423 55.9554 384.88
   vertex -23.9148 56.1389 385.003
  endloop
 endfacet
 facet normal -0.770396 -0.487178 -0.411275
  outer loop
   vertex -24.1659 57.3523 384.036
   vertex -23.6886 56.2472 384.451
   vertex -23.9148 56.1389 385.003
  endloop
 endfacet
 facet normal -0.73893 -0.506771 -0.444032
  outer loop
   vertex -24.4067 57.3696 384.417
   vertex -24.1659 57.3523 384.036
   vertex -23.9148 56.1389 385.003
  endloop
 endfacet
 facet normal -0.761444 -0.499899 -0.41268
  outer loop
   vertex -25.3397 58.4985 384.771
   vertex -25.1573 58.6582 384.241
   vertex -24.4067 57.3696 384.417
  endloop
 endfacet
 facet normal -0.734622 -0.491755 -0.467448
  outer loop
   vertex -25.1573 58.6582 384.241
   vertex -24.4428 58.6241 383.154
   vertex -24.4067 57.3696 384.417
  endloop
 endfacet
 facet normal -0.711132 -0.508871 -0.48512
  outer loop
   vertex -24.4428 58.6241 383.154
   vertex -23.5875 57.4193 383.164
   vertex -24.4067 57.3696 384.417
  endloop
 endfacet
 facet normal -0.765815 -0.416063 -0.490326
  outer loop
   vertex -24.7868 58.9697 383.398
   vertex -24.4428 58.6241 383.154
   vertex -25.1573 58.6582 384.241
  endloop
 endfacet
 facet normal -0.723559 -0.430402 -0.539644
  outer loop
   vertex -23.5875 57.4193 383.164
   vertex -22.9649 56.8052 382.819
   vertex -23.2027 56.6257 383.281
  endloop
 endfacet
 facet normal -0.720748 -0.515517 -0.463427
  outer loop
   vertex -24.4428 58.6241 383.154
   vertex -23.9363 58.3825 382.635
   vertex -23.5875 57.4193 383.164
  endloop
 endfacet
 facet normal -0.692336 -0.523469 -0.49664
  outer loop
   vertex -23.9363 58.3825 382.635
   vertex -23.3309 57.8522 382.35
   vertex -23.5875 57.4193 383.164
  endloop
 endfacet
 facet normal -0.735643 -0.473941 -0.483952
  outer loop
   vertex -23.5875 57.4193 383.164
   vertex -23.3309 57.8522 382.35
   vertex -22.9649 56.8052 382.819
  endloop
 endfacet
 facet normal -0.765672 -0.415319 -0.491179
  outer loop
   vertex -24.7868 58.9697 383.398
   vertex -24.3387 58.9632 382.705
   vertex -24.4428 58.6241 383.154
  endloop
 endfacet
 facet normal -0.735081 -0.448064 -0.508817
  outer loop
   vertex -23.9363 58.3825 382.635
   vertex -24.4428 58.6241 383.154
   vertex -24.3387 58.9632 382.705
  endloop
 endfacet
 facet normal -0.809315 -0.312619 -0.497272
  outer loop
   vertex -24.4686 59.379 382.655
   vertex -24.1137 59.3144 382.118
   vertex -24.3387 58.9632 382.705
  endloop
 endfacet
 facet normal -0.593375 -0.492587 -0.636603
  outer loop
   vertex -23.3309 57.8522 382.35
   vertex -22.6958 56.8248 382.553
   vertex -22.9649 56.8052 382.819
  endloop
 endfacet
 facet normal -0.518223 -0.462492 -0.719406
  outer loop
   vertex -22.4165 56.9676 382.26
   vertex -22.6958 56.8248 382.553
   vertex -23.3309 57.8522 382.35
  endloop
 endfacet
 facet normal -0.690188 -0.514401 -0.508952
  outer loop
   vertex -23.9363 58.3825 382.635
   vertex -23.3703 58.3305 381.92
   vertex -23.3309 57.8522 382.35
  endloop
 endfacet
 facet normal -0.738667 -0.451555 -0.500469
  outer loop
   vertex -23.7385 58.8137 381.954
   vertex -23.9363 58.3825 382.635
   vertex -24.3387 58.9632 382.705
  endloop
 endfacet
 facet normal -0.824626 -0.253334 -0.505781
  outer loop
   vertex -24.1137 59.3144 382.118
   vertex -24.0905 59.8099 381.832
   vertex -23.9092 59.639 381.622
  endloop
 endfacet
 facet normal -0.754719 -0.393647 -0.524825
  outer loop
   vertex -24.1137 59.3144 382.118
   vertex -23.7385 58.8137 381.954
   vertex -24.3387 58.9632 382.705
  endloop
 endfacet
 facet normal -0.69816 -0.495652 -0.516626
  outer loop
   vertex -23.7385 58.8137 381.954
   vertex -23.3703 58.3305 381.92
   vertex -23.9363 58.3825 382.635
  endloop
 endfacet
 facet normal -0.741738 -0.37332 -0.557187
  outer loop
   vertex -24.1137 59.3144 382.118
   vertex -23.5933 59.2655 381.458
   vertex -23.7385 58.8137 381.954
  endloop
 endfacet
 facet normal -0.66301 -0.463877 -0.587567
  outer loop
   vertex -23.7385 58.8137 381.954
   vertex -23.2787 58.7278 381.503
   vertex -23.3703 58.3305 381.92
  endloop
 endfacet
 facet normal -0.739329 -0.381764 -0.554662
  outer loop
   vertex -23.5933 59.2655 381.458
   vertex -24.1137 59.3144 382.118
   vertex -23.9092 59.639 381.622
  endloop
 endfacet
 facet normal -0.669009 -0.44145 -0.597954
  outer loop
   vertex -23.7385 58.8137 381.954
   vertex -23.5933 59.2655 381.458
   vertex -23.2787 58.7278 381.503
  endloop
 endfacet
 facet normal -0.843542 0.166962 -0.510451
  outer loop
   vertex -20.7217 66.0078 377.582
   vertex -20.7157 65.4756 377.398
   vertex -20.9495 65.1687 377.684
  endloop
 endfacet
 facet normal -0.397615 -0.556557 -0.729484
  outer loop
   vertex -21.7184 57.3381 381.637
   vertex -22.8444 57.8109 381.89
   vertex -21.4814 57.6839 381.244
  endloop
 endfacet
 facet normal -0.725568 -0.354758 -0.58966
  outer loop
   vertex -23.9092 59.639 381.622
   vertex -23.626 59.8028 381.175
   vertex -23.5933 59.2655 381.458
  endloop
 endfacet
 facet normal -0.381902 -0.622146 -0.683437
  outer loop
   vertex -22.8444 57.8109 381.89
   vertex -22.0227 58.4951 380.808
   vertex -21.4814 57.6839 381.244
  endloop
 endfacet
 facet normal -0.611637 -0.414246 -0.674018
  outer loop
   vertex -23.5933 59.2655 381.458
   vertex -23.0029 59.152 380.992
   vertex -23.2787 58.7278 381.503
  endloop
 endfacet
 facet normal -0.470657 -0.539199 -0.698389
  outer loop
   vertex -22.441 58.9224 380.76
   vertex -22.0227 58.4951 380.808
   vertex -22.8444 57.8109 381.89
  endloop
 endfacet
 facet normal -0.652995 -0.383692 -0.652976
  outer loop
   vertex -23.626 59.8028 381.175
   vertex -23.2424 59.6622 380.874
   vertex -23.5933 59.2655 381.458
  endloop
 endfacet
 facet normal -0.607277 -0.438338 -0.662626
  outer loop
   vertex -23.0029 59.152 380.992
   vertex -23.5933 59.2655 381.458
   vertex -23.2424 59.6622 380.874
  endloop
 endfacet
 facet normal -0.687906 0.173607 -0.704731
  outer loop
   vertex -20.589 66.6513 377.611
   vertex -20.5281 66.2026 377.441
   vertex -20.7217 66.0078 377.582
  endloop
 endfacet
 facet normal -0.65466 -0.319399 -0.685131
  outer loop
   vertex -23.3365 60.2197 380.704
   vertex -23.2424 59.6622 380.874
   vertex -23.626 59.8028 381.175
  endloop
 endfacet
 facet normal -0.532646 -0.419993 -0.734775
  outer loop
   vertex -23.0029 59.152 380.992
   vertex -23.2424 59.6622 380.874
   vertex -22.8132 59.6497 380.57
  endloop
 endfacet
 facet normal -0.596036 -0.324541 -0.734448
  outer loop
   vertex -23.2424 59.6622 380.874
   vertex -23.3365 60.2197 380.704
   vertex -22.892 60.1321 380.382
  endloop
 endfacet
 facet normal -0.421828 -0.498055 -0.75763
  outer loop
   vertex -21.6754 59.0711 380.236
   vertex -22.0227 58.4951 380.808
   vertex -22.441 58.9224 380.76
  endloop
 endfacet
 facet normal -0.54184 -0.380585 -0.749376
  outer loop
   vertex -22.8132 59.6497 380.57
   vertex -23.2424 59.6622 380.874
   vertex -22.892 60.1321 380.382
  endloop
 endfacet
 facet normal -0.449882 -0.434125 -0.780476
  outer loop
   vertex -22.8132 59.6497 380.57
   vertex -21.6754 59.0711 380.236
   vertex -22.441 58.9224 380.76
  endloop
 endfacet
 facet normal -0.415385 -0.502536 -0.75823
  outer loop
   vertex -22.0227 58.4951 380.808
   vertex -21.6754 59.0711 380.236
   vertex -21.4736 58.5497 380.471
  endloop
 endfacet
 facet normal -0.490196 -0.384878 -0.782034
  outer loop
   vertex -22.2977 59.9908 380.079
   vertex -22.8132 59.6497 380.57
   vertex -22.892 60.1321 380.382
  endloop
 endfacet
 facet normal -0.490268 -0.373864 -0.787314
  outer loop
   vertex -22.5797 60.6007 379.965
   vertex -22.2977 59.9908 380.079
   vertex -22.892 60.1321 380.382
  endloop
 endfacet
 facet normal -0.450995 -0.437906 -0.777716
  outer loop
   vertex -22.8132 59.6497 380.57
   vertex -22.2977 59.9908 380.079
   vertex -21.6754 59.0711 380.236
  endloop
 endfacet
 facet normal -0.435599 -0.429744 -0.790932
  outer loop
   vertex -21.4972 60.0297 379.617
   vertex -21.6754 59.0711 380.236
   vertex -22.2977 59.9908 380.079
  endloop
 endfacet
 facet normal -0.424024 -0.434333 -0.794707
  outer loop
   vertex -21.6754 59.0711 380.236
   vertex -21.4972 60.0297 379.617
   vertex -21.2597 59.6167 379.716
  endloop
 endfacet
 facet normal -0.492313 -0.374513 -0.785728
  outer loop
   vertex -22.5797 60.6007 379.965
   vertex -21.9656 60.5508 379.604
   vertex -22.2977 59.9908 380.079
  endloop
 endfacet
 facet normal -0.439578 -0.414996 -0.796586
  outer loop
   vertex -22.2977 59.9908 380.079
   vertex -21.9656 60.5508 379.604
   vertex -21.4972 60.0297 379.617
  endloop
 endfacet
 facet normal -0.497803 -0.333027 -0.800803
  outer loop
   vertex -22.5797 60.6007 379.965
   vertex -22.4348 61.0742 379.678
   vertex -21.9656 60.5508 379.604
  endloop
 endfacet
 facet normal -0.512987 -0.368835 -0.775116
  outer loop
   vertex -21.0195 61.1492 378.801
   vertex -21.1961 60.5269 379.214
   vertex -22.5015 61.5439 379.594
  endloop
 endfacet
 facet normal -0.426539 -0.626953 -0.651916
  outer loop
   vertex -21.9261 61.7472 379.022
   vertex -21.0587 61.6562 378.542
   vertex -22.5015 61.5439 379.594
  endloop
 endfacet
 facet normal -0.512543 -0.421727 -0.747961
  outer loop
   vertex -22.5015 61.5439 379.594
   vertex -21.0587 61.6562 378.542
   vertex -21.0195 61.1492 378.801
  endloop
 endfacet
 facet normal -0.742784 -0.0395977 -0.668359
  outer loop
   vertex -21.0708 63.7432 377.494
   vertex -21.3783 63.2153 377.867
   vertex -21.2459 63.9217 377.678
  endloop
 endfacet
 facet normal -0.795413 -0.0697327 -0.602043
  outer loop
   vertex -21.5007 63.3597 378.012
   vertex -21.3783 63.2153 377.867
   vertex -21.6718 62.8679 378.295
  endloop
 endfacet
 facet normal -0.775337 -0.02353 -0.631109
  outer loop
   vertex -21.2459 63.9217 377.678
   vertex -21.3783 63.2153 377.867
   vertex -21.5007 63.3597 378.012
  endloop
 endfacet
endsolid
