solid ascii
 facet normal -0.989086 0.0706171 -0.129314
  outer loop
   vertex -10.159 71.56 333.757
   vertex -10.1508 70.8765 333.321
   vertex -10.2635 70.8325 334.159
  endloop
 endfacet
 facet normal -0.990963 -0.00968138 -0.133783
  outer loop
   vertex -10.1508 70.8765 333.321
   vertex -10.189 69.3284 333.716
   vertex -10.2635 70.8325 334.159
  endloop
 endfacet
 facet normal -0.9876 0.029165 -0.154257
  outer loop
   vertex -10.4385 70.4212 335.52
   vertex -10.189 69.3284 333.716
   vertex -10.3849 68.809 334.872
  endloop
 endfacet
 facet normal -0.991368 -0.0106152 -0.130681
  outer loop
   vertex -10.2635 70.8325 334.159
   vertex -10.189 69.3284 333.716
   vertex -10.4385 70.4212 335.52
  endloop
 endfacet
 facet normal -0.988674 0.119285 -0.0910785
  outer loop
   vertex -10.4385 70.4212 335.52
   vertex -10.2308 71.8831 335.18
   vertex -10.2635 70.8325 334.159
  endloop
 endfacet
 facet normal -0.969315 0.0839849 -0.231032
  outer loop
   vertex -10.2308 71.8831 335.18
   vertex -10.4385 70.4212 335.52
   vertex -10.3735 71.6061 335.678
  endloop
 endfacet
 facet normal -0.974223 0.0554918 -0.218653
  outer loop
   vertex -10.3849 68.809 334.872
   vertex -10.756 68.6929 336.496
   vertex -10.4385 70.4212 335.52
  endloop
 endfacet
 facet normal -0.956457 0.0109962 -0.291666
  outer loop
   vertex -10.4385 70.4212 335.52
   vertex -10.756 68.6929 336.496
   vertex -11.0784 69.747 337.593
  endloop
 endfacet
 facet normal -0.714912 -0.0355046 -0.698313
  outer loop
   vertex -65.2787 50.4679 422.305
   vertex -65.3818 48.8068 422.495
   vertex -66.0258 49.5405 423.117
  endloop
 endfacet
 facet normal -0.794816 0.17431 -0.581278
  outer loop
   vertex -64.7657 51.1797 421.817
   vertex -64.4105 50.9953 421.276
   vertex -65.2787 50.4679 422.305
  endloop
 endfacet
 facet normal -0.75712 -0.0276663 -0.65269
  outer loop
   vertex -64.1992 49.4717 421.095
   vertex -65.3818 48.8068 422.495
   vertex -65.2787 50.4679 422.305
  endloop
 endfacet
 facet normal -0.748144 -0.200161 -0.632626
  outer loop
   vertex -64.4435 48.2043 421.576
   vertex -65.1314 47.9467 422.471
   vertex -65.3818 48.8068 422.495
  endloop
 endfacet
 facet normal -0.757032 -0.0274358 -0.652801
  outer loop
   vertex -65.2787 50.4679 422.305
   vertex -64.4105 50.9953 421.276
   vertex -64.1992 49.4717 421.095
  endloop
 endfacet
 facet normal -0.731576 -0.114073 -0.672149
  outer loop
   vertex -64.4435 48.2043 421.576
   vertex -65.3818 48.8068 422.495
   vertex -64.1992 49.4717 421.095
  endloop
 endfacet
 facet normal -0.959235 0.10998 -0.260331
  outer loop
   vertex -10.4543 71.7936 336.158
   vertex -10.4385 70.4212 335.52
   vertex -11.0784 69.747 337.593
  endloop
 endfacet
 facet normal -0.74424 -0.106765 -0.659324
  outer loop
   vertex -64.4435 48.2043 421.576
   vertex -64.1992 49.4717 421.095
   vertex -63.6264 48.3381 420.632
  endloop
 endfacet
 facet normal -0.758945 -0.0279681 -0.650553
  outer loop
   vertex -64.1992 49.4717 421.095
   vertex -64.4105 50.9953 421.276
   vertex -63.658 50.8354 420.405
  endloop
 endfacet
 facet normal -0.728497 0.176805 -0.66184
  outer loop
   vertex -63.8011 51.4736 420.733
   vertex -63.658 50.8354 420.405
   vertex -64.4105 50.9953 421.276
  endloop
 endfacet
 facet normal -0.735746 -0.0497607 -0.675427
  outer loop
   vertex -63.658 50.8354 420.405
   vertex -63.0508 48.7934 419.894
   vertex -64.1992 49.4717 421.095
  endloop
 endfacet
 facet normal -0.748985 -0.111703 -0.653103
  outer loop
   vertex -64.1992 49.4717 421.095
   vertex -63.0508 48.7934 419.894
   vertex -63.6264 48.3381 420.632
  endloop
 endfacet
 facet normal -0.769586 -0.0700165 -0.634693
  outer loop
   vertex -62.7388 50.1322 419.368
   vertex -63.0508 48.7934 419.894
   vertex -63.658 50.8354 420.405
  endloop
 endfacet
 facet normal -0.751214 -0.00868061 -0.660001
  outer loop
   vertex -63.1056 51.4625 419.768
   vertex -62.7388 50.1322 419.368
   vertex -63.658 50.8354 420.405
  endloop
 endfacet
 facet normal -0.717268 -0.103568 -0.689057
  outer loop
   vertex -62.7388 50.1322 419.368
   vertex -62.2777 48.7286 419.099
   vertex -63.0508 48.7934 419.894
  endloop
 endfacet
 facet normal -0.786663 0.041536 -0.615984
  outer loop
   vertex -62.5462 51.9705 419.246
   vertex -61.8278 50.702 418.243
   vertex -62.7388 50.1322 419.368
  endloop
 endfacet
 facet normal -0.694059 0.0249643 -0.719485
  outer loop
   vertex -62.7388 50.1322 419.368
   vertex -63.1056 51.4625 419.768
   vertex -62.5462 51.9705 419.246
  endloop
 endfacet
 facet normal -0.751277 -0.0898006 -0.65385
  outer loop
   vertex -61.8278 50.702 418.243
   vertex -61.6368 49.3736 418.206
   vertex -62.7388 50.1322 419.368
  endloop
 endfacet
 facet normal -0.759891 -0.127465 -0.637431
  outer loop
   vertex -61.6368 49.3736 418.206
   vertex -62.2777 48.7286 419.099
   vertex -62.7388 50.1322 419.368
  endloop
 endfacet
 facet normal -0.820034 -0.0119917 -0.572189
  outer loop
   vertex -61.8655 51.8487 418.273
   vertex -61.8278 50.702 418.243
   vertex -62.5462 51.9705 419.246
  endloop
 endfacet
 facet normal -0.771622 -0.00873009 -0.636021
  outer loop
   vertex -61.8278 50.702 418.243
   vertex -61.8655 51.8487 418.273
   vertex -60.8717 51.509 417.072
  endloop
 endfacet
 facet normal -0.94725 0.0694832 -0.312874
  outer loop
   vertex -10.9167 71.204 337.427
   vertex -10.4543 71.7936 336.158
   vertex -11.0784 69.747 337.593
  endloop
 endfacet
 facet normal -0.747038 -0.0890536 -0.658789
  outer loop
   vertex -61.6368 49.3736 418.206
   vertex -61.8278 50.702 418.243
   vertex -60.6179 50.1548 416.945
  endloop
 endfacet
 facet normal -0.702559 -0.190451 -0.685667
  outer loop
   vertex -60.6179 50.1548 416.945
   vertex -59.8979 49.3313 416.436
   vertex -61.6368 49.3736 418.206
  endloop
 endfacet
 facet normal -0.704634 -0.173159 -0.688119
  outer loop
   vertex -59.8979 49.3313 416.436
   vertex -61.0784 48.8935 417.755
   vertex -61.6368 49.3736 418.206
  endloop
 endfacet
 facet normal -0.7454 -0.0776166 -0.662084
  outer loop
   vertex -60.8717 51.509 417.072
   vertex -60.6179 50.1548 416.945
   vertex -61.8278 50.702 418.243
  endloop
 endfacet
 facet normal -0.620774 -0.384517 -0.683218
  outer loop
   vertex -59.8979 49.3313 416.436
   vertex -60.185 48.997 416.885
   vertex -61.0784 48.8935 417.755
  endloop
 endfacet
 facet normal -0.731273 -0.0734655 -0.678117
  outer loop
   vertex -60.6179 50.1548 416.945
   vertex -60.8717 51.509 417.072
   vertex -59.291 50.1649 415.513
  endloop
 endfacet
 facet normal -0.715622 -0.214886 -0.664612
  outer loop
   vertex -59.8979 49.3313 416.436
   vertex -60.6179 50.1548 416.945
   vertex -59.291 50.1649 415.513
  endloop
 endfacet
 facet normal -0.769746 0.00398078 -0.638338
  outer loop
   vertex -60.6331 52.4291 416.79
   vertex -59.7928 52.4742 415.777
   vertex -60.8717 51.509 417.072
  endloop
 endfacet
 facet normal -0.734526 -0.0826085 -0.673533
  outer loop
   vertex -59.7928 52.4742 415.777
   vertex -59.291 50.1649 415.513
   vertex -60.8717 51.509 417.072
  endloop
 endfacet
 facet normal -0.76786 -0.0944145 -0.633622
  outer loop
   vertex -59.291 50.1649 415.513
   vertex -59.7928 52.4742 415.777
   vertex -59.0438 51.9663 414.945
  endloop
 endfacet
 facet normal -0.682898 -0.259095 -0.683022
  outer loop
   vertex -59.291 50.1649 415.513
   vertex -58.5041 49.7886 414.869
   vertex -59.8979 49.3313 416.436
  endloop
 endfacet
 facet normal -0.758196 -0.0536344 -0.649817
  outer loop
   vertex -58.7021 52.8787 414.471
   vertex -59.0438 51.9663 414.945
   vertex -59.7928 52.4742 415.777
  endloop
 endfacet
 facet normal -0.763206 -0.0265427 -0.64561
  outer loop
   vertex -59.3253 53.1397 415.197
   vertex -58.7021 52.8787 414.471
   vertex -59.7928 52.4742 415.777
  endloop
 endfacet
 facet normal -0.721557 -0.116191 -0.682536
  outer loop
   vertex -59.291 50.1649 415.513
   vertex -59.0438 51.9663 414.945
   vertex -58.0174 51.2374 413.984
  endloop
 endfacet
 facet normal -0.714742 -0.0924709 -0.693248
  outer loop
   vertex -58.7021 52.8787 414.471
   vertex -58.0174 51.2374 413.984
   vertex -59.0438 51.9663 414.945
  endloop
 endfacet
 facet normal -0.676697 -0.204681 -0.707239
  outer loop
   vertex -58.0174 51.2374 413.984
   vertex -58.5041 49.7886 414.869
   vertex -59.291 50.1649 415.513
  endloop
 endfacet
 facet normal -0.741805 -0.113338 -0.660969
  outer loop
   vertex -58.7021 52.8787 414.471
   vertex -57.9847 52.5689 413.719
   vertex -58.0174 51.2374 413.984
  endloop
 endfacet
 facet normal -0.686324 -0.197078 -0.700086
  outer loop
   vertex -58.0174 51.2374 413.984
   vertex -57.5262 50.049 413.837
   vertex -58.5041 49.7886 414.869
  endloop
 endfacet
 facet normal -0.662396 -0.130558 -0.73769
  outer loop
   vertex -58.0174 51.2374 413.984
   vertex -57.9847 52.5689 413.719
   vertex -57.3513 53.802 412.932
  endloop
 endfacet
 facet normal -0.702076 -0.205863 -0.681696
  outer loop
   vertex -56.647 50.5176 412.79
   vertex -57.5262 50.049 413.837
   vertex -58.0174 51.2374 413.984
  endloop
 endfacet
 facet normal -0.734205 -0.0582151 -0.676428
  outer loop
   vertex -57.9602 53.445 413.617
   vertex -57.9847 52.5689 413.719
   vertex -58.7021 52.8787 414.471
  endloop
 endfacet
 facet normal -0.724403 -0.0921002 -0.683197
  outer loop
   vertex -57.3513 53.802 412.932
   vertex -55.9004 51.8258 411.66
   vertex -58.0174 51.2374 413.984
  endloop
 endfacet
 facet normal -0.700341 -0.193741 -0.687013
  outer loop
   vertex -56.647 50.5176 412.79
   vertex -58.0174 51.2374 413.984
   vertex -55.9004 51.8258 411.66
  endloop
 endfacet
 facet normal -0.698564 -0.195811 -0.688234
  outer loop
   vertex -55.9004 51.8258 411.66
   vertex -55.4208 50.9092 411.434
   vertex -56.647 50.5176 412.79
  endloop
 endfacet
 facet normal -0.758012 -0.0986093 -0.644743
  outer loop
   vertex -57.3513 53.802 412.932
   vertex -56.8414 53.91 412.316
   vertex -56.3321 53.0812 411.844
  endloop
 endfacet
 facet normal -0.77409 -0.177113 -0.607796
  outer loop
   vertex -57.3513 53.802 412.932
   vertex -56.3321 53.0812 411.844
   vertex -55.9004 51.8258 411.66
  endloop
 endfacet
 facet normal -0.720346 -0.148408 -0.677552
  outer loop
   vertex -55.692 54.6402 410.822
   vertex -55.9004 51.8258 411.66
   vertex -56.3321 53.0812 411.844
  endloop
 endfacet
 facet normal -0.955183 0.0250847 -0.294951
  outer loop
   vertex -11.0784 69.747 337.593
   vertex -11.0144 68.6567 337.293
   vertex -11.3194 68.5423 338.271
  endloop
 endfacet
 facet normal -0.693399 -0.191531 -0.694632
  outer loop
   vertex -55.9004 51.8258 411.66
   vertex -54.3994 51.4801 410.257
   vertex -55.4208 50.9092 411.434
  endloop
 endfacet
 facet normal -0.693459 -0.157966 -0.702966
  outer loop
   vertex -55.692 54.6402 410.822
   vertex -54.3994 51.4801 410.257
   vertex -55.9004 51.8258 411.66
  endloop
 endfacet
 facet normal -0.730423 -0.181024 -0.658568
  outer loop
   vertex -53.7828 54.5874 408.719
   vertex -54.3994 51.4801 410.257
   vertex -55.692 54.6402 410.822
  endloop
 endfacet
 facet normal -0.574003 -0.439689 -0.690792
  outer loop
   vertex -53.4701 52.0438 409.126
   vertex -53.6095 51.6162 409.514
   vertex -54.3994 51.4801 410.257
  endloop
 endfacet
 facet normal -0.735924 -0.182003 -0.652143
  outer loop
   vertex -53.7828 54.5874 408.719
   vertex -55.0157 54.8858 410.027
   vertex -54.355 55.2206 409.188
  endloop
 endfacet
 facet normal -0.899883 0.050519 -0.433196
  outer loop
   vertex -11.0784 69.747 337.593
   vertex -11.2547 71.6315 338.179
   vertex -10.9167 71.204 337.427
  endloop
 endfacet
 facet normal -0.707635 -0.195636 -0.678954
  outer loop
   vertex -53.4701 52.0438 409.126
   vertex -54.3994 51.4801 410.257
   vertex -53.7828 54.5874 408.719
  endloop
 endfacet
 facet normal -0.695333 -0.196117 -0.691411
  outer loop
   vertex -53.4701 52.0438 409.126
   vertex -53.7828 54.5874 408.719
   vertex -52.7923 52.3941 408.345
  endloop
 endfacet
 facet normal -0.785035 -0.0401405 -0.61815
  outer loop
   vertex -54.0581 55.7896 408.774
   vertex -53.5943 55.7121 408.19
   vertex -54.355 55.2206 409.188
  endloop
 endfacet
 facet normal -0.736359 -0.182958 -0.651385
  outer loop
   vertex -54.355 55.2206 409.188
   vertex -53.5943 55.7121 408.19
   vertex -53.7828 54.5874 408.719
  endloop
 endfacet
 facet normal -0.689494 -0.210412 -0.693054
  outer loop
   vertex -53.7828 54.5874 408.719
   vertex -53.5943 55.7121 408.19
   vertex -51.7116 53.2581 407.062
  endloop
 endfacet
 facet normal -0.688198 -0.191464 -0.699804
  outer loop
   vertex -52.7923 52.3941 408.345
   vertex -53.7828 54.5874 408.719
   vertex -52.286 52.9646 407.691
  endloop
 endfacet
 facet normal -0.823974 0.096536 -0.558344
  outer loop
   vertex -11.732 71.0741 338.787
   vertex -11.2547 71.6315 338.179
   vertex -11.0784 69.747 337.593
  endloop
 endfacet
 facet normal -0.682643 -0.181191 -0.707933
  outer loop
   vertex -52.286 52.9646 407.691
   vertex -53.7828 54.5874 408.719
   vertex -51.7116 53.2581 407.062
  endloop
 endfacet
 facet normal -0.682112 -0.20001 -0.703363
  outer loop
   vertex -51.7116 53.2581 407.062
   vertex -53.5943 55.7121 408.19
   vertex -52.7537 56.5237 407.144
  endloop
 endfacet
 facet normal -0.776614 -0.233132 -0.585253
  outer loop
   vertex -51.7116 53.2581 407.062
   vertex -52.7537 56.5237 407.144
   vertex -51.6421 56.8474 405.54
  endloop
 endfacet
 facet normal -0.626075 -0.294106 -0.722172
  outer loop
   vertex -51.7116 53.2581 407.062
   vertex -51.6421 56.8474 405.54
   vertex -51.0878 54.1156 406.172
  endloop
 endfacet
 facet normal -0.636911 -0.294099 -0.712636
  outer loop
   vertex -51.0878 54.1156 406.172
   vertex -51.6421 56.8474 405.54
   vertex -50.3912 54.3056 405.471
  endloop
 endfacet
 facet normal -0.677929 -0.354696 -0.643897
  outer loop
   vertex -49.8824 55.3539 404.51
   vertex -49.9996 54.614 405.041
   vertex -51.6421 56.8474 405.54
  endloop
 endfacet
 facet normal -0.603409 -0.276654 -0.747904
  outer loop
   vertex -50.3912 54.3056 405.471
   vertex -51.6421 56.8474 405.54
   vertex -49.9996 54.614 405.041
  endloop
 endfacet
 facet normal -0.264477 -0.534272 -0.802873
  outer loop
   vertex -49.7376 54.4993 405.031
   vertex -49.9996 54.614 405.041
   vertex -49.8824 55.3539 404.51
  endloop
 endfacet
 facet normal -0.673075 -0.340135 -0.656718
  outer loop
   vertex -51.1986 57.7461 404.62
   vertex -49.8824 55.3539 404.51
   vertex -51.6421 56.8474 405.54
  endloop
 endfacet
 facet normal -0.752762 -0.389783 -0.530489
  outer loop
   vertex -50.5059 57.7108 403.663
   vertex -49.8824 55.3539 404.51
   vertex -51.1986 57.7461 404.62
  endloop
 endfacet
 facet normal -0.703044 -0.397824 -0.589462
  outer loop
   vertex -50.5059 57.7108 403.663
   vertex -49.2194 56.4152 403.003
   vertex -49.8824 55.3539 404.51
  endloop
 endfacet
 facet normal -0.875855 0.00280725 -0.482567
  outer loop
   vertex -11.732 71.0741 338.787
   vertex -11.0784 69.747 337.593
   vertex -11.9834 69.822 339.236
  endloop
 endfacet
 facet normal -0.860729 0.259005 -0.438249
  outer loop
   vertex -11.6386 71.6231 338.928
   vertex -11.2547 71.6315 338.179
   vertex -11.732 71.0741 338.787
  endloop
 endfacet
 facet normal -0.693523 0.630599 -0.348383
  outer loop
   vertex -11.3405 71.7609 338.584
   vertex -11.2547 71.6315 338.179
   vertex -11.6386 71.6231 338.928
  endloop
 endfacet
 facet normal -0.692722 -0.3736 -0.616895
  outer loop
   vertex -50.5059 57.7108 403.663
   vertex -48.9923 57.1516 402.302
   vertex -49.2194 56.4152 403.003
  endloop
 endfacet
 facet normal -0.690342 -0.397796 -0.604306
  outer loop
   vertex -50.2525 58.6899 402.729
   vertex -48.9923 57.1516 402.302
   vertex -50.5059 57.7108 403.663
  endloop
 endfacet
 facet normal -0.573716 -0.464943 -0.674298
  outer loop
   vertex -48.9159 56.4859 402.696
   vertex -49.2194 56.4152 403.003
   vertex -48.9923 57.1516 402.302
  endloop
 endfacet
 facet normal -0.67703 -0.379622 -0.63049
  outer loop
   vertex -49.4695 58.8497 401.792
   vertex -48.9923 57.1516 402.302
   vertex -50.2525 58.6899 402.729
  endloop
 endfacet
 facet normal -0.60181 -0.380081 -0.702398
  outer loop
   vertex -49.4695 58.8497 401.792
   vertex -48.2876 57.8986 401.294
   vertex -48.9923 57.1516 402.302
  endloop
 endfacet
 facet normal -0.608525 -0.396202 -0.687547
  outer loop
   vertex -49.0664 59.4106 401.112
   vertex -48.2876 57.8986 401.294
   vertex -49.4695 58.8497 401.792
  endloop
 endfacet
 facet normal -0.784139 -0.121886 -0.608498
  outer loop
   vertex -49.8026 60.548 401.473
   vertex -49.5313 60.5099 401.131
   vertex -49.8313 60.1485 401.59
  endloop
 endfacet
 facet normal -0.688052 -0.279399 -0.669717
  outer loop
   vertex -49.5313 60.5099 401.131
   vertex -49.0664 59.4106 401.112
   vertex -49.8313 60.1485 401.59
  endloop
 endfacet
 facet normal -0.656103 -0.265251 -0.706521
  outer loop
   vertex -49.5313 60.5099 401.131
   vertex -48.2283 59.1408 400.435
   vertex -49.0664 59.4106 401.112
  endloop
 endfacet
 facet normal -0.650576 -0.398104 -0.646734
  outer loop
   vertex -48.2283 59.1408 400.435
   vertex -48.2078 58.5046 400.806
   vertex -49.0664 59.4106 401.112
  endloop
 endfacet
 facet normal -0.681591 -0.312265 -0.661758
  outer loop
   vertex -49.5313 60.5099 401.131
   vertex -47.921 60.2608 399.59
   vertex -48.2283 59.1408 400.435
  endloop
 endfacet
 facet normal -0.788676 -0.105993 -0.605604
  outer loop
   vertex -49.2023 61.673 400.499
   vertex -47.861 63.1312 398.497
   vertex -49.5313 60.5099 401.131
  endloop
 endfacet
 facet normal -0.689839 -0.244986 -0.681252
  outer loop
   vertex -47.861 63.1312 398.497
   vertex -47.921 60.2608 399.59
   vertex -49.5313 60.5099 401.131
  endloop
 endfacet
 facet normal -0.675843 -0.382188 -0.630213
  outer loop
   vertex -47.471 59.6464 399.48
   vertex -47.921 60.2608 399.59
   vertex -47.3286 59.9272 399.157
  endloop
 endfacet
 facet normal -0.693217 -0.243773 -0.678251
  outer loop
   vertex -47.861 63.1312 398.497
   vertex -47.1405 60.2755 398.787
   vertex -47.921 60.2608 399.59
  endloop
 endfacet
 facet normal -0.671912 -0.337508 -0.659259
  outer loop
   vertex -47.1405 60.2755 398.787
   vertex -47.3286 59.9272 399.157
   vertex -47.921 60.2608 399.59
  endloop
 endfacet
 facet normal -0.873861 -0.0936772 -0.477065
  outer loop
   vertex -11.3194 68.5423 338.271
   vertex -11.9834 69.822 339.236
   vertex -11.0784 69.747 337.593
  endloop
 endfacet
 facet normal -0.72734 -0.190743 -0.659237
  outer loop
   vertex -47.416 63.8156 397.808
   vertex -45.9395 60.9158 397.018
   vertex -47.861 63.1312 398.497
  endloop
 endfacet
 facet normal -0.753218 -0.214075 -0.62196
  outer loop
   vertex -47.416 63.8156 397.808
   vertex -46.652 64.2246 396.742
   vertex -45.9395 60.9158 397.018
  endloop
 endfacet
 facet normal -0.741448 -0.212744 -0.636392
  outer loop
   vertex -45.9395 60.9158 397.018
   vertex -46.652 64.2246 396.742
   vertex -45.3743 61.2942 396.233
  endloop
 endfacet
 facet normal -0.750845 -0.219157 -0.623059
  outer loop
   vertex -46.652 64.2246 396.742
   vertex -44.7171 61.5217 395.361
   vertex -45.3743 61.2942 396.233
  endloop
 endfacet
 facet normal -0.747104 -0.21313 -0.629612
  outer loop
   vertex -44.7171 61.5217 395.361
   vertex -46.652 64.2246 396.742
   vertex -46.1517 65.1739 395.827
  endloop
 endfacet
 facet normal -0.550625 -0.596506 -0.583946
  outer loop
   vertex -43.9612 61.239 394.937
   vertex -44.7171 61.5217 395.361
   vertex -44.1109 61.7678 394.538
  endloop
 endfacet
 facet normal -0.885769 -0.1219 -0.447832
  outer loop
   vertex -11.9834 69.822 339.236
   vertex -11.3194 68.5423 338.271
   vertex -12.1247 68.8208 339.788
  endloop
 endfacet
 facet normal -0.729058 -0.202973 -0.653664
  outer loop
   vertex -43.6499 63.3081 393.616
   vertex -44.7171 61.5217 395.361
   vertex -46.1517 65.1739 395.827
  endloop
 endfacet
 facet normal -0.69539 -0.547819 -0.46511
  outer loop
   vertex -44.1109 61.7678 394.538
   vertex -43.6056 61.4957 394.103
   vertex -43.9612 61.239 394.937
  endloop
 endfacet
 facet normal -0.778281 -0.134236 -0.6134
  outer loop
   vertex -44.7171 61.5217 395.361
   vertex -43.6499 63.3081 393.616
   vertex -44.1109 61.7678 394.538
  endloop
 endfacet
 facet normal -0.730168 -0.207695 -0.650936
  outer loop
   vertex -43.5865 66.5358 392.515
   vertex -43.6499 63.3081 393.616
   vertex -46.1517 65.1739 395.827
  endloop
 endfacet
 facet normal -0.845694 -0.0214196 -0.533239
  outer loop
   vertex -11.9834 69.822 339.236
   vertex -12.31 70.7177 339.718
   vertex -11.732 71.0741 338.787
  endloop
 endfacet
 facet normal -0.735117 -0.17244 -0.655643
  outer loop
   vertex -44.1109 61.7678 394.538
   vertex -43.6499 63.3081 393.616
   vertex -43.4547 62.1071 393.713
  endloop
 endfacet
 facet normal -0.705409 -0.249158 -0.663565
  outer loop
   vertex -43.4547 62.1071 393.713
   vertex -43.6056 61.4957 394.103
   vertex -44.1109 61.7678 394.538
  endloop
 endfacet
 facet normal -0.86268 0.10896 -0.493873
  outer loop
   vertex -12.26 71.3176 339.763
   vertex -11.732 71.0741 338.787
   vertex -12.31 70.7177 339.718
  endloop
 endfacet
 facet normal -0.715741 -0.175631 -0.67592
  outer loop
   vertex -44.9038 67.5284 393.652
   vertex -43.5865 66.5358 392.515
   vertex -44.9876 65.9649 394.147
  endloop
 endfacet
 facet normal -0.616453 -0.162428 -0.770456
  outer loop
   vertex -43.4547 62.1071 393.713
   vertex -43.6499 63.3081 393.616
   vertex -42.9475 62.8432 393.152
  endloop
 endfacet
 facet normal -0.60436 -0.175803 -0.777073
  outer loop
   vertex -42.9475 62.8432 393.152
   vertex -42.6322 62.0025 393.097
   vertex -43.4547 62.1071 393.713
  endloop
 endfacet
 facet normal -0.598367 -0.11229 -0.793315
  outer loop
   vertex -42.9475 62.8432 393.152
   vertex -43.6499 63.3081 393.616
   vertex -42.5753 63.6506 392.757
  endloop
 endfacet
 facet normal -0.511768 -0.17554 -0.840999
  outer loop
   vertex -42.5753 63.6506 392.757
   vertex -42.2358 62.5889 392.772
   vertex -42.9475 62.8432 393.152
  endloop
 endfacet
 facet normal -0.757082 0.156603 -0.634273
  outer loop
   vertex -43.9976 67.5311 392.571
   vertex -44.9038 67.5284 393.652
   vertex -44.3846 68.3332 393.231
  endloop
 endfacet
 facet normal -0.737588 -0.269829 -0.618996
  outer loop
   vertex -43.9976 67.5311 392.571
   vertex -43.5865 66.5358 392.515
   vertex -44.9038 67.5284 393.652
  endloop
 endfacet
 facet normal -0.526491 -0.26519 -0.807763
  outer loop
   vertex -43.0689 65.0331 392.671
   vertex -43.6499 63.3081 393.616
   vertex -43.5865 66.5358 392.515
  endloop
 endfacet
 facet normal -0.503364 -0.132904 -0.853792
  outer loop
   vertex -42.6322 62.0025 393.097
   vertex -42.9475 62.8432 393.152
   vertex -42.2358 62.5889 392.772
  endloop
 endfacet
 facet normal -0.555537 -0.247722 -0.793734
  outer loop
   vertex -43.0689 65.0331 392.671
   vertex -42.5753 63.6506 392.757
   vertex -43.6499 63.3081 393.616
  endloop
 endfacet
 facet normal -0.479627 -0.154477 -0.863768
  outer loop
   vertex -41.9398 62.0277 392.708
   vertex -42.6322 62.0025 393.097
   vertex -42.2358 62.5889 392.772
  endloop
 endfacet
 facet normal -0.599409 -0.202623 -0.774372
  outer loop
   vertex -42.2358 62.5889 392.772
   vertex -42.5753 63.6506 392.757
   vertex -42.053 63.1756 392.477
  endloop
 endfacet
 facet normal -0.683609 -0.146527 -0.714988
  outer loop
   vertex -42.053 63.1756 392.477
   vertex -41.7373 62.3566 392.343
   vertex -42.2358 62.5889 392.772
  endloop
 endfacet
 facet normal -0.698496 -0.294018 -0.652424
  outer loop
   vertex -41.7373 62.3566 392.343
   vertex -41.9398 62.0277 392.708
   vertex -42.2358 62.5889 392.772
  endloop
 endfacet
 facet normal -0.692335 -0.288336 -0.661464
  outer loop
   vertex -42.5753 63.6506 392.757
   vertex -43.0689 65.0331 392.671
   vertex -42.2848 64.2423 392.195
  endloop
 endfacet
 facet normal -0.658195 -0.322819 -0.680123
  outer loop
   vertex -42.2848 64.2423 392.195
   vertex -42.053 63.1756 392.477
   vertex -42.5753 63.6506 392.757
  endloop
 endfacet
 facet normal -0.809812 -0.031645 -0.585835
  outer loop
   vertex -43.8408 67.9806 392.33
   vertex -43.2955 67.5773 391.598
   vertex -43.9976 67.5311 392.571
  endloop
 endfacet
 facet normal -0.770509 -0.286208 -0.569563
  outer loop
   vertex -43.2955 67.5773 391.598
   vertex -43.5865 66.5358 392.515
   vertex -43.9976 67.5311 392.571
  endloop
 endfacet
 facet normal -0.760948 -0.32065 -0.56404
  outer loop
   vertex -43.0689 65.0331 392.671
   vertex -43.5865 66.5358 392.515
   vertex -42.6537 65.6133 391.781
  endloop
 endfacet
 facet normal -0.725589 -0.370368 -0.579956
  outer loop
   vertex -43.0689 65.0331 392.671
   vertex -42.6537 65.6133 391.781
   vertex -42.2848 64.2423 392.195
  endloop
 endfacet
 facet normal -0.869512 -0.267208 -0.415389
  outer loop
   vertex -41.7887 63.3695 391.799
   vertex -41.7373 62.3566 392.343
   vertex -42.053 63.1756 392.477
  endloop
 endfacet
 facet normal -0.857752 -0.297262 -0.4194
  outer loop
   vertex -42.053 63.1756 392.477
   vertex -42.2848 64.2423 392.195
   vertex -41.7887 63.3695 391.799
  endloop
 endfacet
 facet normal -0.892436 -0.247779 -0.377047
  outer loop
   vertex -41.7373 62.3566 392.343
   vertex -41.7887 63.3695 391.799
   vertex -41.0872 62.3357 390.818
  endloop
 endfacet
 facet normal -0.793402 0.0306397 -0.607926
  outer loop
   vertex -43.4642 68.3085 391.855
   vertex -43.2955 67.5773 391.598
   vertex -43.8408 67.9806 392.33
  endloop
 endfacet
 facet normal -0.852174 -0.347447 -0.391255
  outer loop
   vertex -42.6537 65.6133 391.781
   vertex -42.0302 64.6606 391.269
   vertex -42.2848 64.2423 392.195
  endloop
 endfacet
 facet normal -0.867017 -0.31923 -0.382589
  outer loop
   vertex -42.2848 64.2423 392.195
   vertex -42.0302 64.6606 391.269
   vertex -41.7887 63.3695 391.799
  endloop
 endfacet
 facet normal -0.753952 -0.638093 -0.156187
  outer loop
   vertex -42.6537 65.6133 391.781
   vertex -43.5865 66.5358 392.515
   vertex -41.776 64.9708 390.169
  endloop
 endfacet
 facet normal -0.86312 -0.39745 -0.31154
  outer loop
   vertex -41.776 64.9708 390.169
   vertex -42.0302 64.6606 391.269
   vertex -42.6537 65.6133 391.781
  endloop
 endfacet
 facet normal -0.897131 -0.311623 -0.313125
  outer loop
   vertex -41.0872 62.3357 390.818
   vertex -41.7887 63.3695 391.799
   vertex -41.776 64.9708 390.169
  endloop
 endfacet
 facet normal -0.911094 -0.290475 -0.292459
  outer loop
   vertex -42.0302 64.6606 391.269
   vertex -41.776 64.9708 390.169
   vertex -41.7887 63.3695 391.799
  endloop
 endfacet
 facet normal -0.813389 -0.239505 -0.530127
  outer loop
   vertex -42.7123 67.9429 390.538
   vertex -43.5865 66.5358 392.515
   vertex -43.2955 67.5773 391.598
  endloop
 endfacet
 facet normal -0.880855 -0.316868 -0.351696
  outer loop
   vertex -41.0872 62.3357 390.818
   vertex -41.776 64.9708 390.169
   vertex -40.9011 62.5942 390.119
  endloop
 endfacet
 facet normal -0.927308 0.0561669 -0.370061
  outer loop
   vertex -43.5865 66.5358 392.515
   vertex -42.7123 67.9429 390.538
   vertex -42.2909 67.6856 389.443
  endloop
 endfacet
 facet normal -0.835258 -0.398774 -0.378581
  outer loop
   vertex -43.5865 66.5358 392.515
   vertex -41.9986 66.2687 389.293
   vertex -41.776 64.9708 390.169
  endloop
 endfacet
 facet normal -0.88413 -0.318276 -0.342073
  outer loop
   vertex -40.2915 62.4001 388.724
   vertex -40.9011 62.5942 390.119
   vertex -41.776 64.9708 390.169
  endloop
 endfacet
 facet normal -0.764509 -0.511259 -0.392608
  outer loop
   vertex -40.9011 62.5942 390.119
   vertex -40.6664 62.2248 390.143
   vertex -41.0872 62.3357 390.818
  endloop
 endfacet
 facet normal -0.892815 -0.138824 -0.428496
  outer loop
   vertex -42.2909 67.6856 389.443
   vertex -41.9986 66.2687 389.293
   vertex -43.5865 66.5358 392.515
  endloop
 endfacet
 facet normal -0.911358 -0.325955 -0.251355
  outer loop
   vertex -41.9986 66.2687 389.293
   vertex -41.531 65.279 388.881
   vertex -41.776 64.9708 390.169
  endloop
 endfacet
 facet normal -0.802685 -0.528017 -0.277299
  outer loop
   vertex -40.9011 62.5942 390.119
   vertex -40.2915 62.4001 388.724
   vertex -40.6664 62.2248 390.143
  endloop
 endfacet
 facet normal -0.863309 -0.428427 -0.266735
  outer loop
   vertex -41.776 64.9708 390.169
   vertex -41.531 65.279 388.881
   vertex -41.3276 64.6201 389.281
  endloop
 endfacet
 facet normal -0.887668 -0.335017 -0.315925
  outer loop
   vertex -40.2915 62.4001 388.724
   vertex -41.776 64.9708 390.169
   vertex -41.3276 64.6201 389.281
  endloop
 endfacet
 facet normal -0.945797 -0.0686591 -0.317416
  outer loop
   vertex -42.1213 67.0505 389.075
   vertex -42.2909 67.6856 389.443
   vertex -42.0048 67.3736 388.658
  endloop
 endfacet
 facet normal -0.845198 0.313683 -0.432716
  outer loop
   vertex -42.0309 67.6923 388.94
   vertex -42.0048 67.3736 388.658
   vertex -42.2909 67.6856 389.443
  endloop
 endfacet
 facet normal -0.903869 -0.36646 -0.220742
  outer loop
   vertex -41.3276 64.6201 389.281
   vertex -40.3546 62.775 388.36
   vertex -40.2915 62.4001 388.724
  endloop
 endfacet
 facet normal -0.849004 0.309453 -0.428288
  outer loop
   vertex -42.0309 67.6923 388.94
   vertex -41.8901 67.5568 388.563
   vertex -42.0048 67.3736 388.658
  endloop
 endfacet
 facet normal -0.895114 -0.314083 -0.316422
  outer loop
   vertex -39.9059 62.7767 387.089
   vertex -40.3546 62.775 388.36
   vertex -41.3276 64.6201 389.281
  endloop
 endfacet
 facet normal -0.859628 -0.431473 -0.273626
  outer loop
   vertex -41.3276 64.6201 389.281
   vertex -41.531 65.279 388.881
   vertex -41.0018 65.1975 387.347
  endloop
 endfacet
 facet normal -0.909457 -0.318343 -0.267481
  outer loop
   vertex -41.9986 66.2687 389.293
   vertex -41.5069 65.9941 387.948
   vertex -41.531 65.279 388.881
  endloop
 endfacet
 facet normal -0.892005 -0.347352 -0.289264
  outer loop
   vertex -41.5069 65.9941 387.948
   vertex -41.0018 65.1975 387.347
   vertex -41.531 65.279 388.881
  endloop
 endfacet
 facet normal -0.889421 -0.374751 -0.26171
  outer loop
   vertex -41.0018 65.1975 387.347
   vertex -39.9059 62.7767 387.089
   vertex -41.3276 64.6201 389.281
  endloop
 endfacet
 facet normal -0.846196 -0.339283 -0.410901
  outer loop
   vertex -41.0018 65.1975 387.347
   vertex -39.9791 63.5321 386.616
   vertex -39.9059 62.7767 387.089
  endloop
 endfacet
 facet normal -0.844294 -0.200503 -0.496957
  outer loop
   vertex -41.2479 66.925 386.809
   vertex -40.6319 66.5568 385.911
   vertex -41.1954 66.1933 387.015
  endloop
 endfacet
 facet normal -0.831277 -0.237589 -0.502524
  outer loop
   vertex -40.6319 66.5568 385.911
   vertex -40.5613 65.4003 386.341
   vertex -41.1954 66.1933 387.015
  endloop
 endfacet
 facet normal -0.846745 -0.308993 -0.433066
  outer loop
   vertex -41.0018 65.1975 387.347
   vertex -41.1954 66.1933 387.015
   vertex -40.5613 65.4003 386.341
  endloop
 endfacet
 facet normal -0.840216 -0.325662 -0.433567
  outer loop
   vertex -40.5613 65.4003 386.341
   vertex -39.9791 63.5321 386.616
   vertex -41.0018 65.1975 387.347
  endloop
 endfacet
 facet normal -0.810191 -0.365464 -0.458286
  outer loop
   vertex -39.9791 63.5321 386.616
   vertex -39.4684 63.1611 386.009
   vertex -39.9059 62.7767 387.089
  endloop
 endfacet
 facet normal -0.801919 -0.32381 -0.502069
  outer loop
   vertex -38.9756 63.7138 384.896
   vertex -39.9791 63.5321 386.616
   vertex -40.5613 65.4003 386.341
  endloop
 endfacet
 facet normal -0.787627 -0.263224 -0.557097
  outer loop
   vertex -40.5613 65.4003 386.341
   vertex -39.816 66.62 384.711
   vertex -38.9756 63.7138 384.896
  endloop
 endfacet
 facet normal -0.81227 -0.292263 -0.504776
  outer loop
   vertex -38.9756 63.7138 384.896
   vertex -39.4684 63.1611 386.009
   vertex -39.9791 63.5321 386.616
  endloop
 endfacet
 facet normal -0.793562 -0.254027 -0.552929
  outer loop
   vertex -40.5613 65.4003 386.341
   vertex -40.6319 66.5568 385.911
   vertex -39.816 66.62 384.711
  endloop
 endfacet
 facet normal -0.820811 -0.0957404 -0.563119
  outer loop
   vertex -40.0297 66.9876 384.96
   vertex -39.816 66.62 384.711
   vertex -40.6319 66.5568 385.911
  endloop
 endfacet
 facet normal -0.788108 -0.263317 -0.556372
  outer loop
   vertex -39.816 66.62 384.711
   vertex -39.1284 66.077 383.994
   vertex -38.9756 63.7138 384.896
  endloop
 endfacet
 facet normal -0.786421 -0.311299 -0.533511
  outer loop
   vertex -38.9756 63.7138 384.896
   vertex -38.2265 63.4238 383.961
   vertex -38.5408 63.1295 384.596
  endloop
 endfacet
 facet normal -0.791178 -0.262073 -0.55259
  outer loop
   vertex -39.1284 66.077 383.994
   vertex -38.2265 63.4238 383.961
   vertex -38.9756 63.7138 384.896
  endloop
 endfacet
 facet normal -0.772164 -0.255245 -0.581905
  outer loop
   vertex -39.1284 66.077 383.994
   vertex -37.4405 63.4785 382.894
   vertex -38.2265 63.4238 383.961
  endloop
 endfacet
 facet normal -0.774318 -0.207937 -0.597657
  outer loop
   vertex -39.0077 66.8088 383.583
   vertex -37.3679 67.0373 381.379
   vertex -39.1284 66.077 383.994
  endloop
 endfacet
 facet normal -0.770477 -0.252745 -0.585222
  outer loop
   vertex -39.1284 66.077 383.994
   vertex -36.7477 63.4667 381.987
   vertex -37.4405 63.4785 382.894
  endloop
 endfacet
 facet normal -0.764121 -0.235019 -0.600737
  outer loop
   vertex -39.1284 66.077 383.994
   vertex -37.3679 67.0373 381.379
   vertex -36.7477 63.4667 381.987
  endloop
 endfacet
 facet normal -0.895388 -0.111341 -0.431143
  outer loop
   vertex -11.9834 69.822 339.236
   vertex -12.1247 68.8208 339.788
   vertex -12.597 70.0245 340.458
  endloop
 endfacet
 facet normal -0.775139 -0.234533 -0.586646
  outer loop
   vertex -36.2841 63.6979 381.282
   vertex -36.7477 63.4667 381.987
   vertex -37.3679 67.0373 381.379
  endloop
 endfacet
 facet normal -0.771166 -0.233076 -0.592434
  outer loop
   vertex -36.2841 63.6979 381.282
   vertex -37.3679 67.0373 381.379
   vertex -36.3894 67.1702 380.053
  endloop
 endfacet
 facet normal -0.785609 -0.226127 -0.575921
  outer loop
   vertex -36.2841 63.6979 381.282
   vertex -35.5007 66.4113 379.148
   vertex -35.718 63.8553 380.448
  endloop
 endfacet
 facet normal -0.783498 -0.228316 -0.57793
  outer loop
   vertex -36.2841 63.6979 381.282
   vertex -36.3894 67.1702 380.053
   vertex -35.5007 66.4113 379.148
  endloop
 endfacet
 facet normal -0.798786 0.191758 -0.570237
  outer loop
   vertex -37.0457 67.3743 381.041
   vertex -36.3894 67.1702 380.053
   vertex -37.3679 67.0373 381.379
  endloop
 endfacet
 facet normal -0.770026 -0.236013 -0.592754
  outer loop
   vertex -35.5007 66.4113 379.148
   vertex -34.9851 63.8199 379.51
   vertex -35.718 63.8553 380.448
  endloop
 endfacet
 facet normal -0.774118 -0.184316 -0.605615
  outer loop
   vertex -35.4659 67.2443 378.85
   vertex -35.5007 66.4113 379.148
   vertex -36.3894 67.1702 380.053
  endloop
 endfacet
 facet normal -0.759342 -0.235802 -0.606463
  outer loop
   vertex -35.5007 66.4113 379.148
   vertex -34.2962 64.0062 378.575
   vertex -34.9851 63.8199 379.51
  endloop
 endfacet
 facet normal -0.762806 -0.238864 -0.600892
  outer loop
   vertex -34.6773 66.4584 378.084
   vertex -34.2962 64.0062 378.575
   vertex -35.5007 66.4113 379.148
  endloop
 endfacet
 facet normal -0.773264 -0.1847 -0.606588
  outer loop
   vertex -34.6773 66.4584 378.084
   vertex -35.5007 66.4113 379.148
   vertex -35.4659 67.2443 378.85
  endloop
 endfacet
 facet normal -0.760492 -0.239074 -0.603735
  outer loop
   vertex -34.2962 64.0062 378.575
   vertex -34.6773 66.4584 378.084
   vertex -33.4425 64.0609 377.478
  endloop
 endfacet
 facet normal -0.758458 -0.140866 -0.636317
  outer loop
   vertex -34.2479 67.7241 377.292
   vertex -34.6773 66.4584 378.084
   vertex -35.4659 67.2443 378.85
  endloop
 endfacet
 facet normal -0.895892 -0.092881 -0.434455
  outer loop
   vertex -12.31 70.7177 339.718
   vertex -11.9834 69.822 339.236
   vertex -12.597 70.0245 340.458
  endloop
 endfacet
 facet normal -0.796104 -0.103065 -0.596319
  outer loop
   vertex -34.6773 66.4584 378.084
   vertex -34.2479 67.7241 377.292
   vertex -33.3982 67.1723 376.253
  endloop
 endfacet
 facet normal -0.769529 -0.247532 -0.588687
  outer loop
   vertex -32.9327 64.4476 376.649
   vertex -33.4425 64.0609 377.478
   vertex -34.6773 66.4584 378.084
  endloop
 endfacet
 facet normal -0.756604 -0.221914 -0.615064
  outer loop
   vertex -33.3982 67.1723 376.253
   vertex -32.1944 64.4677 375.748
   vertex -34.6773 66.4584 378.084
  endloop
 endfacet
 facet normal -0.753956 -0.209897 -0.62249
  outer loop
   vertex -34.6773 66.4584 378.084
   vertex -32.1944 64.4677 375.748
   vertex -32.9327 64.4476 376.649
  endloop
 endfacet
 facet normal -0.749036 -0.216472 -0.626167
  outer loop
   vertex -33.3982 67.1723 376.253
   vertex -32.7261 67.5918 375.304
   vertex -32.1944 64.4677 375.748
  endloop
 endfacet
 facet normal -0.721243 -0.216274 -0.658053
  outer loop
   vertex -31.5953 64.484 375.086
   vertex -32.1944 64.4677 375.748
   vertex -32.7261 67.5918 375.304
  endloop
 endfacet
 facet normal -0.76883 -0.238119 -0.593464
  outer loop
   vertex -32.0046 67.8268 374.275
   vertex -31.5953 64.484 375.086
   vertex -32.7261 67.5918 375.304
  endloop
 endfacet
 facet normal -0.772596 -0.249533 -0.583805
  outer loop
   vertex -30.7157 67.9348 372.447
   vertex -31.1619 64.7845 374.384
   vertex -31.5953 64.484 375.086
  endloop
 endfacet
 facet normal -0.742534 -0.27136 -0.612378
  outer loop
   vertex -31.1619 64.7845 374.384
   vertex -30.7157 67.9348 372.447
   vertex -30.3566 64.7609 373.418
  endloop
 endfacet
 facet normal -0.795612 -0.233079 -0.559174
  outer loop
   vertex -32.0046 67.8268 374.275
   vertex -31.3368 67.7688 373.349
   vertex -31.5953 64.484 375.086
  endloop
 endfacet
 facet normal -0.776704 -0.245588 -0.580015
  outer loop
   vertex -31.5953 64.484 375.086
   vertex -31.3368 67.7688 373.349
   vertex -30.7157 67.9348 372.447
  endloop
 endfacet
 facet normal -0.804108 -0.136003 -0.578717
  outer loop
   vertex -31.1485 68.0725 373.016
   vertex -30.7157 67.9348 372.447
   vertex -31.3368 67.7688 373.349
  endloop
 endfacet
 facet normal -0.76563 -0.265837 -0.585783
  outer loop
   vertex -29.7088 64.8982 372.509
   vertex -30.3566 64.7609 373.418
   vertex -30.7157 67.9348 372.447
  endloop
 endfacet
 facet normal -0.798233 -0.275622 -0.535589
  outer loop
   vertex -30.7157 67.9348 372.447
   vertex -29.2 65.2221 371.584
   vertex -29.7088 64.8982 372.509
  endloop
 endfacet
 facet normal -0.829639 0.0991725 -0.549421
  outer loop
   vertex -30.443 68.2106 372.085
   vertex -30.1428 68.0517 371.603
   vertex -30.7157 67.9348 372.447
  endloop
 endfacet
 facet normal -0.786793 -0.242363 -0.567641
  outer loop
   vertex -30.1428 68.0517 371.603
   vertex -28.178 65.4136 370.006
   vertex -30.7157 67.9348 372.447
  endloop
 endfacet
 facet normal -0.793086 -0.269329 -0.54633
  outer loop
   vertex -28.178 65.4136 370.006
   vertex -29.2 65.2221 371.584
   vertex -30.7157 67.9348 372.447
  endloop
 endfacet
 facet normal -0.781659 -0.231592 -0.579116
  outer loop
   vertex -29.7419 68.339 370.947
   vertex -28.178 65.4136 370.006
   vertex -30.1428 68.0517 371.603
  endloop
 endfacet
 facet normal -0.802542 -0.255644 -0.539048
  outer loop
   vertex -29.1996 68.3171 370.15
   vertex -28.178 65.4136 370.006
   vertex -29.7419 68.339 370.947
  endloop
 endfacet
 facet normal -0.927314 -0.0153032 -0.373972
  outer loop
   vertex -12.6847 71.1602 340.629
   vertex -12.31 70.7177 339.718
   vertex -12.597 70.0245 340.458
  endloop
 endfacet
 facet normal -0.789949 -0.250184 -0.559811
  outer loop
   vertex -29.1996 68.3171 370.15
   vertex -28.5016 68.1449 369.242
   vertex -28.178 65.4136 370.006
  endloop
 endfacet
 facet normal -0.797066 -0.248405 -0.550436
  outer loop
   vertex -27.8723 68.6584 368.099
   vertex -28.178 65.4136 370.006
   vertex -28.5016 68.1449 369.242
  endloop
 endfacet
 facet normal -0.79098 -0.252909 -0.557124
  outer loop
   vertex -28.178 65.4136 370.006
   vertex -27.8723 68.6584 368.099
   vertex -26.5466 65.3449 367.721
  endloop
 endfacet
 facet normal -0.908888 -0.13746 -0.393736
  outer loop
   vertex -12.597 70.0245 340.458
   vertex -12.1247 68.8208 339.788
   vertex -12.6618 68.7143 341.065
  endloop
 endfacet
 facet normal -0.830772 -0.27733 -0.482604
  outer loop
   vertex -27.8723 68.6584 368.099
   vertex -27.0496 68.3239 366.875
   vertex -26.5466 65.3449 367.721
  endloop
 endfacet
 facet normal -0.824025 -0.279147 -0.493012
  outer loop
   vertex -25.7818 68.1773 364.839
   vertex -26.5466 65.3449 367.721
   vertex -27.0496 68.3239 366.875
  endloop
 endfacet
 facet normal -0.788748 -0.320665 -0.524453
  outer loop
   vertex -26.0628 65.707 366.772
   vertex -26.5466 65.3449 367.721
   vertex -25.7818 68.1773 364.839
  endloop
 endfacet
 facet normal -0.787731 -0.32155 -0.525438
  outer loop
   vertex -25.7818 68.1773 364.839
   vertex -25.2995 65.6035 365.691
   vertex -26.0628 65.707 366.772
  endloop
 endfacet
 facet normal -0.843926 -0.151628 -0.514586
  outer loop
   vertex -26.3795 68.9077 365.604
   vertex -25.7818 68.1773 364.839
   vertex -27.0496 68.3239 366.875
  endloop
 endfacet
 facet normal -0.849379 -0.302365 -0.432586
  outer loop
   vertex -25.7818 68.1773 364.839
   vertex -25.0224 65.8981 364.941
   vertex -25.2995 65.6035 365.691
  endloop
 endfacet
 facet normal -0.601412 -0.642666 -0.474642
  outer loop
   vertex -25.0224 65.8981 364.941
   vertex -24.8093 65.6433 365.016
   vertex -25.2995 65.6035 365.691
  endloop
 endfacet
 facet normal -0.655033 -0.657435 -0.372439
  outer loop
   vertex -24.8093 65.6433 365.016
   vertex -25.0224 65.8981 364.941
   vertex -24.5265 65.8323 364.185
  endloop
 endfacet
 facet normal -0.795933 -0.289005 -0.531946
  outer loop
   vertex -25.7818 68.1773 364.839
   vertex -25.3753 68.7419 363.924
   vertex -25.0224 65.8981 364.941
  endloop
 endfacet
 facet normal -0.813129 -0.282842 -0.508746
  outer loop
   vertex -25.3753 68.7419 363.924
   vertex -24.5265 65.8323 364.185
   vertex -25.0224 65.8981 364.941
  endloop
 endfacet
 facet normal -0.835121 -0.285783 -0.470002
  outer loop
   vertex -25.3753 68.7419 363.924
   vertex -23.4331 67.2338 361.39
   vertex -24.5265 65.8323 364.185
  endloop
 endfacet
 facet normal -0.830578 -0.19016 -0.52343
  outer loop
   vertex -24.7303 69.0131 362.802
   vertex -23.4331 67.2338 361.39
   vertex -25.3753 68.7419 363.924
  endloop
 endfacet
 facet normal -0.844701 -0.23372 -0.481513
  outer loop
   vertex -24.3032 68.8972 362.109
   vertex -23.4331 67.2338 361.39
   vertex -24.7303 69.0131 362.802
  endloop
 endfacet
 facet normal -0.827887 -0.207878 -0.520951
  outer loop
   vertex -23.9098 69.2877 361.328
   vertex -23.4331 67.2338 361.39
   vertex -24.3032 68.8972 362.109
  endloop
 endfacet
 facet normal -0.838183 -0.209739 -0.503448
  outer loop
   vertex -23.9098 69.2877 361.328
   vertex -22.7217 68.4667 359.692
   vertex -23.4331 67.2338 361.39
  endloop
 endfacet
 facet normal -0.82199 -0.253453 -0.509993
  outer loop
   vertex -22.9534 66.3924 361.035
   vertex -23.4331 67.2338 361.39
   vertex -22.665 66.5799 360.477
  endloop
 endfacet
 facet normal -0.820719 -0.240316 -0.518332
  outer loop
   vertex -22.665 66.5799 360.477
   vertex -23.4331 67.2338 361.39
   vertex -22.7217 68.4667 359.692
  endloop
 endfacet
 facet normal -0.835475 -0.16373 -0.52457
  outer loop
   vertex -23.9098 69.2877 361.328
   vertex -23.3175 69.4692 360.328
   vertex -22.7217 68.4667 359.692
  endloop
 endfacet
 facet normal -0.833864 -0.233203 -0.500286
  outer loop
   vertex -22.7217 68.4667 359.692
   vertex -21.9499 66.6852 359.236
   vertex -22.665 66.5799 360.477
  endloop
 endfacet
 facet normal -0.817219 -0.217429 -0.533739
  outer loop
   vertex -21.1277 66.8966 357.891
   vertex -21.9499 66.6852 359.236
   vertex -22.7217 68.4667 359.692
  endloop
 endfacet
 facet normal -0.935879 -0.10894 -0.335056
  outer loop
   vertex -12.597 70.0245 340.458
   vertex -12.6618 68.7143 341.065
   vertex -13.051 70.843 341.46
  endloop
 endfacet
 facet normal -0.813341 -0.196004 -0.547776
  outer loop
   vertex -21.9003 69.4318 358.131
   vertex -21.1277 66.8966 357.891
   vertex -22.7237 69.2323 359.425
  endloop
 endfacet
 facet normal -0.812373 -0.193913 -0.549952
  outer loop
   vertex -22.7237 69.2323 359.425
   vertex -21.1277 66.8966 357.891
   vertex -22.7217 68.4667 359.692
  endloop
 endfacet
 facet normal -0.861468 -0.219162 -0.458083
  outer loop
   vertex -21.1277 66.8966 357.891
   vertex -21.9003 69.4318 358.131
   vertex -21.4112 68.6087 357.605
  endloop
 endfacet
 facet normal -0.825583 -0.141492 -0.546254
  outer loop
   vertex -21.0541 69.8994 356.731
   vertex -21.4112 68.6087 357.605
   vertex -21.9003 69.4318 358.131
  endloop
 endfacet
 facet normal -0.723359 -0.228605 -0.65153
  outer loop
   vertex -21.4112 68.6087 357.605
   vertex -20.4613 66.6034 357.254
   vertex -21.1277 66.8966 357.891
  endloop
 endfacet
 facet normal -0.729832 -0.233233 -0.64261
  outer loop
   vertex -21.0541 69.8994 356.731
   vertex -20.4613 66.6034 357.254
   vertex -21.4112 68.6087 357.605
  endloop
 endfacet
 facet normal -0.872151 -0.225735 -0.434047
  outer loop
   vertex -21.0541 69.8994 356.731
   vertex -19.5394 67.3602 355.008
   vertex -20.4613 66.6034 357.254
  endloop
 endfacet
 facet normal -0.870357 -0.220389 -0.440349
  outer loop
   vertex -20.4473 69.537 355.713
   vertex -19.5394 67.3602 355.008
   vertex -21.0541 69.8994 356.731
  endloop
 endfacet
 facet normal -0.839149 -0.18425 -0.511743
  outer loop
   vertex -19.5394 67.3602 355.008
   vertex -20.4473 69.537 355.713
   vertex -19.9773 69.9184 354.805
  endloop
 endfacet
 facet normal -0.850272 -0.184658 -0.492889
  outer loop
   vertex -19.9773 69.9184 354.805
   vertex -18.8657 67.3837 353.837
   vertex -19.5394 67.3602 355.008
  endloop
 endfacet
 facet normal -0.807063 -0.355495 -0.471458
  outer loop
   vertex -19.5394 67.3602 355.008
   vertex -18.8657 67.3837 353.837
   vertex -19.2422 66.9454 354.812
  endloop
 endfacet
 facet normal -0.873251 0.00894406 -0.487189
  outer loop
   vertex -19.0667 70.147 353.177
   vertex -18.4084 69.9273 351.993
   vertex -19.9773 69.9184 354.805
  endloop
 endfacet
 facet normal -0.85661 -0.192916 -0.478542
  outer loop
   vertex -18.4084 69.9273 351.993
   vertex -18.8657 67.3837 353.837
   vertex -19.9773 69.9184 354.805
  endloop
 endfacet
 facet normal -0.841137 -0.210063 -0.498358
  outer loop
   vertex -18.0597 67.193 352.557
   vertex -18.8657 67.3837 353.837
   vertex -18.4084 69.9273 351.993
  endloop
 endfacet
 facet normal -0.897779 -0.195864 -0.394499
  outer loop
   vertex -18.0475 68.9297 351.667
   vertex -18.0597 67.193 352.557
   vertex -18.4084 69.9273 351.993
  endloop
 endfacet
 facet normal -0.866404 -0.222903 -0.446831
  outer loop
   vertex -18.0475 68.9297 351.667
   vertex -17.5653 67.6147 351.388
   vertex -18.0597 67.193 352.557
  endloop
 endfacet
 facet normal -0.861927 -0.153939 -0.483099
  outer loop
   vertex -18.0094 70.1223 351.219
   vertex -18.0475 68.9297 351.667
   vertex -18.4084 69.9273 351.993
  endloop
 endfacet
 facet normal -0.871576 -0.147757 -0.467464
  outer loop
   vertex -18.0094 70.1223 351.219
   vertex -17.5802 69.6691 350.562
   vertex -18.0475 68.9297 351.667
  endloop
 endfacet
 facet normal -0.844769 -0.204887 -0.494355
  outer loop
   vertex -17.5802 69.6691 350.562
   vertex -17.5653 67.6147 351.388
   vertex -18.0475 68.9297 351.667
  endloop
 endfacet
 facet normal -0.86018 -0.0858747 -0.502708
  outer loop
   vertex -17.7268 70.3883 350.69
   vertex -17.5802 69.6691 350.562
   vertex -18.0094 70.1223 351.219
  endloop
 endfacet
 facet normal -0.860482 -0.195415 -0.470514
  outer loop
   vertex -17.5802 69.6691 350.562
   vertex -16.6507 67.7239 349.67
   vertex -17.5653 67.6147 351.388
  endloop
 endfacet
 facet normal -0.767399 -0.467981 -0.438284
  outer loop
   vertex -16.7038 67.3652 350.146
   vertex -17.5653 67.6147 351.388
   vertex -16.6507 67.7239 349.67
  endloop
 endfacet
 facet normal -0.874334 -0.0934701 -0.476239
  outer loop
   vertex -17.7268 70.3883 350.69
   vertex -17.1905 70.533 349.677
   vertex -17.5802 69.6691 350.562
  endloop
 endfacet
 facet normal -0.836624 -0.159463 -0.524053
  outer loop
   vertex -16.6507 67.7239 349.67
   vertex -17.5802 69.6691 350.562
   vertex -17.1905 70.533 349.677
  endloop
 endfacet
 facet normal -0.715792 -0.574109 -0.397545
  outer loop
   vertex -16.27 67.7132 349
   vertex -16.3191 67.4448 349.476
   vertex -16.6507 67.7239 349.67
  endloop
 endfacet
 facet normal -0.881447 -0.168282 -0.441284
  outer loop
   vertex -16.2224 69.8676 347.997
   vertex -16.6507 67.7239 349.67
   vertex -17.1905 70.533 349.677
  endloop
 endfacet
 facet normal -0.852367 -0.205117 -0.481037
  outer loop
   vertex -16.2224 69.8676 347.997
   vertex -16.27 67.7132 349
   vertex -16.6507 67.7239 349.67
  endloop
 endfacet
 facet normal -0.837773 -0.21513 -0.501853
  outer loop
   vertex -16.27 67.7132 349
   vertex -16.2224 69.8676 347.997
   vertex -15.7757 68.0394 348.035
  endloop
 endfacet
 facet normal -0.913679 -0.00937892 -0.406327
  outer loop
   vertex -12.6847 71.1602 340.629
   vertex -12.597 70.0245 340.458
   vertex -13.051 70.843 341.46
  endloop
 endfacet
 facet normal -0.84554 -0.216739 -0.48794
  outer loop
   vertex -15.4697 68.7367 347.195
   vertex -15.7757 68.0394 348.035
   vertex -16.2224 69.8676 347.997
  endloop
 endfacet
 facet normal -0.835457 -0.232962 -0.497735
  outer loop
   vertex -15.7757 68.0394 348.035
   vertex -15.4697 68.7367 347.195
   vertex -14.8405 67.7408 346.605
  endloop
 endfacet
 facet normal -0.913459 -0.0702763 -0.400817
  outer loop
   vertex -15.9446 70.7054 347.217
   vertex -16.2224 69.8676 347.997
   vertex -16.5786 70.6535 348.671
  endloop
 endfacet
 facet normal -0.886166 -0.122272 -0.446945
  outer loop
   vertex -15.9446 70.7054 347.217
   vertex -15.8947 70.1318 347.275
   vertex -16.2224 69.8676 347.997
  endloop
 endfacet
 facet normal -0.850923 -0.23221 -0.471178
  outer loop
   vertex -15.8947 70.1318 347.275
   vertex -15.4697 68.7367 347.195
   vertex -16.2224 69.8676 347.997
  endloop
 endfacet
 facet normal -0.829305 -0.223269 -0.512255
  outer loop
   vertex -15.492 70.6596 346.393
   vertex -15.4697 68.7367 347.195
   vertex -15.8947 70.1318 347.275
  endloop
 endfacet
 facet normal -0.879584 -0.142793 -0.453809
  outer loop
   vertex -14.5958 70.9652 344.8
   vertex -14.7711 68.298 345.979
   vertex -15.4697 68.7367 347.195
  endloop
 endfacet
 facet normal -0.904608 -0.121187 -0.408653
  outer loop
   vertex -14.5958 70.9652 344.8
   vertex -14.2902 68.421 344.878
   vertex -14.7711 68.298 345.979
  endloop
 endfacet
 facet normal -0.909582 -0.0812604 -0.407501
  outer loop
   vertex -15.4697 68.7367 347.195
   vertex -15.0906 70.9573 345.906
   vertex -14.5958 70.9652 344.8
  endloop
 endfacet
 facet normal -0.897638 -0.0821755 -0.433006
  outer loop
   vertex -14.2467 70.7296 344.121
   vertex -13.9097 69.4301 343.669
   vertex -14.5958 70.9652 344.8
  endloop
 endfacet
 facet normal -0.913209 -0.121615 -0.38892
  outer loop
   vertex -14.2902 68.421 344.878
   vertex -14.5958 70.9652 344.8
   vertex -13.9097 69.4301 343.669
  endloop
 endfacet
 facet normal -0.894919 -0.161111 -0.416129
  outer loop
   vertex -13.9097 69.4301 343.669
   vertex -13.7175 68.2411 343.716
   vertex -14.2902 68.421 344.878
  endloop
 endfacet
 facet normal -0.911968 -0.0979272 -0.398403
  outer loop
   vertex -14.2467 70.7296 344.121
   vertex -13.8064 70.543 343.159
   vertex -13.9097 69.4301 343.669
  endloop
 endfacet
 facet normal -0.864807 -0.14062 -0.482011
  outer loop
   vertex -13.9097 69.4301 343.669
   vertex -13.8064 70.543 343.159
   vertex -13.523 70.9527 342.531
  endloop
 endfacet
 facet normal -0.904368 -0.161798 -0.394892
  outer loop
   vertex -13.7175 68.2411 343.716
   vertex -13.9097 69.4301 343.669
   vertex -13.2719 68.7012 342.507
  endloop
 endfacet
 facet normal -0.912704 0.00505398 -0.408589
  outer loop
   vertex -13.523 70.9527 342.531
   vertex -13.8064 70.543 343.159
   vertex -13.885 71.0629 343.341
  endloop
 endfacet
 facet normal -0.896661 -0.0953891 -0.432319
  outer loop
   vertex -13.9097 69.4301 343.669
   vertex -13.523 70.9527 342.531
   vertex -13.2719 68.7012 342.507
  endloop
 endfacet
 facet normal -0.91435 -0.0977818 -0.392942
  outer loop
   vertex -13.523 70.9527 342.531
   vertex -13.051 70.843 341.46
   vertex -13.2719 68.7012 342.507
  endloop
 endfacet
 facet normal -0.916444 -0.0954489 -0.388612
  outer loop
   vertex -13.051 70.843 341.46
   vertex -12.6618 68.7143 341.065
   vertex -13.2719 68.7012 342.507
  endloop
 endfacet
 facet normal -0.889592 -0.255364 -0.378703
  outer loop
   vertex -12.6618 68.7143 341.065
   vertex -12.907 68.2872 341.929
   vertex -13.2719 68.7012 342.507
  endloop
 endfacet
endsolid
