solid ascii
 facet normal 0.0593661 -0.323076 0.944509
  outer loop
   vertex 20.758 53.2907 405.534
   vertex 21.1945 53.1517 405.459
   vertex 21.4878 53.3371 405.504
  endloop
 endfacet
 facet normal 0.0445757 -0.556036 0.829962
  outer loop
   vertex 19.4689 52.9353 405.403
   vertex 20.3759 52.8617 405.305
   vertex 20.1171 53.1753 405.529
  endloop
 endfacet
 facet normal 0.053244 -0.314204 0.947861
  outer loop
   vertex 22.0994 53.3171 405.463
   vertex 21.4878 53.3371 405.504
   vertex 21.1945 53.1517 405.459
  endloop
 endfacet
 facet normal 0.0794673 -0.456183 0.886331
  outer loop
   vertex 21.1945 53.1517 405.459
   vertex 22.2823 53.1294 405.35
   vertex 22.0994 53.3171 405.463
  endloop
 endfacet
 facet normal -0.0437717 -0.580365 0.81318
  outer loop
   vertex 16.7209 53.1146 405.478
   vertex 16.1091 52.9856 405.353
   vertex 17.0904 52.8191 405.287
  endloop
 endfacet
 facet normal -0.11268 -0.362179 0.925273
  outer loop
   vertex 16.1091 52.9856 405.353
   vertex 16.7209 53.1146 405.478
   vertex 16.0193 53.2256 405.436
  endloop
 endfacet
 facet normal -0.0268867 -0.335718 0.941579
  outer loop
   vertex 16.0193 53.2256 405.436
   vertex 15.4139 53.1647 405.397
   vertex 16.1091 52.9856 405.353
  endloop
 endfacet
 facet normal 0.0973211 -0.451558 0.886918
  outer loop
   vertex 22.9136 53.3833 405.41
   vertex 22.2823 53.1294 405.35
   vertex 23.4251 53.1125 405.216
  endloop
 endfacet
 facet normal 0.0941414 -0.444566 0.890785
  outer loop
   vertex 22.2823 53.1294 405.35
   vertex 22.9136 53.3833 405.41
   vertex 22.0994 53.3171 405.463
  endloop
 endfacet
 facet normal 0.0671213 -0.604811 0.793536
  outer loop
   vertex 21.1945 53.1517 405.459
   vertex 21.3277 52.7873 405.17
   vertex 22.2823 53.1294 405.35
  endloop
 endfacet
 facet normal -0.00468331 -0.636171 0.771534
  outer loop
   vertex 18.0303 52.6121 405.122
   vertex 17.5697 53.046 405.477
   vertex 17.0904 52.8191 405.287
  endloop
 endfacet
 facet normal 0.108638 -0.420149 0.900929
  outer loop
   vertex 23.4251 53.1125 405.216
   vertex 24.4487 53.2957 405.178
   vertex 23.7912 53.4752 405.341
  endloop
 endfacet
 facet normal -0.0637504 -0.669227 0.740318
  outer loop
   vertex 17.0904 52.8191 405.287
   vertex 16.1091 52.9856 405.353
   vertex 15.8461 52.5416 404.929
  endloop
 endfacet
 facet normal 0.0798135 -0.642941 0.761746
  outer loop
   vertex 23.4251 53.1125 405.216
   vertex 22.2823 53.1294 405.35
   vertex 22.4643 52.5916 404.877
  endloop
 endfacet
 facet normal 0.0243635 -0.678085 0.734579
  outer loop
   vertex 19.7441 52.371 404.873
   vertex 20.3759 52.8617 405.305
   vertex 19.4689 52.9353 405.403
  endloop
 endfacet
 facet normal 0.03379 -0.675431 0.736648
  outer loop
   vertex 19.4689 52.9353 405.403
   vertex 18.8816 52.6518 405.17
   vertex 19.7441 52.371 404.873
  endloop
 endfacet
 facet normal 0.0651855 -0.605331 0.7933
  outer loop
   vertex 20.3759 52.8617 405.305
   vertex 21.3277 52.7873 405.17
   vertex 21.1945 53.1517 405.459
  endloop
 endfacet
 facet normal 0.0860984 -0.641374 0.762382
  outer loop
   vertex 21.3277 52.7873 405.17
   vertex 22.4643 52.5916 404.877
   vertex 22.2823 53.1294 405.35
  endloop
 endfacet
 facet normal 0.165228 -0.509436 0.844497
  outer loop
   vertex 25.1395 53.4982 405.165
   vertex 24.4487 53.2957 405.178
   vertex 25.088 53.1085 404.94
  endloop
 endfacet
 facet normal 0.179049 -0.509582 0.841586
  outer loop
   vertex 25.088 53.1085 404.94
   vertex 25.9032 53.3718 404.926
   vertex 25.1395 53.4982 405.165
  endloop
 endfacet
 facet normal 0.0480348 -0.605548 0.794358
  outer loop
   vertex 23.4302 52.7456 404.936
   vertex 23.4251 53.1125 405.216
   vertex 22.4643 52.5916 404.877
  endloop
 endfacet
 facet normal -0.04518 -0.707403 0.705365
  outer loop
   vertex 17.0904 52.8191 405.287
   vertex 15.8461 52.5416 404.929
   vertex 17.4088 52.4438 404.931
  endloop
 endfacet
 facet normal -0.0880223 -0.689341 0.71907
  outer loop
   vertex 13.3655 52.7575 404.876
   vertex 14.25 52.6967 404.926
   vertex 14.0679 53.0183 405.212
  endloop
 endfacet
 facet normal 0.0531142 -0.667684 0.742547
  outer loop
   vertex 20.3759 52.8617 405.305
   vertex 20.6363 52.4298 404.898
   vertex 21.3277 52.7873 405.17
  endloop
 endfacet
 facet normal 0.137748 -0.607382 0.782376
  outer loop
   vertex 24.305 52.6564 404.707
   vertex 24.4487 53.2957 405.178
   vertex 23.4251 53.1125 405.216
  endloop
 endfacet
 facet normal -0.0292549 -0.700854 0.712705
  outer loop
   vertex 18.0303 52.6121 405.122
   vertex 17.0904 52.8191 405.287
   vertex 17.4088 52.4438 404.931
  endloop
 endfacet
 facet normal 0.024066 -0.677879 0.73478
  outer loop
   vertex 19.7441 52.371 404.873
   vertex 20.6363 52.4298 404.898
   vertex 20.3759 52.8617 405.305
  endloop
 endfacet
 facet normal -0.06729 -0.721736 0.68889
  outer loop
   vertex 15.8461 52.5416 404.929
   vertex 15.7545 52.7735 405.163
   vertex 15.1885 52.5762 404.901
  endloop
 endfacet
 facet normal -0.00584265 -0.717256 0.696785
  outer loop
   vertex 18.0303 52.6121 405.122
   vertex 18.7784 52.1533 404.656
   vertex 18.8816 52.6518 405.17
  endloop
 endfacet
 facet normal -0.0699992 -0.693829 0.716729
  outer loop
   vertex 15.1885 52.5762 404.901
   vertex 15.0517 52.9526 405.252
   vertex 14.25 52.6967 404.926
  endloop
 endfacet
 facet normal -0.0885701 -0.743988 0.662297
  outer loop
   vertex 14.25 52.6967 404.926
   vertex 13.3655 52.7575 404.876
   vertex 13.3341 51.6734 403.654
  endloop
 endfacet
 facet normal 0.115617 -0.60589 0.787103
  outer loop
   vertex 24.4487 53.2957 405.178
   vertex 24.305 52.6564 404.707
   vertex 25.088 53.1085 404.94
  endloop
 endfacet
 facet normal 0.00565972 -0.718411 0.695596
  outer loop
   vertex 19.7441 52.371 404.873
   vertex 18.8816 52.6518 405.17
   vertex 18.7784 52.1533 404.656
  endloop
 endfacet
 facet normal 0.145077 -0.598977 0.787515
  outer loop
   vertex 24.305 52.6564 404.707
   vertex 23.4251 53.1125 405.216
   vertex 23.4302 52.7456 404.936
  endloop
 endfacet
 facet normal 0.0704948 -0.71038 0.700279
  outer loop
   vertex 22.4643 52.5916 404.877
   vertex 23.3833 52.3072 404.496
   vertex 23.4302 52.7456 404.936
  endloop
 endfacet
 facet normal 0.0722189 -0.688627 0.721511
  outer loop
   vertex 20.6363 52.4298 404.898
   vertex 21.2649 52.1793 404.596
   vertex 21.3277 52.7873 405.17
  endloop
 endfacet
 facet normal 0.189829 -0.446912 0.874205
  outer loop
   vertex 25.9032 53.3718 404.926
   vertex 26.725 53.3375 404.73
   vertex 26.882 53.6878 404.875
  endloop
 endfacet
 facet normal 0.198217 -0.449376 0.871075
  outer loop
   vertex 26.725 53.3375 404.73
   vertex 27.4846 53.4942 404.638
   vertex 26.882 53.6878 404.875
  endloop
 endfacet
 facet normal 0.170321 -0.558382 0.811911
  outer loop
   vertex 26.725 53.3375 404.73
   vertex 25.9032 53.3718 404.926
   vertex 26.1969 53.0121 404.617
  endloop
 endfacet
 facet normal -0.105369 -0.56233 0.820172
  outer loop
   vertex 11.5176 52.9635 404.746
   vertex 12.4275 52.7959 404.748
   vertex 11.8391 53.1089 404.887
  endloop
 endfacet
 facet normal 0.0675549 -0.688598 0.72199
  outer loop
   vertex 22.4643 52.5916 404.877
   vertex 21.3277 52.7873 405.17
   vertex 21.2649 52.1793 404.596
  endloop
 endfacet
 facet normal -0.119993 -0.541531 0.832073
  outer loop
   vertex 11.0393 53.1371 404.79
   vertex 11.5176 52.9635 404.746
   vertex 11.8391 53.1089 404.887
  endloop
 endfacet
 facet normal 0.109717 -0.709942 0.695662
  outer loop
   vertex 23.3833 52.3072 404.496
   vertex 24.305 52.6564 404.707
   vertex 23.4302 52.7456 404.936
  endloop
 endfacet
 facet normal 0.232542 -0.374829 0.897456
  outer loop
   vertex 27.6318 53.8417 404.745
   vertex 26.882 53.6878 404.875
   vertex 27.4846 53.4942 404.638
  endloop
 endfacet
 facet normal 0.0842666 -0.716851 0.692115
  outer loop
   vertex 21.2649 52.1793 404.596
   vertex 21.9872 51.8809 404.199
   vertex 22.4643 52.5916 404.877
  endloop
 endfacet
 facet normal -0.0246325 -0.731865 0.681004
  outer loop
   vertex 18.7784 52.1533 404.656
   vertex 18.0303 52.6121 405.122
   vertex 17.9443 52.0846 404.552
  endloop
 endfacet
 facet normal -0.0104751 -0.733115 0.680024
  outer loop
   vertex 17.4088 52.4438 404.931
   vertex 17.9443 52.0846 404.552
   vertex 18.0303 52.6121 405.122
  endloop
 endfacet
 facet normal -0.122151 -0.725384 0.67742
  outer loop
   vertex 13.0812 52.2852 404.319
   vertex 13.3655 52.7575 404.876
   vertex 12.4275 52.7959 404.748
  endloop
 endfacet
 facet normal 0.150824 -0.3487 0.925019
  outer loop
   vertex 27.6318 53.8417 404.745
   vertex 27.4846 53.4942 404.638
   vertex 28.1066 53.811 404.656
  endloop
 endfacet
 facet normal 0.206624 -0.598556 0.773975
  outer loop
   vertex 25.5771 52.5726 404.395
   vertex 25.9032 53.3718 404.926
   vertex 25.088 53.1085 404.94
  endloop
 endfacet
 facet normal 0.143464 -0.638261 0.756334
  outer loop
   vertex 25.5771 52.5726 404.395
   vertex 25.088 53.1085 404.94
   vertex 24.305 52.6564 404.707
  endloop
 endfacet
 facet normal 0.0690123 -0.712491 0.698279
  outer loop
   vertex 21.9872 51.8809 404.199
   vertex 23.3833 52.3072 404.496
   vertex 22.4643 52.5916 404.877
  endloop
 endfacet
 facet normal -0.134778 -0.723688 0.676839
  outer loop
   vertex 11.7344 52.5883 404.388
   vertex 12.4275 52.7959 404.748
   vertex 11.5176 52.9635 404.746
  endloop
 endfacet
 facet normal -0.147944 -0.726143 0.671439
  outer loop
   vertex 10.8635 52.8656 404.496
   vertex 11.7344 52.5883 404.388
   vertex 11.5176 52.9635 404.746
  endloop
 endfacet
 facet normal 0.0114616 -0.730941 0.682345
  outer loop
   vertex 18.7784 52.1533 404.656
   vertex 19.5643 51.7026 404.16
   vertex 19.7441 52.371 404.873
  endloop
 endfacet
 facet normal 0.127354 -0.584427 0.80139
  outer loop
   vertex 25.5771 52.5726 404.395
   vertex 26.1969 53.0121 404.617
   vertex 25.9032 53.3718 404.926
  endloop
 endfacet
 facet normal 0.239887 -0.33135 0.912503
  outer loop
   vertex 29.512 54.1514 404.423
   vertex 28.612 53.9845 404.599
   vertex 29.1459 53.834 404.404
  endloop
 endfacet
 facet normal 0.221873 -0.48374 0.846622
  outer loop
   vertex 27.4846 53.4942 404.638
   vertex 28.5408 53.5411 404.388
   vertex 28.1066 53.811 404.656
  endloop
 endfacet
 facet normal 0.213379 -0.567919 0.794945
  outer loop
   vertex 28.5408 53.5411 404.388
   vertex 27.4846 53.4942 404.638
   vertex 27.9094 53.1037 404.245
  endloop
 endfacet
 facet normal 0.0512709 -0.713628 0.698646
  outer loop
   vertex 21.2649 52.1793 404.596
   vertex 20.6363 52.4298 404.898
   vertex 20.454 51.8753 404.345
  endloop
 endfacet
 facet normal 0.027088 -0.710348 0.703329
  outer loop
   vertex 20.6363 52.4298 404.898
   vertex 19.7441 52.371 404.873
   vertex 20.454 51.8753 404.345
  endloop
 endfacet
 facet normal -0.0785504 -0.748373 0.65861
  outer loop
   vertex 13.3341 51.6734 403.654
   vertex 15.1885 52.5762 404.901
   vertex 14.25 52.6967 404.926
  endloop
 endfacet
 facet normal -0.0603441 -0.745925 0.663291
  outer loop
   vertex 13.3655 52.7575 404.876
   vertex 13.0812 52.2852 404.319
   vertex 13.3341 51.6734 403.654
  endloop
 endfacet
 facet normal 0.193148 -0.446718 0.873577
  outer loop
   vertex 28.5408 53.5411 404.388
   vertex 29.1459 53.834 404.404
   vertex 28.612 53.9845 404.599
  endloop
 endfacet
 facet normal 0.205192 -0.601215 0.772293
  outer loop
   vertex 26.1969 53.0121 404.617
   vertex 26.8547 52.8538 404.319
   vertex 26.725 53.3375 404.73
  endloop
 endfacet
 facet normal -0.000629037 -0.729469 0.684014
  outer loop
   vertex 19.5643 51.7026 404.16
   vertex 20.454 51.8753 404.345
   vertex 19.7441 52.371 404.873
  endloop
 endfacet
 facet normal 0.216798 -0.597716 0.771838
  outer loop
   vertex 26.725 53.3375 404.73
   vertex 26.8547 52.8538 404.319
   vertex 27.4846 53.4942 404.638
  endloop
 endfacet
 facet normal -0.128602 -0.729189 0.67212
  outer loop
   vertex 12.4275 52.7959 404.748
   vertex 12.5094 52.1897 404.106
   vertex 13.0812 52.2852 404.319
  endloop
 endfacet
 facet normal -0.166168 -0.764466 0.622881
  outer loop
   vertex 11.7344 52.5883 404.388
   vertex 10.8635 52.8656 404.496
   vertex 10.7707 52.0718 403.497
  endloop
 endfacet
 facet normal 0.184931 -0.63828 0.747261
  outer loop
   vertex 25.5771 52.5726 404.395
   vertex 26.8547 52.8538 404.319
   vertex 26.1969 53.0121 404.617
  endloop
 endfacet
 facet normal -0.130539 -0.729127 0.671814
  outer loop
   vertex 12.4275 52.7959 404.748
   vertex 11.7344 52.5883 404.388
   vertex 12.5094 52.1897 404.106
  endloop
 endfacet
 facet normal 0.30219 -0.400372 0.865092
  outer loop
   vertex 29.1459 53.834 404.404
   vertex 29.5971 53.777 404.22
   vertex 29.512 54.1514 404.423
  endloop
 endfacet
 facet normal 0.249109 -0.557855 0.79167
  outer loop
   vertex 29.3012 53.3286 403.999
   vertex 29.1459 53.834 404.404
   vertex 28.5408 53.5411 404.388
  endloop
 endfacet
 facet normal 0.111355 -0.712515 0.692764
  outer loop
   vertex 23.9774 52.0053 404.09
   vertex 24.305 52.6564 404.707
   vertex 23.3833 52.3072 404.496
  endloop
 endfacet
 facet normal 0.193562 -0.583328 0.788836
  outer loop
   vertex 27.4846 53.4942 404.638
   vertex 26.8547 52.8538 404.319
   vertex 27.9094 53.1037 404.245
  endloop
 endfacet
 facet normal 0.252419 -0.556668 0.791458
  outer loop
   vertex 29.1459 53.834 404.404
   vertex 29.3012 53.3286 403.999
   vertex 29.5971 53.777 404.22
  endloop
 endfacet
 facet normal 0.128379 -0.692906 0.709507
  outer loop
   vertex 25.5771 52.5726 404.395
   vertex 24.305 52.6564 404.707
   vertex 24.7672 52.014 403.996
  endloop
 endfacet
 facet normal 0.237587 -0.594196 0.768429
  outer loop
   vertex 27.9094 53.1037 404.245
   vertex 28.6795 52.7094 403.702
   vertex 28.5408 53.5411 404.388
  endloop
 endfacet
 facet normal -0.0488738 -0.767795 0.638829
  outer loop
   vertex 15.199 51.7824 403.967
   vertex 17.4088 52.4438 404.931
   vertex 15.8461 52.5416 404.929
  endloop
 endfacet
 facet normal -0.0661371 -0.758936 0.647798
  outer loop
   vertex 13.3341 51.6734 403.654
   vertex 13.8113 51.3476 403.321
   vertex 15.1885 52.5762 404.901
  endloop
 endfacet
 facet normal -0.067497 -0.760613 0.645688
  outer loop
   vertex 15.1885 52.5762 404.901
   vertex 15.199 51.7824 403.967
   vertex 15.8461 52.5416 404.929
  endloop
 endfacet
 facet normal -0.0623057 -0.760841 0.64594
  outer loop
   vertex 15.199 51.7824 403.967
   vertex 15.1885 52.5762 404.901
   vertex 13.8113 51.3476 403.321
  endloop
 endfacet
 facet normal 0.247878 -0.366071 0.896966
  outer loop
   vertex 30.3153 54.2727 404.254
   vertex 30.7035 54.1068 404.079
   vertex 31.0472 54.3248 404.073
  endloop
 endfacet
 facet normal 0.0910631 -0.708746 0.699561
  outer loop
   vertex 23.9774 52.0053 404.09
   vertex 24.7672 52.014 403.996
   vertex 24.305 52.6564 404.707
  endloop
 endfacet
 facet normal 0.0350569 -0.745529 0.66555
  outer loop
   vertex 20.9743 51.5034 403.901
   vertex 20.454 51.8753 404.345
   vertex 20.2288 51.3889 403.812
  endloop
 endfacet
 facet normal 0.0035314 -0.73939 0.673268
  outer loop
   vertex 20.2288 51.3889 403.812
   vertex 20.454 51.8753 404.345
   vertex 19.5643 51.7026 404.16
  endloop
 endfacet
 facet normal 0.106591 -0.675607 0.729516
  outer loop
   vertex 25.4886 51.9302 403.813
   vertex 25.5771 52.5726 404.395
   vertex 24.7672 52.014 403.996
  endloop
 endfacet
 facet normal 0.0617883 -0.728312 0.682454
  outer loop
   vertex 21.2649 52.1793 404.596
   vertex 20.454 51.8753 404.345
   vertex 20.9743 51.5034 403.901
  endloop
 endfacet
 facet normal -0.0195063 -0.755143 0.655269
  outer loop
   vertex 17.9443 52.0846 404.552
   vertex 19.5643 51.7026 404.16
   vertex 18.7784 52.1533 404.656
  endloop
 endfacet
 facet normal 0.226882 -0.596913 0.769558
  outer loop
   vertex 29.3012 53.3286 403.999
   vertex 28.5408 53.5411 404.388
   vertex 28.6795 52.7094 403.702
  endloop
 endfacet
 facet normal 0.20105 -0.625216 0.754111
  outer loop
   vertex 27.9094 53.1037 404.245
   vertex 26.8547 52.8538 404.319
   vertex 27.9935 52.3371 403.587
  endloop
 endfacet
 facet normal 0.18628 -0.646395 0.739914
  outer loop
   vertex 25.5771 52.5726 404.395
   vertex 26.3471 52.0482 403.743
   vertex 26.8547 52.8538 404.319
  endloop
 endfacet
 facet normal 0.171569 -0.659137 0.73219
  outer loop
   vertex 27.4248 51.8736 403.303
   vertex 27.9935 52.3371 403.587
   vertex 26.8547 52.8538 404.319
  endloop
 endfacet
 facet normal 0.151636 -0.675035 0.722034
  outer loop
   vertex 26.3471 52.0482 403.743
   vertex 25.5771 52.5726 404.395
   vertex 25.4886 51.9302 403.813
  endloop
 endfacet
 facet normal 0.0720566 -0.72992 0.679724
  outer loop
   vertex 21.2649 52.1793 404.596
   vertex 20.9743 51.5034 403.901
   vertex 21.9872 51.8809 404.199
  endloop
 endfacet
 facet normal 0.304245 -0.45662 0.836022
  outer loop
   vertex 31.0472 54.3248 404.073
   vertex 30.7035 54.1068 404.079
   vertex 31.2253 54.0077 403.835
  endloop
 endfacet
 facet normal -0.166386 -0.764303 0.623022
  outer loop
   vertex 12.5094 52.1897 404.106
   vertex 11.7344 52.5883 404.388
   vertex 10.7707 52.0718 403.497
  endloop
 endfacet
 facet normal -0.0537821 -0.76159 0.645823
  outer loop
   vertex 15.199 51.7824 403.967
   vertex 17.9443 52.0846 404.552
   vertex 17.4088 52.4438 404.931
  endloop
 endfacet
 facet normal -0.226301 -0.630098 0.742808
  outer loop
   vertex 7.95168 53.2381 404.042
   vertex 7.38764 53.4678 404.065
   vertex 6.98939 53.3055 403.806
  endloop
 endfacet
 facet normal 0.195166 -0.648826 0.735483
  outer loop
   vertex 26.3471 52.0482 403.743
   vertex 27.4248 51.8736 403.303
   vertex 26.8547 52.8538 404.319
  endloop
 endfacet
 facet normal 0.0878071 -0.728306 0.679603
  outer loop
   vertex 25.8409 51.0181 402.79
   vertex 25.4886 51.9302 403.813
   vertex 24.7672 52.014 403.996
  endloop
 endfacet
 facet normal 0.279768 -0.470857 0.836674
  outer loop
   vertex 31.6934 54.3143 403.851
   vertex 31.0472 54.3248 404.073
   vertex 31.2253 54.0077 403.835
  endloop
 endfacet
 facet normal 0.231297 -0.396061 0.888615
  outer loop
   vertex 30.7035 54.1068 404.079
   vertex 30.3153 54.2727 404.254
   vertex 29.5971 53.777 404.22
  endloop
 endfacet
 facet normal 0.0967813 -0.763618 0.638374
  outer loop
   vertex 20.9743 51.5034 403.901
   vertex 20.949 51.1382 403.468
   vertex 21.9872 51.8809 404.199
  endloop
 endfacet
 facet normal -0.0130274 -0.754939 0.655665
  outer loop
   vertex 20.2288 51.3889 403.812
   vertex 19.5643 51.7026 404.16
   vertex 19.1942 50.6025 402.886
  endloop
 endfacet
 facet normal 0.21191 -0.623027 0.752949
  outer loop
   vertex 27.9935 52.3371 403.587
   vertex 28.6795 52.7094 403.702
   vertex 27.9094 53.1037 404.245
  endloop
 endfacet
 facet normal -0.211657 -0.724305 0.656189
  outer loop
   vertex 6.98939 53.3055 403.806
   vertex 7.37163 52.951 403.538
   vertex 7.95168 53.2381 404.042
  endloop
 endfacet
 facet normal -0.115821 -0.752541 0.64828
  outer loop
   vertex 13.3341 51.6734 403.654
   vertex 13.0812 52.2852 404.319
   vertex 12.5094 52.1897 404.106
  endloop
 endfacet
 facet normal -0.174662 -0.78406 0.595603
  outer loop
   vertex 10.0796 52.4187 403.751
   vertex 10.7707 52.0718 403.497
   vertex 10.6249 52.516 404.039
  endloop
 endfacet
 facet normal 0.314539 -0.521664 0.793053
  outer loop
   vertex 31.7054 53.8685 403.553
   vertex 31.6934 54.3143 403.851
   vertex 31.2253 54.0077 403.835
  endloop
 endfacet
 facet normal 0.261799 -0.558927 0.786805
  outer loop
   vertex 31.2253 54.0077 403.835
   vertex 30.7035 54.1068 404.079
   vertex 31.0804 53.5147 403.533
  endloop
 endfacet
 facet normal 0.0889577 -0.727687 0.680117
  outer loop
   vertex 23.9774 52.0053 404.09
   vertex 25.8409 51.0181 402.79
   vertex 24.7672 52.014 403.996
  endloop
 endfacet
 facet normal 0.0976882 -0.764138 0.637613
  outer loop
   vertex 20.949 51.1382 403.468
   vertex 23.3833 52.3072 404.496
   vertex 21.9872 51.8809 404.199
  endloop
 endfacet
 facet normal -0.281189 -0.622951 0.729975
  outer loop
   vertex 6.98939 53.3055 403.806
   vertex 6.55254 53.5402 403.838
   vertex 6.32606 53.2393 403.494
  endloop
 endfacet
 facet normal -0.20438 -0.730659 0.651434
  outer loop
   vertex 7.95168 53.2381 404.042
   vertex 7.37163 52.951 403.538
   vertex 8.36832 52.7168 403.588
  endloop
 endfacet
 facet normal 0.340773 -0.516116 0.78581
  outer loop
   vertex 32.1269 54.3295 403.673
   vertex 31.6934 54.3143 403.851
   vertex 31.7054 53.8685 403.553
  endloop
 endfacet
 facet normal 0.292503 -0.560558 0.774736
  outer loop
   vertex 31.0804 53.5147 403.533
   vertex 31.7054 53.8685 403.553
   vertex 31.2253 54.0077 403.835
  endloop
 endfacet
 facet normal -0.128258 -0.761298 0.63559
  outer loop
   vertex 13.3341 51.6734 403.654
   vertex 12.5094 52.1897 404.106
   vertex 12.6411 51.6382 403.472
  endloop
 endfacet
 facet normal -0.0189233 -0.754018 0.656582
  outer loop
   vertex 19.5643 51.7026 404.16
   vertex 17.9443 52.0846 404.552
   vertex 19.1942 50.6025 402.886
  endloop
 endfacet
 facet normal 0.0595925 -0.75731 0.65033
  outer loop
   vertex 23.703 50.991 402.934
   vertex 23.9774 52.0053 404.09
   vertex 23.3833 52.3072 404.496
  endloop
 endfacet
 facet normal 0.268578 -0.568625 0.777516
  outer loop
   vertex 30.7035 54.1068 404.079
   vertex 29.5971 53.777 404.22
   vertex 30.5051 53.0149 403.349
  endloop
 endfacet
 facet normal 0.309926 -0.576979 0.755673
  outer loop
   vertex 29.3012 53.3286 403.999
   vertex 29.6189 52.6414 403.344
   vertex 29.5971 53.777 404.22
  endloop
 endfacet
 facet normal 0.0407595 -0.764964 0.642782
  outer loop
   vertex 20.2288 51.3889 403.812
   vertex 20.949 51.1382 403.468
   vertex 20.9743 51.5034 403.901
  endloop
 endfacet
 facet normal -0.220639 -0.728342 0.648718
  outer loop
   vertex 6.79653 53.0602 403.465
   vertex 7.37163 52.951 403.538
   vertex 6.98939 53.3055 403.806
  endloop
 endfacet
 facet normal -0.0531561 -0.76335 0.643794
  outer loop
   vertex 17.9443 52.0846 404.552
   vertex 15.199 51.7824 403.967
   vertex 17.2294 50.5969 402.729
  endloop
 endfacet
 facet normal 0.243398 -0.569257 0.785305
  outer loop
   vertex 31.0804 53.5147 403.533
   vertex 30.7035 54.1068 404.079
   vertex 30.5051 53.0149 403.349
  endloop
 endfacet
 facet normal 0.244063 -0.607579 0.755831
  outer loop
   vertex 28.6795 52.7094 403.702
   vertex 29.6189 52.6414 403.344
   vertex 29.3012 53.3286 403.999
  endloop
 endfacet
 facet normal -0.16798 -0.760783 0.626891
  outer loop
   vertex 12.6411 51.6382 403.472
   vertex 12.5094 52.1897 404.106
   vertex 10.7707 52.0718 403.497
  endloop
 endfacet
 facet normal 0.0556095 -0.757892 0.650005
  outer loop
   vertex 23.703 50.991 402.934
   vertex 23.3833 52.3072 404.496
   vertex 22.8828 50.6521 402.609
  endloop
 endfacet
 facet normal 0.0940715 -0.760692 0.64226
  outer loop
   vertex 20.949 51.1382 403.468
   vertex 22.8828 50.6521 402.609
   vertex 23.3833 52.3072 404.496
  endloop
 endfacet
 facet normal 0.244053 -0.58938 0.77011
  outer loop
   vertex 29.6189 52.6414 403.344
   vertex 30.5051 53.0149 403.349
   vertex 29.5971 53.777 404.22
  endloop
 endfacet
 facet normal -0.234485 -0.721432 0.651578
  outer loop
   vertex 6.32606 53.2393 403.494
   vertex 6.79653 53.0602 403.465
   vertex 6.98939 53.3055 403.806
  endloop
 endfacet
 facet normal 0.308209 -0.586833 0.748755
  outer loop
   vertex 31.0804 53.5147 403.533
   vertex 31.2112 53.2555 403.276
   vertex 31.7054 53.8685 403.553
  endloop
 endfacet
 facet normal 0.163431 -0.71205 0.682844
  outer loop
   vertex 27.4248 51.8736 403.303
   vertex 26.3471 52.0482 403.743
   vertex 25.8409 51.0181 402.79
  endloop
 endfacet
 facet normal 0.153641 -0.710666 0.686548
  outer loop
   vertex 25.4886 51.9302 403.813
   vertex 25.8409 51.0181 402.79
   vertex 26.3471 52.0482 403.743
  endloop
 endfacet
 facet normal 0.390175 -0.621532 0.67931
  outer loop
   vertex 31.2112 53.2555 403.276
   vertex 31.812 53.6414 403.284
   vertex 31.7054 53.8685 403.553
  endloop
 endfacet
 facet normal 0.251295 -0.606353 0.754445
  outer loop
   vertex 30.5051 53.0149 403.349
   vertex 29.6189 52.6414 403.344
   vertex 30.0705 52.4217 403.017
  endloop
 endfacet
 facet normal 0.222193 -0.637318 0.737873
  outer loop
   vertex 27.9935 52.3371 403.587
   vertex 28.4408 52.0392 403.195
   vertex 28.6795 52.7094 403.702
  endloop
 endfacet
 facet normal -0.213726 -0.785528 0.580746
  outer loop
   vertex 7.37163 52.951 403.538
   vertex 7.57399 52.5884 403.122
   vertex 8.36832 52.7168 403.588
  endloop
 endfacet
 facet normal -0.03562 -0.759791 0.649191
  outer loop
   vertex 19.1942 50.6025 402.886
   vertex 17.9443 52.0846 404.552
   vertex 18.2975 50.3344 402.523
  endloop
 endfacet
 facet normal 0.281861 -0.600042 0.748668
  outer loop
   vertex 30.5051 53.0149 403.349
   vertex 31.2112 53.2555 403.276
   vertex 31.0804 53.5147 403.533
  endloop
 endfacet
 facet normal 0.236159 -0.630448 0.739435
  outer loop
   vertex 29.6189 52.6414 403.344
   vertex 28.6795 52.7094 403.702
   vertex 29.031 52.1174 403.085
  endloop
 endfacet
 facet normal 0.221998 -0.637303 0.737944
  outer loop
   vertex 28.4408 52.0392 403.195
   vertex 29.031 52.1174 403.085
   vertex 28.6795 52.7094 403.702
  endloop
 endfacet
 facet normal 0.185535 -0.668771 0.719946
  outer loop
   vertex 27.4248 51.8736 403.303
   vertex 28.4408 52.0392 403.195
   vertex 27.9935 52.3371 403.587
  endloop
 endfacet
 facet normal -0.114311 -0.799378 0.589854
  outer loop
   vertex 12.6411 51.6382 403.472
   vertex 13.2289 51.2376 403.043
   vertex 13.3341 51.6734 403.654
  endloop
 endfacet
 facet normal 0.0730805 -0.788466 0.610721
  outer loop
   vertex 20.949 51.1382 403.468
   vertex 22.0591 50.5068 402.52
   vertex 22.8828 50.6521 402.609
  endloop
 endfacet
 facet normal 0.409417 -0.650666 0.639541
  outer loop
   vertex 31.812 53.6414 403.284
   vertex 31.2112 53.2555 403.276
   vertex 31.3018 53.0825 403.042
  endloop
 endfacet
 facet normal 0.0071106 -0.766119 0.64266
  outer loop
   vertex 20.2288 51.3889 403.812
   vertex 19.1942 50.6025 402.886
   vertex 20.3501 50.5906 402.859
  endloop
 endfacet
 facet normal -0.251058 -0.757121 0.603107
  outer loop
   vertex 5.88021 53.0048 403.014
   vertex 6.79653 53.0602 403.465
   vertex 6.32606 53.2393 403.494
  endloop
 endfacet
 facet normal -0.246098 -0.760924 0.600358
  outer loop
   vertex 5.88021 53.0048 403.014
   vertex 6.32606 53.2393 403.494
   vertex 5.45633 53.4054 403.348
  endloop
 endfacet
 facet normal -0.131525 -0.796207 0.590556
  outer loop
   vertex 13.2289 51.2376 403.043
   vertex 13.8113 51.3476 403.321
   vertex 13.3341 51.6734 403.654
  endloop
 endfacet
 facet normal 0.0360817 -0.77029 0.636673
  outer loop
   vertex 24.1822 50.785 402.602
   vertex 25.8409 51.0181 402.79
   vertex 23.9774 52.0053 404.09
  endloop
 endfacet
 facet normal -0.0625331 -0.761089 0.645626
  outer loop
   vertex 17.2294 50.5969 402.729
   vertex 18.2975 50.3344 402.523
   vertex 17.9443 52.0846 404.552
  endloop
 endfacet
 facet normal -0.0774152 -0.794848 0.601851
  outer loop
   vertex 14.6681 50.527 402.294
   vertex 15.2817 50.5437 402.395
   vertex 15.0288 51.3316 403.403
  endloop
 endfacet
 facet normal -0.22246 -0.785958 0.576872
  outer loop
   vertex 7.37163 52.951 403.538
   vertex 6.79653 53.0602 403.465
   vertex 7.57399 52.5884 403.122
  endloop
 endfacet
 facet normal -0.293862 -0.605417 0.739672
  outer loop
   vertex 5.45633 53.4054 403.348
   vertex 4.92191 53.6538 403.339
   vertex 4.33146 53.591 403.053
  endloop
 endfacet
 facet normal -0.28387 -0.727258 0.624911
  outer loop
   vertex 4.33146 53.591 403.053
   vertex 5.07462 53.2313 402.972
   vertex 5.45633 53.4054 403.348
  endloop
 endfacet
 facet normal 0.042288 -0.763242 0.644727
  outer loop
   vertex 20.949 51.1382 403.468
   vertex 20.2288 51.3889 403.812
   vertex 20.3501 50.5906 402.859
  endloop
 endfacet
 facet normal 0.548946 -0.699342 0.457798
  outer loop
   vertex 31.3018 53.0825 403.042
   vertex 31.7696 53.4294 403.011
   vertex 31.812 53.6414 403.284
  endloop
 endfacet
 facet normal 0.283109 -0.617933 0.73349
  outer loop
   vertex 30.708 52.7304 403.031
   vertex 30.5051 53.0149 403.349
   vertex 30.0705 52.4217 403.017
  endloop
 endfacet
 facet normal 0.186692 -0.688109 0.701179
  outer loop
   vertex 28.4408 52.0392 403.195
   vertex 27.4248 51.8736 403.303
   vertex 28.163 51.7162 402.952
  endloop
 endfacet
 facet normal 0.116194 -0.760095 0.639339
  outer loop
   vertex 23.703 50.991 402.934
   vertex 24.1822 50.785 402.602
   vertex 23.9774 52.0053 404.09
  endloop
 endfacet
 facet normal -0.245212 -0.760615 0.601112
  outer loop
   vertex 5.07462 53.2313 402.972
   vertex 5.88021 53.0048 403.014
   vertex 5.45633 53.4054 403.348
  endloop
 endfacet
 facet normal -0.128577 -0.806554 0.577009
  outer loop
   vertex 12.4317 51.2488 402.881
   vertex 13.2289 51.2376 403.043
   vertex 12.6411 51.6382 403.472
  endloop
 endfacet
 facet normal 0.570851 -0.737555 0.360752
  outer loop
   vertex 31.3438 53.0074 402.822
   vertex 31.7696 53.4294 403.011
   vertex 31.3018 53.0825 403.042
  endloop
 endfacet
 facet normal 0.323578 -0.681332 0.656569
  outer loop
   vertex 30.2422 52.3105 402.817
   vertex 30.0705 52.4217 403.017
   vertex 29.8226 52.1199 402.826
  endloop
 endfacet
 facet normal 0.209814 -0.696626 0.686069
  outer loop
   vertex 28.163 51.7162 402.952
   vertex 28.7882 51.7548 402.8
   vertex 28.4408 52.0392 403.195
  endloop
 endfacet
 facet normal -0.17446 -0.786731 0.59213
  outer loop
   vertex 10.7707 52.0718 403.497
   vertex 11.6279 51.2254 402.625
   vertex 12.6411 51.6382 403.472
  endloop
 endfacet
 facet normal -0.291019 -0.738317 0.608437
  outer loop
   vertex 4.23393 53.3105 402.666
   vertex 5.07462 53.2313 402.972
   vertex 4.33146 53.591 403.053
  endloop
 endfacet
 facet normal -0.22245 -0.80445 0.550795
  outer loop
   vertex 6.79653 53.0602 403.465
   vertex 5.88021 53.0048 403.014
   vertex 6.56955 52.2767 402.229
  endloop
 endfacet
 facet normal 0.0932386 -0.774837 0.625248
  outer loop
   vertex 21.4065 50.4759 402.579
   vertex 22.0591 50.5068 402.52
   vertex 20.949 51.1382 403.468
  endloop
 endfacet
 facet normal -0.0556335 -0.732508 0.678481
  outer loop
   vertex 18.82 50.3651 402.599
   vertex 19.1942 50.6025 402.886
   vertex 18.2975 50.3344 402.523
  endloop
 endfacet
 facet normal -0.241787 -0.79885 0.550797
  outer loop
   vertex 7.57399 52.5884 403.122
   vertex 6.79653 53.0602 403.465
   vertex 6.56955 52.2767 402.229
  endloop
 endfacet
 facet normal -0.162298 -0.796558 0.58237
  outer loop
   vertex 11.6279 51.2254 402.625
   vertex 12.4317 51.2488 402.881
   vertex 12.6411 51.6382 403.472
  endloop
 endfacet
 facet normal -0.251727 -0.792159 0.555983
  outer loop
   vertex 5.88021 53.0048 403.014
   vertex 5.07462 53.2313 402.972
   vertex 4.77309 53.0485 402.575
  endloop
 endfacet
 facet normal 0.389784 -0.723069 0.570298
  outer loop
   vertex 30.2422 52.3105 402.817
   vertex 30.8261 52.6308 402.824
   vertex 30.708 52.7304 403.031
  endloop
 endfacet
 facet normal 0.317875 -0.686139 0.654346
  outer loop
   vertex 30.0705 52.4217 403.017
   vertex 30.2422 52.3105 402.817
   vertex 30.708 52.7304 403.031
  endloop
 endfacet
 facet normal -0.317007 -0.728195 0.60765
  outer loop
   vertex 3.49525 53.4627 402.463
   vertex 4.23393 53.3105 402.666
   vertex 4.33146 53.591 403.053
  endloop
 endfacet
 facet normal -0.192854 -0.800103 0.568017
  outer loop
   vertex 10.7707 52.0718 403.497
   vertex 10.0796 52.4187 403.751
   vertex 9.90758 51.6551 402.617
  endloop
 endfacet
 facet normal 0.0935979 -0.774716 0.625343
  outer loop
   vertex 21.4065 50.4759 402.579
   vertex 20.949 51.1382 403.468
   vertex 20.805 50.3782 402.548
  endloop
 endfacet
 facet normal 0.0684648 -0.774383 0.629002
  outer loop
   vertex 20.949 51.1382 403.468
   vertex 20.3501 50.5906 402.859
   vertex 20.805 50.3782 402.548
  endloop
 endfacet
 facet normal 0.00750484 -0.75565 0.654933
  outer loop
   vertex 19.5228 50.3059 402.54
   vertex 20.3501 50.5906 402.859
   vertex 19.1942 50.6025 402.886
  endloop
 endfacet
 facet normal -0.193452 -0.799961 0.568012
  outer loop
   vertex 9.90758 51.6551 402.617
   vertex 10.0796 52.4187 403.751
   vertex 8.36832 52.7168 403.588
  endloop
 endfacet
 facet normal 0.0646246 -0.803475 0.591821
  outer loop
   vertex 24.1822 50.785 402.602
   vertex 23.703 50.991 402.934
   vertex 23.4964 50.6562 402.502
  endloop
 endfacet
 facet normal 0.0622842 -0.779418 0.6234
  outer loop
   vertex 20.1994 50.297 402.507
   vertex 20.805 50.3782 402.548
   vertex 20.3501 50.5906 402.859
  endloop
 endfacet
 facet normal -0.0101918 -0.763928 0.645221
  outer loop
   vertex 18.82 50.3651 402.599
   vertex 19.5228 50.3059 402.54
   vertex 19.1942 50.6025 402.886
  endloop
 endfacet
 facet normal 0.193852 -0.775941 0.60028
  outer loop
   vertex 28.163 51.7162 402.952
   vertex 28.2188 51.5259 402.688
   vertex 28.7882 51.7548 402.8
  endloop
 endfacet
 facet normal -0.123778 -0.824505 0.552151
  outer loop
   vertex 13.2289 51.2376 403.043
   vertex 12.4317 51.2488 402.881
   vertex 13.0271 50.5413 401.958
  endloop
 endfacet
 facet normal 0.209775 -0.73562 0.644094
  outer loop
   vertex 27.4616 51.4113 402.786
   vertex 27.0369 51.4942 403.019
   vertex 26.8603 51.2293 402.774
  endloop
 endfacet
 facet normal 0.106019 -0.809856 0.576969
  outer loop
   vertex 23.4964 50.6562 402.502
   vertex 23.703 50.991 402.934
   vertex 22.8828 50.6521 402.609
  endloop
 endfacet
 facet normal 0.429648 -0.792721 0.43243
  outer loop
   vertex 30.4255 52.3084 402.631
   vertex 30.8261 52.6308 402.824
   vertex 30.2422 52.3105 402.817
  endloop
 endfacet
 facet normal 0.39047 -0.842026 0.37219
  outer loop
   vertex 29.8226 52.1199 402.826
   vertex 29.7503 51.9688 402.56
   vertex 30.2422 52.3105 402.817
  endloop
 endfacet
 facet normal -0.27988 -0.773432 0.568744
  outer loop
   vertex 5.07462 53.2313 402.972
   vertex 4.23393 53.3105 402.666
   vertex 4.77309 53.0485 402.575
  endloop
 endfacet
 facet normal -0.139211 -0.827257 0.544304
  outer loop
   vertex 13.0271 50.5413 401.958
   vertex 12.4317 51.2488 402.881
   vertex 11.9709 50.6381 401.835
  endloop
 endfacet
 facet normal -0.130778 -0.765639 0.629837
  outer loop
   vertex 8.36832 52.7168 403.588
   vertex 10.4848 50.9494 401.879
   vertex 9.90758 51.6551 402.617
  endloop
 endfacet
 facet normal 0.0208375 -0.772158 0.635089
  outer loop
   vertex 19.5228 50.3059 402.54
   vertex 20.1994 50.297 402.507
   vertex 20.3501 50.5906 402.859
  endloop
 endfacet
 facet normal 0.381829 -0.839846 0.385831
  outer loop
   vertex 29.7503 51.9688 402.56
   vertex 30.4255 52.3084 402.631
   vertex 30.2422 52.3105 402.817
  endloop
 endfacet
 facet normal -0.244223 -0.808498 0.535431
  outer loop
   vertex 5.88021 53.0048 403.014
   vertex 4.77309 53.0485 402.575
   vertex 6.56955 52.2767 402.229
  endloop
 endfacet
 facet normal -0.21244 -0.786017 0.580558
  outer loop
   vertex 10.7707 52.0718 403.497
   vertex 9.90758 51.6551 402.617
   vertex 11.1027 50.9613 402.115
  endloop
 endfacet
 facet normal -0.220469 -0.801509 0.555857
  outer loop
   vertex 8.36832 52.7168 403.588
   vertex 7.48723 51.9605 402.148
   vertex 10.4848 50.9494 401.879
  endloop
 endfacet
 facet normal 0.288578 -0.890266 0.352348
  outer loop
   vertex 28.2188 51.5259 402.688
   vertex 28.7858 51.6254 402.475
   vertex 28.7882 51.7548 402.8
  endloop
 endfacet
 facet normal 0.225398 -0.782985 0.579768
  outer loop
   vertex 26.8603 51.2293 402.774
   vertex 26.9483 51.0636 402.516
   vertex 27.4616 51.4113 402.786
  endloop
 endfacet
 facet normal 0.229111 -0.781618 0.580157
  outer loop
   vertex 26.4587 50.9624 402.573
   vertex 26.9483 51.0636 402.516
   vertex 26.8603 51.2293 402.774
  endloop
 endfacet
 facet normal -0.150245 -0.823542 0.546996
  outer loop
   vertex 12.4317 51.2488 402.881
   vertex 11.6279 51.2254 402.625
   vertex 11.9709 50.6381 401.835
  endloop
 endfacet
 facet normal -0.29563 -0.793214 0.532366
  outer loop
   vertex 4.23248 53.005 402.21
   vertex 4.77309 53.0485 402.575
   vertex 4.23393 53.3105 402.666
  endloop
 endfacet
 facet normal -0.186912 -0.818008 0.543991
  outer loop
   vertex 7.48723 51.9605 402.148
   vertex 8.36832 52.7168 403.588
   vertex 7.57399 52.5884 403.122
  endloop
 endfacet
 facet normal 0.0291589 -0.870183 0.491864
  outer loop
   vertex 24.6436 50.6863 402.426
   vertex 25.7959 50.6797 402.346
   vertex 25.0538 50.8634 402.715
  endloop
 endfacet
 facet normal -0.125853 -0.770905 0.624393
  outer loop
   vertex 16.9393 50.3146 402.322
   vertex 17.373 50.3248 402.422
   vertex 17.2294 50.5969 402.729
  endloop
 endfacet
 facet normal -0.177165 -0.787537 0.590253
  outer loop
   vertex 11.1027 50.9613 402.115
   vertex 11.6279 51.2254 402.625
   vertex 10.7707 52.0718 403.497
  endloop
 endfacet
 facet normal 0.393744 -0.851049 0.347393
  outer loop
   vertex 26.9483 51.0636 402.516
   vertex 27.2263 51.1465 402.404
   vertex 27.4616 51.4113 402.786
  endloop
 endfacet
 facet normal -0.230714 -0.808324 0.541649
  outer loop
   vertex 6.56955 52.2767 402.229
   vertex 7.48723 51.9605 402.148
   vertex 7.57399 52.5884 403.122
  endloop
 endfacet
 facet normal 0.385589 -0.867149 0.315236
  outer loop
   vertex 26.765 50.8963 402.28
   vertex 27.2263 51.1465 402.404
   vertex 26.9483 51.0636 402.516
  endloop
 endfacet
 facet normal 0.0888476 -0.83285 0.546322
  outer loop
   vertex 21.4065 50.4759 402.579
   vertex 21.3325 50.2699 402.277
   vertex 22.0591 50.5068 402.52
  endloop
 endfacet
 facet normal 0.107417 -0.833393 0.542142
  outer loop
   vertex 20.805 50.3782 402.548
   vertex 21.3325 50.2699 402.277
   vertex 21.4065 50.4759 402.579
  endloop
 endfacet
 facet normal 0.0846429 -0.857513 0.507451
  outer loop
   vertex 21.3325 50.2699 402.277
   vertex 20.805 50.3782 402.548
   vertex 20.3516 50.1861 402.299
  endloop
 endfacet
 facet normal 0.0797296 -0.854181 0.513827
  outer loop
   vertex 20.1994 50.297 402.507
   vertex 20.3516 50.1861 402.299
   vertex 20.805 50.3782 402.548
  endloop
 endfacet
 facet normal 0.0193644 -0.876271 0.48143
  outer loop
   vertex 19.9352 50.1747 402.295
   vertex 20.3516 50.1861 402.299
   vertex 20.1994 50.297 402.507
  endloop
 endfacet
 facet normal 0.0123425 -0.872691 0.488116
  outer loop
   vertex 19.5228 50.3059 402.54
   vertex 19.9352 50.1747 402.295
   vertex 20.1994 50.297 402.507
  endloop
 endfacet
 facet normal -0.0573534 -0.868619 0.49215
  outer loop
   vertex 15.2817 50.5437 402.395
   vertex 14.6681 50.527 402.294
   vertex 15.1413 50.3626 402.059
  endloop
 endfacet
 facet normal -0.282142 -0.809828 0.514369
  outer loop
   vertex 4.23248 53.005 402.21
   vertex 4.71234 52.7743 402.11
   vertex 4.77309 53.0485 402.575
  endloop
 endfacet
 facet normal -0.308409 -0.789832 0.530141
  outer loop
   vertex 4.23393 53.3105 402.666
   vertex 3.49525 53.4627 402.463
   vertex 4.23248 53.005 402.21
  endloop
 endfacet
 facet normal -0.208627 -0.783193 0.585734
  outer loop
   vertex 11.1027 50.9613 402.115
   vertex 9.90758 51.6551 402.617
   vertex 10.4848 50.9494 401.879
  endloop
 endfacet
 facet normal -0.000809278 -0.98529 0.170889
  outer loop
   vertex 24.6052 50.625 402.025
   vertex 25.6842 50.6373 402.101
   vertex 25.7959 50.6797 402.346
  endloop
 endfacet
 facet normal 0.00479611 -0.988574 0.150658
  outer loop
   vertex 24.6436 50.6863 402.426
   vertex 24.6052 50.625 402.025
   vertex 25.7959 50.6797 402.346
  endloop
 endfacet
 facet normal -0.0720555 -0.911295 0.405401
  outer loop
   vertex 16.9393 50.3146 402.322
   vertex 17.5128 50.2012 402.169
   vertex 17.373 50.3248 402.422
  endloop
 endfacet
 facet normal -0.0958949 -0.858931 0.503033
  outer loop
   vertex 15.1413 50.3626 402.059
   vertex 15.5898 50.3828 402.179
   vertex 15.2817 50.5437 402.395
  endloop
 endfacet
 facet normal -0.316302 -0.768071 0.556795
  outer loop
   vertex 3.0655 53.6491 402.476
   vertex 2.71232 53.485 402.049
   vertex 3.49525 53.4627 402.463
  endloop
 endfacet
 facet normal -0.0540863 -0.88843 0.455814
  outer loop
   vertex 16.91 50.2148 402.124
   vertex 17.5128 50.2012 402.169
   vertex 16.9393 50.3146 402.322
  endloop
 endfacet
 facet normal -0.0970081 -0.882922 0.459389
  outer loop
   vertex 16.5337 50.2702 402.151
   vertex 16.91 50.2148 402.124
   vertex 16.9393 50.3146 402.322
  endloop
 endfacet
 facet normal -0.126353 -0.925749 0.356403
  outer loop
   vertex 11.9709 50.6381 401.835
   vertex 12.6938 50.4559 401.618
   vertex 13.0271 50.5413 401.958
  endloop
 endfacet
 facet normal -0.252411 -0.818725 0.515731
  outer loop
   vertex 4.71234 52.7743 402.11
   vertex 6.56955 52.2767 402.229
   vertex 4.77309 53.0485 402.575
  endloop
 endfacet
 facet normal -0.252125 -0.816956 0.518667
  outer loop
   vertex 4.71234 52.7743 402.11
   vertex 6.52798 51.5664 401.09
   vertex 6.56955 52.2767 402.229
  endloop
 endfacet
 facet normal -0.0352608 -0.850859 0.524209
  outer loop
   vertex 14.67 50.3729 402.044
   vertex 15.1413 50.3626 402.059
   vertex 14.6681 50.527 402.294
  endloop
 endfacet
 facet normal -0.377197 -0.6894 0.618426
  outer loop
   vertex 2.48596 53.6862 402.197
   vertex 1.9843 53.8656 402.091
   vertex 1.98353 53.6552 401.856
  endloop
 endfacet
 facet normal -0.325235 -0.769823 0.549176
  outer loop
   vertex 2.48596 53.6862 402.197
   vertex 1.98353 53.6552 401.856
   vertex 2.71232 53.485 402.049
  endloop
 endfacet
 facet normal -0.29044 -0.812479 0.505493
  outer loop
   vertex 3.49525 53.4627 402.463
   vertex 2.71232 53.485 402.049
   vertex 3.15948 53.0825 401.659
  endloop
 endfacet
 facet normal -0.22438 -0.809546 0.542483
  outer loop
   vertex 10.4848 50.9494 401.879
   vertex 7.48723 51.9605 402.148
   vertex 8.23187 50.9359 400.927
  endloop
 endfacet
 facet normal -0.0272444 -0.983071 0.181191
  outer loop
   vertex 14.67 50.3729 402.044
   vertex 14.6894 50.3425 401.882
   vertex 15.1413 50.3626 402.059
  endloop
 endfacet
 facet normal -0.320679 -0.802482 0.503178
  outer loop
   vertex 1.98353 53.6552 401.856
   vertex 2.3221 53.2992 401.504
   vertex 2.71232 53.485 402.049
  endloop
 endfacet
 facet normal -0.333125 -0.701951 0.629518
  outer loop
   vertex 1.32213 53.8292 401.7
   vertex 1.98353 53.6552 401.856
   vertex 1.9843 53.8656 402.091
  endloop
 endfacet
 facet normal -0.225078 -0.808256 0.544116
  outer loop
   vertex 8.23187 50.9359 400.927
   vertex 9.95467 50.8015 401.44
   vertex 10.4848 50.9494 401.879
  endloop
 endfacet
 facet normal -0.181767 -0.835808 0.51806
  outer loop
   vertex 10.7714 50.716 401.603
   vertex 11.1027 50.9613 402.115
   vertex 10.4848 50.9494 401.879
  endloop
 endfacet
 facet normal -0.0950992 -0.895381 0.435028
  outer loop
   vertex 12.6938 50.4559 401.618
   vertex 11.9709 50.6381 401.835
   vertex 12.1578 50.5133 401.619
  endloop
 endfacet
 facet normal -0.319987 -0.797854 0.510917
  outer loop
   vertex 3.49525 53.4627 402.463
   vertex 3.15948 53.0825 401.659
   vertex 4.23248 53.005 402.21
  endloop
 endfacet
 facet normal -0.302402 -0.814968 0.494348
  outer loop
   vertex 2.71232 53.485 402.049
   vertex 2.3221 53.2992 401.504
   vertex 3.15948 53.0825 401.659
  endloop
 endfacet
 facet normal -0.329223 -0.795723 0.508368
  outer loop
   vertex 1.32213 53.8292 401.7
   vertex 1.55444 53.4558 401.266
   vertex 1.98353 53.6552 401.856
  endloop
 endfacet
 facet normal -0.18982 -0.838016 0.511565
  outer loop
   vertex 10.7714 50.716 401.603
   vertex 10.4848 50.9494 401.879
   vertex 9.95467 50.8015 401.44
  endloop
 endfacet
 facet normal -0.23679 -0.820491 0.520312
  outer loop
   vertex 6.56955 52.2767 402.229
   vertex 6.52798 51.5664 401.09
   vertex 7.48723 51.9605 402.148
  endloop
 endfacet
 facet normal -0.319894 -0.802384 0.503834
  outer loop
   vertex 1.55444 53.4558 401.266
   vertex 2.3221 53.2992 401.504
   vertex 1.98353 53.6552 401.856
  endloop
 endfacet
 facet normal -0.252139 -0.811484 0.52718
  outer loop
   vertex 7.48723 51.9605 402.148
   vertex 7.36925 51.0662 400.715
   vertex 8.23187 50.9359 400.927
  endloop
 endfacet
 facet normal -0.294678 -0.823257 0.485194
  outer loop
   vertex 4.23248 53.005 402.21
   vertex 4.88349 51.4477 399.963
   vertex 4.71234 52.7743 402.11
  endloop
 endfacet
 facet normal -0.313959 -0.825082 0.469755
  outer loop
   vertex 1.55444 53.4558 401.266
   vertex 1.72448 53.1201 400.79
   vertex 2.3221 53.2992 401.504
  endloop
 endfacet
 facet normal -0.247986 -0.812552 0.527505
  outer loop
   vertex 6.52798 51.5664 401.09
   vertex 7.36925 51.0662 400.715
   vertex 7.48723 51.9605 402.148
  endloop
 endfacet
 facet normal -0.329137 -0.795727 0.508417
  outer loop
   vertex 0.912826 53.6656 401.179
   vertex 1.55444 53.4558 401.266
   vertex 1.32213 53.8292 401.7
  endloop
 endfacet
 facet normal -0.275594 -0.82743 0.489293
  outer loop
   vertex 4.88349 51.4477 399.963
   vertex 6.52798 51.5664 401.09
   vertex 4.71234 52.7743 402.11
  endloop
 endfacet
 facet normal -0.301385 -0.833832 0.462483
  outer loop
   vertex 3.15948 53.0825 401.659
   vertex 2.3221 53.2992 401.504
   vertex 3.77477 52.179 400.431
  endloop
 endfacet
 facet normal -0.393725 -0.712382 0.580942
  outer loop
   vertex -0.145159 54.1106 401.094
   vertex 0.588752 53.9855 401.438
   vertex 0.0574645 54.2979 401.461
  endloop
 endfacet
 facet normal -0.298525 -0.833997 0.464038
  outer loop
   vertex 3.77477 52.179 400.431
   vertex 4.23248 53.005 402.21
   vertex 3.15948 53.0825 401.659
  endloop
 endfacet
 facet normal -0.161783 -0.933088 0.321206
  outer loop
   vertex 10.7714 50.716 401.603
   vertex 9.95467 50.8015 401.44
   vertex 10.3119 50.6597 401.208
  endloop
 endfacet
 facet normal -0.123291 -0.919852 0.372386
  outer loop
   vertex 9.63577 50.7066 401.1
   vertex 10.3119 50.6597 401.208
   vertex 9.95467 50.8015 401.44
  endloop
 endfacet
 facet normal -0.301915 -0.833963 0.461902
  outer loop
   vertex 1.72448 53.1201 400.79
   vertex 3.77477 52.179 400.431
   vertex 2.3221 53.2992 401.504
  endloop
 endfacet
 facet normal -0.365743 -0.789236 0.493293
  outer loop
   vertex -0.145159 54.1106 401.094
   vertex 0.230896 53.7157 400.741
   vertex 0.588752 53.9855 401.438
  endloop
 endfacet
 facet normal -0.376095 -0.782618 0.496046
  outer loop
   vertex 0.230896 53.7157 400.741
   vertex 0.912826 53.6656 401.179
   vertex 0.588752 53.9855 401.438
  endloop
 endfacet
 facet normal -0.371553 -0.789905 0.487851
  outer loop
   vertex -0.145159 54.1106 401.094
   vertex -0.440711 53.9859 400.667
   vertex 0.230896 53.7157 400.741
  endloop
 endfacet
 facet normal -0.341229 -0.815964 0.466652
  outer loop
   vertex 4.88349 51.4477 399.963
   vertex 4.23248 53.005 402.21
   vertex 3.77477 52.179 400.431
  endloop
 endfacet
 facet normal -0.331961 -0.827169 0.453423
  outer loop
   vertex 0.912826 53.6656 401.179
   vertex 1.09596 53.2084 400.479
   vertex 1.55444 53.4558 401.266
  endloop
 endfacet
 facet normal -0.341574 -0.821187 0.457142
  outer loop
   vertex 1.09596 53.2084 400.479
   vertex 1.72448 53.1201 400.79
   vertex 1.55444 53.4558 401.266
  endloop
 endfacet
 facet normal -0.241599 -0.808566 0.536517
  outer loop
   vertex 6.74901 51.2429 400.702
   vertex 7.36925 51.0662 400.715
   vertex 6.52798 51.5664 401.09
  endloop
 endfacet
 facet normal -0.405687 -0.762789 0.503558
  outer loop
   vertex -0.798446 54.3247 400.892
   vertex -0.440711 53.9859 400.667
   vertex -0.145159 54.1106 401.094
  endloop
 endfacet
 facet normal -0.222366 -0.893477 0.390196
  outer loop
   vertex 8.23187 50.9359 400.927
   vertex 7.91605 50.9158 400.701
   vertex 8.40477 50.8444 400.816
  endloop
 endfacet
 facet normal -0.232941 -0.884522 0.404177
  outer loop
   vertex 8.23187 50.9359 400.927
   vertex 7.36925 51.0662 400.715
   vertex 7.91605 50.9158 400.701
  endloop
 endfacet
 facet normal -0.241073 -0.908286 0.341906
  outer loop
   vertex 7.36925 51.0662 400.715
   vertex 7.60459 50.9548 400.585
   vertex 7.91605 50.9158 400.701
  endloop
 endfacet
 facet normal -0.347786 -0.824031 0.447233
  outer loop
   vertex 0.230896 53.7157 400.741
   vertex 1.09596 53.2084 400.479
   vertex 0.912826 53.6656 401.179
  endloop
 endfacet
 facet normal -0.409315 -0.763721 0.499192
  outer loop
   vertex -0.798446 54.3247 400.892
   vertex -1.03119 54.154 400.44
   vertex -0.440711 53.9859 400.667
  endloop
 endfacet
 facet normal -0.256347 -0.868609 0.424033
  outer loop
   vertex 6.7919 51.0877 400.41
   vertex 7.36925 51.0662 400.715
   vertex 6.74901 51.2429 400.702
  endloop
 endfacet
 facet normal -0.400728 -0.796689 0.452441
  outer loop
   vertex -1.03119 54.154 400.44
   vertex -0.576515 53.7748 400.175
   vertex -0.440711 53.9859 400.667
  endloop
 endfacet
 facet normal -0.352867 -0.827383 0.436947
  outer loop
   vertex 0.230896 53.7157 400.741
   vertex 0.976443 52.8992 399.797
   vertex 1.09596 53.2084 400.479
  endloop
 endfacet
 facet normal -0.436006 -0.758899 0.483705
  outer loop
   vertex -1.65052 54.3766 400.231
   vertex -1.03119 54.154 400.44
   vertex -1.37101 54.4646 400.621
  endloop
 endfacet
 facet normal -0.375456 -0.809687 0.451042
  outer loop
   vertex -0.576515 53.7748 400.175
   vertex 0.230896 53.7157 400.741
   vertex -0.440711 53.9859 400.667
  endloop
 endfacet
 facet normal -0.434141 -0.772058 0.464164
  outer loop
   vertex -1.65052 54.3766 400.231
   vertex -1.25978 54.015 399.995
   vertex -1.03119 54.154 400.44
  endloop
 endfacet
 facet normal -0.264937 -0.826513 0.496674
  outer loop
   vertex 5.35165 51.3924 400.196
   vertex 5.78615 51.2399 400.174
   vertex 5.83421 51.4907 400.617
  endloop
 endfacet
 facet normal -0.313407 -0.846767 0.429839
  outer loop
   vertex 1.72448 53.1201 400.79
   vertex 2.25916 52.5024 399.963
   vertex 3.77477 52.179 400.431
  endloop
 endfacet
 facet normal -0.327029 -0.846237 0.420635
  outer loop
   vertex 2.25916 52.5024 399.963
   vertex 1.72448 53.1201 400.79
   vertex 1.09596 53.2084 400.479
  endloop
 endfacet
 facet normal -0.399565 -0.796386 0.454002
  outer loop
   vertex -1.03119 54.154 400.44
   vertex -1.25978 54.015 399.995
   vertex -0.576515 53.7748 400.175
  endloop
 endfacet
 facet normal -0.363594 -0.826395 0.429967
  outer loop
   vertex 3.77477 52.179 400.431
   vertex 4.45715 51.4745 399.654
   vertex 4.88349 51.4477 399.963
  endloop
 endfacet
 facet normal -0.31695 -0.841695 0.437141
  outer loop
   vertex 2.25916 52.5024 399.963
   vertex 1.09596 53.2084 400.479
   vertex 0.976443 52.8992 399.797
  endloop
 endfacet
 facet normal -0.36136 -0.827857 0.429036
  outer loop
   vertex -0.523233 53.5002 399.69
   vertex 0.230896 53.7157 400.741
   vertex -0.576515 53.7748 400.175
  endloop
 endfacet
 facet normal -0.295558 -0.891597 0.343076
  outer loop
   vertex 5.78615 51.2399 400.174
   vertex 5.35165 51.3924 400.196
   vertex 5.30688 51.2968 399.909
  endloop
 endfacet
 facet normal -0.187589 -0.973578 0.130217
  outer loop
   vertex 5.89946 51.1968 400.015
   vertex 5.78615 51.2399 400.174
   vertex 5.30688 51.2968 399.909
  endloop
 endfacet
 facet normal -0.255489 -0.817226 0.516593
  outer loop
   vertex 3.9932 51.6126 399.643
   vertex 4.45715 51.4745 399.654
   vertex 3.77477 52.179 400.431
  endloop
 endfacet
 facet normal -0.397363 -0.816573 0.418702
  outer loop
   vertex -1.14151 53.698 399.489
   vertex -0.576515 53.7748 400.175
   vertex -1.25978 54.015 399.995
  endloop
 endfacet
 facet normal -0.31696 -0.841871 0.436795
  outer loop
   vertex 0.976443 52.8992 399.797
   vertex 0.905298 52.4445 398.869
   vertex 2.25916 52.5024 399.963
  endloop
 endfacet
 facet normal -0.436587 -0.745543 0.503545
  outer loop
   vertex -3.10792 54.8758 399.652
   vertex -2.6084 54.5279 399.57
   vertex -2.63715 54.8723 400.055
  endloop
 endfacet
 facet normal -0.311858 -0.810366 0.496036
  outer loop
   vertex 3.77477 52.179 400.431
   vertex 3.46932 51.6722 399.411
   vertex 3.9932 51.6126 399.643
  endloop
 endfacet
 facet normal -0.397355 -0.81658 0.418696
  outer loop
   vertex -1.14151 53.698 399.489
   vertex -0.523233 53.5002 399.69
   vertex -0.576515 53.7748 400.175
  endloop
 endfacet
 facet normal -0.47899 -0.6961 0.534802
  outer loop
   vertex -2.1754 54.9022 400.445
   vertex -2.6084 54.5279 399.57
   vertex -1.65052 54.3766 400.231
  endloop
 endfacet
 facet normal -0.313108 -0.880627 0.355611
  outer loop
   vertex 4.45715 51.4745 399.654
   vertex 4.86224 51.3753 399.765
   vertex 4.88349 51.4477 399.963
  endloop
 endfacet
 facet normal -0.36217 -0.827264 0.429496
  outer loop
   vertex 0.230896 53.7157 400.741
   vertex -0.523233 53.5002 399.69
   vertex 0.976443 52.8992 399.797
  endloop
 endfacet
 facet normal -0.325148 -0.804475 0.49709
  outer loop
   vertex 2.25916 52.5024 399.963
   vertex 3.46932 51.6722 399.411
   vertex 3.77477 52.179 400.431
  endloop
 endfacet
 facet normal -0.498319 -0.782341 0.373658
  outer loop
   vertex -1.65052 54.3766 400.231
   vertex -1.14151 53.698 399.489
   vertex -1.25978 54.015 399.995
  endloop
 endfacet
 facet normal -0.333472 -0.808501 0.484895
  outer loop
   vertex 2.25916 52.5024 399.963
   vertex 2.94958 51.7948 399.258
   vertex 3.46932 51.6722 399.411
  endloop
 endfacet
 facet normal -0.463447 -0.769142 0.440044
  outer loop
   vertex -3.12199 54.5347 399.041
   vertex -2.6084 54.5279 399.57
   vertex -3.10792 54.8758 399.652
  endloop
 endfacet
 facet normal -0.2715 -0.881351 0.386664
  outer loop
   vertex 3.9932 51.6126 399.643
   vertex 3.46932 51.6722 399.411
   vertex 4.45715 51.4745 399.654
  endloop
 endfacet
 facet normal -0.366174 -0.811326 0.455705
  outer loop
   vertex 2.37586 51.9386 399.053
   vertex 2.94958 51.7948 399.258
   vertex 2.25916 52.5024 399.963
  endloop
 endfacet
 facet normal -0.240585 -0.948428 0.206406
  outer loop
   vertex 3.46932 51.6722 399.411
   vertex 3.39174 51.6403 399.174
   vertex 4.45715 51.4745 399.654
  endloop
 endfacet
 facet normal -0.393404 -0.831825 0.391537
  outer loop
   vertex -1.14151 53.698 399.489
   vertex -1.04688 53.1576 398.436
   vertex -0.523233 53.5002 399.69
  endloop
 endfacet
 facet normal -0.47536 -0.763492 0.437164
  outer loop
   vertex -3.72223 54.9359 399.089
   vertex -3.12199 54.5347 399.041
   vertex -3.10792 54.8758 399.652
  endloop
 endfacet
 facet normal -0.361829 -0.825896 0.432407
  outer loop
   vertex -0.523233 53.5002 399.69
   vertex 0.905298 52.4445 398.869
   vertex 0.976443 52.8992 399.797
  endloop
 endfacet
 facet normal -0.433626 -0.79305 0.427833
  outer loop
   vertex -2.51754 54.1391 398.912
   vertex -1.14151 53.698 399.489
   vertex -1.65052 54.3766 400.231
  endloop
 endfacet
 facet normal -0.435561 -0.800043 0.412575
  outer loop
   vertex -3.12199 54.5347 399.041
   vertex -2.51754 54.1391 398.912
   vertex -2.6084 54.5279 399.57
  endloop
 endfacet
 facet normal -0.284577 -0.933355 0.218777
  outer loop
   vertex 3.46932 51.6722 399.411
   vertex 2.94958 51.7948 399.258
   vertex 3.39174 51.6403 399.174
  endloop
 endfacet
 facet normal -0.340922 -0.816962 0.465129
  outer loop
   vertex 0.905298 52.4445 398.869
   vertex 1.52475 52.2048 398.902
   vertex 2.25916 52.5024 399.963
  endloop
 endfacet
 facet normal -0.372979 -0.828911 0.416885
  outer loop
   vertex -0.523233 53.5002 399.69
   vertex 0.00300569 52.5573 398.286
   vertex 0.905298 52.4445 398.869
  endloop
 endfacet
 facet normal -0.416633 -0.806695 0.419119
  outer loop
   vertex -2.51754 54.1391 398.912
   vertex -1.65052 54.3766 400.231
   vertex -2.6084 54.5279 399.57
  endloop
 endfacet
 facet normal -0.272211 -0.924357 0.267331
  outer loop
   vertex 2.92616 51.732 399.017
   vertex 3.39174 51.6403 399.174
   vertex 2.94958 51.7948 399.258
  endloop
 endfacet
 facet normal -0.338374 -0.818739 0.463864
  outer loop
   vertex 1.52475 52.2048 398.902
   vertex 2.37586 51.9386 399.053
   vertex 2.25916 52.5024 399.963
  endloop
 endfacet
 facet normal -0.323212 -0.907607 0.267922
  outer loop
   vertex 2.37586 51.9386 399.053
   vertex 2.92616 51.732 399.017
   vertex 2.94958 51.7948 399.258
  endloop
 endfacet
 facet normal -0.412398 -0.820282 0.396315
  outer loop
   vertex -1.04688 53.1576 398.436
   vertex 0.00300569 52.5573 398.286
   vertex -0.523233 53.5002 399.69
  endloop
 endfacet
 facet normal -0.33572 -0.873747 0.351934
  outer loop
   vertex 1.52475 52.2048 398.902
   vertex 2.00135 51.9677 398.768
   vertex 2.37586 51.9386 399.053
  endloop
 endfacet
 facet normal -0.344708 -0.8643 0.366282
  outer loop
   vertex 0.905298 52.4445 398.869
   vertex 0.00300569 52.5573 398.286
   vertex 0.43627 52.2243 397.908
  endloop
 endfacet
 facet normal -0.423761 -0.820756 0.383128
  outer loop
   vertex -1.14151 53.698 399.489
   vertex -2.51754 54.1391 398.912
   vertex -1.04688 53.1576 398.436
  endloop
 endfacet
 facet normal -0.289999 -0.912704 0.287876
  outer loop
   vertex 2.00135 51.9677 398.768
   vertex 2.39882 51.8556 398.813
   vertex 2.37586 51.9386 399.053
  endloop
 endfacet
 facet normal -0.353026 -0.862306 0.363044
  outer loop
   vertex 0.905298 52.4445 398.869
   vertex 1.00472 52.2274 398.45
   vertex 1.52475 52.2048 398.902
  endloop
 endfacet
 facet normal -0.352874 -0.883477 0.308138
  outer loop
   vertex 1.58256 52.068 398.576
   vertex 2.00135 51.9677 398.768
   vertex 1.52475 52.2048 398.902
  endloop
 endfacet
 facet normal -0.488245 -0.777815 0.395753
  outer loop
   vertex -3.72223 54.9359 399.089
   vertex -3.66741 54.5545 398.407
   vertex -3.12199 54.5347 399.041
  endloop
 endfacet
 facet normal -0.456517 -0.81437 0.358321
  outer loop
   vertex -3.05362 53.8729 397.624
   vertex -2.51754 54.1391 398.912
   vertex -3.12199 54.5347 399.041
  endloop
 endfacet
 facet normal -0.316017 -0.893552 0.318901
  outer loop
   vertex 1.00472 52.2274 398.45
   vertex 1.58256 52.068 398.576
   vertex 1.52475 52.2048 398.902
  endloop
 endfacet
 facet normal -0.422757 -0.82028 0.38525
  outer loop
   vertex -2.51754 54.1391 398.912
   vertex -1.72464 53.3707 398.146
   vertex -1.04688 53.1576 398.436
  endloop
 endfacet
 facet normal -0.448551 -0.817893 0.360351
  outer loop
   vertex -3.66741 54.5545 398.407
   vertex -3.05362 53.8729 397.624
   vertex -3.12199 54.5347 399.041
  endloop
 endfacet
 facet normal -0.500815 -0.771968 0.391472
  outer loop
   vertex -4.72363 55.26 398.447
   vertex -3.66741 54.5545 398.407
   vertex -3.72223 54.9359 399.089
  endloop
 endfacet
 facet normal -0.460589 -0.816006 0.349272
  outer loop
   vertex -3.5421 54.0155 397.313
   vertex -3.05362 53.8729 397.624
   vertex -3.66741 54.5545 398.407
  endloop
 endfacet
 facet normal -0.561611 -0.690807 0.455389
  outer loop
   vertex -4.71793 55.4907 398.804
   vertex -5.14337 55.3725 398.1
   vertex -4.72363 55.26 398.447
  endloop
 endfacet
 facet normal -0.435949 -0.819864 0.371177
  outer loop
   vertex -2.66351 53.4928 397.313
   vertex -1.72464 53.3707 398.146
   vertex -2.51754 54.1391 398.912
  endloop
 endfacet
 facet normal -0.483468 -0.795355 0.365609
  outer loop
   vertex -3.05362 53.8729 397.624
   vertex -2.66351 53.4928 397.313
   vertex -2.51754 54.1391 398.912
  endloop
 endfacet
 facet normal -0.274762 -0.855568 0.438758
  outer loop
   vertex 0.43627 52.2243 397.908
   vertex 0.00300569 52.5573 398.286
   vertex 0.0583989 52.3236 397.865
  endloop
 endfacet
 facet normal -0.417225 -0.803092 0.425402
  outer loop
   vertex -1.24093 52.7054 397.392
   vertex -0.547903 52.8544 398.353
   vertex -1.04688 53.1576 398.436
  endloop
 endfacet
 facet normal -0.504738 -0.776976 0.376228
  outer loop
   vertex -4.72363 55.26 398.447
   vertex -4.17628 54.5771 397.771
   vertex -3.66741 54.5545 398.407
  endloop
 endfacet
 facet normal -0.469127 -0.812325 0.34648
  outer loop
   vertex -4.17628 54.5771 397.771
   vertex -3.5421 54.0155 397.313
   vertex -3.66741 54.5545 398.407
  endloop
 endfacet
 facet normal -0.455435 -0.769482 0.447746
  outer loop
   vertex -1.24093 52.7054 397.392
   vertex -0.497375 52.5609 397.9
   vertex -0.547903 52.8544 398.353
  endloop
 endfacet
 facet normal -0.431938 -0.795558 0.424873
  outer loop
   vertex -1.72464 53.3707 398.146
   vertex -1.24093 52.7054 397.392
   vertex -1.04688 53.1576 398.436
  endloop
 endfacet
 facet normal -0.478306 -0.767631 0.426574
  outer loop
   vertex -2.66351 53.4928 397.313
   vertex -2.09511 52.9247 396.928
   vertex -1.72464 53.3707 398.146
  endloop
 endfacet
 facet normal -0.43408 -0.795263 0.423239
  outer loop
   vertex -2.09511 52.9247 396.928
   vertex -1.24093 52.7054 397.392
   vertex -1.72464 53.3707 398.146
  endloop
 endfacet
 facet normal -0.512518 -0.775578 0.368516
  outer loop
   vertex -5.14337 55.3725 398.1
   vertex -4.17628 54.5771 397.771
   vertex -4.72363 55.26 398.447
  endloop
 endfacet
 facet normal -0.512772 -0.766248 0.387206
  outer loop
   vertex -5.76048 55.6844 397.9
   vertex -5.91606 55.5505 397.429
   vertex -5.14337 55.3725 398.1
  endloop
 endfacet
 facet normal -0.507463 -0.773805 0.379088
  outer loop
   vertex -5.91606 55.5505 397.429
   vertex -4.17628 54.5771 397.771
   vertex -5.14337 55.3725 398.1
  endloop
 endfacet
 facet normal -0.416148 -0.829151 0.373268
  outer loop
   vertex -0.830954 52.5442 397.491
   vertex -0.497375 52.5609 397.9
   vertex -1.24093 52.7054 397.392
  endloop
 endfacet
 facet normal -0.568591 -0.722552 0.393222
  outer loop
   vertex -6.28027 55.8382 397.431
   vertex -5.91606 55.5505 397.429
   vertex -5.76048 55.6844 397.9
  endloop
 endfacet
 facet normal -0.673025 -0.467377 0.573233
  outer loop
   vertex -6.55921 56.277 397.74
   vertex -6.71976 56.5585 397.781
   vertex -7.08182 56.6187 397.405
  endloop
 endfacet
 facet normal -0.593657 -0.680187 0.43002
  outer loop
   vertex -6.28027 55.8382 397.431
   vertex -5.92464 55.9672 398.126
   vertex -6.55921 56.277 397.74
  endloop
 endfacet
 facet normal -0.617686 -0.67583 0.402141
  outer loop
   vertex -6.55921 56.277 397.74
   vertex -6.92642 56.2086 397.061
   vertex -6.28027 55.8382 397.431
  endloop
 endfacet
 facet normal -0.670095 -0.609402 0.423794
  outer loop
   vertex -7.08182 56.6187 397.405
   vertex -6.92642 56.2086 397.061
   vertex -6.55921 56.277 397.74
  endloop
 endfacet
 facet normal -0.395284 -0.903458 0.165875
  outer loop
   vertex -0.830954 52.5442 397.491
   vertex -1.24093 52.7054 397.392
   vertex -1.14271 52.6235 397.18
  endloop
 endfacet
 facet normal -0.446969 -0.794733 0.410631
  outer loop
   vertex -2.66351 53.4928 397.313
   vertex -3.05362 53.8729 397.624
   vertex -3.18701 53.2814 396.334
  endloop
 endfacet
 facet normal -0.484472 -0.775137 0.405524
  outer loop
   vertex -3.05362 53.8729 397.624
   vertex -3.5421 54.0155 397.313
   vertex -3.18701 53.2814 396.334
  endloop
 endfacet
 facet normal -0.338044 -0.919905 0.198747
  outer loop
   vertex -1.14271 52.6235 397.18
   vertex -1.24093 52.7054 397.392
   vertex -1.45456 52.7273 397.13
  endloop
 endfacet
 facet normal -0.735375 -0.441458 0.514139
  outer loop
   vertex -7.35856 56.8782 397.232
   vertex -7.47311 56.7045 396.919
   vertex -7.08182 56.6187 397.405
  endloop
 endfacet
 facet normal -0.361003 -0.906587 0.218581
  outer loop
   vertex -1.24093 52.7054 397.392
   vertex -1.77195 52.845 397.094
   vertex -1.45456 52.7273 397.13
  endloop
 endfacet
 facet normal -0.508329 -0.781281 0.362218
  outer loop
   vertex -5.91606 55.5505 397.429
   vertex -5.54989 54.9613 396.672
   vertex -4.17628 54.5771 397.771
  endloop
 endfacet
 facet normal -0.665671 -0.611284 0.428036
  outer loop
   vertex -6.92642 56.2086 397.061
   vertex -7.08182 56.6187 397.405
   vertex -7.47311 56.7045 396.919
  endloop
 endfacet
 facet normal -0.360987 -0.906782 0.217797
  outer loop
   vertex -1.77195 52.845 397.094
   vertex -1.63035 52.7466 396.919
   vertex -1.45456 52.7273 397.13
  endloop
 endfacet
 facet normal -0.472427 -0.805621 0.357474
  outer loop
   vertex -4.70263 54.1443 396.1
   vertex -3.96116 54.0272 396.816
   vertex -4.17628 54.5771 397.771
  endloop
 endfacet
 facet normal -0.455489 -0.811994 0.364959
  outer loop
   vertex -3.96116 54.0272 396.816
   vertex -3.5421 54.0155 397.313
   vertex -4.17628 54.5771 397.771
  endloop
 endfacet
 facet normal -0.350838 -0.902535 0.249687
  outer loop
   vertex -2.09511 52.9247 396.928
   vertex -1.89922 52.8148 396.806
   vertex -1.77195 52.845 397.094
  endloop
 endfacet
 facet normal -0.508472 -0.781072 0.362469
  outer loop
   vertex -5.54989 54.9613 396.672
   vertex -4.70263 54.1443 396.1
   vertex -4.17628 54.5771 397.771
  endloop
 endfacet
 facet normal -0.485333 -0.768344 0.417251
  outer loop
   vertex -2.66351 53.4928 397.313
   vertex -2.60681 53.1431 396.735
   vertex -2.09511 52.9247 396.928
  endloop
 endfacet
 facet normal -0.733545 -0.443777 0.514756
  outer loop
   vertex -7.63942 57.0142 396.949
   vertex -7.47311 56.7045 396.919
   vertex -7.35856 56.8782 397.232
  endloop
 endfacet
 facet normal -0.609555 -0.708892 0.354844
  outer loop
   vertex -6.92642 56.2086 397.061
   vertex -6.49686 55.6285 396.64
   vertex -6.28027 55.8382 397.431
  endloop
 endfacet
 facet normal -0.333132 -0.911093 0.24276
  outer loop
   vertex -1.77195 52.845 397.094
   vertex -1.89922 52.8148 396.806
   vertex -1.63035 52.7466 396.919
  endloop
 endfacet
 facet normal -0.578681 -0.735045 0.353324
  outer loop
   vertex -6.28027 55.8382 397.431
   vertex -6.49686 55.6285 396.64
   vertex -5.91606 55.5505 397.429
  endloop
 endfacet
 facet normal -0.475083 -0.772739 0.420916
  outer loop
   vertex -3.18701 53.2814 396.334
   vertex -2.60681 53.1431 396.735
   vertex -2.66351 53.4928 397.313
  endloop
 endfacet
 facet normal -0.674611 -0.636799 0.373346
  outer loop
   vertex -7.47311 56.7045 396.919
   vertex -7.53674 56.4002 396.285
   vertex -6.92642 56.2086 397.061
  endloop
 endfacet
 facet normal -0.597012 -0.711307 0.37097
  outer loop
   vertex -6.92642 56.2086 397.061
   vertex -6.98904 55.9232 396.413
   vertex -6.49686 55.6285 396.64
  endloop
 endfacet
 facet normal -0.494971 -0.77178 0.399198
  outer loop
   vertex -3.5421 54.0155 397.313
   vertex -3.96116 54.0272 396.816
   vertex -3.18701 53.2814 396.334
  endloop
 endfacet
 facet normal -0.691945 -0.427901 0.581474
  outer loop
   vertex -7.78697 56.928 396.71
   vertex -7.47311 56.7045 396.919
   vertex -7.63942 57.0142 396.949
  endloop
 endfacet
 facet normal -0.739826 -0.341303 0.579802
  outer loop
   vertex -7.78697 56.928 396.71
   vertex -7.63942 57.0142 396.949
   vertex -8.0031 57.1519 396.566
  endloop
 endfacet
 facet normal -0.659734 -0.662158 0.355384
  outer loop
   vertex -6.98904 55.9232 396.413
   vertex -6.92642 56.2086 397.061
   vertex -7.53674 56.4002 396.285
  endloop
 endfacet
 facet normal -0.357718 -0.902767 0.23885
  outer loop
   vertex -2.24331 52.9022 396.621
   vertex -1.89922 52.8148 396.806
   vertex -2.09511 52.9247 396.928
  endloop
 endfacet
 facet normal -0.465402 -0.837599 0.286056
  outer loop
   vertex -2.60681 53.1431 396.735
   vertex -2.24331 52.9022 396.621
   vertex -2.09511 52.9247 396.928
  endloop
 endfacet
 facet normal -0.482371 -0.770281 0.417116
  outer loop
   vertex -3.96116 54.0272 396.816
   vertex -3.64436 53.4492 396.115
   vertex -3.18701 53.2814 396.334
  endloop
 endfacet
 facet normal -0.551132 -0.766415 0.329942
  outer loop
   vertex -6.49686 55.6285 396.64
   vertex -5.54989 54.9613 396.672
   vertex -5.91606 55.5505 397.429
  endloop
 endfacet
 facet normal -0.507054 -0.763348 0.400246
  outer loop
   vertex -3.96116 54.0272 396.816
   vertex -4.70263 54.1443 396.1
   vertex -3.64436 53.4492 396.115
  endloop
 endfacet
 facet normal -0.459135 -0.835557 0.301726
  outer loop
   vertex -2.60681 53.1431 396.735
   vertex -2.5299 52.9806 396.402
   vertex -2.24331 52.9022 396.621
  endloop
 endfacet
 facet normal -0.662279 -0.647389 0.377191
  outer loop
   vertex -7.47311 56.7045 396.919
   vertex -7.87464 56.849 396.462
   vertex -7.53674 56.4002 396.285
  endloop
 endfacet
 facet normal -0.423443 -0.84735 0.320459
  outer loop
   vertex -3.18701 53.2814 396.334
   vertex -2.89681 53.1012 396.241
   vertex -2.60681 53.1431 396.735
  endloop
 endfacet
 facet normal -0.660995 -0.666407 0.344945
  outer loop
   vertex -7.53674 56.4002 396.285
   vertex -7.32971 55.9495 395.811
   vertex -6.98904 55.9232 396.413
  endloop
 endfacet
 facet normal -0.45476 -0.834954 0.309912
  outer loop
   vertex -3.64436 53.4492 396.115
   vertex -3.38372 53.2434 395.943
   vertex -3.18701 53.2814 396.334
  endloop
 endfacet
 facet normal -0.593243 -0.730958 0.337288
  outer loop
   vertex -6.98904 55.9232 396.413
   vertex -6.76593 55.4625 395.807
   vertex -6.49686 55.6285 396.64
  endloop
 endfacet
 facet normal -0.61835 -0.718454 0.318538
  outer loop
   vertex -7.32971 55.9495 395.811
   vertex -6.76593 55.4625 395.807
   vertex -6.98904 55.9232 396.413
  endloop
 endfacet
 facet normal -0.503828 -0.758142 0.413978
  outer loop
   vertex -4.70263 54.1443 396.1
   vertex -4.67194 53.8405 395.581
   vertex -3.64436 53.4492 396.115
  endloop
 endfacet
 facet normal -0.486845 -0.780058 0.393055
  outer loop
   vertex -5.54989 54.9613 396.672
   vertex -5.20162 53.9327 395.062
   vertex -4.70263 54.1443 396.1
  endloop
 endfacet
 facet normal -0.501962 -0.763383 0.406546
  outer loop
   vertex -4.67194 53.8405 395.581
   vertex -4.18536 53.5525 395.641
   vertex -3.64436 53.4492 396.115
  endloop
 endfacet
 facet normal -0.686253 -0.621929 0.377175
  outer loop
   vertex -8.50567 57.1643 395.782
   vertex -7.53674 56.4002 396.285
   vertex -8.29369 57.1754 396.186
  endloop
 endfacet
 facet normal -0.551003 -0.766196 0.330666
  outer loop
   vertex -6.76593 55.4625 395.807
   vertex -5.54989 54.9613 396.672
   vertex -6.49686 55.6285 396.64
  endloop
 endfacet
 facet normal -0.559147 -0.74823 0.35708
  outer loop
   vertex -6.69197 55.0426 395.054
   vertex -5.20162 53.9327 395.062
   vertex -5.54989 54.9613 396.672
  endloop
 endfacet
 facet normal -0.710896 -0.488401 0.506055
  outer loop
   vertex -8.96478 57.5103 395.509
   vertex -8.65802 57.5 395.93
   vertex -8.98111 57.6781 395.648
  endloop
 endfacet
 facet normal -0.683741 -0.654164 0.323368
  outer loop
   vertex -8.50567 57.1643 395.782
   vertex -7.32971 55.9495 395.811
   vertex -7.53674 56.4002 396.285
  endloop
 endfacet
 facet normal -0.562674 -0.744288 0.359768
  outer loop
   vertex -6.76593 55.4625 395.807
   vertex -6.69197 55.0426 395.054
   vertex -5.54989 54.9613 396.672
  endloop
 endfacet
 facet normal -0.691403 -0.53014 0.49083
  outer loop
   vertex -8.50567 57.1643 395.782
   vertex -8.65802 57.5 395.93
   vertex -8.96478 57.5103 395.509
  endloop
 endfacet
 facet normal -0.616925 -0.716856 0.324838
  outer loop
   vertex -7.32971 55.9495 395.811
   vertex -7.72028 55.7278 394.58
   vertex -6.76593 55.4625 395.807
  endloop
 endfacet
 facet normal -0.527465 -0.746435 0.405728
  outer loop
   vertex -4.70263 54.1443 396.1
   vertex -5.20162 53.9327 395.062
   vertex -4.67194 53.8405 395.581
  endloop
 endfacet
 facet normal -0.682156 -0.664644 0.304814
  outer loop
   vertex -9.12982 57.1454 394.344
   vertex -8.50567 57.1643 395.782
   vertex -8.96478 57.5103 395.509
  endloop
 endfacet
 facet normal -0.473797 -0.812694 0.339183
  outer loop
   vertex -4.67194 53.8405 395.581
   vertex -5.20162 53.9327 395.062
   vertex -4.66444 53.6671 395.176
  endloop
 endfacet
 facet normal -0.687448 -0.658142 0.307025
  outer loop
   vertex -9.12982 57.1454 394.344
   vertex -7.32971 55.9495 395.811
   vertex -8.50567 57.1643 395.782
  endloop
 endfacet
 facet normal -0.62432 -0.706742 0.332777
  outer loop
   vertex -6.76593 55.4625 395.807
   vertex -7.72028 55.7278 394.58
   vertex -6.69197 55.0426 395.054
  endloop
 endfacet
 facet normal -0.667068 -0.667042 0.331776
  outer loop
   vertex -7.9176 56.0276 394.786
   vertex -7.72028 55.7278 394.58
   vertex -7.32971 55.9495 395.811
  endloop
 endfacet
 facet normal -0.547241 -0.731888 0.406038
  outer loop
   vertex -5.20162 53.9327 395.062
   vertex -6.69197 55.0426 395.054
   vertex -5.66877 54.1039 394.741
  endloop
 endfacet
 facet normal -0.67381 -0.67252 0.306099
  outer loop
   vertex -9.66946 58.0288 395.097
   vertex -9.12982 57.1454 394.344
   vertex -8.96478 57.5103 395.509
  endloop
 endfacet
 facet normal -0.688983 -0.65408 0.31222
  outer loop
   vertex -9.12982 57.1454 394.344
   vertex -9.16157 56.7354 393.415
   vertex -7.32971 55.9495 395.811
  endloop
 endfacet
 facet normal -0.628355 -0.672547 0.39096
  outer loop
   vertex -7.72028 55.7278 394.58
   vertex -7.20208 54.8658 393.93
   vertex -6.69197 55.0426 395.054
  endloop
 endfacet
 facet normal -0.736947 -0.558964 0.38009
  outer loop
   vertex -9.16157 56.7354 393.415
   vertex -7.9176 56.0276 394.786
   vertex -7.32971 55.9495 395.811
  endloop
 endfacet
 facet normal -0.586342 -0.716073 0.378739
  outer loop
   vertex -6.69197 55.0426 395.054
   vertex -7.20208 54.8658 393.93
   vertex -6.38435 54.3549 394.23
  endloop
 endfacet
 facet normal -0.553515 -0.709665 0.435887
  outer loop
   vertex -9.66946 58.0288 395.097
   vertex -10.1157 58.1152 394.671
   vertex -9.12982 57.1454 394.344
  endloop
 endfacet
 facet normal -0.556254 -0.735378 0.38704
  outer loop
   vertex -6.69197 55.0426 395.054
   vertex -6.01622 54.1504 394.33
   vertex -5.66877 54.1039 394.741
  endloop
 endfacet
 facet normal -0.525169 -0.739494 0.421125
  outer loop
   vertex -6.38435 54.3549 394.23
   vertex -6.01622 54.1504 394.33
   vertex -6.69197 55.0426 395.054
  endloop
 endfacet
 facet normal -0.429639 -0.863069 0.26556
  outer loop
   vertex -5.66877 54.1039 394.741
   vertex -6.01622 54.1504 394.33
   vertex -5.58999 53.9613 394.405
  endloop
 endfacet
 facet normal -0.655011 -0.664716 0.359323
  outer loop
   vertex -7.72028 55.7278 394.58
   vertex -7.69906 55.3885 393.991
   vertex -7.20208 54.8658 393.93
  endloop
 endfacet
 facet normal -0.69496 -0.657472 0.291137
  outer loop
   vertex -9.16157 56.7354 393.415
   vertex -7.72028 55.7278 394.58
   vertex -7.9176 56.0276 394.786
  endloop
 endfacet
 facet normal -0.70633 -0.624094 0.334073
  outer loop
   vertex -7.69906 55.3885 393.991
   vertex -7.72028 55.7278 394.58
   vertex -9.16157 56.7354 393.415
  endloop
 endfacet
 facet normal -0.635619 -0.730428 0.249926
  outer loop
   vertex -10.1157 58.1152 394.671
   vertex -9.38223 57.208 393.885
   vertex -9.12982 57.1454 394.344
  endloop
 endfacet
 facet normal -0.653537 -0.715751 0.24615
  outer loop
   vertex -10.3451 57.9615 393.615
   vertex -9.76938 57.4004 393.512
   vertex -10.1157 58.1152 394.671
  endloop
 endfacet
 facet normal -0.622912 -0.735208 0.267301
  outer loop
   vertex -9.76938 57.4004 393.512
   vertex -9.38223 57.208 393.885
   vertex -10.1157 58.1152 394.671
  endloop
 endfacet
 facet normal -0.675931 -0.72074 0.153786
  outer loop
   vertex -10.7755 58.3517 393.552
   vertex -10.3451 57.9615 393.615
   vertex -10.5061 58.2164 394.102
  endloop
 endfacet
 facet normal -0.710615 -0.634387 0.304268
  outer loop
   vertex -9.38223 57.208 393.885
   vertex -9.16157 56.7354 393.415
   vertex -9.12982 57.1454 394.344
  endloop
 endfacet
 facet normal -0.536421 -0.842117 0.0555904
  outer loop
   vertex -11.029 58.5376 393.922
   vertex -10.7755 58.3517 393.552
   vertex -10.5061 58.2164 394.102
  endloop
 endfacet
 facet normal -0.688673 -0.615056 0.383973
  outer loop
   vertex -7.98062 55.2368 393.243
   vertex -7.69906 55.3885 393.991
   vertex -8.2466 55.7475 393.584
  endloop
 endfacet
 facet normal -0.696872 -0.571238 0.433656
  outer loop
   vertex -7.69906 55.3885 393.991
   vertex -9.16157 56.7354 393.415
   vertex -8.2466 55.7475 393.584
  endloop
 endfacet
 facet normal -0.648693 -0.736356 0.192298
  outer loop
   vertex -11.2609 58.7195 393.771
   vertex -11.1973 58.6384 393.675
   vertex -11.1364 58.6456 393.908
  endloop
 endfacet
 facet normal -0.665293 -0.659197 0.350493
  outer loop
   vertex -9.16157 56.7354 393.415
   vertex -9.38223 57.208 393.885
   vertex -9.76938 57.4004 393.512
  endloop
 endfacet
 facet normal -0.637826 -0.742487 0.204676
  outer loop
   vertex -11.1973 58.6384 393.675
   vertex -11.2609 58.7195 393.771
   vertex -11.3739 58.7529 393.54
  endloop
 endfacet
 facet normal -0.589539 -0.717263 0.371453
  outer loop
   vertex -7.4454 54.7965 393.41
   vertex -6.81546 54.4978 393.833
   vertex -7.20208 54.8658 393.93
  endloop
 endfacet
 facet normal -0.655543 -0.653044 0.379206
  outer loop
   vertex -7.98062 55.2368 393.243
   vertex -7.4454 54.7965 393.41
   vertex -7.69906 55.3885 393.991
  endloop
 endfacet
 facet normal -0.644438 -0.658158 0.389266
  outer loop
   vertex -7.69906 55.3885 393.991
   vertex -7.4454 54.7965 393.41
   vertex -7.20208 54.8658 393.93
  endloop
 endfacet
 facet normal -0.565048 -0.769259 0.298264
  outer loop
   vertex -7.4454 54.7965 393.41
   vertex -7.12864 54.5045 393.257
   vertex -6.81546 54.4978 393.833
  endloop
 endfacet
 facet normal -0.668561 -0.694526 0.26582
  outer loop
   vertex -10.7755 58.3517 393.552
   vertex -10.8696 58.2846 393.14
   vertex -10.3451 57.9615 393.615
  endloop
 endfacet
 facet normal -0.668288 -0.660681 0.341896
  outer loop
   vertex -9.16157 56.7354 393.415
   vertex -9.76938 57.4004 393.512
   vertex -9.99626 57.4379 393.141
  endloop
 endfacet
 facet normal -0.544653 -0.838661 0.00119162
  outer loop
   vertex -11.3739 58.7529 393.54
   vertex -11.3015 58.7054 393.201
   vertex -11.1973 58.6384 393.675
  endloop
 endfacet
 facet normal -0.632767 -0.707164 0.315475
  outer loop
   vertex -10.3451 57.9615 393.615
   vertex -9.99626 57.4379 393.141
   vertex -9.76938 57.4004 393.512
  endloop
 endfacet
 facet normal -0.653505 -0.709108 0.264757
  outer loop
   vertex -10.8696 58.2846 393.14
   vertex -10.7755 58.3517 393.552
   vertex -11.3015 58.7054 393.201
  endloop
 endfacet
 facet normal -0.670075 -0.680563 0.296367
  outer loop
   vertex -9.99626 57.4379 393.141
   vertex -9.73099 56.8745 392.447
   vertex -9.16157 56.7354 393.415
  endloop
 endfacet
 facet normal -0.542174 -0.767447 0.342158
  outer loop
   vertex -7.4454 54.7965 393.41
   vertex -7.56369 54.6567 392.909
   vertex -7.12864 54.5045 393.257
  endloop
 endfacet
 facet normal -0.654301 -0.646645 0.392098
  outer loop
   vertex -7.85219 54.8637 392.842
   vertex -7.4454 54.7965 393.41
   vertex -7.98062 55.2368 393.243
  endloop
 endfacet
 facet normal -0.719064 -0.608579 0.335528
  outer loop
   vertex -9.73099 56.8745 392.447
   vertex -8.2466 55.7475 393.584
   vertex -9.16157 56.7354 393.415
  endloop
 endfacet
 facet normal -0.643184 -0.764783 -0.0376941
  outer loop
   vertex -11.7566 59.0943 393.076
   vertex -11.6001 58.9751 392.824
   vertex -11.3015 58.7054 393.201
  endloop
 endfacet
 facet normal -0.702027 -0.617107 0.35544
  outer loop
   vertex -10.6655 57.7984 392.699
   vertex -10.3451 57.9615 393.615
   vertex -10.8696 58.2846 393.14
  endloop
 endfacet
 facet normal -0.720593 -0.601953 0.344091
  outer loop
   vertex -9.73099 56.8745 392.447
   vertex -8.24261 55.1831 392.605
   vertex -8.2466 55.7475 393.584
  endloop
 endfacet
 facet normal -0.610292 -0.71512 0.340804
  outer loop
   vertex -10.3451 57.9615 393.615
   vertex -10.6655 57.7984 392.699
   vertex -9.99626 57.4379 393.141
  endloop
 endfacet
 facet normal -0.717693 -0.604548 0.345599
  outer loop
   vertex -8.2466 55.7475 393.584
   vertex -8.24261 55.1831 392.605
   vertex -7.98062 55.2368 393.243
  endloop
 endfacet
 facet normal -0.71074 -0.613871 0.343528
  outer loop
   vertex -8.24261 55.1831 392.605
   vertex -7.85219 54.8637 392.842
   vertex -7.98062 55.2368 393.243
  endloop
 endfacet
 facet normal -0.651866 -0.708311 0.270863
  outer loop
   vertex -10.8696 58.2846 393.14
   vertex -11.3015 58.7054 393.201
   vertex -11.1734 58.3791 392.656
  endloop
 endfacet
 facet normal -0.721492 -0.606274 0.334488
  outer loop
   vertex -11.1734 58.3791 392.656
   vertex -10.6655 57.7984 392.699
   vertex -10.8696 58.2846 393.14
  endloop
 endfacet
 facet normal -0.790952 -0.572006 0.217266
  outer loop
   vertex -11.6347 58.8562 392.385
   vertex -11.3015 58.7054 393.201
   vertex -11.6001 58.9751 392.824
  endloop
 endfacet
 facet normal -0.687832 -0.685124 0.239776
  outer loop
   vertex -11.8255 59.1188 392.588
   vertex -11.6347 58.8562 392.385
   vertex -11.6001 58.9751 392.824
  endloop
 endfacet
 facet normal -0.758075 -0.622485 0.194512
  outer loop
   vertex -11.1734 58.3791 392.656
   vertex -11.3015 58.7054 393.201
   vertex -11.6347 58.8562 392.385
  endloop
 endfacet
 facet normal -0.694377 -0.575318 0.432261
  outer loop
   vertex -11.1296 58.0039 392.227
   vertex -10.6655 57.7984 392.699
   vertex -11.1734 58.3791 392.656
  endloop
 endfacet
 facet normal -0.699232 -0.670314 0.248503
  outer loop
   vertex -7.85219 54.8637 392.842
   vertex -8.24261 55.1831 392.605
   vertex -8.10053 54.9448 392.362
  endloop
 endfacet
 facet normal -0.751662 -0.65238 0.0969772
  outer loop
   vertex -9.73099 56.8745 392.447
   vertex -8.67097 55.638 392.345
   vertex -8.24261 55.1831 392.605
  endloop
 endfacet
 facet normal -0.764979 -0.542241 0.347537
  outer loop
   vertex -11.6347 58.8562 392.385
   vertex -11.464 58.3526 391.975
   vertex -11.1734 58.3791 392.656
  endloop
 endfacet
 facet normal -0.613283 -0.711435 0.343138
  outer loop
   vertex -9.73099 56.8745 392.447
   vertex -9.99626 57.4379 393.141
   vertex -10.1266 57.0583 392.121
  endloop
 endfacet
 facet normal -0.552236 -0.775272 0.306575
  outer loop
   vertex -11.8255 59.1188 392.588
   vertex -12.1618 59.3619 392.597
   vertex -12.2992 59.3368 392.286
  endloop
 endfacet
 facet normal -0.789537 -0.499639 0.356359
  outer loop
   vertex -11.464 58.3526 391.975
   vertex -11.1296 58.0039 392.227
   vertex -11.1734 58.3791 392.656
  endloop
 endfacet
 facet normal -0.611035 -0.713191 0.343504
  outer loop
   vertex -10.6655 57.7984 392.699
   vertex -10.1266 57.0583 392.121
   vertex -9.99626 57.4379 393.141
  endloop
 endfacet
 facet normal -0.577531 -0.718803 0.387014
  outer loop
   vertex -12.2992 59.3368 392.286
   vertex -11.6347 58.8562 392.385
   vertex -11.8255 59.1188 392.588
  endloop
 endfacet
 facet normal -0.5883 -0.808254 0.0250506
  outer loop
   vertex -12.2913 59.3145 391.752
   vertex -11.6347 58.8562 392.385
   vertex -12.2992 59.3368 392.286
  endloop
 endfacet
 facet normal -0.676799 -0.62123 0.394989
  outer loop
   vertex -10.7133 57.4372 392.049
   vertex -10.6655 57.7984 392.699
   vertex -11.1296 58.0039 392.227
  endloop
 endfacet
 facet normal -0.747255 -0.651434 0.131311
  outer loop
   vertex -9.73099 56.8745 392.447
   vertex -8.77326 55.584 391.495
   vertex -8.67097 55.638 392.345
  endloop
 endfacet
 facet normal -0.524141 -0.727466 0.442798
  outer loop
   vertex -10.7133 57.4372 392.049
   vertex -10.1266 57.0583 392.121
   vertex -10.6655 57.7984 392.699
  endloop
 endfacet
 facet normal -0.731024 -0.649419 0.209425
  outer loop
   vertex -8.10053 54.9448 392.362
   vertex -8.24261 55.1831 392.605
   vertex -8.49525 55.2769 392.014
  endloop
 endfacet
 facet normal -0.719011 -0.624181 0.305649
  outer loop
   vertex -11.0829 57.7606 391.84
   vertex -10.7133 57.4372 392.049
   vertex -11.1296 58.0039 392.227
  endloop
 endfacet
 facet normal -0.569918 -0.782629 0.250371
  outer loop
   vertex -10.1266 57.0583 392.121
   vertex -9.49069 56.537 391.939
   vertex -9.73099 56.8745 392.447
  endloop
 endfacet
 facet normal -0.712091 -0.648443 0.269163
  outer loop
   vertex -12.2913 59.3145 391.752
   vertex -11.7853 58.7912 391.83
   vertex -11.6347 58.8562 392.385
  endloop
 endfacet
 facet normal -0.816163 -0.505107 0.280615
  outer loop
   vertex -11.6347 58.8562 392.385
   vertex -11.7853 58.7912 391.83
   vertex -11.464 58.3526 391.975
  endloop
 endfacet
 facet normal -0.714641 -0.689154 0.119808
  outer loop
   vertex -9.49069 56.537 391.939
   vertex -9.11091 56.0825 391.59
   vertex -9.73099 56.8745 392.447
  endloop
 endfacet
 facet normal -0.540562 -0.774683 0.328115
  outer loop
   vertex -10.7133 57.4372 392.049
   vertex -10.2175 56.9413 391.695
   vertex -10.1266 57.0583 392.121
  endloop
 endfacet
 facet normal -0.783875 -0.563897 0.259922
  outer loop
   vertex -11.464 58.3526 391.975
   vertex -11.0829 57.7606 391.84
   vertex -11.1296 58.0039 392.227
  endloop
 endfacet
 facet normal -0.698059 -0.699812 0.151578
  outer loop
   vertex -11.0829 57.7606 391.84
   vertex -10.6485 57.2935 391.684
   vertex -10.7133 57.4372 392.049
  endloop
 endfacet
 facet normal -0.624398 -0.758231 0.187652
  outer loop
   vertex -10.6485 57.2935 391.684
   vertex -10.2175 56.9413 391.695
   vertex -10.7133 57.4372 392.049
  endloop
 endfacet
 facet normal -0.583766 -0.784785 0.20816
  outer loop
   vertex -9.59574 56.5117 391.549
   vertex -9.49069 56.537 391.939
   vertex -10.1266 57.0583 392.121
  endloop
 endfacet
 facet normal -0.484281 -0.811789 0.326297
  outer loop
   vertex -10.2175 56.9413 391.695
   vertex -9.59574 56.5117 391.549
   vertex -10.1266 57.0583 392.121
  endloop
 endfacet
 facet normal -0.829625 -0.552465 0.0806507
  outer loop
   vertex -11.464 58.3526 391.975
   vertex -11.4777 58.3177 391.595
   vertex -11.0829 57.7606 391.84
  endloop
 endfacet
 facet normal -0.65659 -0.720343 0.223596
  outer loop
   vertex -9.49069 56.537 391.939
   vertex -9.59574 56.5117 391.549
   vertex -9.11091 56.0825 391.59
  endloop
 endfacet
 facet normal -0.816709 -0.571208 0.0819064
  outer loop
   vertex -11.7853 58.7912 391.83
   vertex -11.4777 58.3177 391.595
   vertex -11.464 58.3526 391.975
  endloop
 endfacet
 facet normal -0.630323 -0.773445 -0.0669043
  outer loop
   vertex -10.6485 57.2935 391.684
   vertex -10.2433 56.9875 391.404
   vertex -10.2175 56.9413 391.695
  endloop
 endfacet
 facet normal -0.818526 -0.569428 0.0759408
  outer loop
   vertex -11.9957 59.0591 391.571
   vertex -11.4777 58.3177 391.595
   vertex -11.7853 58.7912 391.83
  endloop
 endfacet
 facet normal -0.556916 -0.828039 0.0647778
  outer loop
   vertex -10.2175 56.9413 391.695
   vertex -9.77114 56.6098 391.295
   vertex -9.59574 56.5117 391.549
  endloop
 endfacet
 facet normal -0.632591 -0.771633 -0.0664157
  outer loop
   vertex -10.2433 56.9875 391.404
   vertex -9.77114 56.6098 391.295
   vertex -10.2175 56.9413 391.695
  endloop
 endfacet
 facet normal -0.65822 -0.749884 -0.0664806
  outer loop
   vertex -9.59574 56.5117 391.549
   vertex -9.18739 56.2249 390.741
   vertex -9.11091 56.0825 391.59
  endloop
 endfacet
 facet normal -0.526447 -0.849468 0.035461
  outer loop
   vertex -9.77114 56.6098 391.295
   vertex -9.18739 56.2249 390.741
   vertex -9.59574 56.5117 391.549
  endloop
 endfacet
endsolid
