solid ascii
 facet normal 0.242523 0.814529 -0.526996
  outer loop
   vertex 44.6165 68.5958 383.909
   vertex 44.3103 68.9076 384.25
   vertex 45.0944 68.5085 383.994
  endloop
 endfacet
 facet normal 0.20364 0.806706 -0.554758
  outer loop
   vertex 43.5241 69.0153 384.118
   vertex 44.3103 68.9076 384.25
   vertex 44.6165 68.5958 383.909
  endloop
 endfacet
 facet normal 0.0406271 0.680717 -0.731419
  outer loop
   vertex 42.017 69.5694 384.55
   vertex 43.5241 69.0153 384.118
   vertex 41.201 68.4598 383.472
  endloop
 endfacet
 facet normal 0.0779985 0.599868 -0.796288
  outer loop
   vertex 44.6165 68.5958 383.909
   vertex 41.201 68.4598 383.472
   vertex 43.5241 69.0153 384.118
  endloop
 endfacet
 facet normal 0.182267 0.613235 -0.768585
  outer loop
   vertex 45.1565 67.7347 383.35
   vertex 43.4664 66.4786 381.947
   vertex 44.6165 68.5958 383.909
  endloop
 endfacet
 facet normal 0.0698261 0.657383 -0.750314
  outer loop
   vertex 44.6165 68.5958 383.909
   vertex 43.4664 66.4786 381.947
   vertex 41.201 68.4598 383.472
  endloop
 endfacet
 facet normal 0.0178859 0.622625 -0.782316
  outer loop
   vertex 40.7957 68.1385 383.207
   vertex 41.201 68.4598 383.472
   vertex 43.4664 66.4786 381.947
  endloop
 endfacet
 facet normal 0.198515 0.599203 -0.775595
  outer loop
   vertex 43.4664 66.4786 381.947
   vertex 45.1565 67.7347 383.35
   vertex 45.3064 66.3544 382.322
  endloop
 endfacet
 facet normal 0.161489 0.748262 -0.643448
  outer loop
   vertex 43.4664 66.4786 381.947
   vertex 40.5969 67.1641 382.024
   vertex 40.7957 68.1385 383.207
  endloop
 endfacet
 facet normal 0.198925 0.594362 -0.779206
  outer loop
   vertex 45.3064 66.3544 382.322
   vertex 44.7362 65.4086 381.455
   vertex 43.4664 66.4786 381.947
  endloop
 endfacet
 facet normal 0.126871 0.618208 -0.775708
  outer loop
   vertex 40.5969 67.1641 382.024
   vertex 43.4664 66.4786 381.947
   vertex 43.23 63.6901 379.686
  endloop
 endfacet
 facet normal 0.0800723 0.770936 -0.631859
  outer loop
   vertex 39.9238 67.0578 381.809
   vertex 40.5969 67.1641 382.024
   vertex 40.232 66.7963 381.529
  endloop
 endfacet
 facet normal 0.266714 0.669031 -0.69373
  outer loop
   vertex 43.23 63.6901 379.686
   vertex 40.232 66.7963 381.529
   vertex 40.5969 67.1641 382.024
  endloop
 endfacet
 facet normal 0.257262 0.664553 -0.701559
  outer loop
   vertex 43.23 63.6901 379.686
   vertex 40.0639 66.5732 381.256
   vertex 40.232 66.7963 381.529
  endloop
 endfacet
 facet normal 0.703168 0.317907 -0.635995
  outer loop
   vertex 46.5168 62.2197 380.865
   vertex 46.2523 62.6667 380.796
   vertex 46.0909 63.5739 381.071
  endloop
 endfacet
 facet normal 0.200192 0.628936 -0.751241
  outer loop
   vertex 43.23 63.6901 379.686
   vertex 39.6465 66.2796 380.899
   vertex 40.0639 66.5732 381.256
  endloop
 endfacet
 facet normal 0.444025 0.331371 -0.832487
  outer loop
   vertex 46.0909 63.5739 381.071
   vertex 46.2523 62.6667 380.796
   vertex 44.5434 63.6125 380.261
  endloop
 endfacet
 facet normal 0.423186 0.276573 -0.862798
  outer loop
   vertex 46.2523 62.6667 380.796
   vertex 46.6331 61.5787 380.634
   vertex 44.5434 63.6125 380.261
  endloop
 endfacet
 facet normal 0.734213 0.34411 -0.585252
  outer loop
   vertex 46.6331 61.5787 380.634
   vertex 46.2523 62.6667 380.796
   vertex 46.5168 62.2197 380.865
  endloop
 endfacet
 facet normal 0.230709 0.655926 -0.718704
  outer loop
   vertex 39.068 65.8432 380.315
   vertex 39.6465 66.2796 380.899
   vertex 43.23 63.6901 379.686
  endloop
 endfacet
 facet normal 0.419008 0.647544 -0.63649
  outer loop
   vertex 46.9188 60.6659 380.379
   vertex 46.7967 60.0195 379.641
   vertex 46.2089 60.8471 380.096
  endloop
 endfacet
 facet normal 0.368217 0.519644 -0.770965
  outer loop
   vertex 44.5434 63.6125 380.261
   vertex 43.23 63.6901 379.686
   vertex 43.4861 64.8261 380.574
  endloop
 endfacet
 facet normal 0.325656 0.622542 -0.711611
  outer loop
   vertex 46.0121 60.031 379.292
   vertex 46.2089 60.8471 380.096
   vertex 46.7967 60.0195 379.641
  endloop
 endfacet
 facet normal 0.403911 0.59074 -0.698485
  outer loop
   vertex 45.3153 60.8858 379.612
   vertex 46.2089 60.8471 380.096
   vertex 46.0121 60.031 379.292
  endloop
 endfacet
 facet normal 0.170213 0.5649 -0.807413
  outer loop
   vertex 43.23 63.6901 379.686
   vertex 37.8486 65.6103 379.895
   vertex 39.068 65.8432 380.315
  endloop
 endfacet
 facet normal 0.247631 0.692481 -0.677605
  outer loop
   vertex 39.0378 64.653 379.138
   vertex 43.23 63.6901 379.686
   vertex 42.3397 63.6151 379.284
  endloop
 endfacet
 facet normal 0.465489 0.327478 -0.822239
  outer loop
   vertex 45.3153 60.8858 379.612
   vertex 44.5434 63.6125 380.261
   vertex 46.6331 61.5787 380.634
  endloop
 endfacet
 facet normal 0.253614 0.773917 -0.580287
  outer loop
   vertex 37.8486 65.6103 379.895
   vertex 43.23 63.6901 379.686
   vertex 39.0378 64.653 379.138
  endloop
 endfacet
 facet normal 0.335754 0.557837 -0.759004
  outer loop
   vertex 46.0121 60.031 379.292
   vertex 44.7458 59.7727 378.542
   vertex 45.3153 60.8858 379.612
  endloop
 endfacet
 facet normal 0.507309 0.332811 -0.794906
  outer loop
   vertex 44.5434 63.6125 380.261
   vertex 45.3153 60.8858 379.612
   vertex 43.2145 61.1622 378.387
  endloop
 endfacet
 facet normal 0.373648 0.490432 -0.787314
  outer loop
   vertex 44.5434 63.6125 380.261
   vertex 42.7624 62.6866 378.839
   vertex 43.23 63.6901 379.686
  endloop
 endfacet
 facet normal 0.23191 0.7641 -0.601971
  outer loop
   vertex 37.9881 64.8164 378.941
   vertex 37.8486 65.6103 379.895
   vertex 39.0378 64.653 379.138
  endloop
 endfacet
 facet normal 0.452013 0.374153 -0.80975
  outer loop
   vertex 42.7624 62.6866 378.839
   vertex 44.5434 63.6125 380.261
   vertex 43.2145 61.1622 378.387
  endloop
 endfacet
 facet normal 0.313855 0.522758 -0.792603
  outer loop
   vertex 42.3397 63.6151 379.284
   vertex 43.23 63.6901 379.686
   vertex 42.7624 62.6866 378.839
  endloop
 endfacet
 facet normal 0.223015 0.601589 -0.767043
  outer loop
   vertex 42.3397 63.6151 379.284
   vertex 41.7976 62.9159 378.578
   vertex 39.0378 64.653 379.138
  endloop
 endfacet
 facet normal 0.136468 0.742818 -0.655437
  outer loop
   vertex 37.2206 65.1876 379.115
   vertex 37.4828 65.1712 379.151
   vertex 37.2174 64.9226 378.814
  endloop
 endfacet
 facet normal 0.208967 0.7011 -0.681757
  outer loop
   vertex 37.9881 64.8164 378.941
   vertex 37.2174 64.9226 378.814
   vertex 37.4828 65.1712 379.151
  endloop
 endfacet
 facet normal 0.463566 0.375454 -0.802584
  outer loop
   vertex 43.2145 61.1622 378.387
   vertex 41.8011 62.0715 377.996
   vertex 42.7624 62.6866 378.839
  endloop
 endfacet
 facet normal 0.491755 0.45943 -0.739663
  outer loop
   vertex 44.7458 59.7727 378.542
   vertex 43.2145 61.1622 378.387
   vertex 45.3153 60.8858 379.612
  endloop
 endfacet
 facet normal 0.0441566 0.843172 -0.535827
  outer loop
   vertex 37.2174 64.9226 378.814
   vertex 36.7746 64.6916 378.414
   vertex 36.7636 64.9235 378.778
  endloop
 endfacet
 facet normal 0.209861 0.657496 -0.723642
  outer loop
   vertex 37.9881 64.8164 378.941
   vertex 37.2077 62.9413 377.011
   vertex 37.2174 64.9226 378.814
  endloop
 endfacet
 facet normal 0.336379 0.527146 -0.780363
  outer loop
   vertex 42.7624 62.6866 378.839
   vertex 41.7976 62.9159 378.578
   vertex 42.3397 63.6151 379.284
  endloop
 endfacet
 facet normal 0.303158 0.64056 -0.705534
  outer loop
   vertex 37.2077 62.9413 377.011
   vertex 36.7746 64.6916 378.414
   vertex 37.2174 64.9226 378.814
  endloop
 endfacet
 facet normal 0.336765 0.535302 -0.774623
  outer loop
   vertex 41.8011 62.0715 377.996
   vertex 41.7976 62.9159 378.578
   vertex 42.7624 62.6866 378.839
  endloop
 endfacet
 facet normal 0.263377 0.184632 -0.94686
  outer loop
   vertex 43.7695 60.0013 378.315
   vertex 43.2145 61.1622 378.387
   vertex 44.7458 59.7727 378.542
  endloop
 endfacet
 facet normal 0.187176 0.558001 -0.808455
  outer loop
   vertex 39.0378 64.653 379.138
   vertex 41.7976 62.9159 378.578
   vertex 41.8011 62.0715 377.996
  endloop
 endfacet
 facet normal 0.476134 0.283454 -0.832436
  outer loop
   vertex 43.2145 61.1622 378.387
   vertex 43.2669 60.2225 378.097
   vertex 42.8276 60.3379 377.885
  endloop
 endfacet
 facet normal 0.0245394 0.825399 -0.564017
  outer loop
   vertex 35.9904 64.3008 377.761
   vertex 35.6196 64.4198 377.919
   vertex 36.4487 64.717 378.39
  endloop
 endfacet
 facet normal 0.434048 0.311137 -0.845456
  outer loop
   vertex 41.8011 62.0715 377.996
   vertex 43.2145 61.1622 378.387
   vertex 42.8276 60.3379 377.885
  endloop
 endfacet
 facet normal 0.236731 0.647269 -0.72457
  outer loop
   vertex 37.9881 64.8164 378.941
   vertex 39.0378 64.653 379.138
   vertex 37.2077 62.9413 377.011
  endloop
 endfacet
 facet normal 0.264665 0.612725 -0.744661
  outer loop
   vertex 41.8011 62.0715 377.996
   vertex 40.926 61.9172 377.558
   vertex 39.0378 64.653 379.138
  endloop
 endfacet
 facet normal 0.366371 0.358921 -0.858457
  outer loop
   vertex 40.926 61.9172 377.558
   vertex 41.8011 62.0715 377.996
   vertex 41.3608 61.3633 377.512
  endloop
 endfacet
 facet normal 0.324395 0.662787 -0.674893
  outer loop
   vertex 37.2077 62.9413 377.011
   vertex 35.9904 64.3008 377.761
   vertex 36.4487 64.717 378.39
  endloop
 endfacet
 facet normal 0.0969962 0.54711 -0.831422
  outer loop
   vertex 40.5092 61.3741 377.152
   vertex 39.0378 64.653 379.138
   vertex 40.926 61.9172 377.558
  endloop
 endfacet
 facet normal 0.3122 0.59074 -0.744014
  outer loop
   vertex 40.5092 61.3741 377.152
   vertex 37.2077 62.9413 377.011
   vertex 39.0378 64.653 379.138
  endloop
 endfacet
 facet normal 0.36719 0.359514 -0.857858
  outer loop
   vertex 40.5092 61.3741 377.152
   vertex 40.926 61.9172 377.558
   vertex 41.3608 61.3633 377.512
  endloop
 endfacet
 facet normal 0.196877 0.602836 -0.773194
  outer loop
   vertex 35.3353 64.2685 377.569
   vertex 35.9904 64.3008 377.761
   vertex 37.2077 62.9413 377.011
  endloop
 endfacet
 facet normal 0.264381 0.30476 -0.915
  outer loop
   vertex 40.129 61.0314 376.928
   vertex 39.4034 60.8892 376.671
   vertex 40.5092 61.3741 377.152
  endloop
 endfacet
 facet normal 0.221001 0.384933 -0.896094
  outer loop
   vertex 39.4034 60.8892 376.671
   vertex 37.2077 62.9413 377.011
   vertex 40.5092 61.3741 377.152
  endloop
 endfacet
 facet normal 0.524335 0.651808 -0.547923
  outer loop
   vertex 39.4034 60.8892 376.671
   vertex 38.9688 61.0522 376.449
   vertex 37.2077 62.9413 377.011
  endloop
 endfacet
 facet normal 0.236113 0.640389 -0.730857
  outer loop
   vertex 37.2077 62.9413 377.011
   vertex 33.7746 62.8821 375.85
   vertex 35.3353 64.2685 377.569
  endloop
 endfacet
 facet normal 0.131603 0.709826 -0.691973
  outer loop
   vertex 34.2835 63.7811 376.869
   vertex 35.3353 64.2685 377.569
   vertex 33.7746 62.8821 375.85
  endloop
 endfacet
 facet normal 0.392894 0.578841 -0.714547
  outer loop
   vertex 38.9688 61.0522 376.449
   vertex 38.1573 61.2475 376.161
   vertex 37.2077 62.9413 377.011
  endloop
 endfacet
 facet normal 0.251053 0.583749 -0.772146
  outer loop
   vertex 33.7746 62.8821 375.85
   vertex 37.2077 62.9413 377.011
   vertex 33.6795 62.0447 375.186
  endloop
 endfacet
 facet normal 0.318462 0.561718 -0.763581
  outer loop
   vertex 38.1573 61.2475 376.161
   vertex 37.1539 61.4942 375.924
   vertex 37.2077 62.9413 377.011
  endloop
 endfacet
 facet normal 0.256154 0.57444 -0.777434
  outer loop
   vertex 37.1539 61.4942 375.924
   vertex 33.6795 62.0447 375.186
   vertex 37.2077 62.9413 377.011
  endloop
 endfacet
 facet normal 0.190876 0.596489 -0.779594
  outer loop
   vertex 33.6795 62.0447 375.186
   vertex 32.65 62.3467 375.165
   vertex 33.7746 62.8821 375.85
  endloop
 endfacet
 facet normal 0.18179 0.506648 -0.842769
  outer loop
   vertex 32.5837 59.2133 373.267
   vertex 31.4731 62.2716 374.866
   vertex 32.65 62.3467 375.165
  endloop
 endfacet
 facet normal 0.228187 0.546505 -0.805769
  outer loop
   vertex 33.9663 60.5611 374.261
   vertex 33.6795 62.0447 375.186
   vertex 35.3425 61.0009 374.949
  endloop
 endfacet
 facet normal 0.256652 0.495277 -0.829958
  outer loop
   vertex 35.3425 61.0009 374.949
   vertex 34.8892 60.1432 374.297
   vertex 33.9663 60.5611 374.261
  endloop
 endfacet
 facet normal 0.16634 0.508303 -0.844961
  outer loop
   vertex 32.5837 59.2133 373.267
   vertex 32.65 62.3467 375.165
   vertex 33.6795 62.0447 375.186
  endloop
 endfacet
 facet normal -0.00664633 0.838335 -0.545115
  outer loop
   vertex 31.4731 62.2716 374.866
   vertex 30.1853 62.0039 374.47
   vertex 30.8479 62.2998 374.917
  endloop
 endfacet
 facet normal 0.104494 0.632551 -0.767437
  outer loop
   vertex 30.1853 62.0039 374.47
   vertex 31.4731 62.2716 374.866
   vertex 31.1049 61.7525 374.388
  endloop
 endfacet
 facet normal 0.0784564 0.538327 -0.839076
  outer loop
   vertex 33.9663 60.5611 374.261
   vertex 32.5837 59.2133 373.267
   vertex 33.6795 62.0447 375.186
  endloop
 endfacet
 facet normal 0.296152 0.524797 -0.798049
  outer loop
   vertex 31.4731 62.2716 374.866
   vertex 32.5837 59.2133 373.267
   vertex 31.1049 61.7525 374.388
  endloop
 endfacet
 facet normal 0.0729628 0.540322 -0.838289
  outer loop
   vertex 31.1049 61.7525 374.388
   vertex 31.5125 60.3306 373.507
   vertex 30.1853 62.0039 374.47
  endloop
 endfacet
 facet normal 0.200938 0.603474 -0.771649
  outer loop
   vertex 31.5125 60.3306 373.507
   vertex 29.0778 61.328 373.653
   vertex 30.1853 62.0039 374.47
  endloop
 endfacet
 facet normal 0.00574025 0.766651 -0.642038
  outer loop
   vertex 29.0778 61.328 373.653
   vertex 29.2491 61.655 374.045
   vertex 30.1853 62.0039 374.47
  endloop
 endfacet
 facet normal 0.426925 0.561554 -0.708796
  outer loop
   vertex 32.5837 59.2133 373.267
   vertex 31.5125 60.3306 373.507
   vertex 31.1049 61.7525 374.388
  endloop
 endfacet
 facet normal 0.0261902 0.761976 -0.647075
  outer loop
   vertex 28.5066 61.3128 373.612
   vertex 29.2491 61.655 374.045
   vertex 29.0778 61.328 373.653
  endloop
 endfacet
 facet normal 0.0331127 0.694688 -0.718549
  outer loop
   vertex 28.5066 61.3128 373.612
   vertex 29.0778 61.328 373.653
   vertex 28.3571 61.0448 373.346
  endloop
 endfacet
 facet normal 0.327711 0.487959 -0.809012
  outer loop
   vertex 32.5837 59.2133 373.267
   vertex 31.8298 59.1758 372.939
   vertex 31.5125 60.3306 373.507
  endloop
 endfacet
 facet normal 0.139199 0.467594 -0.872915
  outer loop
   vertex 29.0778 61.328 373.653
   vertex 31.5125 60.3306 373.507
   vertex 31.8298 59.1758 372.939
  endloop
 endfacet
 facet normal -0.151156 0.877683 -0.45478
  outer loop
   vertex 29.0778 61.328 373.653
   vertex 27.9674 60.8243 373.05
   vertex 28.3571 61.0448 373.346
  endloop
 endfacet
 facet normal 0.175375 0.659789 -0.7307
  outer loop
   vertex 26.6545 60.4933 372.436
   vertex 27.6638 61.0047 373.14
   vertex 27.9674 60.8243 373.05
  endloop
 endfacet
 facet normal 0.203989 0.533221 -0.821014
  outer loop
   vertex 27.9674 60.8243 373.05
   vertex 29.0778 61.328 373.653
   vertex 31.8298 59.1758 372.939
  endloop
 endfacet
 facet normal -0.0288595 0.827952 -0.560056
  outer loop
   vertex 26.5706 60.6676 372.698
   vertex 27.6638 61.0047 373.14
   vertex 26.6545 60.4933 372.436
  endloop
 endfacet
 facet normal 0.218311 0.565068 -0.795638
  outer loop
   vertex 27.9674 60.8243 373.05
   vertex 31.8298 59.1758 372.939
   vertex 27.3806 58.1547 370.993
  endloop
 endfacet
 facet normal 0.0422665 0.772034 -0.634175
  outer loop
   vertex 26.6545 60.4933 372.436
   vertex 26.1057 60.3681 372.247
   vertex 26.2363 60.5359 372.46
  endloop
 endfacet
 facet normal 0.328863 0.283696 -0.900758
  outer loop
   vertex 30.6861 58.6315 372.35
   vertex 27.3806 58.1547 370.993
   vertex 31.8298 59.1758 372.939
  endloop
 endfacet
 facet normal 0.23001 0.56176 -0.794683
  outer loop
   vertex 26.6545 60.4933 372.436
   vertex 27.9674 60.8243 373.05
   vertex 27.3806 58.1547 370.993
  endloop
 endfacet
 facet normal 0.155602 0.553259 -0.818347
  outer loop
   vertex 26.1057 60.3681 372.247
   vertex 26.6545 60.4933 372.436
   vertex 27.3806 58.1547 370.993
  endloop
 endfacet
 facet normal 0.213913 0.554338 -0.804332
  outer loop
   vertex 25.1588 59.8397 371.631
   vertex 26.1057 60.3681 372.247
   vertex 26.4425 57.3855 370.281
  endloop
 endfacet
 facet normal 0.163032 0.555757 -0.815202
  outer loop
   vertex 27.3806 58.1547 370.993
   vertex 26.4425 57.3855 370.281
   vertex 26.1057 60.3681 372.247
  endloop
 endfacet
 facet normal 0.173527 0.542792 -0.821745
  outer loop
   vertex 26.4425 57.3855 370.281
   vertex 24.4757 59.3859 371.187
   vertex 25.1588 59.8397 371.631
  endloop
 endfacet
 facet normal 0.15763 0.501016 -0.850961
  outer loop
   vertex 24.4757 59.3859 371.187
   vertex 24.8428 56.3609 369.474
   vertex 22.4116 58.9041 370.521
  endloop
 endfacet
 facet normal 0.0379682 0.750066 -0.660273
  outer loop
   vertex 24.4757 59.3859 371.187
   vertex 22.4116 58.9041 370.521
   vertex 23.2339 59.4778 371.22
  endloop
 endfacet
 facet normal 0.183642 0.54966 -0.814954
  outer loop
   vertex 24.4757 59.3859 371.187
   vertex 26.4425 57.3855 370.281
   vertex 25.5158 57.5691 370.196
  endloop
 endfacet
 facet normal 0.131784 0.576625 -0.806311
  outer loop
   vertex 21.5955 58.6949 370.238
   vertex 22.4116 58.9041 370.521
   vertex 21.9704 58.3519 370.054
  endloop
 endfacet
 facet normal 0.040034 0.496041 -0.867376
  outer loop
   vertex 25.5158 57.5691 370.196
   vertex 24.8428 56.3609 369.474
   vertex 24.4757 59.3859 371.187
  endloop
 endfacet
 facet normal 0.203215 0.532529 -0.821655
  outer loop
   vertex 24.8428 56.3609 369.474
   vertex 21.9704 58.3519 370.054
   vertex 22.4116 58.9041 370.521
  endloop
 endfacet
 facet normal 0.199485 0.418402 -0.886084
  outer loop
   vertex 25.5158 57.5691 370.196
   vertex 25.8629 56.8699 369.944
   vertex 24.8428 56.3609 369.474
  endloop
 endfacet
 facet normal 0.170097 0.461758 -0.870544
  outer loop
   vertex 24.189 56.1719 369.246
   vertex 22.4235 56.9467 369.312
   vertex 24.8428 56.3609 369.474
  endloop
 endfacet
 facet normal 0.178584 0.503835 -0.845138
  outer loop
   vertex 21.9704 58.3519 370.054
   vertex 24.8428 56.3609 369.474
   vertex 22.4235 56.9467 369.312
  endloop
 endfacet
 facet normal 0.0213891 0.472205 -0.881229
  outer loop
   vertex 21.0204 58.5741 370.15
   vertex 21.9704 58.3519 370.054
   vertex 22.4235 56.9467 369.312
  endloop
 endfacet
 facet normal 0.14252 0.547478 -0.824594
  outer loop
   vertex 22.4235 56.9467 369.312
   vertex 21.1901 56.837 369.026
   vertex 21.0204 58.5741 370.15
  endloop
 endfacet
 facet normal 0.131675 0.378111 -0.916348
  outer loop
   vertex 22.1071 55.4695 368.657
   vertex 22.4235 56.9467 369.312
   vertex 24.189 56.1719 369.246
  endloop
 endfacet
 facet normal 0.188813 0.546411 -0.815956
  outer loop
   vertex 21.1901 56.837 369.026
   vertex 20.3409 57.2544 369.109
   vertex 21.0204 58.5741 370.15
  endloop
 endfacet
 facet normal 0.171592 0.408293 -0.896578
  outer loop
   vertex 21.1901 56.837 369.026
   vertex 22.4235 56.9467 369.312
   vertex 21.6779 56.0479 368.76
  endloop
 endfacet
 facet normal 0.122706 0.384291 -0.915021
  outer loop
   vertex 19.9848 55.6861 368.381
   vertex 21.1901 56.837 369.026
   vertex 21.6779 56.0479 368.76
  endloop
 endfacet
 facet normal 0.106865 0.398567 -0.910892
  outer loop
   vertex 19.9848 55.6861 368.381
   vertex 20.3409 57.2544 369.109
   vertex 21.1901 56.837 369.026
  endloop
 endfacet
 facet normal 0.135443 0.340743 -0.930349
  outer loop
   vertex 19.9848 55.6861 368.381
   vertex 21.6779 56.0479 368.76
   vertex 20.4844 55.1708 368.265
  endloop
 endfacet
 facet normal 0.0589057 0.409278 -0.910506
  outer loop
   vertex 19.0631 57.4472 369.113
   vertex 20.3409 57.2544 369.109
   vertex 19.9848 55.6861 368.381
  endloop
 endfacet
 facet normal 0.0184015 0.236521 -0.971452
  outer loop
   vertex 20.4844 55.1708 368.265
   vertex 20.1477 54.3508 368.059
   vertex 19.9848 55.6861 368.381
  endloop
 endfacet
 facet normal 0.309342 0.239777 -0.920225
  outer loop
   vertex 19.0631 57.4472 369.113
   vertex 16.9115 54.1976 367.543
   vertex 17.716 56.3796 368.382
  endloop
 endfacet
 facet normal 0.0519364 0.406351 -0.91224
  outer loop
   vertex 19.9848 55.6861 368.381
   vertex 16.9115 54.1976 367.543
   vertex 19.0631 57.4472 369.113
  endloop
 endfacet
 facet normal -0.0124173 0.232989 -0.9724
  outer loop
   vertex 19.6525 53.5816 367.881
   vertex 19.9848 55.6861 368.381
   vertex 20.1477 54.3508 368.059
  endloop
 endfacet
 facet normal 0.195643 0.197337 -0.960615
  outer loop
   vertex 19.1407 53.534 367.767
   vertex 19.9848 55.6861 368.381
   vertex 19.6525 53.5816 367.881
  endloop
 endfacet
 facet normal 0.129998 0.210317 -0.968952
  outer loop
   vertex 18.7713 53.096 367.656
   vertex 18.183 52.7409 367.5
   vertex 19.9848 55.6861 368.381
  endloop
 endfacet
 facet normal 0.1757 0.18192 -0.967489
  outer loop
   vertex 19.9848 55.6861 368.381
   vertex 18.183 52.7409 367.5
   vertex 16.9115 54.1976 367.543
  endloop
 endfacet
 facet normal 0.570654 0.489495 -0.659355
  outer loop
   vertex 6.65777 47.2071 356.509
   vertex 6.14232 47.3837 356.194
   vertex 6.61308 47.3535 356.579
  endloop
 endfacet
 facet normal 0.453961 0.785389 -0.420812
  outer loop
   vertex 6.05356 48.6942 358.585
   vertex 5.47171 47.6294 355.97
   vertex 4.61459 48.4672 356.609
  endloop
 endfacet
 facet normal 0.43269 0.797254 -0.42091
  outer loop
   vertex 6.05356 48.6942 358.585
   vertex 6.14232 47.3837 356.194
   vertex 5.47171 47.6294 355.97
  endloop
 endfacet
 facet normal 0.539174 0.697017 -0.472715
  outer loop
   vertex 6.05356 48.6942 358.585
   vertex 4.61459 48.4672 356.609
   vertex 4.75338 49.0387 357.61
  endloop
 endfacet
 facet normal 0.40234 0.809024 -0.428488
  outer loop
   vertex 6.14232 47.3837 356.194
   vertex 6.05356 48.6942 358.585
   vertex 6.61308 47.3535 356.579
  endloop
 endfacet
 facet normal 0.17488 0.270333 -0.946751
  outer loop
   vertex 17.4088 55.8511 368.107
   vertex 16.9115 54.1976 367.543
   vertex 16.2609 55.8092 367.883
  endloop
 endfacet
 facet normal 0.108488 0.246946 -0.962937
  outer loop
   vertex 15.6419 56.0383 367.872
   vertex 16.2609 55.8092 367.883
   vertex 16.9115 54.1976 367.543
  endloop
 endfacet
 facet normal 0.317824 0.374881 -0.870892
  outer loop
   vertex 15.6419 56.0383 367.872
   vertex 16.9115 54.1976 367.543
   vertex 14.6847 55.2492 367.183
  endloop
 endfacet
 facet normal 0.289805 0.302881 -0.907897
  outer loop
   vertex 16.9115 54.1976 367.543
   vertex 15.1853 53.2504 366.676
   vertex 14.6847 55.2492 367.183
  endloop
 endfacet
 facet normal 0.336127 0.212969 -0.917422
  outer loop
   vertex 16.9115 54.1976 367.543
   vertex 16.5306 52.1193 366.921
   vertex 15.383 51.4062 366.335
  endloop
 endfacet
 facet normal 0.32434 0.220489 -0.919885
  outer loop
   vertex 15.383 51.4062 366.335
   vertex 15.5937 52.9946 366.79
   vertex 16.9115 54.1976 367.543
  endloop
 endfacet
 facet normal 0.290929 0.331587 -0.897447
  outer loop
   vertex 14.4345 53.6547 366.49
   vertex 12.3202 55.0876 366.334
   vertex 14.8295 54.5261 366.94
  endloop
 endfacet
 facet normal 0.388454 0.283694 -0.876711
  outer loop
   vertex 12.7341 53.6529 365.736
   vertex 14.4345 53.6547 366.49
   vertex 15.5937 52.9946 366.79
  endloop
 endfacet
 facet normal 0.362468 0.44574 -0.818494
  outer loop
   vertex 14.4345 53.6547 366.49
   vertex 12.7341 53.6529 365.736
   vertex 12.3202 55.0876 366.334
  endloop
 endfacet
 facet normal 0.378845 0.208069 -0.901767
  outer loop
   vertex 14.6702 51.1612 365.979
   vertex 15.5937 52.9946 366.79
   vertex 15.383 51.4062 366.335
  endloop
 endfacet
 facet normal 0.38 0.207346 -0.901448
  outer loop
   vertex 15.5937 52.9946 366.79
   vertex 14.6702 51.1612 365.979
   vertex 13.736 50.9865 365.545
  endloop
 endfacet
 facet normal 0.353411 0.444952 -0.822872
  outer loop
   vertex 11.2802 54.7596 365.71
   vertex 12.3202 55.0876 366.334
   vertex 12.7341 53.6529 365.736
  endloop
 endfacet
 facet normal 0.379997 0.207349 -0.901448
  outer loop
   vertex 12.7341 53.6529 365.736
   vertex 15.5937 52.9946 366.79
   vertex 13.736 50.9865 365.545
  endloop
 endfacet
 facet normal 0.401628 0.214678 -0.890285
  outer loop
   vertex 8.09801 53.7875 363.677
   vertex 12.7341 53.6529 365.736
   vertex 13.736 50.9865 365.545
  endloop
 endfacet
 facet normal 0.0671242 0.855172 -0.513981
  outer loop
   vertex 11.2802 54.7596 365.71
   vertex 8.09801 53.7875 363.677
   vertex 10.5948 54.7563 365.615
  endloop
 endfacet
 facet normal 0.370129 0.467386 -0.802842
  outer loop
   vertex 11.2802 54.7596 365.71
   vertex 12.7341 53.6529 365.736
   vertex 8.09801 53.7875 363.677
  endloop
 endfacet
 facet normal 0.495945 0.441584 -0.747691
  outer loop
   vertex 8.7555 50.26 362.653
   vertex 10.437 49.4314 363.279
   vertex 9.76151 49.1149 362.644
  endloop
 endfacet
 facet normal 0.585745 0.373415 -0.71935
  outer loop
   vertex 8.7555 50.26 362.653
   vertex 7.62097 49.805 361.493
   vertex 8.23762 51.1051 362.67
  endloop
 endfacet
 facet normal 0.546675 0.368811 -0.751748
  outer loop
   vertex 6.50299 54.0635 362.86
   vertex 8.23762 51.1051 362.67
   vertex 4.88217 53.1762 361.246
  endloop
 endfacet
 facet normal 0.488079 0.537047 -0.688011
  outer loop
   vertex 7.62097 49.805 361.493
   vertex 8.7555 50.26 362.653
   vertex 8.82545 48.7539 361.527
  endloop
 endfacet
 facet normal 0.758568 0.0445118 -0.650072
  outer loop
   vertex 9.00542 48.5344 361.722
   vertex 8.82545 48.7539 361.527
   vertex 9.76151 49.1149 362.644
  endloop
 endfacet
 facet normal 0.572354 0.507894 -0.643782
  outer loop
   vertex 9.76151 49.1149 362.644
   vertex 8.82545 48.7539 361.527
   vertex 8.7555 50.26 362.653
  endloop
 endfacet
 facet normal 0.517848 0.425999 -0.741861
  outer loop
   vertex 8.23762 51.1051 362.67
   vertex 7.62097 49.805 361.493
   vertex 3.37584 51.9405 359.756
  endloop
 endfacet
 facet normal 0.512271 0.423395 -0.747205
  outer loop
   vertex 4.88217 53.1762 361.246
   vertex 3.58256 54.1327 360.897
   vertex 6.50299 54.0635 362.86
  endloop
 endfacet
 facet normal 0.513183 0.567234 -0.644118
  outer loop
   vertex 8.82545 48.7539 361.527
   vertex 7.38076 49.2206 360.787
   vertex 7.62097 49.805 361.493
  endloop
 endfacet
 facet normal 0.527365 0.310674 -0.790802
  outer loop
   vertex 4.88217 53.1762 361.246
   vertex 8.23762 51.1051 362.67
   vertex 3.37584 51.9405 359.756
  endloop
 endfacet
 facet normal 0.59957 0.295749 -0.743672
  outer loop
   vertex 2.56183 55.0195 360.589
   vertex 2.23776 56.3982 360.876
   vertex 3.3749 55.7198 361.523
  endloop
 endfacet
 facet normal 0.513198 0.56707 -0.644251
  outer loop
   vertex 8.65269 48.2922 360.983
   vertex 7.38076 49.2206 360.787
   vertex 8.82545 48.7539 361.527
  endloop
 endfacet
 facet normal 0.54403 0.643137 -0.538894
  outer loop
   vertex 3.37584 51.9405 359.756
   vertex 7.62097 49.805 361.493
   vertex 6.05356 48.6942 358.585
  endloop
 endfacet
 facet normal 0.671257 0.29898 -0.678251
  outer loop
   vertex 2.23776 56.3982 360.876
   vertex 2.56183 55.0195 360.589
   vertex 1.07069 55.8992 359.501
  endloop
 endfacet
 facet normal 0.455936 0.458487 -0.762832
  outer loop
   vertex 1.83669 52.7309 359.011
   vertex 2.87511 54.1474 360.483
   vertex 3.58256 54.1327 360.897
  endloop
 endfacet
 facet normal 0.502299 0.403419 -0.764819
  outer loop
   vertex 1.83669 52.7309 359.011
   vertex 3.58256 54.1327 360.897
   vertex 4.88217 53.1762 361.246
  endloop
 endfacet
 facet normal 0.611902 0.308329 -0.728361
  outer loop
   vertex 1.83669 52.7309 359.011
   vertex 2.56183 55.0195 360.589
   vertex 2.87511 54.1474 360.483
  endloop
 endfacet
 facet normal 0.637045 0.143057 -0.757435
  outer loop
   vertex 2.56183 55.0195 360.589
   vertex 1.6 55.0193 359.78
   vertex 1.07069 55.8992 359.501
  endloop
 endfacet
 facet normal 0.61235 0.308018 -0.728116
  outer loop
   vertex 1.6 55.0193 359.78
   vertex 2.56183 55.0195 360.589
   vertex 1.83669 52.7309 359.011
  endloop
 endfacet
 facet normal 0.535779 0.299016 -0.789639
  outer loop
   vertex 1.83669 52.7309 359.011
   vertex 4.88217 53.1762 361.246
   vertex 3.37584 51.9405 359.756
  endloop
 endfacet
 facet normal 0.558375 0.658436 -0.504658
  outer loop
   vertex 8.25053 47.9419 360.081
   vertex 7.38076 49.2206 360.787
   vertex 8.65269 48.2922 360.983
  endloop
 endfacet
 facet normal 0.564395 0.658651 -0.497631
  outer loop
   vertex 8.25053 47.9419 360.081
   vertex 6.05356 48.6942 358.585
   vertex 7.38076 49.2206 360.787
  endloop
 endfacet
 facet normal 0.311111 0.538981 -0.782758
  outer loop
   vertex 2.95249 50.8139 358.812
   vertex 3.37584 51.9405 359.756
   vertex 6.05356 48.6942 358.585
  endloop
 endfacet
 facet normal 0.464625 0.459616 -0.756887
  outer loop
   vertex 2.6521 52.1369 359.431
   vertex 3.37584 51.9405 359.756
   vertex 2.95249 50.8139 358.812
  endloop
 endfacet
 facet normal 0.55247 0.452848 -0.69979
  outer loop
   vertex 2.95249 50.8139 358.812
   vertex 2.07185 52.0057 358.888
   vertex 2.6521 52.1369 359.431
  endloop
 endfacet
 facet normal 0.607665 0.320294 -0.726743
  outer loop
   vertex 2.07185 52.0057 358.888
   vertex 1.83669 52.7309 359.011
   vertex 2.6521 52.1369 359.431
  endloop
 endfacet
 facet normal 0.457281 0.724263 -0.516079
  outer loop
   vertex 2.95249 50.8139 358.812
   vertex 6.05356 48.6942 358.585
   vertex 3.98541 49.3537 357.678
  endloop
 endfacet
 facet normal 0.112624 0.657935 -0.744606
  outer loop
   vertex 3.98541 49.3537 357.678
   vertex 2.9163 49.9294 358.025
   vertex 2.95249 50.8139 358.812
  endloop
 endfacet
 facet normal 0.986923 -0.0127859 -0.160684
  outer loop
   vertex -0.826476 62.6775 353.066
   vertex -0.717108 61.6188 353.822
   vertex -0.922554 61.583 352.563
  endloop
 endfacet
 facet normal 0.994173 0.0284632 -0.103967
  outer loop
   vertex -0.717108 61.6188 353.822
   vertex -0.826476 62.6775 353.066
   vertex -0.708402 62.6955 354.2
  endloop
 endfacet
 facet normal 0.992833 0.0583411 -0.104301
  outer loop
   vertex -0.708402 62.6955 354.2
   vertex -0.826476 62.6775 353.066
   vertex -0.815071 63.6866 353.739
  endloop
 endfacet
 facet normal 0.99614 0.0827734 -0.0292324
  outer loop
   vertex -0.864546 64.3989 354.07
   vertex -0.813099 63.9182 354.462
   vertex -0.815071 63.6866 353.739
  endloop
 endfacet
 facet normal 0.929969 0.361831 -0.065079
  outer loop
   vertex -0.864546 64.3989 354.07
   vertex -1.0058 64.7141 353.804
   vertex -0.963457 64.6792 354.215
  endloop
 endfacet
 facet normal 0.899569 0.433188 -0.0558873
  outer loop
   vertex -1.0058 64.7141 353.804
   vertex -1.14546 65.0329 354.027
   vertex -0.963457 64.6792 354.215
  endloop
 endfacet
 facet normal 0.995226 0.0921239 -0.0322252
  outer loop
   vertex -0.815071 63.6866 353.739
   vertex -0.813099 63.9182 354.462
   vertex -0.708402 62.6955 354.2
  endloop
 endfacet
 facet normal 0.953326 0.245441 0.175863
  outer loop
   vertex -0.813099 63.9182 354.462
   vertex -0.864546 64.3989 354.07
   vertex -0.963457 64.6792 354.215
  endloop
 endfacet
 facet normal 0.995917 0.0887785 -0.0163366
  outer loop
   vertex -0.778019 63.5946 354.842
   vertex -0.708402 62.6955 354.2
   vertex -0.813099 63.9182 354.462
  endloop
 endfacet
 facet normal 0.995583 0.0561904 -0.0752088
  outer loop
   vertex -0.767555 61.8005 354.627
   vertex -0.678214 59.9525 354.429
   vertex -0.792962 60.8158 353.555
  endloop
 endfacet
 facet normal 0.985296 -0.0202742 -0.16965
  outer loop
   vertex -0.591068 62.4533 355.574
   vertex -0.767555 61.8005 354.627
   vertex -0.767937 62.4515 354.547
  endloop
 endfacet
 facet normal 0.984121 0.052444 -0.169575
  outer loop
   vertex -0.767937 62.4515 354.547
   vertex -0.778019 63.5946 354.842
   vertex -0.591068 62.4533 355.574
  endloop
 endfacet
 facet normal 0.986545 0.163464 0.00290396
  outer loop
   vertex -0.591068 62.4533 355.574
   vertex -0.778019 63.5946 354.842
   vertex -0.754333 63.4468 355.115
  endloop
 endfacet
 facet normal 0.992559 0.0593767 -0.106307
  outer loop
   vertex -0.767555 61.8005 354.627
   vertex -0.607525 61.6659 356.046
   vertex -0.678214 59.9525 354.429
  endloop
 endfacet
 facet normal 0.988399 -0.0927493 -0.120268
  outer loop
   vertex -0.607525 61.6659 356.046
   vertex -0.767555 61.8005 354.627
   vertex -0.591068 62.4533 355.574
  endloop
 endfacet
 facet normal 0.998499 0.0440216 -0.0325812
  outer loop
   vertex -0.600957 58.6176 354.993
   vertex -0.678214 59.9525 354.429
   vertex -0.668968 61.3666 356.623
  endloop
 endfacet
 facet normal 0.993897 -0.094585 0.0567744
  outer loop
   vertex -0.607525 61.6659 356.046
   vertex -0.668968 61.3666 356.623
   vertex -0.678214 59.9525 354.429
  endloop
 endfacet
 facet normal 0.998013 -0.00638298 -0.0626866
  outer loop
   vertex -0.574608 57.1493 355.562
   vertex -0.600957 58.6176 354.993
   vertex -0.51279 57.9959 356.46
  endloop
 endfacet
 facet normal 0.971526 0.13534 -0.194477
  outer loop
   vertex -0.574608 57.1493 355.562
   vertex -0.51279 57.9959 356.46
   vertex -0.147106 56.6239 357.332
  endloop
 endfacet
 facet normal 0.998457 0.0267568 -0.0486688
  outer loop
   vertex -0.600957 58.6176 354.993
   vertex -0.537626 60.1632 357.142
   vertex -0.51279 57.9959 356.46
  endloop
 endfacet
 facet normal 0.993951 0.0731564 -0.0819077
  outer loop
   vertex -0.600957 58.6176 354.993
   vertex -0.668968 61.3666 356.623
   vertex -0.537626 60.1632 357.142
  endloop
 endfacet
 facet normal 0.9737 0.151204 -0.170428
  outer loop
   vertex -0.392362 58.1841 357.315
   vertex -0.147106 56.6239 357.332
   vertex -0.51279 57.9959 356.46
  endloop
 endfacet
 facet normal 0.993216 0.06444 -0.0967919
  outer loop
   vertex -0.392362 58.1841 357.315
   vertex -0.537626 60.1632 357.142
   vertex -0.379966 59.1331 358.074
  endloop
 endfacet
 facet normal 0.986613 0.0591311 -0.15198
  outer loop
   vertex -0.51279 57.9959 356.46
   vertex -0.537626 60.1632 357.142
   vertex -0.392362 58.1841 357.315
  endloop
 endfacet
 facet normal 0.943019 0.213127 0.255521
  outer loop
   vertex -0.668968 61.3666 356.623
   vertex -0.643222 60.3427 357.382
   vertex -0.537626 60.1632 357.142
  endloop
 endfacet
 facet normal 0.817397 0.566637 -0.10385
  outer loop
   vertex 0.827879 57.3598 359.727
   vertex 0.362403 57.9334 359.193
   vertex 0.754645 57.4955 359.891
  endloop
 endfacet
 facet normal 0.797101 0.233637 -0.556815
  outer loop
   vertex 0.721601 55.8468 358.94
   vertex 0.827879 57.3598 359.727
   vertex 1.13425 56.7793 359.922
  endloop
 endfacet
 facet normal 0.836346 0.205589 -0.508192
  outer loop
   vertex 0.721601 55.8468 358.94
   vertex 0.362403 57.9334 359.193
   vertex 0.827879 57.3598 359.727
  endloop
 endfacet
 facet normal 0.861996 0.506006 -0.0303444
  outer loop
   vertex 0.362403 57.9334 359.193
   vertex -0.192101 58.8304 358.399
   vertex 0.228268 58.164 359.228
  endloop
 endfacet
 facet normal 0.835465 0.549253 0.0178734
  outer loop
   vertex 0.228268 58.164 359.228
   vertex -0.192101 58.8304 358.399
   vertex 0.0896861 58.3788 359.105
  endloop
 endfacet
 facet normal 0.896343 0.202144 -0.394597
  outer loop
   vertex 0.362403 57.9334 359.193
   vertex 0.721601 55.8468 358.94
   vertex -0.238579 57.3442 357.526
  endloop
 endfacet
 facet normal 0.900462 0.227166 -0.370896
  outer loop
   vertex 0.440941 55.6858 358.16
   vertex -0.238579 57.3442 357.526
   vertex 0.721601 55.8468 358.94
  endloop
 endfacet
 facet normal 0.905458 0.269453 -0.327933
  outer loop
   vertex 0.362403 57.9334 359.193
   vertex -0.392362 58.1841 357.315
   vertex -0.192101 58.8304 358.399
  endloop
 endfacet
 facet normal 0.928575 0.078912 -0.36266
  outer loop
   vertex -0.392362 58.1841 357.315
   vertex 0.362403 57.9334 359.193
   vertex -0.238579 57.3442 357.526
  endloop
 endfacet
 facet normal 0.777523 0.290958 -0.557495
  outer loop
   vertex 1.6 55.0193 359.78
   vertex 0.999559 55.1485 359.01
   vertex 1.07069 55.8992 359.501
  endloop
 endfacet
 facet normal 0.743745 0.435832 -0.506846
  outer loop
   vertex 1.6 55.0193 359.78
   vertex 0.790585 53.9142 357.642
   vertex 0.999559 55.1485 359.01
  endloop
 endfacet
 facet normal 0.860246 0.240128 -0.449795
  outer loop
   vertex 0.790585 53.9142 357.642
   vertex 1.6 55.0193 359.78
   vertex 1.83669 52.7309 359.011
  endloop
 endfacet
 facet normal 0.848767 0.171807 -0.500077
  outer loop
   vertex 0.790585 53.9142 357.642
   vertex 1.83669 52.7309 359.011
   vertex 1.06183 53.3222 357.899
  endloop
 endfacet
endsolid
