solid ascii
 facet normal 0.66604 0.407851 0.624538
  outer loop
   vertex 12.1869 57.9149 462.376
   vertex 11.9993 58.9027 461.931
   vertex 11.6321 58.7168 462.444
  endloop
 endfacet
 facet normal 0.760248 0.202077 0.617404
  outer loop
   vertex 11.6321 58.7168 462.444
   vertex 11.9993 58.9027 461.931
   vertex 11.7332 58.9964 462.228
  endloop
 endfacet
 facet normal 0.624935 0.416228 0.660462
  outer loop
   vertex 12.1869 57.9149 462.376
   vertex 12.5828 57.8965 462.013
   vertex 11.9993 58.9027 461.931
  endloop
 endfacet
 facet normal 0.67444 0.567493 0.472317
  outer loop
   vertex 12.2841 59.146 461.232
   vertex 12.0344 59.2405 461.475
   vertex 11.9993 58.9027 461.931
  endloop
 endfacet
 facet normal 0.747145 0.471455 0.468512
  outer loop
   vertex 12.5828 57.8965 462.013
   vertex 12.2841 59.146 461.232
   vertex 11.9993 58.9027 461.931
  endloop
 endfacet
 facet normal 0.664421 0.50385 0.551978
  outer loop
   vertex 12.2841 59.146 461.232
   vertex 12.5828 57.8965 462.013
   vertex 12.9557 59.0557 460.506
  endloop
 endfacet
 facet normal 0.65568 0.52663 0.541059
  outer loop
   vertex 12.9557 59.0557 460.506
   vertex 12.4899 59.2699 460.862
   vertex 12.2841 59.146 461.232
  endloop
 endfacet
 facet normal 0.657433 0.509829 0.554848
  outer loop
   vertex 13.9362 57.405 460.861
   vertex 12.9557 59.0557 460.506
   vertex 12.5828 57.8965 462.013
  endloop
 endfacet
 facet normal 0.683197 0.516765 0.515942
  outer loop
   vertex 13.9362 57.405 460.861
   vertex 13.6515 59.1542 459.486
   vertex 12.9557 59.0557 460.506
  endloop
 endfacet
 facet normal 0.64579 0.510051 0.568158
  outer loop
   vertex 14.5336 58.9934 458.756
   vertex 13.9362 57.405 460.861
   vertex 14.9789 56.9247 460.107
  endloop
 endfacet
 facet normal 0.587379 0.55708 0.587068
  outer loop
   vertex 13.9362 57.405 460.861
   vertex 14.5336 58.9934 458.756
   vertex 13.6515 59.1542 459.486
  endloop
 endfacet
 facet normal 0.620986 0.500801 0.602971
  outer loop
   vertex 15.7127 56.7938 459.46
   vertex 16.0176 57.5812 458.492
   vertex 14.9789 56.9247 460.107
  endloop
 endfacet
 facet normal 0.647565 0.509459 0.566666
  outer loop
   vertex 14.9789 56.9247 460.107
   vertex 15.0971 58.6987 458.377
   vertex 14.5336 58.9934 458.756
  endloop
 endfacet
 facet normal 0.682151 0.447125 0.578575
  outer loop
   vertex 16.0176 57.5812 458.492
   vertex 15.7127 56.7938 459.46
   vertex 16.5961 56.2328 458.852
  endloop
 endfacet
 facet normal 0.586777 0.544964 0.598922
  outer loop
   vertex 15.0971 58.6987 458.377
   vertex 14.9789 56.9247 460.107
   vertex 16.0176 57.5812 458.492
  endloop
 endfacet
 facet normal 0.568426 0.473758 0.672641
  outer loop
   vertex 16.992 56.1695 458.562
   vertex 17.4916 56.2885 458.056
   vertex 16.5961 56.2328 458.852
  endloop
 endfacet
 facet normal 0.583427 0.433639 0.68671
  outer loop
   vertex 17.4916 56.2885 458.056
   vertex 16.0176 57.5812 458.492
   vertex 16.5961 56.2328 458.852
  endloop
 endfacet
 facet normal 0.628395 0.522003 0.576743
  outer loop
   vertex 16.0176 57.5812 458.492
   vertex 17.4916 56.2885 458.056
   vertex 16.4985 58.7579 456.903
  endloop
 endfacet
 facet normal 0.556553 0.524619 0.644224
  outer loop
   vertex 18.1536 58.3983 455.766
   vertex 16.4985 58.7579 456.903
   vertex 17.4916 56.2885 458.056
  endloop
 endfacet
 facet normal 0.649695 0.172563 0.74035
  outer loop
   vertex 17.4916 56.2885 458.056
   vertex 18.0224 55.7659 457.712
   vertex 18.9287 55.9061 456.884
  endloop
 endfacet
 facet normal 0.441427 0.809817 0.386444
  outer loop
   vertex 16.4985 58.7579 456.903
   vertex 18.1536 58.3983 455.766
   vertex 16.97 58.6913 456.504
  endloop
 endfacet
 facet normal 0.629093 0.472538 0.617212
  outer loop
   vertex 18.1536 58.3983 455.766
   vertex 17.4916 56.2885 458.056
   vertex 18.9287 55.9061 456.884
  endloop
 endfacet
 facet normal 0.607193 0.216929 0.764368
  outer loop
   vertex 18.9287 55.9061 456.884
   vertex 19.5162 55.4386 456.55
   vertex 20.0676 55.5371 456.084
  endloop
 endfacet
 facet normal 0.517204 0.479027 0.709248
  outer loop
   vertex 18.9287 55.9061 456.884
   vertex 18.9819 57.692 455.639
   vertex 18.1536 58.3983 455.766
  endloop
 endfacet
 facet normal 0.607053 0.442201 0.660261
  outer loop
   vertex 18.9819 57.692 455.639
   vertex 18.9287 55.9061 456.884
   vertex 20.0676 55.5371 456.084
  endloop
 endfacet
 facet normal 0.559182 0.543164 0.626329
  outer loop
   vertex 18.9819 57.692 455.639
   vertex 18.8342 58.5486 455.028
   vertex 18.1536 58.3983 455.766
  endloop
 endfacet
 facet normal 0.574021 0.432761 0.695139
  outer loop
   vertex 18.9819 57.692 455.639
   vertex 20.0676 55.5371 456.084
   vertex 20.1039 57.4599 454.857
  endloop
 endfacet
 facet normal 0.567167 0.435415 0.699096
  outer loop
   vertex 20.1039 57.4599 454.857
   vertex 20.0676 55.5371 456.084
   vertex 20.9283 56.2929 454.915
  endloop
 endfacet
 facet normal 0.642729 0.334257 0.689327
  outer loop
   vertex 20.9594 55.1525 455.439
   vertex 20.9283 56.2929 454.915
   vertex 20.0676 55.5371 456.084
  endloop
 endfacet
 facet normal 0.463924 0.56605 0.681442
  outer loop
   vertex 18.9819 57.692 455.639
   vertex 19.4929 58.2086 454.862
   vertex 18.8342 58.5486 455.028
  endloop
 endfacet
 facet normal 0.597672 0.348138 0.722211
  outer loop
   vertex 21.8707 55.3119 454.608
   vertex 20.9283 56.2929 454.915
   vertex 20.9594 55.1525 455.439
  endloop
 endfacet
 facet normal 0.569725 0.460391 0.680774
  outer loop
   vertex 20.1039 57.4599 454.857
   vertex 19.4929 58.2086 454.862
   vertex 18.9819 57.692 455.639
  endloop
 endfacet
 facet normal 0.644185 0.185532 0.742027
  outer loop
   vertex 21.8172 54.9057 454.756
   vertex 21.8707 55.3119 454.608
   vertex 20.9594 55.1525 455.439
  endloop
 endfacet
 facet normal 0.617357 0.467568 0.632654
  outer loop
   vertex 20.1039 57.4599 454.857
   vertex 20.9283 56.2929 454.915
   vertex 21.1182 57.1896 454.067
  endloop
 endfacet
 facet normal 0.678359 0.550343 0.486777
  outer loop
   vertex 20.1039 57.4599 454.857
   vertex 19.7467 58.4645 454.219
   vertex 19.4929 58.2086 454.862
  endloop
 endfacet
 facet normal 0.606687 0.520495 0.600846
  outer loop
   vertex 20.5713 57.9702 453.943
   vertex 20.1039 57.4599 454.857
   vertex 21.1182 57.1896 454.067
  endloop
 endfacet
 facet normal 0.910146 0.104592 0.400867
  outer loop
   vertex 19.4929 58.2086 454.862
   vertex 19.7467 58.4645 454.219
   vertex 19.6236 58.4587 454.5
  endloop
 endfacet
 facet normal 0.548753 0.578428 0.603565
  outer loop
   vertex 20.5713 57.9702 453.943
   vertex 19.7467 58.4645 454.219
   vertex 20.1039 57.4599 454.857
  endloop
 endfacet
 facet normal 0.633776 0.402029 0.660834
  outer loop
   vertex 22.1993 56.0908 453.819
   vertex 20.9283 56.2929 454.915
   vertex 21.8707 55.3119 454.608
  endloop
 endfacet
 facet normal 0.634214 0.40165 0.660643
  outer loop
   vertex 22.1993 56.0908 453.819
   vertex 21.8707 55.3119 454.608
   vertex 23.1404 55.0818 453.529
  endloop
 endfacet
 facet normal 0.619024 0.466452 0.631848
  outer loop
   vertex 20.9283 56.2929 454.915
   vertex 22.1993 56.0908 453.819
   vertex 21.1182 57.1896 454.067
  endloop
 endfacet
 facet normal 0.63639 0.188709 0.747929
  outer loop
   vertex 21.8707 55.3119 454.608
   vertex 21.8172 54.9057 454.756
   vertex 22.7721 54.7769 453.976
  endloop
 endfacet
 facet normal 0.65243 0.257112 0.712902
  outer loop
   vertex 21.8707 55.3119 454.608
   vertex 22.7721 54.7769 453.976
   vertex 23.1404 55.0818 453.529
  endloop
 endfacet
 facet normal 0.643585 0.503029 0.576853
  outer loop
   vertex 22.1993 56.0908 453.819
   vertex 22.0236 57.2479 453.006
   vertex 21.1182 57.1896 454.067
  endloop
 endfacet
 facet normal 0.651368 0.473307 0.593043
  outer loop
   vertex 23.5558 55.7125 452.631
   vertex 22.7944 56.4471 452.881
   vertex 22.1993 56.0908 453.819
  endloop
 endfacet
 facet normal 0.625512 0.509901 0.590539
  outer loop
   vertex 22.0236 57.2479 453.006
   vertex 22.1993 56.0908 453.819
   vertex 22.7944 56.4471 452.881
  endloop
 endfacet
 facet normal 0.68515 0.227664 0.691909
  outer loop
   vertex 23.6173 54.5735 453.224
   vertex 24.1733 54.8088 452.596
   vertex 23.1404 55.0818 453.529
  endloop
 endfacet
 facet normal 0.658295 0.438039 0.612183
  outer loop
   vertex 22.1993 56.0908 453.819
   vertex 23.1404 55.0818 453.529
   vertex 23.5558 55.7125 452.631
  endloop
 endfacet
 facet normal 0.66497 0.430741 0.610145
  outer loop
   vertex 23.5558 55.7125 452.631
   vertex 23.1404 55.0818 453.529
   vertex 24.1733 54.8088 452.596
  endloop
 endfacet
 facet normal 0.687312 0.221864 0.691649
  outer loop
   vertex 24.6289 54.3794 452.281
   vertex 24.1733 54.8088 452.596
   vertex 23.6173 54.5735 453.224
  endloop
 endfacet
 facet normal 0.670802 0.435096 0.600597
  outer loop
   vertex 24.1733 54.8088 452.596
   vertex 24.5354 55.2886 451.844
   vertex 23.5558 55.7125 452.631
  endloop
 endfacet
 facet normal 0.6767 0.526099 0.515069
  outer loop
   vertex 23.5558 55.7125 452.631
   vertex 24.1896 56.4706 451.024
   vertex 22.7944 56.4471 452.881
  endloop
 endfacet
 facet normal 0.698711 0.249477 0.670495
  outer loop
   vertex 24.1733 54.8088 452.596
   vertex 24.6289 54.3794 452.281
   vertex 25.145 54.611 451.657
  endloop
 endfacet
 facet normal 0.656538 0.564404 0.500405
  outer loop
   vertex 24.1896 56.4706 451.024
   vertex 22.2717 57.9781 451.84
   vertex 22.7944 56.4471 452.881
  endloop
 endfacet
 facet normal 0.669564 0.436546 0.600926
  outer loop
   vertex 24.5354 55.2886 451.844
   vertex 24.1733 54.8088 452.596
   vertex 25.145 54.611 451.657
  endloop
 endfacet
 facet normal 0.654476 0.550801 0.517956
  outer loop
   vertex 24.5354 55.2886 451.844
   vertex 24.1896 56.4706 451.024
   vertex 23.5558 55.7125 452.631
  endloop
 endfacet
 facet normal 0.643489 0.509408 0.571336
  outer loop
   vertex 24.1896 56.4706 451.024
   vertex 23.1466 57.6008 451.191
   vertex 22.2717 57.9781 451.84
  endloop
 endfacet
 facet normal 0.651173 0.385446 0.653762
  outer loop
   vertex 22.6284 57.8945 451.534
   vertex 22.2717 57.9781 451.84
   vertex 23.1466 57.6008 451.191
  endloop
 endfacet
 facet normal 0.696465 0.47917 0.534165
  outer loop
   vertex 25.145 54.611 451.657
   vertex 25.31 55.292 450.831
   vertex 24.5354 55.2886 451.844
  endloop
 endfacet
 facet normal 0.666234 0.533526 0.521039
  outer loop
   vertex 25.31 55.292 450.831
   vertex 25.8954 54.4731 450.921
   vertex 26.1551 54.6703 450.387
  endloop
 endfacet
 facet normal 0.663798 0.547603 0.509416
  outer loop
   vertex 25.31 55.292 450.831
   vertex 24.1896 56.4706 451.024
   vertex 24.5354 55.2886 451.844
  endloop
 endfacet
 facet normal 0.695522 0.578982 0.425475
  outer loop
   vertex 24.1896 56.4706 451.024
   vertex 23.6872 57.529 450.405
   vertex 23.1466 57.6008 451.191
  endloop
 endfacet
 facet normal 0.676555 0.612095 0.409405
  outer loop
   vertex 23.3295 57.7605 450.65
   vertex 23.1466 57.6008 451.191
   vertex 23.6872 57.529 450.405
  endloop
 endfacet
 facet normal 0.733822 0.249489 0.631871
  outer loop
   vertex 26.6073 54.1343 450.228
   vertex 25.8954 54.4731 450.921
   vertex 25.7692 54.201 451.175
  endloop
 endfacet
 facet normal 0.722732 0.455569 0.519727
  outer loop
   vertex 26.1551 54.6703 450.387
   vertex 25.8954 54.4731 450.921
   vertex 26.6073 54.1343 450.228
  endloop
 endfacet
 facet normal 0.687841 0.580981 0.435127
  outer loop
   vertex 24.1896 56.4706 451.024
   vertex 24.2548 57.3573 449.737
   vertex 23.6872 57.529 450.405
  endloop
 endfacet
 facet normal 0.685299 0.57916 0.44152
  outer loop
   vertex 25.31 55.292 450.831
   vertex 24.7922 57.2304 449.092
   vertex 24.1896 56.4706 451.024
  endloop
 endfacet
 facet normal 0.671863 0.593588 0.443004
  outer loop
   vertex 24.7922 57.2304 449.092
   vertex 24.2548 57.3573 449.737
   vertex 24.1896 56.4706 451.024
  endloop
 endfacet
 facet normal 0.734284 0.475879 0.484113
  outer loop
   vertex 26.8709 54.7001 449.272
   vertex 26.1551 54.6703 450.387
   vertex 26.6073 54.1343 450.228
  endloop
 endfacet
 facet normal 0.673263 0.585246 0.451888
  outer loop
   vertex 24.7922 57.2304 449.092
   vertex 25.31 55.292 450.831
   vertex 26.8709 54.7001 449.272
  endloop
 endfacet
 facet normal 0.670484 0.592696 0.446277
  outer loop
   vertex 25.31 55.292 450.831
   vertex 26.1551 54.6703 450.387
   vertex 26.8709 54.7001 449.272
  endloop
 endfacet
 facet normal 0.729599 0.619923 0.288758
  outer loop
   vertex 26.8709 54.7001 449.272
   vertex 25.6975 56.4188 448.547
   vertex 24.7922 57.2304 449.092
  endloop
 endfacet
 facet normal 0.540154 0.788175 0.294981
  outer loop
   vertex 24.2548 57.3573 449.737
   vertex 24.7922 57.2304 449.092
   vertex 24.4776 57.4112 449.185
  endloop
 endfacet
 facet normal 0.822301 0.430309 0.372363
  outer loop
   vertex 25.0511 57.2237 448.528
   vertex 24.9351 57.2654 448.736
   vertex 24.7922 57.2304 449.092
  endloop
 endfacet
 facet normal 0.732445 0.595975 0.329147
  outer loop
   vertex 25.6975 56.4188 448.547
   vertex 25.0511 57.2237 448.528
   vertex 24.7922 57.2304 449.092
  endloop
 endfacet
 facet normal 0.683459 0.594939 0.423003
  outer loop
   vertex 26.8709 54.7001 449.272
   vertex 27.8713 53.9284 448.741
   vertex 28.1085 54.1138 448.097
  endloop
 endfacet
 facet normal 0.675506 -0.242247 0.696425
  outer loop
   vertex 25.2418 57.1373 448.313
   vertex 25.0511 57.2237 448.528
   vertex 25.6184 56.9254 447.874
  endloop
 endfacet
 facet normal 0.72364 0.589602 0.358768
  outer loop
   vertex 25.6184 56.9254 447.874
   vertex 25.0511 57.2237 448.528
   vertex 25.6975 56.4188 448.547
  endloop
 endfacet
 facet normal 0.654403 0.666813 0.356536
  outer loop
   vertex 28.1085 54.1138 448.097
   vertex 27.4131 55.6555 446.49
   vertex 26.8709 54.7001 449.272
  endloop
 endfacet
 facet normal 0.679156 0.65389 0.333428
  outer loop
   vertex 28.6743 53.751 447.656
   vertex 27.4131 55.6555 446.49
   vertex 28.1085 54.1138 448.097
  endloop
 endfacet
 facet normal 0.703994 0.60471 0.37245
  outer loop
   vertex 25.6975 56.4188 448.547
   vertex 25.8536 56.9115 447.452
   vertex 25.6184 56.9254 447.874
  endloop
 endfacet
 facet normal 0.698044 0.624417 0.350482
  outer loop
   vertex 27.4131 55.6555 446.49
   vertex 25.6975 56.4188 448.547
   vertex 26.8709 54.7001 449.272
  endloop
 endfacet
 facet normal 0.674474 0.655104 0.340474
  outer loop
   vertex 28.2488 54.9037 446.281
   vertex 27.4131 55.6555 446.49
   vertex 28.6743 53.751 447.656
  endloop
 endfacet
 facet normal 0.677759 0.653105 0.337782
  outer loop
   vertex 29.6613 53.3872 446.379
   vertex 28.2488 54.9037 446.281
   vertex 28.6743 53.751 447.656
  endloop
 endfacet
 facet normal 0.698124 0.624256 0.350609
  outer loop
   vertex 27.4131 55.6555 446.49
   vertex 26.6582 56.6581 446.208
   vertex 25.6975 56.4188 448.547
  endloop
 endfacet
 facet normal 0.714333 0.603022 0.355095
  outer loop
   vertex 26.3805 56.7368 446.633
   vertex 25.6975 56.4188 448.547
   vertex 26.6582 56.6581 446.208
  endloop
 endfacet
 facet normal 0.658619 0.617033 0.430688
  outer loop
   vertex 26.6582 56.6581 446.208
   vertex 27.4131 55.6555 446.49
   vertex 27.8598 56.292 444.895
  endloop
 endfacet
 facet normal 0.660789 0.614883 0.430438
  outer loop
   vertex 28.2488 54.9037 446.281
   vertex 27.8598 56.292 444.895
   vertex 27.4131 55.6555 446.49
  endloop
 endfacet
 facet normal 0.670918 0.64818 0.360182
  outer loop
   vertex 29.6613 53.3872 446.379
   vertex 29.0398 54.7879 445.016
   vertex 28.2488 54.9037 446.281
  endloop
 endfacet
 facet normal 0.709122 0.587665 0.38961
  outer loop
   vertex 29.0398 54.7879 445.016
   vertex 27.8598 56.292 444.895
   vertex 28.2488 54.9037 446.281
  endloop
 endfacet
 facet normal 0.614812 0.675576 0.406943
  outer loop
   vertex 29.6613 53.3872 446.379
   vertex 30.099 53.4286 445.649
   vertex 30.487 54.7061 442.942
  endloop
 endfacet
 facet normal 0.671072 0.628725 0.392896
  outer loop
   vertex 30.487 54.7061 442.942
   vertex 30.099 53.4286 445.649
   vertex 30.7587 53.36 444.632
  endloop
 endfacet
 facet normal 0.620385 0.670769 0.406437
  outer loop
   vertex 29.6613 53.3872 446.379
   vertex 30.487 54.7061 442.942
   vertex 29.0398 54.7879 445.016
  endloop
 endfacet
 facet normal 0.690956 0.505716 0.516558
  outer loop
   vertex 28.6297 55.427 444.712
   vertex 28.1865 56.3114 444.439
   vertex 27.8598 56.292 444.895
  endloop
 endfacet
 facet normal 0.746899 0.607675 0.26995
  outer loop
   vertex 29.0398 54.7879 445.016
   vertex 28.6297 55.427 444.712
   vertex 27.8598 56.292 444.895
  endloop
 endfacet
 facet normal 0.652468 0.623534 0.430687
  outer loop
   vertex 29.0398 54.7879 445.016
   vertex 30.487 54.7061 442.942
   vertex 28.6297 55.427 444.712
  endloop
 endfacet
 facet normal 0.71785 0.507014 0.477105
  outer loop
   vertex 28.6297 55.427 444.712
   vertex 28.8251 56.1064 443.696
   vertex 28.1865 56.3114 444.439
  endloop
 endfacet
 facet normal 0.700591 0.608768 0.372255
  outer loop
   vertex 31.3956 53.0465 443.946
   vertex 30.487 54.7061 442.942
   vertex 30.7587 53.36 444.632
  endloop
 endfacet
 facet normal 0.678647 0.548129 0.488868
  outer loop
   vertex 30.487 54.7061 442.942
   vertex 29.8916 56.0212 442.294
   vertex 28.6297 55.427 444.712
  endloop
 endfacet
 facet normal 0.705585 0.51884 0.482654
  outer loop
   vertex 28.8251 56.1064 443.696
   vertex 28.6297 55.427 444.712
   vertex 29.473 56.1444 442.708
  endloop
 endfacet
 facet normal 0.826498 0.132645 0.54709
  outer loop
   vertex 29.1724 56.1903 443.151
   vertex 28.8251 56.1064 443.696
   vertex 29.473 56.1444 442.708
  endloop
 endfacet
 facet normal 0.650526 0.585751 0.483438
  outer loop
   vertex 29.8916 56.0212 442.294
   vertex 29.473 56.1444 442.708
   vertex 28.6297 55.427 444.712
  endloop
 endfacet
 facet normal 0.6657 0.617727 0.418637
  outer loop
   vertex 32.1969 53.9762 441.3
   vertex 30.487 54.7061 442.942
   vertex 31.3956 53.0465 443.946
  endloop
 endfacet
 facet normal 0.717996 0.181195 0.672049
  outer loop
   vertex 29.8916 56.0212 442.294
   vertex 29.6928 56.1228 442.479
   vertex 29.473 56.1444 442.708
  endloop
 endfacet
 facet normal 0.691478 0.539737 0.480148
  outer loop
   vertex 32.1969 53.9762 441.3
   vertex 30.2938 55.9704 441.799
   vertex 30.487 54.7061 442.942
  endloop
 endfacet
 facet normal 0.697189 0.550395 0.45934
  outer loop
   vertex 30.8961 55.9277 440.936
   vertex 30.2938 55.9704 441.799
   vertex 32.1969 53.9762 441.3
  endloop
 endfacet
 facet normal 0.713782 0.582043 0.389539
  outer loop
   vertex 32.7796 52.8065 441.98
   vertex 32.1969 53.9762 441.3
   vertex 31.9623 53.2078 442.878
  endloop
 endfacet
 facet normal 0.631523 0.600063 0.491022
  outer loop
   vertex 32.1969 53.9762 441.3
   vertex 32.7796 52.8065 441.98
   vertex 33.2196 52.8606 441.348
  endloop
 endfacet
 facet normal 0.673608 0.63387 0.38008
  outer loop
   vertex 33.6338 52.7736 440.759
   vertex 32.1969 53.9762 441.3
   vertex 33.2196 52.8606 441.348
  endloop
 endfacet
 facet normal 0.691577 0.548612 0.469837
  outer loop
   vertex 32.1969 53.9762 441.3
   vertex 31.9083 55.5424 439.896
   vertex 30.8961 55.9277 440.936
  endloop
 endfacet
 facet normal 0.667599 0.598387 0.442996
  outer loop
   vertex 33.985 52.8208 440.166
   vertex 32.1969 53.9762 441.3
   vertex 33.6338 52.7736 440.759
  endloop
 endfacet
 facet normal 0.668907 0.584725 0.458977
  outer loop
   vertex 33.985 52.8208 440.166
   vertex 32.794 54.4988 439.764
   vertex 32.1969 53.9762 441.3
  endloop
 endfacet
 facet normal 0.652773 0.645761 0.39608
  outer loop
   vertex 31.9083 55.5424 439.896
   vertex 31.5552 55.8429 439.988
   vertex 30.8961 55.9277 440.936
  endloop
 endfacet
 facet normal 0.705433 0.540745 0.458213
  outer loop
   vertex 32.794 54.4988 439.764
   vertex 31.9083 55.5424 439.896
   vertex 32.1969 53.9762 441.3
  endloop
 endfacet
 facet normal 0.66011 0.674311 0.330998
  outer loop
   vertex 31.5552 55.8429 439.988
   vertex 31.9083 55.5424 439.896
   vertex 31.8171 55.8349 439.482
  endloop
 endfacet
 facet normal 0.68874 0.520728 0.504459
  outer loop
   vertex 32.794 54.4988 439.764
   vertex 32.4795 55.5687 439.089
   vertex 31.9083 55.5424 439.896
  endloop
 endfacet
 facet normal 0.683694 0.53043 0.501204
  outer loop
   vertex 32.4795 55.5687 439.089
   vertex 32.064 55.8274 439.382
   vertex 31.9083 55.5424 439.896
  endloop
 endfacet
 facet normal 0.82846 0.281188 0.484343
  outer loop
   vertex 35.133 52.6241 438.423
   vertex 35.7972 52.9271 437.111
   vertex 35.3953 52.9261 437.799
  endloop
 endfacet
 facet normal 0.755941 0.440362 0.484391
  outer loop
   vertex 36.2271 52.562 436.772
   vertex 35.7972 52.9271 437.111
   vertex 35.133 52.6241 438.423
  endloop
 endfacet
 facet normal 0.757065 0.485365 0.437348
  outer loop
   vertex 36.2271 52.562 436.772
   vertex 36.5154 52.7629 436.05
   vertex 35.7972 52.9271 437.111
  endloop
 endfacet
 facet normal 0.723131 0.561217 0.402638
  outer loop
   vertex 36.5154 52.7629 436.05
   vertex 36.4012 53.3276 435.468
   vertex 35.7972 52.9271 437.111
  endloop
 endfacet
 facet normal 0.712346 0.537162 0.451686
  outer loop
   vertex 34.9458 55.6293 435.026
   vertex 32.794 54.4988 439.764
   vertex 36.4012 53.3276 435.468
  endloop
 endfacet
 facet normal 0.676624 0.618523 0.399511
  outer loop
   vertex 35.7972 52.9271 437.111
   vertex 36.4012 53.3276 435.468
   vertex 32.794 54.4988 439.764
  endloop
 endfacet
 facet normal 0.670362 0.524645 0.524749
  outer loop
   vertex 35.9831 54.897 434.433
   vertex 34.9458 55.6293 435.026
   vertex 36.4012 53.3276 435.468
  endloop
 endfacet
 facet normal 0.746655 0.493253 0.446327
  outer loop
   vertex 36.8431 53.2803 434.781
   vertex 35.9831 54.897 434.433
   vertex 36.4012 53.3276 435.468
  endloop
 endfacet
 facet normal 0.683961 0.548008 0.481545
  outer loop
   vertex 35.9831 54.897 434.433
   vertex 35.5623 55.5751 434.259
   vertex 35.2567 55.5233 434.752
  endloop
 endfacet
 facet normal 0.751911 0.417789 0.509983
  outer loop
   vertex 35.2567 55.5233 434.752
   vertex 35.5623 55.5751 434.259
   vertex 35.381 55.6939 434.429
  endloop
 endfacet
 facet normal 0.61491 0.531163 0.582882
  outer loop
   vertex 35.9831 54.897 434.433
   vertex 35.9229 55.5132 433.935
   vertex 35.5623 55.5751 434.259
  endloop
 endfacet
 facet normal 0.731627 0.490984 0.472924
  outer loop
   vertex 38.534 52.6081 432.863
   vertex 35.9831 54.897 434.433
   vertex 36.8431 53.2803 434.781
  endloop
 endfacet
 facet normal 0.728822 0.47205 0.495971
  outer loop
   vertex 38.534 52.6081 432.863
   vertex 35.9229 55.5132 433.935
   vertex 35.9831 54.897 434.433
  endloop
 endfacet
 facet normal 0.733291 0.482204 0.479338
  outer loop
   vertex 37.4301 55.5582 431.584
   vertex 35.9229 55.5132 433.935
   vertex 38.534 52.6081 432.863
  endloop
 endfacet
 facet normal 0.725572 0.498207 0.474695
  outer loop
   vertex 37.4301 55.5582 431.584
   vertex 36.8997 55.577 432.375
   vertex 35.9229 55.5132 433.935
  endloop
 endfacet
 facet normal 0.731629 0.482536 0.481537
  outer loop
   vertex 38.799 52.6873 432.381
   vertex 37.4301 55.5582 431.584
   vertex 38.534 52.6081 432.863
  endloop
 endfacet
 facet normal 0.897017 0.0800734 0.434682
  outer loop
   vertex 39.1158 52.6182 431.74
   vertex 39.582 52.9653 430.714
   vertex 38.799 52.6873 432.381
  endloop
 endfacet
 facet normal 0.760557 0.483078 0.433806
  outer loop
   vertex 38.799 52.6873 432.381
   vertex 37.9847 55.7438 430.405
   vertex 37.4301 55.5582 431.584
  endloop
 endfacet
 facet normal 0.724136 0.500005 0.474997
  outer loop
   vertex 39.3833 54.2702 429.824
   vertex 37.9847 55.7438 430.405
   vertex 38.799 52.6873 432.381
  endloop
 endfacet
 facet normal 0.791447 0.422061 0.442127
  outer loop
   vertex 39.582 52.9653 430.714
   vertex 39.3833 54.2702 429.824
   vertex 38.799 52.6873 432.381
  endloop
 endfacet
 facet normal 0.631775 0.663033 0.401556
  outer loop
   vertex 37.4301 55.5582 431.584
   vertex 37.9847 55.7438 430.405
   vertex 37.6034 55.771 430.96
  endloop
 endfacet
 facet normal 0.726968 0.50767 0.462372
  outer loop
   vertex 38.3404 55.7964 429.788
   vertex 37.9847 55.7438 430.405
   vertex 39.3833 54.2702 429.824
  endloop
 endfacet
 facet normal 0.770302 0.435189 0.466096
  outer loop
   vertex 40.6408 53.8694 428.12
   vertex 39.3833 54.2702 429.824
   vertex 39.582 52.9653 430.714
  endloop
 endfacet
 facet normal 0.716844 0.501276 0.484621
  outer loop
   vertex 39.3833 54.2702 429.824
   vertex 39.1178 55.8738 428.558
   vertex 38.3404 55.7964 429.788
  endloop
 endfacet
 facet normal 0.822679 0.341215 0.454721
  outer loop
   vertex 40.4202 52.8061 429.317
   vertex 40.6408 53.8694 428.12
   vertex 39.582 52.9653 430.714
  endloop
 endfacet
 facet normal 0.496306 0.788473 0.363304
  outer loop
   vertex 38.5826 55.9075 429.216
   vertex 38.3404 55.7964 429.788
   vertex 39.1178 55.8738 428.558
  endloop
 endfacet
 facet normal 0.756854 0.477571 0.446203
  outer loop
   vertex 40.6408 53.8694 428.12
   vertex 39.1178 55.8738 428.558
   vertex 39.3833 54.2702 429.824
  endloop
 endfacet
 facet normal 0.791324 0.377358 0.481049
  outer loop
   vertex 40.4202 52.8061 429.317
   vertex 40.8192 53.0504 428.469
   vertex 40.6408 53.8694 428.12
  endloop
 endfacet
 facet normal 0.536353 0.744181 0.398146
  outer loop
   vertex 38.5826 55.9075 429.216
   vertex 39.1178 55.8738 428.558
   vertex 38.6958 56.0351 428.825
  endloop
 endfacet
 facet normal 0.754815 0.474579 0.452802
  outer loop
   vertex 40.6408 53.8694 428.12
   vertex 39.7299 56.2179 427.177
   vertex 39.1178 55.8738 428.558
  endloop
 endfacet
 facet normal 0.878163 0.0864956 0.470476
  outer loop
   vertex 41.189 52.9239 427.802
   vertex 41.3585 53.1448 427.445
   vertex 40.8192 53.0504 428.469
  endloop
 endfacet
 facet normal 0.707347 0.545576 0.449452
  outer loop
   vertex 39.3526 56.1403 427.865
   vertex 39.1178 55.8738 428.558
   vertex 39.7299 56.2179 427.177
  endloop
 endfacet
 facet normal 0.806926 0.371458 0.459227
  outer loop
   vertex 41.3585 53.1448 427.445
   vertex 40.6408 53.8694 428.12
   vertex 40.8192 53.0504 428.469
  endloop
 endfacet
 facet normal 0.727886 0.47924 0.49042
  outer loop
   vertex 40.6408 53.8694 428.12
   vertex 40.7698 54.8943 426.927
   vertex 39.7299 56.2179 427.177
  endloop
 endfacet
 facet normal 0.806 0.362264 0.468112
  outer loop
   vertex 41.3585 53.1448 427.445
   vertex 41.7925 53.2246 426.636
   vertex 40.6408 53.8694 428.12
  endloop
 endfacet
 facet normal 0.79783 0.411957 0.44018
  outer loop
   vertex 40.7698 54.8943 426.927
   vertex 40.6408 53.8694 428.12
   vertex 41.7925 53.2246 426.636
  endloop
 endfacet
 facet normal 0.752903 0.485164 0.444695
  outer loop
   vertex 41.2234 55.7339 425.243
   vertex 40.3179 56.0777 426.401
   vertex 40.7698 54.8943 426.927
  endloop
 endfacet
 facet normal 0.768914 0.381549 0.513022
  outer loop
   vertex 41.7925 53.2246 426.636
   vertex 41.8727 54.0566 425.897
   vertex 40.7698 54.8943 426.927
  endloop
 endfacet
 facet normal 0.76638 0.468176 0.439855
  outer loop
   vertex 41.8727 54.0566 425.897
   vertex 41.2234 55.7339 425.243
   vertex 40.7698 54.8943 426.927
  endloop
 endfacet
 facet normal 0.723373 0.564084 0.398172
  outer loop
   vertex 40.3179 56.0777 426.401
   vertex 41.2234 55.7339 425.243
   vertex 40.475 56.436 425.608
  endloop
 endfacet
 facet normal 0.72413 0.57021 0.387939
  outer loop
   vertex 41.2234 55.7339 425.243
   vertex 40.7242 56.6121 424.884
   vertex 40.475 56.436 425.608
  endloop
 endfacet
 facet normal 0.812112 0.319777 0.488075
  outer loop
   vertex 42.6236 54.117 424.608
   vertex 41.8727 54.0566 425.897
   vertex 42.8854 53.3865 424.651
  endloop
 endfacet
 facet normal 0.710264 0.57166 0.410767
  outer loop
   vertex 41.2234 55.7339 425.243
   vertex 40.8886 56.6464 424.552
   vertex 40.7242 56.6121 424.884
  endloop
 endfacet
 facet normal 0.752528 0.470842 0.460444
  outer loop
   vertex 41.8727 54.0566 425.897
   vertex 42.6236 54.117 424.608
   vertex 41.2234 55.7339 425.243
  endloop
 endfacet
 facet normal 0.664278 0.590645 0.458119
  outer loop
   vertex 41.1888 56.6198 424.151
   vertex 40.8886 56.6464 424.552
   vertex 41.2234 55.7339 425.243
  endloop
 endfacet
 facet normal 0.766375 0.510539 0.389897
  outer loop
   vertex 42.6236 54.117 424.608
   vertex 41.1888 56.6198 424.151
   vertex 41.2234 55.7339 425.243
  endloop
 endfacet
 facet normal 0.734493 0.504037 0.454385
  outer loop
   vertex 42.6236 54.117 424.608
   vertex 42.8176 54.5609 423.802
   vertex 41.1888 56.6198 424.151
  endloop
 endfacet
 facet normal 0.803076 0.317491 0.504251
  outer loop
   vertex 43.4012 53.6526 423.662
   vertex 42.6236 54.117 424.608
   vertex 42.8854 53.3865 424.651
  endloop
 endfacet
 facet normal 0.787684 0.439557 0.431676
  outer loop
   vertex 42.8176 54.5609 423.802
   vertex 42.6236 54.117 424.608
   vertex 43.4012 53.6526 423.662
  endloop
 endfacet
 facet normal 0.789103 0.441116 0.427473
  outer loop
   vertex 43.4012 53.6526 423.662
   vertex 43.2859 54.6564 422.839
   vertex 42.8176 54.5609 423.802
  endloop
 endfacet
 facet normal 0.755213 0.53271 0.381934
  outer loop
   vertex 42.8176 54.5609 423.802
   vertex 41.7937 56.8592 422.621
   vertex 41.1888 56.6198 424.151
  endloop
 endfacet
 facet normal 0.735353 0.53881 0.411023
  outer loop
   vertex 43.2859 54.6564 422.839
   vertex 41.7937 56.8592 422.621
   vertex 42.8176 54.5609 423.802
  endloop
 endfacet
 facet normal 0.749669 0.54499 0.375475
  outer loop
   vertex 43.2859 54.6564 422.839
   vertex 42.2555 56.8895 421.655
   vertex 41.7937 56.8592 422.621
  endloop
 endfacet
 facet normal 0.726575 0.552102 0.408988
  outer loop
   vertex 43.2859 54.6564 422.839
   vertex 42.5698 57.0611 420.865
   vertex 42.2555 56.8895 421.655
  endloop
 endfacet
 facet normal 0.724671 0.584951 0.364259
  outer loop
   vertex 45.107 54.1408 420.044
   vertex 43.2859 54.6564 422.839
   vertex 44.4965 54.1673 421.216
  endloop
 endfacet
 facet normal 0.747138 0.540288 0.387136
  outer loop
   vertex 45.107 54.1408 420.044
   vertex 42.5698 57.0611 420.865
   vertex 43.2859 54.6564 422.839
  endloop
 endfacet
 facet normal 0.748054 0.585381 0.31264
  outer loop
   vertex 45.0767 54.3991 419.851
   vertex 44.4201 55.5976 419.178
   vertex 42.5698 57.0611 420.865
  endloop
 endfacet
 facet normal 0.711721 0.472124 0.520147
  outer loop
   vertex 45.107 54.1408 420.044
   vertex 45.0767 54.3991 419.851
   vertex 42.5698 57.0611 420.865
  endloop
 endfacet
 facet normal 0.800553 0.416114 0.431236
  outer loop
   vertex 45.107 54.1408 420.044
   vertex 45.3836 54.2626 419.413
   vertex 45.0767 54.3991 419.851
  endloop
 endfacet
 facet normal 0.761892 0.553166 0.336939
  outer loop
   vertex 44.7615 55.66 418.456
   vertex 43.2147 57.7472 418.527
   vertex 43.2068 57.4578 419.02
  endloop
 endfacet
 facet normal 0.765535 0.556334 0.323186
  outer loop
   vertex 44.7615 55.66 418.456
   vertex 43.5642 57.7496 417.695
   vertex 43.2147 57.7472 418.527
  endloop
 endfacet
 facet normal 0.806049 0.436651 0.399525
  outer loop
   vertex 45.7666 54.6371 418.199
   vertex 46.2538 55.0416 416.774
   vertex 45.0767 54.3991 419.851
  endloop
 endfacet
 facet normal 0.69237 0.606141 0.391428
  outer loop
   vertex 44.7615 55.66 418.456
   vertex 45.0767 54.3991 419.851
   vertex 46.2538 55.0416 416.774
  endloop
 endfacet
 facet normal 0.840884 0.372016 0.393088
  outer loop
   vertex 46.3058 54.5669 417.112
   vertex 46.2538 55.0416 416.774
   vertex 45.7666 54.6371 418.199
  endloop
 endfacet
 facet normal 0.710572 0.561546 0.423973
  outer loop
   vertex 44.7615 55.66 418.456
   vertex 46.2538 55.0416 416.774
   vertex 43.5642 57.7496 417.695
  endloop
 endfacet
 facet normal 0.724386 0.610633 0.319987
  outer loop
   vertex 45.4886 56.6793 415.381
   vertex 43.5642 57.7496 417.695
   vertex 46.2538 55.0416 416.774
  endloop
 endfacet
 facet normal 0.136172 0.927431 0.348322
  outer loop
   vertex 43.6791 58.1038 416.707
   vertex 43.5642 57.7496 417.695
   vertex 43.7936 58.1069 416.654
  endloop
 endfacet
 facet normal 0.743985 0.564415 0.357663
  outer loop
   vertex 45.4886 56.6793 415.381
   vertex 43.7936 58.1069 416.654
   vertex 43.5642 57.7496 417.695
  endloop
 endfacet
 facet normal 0.831887 0.379465 0.404933
  outer loop
   vertex 46.5861 54.725 416.388
   vertex 46.2538 55.0416 416.774
   vertex 46.3058 54.5669 417.112
  endloop
 endfacet
 facet normal 0.745298 0.553659 0.371474
  outer loop
   vertex 45.4886 56.6793 415.381
   vertex 44.1334 58.254 415.753
   vertex 43.7936 58.1069 416.654
  endloop
 endfacet
 facet normal 0.746895 0.55699 0.363194
  outer loop
   vertex 45.4886 56.6793 415.381
   vertex 44.3212 58.2656 415.349
   vertex 44.1334 58.254 415.753
  endloop
 endfacet
 facet normal 0.687589 0.623665 0.371837
  outer loop
   vertex 45.4886 56.6793 415.381
   vertex 46.619 55.0163 416.08
   vertex 47.0942 55.3074 414.713
  endloop
 endfacet
 facet normal 0.885913 0.246999 0.392619
  outer loop
   vertex 46.8837 54.8966 415.558
   vertex 47.1157 55.0437 414.942
   vertex 46.619 55.0163 416.08
  endloop
 endfacet
 facet normal 0.838664 0.394471 0.375548
  outer loop
   vertex 47.1157 55.0437 414.942
   vertex 47.0942 55.3074 414.713
   vertex 46.619 55.0163 416.08
  endloop
 endfacet
 facet normal 0.686101 0.609775 0.396786
  outer loop
   vertex 45.4886 56.6793 415.381
   vertex 47.0942 55.3074 414.713
   vertex 44.6865 58.4492 414.048
  endloop
 endfacet
 facet normal 0.764959 0.571042 0.297908
  outer loop
   vertex 44.335 58.4469 414.955
   vertex 45.4886 56.6793 415.381
   vertex 44.6865 58.4492 414.048
  endloop
 endfacet
 facet normal 0.711462 0.616581 0.337119
  outer loop
   vertex 47.589 55.228 413.814
   vertex 44.6865 58.4492 414.048
   vertex 47.0942 55.3074 414.713
  endloop
 endfacet
 facet normal 0.725447 0.634254 0.267298
  outer loop
   vertex 46.9409 57.2003 410.893
   vertex 44.6865 58.4492 414.048
   vertex 47.589 55.228 413.814
  endloop
 endfacet
 facet normal 0.802258 0.515972 0.300256
  outer loop
   vertex 44.7617 58.721 413.38
   vertex 44.6865 58.4492 414.048
   vertex 46.2534 57.9449 410.728
  endloop
 endfacet
 facet normal 0.607553 0.714245 0.347467
  outer loop
   vertex 47.9742 55.4165 412.753
   vertex 46.9409 57.2003 410.893
   vertex 47.589 55.228 413.814
  endloop
 endfacet
 facet normal 0.759453 0.599937 0.251607
  outer loop
   vertex 44.7617 58.721 413.38
   vertex 46.2534 57.9449 410.728
   vertex 44.8535 59.0678 412.276
  endloop
 endfacet
 facet normal 0.691406 0.687553 0.221876
  outer loop
   vertex 46.9409 57.2003 410.893
   vertex 46.2534 57.9449 410.728
   vertex 44.6865 58.4492 414.048
  endloop
 endfacet
 facet normal 0.770095 0.572719 0.280975
  outer loop
   vertex 46.2534 57.9449 410.728
   vertex 45.0934 59.0175 411.721
   vertex 44.8535 59.0678 412.276
  endloop
 endfacet
 facet normal 0.760963 0.604257 0.236241
  outer loop
   vertex 46.2534 57.9449 410.728
   vertex 45.1176 59.2998 410.921
   vertex 45.0934 59.0175 411.721
  endloop
 endfacet
 facet normal 0.760706 0.603735 0.238392
  outer loop
   vertex 45.1176 59.2998 410.921
   vertex 46.2534 57.9449 410.728
   vertex 45.2482 59.4302 410.174
  endloop
 endfacet
 facet normal 0.745824 0.607052 0.274289
  outer loop
   vertex 45.5479 59.6679 408.833
   vertex 45.2482 59.4302 410.174
   vertex 46.2534 57.9449 410.728
  endloop
 endfacet
 facet normal 0.748897 0.604728 0.271031
  outer loop
   vertex 46.2534 57.9449 410.728
   vertex 46.6821 57.9823 409.46
   vertex 45.5479 59.6679 408.833
  endloop
 endfacet
 facet normal 0.736591 0.606767 0.298777
  outer loop
   vertex 46.6821 57.9823 409.46
   vertex 47.4405 57.7249 408.113
   vertex 45.5479 59.6679 408.833
  endloop
 endfacet
 facet normal 0.738365 0.631657 0.236276
  outer loop
   vertex 45.8213 59.5821 408.208
   vertex 45.5479 59.6679 408.833
   vertex 47.4405 57.7249 408.113
  endloop
 endfacet
 facet normal 0.734738 0.627384 0.257973
  outer loop
   vertex 45.9496 59.9372 406.979
   vertex 45.8213 59.5821 408.208
   vertex 47.4405 57.7249 408.113
  endloop
 endfacet
 facet normal 0.560761 0.739323 0.372758
  outer loop
   vertex 45.6482 60.0144 407.611
   vertex 45.5 59.9574 407.947
   vertex 45.8213 59.5821 408.208
  endloop
 endfacet
 facet normal 0.744127 0.623892 0.238817
  outer loop
   vertex 47.3751 58.3388 406.713
   vertex 45.9496 59.9372 406.979
   vertex 47.4405 57.7249 408.113
  endloop
 endfacet
 facet normal 0.715155 0.648045 0.261898
  outer loop
   vertex 45.8213 59.5821 408.208
   vertex 45.9496 59.9372 406.979
   vertex 45.6482 60.0144 407.611
  endloop
 endfacet
 facet normal 0.742665 0.620364 0.252184
  outer loop
   vertex 47.3751 58.3388 406.713
   vertex 45.9793 60.2984 406.003
   vertex 45.9496 59.9372 406.979
  endloop
 endfacet
 facet normal 0.51686 0.797616 0.31091
  outer loop
   vertex 45.6265 60.2678 406.668
   vertex 45.9496 59.9372 406.979
   vertex 45.9793 60.2984 406.003
  endloop
 endfacet
 facet normal 0.675512 0.695468 0.244965
  outer loop
   vertex 48.2498 57.9943 405.279
   vertex 47.3751 58.3388 406.713
   vertex 48.09 57.5236 407.056
  endloop
 endfacet
 facet normal 0.540709 0.79986 0.260494
  outer loop
   vertex 48.7078 57.4007 406.151
   vertex 48.2498 57.9943 405.279
   vertex 48.09 57.5236 407.056
  endloop
 endfacet
 facet normal 0.668532 0.70438 0.238567
  outer loop
   vertex 48.2498 57.9943 405.279
   vertex 47.8684 58.654 404.4
   vertex 47.3751 58.3388 406.713
  endloop
 endfacet
 facet normal 0.746098 0.619687 0.243568
  outer loop
   vertex 47.8684 58.654 404.4
   vertex 45.9793 60.2984 406.003
   vertex 47.3751 58.3388 406.713
  endloop
 endfacet
 facet normal 0.779856 0.564162 0.271194
  outer loop
   vertex 46.3778 60.359 404.731
   vertex 46.1088 60.4977 405.216
   vertex 45.9793 60.2984 406.003
  endloop
 endfacet
 facet normal 0.75095 0.60525 0.264096
  outer loop
   vertex 47.8684 58.654 404.4
   vertex 46.3778 60.359 404.731
   vertex 45.9793 60.2984 406.003
  endloop
 endfacet
 facet normal 0.709327 0.675871 0.200133
  outer loop
   vertex 46.3778 60.359 404.731
   vertex 45.994 60.8527 404.424
   vertex 46.1088 60.4977 405.216
  endloop
 endfacet
 facet normal 0.758843 0.638553 0.128089
  outer loop
   vertex 47.8684 58.654 404.4
   vertex 46.0149 61.0398 403.487
   vertex 46.3778 60.359 404.731
  endloop
 endfacet
 facet normal 0.750946 0.642225 0.153715
  outer loop
   vertex 46.3578 60.7693 402.942
   vertex 46.0149 61.0398 403.487
   vertex 47.8684 58.654 404.4
  endloop
 endfacet
 facet normal 0.696019 0.671783 0.253506
  outer loop
   vertex 49.1032 58.449 401.553
   vertex 46.3578 60.7693 402.942
   vertex 47.8684 58.654 404.4
  endloop
 endfacet
 facet normal 0.667656 0.73972 0.0839556
  outer loop
   vertex 46.3578 60.7693 402.942
   vertex 49.1032 58.449 401.553
   vertex 46.156 61.216 400.611
  endloop
 endfacet
 facet normal 0.698554 0.707425 -0.107573
  outer loop
   vertex 48.1572 59.2586 400.734
   vertex 46.156 61.216 400.611
   vertex 49.1032 58.449 401.553
  endloop
 endfacet
 facet normal 0.676121 0.704756 0.214893
  outer loop
   vertex 48.1572 59.2586 400.734
   vertex 48.621 59.0835 399.849
   vertex 46.156 61.216 400.611
  endloop
 endfacet
 facet normal 0.723574 0.68997 0.0195278
  outer loop
   vertex 46.8351 60.5679 398.347
   vertex 45.7674 61.6636 399.195
   vertex 46.156 61.216 400.611
  endloop
 endfacet
 facet normal 0.650124 0.759498 -0.0224072
  outer loop
   vertex 46.156 61.216 400.611
   vertex 48.621 59.0835 399.849
   vertex 46.8351 60.5679 398.347
  endloop
 endfacet
 facet normal 0.688933 0.723736 0.0397082
  outer loop
   vertex 46.156 61.216 400.611
   vertex 45.7674 61.6636 399.195
   vertex 45.7108 61.6777 399.92
  endloop
 endfacet
 facet normal 0.700546 0.712559 -0.0386525
  outer loop
   vertex 46.8351 60.5679 398.347
   vertex 45.4754 61.8973 398.211
   vertex 45.7674 61.6636 399.195
  endloop
 endfacet
 facet normal 0.58481 0.80496 0.100181
  outer loop
   vertex 48.621 59.0835 399.849
   vertex 48.2254 59.6116 397.915
   vertex 46.8351 60.5679 398.347
  endloop
 endfacet
 facet normal 0.567186 0.823587 0.00222576
  outer loop
   vertex 48.2254 59.6116 397.915
   vertex 46.6912 60.6692 397.533
   vertex 46.8351 60.5679 398.347
  endloop
 endfacet
 facet normal 0.543548 0.75115 0.374605
  outer loop
   vertex 48.0536 55.7124 412.262
   vertex 48.2647 55.9227 411.534
   vertex 46.9409 57.2003 410.893
  endloop
 endfacet
 facet normal 0.58733 0.754939 0.291736
  outer loop
   vertex 48.6095 55.9095 410.874
   vertex 46.9409 57.2003 410.893
   vertex 48.2647 55.9227 411.534
  endloop
 endfacet
 facet normal 0.595308 0.765974 0.242676
  outer loop
   vertex 48.6095 55.9095 410.874
   vertex 47.602 57.2007 409.27
   vertex 46.9409 57.2003 410.893
  endloop
 endfacet
 facet normal 0.514037 0.79652 0.318311
  outer loop
   vertex 49.0087 56.3792 409.054
   vertex 47.602 57.2007 409.27
   vertex 48.6095 55.9095 410.874
  endloop
 endfacet
 facet normal 0.333254 0.885535 0.323681
  outer loop
   vertex 50.1973 57.6193 403.744
   vertex 48.9862 57.6189 404.992
   vertex 50.3138 56.7322 406.051
  endloop
 endfacet
 facet normal 0.280041 0.920633 0.272053
  outer loop
   vertex 50.1973 57.6193 403.744
   vertex 48.9961 57.9176 403.971
   vertex 48.9862 57.6189 404.992
  endloop
 endfacet
 facet normal 0.270636 0.943215 0.192619
  outer loop
   vertex 50.1973 57.6193 403.744
   vertex 49.8358 57.8237 403.251
   vertex 48.9961 57.9176 403.971
  endloop
 endfacet
 facet normal 0.247251 0.955004 0.163809
  outer loop
   vertex 49.8358 57.8237 403.251
   vertex 49.2039 58.0355 402.97
   vertex 48.9961 57.9176 403.971
  endloop
 endfacet
 facet normal 0.514727 0.836392 0.188427
  outer loop
   vertex 49.2039 58.0355 402.97
   vertex 49.1036 58.2511 402.287
   vertex 48.6967 58.3188 403.098
  endloop
 endfacet
 facet normal 0.220613 0.950205 0.220093
  outer loop
   vertex 49.8358 57.8237 403.251
   vertex 49.7703 58.0527 402.328
   vertex 49.2039 58.0355 402.97
  endloop
 endfacet
 facet normal 0.261286 0.930844 0.255459
  outer loop
   vertex 49.1036 58.2511 402.287
   vertex 49.2039 58.0355 402.97
   vertex 49.7703 58.0527 402.328
  endloop
 endfacet
 facet normal 0.266861 0.94037 0.210925
  outer loop
   vertex 49.5995 58.2519 401.656
   vertex 49.1036 58.2511 402.287
   vertex 49.7703 58.0527 402.328
  endloop
 endfacet
 facet normal 0.253894 0.860947 0.440803
  outer loop
   vertex 58.6041 59.2118 399.959
   vertex 59.3789 59.1492 399.635
   vertex 59.0516 59.4495 399.237
  endloop
 endfacet
 facet normal 0.472149 0.701067 0.534397
  outer loop
   vertex 60.0096 58.9676 399.316
   vertex 60.0411 59.294 398.86
   vertex 59.3789 59.1492 399.635
  endloop
 endfacet
 facet normal 0.319489 0.844064 0.430677
  outer loop
   vertex 60.0411 59.294 398.86
   vertex 59.5318 59.6281 398.583
   vertex 59.3789 59.1492 399.635
  endloop
 endfacet
 facet normal 0.266592 0.861996 0.431152
  outer loop
   vertex 59.5318 59.6281 398.583
   vertex 59.0516 59.4495 399.237
   vertex 59.3789 59.1492 399.635
  endloop
 endfacet
 facet normal 0.561051 0.6543 0.507064
  outer loop
   vertex 60.4259 59.0392 398.763
   vertex 60.0411 59.294 398.86
   vertex 60.0096 58.9676 399.316
  endloop
 endfacet
 facet normal 0.291335 0.833421 0.469609
  outer loop
   vertex 59.9983 59.6769 398.207
   vertex 59.5318 59.6281 398.583
   vertex 60.0411 59.294 398.86
  endloop
 endfacet
 facet normal 0.720113 0.653995 -0.231793
  outer loop
   vertex 60.4909 59.3856 398.108
   vertex 60.2734 59.5216 397.816
   vertex 60.2391 59.6306 398.017
  endloop
 endfacet
 facet normal 0.797644 0.473461 -0.37363
  outer loop
   vertex 60.4517 59.3096 397.928
   vertex 60.2734 59.5216 397.816
   vertex 60.4909 59.3856 398.108
  endloop
 endfacet
 facet normal 0.644872 0.751622 -0.138582
  outer loop
   vertex 59.9533 59.8323 397.781
   vertex 60.2391 59.6306 398.017
   vertex 60.0959 59.7011 397.733
  endloop
 endfacet
 facet normal 0.742435 0.63379 -0.217026
  outer loop
   vertex 60.2734 59.5216 397.816
   vertex 60.0959 59.7011 397.733
   vertex 60.2391 59.6306 398.017
  endloop
 endfacet
 facet normal 0.650685 0.750209 -0.117455
  outer loop
   vertex 59.9533 59.8323 397.781
   vertex 60.0959 59.7011 397.733
   vertex 59.944 59.8006 397.527
  endloop
 endfacet
 facet normal 0.730127 0.513515 -0.450796
  outer loop
   vertex 60.2734 59.5216 397.816
   vertex 59.9683 59.5937 397.404
   vertex 60.0959 59.7011 397.733
  endloop
 endfacet
 facet normal 0.731543 0.672741 -0.110747
  outer loop
   vertex 59.634 60.0218 396.823
   vertex 59.9533 59.8323 397.781
   vertex 59.944 59.8006 397.527
  endloop
 endfacet
 facet normal 0.753012 0.646387 -0.123116
  outer loop
   vertex 59.634 60.0218 396.823
   vertex 59.5983 60.0931 396.979
   vertex 59.9533 59.8323 397.781
  endloop
 endfacet
 facet normal 0.632066 0.749244 -0.1978
  outer loop
   vertex 59.5983 60.0931 396.979
   vertex 59.634 60.0218 396.823
   vertex 59.4912 60.0731 396.561
  endloop
 endfacet
 facet normal 0.299077 0.936925 0.180901
  outer loop
   vertex 50.36 59.3212 395.768
   vertex 49.593 59.5365 395.921
   vertex 49.2729 59.1888 398.251
  endloop
 endfacet
 facet normal 0.425692 0.904831 -0.00822596
  outer loop
   vertex 47.6971 60.012 395.539
   vertex 47.2735 60.2205 396.552
   vertex 48.0456 59.8546 396.26
  endloop
 endfacet
 facet normal 0.283291 0.956117 0.0747454
  outer loop
   vertex 50.36 59.3212 395.768
   vertex 49.6385 59.5811 395.178
   vertex 49.593 59.5365 395.921
  endloop
 endfacet
 facet normal 0.430571 0.902539 -0.00571365
  outer loop
   vertex 47.6971 60.012 395.539
   vertex 47.2446 60.2268 395.369
   vertex 47.2735 60.2205 396.552
  endloop
 endfacet
 facet normal 0.376696 0.924804 -0.0532725
  outer loop
   vertex 49.6385 59.5811 395.178
   vertex 50.36 59.3212 395.768
   vertex 50.1432 59.3583 394.879
  endloop
 endfacet
 facet normal 0.201153 0.976986 0.0709679
  outer loop
   vertex 49.6385 59.5811 395.178
   vertex 48.3162 59.8442 395.304
   vertex 49.593 59.5365 395.921
  endloop
 endfacet
 facet normal 0.211454 0.976147 0.0492336
  outer loop
   vertex 49.593 59.5365 395.921
   vertex 48.3162 59.8442 395.304
   vertex 48.0456 59.8546 396.26
  endloop
 endfacet
 facet normal 0.285794 0.955695 0.0704976
  outer loop
   vertex 48.3162 59.8442 395.304
   vertex 47.6971 60.012 395.539
   vertex 48.0456 59.8546 396.26
  endloop
 endfacet
 facet normal 0.516097 0.855927 -0.0321348
  outer loop
   vertex 51.326 58.7004 394.747
   vertex 50.8262 59.0086 394.929
   vertex 50.36 59.3212 395.768
  endloop
 endfacet
 facet normal 0.339149 0.908299 0.244891
  outer loop
   vertex 47.6971 60.012 395.539
   vertex 48.3162 59.8442 395.304
   vertex 47.2446 60.2268 395.369
  endloop
 endfacet
 facet normal 0.340428 0.930399 0.135895
  outer loop
   vertex 46.9713 60.4305 394.659
   vertex 47.2446 60.2268 395.369
   vertex 48.3162 59.8442 395.304
  endloop
 endfacet
 facet normal 0.458803 0.885372 -0.0749412
  outer loop
   vertex 50.8262 59.0086 394.929
   vertex 50.1432 59.3583 394.879
   vertex 50.36 59.3212 395.768
  endloop
 endfacet
 facet normal 0.378994 0.924108 -0.0488747
  outer loop
   vertex 50.1432 59.3583 394.879
   vertex 49.5678 59.5754 394.522
   vertex 49.6385 59.5811 395.178
  endloop
 endfacet
 facet normal 0.458079 0.866019 -0.200439
  outer loop
   vertex 50.8262 59.0086 394.929
   vertex 50.386 59.1403 394.492
   vertex 50.1432 59.3583 394.879
  endloop
 endfacet
 facet normal 0.192381 0.980884 -0.0292556
  outer loop
   vertex 48.3162 59.8442 395.304
   vertex 49.6385 59.5811 395.178
   vertex 49.5678 59.5754 394.522
  endloop
 endfacet
 facet normal 0.410918 0.880073 -0.237945
  outer loop
   vertex 49.8212 59.2618 393.966
   vertex 50.1432 59.3583 394.879
   vertex 50.386 59.1403 394.492
  endloop
 endfacet
 facet normal 0.376328 0.840475 -0.389845
  outer loop
   vertex 51.326 58.7004 394.747
   vertex 50.6375 58.8519 394.409
   vertex 50.8262 59.0086 394.929
  endloop
 endfacet
 facet normal 0.618675 0.661504 -0.423856
  outer loop
   vertex 50.8262 59.0086 394.929
   vertex 50.6375 58.8519 394.409
   vertex 50.386 59.1403 394.492
  endloop
 endfacet
 facet normal 0.47663 0.840711 -0.25696
  outer loop
   vertex 49.8212 59.2618 393.966
   vertex 49.5678 59.5754 394.522
   vertex 50.1432 59.3583 394.879
  endloop
 endfacet
 facet normal 0.530761 0.81853 -0.219778
  outer loop
   vertex 49.8212 59.2618 393.966
   vertex 49.1856 59.6146 393.745
   vertex 49.5678 59.5754 394.522
  endloop
 endfacet
 facet normal 0.380545 0.923614 0.0460772
  outer loop
   vertex 46.1675 60.8645 392.598
   vertex 46.9713 60.4305 394.659
   vertex 48.3162 59.8442 395.304
  endloop
 endfacet
 facet normal 0.184973 0.981869 -0.0414503
  outer loop
   vertex 49.5678 59.5754 394.522
   vertex 49.1856 59.6146 393.745
   vertex 48.3162 59.8442 395.304
  endloop
 endfacet
 facet normal 0.508305 0.855852 -0.0956211
  outer loop
   vertex 49.5405 59.4103 393.803
   vertex 49.1856 59.6146 393.745
   vertex 49.8212 59.2618 393.966
  endloop
 endfacet
 facet normal 0.360894 0.930392 0.0642366
  outer loop
   vertex 46.1675 60.8645 392.598
   vertex 48.3162 59.8442 395.304
   vertex 49.1856 59.6146 393.745
  endloop
 endfacet
 facet normal 0.509652 0.785927 -0.350106
  outer loop
   vertex 49.2697 59.4585 393.517
   vertex 49.1856 59.6146 393.745
   vertex 49.5405 59.4103 393.803
  endloop
 endfacet
 facet normal 0.585085 0.753429 -0.300032
  outer loop
   vertex 49.2697 59.4585 393.517
   vertex 48.9845 59.5609 393.218
   vertex 49.1856 59.6146 393.745
  endloop
 endfacet
 facet normal 0.857017 0.46902 -0.213409
  outer loop
   vertex 39.0524 66.2125 373.281
   vertex 37.7027 68.231 372.297
   vertex 39.3053 66.2782 374.441
  endloop
 endfacet
 facet normal 0.763197 0.645075 -0.037538
  outer loop
   vertex 41.0215 65.841 383.067
   vertex 43.7315 62.9234 388.027
   vertex 41.5348 65.1928 382.364
  endloop
 endfacet
 facet normal 0.656568 0.751747 -0.0616038
  outer loop
   vertex 40.9742 65.8161 382.259
   vertex 40.718 66.0842 382.8
   vertex 41.0215 65.841 383.067
  endloop
 endfacet
 facet normal 0.74733 0.661351 -0.0641309
  outer loop
   vertex 40.9742 65.8161 382.259
   vertex 41.0215 65.841 383.067
   vertex 41.5348 65.1928 382.364
  endloop
 endfacet
 facet normal 0.639306 0.765146 -0.0764187
  outer loop
   vertex 40.9742 65.8161 382.259
   vertex 40.486 66.2291 382.31
   vertex 40.718 66.0842 382.8
  endloop
 endfacet
 facet normal 0.724675 0.677634 -0.125134
  outer loop
   vertex 41.3373 65.1809 380.922
   vertex 40.4368 66.2344 381.412
   vertex 40.9742 65.8161 382.259
  endloop
 endfacet
 facet normal 0.643679 0.764677 -0.0307585
  outer loop
   vertex 40.9742 65.8161 382.259
   vertex 40.4368 66.2344 381.412
   vertex 40.486 66.2291 382.31
  endloop
 endfacet
 facet normal 0.812307 0.577179 -0.0837971
  outer loop
   vertex 43.7315 62.9234 388.027
   vertex 42.0927 64.2668 381.394
   vertex 41.5348 65.1928 382.364
  endloop
 endfacet
 facet normal 0.748142 0.654712 -0.107871
  outer loop
   vertex 41.3373 65.1809 380.922
   vertex 40.9742 65.8161 382.259
   vertex 41.5348 65.1928 382.364
  endloop
 endfacet
 facet normal 0.846678 0.521948 -0.103475
  outer loop
   vertex 43.1527 62.7648 382.491
   vertex 42.0927 64.2668 381.394
   vertex 43.7315 62.9234 388.027
  endloop
 endfacet
 facet normal 0.793878 0.59736 -0.113662
  outer loop
   vertex 42.0927 64.2668 381.394
   vertex 41.3373 65.1809 380.922
   vertex 41.5348 65.1928 382.364
  endloop
 endfacet
 facet normal 0.843185 0.53025 -0.0887339
  outer loop
   vertex 43.1527 62.7648 382.491
   vertex 42.3586 63.727 380.695
   vertex 42.0927 64.2668 381.394
  endloop
 endfacet
 facet normal 0.819575 0.5601 -0.120766
  outer loop
   vertex 42.3586 63.727 380.695
   vertex 41.9407 64.2143 380.119
   vertex 42.0927 64.2668 381.394
  endloop
 endfacet
 facet normal 0.691414 0.71655 -0.0922139
  outer loop
   vertex 39.731 66.7212 380.847
   vertex 41.3373 65.1809 380.922
   vertex 41.0044 65.3096 379.426
  endloop
 endfacet
 facet normal 0.794709 0.595163 -0.119245
  outer loop
   vertex 41.9407 64.2143 380.119
   vertex 41.3373 65.1809 380.922
   vertex 42.0927 64.2668 381.394
  endloop
 endfacet
 facet normal 0.799559 0.586913 -0.127432
  outer loop
   vertex 41.5943 64.4467 379.153
   vertex 41.0044 65.3096 379.426
   vertex 41.3373 65.1809 380.922
  endloop
 endfacet
 facet normal 0.857775 0.456647 -0.235998
  outer loop
   vertex 42.2822 63.6643 380.296
   vertex 41.9407 64.2143 380.119
   vertex 42.3586 63.727 380.695
  endloop
 endfacet
 facet normal 0.785469 0.603676 -0.136436
  outer loop
   vertex 41.9407 64.2143 380.119
   vertex 41.5943 64.4467 379.153
   vertex 41.3373 65.1809 380.922
  endloop
 endfacet
 facet normal 0.899451 0.339752 -0.274877
  outer loop
   vertex 41.5491 64.2403 378.75
   vertex 41.3011 64.5894 378.37
   vertex 41.5943 64.4467 379.153
  endloop
 endfacet
 facet normal 0.78304 0.593826 -0.184984
  outer loop
   vertex 41.3011 64.5894 378.37
   vertex 41.0044 65.3096 379.426
   vertex 41.5943 64.4467 379.153
  endloop
 endfacet
 facet normal 0.784461 0.592379 -0.183598
  outer loop
   vertex 41.3011 64.5894 378.37
   vertex 41.1315 64.6426 377.817
   vertex 41.0044 65.3096 379.426
  endloop
 endfacet
 facet normal 0.671183 0.73976 0.047635
  outer loop
   vertex 38.2422 67.9782 376.903
   vertex 38.4337 67.7409 377.89
   vertex 41.0044 65.3096 379.426
  endloop
 endfacet
 facet normal 0.755101 0.624591 -0.19927
  outer loop
   vertex 41.0044 65.3096 379.426
   vertex 41.1315 64.6426 377.817
   vertex 40.9607 64.7202 377.413
  endloop
 endfacet
 facet normal 0.84916 0.501601 -0.165301
  outer loop
   vertex 40.4341 65.2248 376.239
   vertex 41.0044 65.3096 379.426
   vertex 40.9607 64.7202 377.413
  endloop
 endfacet
 facet normal 0.740026 0.663845 -0.108031
  outer loop
   vertex 38.5717 67.4034 375.628
   vertex 38.2422 67.9782 376.903
   vertex 41.0044 65.3096 379.426
  endloop
 endfacet
 facet normal 0.771971 0.616584 -0.154547
  outer loop
   vertex 38.5717 67.4034 375.628
   vertex 41.0044 65.3096 379.426
   vertex 40.4341 65.2248 376.239
  endloop
 endfacet
 facet normal 0.752317 0.65129 -0.0991947
  outer loop
   vertex 38.5717 67.4034 375.628
   vertex 37.9464 68.2649 376.542
   vertex 38.2422 67.9782 376.903
  endloop
 endfacet
 facet normal 0.763207 0.640933 -0.081982
  outer loop
   vertex 38.5717 67.4034 375.628
   vertex 37.628 68.5563 375.856
   vertex 37.9464 68.2649 376.542
  endloop
 endfacet
 facet normal 0.769029 0.637822 -0.0421556
  outer loop
   vertex 37.7027 68.231 372.297
   vertex 37.628 68.5563 375.856
   vertex 38.5717 67.4034 375.628
  endloop
 endfacet
 facet normal 0.804302 0.590869 -0.0630237
  outer loop
   vertex 37.7027 68.231 372.297
   vertex 38.5717 67.4034 375.628
   vertex 39.3053 66.2782 374.441
  endloop
 endfacet
 facet normal 0.697316 0.713826 -0.0648258
  outer loop
   vertex 46.0326 61.0841 394.734
   vertex 45.9399 61.0615 393.488
   vertex 44.593 62.5389 395.268
  endloop
 endfacet
 facet normal 0.728388 0.684945 -0.017343
  outer loop
   vertex 45.9399 61.0615 393.488
   vertex 44.1751 62.9277 393.072
   vertex 44.593 62.5389 395.268
  endloop
 endfacet
 facet normal 0.733788 0.672637 -0.0954678
  outer loop
   vertex 45.3521 61.5662 392.526
   vertex 44.1751 62.9277 393.072
   vertex 45.9399 61.0615 393.488
  endloop
 endfacet
 facet normal 0.484694 0.871966 0.068896
  outer loop
   vertex 44.1751 62.9277 393.072
   vertex 43.933 63.1608 391.825
   vertex 43.6913 63.2355 392.58
  endloop
 endfacet
 facet normal 0.751774 0.659028 -0.0227623
  outer loop
   vertex 43.933 63.1608 391.825
   vertex 44.1751 62.9277 393.072
   vertex 45.3521 61.5662 392.526
  endloop
 endfacet
 facet normal 0.75852 0.64894 -0.0593685
  outer loop
   vertex 45.1415 61.6841 391.124
   vertex 43.933 63.1608 391.825
   vertex 45.3521 61.5662 392.526
  endloop
 endfacet
 facet normal 0.754317 0.65235 -0.0737962
  outer loop
   vertex 45.1415 61.6841 391.124
   vertex 45.0252 61.6412 389.556
   vertex 43.933 63.1608 391.825
  endloop
 endfacet
 facet normal 0.530438 0.844969 -0.0682824
  outer loop
   vertex 47.0004 60.2567 390.856
   vertex 46.4814 60.4979 389.809
   vertex 45.9708 60.9668 391.645
  endloop
 endfacet
 facet normal 0.657573 0.753331 -0.00952145
  outer loop
   vertex 46.4814 60.4979 389.809
   vertex 45.1415 61.6841 391.124
   vertex 45.9708 60.9668 391.645
  endloop
 endfacet
 facet normal 0.676062 0.736782 -0.00960962
  outer loop
   vertex 43.4176 63.6151 390.397
   vertex 43.6003 63.4614 391.466
   vertex 43.933 63.1608 391.825
  endloop
 endfacet
 facet normal 0.62336 0.779012 -0.0675485
  outer loop
   vertex 46.4814 60.4979 389.809
   vertex 45.0252 61.6412 389.556
   vertex 45.1415 61.6841 391.124
  endloop
 endfacet
 facet normal 0.776333 0.625052 -0.0813447
  outer loop
   vertex 44.2718 62.3648 388.942
   vertex 43.4176 63.6151 390.397
   vertex 43.933 63.1608 391.825
  endloop
 endfacet
 facet normal 0.730615 0.675338 -0.100601
  outer loop
   vertex 45.0252 61.6412 389.556
   vertex 44.2718 62.3648 388.942
   vertex 43.933 63.1608 391.825
  endloop
 endfacet
 facet normal 0.624611 0.775837 -0.0890995
  outer loop
   vertex 46.4814 60.4979 389.809
   vertex 45.5861 61.0455 388.301
   vertex 45.0252 61.6412 389.556
  endloop
 endfacet
 facet normal 0.785521 0.560196 -0.262938
  outer loop
   vertex 45.5861 61.0455 388.301
   vertex 46.4814 60.4979 389.809
   vertex 45.777 60.8778 388.514
  endloop
 endfacet
 facet normal 0.716275 0.695276 -0.0595104
  outer loop
   vertex 45.2196 61.2813 387.691
   vertex 44.2718 62.3648 388.942
   vertex 45.0252 61.6412 389.556
  endloop
 endfacet
 facet normal 0.761839 0.645352 -0.0558799
  outer loop
   vertex 44.2718 62.3648 388.942
   vertex 43.7315 62.9234 388.027
   vertex 42.8094 64.1123 389.186
  endloop
 endfacet
 facet normal 0.856481 0.508663 -0.0877664
  outer loop
   vertex 42.4327 64.4548 387.495
   vertex 42.4923 64.4359 387.967
   vertex 42.8094 64.1123 389.186
  endloop
 endfacet
 facet normal 0.738283 0.674048 -0.0244505
  outer loop
   vertex 43.7315 62.9234 388.027
   vertex 44.2718 62.3648 388.942
   vertex 45.2196 61.2813 387.691
  endloop
 endfacet
 facet normal 0.769153 0.637672 -0.0421827
  outer loop
   vertex 43.7315 62.9234 388.027
   vertex 42.4327 64.4548 387.495
   vertex 42.8094 64.1123 389.186
  endloop
 endfacet
 facet normal 0.720278 0.693685 -0.000693415
  outer loop
   vertex 42.4327 64.4548 387.495
   vertex 42.2692 64.6234 386.319
   vertex 42.2049 64.6911 387.257
  endloop
 endfacet
 facet normal 0.709865 0.680483 -0.181757
  outer loop
   vertex 45.0486 61.2452 386.888
   vertex 43.7315 62.9234 388.027
   vertex 45.2196 61.2813 387.691
  endloop
 endfacet
 facet normal 0.751912 0.65277 -0.0923028
  outer loop
   vertex 45.0486 61.2452 386.888
   vertex 44.2636 61.9591 385.542
   vertex 43.7315 62.9234 388.027
  endloop
 endfacet
 facet normal 0.764977 0.643905 -0.0140445
  outer loop
   vertex 42.2692 64.6234 386.319
   vertex 42.4327 64.4548 387.495
   vertex 43.7315 62.9234 388.027
  endloop
 endfacet
 facet normal 0.73742 0.667804 -0.10124
  outer loop
   vertex 44.2636 61.9591 385.542
   vertex 43.9244 62.2333 384.88
   vertex 43.7315 62.9234 388.027
  endloop
 endfacet
 facet normal 0.841927 0.484636 -0.23725
  outer loop
   vertex 44.3084 61.7491 385.272
   vertex 44.2636 61.9591 385.542
   vertex 44.458 61.6767 385.655
  endloop
 endfacet
 facet normal 0.845038 0.480877 -0.23381
  outer loop
   vertex 44.3084 61.7491 385.272
   vertex 43.9244 62.2333 384.88
   vertex 44.2636 61.9591 385.542
  endloop
 endfacet
 facet normal -0.0445908 0.939997 0.338255
  outer loop
   vertex 52.6846 57.4715 404.018
   vertex 51.6849 58.4061 401.289
   vertex 52.1846 57.3276 404.352
  endloop
 endfacet
 facet normal 0.038828 0.944493 0.326229
  outer loop
   vertex 51.6849 58.4061 401.289
   vertex 50.1973 57.6193 403.744
   vertex 52.1846 57.3276 404.352
  endloop
 endfacet
 facet normal -0.148904 0.918719 0.365764
  outer loop
   vertex 53.3769 57.776 403.535
   vertex 52.8016 58.5017 401.478
   vertex 52.6846 57.4715 404.018
  endloop
 endfacet
 facet normal -0.134892 0.921976 0.362994
  outer loop
   vertex 53.9046 58.0036 403.153
   vertex 52.8016 58.5017 401.478
   vertex 53.3769 57.776 403.535
  endloop
 endfacet
 facet normal -0.140768 0.919694 0.366534
  outer loop
   vertex 52.8016 58.5017 401.478
   vertex 51.6849 58.4061 401.289
   vertex 52.6846 57.4715 404.018
  endloop
 endfacet
 facet normal -0.140129 0.920055 0.365872
  outer loop
   vertex 54.4312 58.2389 402.763
   vertex 52.8016 58.5017 401.478
   vertex 53.9046 58.0036 403.153
  endloop
 endfacet
 facet normal 0.065921 0.937917 0.340538
  outer loop
   vertex 49.8358 57.8237 403.251
   vertex 50.1973 57.6193 403.744
   vertex 51.6849 58.4061 401.289
  endloop
 endfacet
 facet normal -0.0465884 0.968743 0.243654
  outer loop
   vertex 49.8358 57.8237 403.251
   vertex 51.6849 58.4061 401.289
   vertex 49.7703 58.0527 402.328
  endloop
 endfacet
 facet normal -0.139251 0.987089 0.0791432
  outer loop
   vertex 51.6849 58.4061 401.289
   vertex 50.6077 58.2288 401.605
   vertex 49.7703 58.0527 402.328
  endloop
 endfacet
 facet normal -0.101458 0.938308 0.330582
  outer loop
   vertex 54.9529 58.5976 401.905
   vertex 53.7672 58.6843 401.295
   vertex 54.4312 58.2389 402.763
  endloop
 endfacet
 facet normal -0.113379 0.935345 0.335075
  outer loop
   vertex 53.7672 58.6843 401.295
   vertex 52.8016 58.5017 401.478
   vertex 54.4312 58.2389 402.763
  endloop
 endfacet
 facet normal -0.082482 0.951743 0.295606
  outer loop
   vertex 53.7672 58.6843 401.295
   vertex 54.9529 58.5976 401.905
   vertex 54.5223 58.9215 400.742
  endloop
 endfacet
 facet normal -0.124224 0.943034 0.308636
  outer loop
   vertex 55.4072 58.9785 400.924
   vertex 54.5223 58.9215 400.742
   vertex 54.9529 58.5976 401.905
  endloop
 endfacet
 facet normal 0.0162314 0.929513 0.368432
  outer loop
   vertex 54.9529 58.5976 401.905
   vertex 56.2458 58.5996 401.843
   vertex 55.4072 58.9785 400.924
  endloop
 endfacet
 facet normal -0.0608089 0.944557 0.322668
  outer loop
   vertex 51.6849 58.4061 401.289
   vertex 49.6743 58.7556 399.887
   vertex 50.6077 58.2288 401.605
  endloop
 endfacet
 facet normal -2.67705e-005 0.924493 0.381198
  outer loop
   vertex 56.2458 58.5996 401.843
   vertex 56.3928 59.1513 400.505
   vertex 55.4072 58.9785 400.924
  endloop
 endfacet
 facet normal -0.201477 0.969339 0.140673
  outer loop
   vertex 54.5223 58.9215 400.742
   vertex 54.2406 59.0876 399.194
   vertex 53.7672 58.6843 401.295
  endloop
 endfacet
 facet normal -0.15571 0.975997 0.152264
  outer loop
   vertex 54.2406 59.0876 399.194
   vertex 52.8016 58.5017 401.478
   vertex 53.7672 58.6843 401.295
  endloop
 endfacet
 facet normal 0.0384618 0.918351 0.393894
  outer loop
   vertex 57.543 59.0834 400.551
   vertex 56.3928 59.1513 400.505
   vertex 57.0406 58.7746 401.32
  endloop
 endfacet
 facet normal 0.0386938 0.919864 0.390325
  outer loop
   vertex 56.3928 59.1513 400.505
   vertex 57.543 59.0834 400.551
   vertex 57.1672 59.3589 399.939
  endloop
 endfacet
 facet normal -0.0735112 0.970994 0.227523
  outer loop
   vertex 56.3928 59.1513 400.505
   vertex 55.4041 59.1676 400.116
   vertex 55.4072 58.9785 400.924
  endloop
 endfacet
 facet normal 0.0533283 0.984195 0.168867
  outer loop
   vertex 49.6743 58.7556 399.887
   vertex 51.6849 58.4061 401.289
   vertex 51.5952 58.843 398.771
  endloop
 endfacet
 facet normal -0.0639158 0.962018 0.265399
  outer loop
   vertex 57.1672 59.3589 399.939
   vertex 56.4399 59.3652 399.741
   vertex 56.3928 59.1513 400.505
  endloop
 endfacet
 facet normal -0.0878521 0.96064 0.263537
  outer loop
   vertex 56.4399 59.3652 399.741
   vertex 55.4041 59.1676 400.116
   vertex 56.3928 59.1513 400.505
  endloop
 endfacet
 facet normal -0.10901 0.967796 0.22691
  outer loop
   vertex 55.4072 58.9785 400.924
   vertex 55.4041 59.1676 400.116
   vertex 54.5223 58.9215 400.742
  endloop
 endfacet
 facet normal -0.175209 0.975022 0.136503
  outer loop
   vertex 55.4041 59.1676 400.116
   vertex 54.2406 59.0876 399.194
   vertex 54.5223 58.9215 400.742
  endloop
 endfacet
 facet normal -0.118504 0.977228 0.176021
  outer loop
   vertex 54.2406 59.0876 399.194
   vertex 51.5952 58.843 398.771
   vertex 52.8016 58.5017 401.478
  endloop
 endfacet
 facet normal -0.113158 0.978264 0.173769
  outer loop
   vertex 52.8016 58.5017 401.478
   vertex 51.5952 58.843 398.771
   vertex 51.6849 58.4061 401.289
  endloop
 endfacet
 facet normal -0.0548987 0.971031 0.232563
  outer loop
   vertex 57.2762 59.5569 399.138
   vertex 56.4399 59.3652 399.741
   vertex 57.1672 59.3589 399.939
  endloop
 endfacet
 facet normal 0.0633222 0.935624 0.347272
  outer loop
   vertex 58.1412 59.5126 399.233
   vertex 58.6041 59.2118 399.959
   vertex 59.0516 59.4495 399.237
  endloop
 endfacet
 facet normal 0.0644711 0.949628 0.306675
  outer loop
   vertex 58.1412 59.5126 399.233
   vertex 59.0516 59.4495 399.237
   vertex 59.5318 59.6281 398.583
  endloop
 endfacet
 facet normal -0.156566 0.983916 0.086004
  outer loop
   vertex 56.4399 59.3652 399.741
   vertex 54.664 59.2493 397.834
   vertex 55.4041 59.1676 400.116
  endloop
 endfacet
 facet normal -0.105493 0.980564 0.165425
  outer loop
   vertex 57.2762 59.5569 399.138
   vertex 56.9466 59.6505 398.373
   vertex 56.4399 59.3652 399.741
  endloop
 endfacet
 facet normal -0.129233 0.988596 0.0773068
  outer loop
   vertex 54.2406 59.0876 399.194
   vertex 55.4041 59.1676 400.116
   vertex 54.664 59.2493 397.834
  endloop
 endfacet
 facet normal -0.205166 0.970529 0.126414
  outer loop
   vertex 56.9466 59.6505 398.373
   vertex 56.0843 59.5181 397.99
   vertex 56.4399 59.3652 399.741
  endloop
 endfacet
 facet normal -0.197738 0.972245 0.125055
  outer loop
   vertex 56.0843 59.5181 397.99
   vertex 54.664 59.2493 397.834
   vertex 56.4399 59.3652 399.741
  endloop
 endfacet
 facet normal 0.0612956 0.951879 0.300281
  outer loop
   vertex 58.1412 59.5126 399.233
   vertex 59.5318 59.6281 398.583
   vertex 58.7041 59.9445 397.749
  endloop
 endfacet
 facet normal -0.0712916 0.96465 0.253706
  outer loop
   vertex 58.7041 59.9445 397.749
   vertex 56.9466 59.6505 398.373
   vertex 58.1412 59.5126 399.233
  endloop
 endfacet
 facet normal -0.0879995 0.995794 -0.0254834
  outer loop
   vertex 54.2406 59.0876 399.194
   vertex 52.7904 58.925 397.848
   vertex 51.5952 58.843 398.771
  endloop
 endfacet
 facet normal -0.330644 0.94371 0.0092651
  outer loop
   vertex 54.664 59.2493 397.834
   vertex 54.4103 59.1674 397.122
   vertex 54.2406 59.0876 399.194
  endloop
 endfacet
 facet normal -0.121146 0.985 0.122878
  outer loop
   vertex 57.9586 59.9062 397.321
   vertex 56.9466 59.6505 398.373
   vertex 58.7041 59.9445 397.749
  endloop
 endfacet
 facet normal -0.136094 0.990328 0.0269946
  outer loop
   vertex 54.2406 59.0876 399.194
   vertex 54.4103 59.1674 397.122
   vertex 52.7904 58.925 397.848
  endloop
 endfacet
 facet normal -0.00776159 0.996883 0.0785137
  outer loop
   vertex 51.5968 59.0036 396.732
   vertex 51.5952 58.843 398.771
   vertex 52.7904 58.925 397.848
  endloop
 endfacet
 facet normal -0.186817 0.97895 0.0821912
  outer loop
   vertex 56.0843 59.5181 397.99
   vertex 56.9466 59.6505 398.373
   vertex 56.882 59.7202 397.396
  endloop
 endfacet
 facet normal -0.249851 0.968265 -0.00609608
  outer loop
   vertex 56.882 59.7202 397.396
   vertex 55.0248 59.2345 396.369
   vertex 56.0843 59.5181 397.99
  endloop
 endfacet
 facet normal -0.17993 0.982183 -0.0542324
  outer loop
   vertex 55.0248 59.2345 396.369
   vertex 54.664 59.2493 397.834
   vertex 56.0843 59.5181 397.99
  endloop
 endfacet
 facet normal -0.0317592 0.986115 0.162999
  outer loop
   vertex 59.1506 59.9402 397.862
   vertex 58.7495 60.0701 396.998
   vertex 58.7041 59.9445 397.749
  endloop
 endfacet
 facet normal -0.0786207 0.985022 0.153465
  outer loop
   vertex 52.7904 58.925 397.848
   vertex 54.4103 59.1674 397.122
   vertex 51.5968 59.0036 396.732
  endloop
 endfacet
 facet normal -0.13931 0.97802 0.155143
  outer loop
   vertex 58.7495 60.0701 396.998
   vertex 57.9586 59.9062 397.321
   vertex 58.7041 59.9445 397.749
  endloop
 endfacet
 facet normal -0.164206 0.983096 0.0809918
  outer loop
   vertex 57.9586 59.9062 397.321
   vertex 56.882 59.7202 397.396
   vertex 56.9466 59.6505 398.373
  endloop
 endfacet
 facet normal -0.229285 0.972309 -0.0452004
  outer loop
   vertex 56.882 59.7202 397.396
   vertex 57.4378 59.7939 396.162
   vertex 55.0248 59.2345 396.369
  endloop
 endfacet
 facet normal -0.17146 0.985019 -0.0183969
  outer loop
   vertex 57.4378 59.7939 396.162
   vertex 56.882 59.7202 397.396
   vertex 57.9586 59.9062 397.321
  endloop
 endfacet
 facet normal -0.171307 0.983838 -0.0521254
  outer loop
   vertex 54.664 59.2493 397.834
   vertex 55.0248 59.2345 396.369
   vertex 54.4103 59.1674 397.122
  endloop
 endfacet
 facet normal -0.204141 0.978937 -0.00312288
  outer loop
   vertex 57.9586 59.9062 397.321
   vertex 58.7495 60.0701 396.998
   vertex 57.4378 59.7939 396.162
  endloop
 endfacet
 facet normal -0.269638 0.953441 -0.135077
  outer loop
   vertex 54.0551 58.7819 395.11
   vertex 54.4103 59.1674 397.122
   vertex 55.0248 59.2345 396.369
  endloop
 endfacet
 facet normal -0.0289832 0.978944 -0.20206
  outer loop
   vertex 51.5968 59.0036 396.732
   vertex 54.4103 59.1674 397.122
   vertex 53.0759 58.7221 395.156
  endloop
 endfacet
 facet normal -0.225366 0.973752 0.0318925
  outer loop
   vertex 58.7495 60.0701 396.998
   vertex 58.7555 60.0971 396.216
   vertex 57.4378 59.7939 396.162
  endloop
 endfacet
 facet normal 0.0696719 0.98467 -0.15991
  outer loop
   vertex 52.042 58.6931 395.014
   vertex 51.326 58.7004 394.747
   vertex 51.5968 59.0036 396.732
  endloop
 endfacet
 facet normal -0.068247 0.982003 -0.176103
  outer loop
   vertex 53.0759 58.7221 395.156
   vertex 54.4103 59.1674 397.122
   vertex 54.0551 58.7819 395.11
  endloop
 endfacet
 facet normal -0.00306487 0.983913 -0.178622
  outer loop
   vertex 53.0759 58.7221 395.156
   vertex 52.042 58.6931 395.014
   vertex 51.5968 59.0036 396.732
  endloop
 endfacet
 facet normal -0.235174 0.961279 -0.143651
  outer loop
   vertex 56.0908 59.3608 395.469
   vertex 55.0248 59.2345 396.369
   vertex 57.4378 59.7939 396.162
  endloop
 endfacet
endsolid
