solid ascii
 facet normal -0.42466 0.0490356 -0.904024
  outer loop
   vertex 36.9672 67.0968 370.739
   vertex 37.1569 66.7485 370.631
   vertex 36.809 66.5746 370.785
  endloop
 endfacet
 facet normal -0.26966 -0.157436 -0.949999
  outer loop
   vertex 36.375 66.2801 370.957
   vertex 36.809 66.5746 370.785
   vertex 36.7461 66.1634 370.871
  endloop
 endfacet
 facet normal -0.439203 0.127901 -0.889237
  outer loop
   vertex 36.809 66.5746 370.785
   vertex 36.375 66.2801 370.957
   vertex 35.7458 66.5877 371.312
  endloop
 endfacet
 facet normal -0.442887 0.0553641 -0.894866
  outer loop
   vertex 36.809 66.5746 370.785
   vertex 35.7458 66.5877 371.312
   vertex 36.9672 67.0968 370.739
  endloop
 endfacet
 facet normal -0.477766 0.145062 -0.866428
  outer loop
   vertex 37.1021 68.5026 370.9
   vertex 36.9672 67.0968 370.739
   vertex 35.904 69.0005 371.644
  endloop
 endfacet
 facet normal -0.470598 0.150487 -0.86942
  outer loop
   vertex 35.904 69.0005 371.644
   vertex 36.9672 67.0968 370.739
   vertex 35.7458 66.5877 371.312
  endloop
 endfacet
 facet normal -0.464235 0.0694796 -0.882983
  outer loop
   vertex 36.375 66.2801 370.957
   vertex 35.0795 64.6012 371.506
   vertex 35.7458 66.5877 371.312
  endloop
 endfacet
 facet normal -0.466306 0.150523 -0.871723
  outer loop
   vertex 35.7458 66.5877 371.312
   vertex 34.753 68.0293 372.092
   vertex 35.904 69.0005 371.644
  endloop
 endfacet
 facet normal -0.475835 0.0740119 -0.876415
  outer loop
   vertex 35.0795 64.6012 371.506
   vertex 33.0173 66.6183 372.796
   vertex 35.7458 66.5877 371.312
  endloop
 endfacet
 facet normal -0.471407 0.145946 -0.869756
  outer loop
   vertex 35.7458 66.5877 371.312
   vertex 33.0173 66.6183 372.796
   vertex 34.753 68.0293 372.092
  endloop
 endfacet
 facet normal -0.523054 0.243063 -0.816906
  outer loop
   vertex 34.753 68.0293 372.092
   vertex 35.0216 69.0106 372.212
   vertex 35.904 69.0005 371.644
  endloop
 endfacet
 facet normal -0.523631 0.239018 -0.817729
  outer loop
   vertex 35.5364 69.4986 372.025
   vertex 35.904 69.0005 371.644
   vertex 35.0216 69.0106 372.212
  endloop
 endfacet
 facet normal -0.548531 0.247794 -0.798569
  outer loop
   vertex 35.0216 69.0106 372.212
   vertex 34.753 68.0293 372.092
   vertex 34.5421 68.6968 372.444
  endloop
 endfacet
 facet normal -0.628025 0.408748 -0.662201
  outer loop
   vertex 35.5364 69.4986 372.025
   vertex 35.0216 69.0106 372.212
   vertex 35.4523 69.6594 372.204
  endloop
 endfacet
 facet normal -0.53463 0.255809 -0.805439
  outer loop
   vertex 33.0173 66.6183 372.796
   vertex 34.5421 68.6968 372.444
   vertex 34.753 68.0293 372.092
  endloop
 endfacet
 facet normal -0.725199 0.475277 -0.498196
  outer loop
   vertex 35.4523 69.6594 372.204
   vertex 35.0216 69.0106 372.212
   vertex 35.1799 69.423 372.375
  endloop
 endfacet
 facet normal -0.630222 0.58916 -0.505679
  outer loop
   vertex 34.5421 68.6968 372.444
   vertex 34.7283 68.9552 372.513
   vertex 35.0216 69.0106 372.212
  endloop
 endfacet
 facet normal -0.670601 0.480716 -0.564984
  outer loop
   vertex 35.1799 69.423 372.375
   vertex 35.0216 69.0106 372.212
   vertex 34.7283 68.9552 372.513
  endloop
 endfacet
 facet normal -0.590604 0.365005 -0.719693
  outer loop
   vertex 33.0173 66.6183 372.796
   vertex 33.0013 67.0676 373.037
   vertex 33.9213 68.1264 372.819
  endloop
 endfacet
 facet normal -0.725282 0.442798 -0.527159
  outer loop
   vertex 34.5421 68.6968 372.444
   vertex 33.0173 66.6183 372.796
   vertex 33.9213 68.1264 372.819
  endloop
 endfacet
 facet normal -0.245386 0.395804 -0.884944
  outer loop
   vertex 36.6544 69.6557 371.496
   vertex 36.9748 68.8862 371.063
   vertex 36.4238 69.5373 371.507
  endloop
 endfacet
 facet normal -0.251115 0.40761 -0.87795
  outer loop
   vertex 36.4238 69.5373 371.507
   vertex 36.4201 69.8926 371.673
   vertex 36.6544 69.6557 371.496
  endloop
 endfacet
 facet normal -0.468122 0.370068 -0.802441
  outer loop
   vertex 36.4201 69.8926 371.673
   vertex 36.4238 69.5373 371.507
   vertex 35.985 69.8583 371.911
  endloop
 endfacet
 facet normal -0.425944 0.578994 -0.695225
  outer loop
   vertex 35.985 69.8583 371.911
   vertex 36.3768 70.0997 371.872
   vertex 36.4201 69.8926 371.673
  endloop
 endfacet
 facet normal 0.107281 0.700447 -0.705596
  outer loop
   vertex 36.6573 69.8623 371.679
   vertex 36.4201 69.8926 371.673
   vertex 36.3768 70.0997 371.872
  endloop
 endfacet
 facet normal 0.300259 0.789721 -0.534964
  outer loop
   vertex 36.6414 70.0858 372
   vertex 36.6573 69.8623 371.679
   vertex 36.3768 70.0997 371.872
  endloop
 endfacet
 facet normal -0.397199 0.522802 -0.754262
  outer loop
   vertex 36.1458 70.1738 372.045
   vertex 36.3768 70.0997 371.872
   vertex 35.985 69.8583 371.911
  endloop
 endfacet
 facet normal 0.310195 0.769935 -0.557654
  outer loop
   vertex 36.6414 70.0858 372
   vertex 36.3768 70.0997 371.872
   vertex 36.3856 70.22 372.043
  endloop
 endfacet
 facet normal -0.30917 -0.123051 -0.943012
  outer loop
   vertex 34.615 63.7358 371.811
   vertex 34.1085 63.5523 372.001
   vertex 34.5661 64.3491 371.747
  endloop
 endfacet
 facet normal -0.235759 -0.304743 -0.922794
  outer loop
   vertex 34.1085 63.5523 372.001
   vertex 34.615 63.7358 371.811
   vertex 34.3644 63.2938 372.021
  endloop
 endfacet
 facet normal -0.427822 -0.0421169 -0.902881
  outer loop
   vertex 33.5239 64.5814 372.23
   vertex 34.5661 64.3491 371.747
   vertex 34.1085 63.5523 372.001
  endloop
 endfacet
 facet normal -0.421122 -0.00349954 -0.906997
  outer loop
   vertex 34.5661 64.3491 371.747
   vertex 33.5239 64.5814 372.23
   vertex 34.3094 65.176 371.863
  endloop
 endfacet
 facet normal -0.451805 0.0469831 -0.890879
  outer loop
   vertex 34.3094 65.176 371.863
   vertex 33.5239 64.5814 372.23
   vertex 33.66 65.738 372.222
  endloop
 endfacet
 facet normal -0.197827 -0.26873 -0.942682
  outer loop
   vertex 33.6684 62.9643 372.261
   vertex 34.1085 63.5523 372.001
   vertex 34.3644 63.2938 372.021
  endloop
 endfacet
 facet normal -0.135844 -0.0679228 -0.988399
  outer loop
   vertex 32.8049 61.8658 372.433
   vertex 32.2768 61.7727 372.512
   vertex 32.8024 61.9876 372.425
  endloop
 endfacet
 facet normal -0.24126 0.206135 -0.948315
  outer loop
   vertex 33.0728 62.4053 372.447
   vertex 32.8024 61.9876 372.425
   vertex 32.2768 61.7727 372.512
  endloop
 endfacet
 facet normal -0.417046 0.0427749 -0.907878
  outer loop
   vertex 32.4253 65.1193 372.76
   vertex 33.66 65.738 372.222
   vertex 33.5239 64.5814 372.23
  endloop
 endfacet
 facet normal -0.481446 -0.0269931 -0.87606
  outer loop
   vertex 34.1085 63.5523 372.001
   vertex 33.6684 62.9643 372.261
   vertex 33.0536 63.2518 372.59
  endloop
 endfacet
 facet normal -0.504832 -0.0958789 -0.857877
  outer loop
   vertex 34.1085 63.5523 372.001
   vertex 32.8644 64.0992 372.672
   vertex 33.5239 64.5814 372.23
  endloop
 endfacet
 facet normal -0.116194 0.0323401 -0.9927
  outer loop
   vertex 31.9893 61.1079 372.524
   vertex 31.7308 61.1618 372.556
   vertex 32.2768 61.7727 372.512
  endloop
 endfacet
 facet normal -0.227848 0.13417 -0.964408
  outer loop
   vertex 32.2768 61.7727 372.512
   vertex 31.7308 61.1618 372.556
   vertex 31.5224 61.6057 372.667
  endloop
 endfacet
 facet normal -0.482373 -0.0229651 -0.875665
  outer loop
   vertex 33.0536 63.2518 372.59
   vertex 32.8644 64.0992 372.672
   vertex 34.1085 63.5523 372.001
  endloop
 endfacet
 facet normal -0.245734 0.212016 -0.945867
  outer loop
   vertex 32.3857 63.6924 372.914
   vertex 33.0728 62.4053 372.447
   vertex 32.2768 61.7727 372.512
  endloop
 endfacet
 facet normal -0.451605 0.134186 -0.88207
  outer loop
   vertex 32.8279 65.9615 372.682
   vertex 33.66 65.738 372.222
   vertex 32.4253 65.1193 372.76
  endloop
 endfacet
 facet normal -0.3733 -0.00221151 -0.927708
  outer loop
   vertex 31.2719 61.0189 372.741
   vertex 31.7308 61.1618 372.556
   vertex 31.5492 60.7713 372.63
  endloop
 endfacet
 facet normal -0.386492 0.0488369 -0.920999
  outer loop
   vertex 31.7308 61.1618 372.556
   vertex 31.2719 61.0189 372.741
   vertex 31.5224 61.6057 372.667
  endloop
 endfacet
 facet normal -0.482761 -0.133122 -0.865575
  outer loop
   vertex 33.5239 64.5814 372.23
   vertex 32.8644 64.0992 372.672
   vertex 32.4253 65.1193 372.76
  endloop
 endfacet
 facet normal -0.241494 0.212004 -0.946961
  outer loop
   vertex 32.2768 61.7727 372.512
   vertex 31.5224 61.6057 372.667
   vertex 32.3857 63.6924 372.914
  endloop
 endfacet
 facet normal -0.35076 0.148253 -0.924656
  outer loop
   vertex 33.0728 62.4053 372.447
   vertex 32.3857 63.6924 372.914
   vertex 33.0536 63.2518 372.59
  endloop
 endfacet
 facet normal -0.461235 -0.122635 -0.878762
  outer loop
   vertex 31.1893 60.4625 372.862
   vertex 31.2719 61.0189 372.741
   vertex 31.5492 60.7713 372.63
  endloop
 endfacet
 facet normal -0.479375 0.149055 -0.86486
  outer loop
   vertex 32.4253 65.1193 372.76
   vertex 32.0999 65.5871 373.021
   vertex 32.8279 65.9615 372.682
  endloop
 endfacet
 facet normal -0.394782 0.0528484 -0.917253
  outer loop
   vertex 31.2719 61.0189 372.741
   vertex 30.8547 61.6514 372.957
   vertex 31.5224 61.6057 372.667
  endloop
 endfacet
 facet normal -0.388759 0.118352 -0.913707
  outer loop
   vertex 31.5224 61.6057 372.667
   vertex 30.8547 61.6514 372.957
   vertex 31.306 62.5163 372.877
  endloop
 endfacet
 facet normal -0.442902 -0.0121372 -0.896488
  outer loop
   vertex 32.3857 63.6924 372.914
   vertex 32.8644 64.0992 372.672
   vertex 33.0536 63.2518 372.59
  endloop
 endfacet
 facet normal -0.166963 0.183742 -0.968691
  outer loop
   vertex 32.3857 63.6924 372.914
   vertex 31.5224 61.6057 372.667
   vertex 31.306 62.5163 372.877
  endloop
 endfacet
 facet normal -0.393024 -0.139318 -0.908913
  outer loop
   vertex 31.0348 59.9849 373.002
   vertex 31.2719 61.0189 372.741
   vertex 31.1893 60.4625 372.862
  endloop
 endfacet
 facet normal -0.535728 0.343132 -0.771529
  outer loop
   vertex 32.4023 66.2526 373.107
   vertex 32.8279 65.9615 372.682
   vertex 32.0999 65.5871 373.021
  endloop
 endfacet
 facet normal -0.388709 -0.0881894 -0.91713
  outer loop
   vertex 32.3857 63.6924 372.914
   vertex 32.4253 65.1193 372.76
   vertex 32.8644 64.0992 372.672
  endloop
 endfacet
 facet normal -0.521305 -0.0772505 -0.849867
  outer loop
   vertex 31.5588 65.0701 373.296
   vertex 32.4253 65.1193 372.76
   vertex 32.3857 63.6924 372.914
  endloop
 endfacet
 facet normal -0.527471 0.103537 -0.84324
  outer loop
   vertex 32.0999 65.5871 373.021
   vertex 32.4253 65.1193 372.76
   vertex 31.5588 65.0701 373.296
  endloop
 endfacet
 facet normal -0.245309 0.212573 -0.945852
  outer loop
   vertex 30.9008 62.8318 373.053
   vertex 31.106 63.3266 373.111
   vertex 31.306 62.5163 372.877
  endloop
 endfacet
 facet normal -0.181033 0.231334 -0.955883
  outer loop
   vertex 31.106 63.3266 373.111
   vertex 31.329 63.9929 373.23
   vertex 31.306 62.5163 372.877
  endloop
 endfacet
 facet normal -0.218178 0.230121 -0.948389
  outer loop
   vertex 32.3857 63.6924 372.914
   vertex 31.306 62.5163 372.877
   vertex 31.329 63.9929 373.23
  endloop
 endfacet
 facet normal -0.677108 0.370476 -0.635824
  outer loop
   vertex 31.5588 65.0701 373.296
   vertex 31.4747 65.6441 373.72
   vertex 32.0999 65.5871 373.021
  endloop
 endfacet
 facet normal -0.355676 -0.151259 -0.922288
  outer loop
   vertex 31.0348 59.9849 373.002
   vertex 30.458 59.8109 373.253
   vertex 31.2719 61.0189 372.741
  endloop
 endfacet
 facet normal -0.671454 0.386787 -0.632096
  outer loop
   vertex 31.4747 65.6441 373.72
   vertex 32.4023 66.2526 373.107
   vertex 32.0999 65.5871 373.021
  endloop
 endfacet
 facet normal -0.520318 0.456771 -0.721546
  outer loop
   vertex 31.4747 65.6441 373.72
   vertex 31.5588 65.0701 373.296
   vertex 31.2622 65.3167 373.666
  endloop
 endfacet
 facet normal -0.527046 0.311242 -0.790792
  outer loop
   vertex 30.9008 62.8318 373.053
   vertex 30.7706 63.5082 373.406
   vertex 31.106 63.3266 373.111
  endloop
 endfacet
 facet normal -0.254984 0.113214 -0.960295
  outer loop
   vertex 31.5588 65.0701 373.296
   vertex 32.3857 63.6924 372.914
   vertex 31.329 63.9929 373.23
  endloop
 endfacet
 facet normal -0.673299 0.399843 -0.621928
  outer loop
   vertex 31.4747 65.6441 373.72
   vertex 32.1116 66.2437 373.416
   vertex 32.4023 66.2526 373.107
  endloop
 endfacet
 facet normal -0.52707 -0.00506087 -0.849807
  outer loop
   vertex 31.2719 61.0189 372.741
   vertex 30.458 59.8109 373.253
   vertex 29.9768 59.2146 373.555
  endloop
 endfacet
 facet normal -0.66045 0.439657 -0.608693
  outer loop
   vertex 32.554 66.702 373.267
   vertex 32.4023 66.2526 373.107
   vertex 32.1116 66.2437 373.416
  endloop
 endfacet
 facet normal -0.524025 0.316615 -0.790666
  outer loop
   vertex 31.106 63.3266 373.111
   vertex 30.7706 63.5082 373.406
   vertex 31.329 63.9929 373.23
  endloop
 endfacet
 facet normal -0.652146 0.184165 -0.735383
  outer loop
   vertex 31.329 63.9929 373.23
   vertex 30.9567 64.9505 373.8
   vertex 31.5588 65.0701 373.296
  endloop
 endfacet
 facet normal -0.648153 0.281845 -0.707433
  outer loop
   vertex 31.2622 65.3167 373.666
   vertex 31.5588 65.0701 373.296
   vertex 30.9567 64.9505 373.8
  endloop
 endfacet
 facet normal -0.200389 -0.20403 -0.958236
  outer loop
   vertex 29.9768 59.2146 373.555
   vertex 29.9561 58.7512 373.658
   vertex 29.6469 58.6368 373.747
  endloop
 endfacet
 facet normal -0.535893 0.336167 -0.774474
  outer loop
   vertex 31.329 63.9929 373.23
   vertex 30.7706 63.5082 373.406
   vertex 30.5597 64.3815 373.931
  endloop
 endfacet
 facet normal -0.588417 0.232221 -0.774492
  outer loop
   vertex 31.329 63.9929 373.23
   vertex 30.5597 64.3815 373.931
   vertex 30.9567 64.9505 373.8
  endloop
 endfacet
 facet normal -0.468048 -0.0263085 -0.883311
  outer loop
   vertex 29.3174 59.0263 373.91
   vertex 29.9768 59.2146 373.555
   vertex 29.6469 58.6368 373.747
  endloop
 endfacet
 facet normal -0.456759 -0.0721548 -0.88666
  outer loop
   vertex 29.9768 59.2146 373.555
   vertex 29.3174 59.0263 373.91
   vertex 31.2719 61.0189 372.741
  endloop
 endfacet
 facet normal -0.439233 0.00436678 -0.898363
  outer loop
   vertex 29.3174 59.0263 373.91
   vertex 29.6469 58.6368 373.747
   vertex 29.1632 57.9185 373.98
  endloop
 endfacet
 facet normal -0.480851 -0.0421453 -0.875789
  outer loop
   vertex 28.9786 60.5232 374.024
   vertex 31.2719 61.0189 372.741
   vertex 29.3174 59.0263 373.91
  endloop
 endfacet
 facet normal -0.452419 0.0244845 -0.89147
  outer loop
   vertex 29.1595 58.0387 373.963
   vertex 28.8668 57.6548 374.101
   vertex 29.3174 59.0263 373.91
  endloop
 endfacet
 facet normal -0.580714 0.127648 -0.804038
  outer loop
   vertex 28.9786 60.5232 374.024
   vertex 28.1794 60.1062 374.535
   vertex 29.091 61.3621 374.076
  endloop
 endfacet
 facet normal -0.409981 0.00767377 -0.912062
  outer loop
   vertex 27.4912 58.4457 374.726
   vertex 29.3174 59.0263 373.91
   vertex 28.8668 57.6548 374.101
  endloop
 endfacet
 facet normal -0.451946 0.0395096 -0.89117
  outer loop
   vertex 27.6353 59.2053 374.771
   vertex 28.1794 60.1062 374.535
   vertex 29.3174 59.0263 373.91
  endloop
 endfacet
 facet normal -0.518433 -0.0523474 -0.853515
  outer loop
   vertex 28.1794 60.1062 374.535
   vertex 28.9786 60.5232 374.024
   vertex 29.3174 59.0263 373.91
  endloop
 endfacet
 facet normal -0.33811 0.463457 -0.819079
  outer loop
   vertex 19.7671 56.1849 378.48
   vertex 19.2826 55.5787 378.337
   vertex 19.0151 55.8236 378.586
  endloop
 endfacet
 facet normal -0.284902 0.512434 -0.810088
  outer loop
   vertex 19.2826 55.5787 378.337
   vertex 18.5944 55.2751 378.387
   vertex 19.0151 55.8236 378.586
  endloop
 endfacet
 facet normal -0.214849 0.474502 -0.853632
  outer loop
   vertex 19.0151 55.8236 378.586
   vertex 18.5944 55.2751 378.387
   vertex 18.1858 55.4895 378.609
  endloop
 endfacet
 facet normal -0.164077 0.541282 -0.824678
  outer loop
   vertex 18.5944 55.2751 378.387
   vertex 17.9097 55.1803 378.461
   vertex 18.1858 55.4895 378.609
  endloop
 endfacet
 facet normal -0.165463 0.542122 -0.823848
  outer loop
   vertex 16.7627 55.0065 378.577
   vertex 18.1858 55.4895 378.609
   vertex 17.9097 55.1803 378.461
  endloop
 endfacet
 facet normal -0.075624 0.664463 -0.743485
  outer loop
   vertex 13.8311 54.1805 378.337
   vertex 13.2638 54.0432 378.272
   vertex 13.6845 54.3227 378.479
  endloop
 endfacet
 facet normal -0.19004 0.752798 -0.630223
  outer loop
   vertex 13.6845 54.3227 378.479
   vertex 13.2638 54.0432 378.272
   vertex 13.1512 54.2383 378.539
  endloop
 endfacet
 facet normal 0.11636 -0.237804 -0.964318
  outer loop
   vertex 23.7433 45.9842 378.521
   vertex 23.0069 45.1697 378.633
   vertex 22.3942 46.496 378.232
  endloop
 endfacet
 facet normal -0.268286 -0.107942 -0.957273
  outer loop
   vertex 28.1802 56.7683 374.388
   vertex 27.7981 56.6449 374.509
   vertex 28.1952 57.2631 374.328
  endloop
 endfacet
 facet normal -0.298461 0.371718 -0.87906
  outer loop
   vertex 19.7671 56.1849 378.48
   vertex 20.4173 56.3451 378.327
   vertex 20.1188 55.396 378.027
  endloop
 endfacet
 facet normal -0.240259 0.40061 -0.884187
  outer loop
   vertex 19.2826 55.5787 378.337
   vertex 19.7671 56.1849 378.48
   vertex 20.1188 55.396 378.027
  endloop
 endfacet
 facet normal -0.281011 0.274296 -0.919671
  outer loop
   vertex 20.1188 55.396 378.027
   vertex 19.6214 52.9451 377.448
   vertex 19.2826 55.5787 378.337
  endloop
 endfacet
 facet normal -0.196322 0.290843 -0.936412
  outer loop
   vertex 18.5944 55.2751 378.387
   vertex 19.2826 55.5787 378.337
   vertex 19.6214 52.9451 377.448
  endloop
 endfacet
 facet normal -0.144913 0.314231 -0.938221
  outer loop
   vertex 19.6214 52.9451 377.448
   vertex 17.9097 55.1803 378.461
   vertex 18.5944 55.2751 378.387
  endloop
 endfacet
 facet normal 0.0939582 -0.290109 -0.95237
  outer loop
   vertex 23.7433 45.9842 378.521
   vertex 22.3942 46.496 378.232
   vertex 22.7263 47.3389 378.008
  endloop
 endfacet
 facet normal -0.0509772 0.414623 -0.908564
  outer loop
   vertex 16.2518 54.915 378.632
   vertex 14.5451 52.5051 377.628
   vertex 15.3379 54.6602 378.567
  endloop
 endfacet
 facet normal 0.0178342 0.393855 -0.918999
  outer loop
   vertex 15.3379 54.6602 378.567
   vertex 14.5451 52.5051 377.628
   vertex 14.8069 54.2503 378.381
  endloop
 endfacet
 facet normal -0.367052 0.0929897 -0.925541
  outer loop
   vertex 28.1952 57.2631 374.328
   vertex 27.4912 58.4457 374.726
   vertex 28.8668 57.6548 374.101
  endloop
 endfacet
 facet normal -0.218058 -0.484509 -0.847173
  outer loop
   vertex 22.7263 47.3389 378.008
   vertex 25.16 47.5235 377.276
   vertex 23.7433 45.9842 378.521
  endloop
 endfacet
 facet normal -0.142719 0.315822 -0.938023
  outer loop
   vertex 19.6214 52.9451 377.448
   vertex 16.7627 55.0065 378.577
   vertex 17.9097 55.1803 378.461
  endloop
 endfacet
 facet normal 0.0132192 0.394468 -0.918815
  outer loop
   vertex 13.8311 54.1805 378.337
   vertex 14.8069 54.2503 378.381
   vertex 14.5451 52.5051 377.628
  endloop
 endfacet
 facet normal 0.00107075 0.386976 -0.922089
  outer loop
   vertex 13.2638 54.0432 378.272
   vertex 14.5451 52.5051 377.628
   vertex 12.6774 54.0782 378.286
  endloop
 endfacet
 facet normal 0.0404787 0.426101 -0.903769
  outer loop
   vertex 11.9451 53.8317 378.137
   vertex 12.6774 54.0782 378.286
   vertex 14.5451 52.5051 377.628
  endloop
 endfacet
 facet normal -0.295034 0.461128 -0.836849
  outer loop
   vertex 22.8157 56.6976 377.784
   vertex 22.168 57.2015 378.29
   vertex 22.412 57.5046 378.371
  endloop
 endfacet
 facet normal -0.265199 -0.446931 -0.854355
  outer loop
   vertex 25.16 47.5235 377.276
   vertex 25.3956 46.7204 377.623
   vertex 23.7433 45.9842 378.521
  endloop
 endfacet
 facet normal 0.0101345 0.393369 -0.919325
  outer loop
   vertex 14.5451 52.5051 377.628
   vertex 13.2638 54.0432 378.272
   vertex 13.8311 54.1805 378.337
  endloop
 endfacet
 facet normal -0.558348 0.286903 -0.778418
  outer loop
   vertex 23.2155 57.7253 377.876
   vertex 22.8157 56.6976 377.784
   vertex 22.412 57.5046 378.371
  endloop
 endfacet
 facet normal -0.340495 0.411364 -0.845484
  outer loop
   vertex 22.168 57.2015 378.29
   vertex 22.8157 56.6976 377.784
   vertex 21.7236 57.1358 378.437
  endloop
 endfacet
 facet normal -0.246667 0.561893 -0.789577
  outer loop
   vertex 22.8157 56.6976 377.784
   vertex 21.1553 56.8048 378.379
   vertex 21.7236 57.1358 378.437
  endloop
 endfacet
 facet normal -0.289801 0.382019 -0.87754
  outer loop
   vertex 21.1553 56.8048 378.379
   vertex 22.8157 56.6976 377.784
   vertex 21.8093 55.3966 377.55
  endloop
 endfacet
 facet normal -0.292273 0.275655 -0.915746
  outer loop
   vertex 20.3337 54.1156 377.573
   vertex 19.6214 52.9451 377.448
   vertex 20.1188 55.396 378.027
  endloop
 endfacet
 facet normal 0.240031 -0.110152 -0.964495
  outer loop
   vertex 19.118 45.7893 377.561
   vertex 18.2732 46.5401 377.265
   vertex 20.3716 46.7435 377.764
  endloop
 endfacet
 facet normal -0.40517 -0.00740707 -0.914212
  outer loop
   vertex 28.1952 57.2631 374.328
   vertex 27.7981 56.6449 374.509
   vertex 27.6231 57.4563 374.58
  endloop
 endfacet
 facet normal -0.232684 0.254548 -0.93865
  outer loop
   vertex 16.2518 54.915 378.632
   vertex 18.3545 53.3967 377.699
   vertex 18.1947 52.1739 377.407
  endloop
 endfacet
 facet normal -0.377185 0.0858173 -0.922153
  outer loop
   vertex 28.1952 57.2631 374.328
   vertex 27.6231 57.4563 374.58
   vertex 27.4912 58.4457 374.726
  endloop
 endfacet
 facet normal -0.292976 0.380351 -0.87721
  outer loop
   vertex 21.8093 55.3966 377.55
   vertex 21.0577 55.016 377.636
   vertex 21.1553 56.8048 378.379
  endloop
 endfacet
 facet normal -0.0309322 -0.197465 -0.979822
  outer loop
   vertex 22.3134 49.7059 377.544
   vertex 22.7263 47.3389 378.008
   vertex 20.2616 51.2828 377.291
  endloop
 endfacet
 facet normal -0.264306 -0.229718 -0.936682
  outer loop
   vertex 25.16 47.5235 377.276
   vertex 22.7263 47.3389 378.008
   vertex 22.3134 49.7059 377.544
  endloop
 endfacet
 facet normal 0.0174332 -0.136251 -0.990521
  outer loop
   vertex 20.2616 51.2828 377.291
   vertex 21.7564 51.0015 377.356
   vertex 22.3134 49.7059 377.544
  endloop
 endfacet
 facet normal -0.0364128 0.386107 -0.921735
  outer loop
   vertex 18.1947 52.1739 377.407
   vertex 14.9068 51.606 377.299
   vertex 16.2518 54.915 378.632
  endloop
 endfacet
 facet normal 0.0425916 0.358373 -0.932606
  outer loop
   vertex 14.5451 52.5051 377.628
   vertex 16.2518 54.915 378.632
   vertex 14.9068 51.606 377.299
  endloop
 endfacet
 facet normal -0.232597 0.24676 -0.940749
  outer loop
   vertex 21.0577 55.016 377.636
   vertex 21.8093 55.3966 377.55
   vertex 21.5651 54.3506 377.336
  endloop
 endfacet
 facet normal 0.240818 -0.122367 -0.962826
  outer loop
   vertex 20.3716 46.7435 377.764
   vertex 18.2732 46.5401 377.265
   vertex 18.9233 48.1343 377.225
  endloop
 endfacet
 facet normal -0.144955 0.191869 -0.970657
  outer loop
   vertex 20.9884 53.2493 377.304
   vertex 19.6214 52.9451 377.448
   vertex 20.3337 54.1156 377.573
  endloop
 endfacet
 facet normal -0.660711 0.421316 -0.621252
  outer loop
   vertex 24.599 59.0028 377.271
   vertex 23.2155 57.7253 377.876
   vertex 24.2668 58.9065 377.559
  endloop
 endfacet
 facet normal 0.027316 0.455902 -0.889611
  outer loop
   vertex 14.5451 52.5051 377.628
   vertex 7.20802 51.2354 376.752
   vertex 11.3195 53.8809 378.234
  endloop
 endfacet
 facet normal -0.304092 0.391449 -0.868502
  outer loop
   vertex 23.0252 55.9152 377.358
   vertex 21.8093 55.3966 377.55
   vertex 22.8157 56.6976 377.784
  endloop
 endfacet
 facet normal -0.222992 -0.233226 -0.94651
  outer loop
   vertex 23.0287 49.6592 377.387
   vertex 22.3134 49.7059 377.544
   vertex 21.7564 51.0015 377.356
  endloop
 endfacet
 facet normal 0.127472 -0.0997431 -0.986814
  outer loop
   vertex 22.7263 47.3389 378.008
   vertex 20.3716 46.7435 377.764
   vertex 20.2616 51.2828 377.291
  endloop
 endfacet
 facet normal 0.241439 -0.094789 -0.965776
  outer loop
   vertex 20.2616 51.2828 377.291
   vertex 20.3716 46.7435 377.764
   vertex 19.8146 50.2257 377.283
  endloop
 endfacet
 facet normal -0.158368 -0.430402 -0.888636
  outer loop
   vertex 25.16 47.5235 377.276
   vertex 25.5283 47.5697 377.188
   vertex 25.3956 46.7204 377.623
  endloop
 endfacet
 facet normal -0.141966 0.0387518 -0.989113
  outer loop
   vertex 20.4137 52.0955 377.301
   vertex 20.2616 51.2828 377.291
   vertex 19.6214 52.9451 377.448
  endloop
 endfacet
 facet normal -0.166244 0.279167 -0.945742
  outer loop
   vertex 14.9068 51.606 377.299
   vertex 15.0194 49.1153 376.544
   vertex 14.5451 52.5051 377.628
  endloop
 endfacet
 facet normal 0.175172 -0.107172 -0.978687
  outer loop
   vertex 20.3716 46.7435 377.764
   vertex 18.7854 49.7853 377.147
   vertex 19.8146 50.2257 377.283
  endloop
 endfacet
 facet normal 0.334741 -0.0165543 -0.942165
  outer loop
   vertex 20.3716 46.7435 377.764
   vertex 18.9233 48.1343 377.225
   vertex 18.7854 49.7853 377.147
  endloop
 endfacet
 facet normal -0.118071 0.0613796 -0.991106
  outer loop
   vertex 19.6214 52.9451 377.448
   vertex 20.9884 53.2493 377.304
   vertex 20.4137 52.0955 377.301
  endloop
 endfacet
 facet normal 0.0306189 -0.0126604 -0.999451
  outer loop
   vertex 21.7564 51.0015 377.356
   vertex 20.4137 52.0955 377.301
   vertex 20.9884 53.2493 377.304
  endloop
 endfacet
 facet normal 0.0442017 0.00403204 -0.999014
  outer loop
   vertex 21.7564 51.0015 377.356
   vertex 20.2616 51.2828 377.291
   vertex 20.4137 52.0955 377.301
  endloop
 endfacet
 facet normal -0.214246 -0.225029 -0.950506
  outer loop
   vertex 21.7564 51.0015 377.356
   vertex 23.1323 50.6926 377.119
   vertex 23.0287 49.6592 377.387
  endloop
 endfacet
 facet normal 0.0510994 -0.0140546 -0.998595
  outer loop
   vertex 18.721 50.9375 377.217
   vertex 20.2616 51.2828 377.291
   vertex 19.8146 50.2257 377.283
  endloop
 endfacet
 facet normal -0.0143491 0.266361 -0.963766
  outer loop
   vertex 18.1947 52.1739 377.407
   vertex 15.8877 49.1948 376.618
   vertex 14.9068 51.606 377.299
  endloop
 endfacet
 facet normal 0.059309 0.311567 -0.948371
  outer loop
   vertex 14.5451 52.5051 377.628
   vertex 15.0194 49.1153 376.544
   vertex 7.20802 51.2354 376.752
  endloop
 endfacet
 facet normal 0.102872 0.0660538 -0.992499
  outer loop
   vertex 18.7854 49.7853 377.147
   vertex 18.721 50.9375 377.217
   vertex 19.8146 50.2257 377.283
  endloop
 endfacet
 facet normal 0.17822 -0.0315797 -0.983484
  outer loop
   vertex 18.9233 48.1343 377.225
   vertex 17.7823 49.7298 376.967
   vertex 18.7854 49.7853 377.147
  endloop
 endfacet
 facet normal -0.108513 0.223498 -0.968645
  outer loop
   vertex 21.8093 55.3966 377.55
   vertex 22.2764 53.6471 377.094
   vertex 21.5651 54.3506 377.336
  endloop
 endfacet
 facet normal -0.19924 0.132556 -0.970944
  outer loop
   vertex 22.2764 53.6471 377.094
   vertex 20.9884 53.2493 377.304
   vertex 21.5651 54.3506 377.336
  endloop
 endfacet
 facet normal -0.139283 -0.0704396 -0.987744
  outer loop
   vertex 21.7564 51.0015 377.356
   vertex 20.9884 53.2493 377.304
   vertex 22.2764 53.6471 377.094
  endloop
 endfacet
 facet normal -0.439894 0.136019 -0.887689
  outer loop
   vertex 29.3174 59.0263 373.91
   vertex 27.4912 58.4457 374.726
   vertex 27.6353 59.2053 374.771
  endloop
 endfacet
 facet normal -0.343259 -0.340219 -0.875457
  outer loop
   vertex 22.3134 49.7059 377.544
   vertex 24.6184 48.8831 376.96
   vertex 25.16 47.5235 377.276
  endloop
 endfacet
 facet normal -0.224518 -0.355685 -0.907237
  outer loop
   vertex 25.0223 48.2073 377.042
   vertex 25.3231 47.9715 377.06
   vertex 25.16 47.5235 377.276
  endloop
 endfacet
 facet normal -0.17028 -0.376974 -0.910437
  outer loop
   vertex 25.5283 47.5697 377.188
   vertex 25.16 47.5235 377.276
   vertex 25.3231 47.9715 377.06
  endloop
 endfacet
 facet normal 0.166782 0.147369 -0.974918
  outer loop
   vertex 18.7854 49.7853 377.147
   vertex 17.7823 49.7298 376.967
   vertex 18.1947 52.1739 377.407
  endloop
 endfacet
 facet normal 0.25021 0.0224174 -0.967932
  outer loop
   vertex 18.9233 48.1343 377.225
   vertex 17.6233 48.093 376.888
   vertex 17.7823 49.7298 376.967
  endloop
 endfacet
 facet normal 0.252681 -0.105874 -0.96174
  outer loop
   vertex 18.1741 47.3093 377.119
   vertex 17.6233 48.093 376.888
   vertex 18.9233 48.1343 377.225
  endloop
 endfacet
 facet normal 0.0546556 0.291923 -0.954879
  outer loop
   vertex 14.9068 51.606 377.299
   vertex 15.8877 49.1948 376.618
   vertex 15.0194 49.1153 376.544
  endloop
 endfacet
 facet normal -0.529061 0.292125 -0.796716
  outer loop
   vertex 22.8157 56.6976 377.784
   vertex 24.539 55.6704 376.263
   vertex 23.0252 55.9152 377.358
  endloop
 endfacet
 facet normal -0.303187 -0.0196645 -0.952728
  outer loop
   vertex 23.3711 52.0306 376.779
   vertex 22.2764 53.6471 377.094
   vertex 23.2258 53.3497 376.798
  endloop
 endfacet
 facet normal -0.318653 -0.0311845 -0.947358
  outer loop
   vertex 22.2764 53.6471 377.094
   vertex 23.3711 52.0306 376.779
   vertex 21.7564 51.0015 377.356
  endloop
 endfacet
 facet normal -0.210711 -0.205258 -0.955756
  outer loop
   vertex 23.1323 50.6926 377.119
   vertex 21.7564 51.0015 377.356
   vertex 23.3711 52.0306 376.779
  endloop
 endfacet
 facet normal -0.0699928 -0.164417 -0.983904
  outer loop
   vertex 25.0223 48.2073 377.042
   vertex 25.2356 48.5652 376.967
   vertex 25.3231 47.9715 377.06
  endloop
 endfacet
 facet normal -0.452505 -0.368955 -0.811857
  outer loop
   vertex 25.16 47.5235 377.276
   vertex 24.6184 48.8831 376.96
   vertex 25.0223 48.2073 377.042
  endloop
 endfacet
 facet normal -0.205998 0.112847 -0.972024
  outer loop
   vertex 24.6184 48.8831 376.96
   vertex 22.3134 49.7059 377.544
   vertex 23.0287 49.6592 377.387
  endloop
 endfacet
 facet normal 0.118611 0.156508 -0.980529
  outer loop
   vertex 18.1947 52.1739 377.407
   vertex 17.7823 49.7298 376.967
   vertex 17.1569 48.9633 376.769
  endloop
 endfacet
 facet normal 0.0898065 0.419511 -0.903297
  outer loop
   vertex 13.8573 49.1789 376.458
   vertex 7.20802 51.2354 376.752
   vertex 15.0194 49.1153 376.544
  endloop
 endfacet
 facet normal -0.239377 0.18454 -0.953228
  outer loop
   vertex 23.2258 53.3497 376.798
   vertex 22.2764 53.6471 377.094
   vertex 21.8093 55.3966 377.55
  endloop
 endfacet
 facet normal -0.488551 -0.131973 -0.862497
  outer loop
   vertex 24.3786 51.1504 376.343
   vertex 23.1323 50.6926 377.119
   vertex 23.3711 52.0306 376.779
  endloop
 endfacet
 facet normal -0.472723 -0.176513 -0.863352
  outer loop
   vertex 24.3786 51.1504 376.343
   vertex 23.0287 49.6592 377.387
   vertex 23.1323 50.6926 377.119
  endloop
 endfacet
 facet normal -0.305167 -0.292357 -0.906311
  outer loop
   vertex 24.6184 48.8831 376.96
   vertex 25.025 48.8214 376.843
   vertex 25.0223 48.2073 377.042
  endloop
 endfacet
 facet normal 0.143429 0.148086 -0.978519
  outer loop
   vertex 17.1569 48.9633 376.769
   vertex 15.8877 49.1948 376.618
   vertex 18.1947 52.1739 377.407
  endloop
 endfacet
 facet normal 0.280442 0.0190824 -0.959681
  outer loop
   vertex 17.1569 48.9633 376.769
   vertex 17.7823 49.7298 376.967
   vertex 17.6233 48.093 376.888
  endloop
 endfacet
 facet normal 0.284497 0.0214257 -0.958438
  outer loop
   vertex 17.6233 48.093 376.888
   vertex 16.9375 48.2521 376.688
   vertex 17.1569 48.9633 376.769
  endloop
 endfacet
 facet normal 0.244701 -0.149556 -0.957995
  outer loop
   vertex 17.6233 48.093 376.888
   vertex 16.7524 47.8083 376.71
   vertex 16.9375 48.2521 376.688
  endloop
 endfacet
 facet normal -0.582519 0.267559 -0.767518
  outer loop
   vertex 24.599 59.0028 377.271
   vertex 25.4609 59.6888 376.856
   vertex 25.8767 59.0422 376.315
  endloop
 endfacet
 facet normal -0.536103 0.27986 -0.796412
  outer loop
   vertex 23.2155 57.7253 377.876
   vertex 24.539 55.6704 376.263
   vertex 22.8157 56.6976 377.784
  endloop
 endfacet
 facet normal -0.307696 -0.342855 -0.887566
  outer loop
   vertex 23.0287 49.6592 377.387
   vertex 24.3786 51.1504 376.343
   vertex 24.8459 50.3349 376.496
  endloop
 endfacet
 facet normal -0.303393 -0.262078 -0.916115
  outer loop
   vertex 24.6184 48.8831 376.96
   vertex 24.8893 49.4643 376.704
   vertex 25.025 48.8214 376.843
  endloop
 endfacet
 facet normal 0.161481 0.0623902 -0.984902
  outer loop
   vertex 16.9375 48.2521 376.688
   vertex 16.0336 48.3346 376.545
   vertex 17.1569 48.9633 376.769
  endloop
 endfacet
 facet normal 0.136643 0.106752 -0.984852
  outer loop
   vertex 17.1569 48.9633 376.769
   vertex 16.0336 48.3346 376.545
   vertex 15.8877 49.1948 376.618
  endloop
 endfacet
 facet normal 0.145541 -0.109452 -0.983279
  outer loop
   vertex 16.9375 48.2521 376.688
   vertex 16.7524 47.8083 376.71
   vertex 16.0336 48.3346 376.545
  endloop
 endfacet
 facet normal -0.29173 0.355211 -0.888098
  outer loop
   vertex 23.0252 55.9152 377.358
   vertex 24.0096 54.451 376.449
   vertex 21.8093 55.3966 377.55
  endloop
 endfacet
 facet normal -0.570787 -0.269065 -0.775762
  outer loop
   vertex 24.4905 51.7174 376.064
   vertex 24.3786 51.1504 376.343
   vertex 23.3711 52.0306 376.779
  endloop
 endfacet
 facet normal -0.438021 0.0269901 -0.89856
  outer loop
   vertex 24.0096 54.451 376.449
   vertex 23.2258 53.3497 376.798
   vertex 21.8093 55.3966 377.55
  endloop
 endfacet
 facet normal -0.356825 -0.233191 -0.904598
  outer loop
   vertex 24.6184 48.8831 376.96
   vertex 23.0287 49.6592 377.387
   vertex 24.8459 50.3349 376.496
  endloop
 endfacet
 facet normal -0.543349 0.304987 -0.782147
  outer loop
   vertex 25.8767 59.0422 376.315
   vertex 25.4609 59.6888 376.856
   vertex 25.5935 60.0969 376.923
  endloop
 endfacet
 facet normal -0.576101 0.256327 -0.776147
  outer loop
   vertex 23.2155 57.7253 377.876
   vertex 24.599 59.0028 377.271
   vertex 25.6854 57.7625 376.055
  endloop
 endfacet
 facet normal -0.582304 0.235695 -0.778055
  outer loop
   vertex 23.2155 57.7253 377.876
   vertex 25.2664 56.3946 375.938
   vertex 24.539 55.6704 376.263
  endloop
 endfacet
 facet normal -0.579999 -0.0521702 -0.812945
  outer loop
   vertex 24.4503 52.4519 375.982
   vertex 23.3711 52.0306 376.779
   vertex 23.2258 53.3497 376.798
  endloop
 endfacet
 facet normal -0.568548 0.122754 -0.81344
  outer loop
   vertex 24.0096 54.451 376.449
   vertex 23.0252 55.9152 377.358
   vertex 24.539 55.6704 376.263
  endloop
 endfacet
 facet normal -0.558315 -0.122168 -0.820585
  outer loop
   vertex 24.4503 52.4519 375.982
   vertex 24.4905 51.7174 376.064
   vertex 23.3711 52.0306 376.779
  endloop
 endfacet
 facet normal 0.0756954 0.0970549 -0.992396
  outer loop
   vertex 15.8877 49.1948 376.618
   vertex 16.0336 48.3346 376.545
   vertex 15.0194 49.1153 376.544
  endloop
 endfacet
 facet normal 0.105145 0.135321 -0.985207
  outer loop
   vertex 14.6558 48.364 376.402
   vertex 15.0194 49.1153 376.544
   vertex 16.0336 48.3346 376.545
  endloop
 endfacet
 facet normal 0.101075 -0.084822 -0.991256
  outer loop
   vertex 14.6558 48.364 376.402
   vertex 16.0336 48.3346 376.545
   vertex 15.1327 48.0093 376.481
  endloop
 endfacet
 facet normal 0.0901203 0.142678 -0.985658
  outer loop
   vertex 15.0194 49.1153 376.544
   vertex 14.6558 48.364 376.402
   vertex 13.3092 48.6135 376.315
  endloop
 endfacet
 facet normal 0.0807427 -0.0275088 -0.996355
  outer loop
   vertex 16.0336 48.3346 376.545
   vertex 15.7274 47.7984 376.535
   vertex 15.1327 48.0093 376.481
  endloop
 endfacet
 facet normal -0.653083 0.238899 -0.718616
  outer loop
   vertex 27.6353 59.2053 374.771
   vertex 25.8767 59.0422 376.315
   vertex 25.5935 60.0969 376.923
  endloop
 endfacet
 facet normal -0.585716 0.244563 -0.772739
  outer loop
   vertex 25.8767 59.0422 376.315
   vertex 25.6854 57.7625 376.055
   vertex 24.599 59.0028 377.271
  endloop
 endfacet
 facet normal -0.57792 0.243644 -0.778875
  outer loop
   vertex 25.6854 57.7625 376.055
   vertex 25.2664 56.3946 375.938
   vertex 23.2155 57.7253 377.876
  endloop
 endfacet
 facet normal 0.0255041 0.221818 -0.974755
  outer loop
   vertex 7.20802 51.2354 376.752
   vertex 13.8573 49.1789 376.458
   vertex 13.3092 48.6135 376.315
  endloop
 endfacet
 facet normal -0.520596 0.101875 -0.847704
  outer loop
   vertex 24.8897 53.4898 375.793
   vertex 23.2258 53.3497 376.798
   vertex 24.0096 54.451 376.449
  endloop
 endfacet
 facet normal -0.519926 0.0650176 -0.851733
  outer loop
   vertex 24.4503 52.4519 375.982
   vertex 23.2258 53.3497 376.798
   vertex 24.8897 53.4898 375.793
  endloop
 endfacet
 facet normal 0.0819352 0.168998 -0.982205
  outer loop
   vertex 15.0194 49.1153 376.544
   vertex 13.3092 48.6135 376.315
   vertex 13.8573 49.1789 376.458
  endloop
 endfacet
 facet normal 0.0416296 -0.121163 -0.991759
  outer loop
   vertex 14.6558 48.364 376.402
   vertex 13.8135 48.3776 376.365
   vertex 13.3092 48.6135 376.315
  endloop
 endfacet
 facet normal -0.67293 0.186607 -0.715781
  outer loop
   vertex 25.5935 60.0969 376.923
   vertex 26.2998 60.5227 376.37
   vertex 27.6353 59.2053 374.771
  endloop
 endfacet
 facet normal -0.535914 0.10488 -0.837733
  outer loop
   vertex 24.539 55.6704 376.263
   vertex 25.0169 54.9174 375.863
   vertex 24.0096 54.451 376.449
  endloop
 endfacet
 facet normal -0.633 0.243908 -0.734724
  outer loop
   vertex 25.6854 57.7625 376.055
   vertex 25.8767 59.0422 376.315
   vertex 27.4912 58.4457 374.726
  endloop
 endfacet
 facet normal -0.531221 0.0886507 -0.842582
  outer loop
   vertex 24.8897 53.4898 375.793
   vertex 24.0096 54.451 376.449
   vertex 25.0169 54.9174 375.863
  endloop
 endfacet
 facet normal -0.659118 0.168442 -0.732933
  outer loop
   vertex 27.6353 59.2053 374.771
   vertex 27.4912 58.4457 374.726
   vertex 25.8767 59.0422 376.315
  endloop
 endfacet
 facet normal -0.2966 0.181508 -0.937594
  outer loop
   vertex 25.4753 54.1167 375.563
   vertex 25.0169 54.9174 375.863
   vertex 25.9108 54.1724 375.436
  endloop
 endfacet
 facet normal -0.440099 0.083058 -0.8941
  outer loop
   vertex 25.4753 54.1167 375.563
   vertex 24.8897 53.4898 375.793
   vertex 25.0169 54.9174 375.863
  endloop
 endfacet
 facet normal -0.560142 0.0871292 -0.823802
  outer loop
   vertex 24.8897 53.4898 375.793
   vertex 24.8377 52.6543 375.74
   vertex 24.4503 52.4519 375.982
  endloop
 endfacet
 facet normal -0.500746 -0.0728534 -0.862523
  outer loop
   vertex 24.4503 52.4519 375.982
   vertex 24.8377 52.6543 375.74
   vertex 24.7296 52.0594 375.853
  endloop
 endfacet
 facet normal -0.552612 -0.122284 -0.824419
  outer loop
   vertex 24.4503 52.4519 375.982
   vertex 24.7296 52.0594 375.853
   vertex 24.4905 51.7174 376.064
  endloop
 endfacet
 facet normal -0.508866 0.129149 -0.851103
  outer loop
   vertex 25.2664 56.3946 375.938
   vertex 25.0169 54.9174 375.863
   vertex 24.539 55.6704 376.263
  endloop
 endfacet
 facet normal -0.436415 -0.00796592 -0.89971
  outer loop
   vertex 25.9108 54.1724 375.436
   vertex 25.0169 54.9174 375.863
   vertex 25.9413 55.6657 375.408
  endloop
 endfacet
 facet normal -0.362941 0.0814821 -0.928243
  outer loop
   vertex 25.3644 53.4512 375.604
   vertex 24.8377 52.6543 375.74
   vertex 24.8897 53.4898 375.793
  endloop
 endfacet
 facet normal -0.726915 0.189262 -0.660132
  outer loop
   vertex 27.1797 61.5189 375.936
   vertex 27.5268 61.6173 375.582
   vertex 27.6353 59.2053 374.771
  endloop
 endfacet
 facet normal -0.594757 0.2476 -0.764826
  outer loop
   vertex 26.2441 57.035 375.385
   vertex 25.2664 56.3946 375.938
   vertex 25.6854 57.7625 376.055
  endloop
 endfacet
 facet normal -0.521061 0.13082 -0.843434
  outer loop
   vertex 25.9413 55.6657 375.408
   vertex 25.0169 54.9174 375.863
   vertex 25.2664 56.3946 375.938
  endloop
 endfacet
 facet normal -0.36959 0.00432167 -0.929185
  outer loop
   vertex 24.8897 53.4898 375.793
   vertex 25.4753 54.1167 375.563
   vertex 25.3644 53.4512 375.604
  endloop
 endfacet
 facet normal -0.541079 0.10565 -0.834309
  outer loop
   vertex 25.2664 56.3946 375.938
   vertex 26.2441 57.035 375.385
   vertex 25.9413 55.6657 375.408
  endloop
 endfacet
 facet normal -0.46394 -0.00714353 -0.885838
  outer loop
   vertex 25.9108 54.1724 375.436
   vertex 25.9413 55.6657 375.408
   vertex 26.2172 54.9812 375.269
  endloop
 endfacet
 facet normal -0.629436 0.206497 -0.749113
  outer loop
   vertex 27.4912 58.4457 374.726
   vertex 26.2441 57.035 375.385
   vertex 25.6854 57.7625 376.055
  endloop
 endfacet
 facet normal -0.516321 0.0572803 -0.854477
  outer loop
   vertex 27.6231 57.4563 374.58
   vertex 26.2441 57.035 375.385
   vertex 27.4912 58.4457 374.726
  endloop
 endfacet
 facet normal -0.531616 0.103452 -0.840644
  outer loop
   vertex 26.6814 56.3406 375.023
   vertex 25.9413 55.6657 375.408
   vertex 26.2441 57.035 375.385
  endloop
 endfacet
 facet normal -0.448545 0.000669932 -0.89376
  outer loop
   vertex 26.2172 54.9812 375.269
   vertex 25.9413 55.6657 375.408
   vertex 26.5466 55.389 375.104
  endloop
 endfacet
 facet normal -0.650178 0.472583 -0.594923
  outer loop
   vertex 28.9222 62.8027 374.794
   vertex 28.1215 62.4174 375.363
   vertex 28.5365 62.8033 375.216
  endloop
 endfacet
 facet normal -0.525733 0.108735 -0.843672
  outer loop
   vertex 27.6231 57.4563 374.58
   vertex 26.6814 56.3406 375.023
   vertex 26.2441 57.035 375.385
  endloop
 endfacet
 facet normal -0.64202 0.280423 -0.713564
  outer loop
   vertex 28.9222 62.8027 374.794
   vertex 29.091 61.3621 374.076
   vertex 28.1215 62.4174 375.363
  endloop
 endfacet
 facet normal -0.641353 0.281331 -0.713806
  outer loop
   vertex 29.091 61.3621 374.076
   vertex 27.5268 61.6173 375.582
   vertex 28.1215 62.4174 375.363
  endloop
 endfacet
 facet normal -0.662395 0.211819 -0.718586
  outer loop
   vertex 27.5268 61.6173 375.582
   vertex 28.1794 60.1062 374.535
   vertex 27.6353 59.2053 374.771
  endloop
 endfacet
 facet normal -0.658965 0.214858 -0.720834
  outer loop
   vertex 28.1794 60.1062 374.535
   vertex 27.5268 61.6173 375.582
   vertex 29.091 61.3621 374.076
  endloop
 endfacet
 facet normal -0.573269 0.309197 -0.758788
  outer loop
   vertex 29.9958 62.1086 373.546
   vertex 29.7444 63.6794 374.376
   vertex 30.8302 62.2863 372.988
  endloop
 endfacet
 facet normal -0.648272 0.272025 -0.711158
  outer loop
   vertex 29.9958 62.1086 373.546
   vertex 29.3107 63.3255 374.636
   vertex 29.7444 63.6794 374.376
  endloop
 endfacet
 facet normal -0.584491 0.537305 -0.608008
  outer loop
   vertex 29.4621 63.6733 374.642
   vertex 29.6752 63.9085 374.645
   vertex 29.7444 63.6794 374.376
  endloop
 endfacet
 facet normal -0.657943 0.298358 -0.691444
  outer loop
   vertex 29.4621 63.6733 374.642
   vertex 29.7444 63.6794 374.376
   vertex 29.3107 63.3255 374.636
  endloop
 endfacet
 facet normal 0.000994419 0.33778 -0.941225
  outer loop
   vertex -15.1969 50.5025 374.174
   vertex -14.6553 50.7851 374.276
   vertex -14.1115 50.4101 374.142
  endloop
 endfacet
 facet normal 0.0753757 0.34607 -0.935176
  outer loop
   vertex -12.4859 50.1051 374.115
   vertex -11.7451 50.3734 374.274
   vertex -11.3664 49.9072 374.132
  endloop
 endfacet
 facet normal 0.0812625 0.246198 -0.965807
  outer loop
   vertex -14.1115 50.4101 374.142
   vertex -13.1748 50.5677 374.261
   vertex -13.6211 50.2286 374.137
  endloop
 endfacet
 facet normal 0.0168794 0.323696 -0.946011
  outer loop
   vertex -12.4859 50.1051 374.115
   vertex -13.6211 50.2286 374.137
   vertex -13.1748 50.5677 374.261
  endloop
 endfacet
 facet normal 0.0601364 0.380762 -0.922715
  outer loop
   vertex -11.7451 50.3734 374.274
   vertex -12.4859 50.1051 374.115
   vertex -13.1748 50.5677 374.261
  endloop
 endfacet
 facet normal 0.0288961 0.312654 -0.949427
  outer loop
   vertex -10.5537 50.0052 374.189
   vertex -11.3664 49.9072 374.132
   vertex -11.7451 50.3734 374.274
  endloop
 endfacet
 facet normal 0.06569 0.0353252 -0.997215
  outer loop
   vertex -11.3664 49.9072 374.132
   vertex -10.5537 50.0052 374.189
   vertex -10.2601 49.7418 374.199
  endloop
 endfacet
 facet normal 0.0363716 0.276838 -0.960228
  outer loop
   vertex -14.6553 50.7851 374.276
   vertex -15.1969 50.5025 374.174
   vertex -16.1086 50.8234 374.232
  endloop
 endfacet
 facet normal 0.114472 0.0899993 -0.989341
  outer loop
   vertex -10.5537 50.0052 374.189
   vertex -9.47194 50.0584 374.319
   vertex -10.2601 49.7418 374.199
  endloop
 endfacet
 facet normal 0.0204938 0.309321 -0.950737
  outer loop
   vertex -9.01957 49.6688 374.202
   vertex -10.2601 49.7418 374.199
   vertex -9.47194 50.0584 374.319
  endloop
 endfacet
 facet normal 0.0624532 0.352888 -0.933579
  outer loop
   vertex -9.47194 50.0584 374.319
   vertex -8.10546 49.7875 374.308
   vertex -9.01957 49.6688 374.202
  endloop
 endfacet
 facet normal 0.0492536 0.398667 -0.915772
  outer loop
   vertex -14.6553 50.7851 374.276
   vertex -13.1748 50.5677 374.261
   vertex -14.1115 50.4101 374.142
  endloop
 endfacet
 facet normal 0.0809538 0.240501 -0.967267
  outer loop
   vertex -6.70643 49.409 374.331
   vertex -9.01957 49.6688 374.202
   vertex -8.10546 49.7875 374.308
  endloop
 endfacet
 facet normal -0.00493367 0.357511 -0.933896
  outer loop
   vertex -16.1086 50.8234 374.232
   vertex -19.2198 51.2402 374.408
   vertex -18.4091 51.5988 374.541
  endloop
 endfacet
 facet normal 0.0124371 0.401778 -0.915653
  outer loop
   vertex -18.4091 51.5988 374.541
   vertex -16.9306 51.43 374.487
   vertex -16.1086 50.8234 374.232
  endloop
 endfacet
 facet normal -0.0140015 0.0181107 -0.999738
  outer loop
   vertex -21.0764 51.5028 374.54
   vertex -20.1762 51.6462 374.53
   vertex -20.2951 51.278 374.525
  endloop
 endfacet
 facet normal -0.0285244 0.109711 -0.993554
  outer loop
   vertex -20.1762 51.6462 374.53
   vertex -21.0764 51.5028 374.54
   vertex -21.2381 51.7866 374.576
  endloop
 endfacet
 facet normal -0.106386 0.0478542 -0.993173
  outer loop
   vertex -19.2198 51.2402 374.408
   vertex -20.2951 51.278 374.525
   vertex -20.1762 51.6462 374.53
  endloop
 endfacet
 facet normal -0.113549 -0.335886 -0.935033
  outer loop
   vertex -20.2951 51.278 374.525
   vertex -19.2198 51.2402 374.408
   vertex -19.5503 51.0596 374.513
  endloop
 endfacet
 facet normal 0.0926606 0.354411 -0.930488
  outer loop
   vertex 7.20802 51.2354 376.752
   vertex 8.08413 53.1513 377.569
   vertex 9.25473 53.3126 377.747
  endloop
 endfacet
 facet normal 0.0918778 0.492296 -0.865565
  outer loop
   vertex 7.31633 53.3048 377.651
   vertex 6.51273 52.8939 377.332
   vertex 6.52067 53.2142 377.515
  endloop
 endfacet
 facet normal 0.04458 0.494786 -0.867871
  outer loop
   vertex 5.87274 53.1971 377.472
   vertex 6.52067 53.2142 377.515
   vertex 6.51273 52.8939 377.332
  endloop
 endfacet
 facet normal 0.0627528 0.524481 -0.849106
  outer loop
   vertex 5.19527 52.8087 377.182
   vertex 5.87274 53.1971 377.472
   vertex 6.51273 52.8939 377.332
  endloop
 endfacet
 facet normal 0.0283887 0.57776 -0.815713
  outer loop
   vertex 6.51273 52.8939 377.332
   vertex 7.31633 53.3048 377.651
   vertex 8.08413 53.1513 377.569
  endloop
 endfacet
 facet normal 0.0813742 0.359233 -0.929693
  outer loop
   vertex 8.08413 53.1513 377.569
   vertex 7.20802 51.2354 376.752
   vertex 6.51273 52.8939 377.332
  endloop
 endfacet
 facet normal 0.066228 0.456869 -0.887065
  outer loop
   vertex 5.19527 52.8087 377.182
   vertex 3.75097 52.8297 377.085
   vertex 4.28556 53.0765 377.252
  endloop
 endfacet
 facet normal 0.0825585 0.359638 -0.929432
  outer loop
   vertex 5.19527 52.8087 377.182
   vertex 6.51273 52.8939 377.332
   vertex 7.20802 51.2354 376.752
  endloop
 endfacet
 facet normal 0.0679188 0.342949 -0.936895
  outer loop
   vertex 3.75097 52.8297 377.085
   vertex 5.19527 52.8087 377.182
   vertex 7.20802 51.2354 376.752
  endloop
 endfacet
 facet normal 0.149445 0.416374 -0.896827
  outer loop
   vertex 2.812 52.9613 377.134
   vertex -0.136241 48.9492 374.78
   vertex 1.9638 52.6777 376.861
  endloop
 endfacet
 facet normal 0.0280187 0.47509 -0.879491
  outer loop
   vertex -0.136241 48.9492 374.78
   vertex 1.01597 52.878 376.939
   vertex 1.9638 52.6777 376.861
  endloop
 endfacet
 facet normal 0.0890195 0.454572 -0.886251
  outer loop
   vertex -0.136241 48.9492 374.78
   vertex 2.812 52.9613 377.134
   vertex 3.68965 51.6567 376.553
  endloop
 endfacet
 facet normal 0.153117 0.441057 -0.884321
  outer loop
   vertex 1.01597 52.878 376.939
   vertex -0.136241 48.9492 374.78
   vertex 0.203591 52.7169 376.718
  endloop
 endfacet
 facet normal 0.115142 0.666677 -0.736399
  outer loop
   vertex -2.38454 52.7284 376.441
   vertex -1.92088 52.8825 376.653
   vertex -1.37894 52.6033 376.485
  endloop
 endfacet
 facet normal 0.103509 0.413389 -0.904652
  outer loop
   vertex 7.20802 51.2354 376.752
   vertex 5.16013 49.0477 375.518
   vertex 3.75097 52.8297 377.085
  endloop
 endfacet
 facet normal 0.133407 0.389226 -0.911431
  outer loop
   vertex 5.16013 49.0477 375.518
   vertex 7.20802 51.2354 376.752
   vertex 6.59708 48.8947 375.663
  endloop
 endfacet
 facet normal 0.105122 0.43657 -0.893508
  outer loop
   vertex -0.136241 48.9492 374.78
   vertex 3.68965 51.6567 376.553
   vertex 3.72392 50.1237 375.808
  endloop
 endfacet
 facet normal 0.104179 0.408552 -0.90677
  outer loop
   vertex 0.203591 52.7169 376.718
   vertex -3.4806 50.6801 375.377
   vertex -1.37894 52.6033 376.485
  endloop
 endfacet
 facet normal 0.0917274 0.419934 -0.902907
  outer loop
   vertex -1.37894 52.6033 376.485
   vertex -3.4806 50.6801 375.377
   vertex -2.38454 52.7284 376.441
  endloop
 endfacet
 facet normal 0.0763153 0.427163 -0.900948
  outer loop
   vertex -3.17715 52.8552 376.434
   vertex -2.38454 52.7284 376.441
   vertex -3.4806 50.6801 375.377
  endloop
 endfacet
 facet normal 0.0791022 0.403465 -0.91157
  outer loop
   vertex 8.52189 49.3872 376.048
   vertex 6.59708 48.8947 375.663
   vertex 7.20802 51.2354 376.752
  endloop
 endfacet
 facet normal 0.134936 0.421766 -0.896608
  outer loop
   vertex 5.16013 49.0477 375.518
   vertex 3.72392 50.1237 375.808
   vertex 3.75097 52.8297 377.085
  endloop
 endfacet
 facet normal 0.162522 0.607911 -0.777194
  outer loop
   vertex -14.0116 53.6862 375.967
   vertex -13.3757 53.7284 376.133
   vertex -13.2969 53.3187 375.829
  endloop
 endfacet
 facet normal 0.0550149 0.430189 -0.901061
  outer loop
   vertex -4.12565 52.7189 376.311
   vertex -3.17715 52.8552 376.434
   vertex -3.4806 50.6801 375.377
  endloop
 endfacet
 facet normal 0.124761 0.260771 -0.957305
  outer loop
   vertex 7.74365 48.6912 375.757
   vertex 6.59708 48.8947 375.663
   vertex 8.52189 49.3872 376.048
  endloop
 endfacet
 facet normal 0.0953693 0.515596 -0.851508
  outer loop
   vertex -9.47194 50.0584 374.319
   vertex -10.7472 53.2455 376.106
   vertex -8.10546 49.7875 374.308
  endloop
 endfacet
 facet normal 0.0495995 0.485083 -0.873061
  outer loop
   vertex -3.4806 50.6801 375.377
   vertex 0.203591 52.7169 376.718
   vertex -3.13296 49.1705 374.558
  endloop
 endfacet
 facet normal 0.0421838 0.42209 -0.905572
  outer loop
   vertex -15.387 53.9438 376.023
   vertex -14.0116 53.6862 375.967
   vertex -13.2969 53.3187 375.829
  endloop
 endfacet
 facet normal 0.0287289 0.445795 -0.894674
  outer loop
   vertex -4.12565 52.7189 376.311
   vertex -4.77949 51.0993 375.483
   vertex -5.05794 52.9275 376.385
  endloop
 endfacet
 facet normal 0.0722759 0.454865 -0.887623
  outer loop
   vertex -10.7472 53.2455 376.106
   vertex -7.2003 52.8751 376.205
   vertex -5.87169 51.1497 375.429
  endloop
 endfacet
 facet normal 0.064493 0.435103 -0.898068
  outer loop
   vertex -4.77949 51.0993 375.483
   vertex -5.87169 51.1497 375.429
   vertex -5.68553 52.7032 376.195
  endloop
 endfacet
 facet normal 0.120691 0.215157 -0.969093
  outer loop
   vertex 6.59708 48.8947 375.663
   vertex 5.29252 48.6221 375.44
   vertex 5.16013 49.0477 375.518
  endloop
 endfacet
 facet normal 0.0675752 0.49482 -0.866364
  outer loop
   vertex -13.2969 53.3187 375.829
   vertex -14.6553 50.7851 374.276
   vertex -15.387 53.9438 376.023
  endloop
 endfacet
 facet normal 0.135769 0.448657 -0.883331
  outer loop
   vertex -17.1226 54.3439 376.133
   vertex -16.2645 54.2083 376.196
   vertex -18.4091 51.5988 374.541
  endloop
 endfacet
 facet normal 0.0913521 0.512771 -0.853651
  outer loop
   vertex -11.5251 53.464 376.154
   vertex -10.7472 53.2455 376.106
   vertex -11.7451 50.3734 374.274
  endloop
 endfacet
 facet normal 0.149998 0.223187 -0.963166
  outer loop
   vertex 5.16013 49.0477 375.518
   vertex 5.29252 48.6221 375.44
   vertex 3.88754 48.7377 375.248
  endloop
 endfacet
 facet normal 0.0663342 0.432839 -0.899027
  outer loop
   vertex -4.77949 51.0993 375.483
   vertex -4.12565 52.7189 376.311
   vertex -3.4806 50.6801 375.377
  endloop
 endfacet
 facet normal 0.101524 0.382979 -0.918161
  outer loop
   vertex 3.88754 48.7377 375.248
   vertex 3.72392 50.1237 375.808
   vertex 5.16013 49.0477 375.518
  endloop
 endfacet
 facet normal 0.117294 0.407275 -0.905743
  outer loop
   vertex 3.72392 50.1237 375.808
   vertex 1.26633 48.9389 374.957
   vertex -0.136241 48.9492 374.78
  endloop
 endfacet
 facet normal 0.0945265 0.498297 -0.861838
  outer loop
   vertex -5.87169 51.1497 375.429
   vertex -6.70643 49.409 374.331
   vertex -10.7472 53.2455 376.106
  endloop
 endfacet
 facet normal 0.0490054 0.466526 -0.883149
  outer loop
   vertex -17.1226 54.3439 376.133
   vertex -21.1174 52.3821 374.875
   vertex -18.9899 54.3375 376.026
  endloop
 endfacet
 facet normal 0.0658926 0.506592 -0.859664
  outer loop
   vertex -5.87169 51.1497 375.429
   vertex -4.77949 51.0993 375.483
   vertex -5.79824 49.5043 374.465
  endloop
 endfacet
 facet normal 0.0915074 0.38233 -0.919483
  outer loop
   vertex 2.16597 48.7121 375.066
   vertex 3.72392 50.1237 375.808
   vertex 3.88754 48.7377 375.248
  endloop
 endfacet
 facet normal 0.18642 0.287999 -0.93931
  outer loop
   vertex 1.26633 48.9389 374.957
   vertex 3.72392 50.1237 375.808
   vertex 2.16597 48.7121 375.066
  endloop
 endfacet
 facet normal 0.121724 0.47046 -0.873985
  outer loop
   vertex -11.5251 53.464 376.154
   vertex -14.6553 50.7851 374.276
   vertex -13.2969 53.3187 375.829
  endloop
 endfacet
 facet normal -0.00404203 0.537956 -0.842963
  outer loop
   vertex -16.2645 54.2083 376.196
   vertex -15.387 53.9438 376.023
   vertex -18.4091 51.5988 374.541
  endloop
 endfacet
 facet normal 0.0458059 0.471467 -0.880693
  outer loop
   vertex -17.1226 54.3439 376.133
   vertex -20.1762 51.6462 374.53
   vertex -21.1174 52.3821 374.875
  endloop
 endfacet
 facet normal 0.0891483 0.494782 -0.864433
  outer loop
   vertex -5.79824 49.5043 374.465
   vertex -4.77949 51.0993 375.483
   vertex -3.4806 50.6801 375.377
  endloop
 endfacet
 facet normal 0.0144436 0.318825 -0.947703
  outer loop
   vertex -18.4091 51.5988 374.541
   vertex -19.2198 51.2402 374.408
   vertex -20.1762 51.6462 374.53
  endloop
 endfacet
 facet normal 0.0776331 0.514091 -0.854215
  outer loop
   vertex -11.7451 50.3734 374.274
   vertex -13.1748 50.5677 374.261
   vertex -11.5251 53.464 376.154
  endloop
 endfacet
 facet normal 0.0675119 0.518625 -0.852332
  outer loop
   vertex -14.6553 50.7851 374.276
   vertex -11.5251 53.464 376.154
   vertex -13.1748 50.5677 374.261
  endloop
 endfacet
 facet normal 0.082426 0.460693 -0.883724
  outer loop
   vertex -3.13296 49.1705 374.558
   vertex 0.203591 52.7169 376.718
   vertex -2.28519 49.2202 374.663
  endloop
 endfacet
 facet normal 0.0735957 0.506575 -0.859049
  outer loop
   vertex -6.70643 49.409 374.331
   vertex -5.87169 51.1497 375.429
   vertex -5.79824 49.5043 374.465
  endloop
 endfacet
 facet normal 0.162238 0.549934 -0.8193
  outer loop
   vertex -6.70643 49.409 374.331
   vertex -8.10546 49.7875 374.308
   vertex -10.7472 53.2455 376.106
  endloop
 endfacet
 facet normal 0.125953 0.444757 -0.886751
  outer loop
   vertex -0.136241 48.9492 374.78
   vertex -1.11133 49.3031 374.819
   vertex 0.203591 52.7169 376.718
  endloop
 endfacet
 facet normal 0.0850973 0.459123 -0.884288
  outer loop
   vertex -1.11133 49.3031 374.819
   vertex -2.28519 49.2202 374.663
   vertex 0.203591 52.7169 376.718
  endloop
 endfacet
 facet normal 0.0186785 0.495031 -0.868674
  outer loop
   vertex -18.4091 51.5988 374.541
   vertex -20.1762 51.6462 374.53
   vertex -17.1226 54.3439 376.133
  endloop
 endfacet
 facet normal 0.0937471 0.488226 -0.867668
  outer loop
   vertex -3.4806 50.6801 375.377
   vertex -4.23737 49.2419 374.486
   vertex -5.79824 49.5043 374.465
  endloop
 endfacet
 facet normal 0.0267268 0.509213 -0.860225
  outer loop
   vertex -15.387 53.9438 376.023
   vertex -16.9306 51.43 374.487
   vertex -18.4091 51.5988 374.541
  endloop
 endfacet
 facet normal 0.0882512 0.490633 -0.866886
  outer loop
   vertex -4.23737 49.2419 374.486
   vertex -3.4806 50.6801 375.377
   vertex -3.13296 49.1705 374.558
  endloop
 endfacet
 facet normal 0.0392877 0.490565 -0.870518
  outer loop
   vertex -14.6553 50.7851 374.276
   vertex -16.1086 50.8234 374.232
   vertex -15.387 53.9438 376.023
  endloop
 endfacet
 facet normal 0.084474 0.481254 -0.872501
  outer loop
   vertex -16.9306 51.43 374.487
   vertex -15.387 53.9438 376.023
   vertex -16.1086 50.8234 374.232
  endloop
 endfacet
 facet normal 0.097017 0.511059 -0.854053
  outer loop
   vertex -10.7472 53.2455 376.106
   vertex -10.5537 50.0052 374.189
   vertex -11.7451 50.3734 374.274
  endloop
 endfacet
 facet normal 0.0818393 0.32916 -0.940721
  outer loop
   vertex -0.136241 48.9492 374.78
   vertex -1.5785 48.9877 374.668
   vertex -1.11133 49.3031 374.819
  endloop
 endfacet
 facet normal 0.0777413 0.51107 -0.856016
  outer loop
   vertex -10.7472 53.2455 376.106
   vertex -9.47194 50.0584 374.319
   vertex -10.5537 50.0052 374.189
  endloop
 endfacet
 facet normal 0.104973 0.298653 -0.948571
  outer loop
   vertex -1.11133 49.3031 374.819
   vertex -1.5785 48.9877 374.668
   vertex -2.28519 49.2202 374.663
  endloop
 endfacet
 facet normal 0.0127955 0.600028 -0.799877
  outer loop
   vertex -49.1026 66.8171 379.939
   vertex -49.3905 66.5833 379.759
   vertex -49.5769 66.9432 380.026
  endloop
 endfacet
 facet normal -0.0882301 0.563609 -0.821316
  outer loop
   vertex -49.5769 66.9432 380.026
   vertex -49.3905 66.5833 379.759
   vertex -49.9896 67.0957 380.175
  endloop
 endfacet
 facet normal 0.0125276 0.600239 -0.799723
  outer loop
   vertex -48.6294 66.6247 379.802
   vertex -49.3905 66.5833 379.759
   vertex -49.1026 66.8171 379.939
  endloop
 endfacet
 facet normal 0.122217 0.707763 -0.695797
  outer loop
   vertex -49.3905 66.5833 379.759
   vertex -50.6824 67.1082 380.066
   vertex -49.9896 67.0957 380.175
  endloop
 endfacet
 facet normal 0.0304268 0.394469 -0.918405
  outer loop
   vertex -48.6294 66.6247 379.802
   vertex -48.0081 66.4324 379.74
   vertex -49.3905 66.5833 379.759
  endloop
 endfacet
 facet normal -0.0747435 0.47937 -0.874424
  outer loop
   vertex -50.7151 65.1823 379.013
   vertex -52.4928 66.1583 379.7
   vertex -50.6824 67.1082 380.066
  endloop
 endfacet
 facet normal 0.0360285 0.442944 -0.895825
  outer loop
   vertex -48.0081 66.4324 379.74
   vertex -50.7151 65.1823 379.013
   vertex -49.3905 66.5833 379.759
  endloop
 endfacet
 facet normal -0.0134947 0.479868 -0.877237
  outer loop
   vertex -50.6824 67.1082 380.066
   vertex -49.3905 66.5833 379.759
   vertex -50.7151 65.1823 379.013
  endloop
 endfacet
 facet normal 0.185131 0.613045 -0.768051
  outer loop
   vertex -46.3026 65.6432 379.266
   vertex -45.647 65.4352 379.258
   vertex -45.7202 65.0965 378.97
  endloop
 endfacet
 facet normal 0.131581 0.625481 -0.769065
  outer loop
   vertex -45.7202 65.0965 378.97
   vertex -45.647 65.4352 379.258
   vertex -44.7414 64.9238 378.997
  endloop
 endfacet
 facet normal 0.0604917 0.524301 -0.849382
  outer loop
   vertex -47.0758 65.9009 379.37
   vertex -46.3026 65.6432 379.266
   vertex -45.7202 65.0965 378.97
  endloop
 endfacet
 facet normal -0.136159 0.339864 -0.930566
  outer loop
   vertex -50.6807 64.8839 378.899
   vertex -51.3091 65.4974 379.215
   vertex -50.7151 65.1823 379.013
  endloop
 endfacet
 facet normal 0.195789 0.692939 -0.693904
  outer loop
   vertex -44.0262 64.7157 378.991
   vertex -44.1698 64.569 378.804
   vertex -44.7414 64.9238 378.997
  endloop
 endfacet
 facet normal 0.0484051 0.421728 -0.905429
  outer loop
   vertex -48.0081 66.4324 379.74
   vertex -50.0984 64.4438 378.702
   vertex -50.7151 65.1823 379.013
  endloop
 endfacet
 facet normal -0.0507069 0.351359 -0.934867
  outer loop
   vertex -50.0984 64.4438 378.702
   vertex -50.6807 64.8839 378.899
   vertex -50.7151 65.1823 379.013
  endloop
 endfacet
 facet normal 0.0354753 0.492259 -0.869726
  outer loop
   vertex -45.7202 65.0965 378.97
   vertex -46.6355 64.537 378.616
   vertex -47.0758 65.9009 379.37
  endloop
 endfacet
 facet normal 0.194401 0.703326 -0.68377
  outer loop
   vertex -44.1698 64.569 378.804
   vertex -43.5677 64.458 378.861
   vertex -43.0107 64.0124 378.561
  endloop
 endfacet
 facet normal 0.0575789 0.547087 -0.835093
  outer loop
   vertex -45.1384 64.268 378.54
   vertex -44.7414 64.9238 378.997
   vertex -44.1698 64.569 378.804
  endloop
 endfacet
 facet normal 0.115116 0.520082 -0.846323
  outer loop
   vertex -44.7414 64.9238 378.997
   vertex -45.1384 64.268 378.54
   vertex -45.7202 65.0965 378.97
  endloop
 endfacet
 facet normal 0.0425202 0.4836 -0.874256
  outer loop
   vertex -45.1384 64.268 378.54
   vertex -46.6355 64.537 378.616
   vertex -45.7202 65.0965 378.97
  endloop
 endfacet
 facet normal -0.0458834 0.49972 -0.864971
  outer loop
   vertex -50.0984 64.4438 378.702
   vertex -48.0081 66.4324 379.74
   vertex -48.2394 64 378.347
  endloop
 endfacet
 facet normal -0.0215003 0.498386 -0.866689
  outer loop
   vertex -46.6355 64.537 378.616
   vertex -48.2394 64 378.347
   vertex -48.0081 66.4324 379.74
  endloop
 endfacet
 facet normal 0.0989802 0.456794 -0.884049
  outer loop
   vertex -45.1384 64.268 378.54
   vertex -44.1698 64.569 378.804
   vertex -44.4741 62.1384 377.514
  endloop
 endfacet
 facet normal 0.037315 0.45849 -0.887916
  outer loop
   vertex -46.6355 64.537 378.616
   vertex -45.1384 64.268 378.54
   vertex -46.4267 63.5033 378.091
  endloop
 endfacet
 facet normal -0.00193665 0.452511 -0.891757
  outer loop
   vertex -46.4267 63.5033 378.091
   vertex -48.2394 64 378.347
   vertex -46.6355 64.537 378.616
  endloop
 endfacet
 facet normal -0.0785786 0.375159 -0.923624
  outer loop
   vertex -48.2412 63.4063 378.106
   vertex -49.1606 63.9622 378.41
   vertex -48.2394 64 378.347
  endloop
 endfacet
 facet normal -0.0774147 0.303184 -0.949782
  outer loop
   vertex -49.5182 64.275 378.539
   vertex -48.2394 64 378.347
   vertex -49.1606 63.9622 378.41
  endloop
 endfacet
 facet normal 0.0888007 0.469972 -0.878203
  outer loop
   vertex -43.2906 63.0805 378.034
   vertex -43.0107 64.0124 378.561
   vertex -42.0282 63.539 378.407
  endloop
 endfacet
 facet normal 0.0473901 0.480883 -0.875503
  outer loop
   vertex -44.1698 64.569 378.804
   vertex -43.0107 64.0124 378.561
   vertex -43.2906 63.0805 378.034
  endloop
 endfacet
 facet normal 0.0165877 0.467107 -0.884045
  outer loop
   vertex -44.4741 62.1384 377.514
   vertex -44.1698 64.569 378.804
   vertex -43.2906 63.0805 378.034
  endloop
 endfacet
 facet normal 0.169316 0.542545 -0.822786
  outer loop
   vertex -40.6031 62.9867 378.339
   vertex -41.009 62.8025 378.134
   vertex -41.3255 63.3987 378.462
  endloop
 endfacet
 facet normal 0.169898 0.523738 -0.834766
  outer loop
   vertex -41.3255 63.3987 378.462
   vertex -41.8782 63.0839 378.152
   vertex -42.0282 63.539 378.407
  endloop
 endfacet
 facet normal 0.0706485 0.505219 -0.860095
  outer loop
   vertex -43.2906 63.0805 378.034
   vertex -42.0282 63.539 378.407
   vertex -41.8782 63.0839 378.152
  endloop
 endfacet
 facet normal 0.157295 0.538817 -0.827608
  outer loop
   vertex -41.009 62.8025 378.134
   vertex -41.8782 63.0839 378.152
   vertex -41.3255 63.3987 378.462
  endloop
 endfacet
 facet normal 0.0734183 0.446901 -0.891566
  outer loop
   vertex -41.8782 63.0839 378.152
   vertex -42.0075 62.4867 377.842
   vertex -43.2906 63.0805 378.034
  endloop
 endfacet
 facet normal 0.12274 0.436166 -0.891456
  outer loop
   vertex -42.0075 62.4867 377.842
   vertex -41.8782 63.0839 378.152
   vertex -41.009 62.8025 378.134
  endloop
 endfacet
 facet normal 0.0646451 0.430724 -0.900165
  outer loop
   vertex -42.0075 62.4867 377.842
   vertex -43.6389 61.4776 377.242
   vertex -43.2906 63.0805 378.034
  endloop
 endfacet
 facet normal 0.0471889 0.445461 -0.894057
  outer loop
   vertex -44.4741 62.1384 377.514
   vertex -46.4267 63.5033 378.091
   vertex -45.1384 64.268 378.54
  endloop
 endfacet
 facet normal -0.0229974 0.390393 -0.920361
  outer loop
   vertex -48.2394 64 378.347
   vertex -46.4267 63.5033 378.091
   vertex -47.4132 62.9902 377.898
  endloop
 endfacet
 facet normal -0.0436138 0.375874 -0.925644
  outer loop
   vertex -48.2394 64 378.347
   vertex -47.4132 62.9902 377.898
   vertex -48.2412 63.4063 378.106
  endloop
 endfacet
 facet normal -0.170401 0.147857 -0.974219
  outer loop
   vertex -47.4132 62.9902 377.898
   vertex -48.0614 63.0141 378.015
   vertex -48.2412 63.4063 378.106
  endloop
 endfacet
 facet normal -0.166639 0.203616 -0.964765
  outer loop
   vertex -48.0614 63.0141 378.015
   vertex -47.4132 62.9902 377.898
   vertex -47.2288 62.5393 377.771
  endloop
 endfacet
 facet normal 0.00279132 0.39276 -0.919637
  outer loop
   vertex -44.4741 62.1384 377.514
   vertex -46.235 62.4764 377.653
   vertex -46.4267 63.5033 378.091
  endloop
 endfacet
 facet normal -0.0220008 0.388748 -0.921082
  outer loop
   vertex -46.235 62.4764 377.653
   vertex -47.4132 62.9902 377.898
   vertex -46.4267 63.5033 378.091
  endloop
 endfacet
 facet normal 0.000376753 0.382035 -0.924148
  outer loop
   vertex -46.235 62.4764 377.653
   vertex -44.4741 62.1384 377.514
   vertex -45.4361 61.97 377.444
  endloop
 endfacet
 facet normal -0.127042 0.174286 -0.976465
  outer loop
   vertex -46.235 62.4764 377.653
   vertex -46.8582 62.2126 377.687
   vertex -47.4132 62.9902 377.898
  endloop
 endfacet
 facet normal 0.0500939 0.43365 -0.899688
  outer loop
   vertex -43.6389 61.4776 377.242
   vertex -44.4741 62.1384 377.514
   vertex -43.2906 63.0805 378.034
  endloop
 endfacet
 facet normal -0.178972 0.302139 -0.936312
  outer loop
   vertex -46.235 62.4764 377.653
   vertex -46.3863 62.0675 377.55
   vertex -46.8582 62.2126 377.687
  endloop
 endfacet
 facet normal 0.0175132 0.296867 -0.954758
  outer loop
   vertex -44.4741 62.1384 377.514
   vertex -45.0942 61.1619 377.199
   vertex -45.4361 61.97 377.444
  endloop
 endfacet
 facet normal -0.0431418 0.273102 -0.961017
  outer loop
   vertex -45.0942 61.1619 377.199
   vertex -45.5014 61.5093 377.316
   vertex -45.4361 61.97 377.444
  endloop
 endfacet
 facet normal -0.389818 -0.150958 -0.908435
  outer loop
   vertex -45.0942 61.1619 377.199
   vertex -45.3967 61.227 377.318
   vertex -45.5014 61.5093 377.316
  endloop
 endfacet
 facet normal -0.0612658 -0.185466 -0.980739
  outer loop
   vertex 26.424 43.7158 379.079
   vertex 25.3978 44.15 379.061
   vertex 25.7981 44.3615 378.996
  endloop
 endfacet
 facet normal -0.108843 -0.231661 -0.966688
  outer loop
   vertex 25.7981 44.3615 378.996
   vertex 24.8951 44.6481 379.029
   vertex 25.14 44.8919 378.943
  endloop
 endfacet
 facet normal -0.0825676 -0.146683 -0.985732
  outer loop
   vertex 24.8951 44.6481 379.029
   vertex 25.7981 44.3615 378.996
   vertex 25.3978 44.15 379.061
  endloop
 endfacet
 facet normal 0.038368 0.139213 -0.989519
  outer loop
   vertex 24.8951 44.6481 379.029
   vertex 24.5543 43.9531 378.918
   vertex 24.3826 44.7041 379.017
  endloop
 endfacet
 facet normal -0.00928228 -0.289911 -0.957009
  outer loop
   vertex 24.8951 44.6481 379.029
   vertex 24.3826 44.7041 379.017
   vertex 24.0513 45.299 378.84
  endloop
 endfacet
 facet normal 0.31182 0.193904 -0.930145
  outer loop
   vertex 24.3826 44.7041 379.017
   vertex 24.5543 43.9531 378.918
   vertex 23.7322 44.9538 378.851
  endloop
 endfacet
 facet normal 0.147179 0.0852042 -0.985433
  outer loop
   vertex 24.5543 43.9531 378.918
   vertex 24.8951 44.6481 379.029
   vertex 25.3978 44.15 379.061
  endloop
 endfacet
 facet normal 0.146553 0.0877875 -0.9853
  outer loop
   vertex 24.5543 43.9531 378.918
   vertex 25.3978 44.15 379.061
   vertex 25.3854 43.1267 378.968
  endloop
 endfacet
 facet normal -0.317576 -0.511319 -0.79856
  outer loop
   vertex 25.7981 44.3615 378.996
   vertex 25.3789 45.4699 378.453
   vertex 26.334 45.061 378.335
  endloop
 endfacet
 facet normal -0.352899 -0.515878 -0.780597
  outer loop
   vertex 25.14 44.8919 378.943
   vertex 25.3789 45.4699 378.453
   vertex 25.7981 44.3615 378.996
  endloop
 endfacet
 facet normal -0.00106453 -0.331705 -0.943383
  outer loop
   vertex 25.14 44.8919 378.943
   vertex 24.8951 44.6481 379.029
   vertex 24.5187 45.4485 378.748
  endloop
 endfacet
 facet normal -0.0684196 -0.358975 -0.930836
  outer loop
   vertex 24.0513 45.299 378.84
   vertex 24.5187 45.4485 378.748
   vertex 24.8951 44.6481 379.029
  endloop
 endfacet
 facet normal 0.173251 -0.190987 -0.966182
  outer loop
   vertex 24.3826 44.7041 379.017
   vertex 23.7322 44.9538 378.851
   vertex 24.0513 45.299 378.84
  endloop
 endfacet
 facet normal 0.339883 0.217982 -0.914857
  outer loop
   vertex 23.0069 45.1697 378.633
   vertex 23.7322 44.9538 378.851
   vertex 24.5543 43.9531 378.918
  endloop
 endfacet
 facet normal 0.260043 0.105912 -0.959771
  outer loop
   vertex 24.5543 43.9531 378.918
   vertex 23.1554 43.174 378.453
   vertex 23.0069 45.1697 378.633
  endloop
 endfacet
 facet normal -0.255914 -0.561385 -0.786991
  outer loop
   vertex 25.14 44.8919 378.943
   vertex 24.5187 45.4485 378.748
   vertex 25.3789 45.4699 378.453
  endloop
 endfacet
 facet normal 0.206232 -0.178381 -0.962106
  outer loop
   vertex 22.3942 46.496 378.232
   vertex 21.7064 45.9166 378.192
   vertex 21.6051 47.0022 377.969
  endloop
 endfacet
 facet normal 0.295667 -0.0485115 -0.954058
  outer loop
   vertex 21.7064 45.9166 378.192
   vertex 23.0069 45.1697 378.633
   vertex 20.4404 44.9658 377.848
  endloop
 endfacet
 facet normal 0.288534 0.0494889 -0.95619
  outer loop
   vertex 20.9157 44.4748 377.966
   vertex 20.4404 44.9658 377.848
   vertex 23.0069 45.1697 378.633
  endloop
 endfacet
 facet normal 0.19779 -0.17949 -0.963671
  outer loop
   vertex 21.7064 45.9166 378.192
   vertex 20.3716 46.7435 377.764
   vertex 21.6051 47.0022 377.969
  endloop
 endfacet
 facet normal 0.285881 -0.0341788 -0.957656
  outer loop
   vertex 21.7064 45.9166 378.192
   vertex 20.4404 44.9658 377.848
   vertex 20.3716 46.7435 377.764
  endloop
 endfacet
 facet normal 0.0654426 -0.115129 -0.991192
  outer loop
   vertex 19.7992 44.9886 377.803
   vertex 20.4404 44.9658 377.848
   vertex 20.5662 44.7102 377.886
  endloop
 endfacet
 facet normal 0.0683406 -0.0444412 -0.996672
  outer loop
   vertex 19.7992 44.9886 377.803
   vertex 20.3716 46.7435 377.764
   vertex 20.4404 44.9658 377.848
  endloop
 endfacet
 facet normal 0.196387 0.533238 -0.822854
  outer loop
   vertex -38.7462 61.6339 377.923
   vertex -39.5467 62.2651 378.141
   vertex -38.7663 62.1135 378.229
  endloop
 endfacet
 facet normal 0.141945 0.479155 -0.866177
  outer loop
   vertex -38.7462 61.6339 377.923
   vertex -39.3793 60.5958 377.245
   vertex -39.5467 62.2651 378.141
  endloop
 endfacet
 facet normal 0.187224 0.420268 -0.887875
  outer loop
   vertex -42.0075 62.4867 377.842
   vertex -40.1938 62.8322 378.388
   vertex -42.1187 61.501 377.352
  endloop
 endfacet
 facet normal 0.0850017 0.477823 -0.874334
  outer loop
   vertex -39.5467 62.2651 378.141
   vertex -39.3793 60.5958 377.245
   vertex -40.1938 62.8322 378.388
  endloop
 endfacet
 facet normal 0.127457 0.487799 -0.863601
  outer loop
   vertex -42.1187 61.501 377.352
   vertex -40.1938 62.8322 378.388
   vertex -39.3793 60.5958 377.245
  endloop
 endfacet
 facet normal 0.107747 0.432249 -0.895294
  outer loop
   vertex -41.117 59.4424 376.479
   vertex -41.8161 60.4327 376.873
   vertex -39.3793 60.5958 377.245
  endloop
 endfacet
 facet normal 0.10778 0.432011 -0.895405
  outer loop
   vertex -39.3793 60.5958 377.245
   vertex -41.8161 60.4327 376.873
   vertex -42.1187 61.501 377.352
  endloop
 endfacet
 facet normal -0.379292 -0.309002 -0.872156
  outer loop
   vertex -42.8638 59.8543 376.728
   vertex -42.3846 59.427 376.671
   vertex -43.1501 59.8642 376.849
  endloop
 endfacet
 facet normal -0.0810873 0.378056 -0.922225
  outer loop
   vertex -41.8167 59.7057 376.575
   vertex -42.8638 59.8543 376.728
   vertex -41.8161 60.4327 376.873
  endloop
 endfacet
 facet normal 0.0157417 0.37919 -0.925185
  outer loop
   vertex -41.117 59.4424 376.479
   vertex -41.8167 59.7057 376.575
   vertex -41.8161 60.4327 376.873
  endloop
 endfacet
 facet normal -0.115138 0.192051 -0.974607
  outer loop
   vertex -42.8638 59.8543 376.728
   vertex -41.8167 59.7057 376.575
   vertex -41.6888 59.2343 376.467
  endloop
 endfacet
 facet normal -0.336681 -0.256706 -0.905951
  outer loop
   vertex -41.6888 59.2343 376.467
   vertex -42.3846 59.427 376.671
   vertex -42.8638 59.8543 376.728
  endloop
 endfacet
 facet normal -0.0554594 0.208657 -0.976415
  outer loop
   vertex -41.117 59.4424 376.479
   vertex -41.6888 59.2343 376.467
   vertex -41.8167 59.7057 376.575
  endloop
 endfacet
 facet normal -0.0419047 0.171864 -0.984229
  outer loop
   vertex -41.0974 58.8687 376.378
   vertex -41.6888 59.2343 376.467
   vertex -41.117 59.4424 376.479
  endloop
 endfacet
 facet normal 0.293616 0.703364 -0.647356
  outer loop
   vertex -33.8206 59.4913 377.65
   vertex -34.354 59.7609 377.701
   vertex -34.1719 59.8929 377.927
  endloop
 endfacet
 facet normal 0.343763 0.66353 -0.664495
  outer loop
   vertex -34.1719 59.8929 377.927
   vertex -34.354 59.7609 377.701
   vertex -34.7101 60.0886 377.844
  endloop
 endfacet
 facet normal 0.19453 0.474478 -0.858504
  outer loop
   vertex -35.8947 60.4476 377.774
   vertex -34.7101 60.0886 377.844
   vertex -35.0334 58.4516 376.866
  endloop
 endfacet
 facet normal 0.155824 0.472386 -0.867508
  outer loop
   vertex -33.8206 59.4913 377.65
   vertex -35.0334 58.4516 376.866
   vertex -34.354 59.7609 377.701
  endloop
 endfacet
 facet normal 0.157763 0.470594 -0.868131
  outer loop
   vertex -35.0334 58.4516 376.866
   vertex -33.8206 59.4913 377.65
   vertex -33.1759 59.2844 377.655
  endloop
 endfacet
 facet normal 0.108188 0.49403 -0.862687
  outer loop
   vertex -34.354 59.7609 377.701
   vertex -35.0334 58.4516 376.866
   vertex -34.7101 60.0886 377.844
  endloop
 endfacet
 facet normal 0.052408 0.474468 -0.878711
  outer loop
   vertex -29.8241 57.8132 377.415
   vertex -29.8089 55.8873 376.376
   vertex -30.5707 58.2679 377.616
  endloop
 endfacet
 facet normal 0.17379 0.498106 -0.849522
  outer loop
   vertex -29.8089 55.8873 376.376
   vertex -31.6547 58.6802 377.636
   vertex -30.5707 58.2679 377.616
  endloop
 endfacet
 facet normal 0.12578 0.793088 -0.595979
  outer loop
   vertex -27.9634 56.9707 377.062
   vertex -27.1155 56.9835 377.258
   vertex -26.2745 56.6615 377.007
  endloop
 endfacet
 facet normal 0.142558 0.73341 -0.66467
  outer loop
   vertex -27.1155 56.9835 377.258
   vertex -27.9634 56.9707 377.062
   vertex -27.6082 57.1545 377.341
  endloop
 endfacet
 facet normal 0.167162 0.58302 -0.795075
  outer loop
   vertex -28.6572 57.3646 377.205
   vertex -28.0044 57.2811 377.281
   vertex -27.9634 56.9707 377.062
  endloop
 endfacet
 facet normal 0.0349522 0.468202 -0.88293
  outer loop
   vertex -28.6572 57.3646 377.205
   vertex -29.8089 55.8873 376.376
   vertex -29.374 57.6105 377.307
  endloop
 endfacet
 facet normal 0.166044 0.457351 -0.873647
  outer loop
   vertex -33.1759 59.2844 377.655
   vertex -32.5841 57.3943 376.778
   vertex -35.0334 58.4516 376.866
  endloop
 endfacet
 facet normal 0.145466 0.460993 -0.8754
  outer loop
   vertex -35.8947 60.4476 377.774
   vertex -35.0334 58.4516 376.866
   vertex -36.6081 59.1118 376.952
  endloop
 endfacet
 facet normal 0.0695794 0.446374 -0.892137
  outer loop
   vertex -27.9634 56.9707 377.062
   vertex -29.8089 55.8873 376.376
   vertex -28.6572 57.3646 377.205
  endloop
 endfacet
 facet normal 0.116753 0.4715 -0.874103
  outer loop
   vertex -29.8089 55.8873 376.376
   vertex -30.7993 56.0139 376.312
   vertex -31.6547 58.6802 377.636
  endloop
 endfacet
 facet normal 0.141895 0.476391 -0.867708
  outer loop
   vertex -31.6547 58.6802 377.636
   vertex -30.7993 56.0139 376.312
   vertex -32.5841 57.3943 376.778
  endloop
 endfacet
 facet normal 0.174855 0.525518 -0.83262
  outer loop
   vertex -35.0334 58.4516 376.866
   vertex -36.5461 57.464 375.925
   vertex -36.6081 59.1118 376.952
  endloop
 endfacet
 facet normal 0.0553047 0.459802 -0.886298
  outer loop
   vertex -26.9339 54.9559 376.081
   vertex -27.9634 56.9707 377.062
   vertex -26.2745 56.6615 377.007
  endloop
 endfacet
 facet normal 0.16939 0.501056 -0.848675
  outer loop
   vertex -37.6889 61.547 378.174
   vertex -36.6081 59.1118 376.952
   vertex -38.5768 58.7526 376.347
  endloop
 endfacet
 facet normal 0.131562 0.512853 -0.848335
  outer loop
   vertex -38.5768 58.7526 376.347
   vertex -39.9668 59.5161 376.593
   vertex -37.6889 61.547 378.174
  endloop
 endfacet
 facet normal 0.129942 0.527969 -0.839264
  outer loop
   vertex -38.1384 57.9322 375.973
   vertex -36.6081 59.1118 376.952
   vertex -36.5461 57.464 375.925
  endloop
 endfacet
 facet normal 0.0441271 0.45548 -0.889151
  outer loop
   vertex -26.9339 54.9559 376.081
   vertex -28.2325 55.273 376.179
   vertex -27.9634 56.9707 377.062
  endloop
 endfacet
 facet normal 0.175064 0.484317 -0.857199
  outer loop
   vertex -38.1384 57.9322 375.973
   vertex -38.5768 58.7526 376.347
   vertex -36.6081 59.1118 376.952
  endloop
 endfacet
 facet normal 0.065096 0.452325 -0.889474
  outer loop
   vertex -29.8089 55.8873 376.376
   vertex -27.9634 56.9707 377.062
   vertex -28.2325 55.273 376.179
  endloop
 endfacet
 facet normal 0.064274 0.410141 -0.909755
  outer loop
   vertex -39.9668 59.5161 376.593
   vertex -38.5768 58.7526 376.347
   vertex -39.4943 58.4949 376.166
  endloop
 endfacet
 facet normal 0.126286 0.58177 -0.80349
  outer loop
   vertex -29.8089 55.8873 376.376
   vertex -28.2325 55.273 376.179
   vertex -30.7993 56.0139 376.312
  endloop
 endfacet
 facet normal 0.186794 0.512484 -0.838134
  outer loop
   vertex -35.0334 58.4516 376.866
   vertex -35.6002 56.3653 375.464
   vertex -36.5461 57.464 375.925
  endloop
 endfacet
 facet normal 0.256052 0.589654 -0.765994
  outer loop
   vertex -32.5841 57.3943 376.778
   vertex -30.7993 56.0139 376.312
   vertex -31.8641 55.046 375.211
  endloop
 endfacet
 facet normal 0.200763 0.533454 -0.821657
  outer loop
   vertex -35.0334 58.4516 376.866
   vertex -32.5841 57.3943 376.778
   vertex -33.8853 55.646 375.325
  endloop
 endfacet
 facet normal 0.0632124 0.312168 -0.947922
  outer loop
   vertex -36.5461 57.464 375.925
   vertex -37.4539 57.1438 375.759
   vertex -38.1384 57.9322 375.973
  endloop
 endfacet
 facet normal 0.0983043 0.339274 -0.935537
  outer loop
   vertex -37.4539 57.1438 375.759
   vertex -37.9296 57.4995 375.838
   vertex -38.1384 57.9322 375.973
  endloop
 endfacet
 facet normal -0.0130337 0.292031 -0.95632
  outer loop
   vertex -38.1384 57.9322 375.973
   vertex -37.9296 57.4995 375.838
   vertex -39.0392 58.0492 376.021
  endloop
 endfacet
 facet normal -0.198601 -0.0756118 -0.977159
  outer loop
   vertex -37.9296 57.4995 375.838
   vertex -38.6141 57.54 375.974
   vertex -39.0392 58.0492 376.021
  endloop
 endfacet
 facet normal 0.184998 0.5841 -0.790318
  outer loop
   vertex -31.8641 55.046 375.211
   vertex -32.941 55.6293 375.39
   vertex -32.5841 57.3943 376.778
  endloop
 endfacet
 facet normal 0.0651972 0.608662 -0.790747
  outer loop
   vertex -32.941 55.6293 375.39
   vertex -33.8853 55.646 375.325
   vertex -32.5841 57.3943 376.778
  endloop
 endfacet
 facet normal 0.247335 0.542256 -0.802984
  outer loop
   vertex -34.6301 56.1856 375.46
   vertex -35.0334 58.4516 376.866
   vertex -33.8853 55.646 375.325
  endloop
 endfacet
 facet normal 0.0960341 0.537082 -0.838045
  outer loop
   vertex -35.6002 56.3653 375.464
   vertex -35.0334 58.4516 376.866
   vertex -34.6301 56.1856 375.46
  endloop
 endfacet
 facet normal 0.131382 0.597227 -0.791239
  outer loop
   vertex -28.2325 55.273 376.179
   vertex -29.6327 54.2138 375.147
   vertex -30.7993 56.0139 376.312
  endloop
 endfacet
 facet normal 0.256043 0.479381 -0.839426
  outer loop
   vertex -29.6327 54.2138 375.147
   vertex -28.2325 55.273 376.179
   vertex -29.3016 53.8776 375.056
  endloop
 endfacet
 facet normal -0.00857745 -0.0523781 -0.99859
  outer loop
   vertex -32.5937 55.2417 375.207
   vertex -31.8641 55.046 375.211
   vertex -32.7825 55.2156 375.21
  endloop
 endfacet
 facet normal 0.207606 0.622762 -0.754365
  outer loop
   vertex -29.6327 54.2138 375.147
   vertex -30.6503 54.53 375.128
   vertex -30.7993 56.0139 376.312
  endloop
 endfacet
 facet normal 0.234015 0.606723 -0.759687
  outer loop
   vertex -30.7993 56.0139 376.312
   vertex -30.9215 54.561 375.114
   vertex -31.8641 55.046 375.211
  endloop
 endfacet
 facet normal 0.111384 0.626627 -0.771318
  outer loop
   vertex -30.9215 54.561 375.114
   vertex -30.7993 56.0139 376.312
   vertex -30.6503 54.53 375.128
  endloop
 endfacet
 facet normal 0.0417847 0.220485 -0.974495
  outer loop
   vertex -32.7825 55.2156 375.21
   vertex -31.8641 55.046 375.211
   vertex -31.693 54.7395 375.149
  endloop
 endfacet
 facet normal 0.00166338 0.199194 -0.979959
  outer loop
   vertex -30.9215 54.561 375.114
   vertex -31.693 54.7395 375.149
   vertex -31.8641 55.046 375.211
  endloop
 endfacet
 facet normal 0.150579 0.757029 -0.635793
  outer loop
   vertex -25.1925 56.2712 376.818
   vertex -25.8792 56.4204 376.833
   vertex -25.6567 56.4954 376.975
  endloop
 endfacet
 facet normal 0.152568 0.783744 -0.602054
  outer loop
   vertex -25.1925 56.2712 376.818
   vertex -24.599 56.2033 376.88
   vertex -24.458 56.0637 376.734
  endloop
 endfacet
 facet normal 0.088342 0.493661 -0.865156
  outer loop
   vertex -25.1925 56.2712 376.818
   vertex -25.7439 56.0632 376.643
   vertex -25.8792 56.4204 376.833
  endloop
 endfacet
 facet normal 0.0599844 0.522603 -0.850464
  outer loop
   vertex -24.0983 55.7962 376.595
   vertex -25.7439 56.0632 376.643
   vertex -24.458 56.0637 376.734
  endloop
 endfacet
 facet normal 0.0589032 0.546602 -0.835318
  outer loop
   vertex -24.458 56.0637 376.734
   vertex -25.7439 56.0632 376.643
   vertex -25.1925 56.2712 376.818
  endloop
 endfacet
 facet normal 0.0439684 0.432868 -0.900385
  outer loop
   vertex -25.7439 56.0632 376.643
   vertex -24.0983 55.7962 376.595
   vertex -22.2203 55.3933 376.493
  endloop
 endfacet
 facet normal 0.0538463 0.479357 -0.875967
  outer loop
   vertex -22.2203 55.3933 376.493
   vertex -24.9868 52.9447 374.983
   vertex -25.7439 56.0632 376.643
  endloop
 endfacet
 facet normal 0.0812085 0.453249 -0.887677
  outer loop
   vertex -21.348 55.2801 376.515
   vertex -22.4721 53.9989 375.758
   vertex -22.2203 55.3933 376.493
  endloop
 endfacet
 facet normal 0.0837525 0.452788 -0.887676
  outer loop
   vertex -24.9868 52.9447 374.983
   vertex -22.2203 55.3933 376.493
   vertex -22.4721 53.9989 375.758
  endloop
 endfacet
 facet normal -0.00709603 0.513297 -0.858182
  outer loop
   vertex -21.0303 55.0103 376.351
   vertex -22.4721 53.9989 375.758
   vertex -21.348 55.2801 376.515
  endloop
 endfacet
 facet normal -0.0166175 0.466672 -0.884274
  outer loop
   vertex -26.9339 54.9559 376.081
   vertex -25.7439 56.0632 376.643
   vertex -24.9868 52.9447 374.983
  endloop
 endfacet
 facet normal 0.0154866 0.48922 -0.872023
  outer loop
   vertex -22.4721 53.9989 375.758
   vertex -21.0303 55.0103 376.351
   vertex -21.1174 52.3821 374.875
  endloop
 endfacet
 facet normal 0.0713349 0.530279 -0.844817
  outer loop
   vertex -26.9339 54.9559 376.081
   vertex -24.9868 52.9447 374.983
   vertex -25.9044 52.9885 374.933
  endloop
 endfacet
 facet normal 0.0346473 0.501231 -0.864619
  outer loop
   vertex -22.4721 53.9989 375.758
   vertex -21.1174 52.3821 374.875
   vertex -22.9891 52.2579 374.728
  endloop
 endfacet
 facet normal 0.059572 0.495111 -0.866785
  outer loop
   vertex -22.4721 53.9989 375.758
   vertex -22.9891 52.2579 374.728
   vertex -24.9868 52.9447 374.983
  endloop
 endfacet
 facet normal 0.00726332 0.366567 -0.930363
  outer loop
   vertex -24.9868 52.9447 374.983
   vertex -22.9891 52.2579 374.728
   vertex -24.0073 52.4532 374.797
  endloop
 endfacet
 facet normal 0.0601854 0.239847 -0.968943
  outer loop
   vertex -21.1174 52.3821 374.875
   vertex -22.4476 51.8069 374.65
   vertex -22.9891 52.2579 374.728
  endloop
 endfacet
 facet normal 0.0127507 0.376045 -0.926514
  outer loop
   vertex -24.0073 52.4532 374.797
   vertex -25.0137 52.5662 374.829
   vertex -24.9868 52.9447 374.983
  endloop
 endfacet
 facet normal -0.0246777 0.0628696 -0.997717
  outer loop
   vertex -25.0137 52.5662 374.829
   vertex -24.0073 52.4532 374.797
   vertex -24.5413 52.3545 374.804
  endloop
 endfacet
 facet normal 0.0709305 0.502742 -0.861522
  outer loop
   vertex -24.9868 52.9447 374.983
   vertex -25.6829 52.8013 374.842
   vertex -25.9044 52.9885 374.933
  endloop
 endfacet
 facet normal -0.008865 0.291704 -0.956467
  outer loop
   vertex -22.9891 52.2579 374.728
   vertex -23.4013 52.1306 374.693
   vertex -24.0073 52.4532 374.797
  endloop
 endfacet
 facet normal -0.169232 -0.000157709 -0.985576
  outer loop
   vertex -23.4013 52.1306 374.693
   vertex -23.8906 52.1451 374.777
   vertex -24.0073 52.4532 374.797
  endloop
 endfacet
 facet normal -0.0233948 0.0558975 -0.998162
  outer loop
   vertex -24.5413 52.3545 374.804
   vertex -24.0073 52.4532 374.797
   vertex -23.8906 52.1451 374.777
  endloop
 endfacet
endsolid
