solid ascii
 facet normal -0.396319 -0.0591751 -0.916204
  outer loop
   vertex -41.432 49.0546 355.924
   vertex -41.825 49.7362 356.05
   vertex -41.4765 49.802 355.895
  endloop
 endfacet
 facet normal -0.275506 -0.0536744 -0.9598
  outer loop
   vertex -41.0857 49.0119 355.827
   vertex -41.432 49.0546 355.924
   vertex -41.4765 49.802 355.895
  endloop
 endfacet
 facet normal -0.536654 -0.156167 -0.829225
  outer loop
   vertex -41.9885 49.1404 356.268
   vertex -41.825 49.7362 356.05
   vertex -41.432 49.0546 355.924
  endloop
 endfacet
 facet normal -0.424863 0.145523 -0.893485
  outer loop
   vertex -41.825 49.7362 356.05
   vertex -41.8119 50.4621 356.162
   vertex -41.4765 49.802 355.895
  endloop
 endfacet
 facet normal -0.73507 -0.0458106 -0.676442
  outer loop
   vertex -41.825 49.7362 356.05
   vertex -41.9885 49.1404 356.268
   vertex -42.2451 50.1863 356.476
  endloop
 endfacet
 facet normal -0.634549 0.129026 -0.762037
  outer loop
   vertex -41.8119 50.4621 356.162
   vertex -41.825 49.7362 356.05
   vertex -42.2451 50.1863 356.476
  endloop
 endfacet
 facet normal -0.29432 -0.368928 -0.881628
  outer loop
   vertex -42.6283 47.3895 356.802
   vertex -41.019 48.3018 355.883
   vertex -41.3802 46.9482 356.57
  endloop
 endfacet
 facet normal -0.446162 -0.107921 -0.888421
  outer loop
   vertex -41.019 48.3018 355.883
   vertex -42.6283 47.3895 356.802
   vertex -41.9885 49.1404 356.268
  endloop
 endfacet
 facet normal -0.18928 -0.493921 -0.848655
  outer loop
   vertex -43.1414 52.2665 356.588
   vertex -42.253 52.2405 356.405
   vertex -42.5446 51.744 356.759
  endloop
 endfacet
 facet normal -0.535127 0.202037 -0.820256
  outer loop
   vertex -42.3862 51.1036 356.794
   vertex -41.8697 51.1521 356.469
   vertex -42.2451 50.1863 356.476
  endloop
 endfacet
 facet normal -0.535737 0.0622272 -0.842089
  outer loop
   vertex -41.8697 51.1521 356.469
   vertex -42.3862 51.1036 356.794
   vertex -41.883 51.7277 356.52
  endloop
 endfacet
 facet normal -0.0699944 0.0864277 -0.993796
  outer loop
   vertex -41.5369 51.6055 356.485
   vertex -41.8697 51.1521 356.469
   vertex -41.883 51.7277 356.52
  endloop
 endfacet
 facet normal -0.322242 0.268547 -0.907768
  outer loop
   vertex -41.5685 51.0065 356.319
   vertex -41.8697 51.1521 356.469
   vertex -41.5369 51.6055 356.485
  endloop
 endfacet
 facet normal -0.317519 -0.419764 -0.850282
  outer loop
   vertex -42.253 52.2405 356.405
   vertex -41.883 51.7277 356.52
   vertex -42.5446 51.744 356.759
  endloop
 endfacet
 facet normal -0.181098 -0.239698 -0.953807
  outer loop
   vertex -41.7064 52.1275 356.386
   vertex -41.5369 51.6055 356.485
   vertex -41.883 51.7277 356.52
  endloop
 endfacet
 facet normal 0.5434 0.017276 -0.839296
  outer loop
   vertex -41.7064 52.1275 356.386
   vertex -41.3149 51.8622 356.634
   vertex -41.5369 51.6055 356.485
  endloop
 endfacet
 facet normal -0.110662 -0.421017 -0.900277
  outer loop
   vertex -43.8218 52.1802 356.712
   vertex -43.1414 52.2665 356.588
   vertex -42.5446 51.744 356.759
  endloop
 endfacet
 facet normal -0.339605 -0.13488 -0.930847
  outer loop
   vertex -42.5446 51.744 356.759
   vertex -41.883 51.7277 356.52
   vertex -42.3862 51.1036 356.794
  endloop
 endfacet
 facet normal -0.56985 0.0235557 -0.821411
  outer loop
   vertex -42.2451 50.1863 356.476
   vertex -41.9885 49.1404 356.268
   vertex -42.98 50.1222 356.984
  endloop
 endfacet
 facet normal -0.569436 0.189685 -0.799851
  outer loop
   vertex -42.2451 50.1863 356.476
   vertex -42.98 50.1222 356.984
   vertex -42.3862 51.1036 356.794
  endloop
 endfacet
 facet normal -0.390464 -0.433484 -0.812176
  outer loop
   vertex -42.2299 47.1056 356.762
   vertex -42.9791 47.1209 357.114
   vertex -42.6283 47.3895 356.802
  endloop
 endfacet
 facet normal -0.363083 -0.107366 -0.92555
  outer loop
   vertex -42.6283 47.3895 356.802
   vertex -43.4886 47.5144 357.125
   vertex -43.6641 48.608 357.067
  endloop
 endfacet
 facet normal -0.391302 -0.134658 -0.910357
  outer loop
   vertex -42.6283 47.3895 356.802
   vertex -43.6641 48.608 357.067
   vertex -41.9885 49.1404 356.268
  endloop
 endfacet
 facet normal -0.46638 0.163062 -0.869425
  outer loop
   vertex -41.9885 49.1404 356.268
   vertex -43.6641 48.608 357.067
   vertex -42.98 50.1222 356.984
  endloop
 endfacet
 facet normal -0.571526 0.191314 -0.79797
  outer loop
   vertex -42.98 50.1222 356.984
   vertex -42.8992 50.9183 357.117
   vertex -42.3862 51.1036 356.794
  endloop
 endfacet
 facet normal -0.519175 -0.0499069 -0.853209
  outer loop
   vertex -42.3862 51.1036 356.794
   vertex -42.8992 50.9183 357.117
   vertex -43.0472 51.2955 357.185
  endloop
 endfacet
 facet normal -0.538788 -0.178272 -0.823363
  outer loop
   vertex -42.5446 51.744 356.759
   vertex -42.3862 51.1036 356.794
   vertex -43.0472 51.2955 357.185
  endloop
 endfacet
 facet normal -0.370053 -0.456552 -0.809087
  outer loop
   vertex -43.4886 47.5144 357.125
   vertex -42.6283 47.3895 356.802
   vertex -42.9791 47.1209 357.114
  endloop
 endfacet
 facet normal -0.301999 0.0428271 -0.952346
  outer loop
   vertex -43.6641 48.608 357.067
   vertex -45.3389 47.472 357.547
   vertex -44.8998 49.5009 357.499
  endloop
 endfacet
 facet normal -0.280765 0.0744102 -0.956888
  outer loop
   vertex -43.6641 48.608 357.067
   vertex -44.8998 49.5009 357.499
   vertex -42.98 50.1222 356.984
  endloop
 endfacet
 facet normal -0.42115 0.190872 -0.88668
  outer loop
   vertex -42.98 50.1222 356.984
   vertex -43.6559 50.619 357.412
   vertex -42.8992 50.9183 357.117
  endloop
 endfacet
 facet normal -0.370643 0.021946 -0.928516
  outer loop
   vertex -42.8992 50.9183 357.117
   vertex -43.6559 50.619 357.412
   vertex -43.0472 51.2955 357.185
  endloop
 endfacet
 facet normal -0.166688 -0.574411 -0.801416
  outer loop
   vertex -42.5446 51.744 356.759
   vertex -43.0472 51.2955 357.185
   vertex -43.8218 52.1802 356.712
  endloop
 endfacet
 facet normal -0.255076 -0.471223 -0.844325
  outer loop
   vertex -44.5132 47.5781 357.399
   vertex -43.4886 47.5144 357.125
   vertex -44.1566 47.2686 357.464
  endloop
 endfacet
 facet normal -0.149603 -0.189486 -0.970419
  outer loop
   vertex -45.3389 47.472 357.547
   vertex -43.6641 48.608 357.067
   vertex -44.5132 47.5781 357.399
  endloop
 endfacet
 facet normal -0.262608 -0.0930906 -0.960402
  outer loop
   vertex -43.4886 47.5144 357.125
   vertex -44.5132 47.5781 357.399
   vertex -43.6641 48.608 357.067
  endloop
 endfacet
 facet normal -0.39644 -0.491662 -0.775309
  outer loop
   vertex -43.4886 47.5144 357.125
   vertex -42.9791 47.1209 357.114
   vertex -43.6274 47.1895 357.402
  endloop
 endfacet
 facet normal -0.393373 0.0458477 -0.918235
  outer loop
   vertex -43.0472 51.2955 357.185
   vertex -43.6559 50.619 357.412
   vertex -44.0886 51.2527 357.629
  endloop
 endfacet
 facet normal -0.281665 -0.632412 -0.721609
  outer loop
   vertex -43.8218 52.1802 356.712
   vertex -43.0472 51.2955 357.185
   vertex -44.0886 51.2527 357.629
  endloop
 endfacet
 facet normal -0.245459 -0.678423 -0.692454
  outer loop
   vertex -45.0078 51.4376 357.911
   vertex -45.8646 51.5394 358.115
   vertex -45.9515 52.4231 357.28
  endloop
 endfacet
 facet normal -0.0107919 -0.00256374 -0.999938
  outer loop
   vertex -47.666 49.8523 357.566
   vertex -45.3389 47.472 357.547
   vertex -46.3919 47.6076 357.558
  endloop
 endfacet
 facet normal -0.124122 0.219373 -0.967713
  outer loop
   vertex -44.8998 49.5009 357.499
   vertex -45.9426 50.0137 357.749
   vertex -44.6543 50.5839 357.713
  endloop
 endfacet
 facet normal -0.342052 -0.609068 -0.715567
  outer loop
   vertex -43.8218 52.1802 356.712
   vertex -44.0886 51.2527 357.629
   vertex -45.0078 51.4376 357.911
  endloop
 endfacet
 facet normal -0.0264903 -0.0179149 -0.999489
  outer loop
   vertex -44.8998 49.5009 357.499
   vertex -45.3389 47.472 357.547
   vertex -47.666 49.8523 357.566
  endloop
 endfacet
 facet normal -0.287635 0.248012 -0.925071
  outer loop
   vertex -43.6559 50.619 357.412
   vertex -44.8998 49.5009 357.499
   vertex -44.6543 50.5839 357.713
  endloop
 endfacet
 facet normal -0.290426 0.126505 -0.948498
  outer loop
   vertex -44.6543 50.5839 357.713
   vertex -44.0886 51.2527 357.629
   vertex -43.6559 50.619 357.412
  endloop
 endfacet
 facet normal -0.294161 0.129865 -0.946892
  outer loop
   vertex -45.1406 51.0353 357.926
   vertex -44.0886 51.2527 357.629
   vertex -44.6543 50.5839 357.713
  endloop
 endfacet
 facet normal -0.282235 0.0574969 -0.957621
  outer loop
   vertex -44.0886 51.2527 357.629
   vertex -45.1406 51.0353 357.926
   vertex -45.0078 51.4376 357.911
  endloop
 endfacet
 facet normal -0.22707 0.0387103 -0.973109
  outer loop
   vertex -45.8646 51.5394 358.115
   vertex -45.0078 51.4376 357.911
   vertex -45.1406 51.0353 357.926
  endloop
 endfacet
 facet normal -0.093742 0.240959 -0.965997
  outer loop
   vertex -45.9426 50.0137 357.749
   vertex -46.1887 51.0445 358.03
   vertex -45.1406 51.0353 357.926
  endloop
 endfacet
 facet normal 0.0872992 0.214422 -0.972832
  outer loop
   vertex -46.1887 51.0445 358.03
   vertex -47.0943 50.5603 357.842
   vertex -47.1883 51.9142 358.132
  endloop
 endfacet
 facet normal 0.0298312 0.150174 -0.988209
  outer loop
   vertex -47.1883 51.9142 358.132
   vertex -45.8646 51.5394 358.115
   vertex -46.1887 51.0445 358.03
  endloop
 endfacet
 facet normal -0.0941605 0.228088 -0.969077
  outer loop
   vertex -45.1406 51.0353 357.926
   vertex -46.1887 51.0445 358.03
   vertex -45.8646 51.5394 358.115
  endloop
 endfacet
 facet normal -0.277997 -0.0458975 -0.959485
  outer loop
   vertex -45.8616 53.3285 356.776
   vertex -47.0075 54.0604 357.073
   vertex -45.9007 54.1714 356.747
  endloop
 endfacet
 facet normal -0.372968 -0.0491699 -0.92654
  outer loop
   vertex -45.2276 53.7203 356.5
   vertex -45.8616 53.3285 356.776
   vertex -45.9007 54.1714 356.747
  endloop
 endfacet
 facet normal -0.370469 -0.213171 -0.904053
  outer loop
   vertex -47.1501 53.4007 357.287
   vertex -47.0075 54.0604 357.073
   vertex -45.8616 53.3285 356.776
  endloop
 endfacet
 facet normal -0.289975 0.0944698 -0.95236
  outer loop
   vertex -45.9007 54.1714 356.747
   vertex -47.0075 54.0604 357.073
   vertex -46.7541 54.7173 357.061
  endloop
 endfacet
 facet normal -0.189708 0.205583 -0.960076
  outer loop
   vertex -46.7541 54.7173 357.061
   vertex -47.9939 54.6987 357.302
   vertex -47.6647 55.264 357.358
  endloop
 endfacet
 facet normal -0.191322 0.0559111 -0.979934
  outer loop
   vertex -47.0075 54.0604 357.073
   vertex -47.9939 54.6987 357.302
   vertex -46.7541 54.7173 357.061
  endloop
 endfacet
 facet normal -0.308849 -0.232403 -0.92228
  outer loop
   vertex -47.0075 54.0604 357.073
   vertex -47.1501 53.4007 357.287
   vertex -48.1482 54.2032 357.419
  endloop
 endfacet
 facet normal -0.302581 -0.128777 -0.944384
  outer loop
   vertex -47.0075 54.0604 357.073
   vertex -48.1482 54.2032 357.419
   vertex -47.9939 54.6987 357.302
  endloop
 endfacet
 facet normal -0.458367 -0.44337 -0.770274
  outer loop
   vertex -48.1482 54.2032 357.419
   vertex -47.1501 53.4007 357.287
   vertex -47.471 53.0184 357.698
  endloop
 endfacet
 facet normal 0.684596 -0.0178874 -0.728703
  outer loop
   vertex -40.2223 50.148 357.398
   vertex -40.9872 50.7346 356.665
   vertex -40.2179 50.8461 357.385
  endloop
 endfacet
 facet normal 0.678274 0.0528638 -0.732905
  outer loop
   vertex -40.9872 50.7346 356.665
   vertex -40.7857 51.435 356.902
   vertex -40.2179 50.8461 357.385
  endloop
 endfacet
 facet normal 0.411352 -0.307212 -0.858143
  outer loop
   vertex -40.2179 50.8461 357.385
   vertex -40.7857 51.435 356.902
   vertex -39.8974 51.725 357.224
  endloop
 endfacet
 facet normal 0.441806 -0.272139 -0.854838
  outer loop
   vertex -39.0771 50.9333 357.9
   vertex -39.8974 51.725 357.224
   vertex -38.3965 52.5345 357.742
  endloop
 endfacet
 facet normal 0.410962 -0.307111 -0.858367
  outer loop
   vertex -39.8974 51.725 357.224
   vertex -39.0771 50.9333 357.9
   vertex -40.2179 50.8461 357.385
  endloop
 endfacet
 facet normal 0.6772 -0.0179688 -0.735579
  outer loop
   vertex -40.2179 50.8461 357.385
   vertex -39.7305 50.3034 357.847
   vertex -40.2223 50.148 357.398
  endloop
 endfacet
 facet normal 0.407364 -0.35163 -0.842859
  outer loop
   vertex -39.0771 50.9333 357.9
   vertex -39.7305 50.3034 357.847
   vertex -40.2179 50.8461 357.385
  endloop
 endfacet
 facet normal 0.360918 -0.24227 -0.900579
  outer loop
   vertex -38.3965 52.5345 357.742
   vertex -37.8545 51.2714 358.299
   vertex -39.0771 50.9333 357.9
  endloop
 endfacet
 facet normal 0.281659 -0.213442 -0.935474
  outer loop
   vertex -39.0771 50.9333 357.9
   vertex -39.0872 50.0784 358.092
   vertex -39.7305 50.3034 357.847
  endloop
 endfacet
 facet normal 0.289416 -0.213023 -0.933199
  outer loop
   vertex -38.0104 50.2578 358.385
   vertex -39.0872 50.0784 358.092
   vertex -39.0771 50.9333 357.9
  endloop
 endfacet
 facet normal 0.433191 -0.201515 -0.878486
  outer loop
   vertex -37.8545 51.2714 358.299
   vertex -38.3965 52.5345 357.742
   vertex -36.9614 52.3063 358.502
  endloop
 endfacet
 facet normal 0.442031 -0.159795 -0.882652
  outer loop
   vertex -36.9614 52.3063 358.502
   vertex -38.3965 52.5345 357.742
   vertex -36.4957 53.6886 358.485
  endloop
 endfacet
 facet normal 0.556212 -0.169483 -0.813575
  outer loop
   vertex -27.5822 49.9575 361.444
   vertex -28.3933 50.8383 360.706
   vertex -27.2553 51.9424 361.254
  endloop
 endfacet
 facet normal 0.546308 -0.181959 -0.817581
  outer loop
   vertex -27.5822 49.9575 361.444
   vertex -28.8017 49.4953 360.732
   vertex -28.3933 50.8383 360.706
  endloop
 endfacet
 facet normal 0.36021 0.116267 -0.925597
  outer loop
   vertex -27.8175 53.0833 360.924
   vertex -28.5016 52.058 360.529
   vertex -28.8505 53.4176 360.564
  endloop
 endfacet
 facet normal 0.502671 -0.00233476 -0.864474
  outer loop
   vertex -28.5016 52.058 360.529
   vertex -27.8175 53.0833 360.924
   vertex -27.2553 51.9424 361.254
  endloop
 endfacet
 facet normal 0.495503 -0.081498 -0.864774
  outer loop
   vertex -27.2553 51.9424 361.254
   vertex -28.3933 50.8383 360.706
   vertex -28.5016 52.058 360.529
  endloop
 endfacet
 facet normal 0.513844 -0.0783493 -0.854298
  outer loop
   vertex -28.5016 52.058 360.529
   vertex -28.3933 50.8383 360.706
   vertex -29.4176 50.5537 360.116
  endloop
 endfacet
 facet normal 0.527656 -0.176545 -0.83091
  outer loop
   vertex -28.8017 49.4953 360.732
   vertex -29.4176 50.5537 360.116
   vertex -28.3933 50.8383 360.706
  endloop
 endfacet
 facet normal 0.611809 -0.427224 -0.66571
  outer loop
   vertex -29.7297 49.0623 360.157
   vertex -28.8017 49.4953 360.732
   vertex -29.3421 48.9754 360.569
  endloop
 endfacet
 facet normal 0.420532 0.13103 -0.897766
  outer loop
   vertex -28.5016 52.058 360.529
   vertex -29.4114 52.0387 360.1
   vertex -28.8505 53.4176 360.564
  endloop
 endfacet
 facet normal 0.426656 -0.0115199 -0.904341
  outer loop
   vertex -29.4176 50.5537 360.116
   vertex -29.4114 52.0387 360.1
   vertex -28.5016 52.058 360.529
  endloop
 endfacet
 facet normal 0.568184 -0.141197 -0.810697
  outer loop
   vertex -28.8017 49.4953 360.732
   vertex -29.7297 49.0623 360.157
   vertex -29.4176 50.5537 360.116
  endloop
 endfacet
 facet normal 0.43867 -0.011508 -0.898575
  outer loop
   vertex -30.349 51.2008 359.653
   vertex -29.4114 52.0387 360.1
   vertex -29.4176 50.5537 360.116
  endloop
 endfacet
 facet normal 0.313459 0.149505 -0.937759
  outer loop
   vertex -30.349 51.2008 359.653
   vertex -30.2172 52.9692 359.979
   vertex -29.4114 52.0387 360.1
  endloop
 endfacet
 facet normal 0.331568 0.147075 -0.931897
  outer loop
   vertex -30.349 51.2008 359.653
   vertex -31.3755 52.7355 359.53
   vertex -30.2172 52.9692 359.979
  endloop
 endfacet
 facet normal 0.433765 -0.0201594 -0.9008
  outer loop
   vertex -30.349 51.2008 359.653
   vertex -29.4176 50.5537 360.116
   vertex -30.2996 49.1819 359.722
  endloop
 endfacet
 facet normal 0.391687 -0.0218394 -0.919839
  outer loop
   vertex -30.2996 49.1819 359.722
   vertex -30.8644 49.8762 359.465
   vertex -30.349 51.2008 359.653
  endloop
 endfacet
 facet normal 0.357493 -0.0542815 -0.932337
  outer loop
   vertex -30.2996 49.1819 359.722
   vertex -30.9174 48.7713 359.509
   vertex -30.8644 49.8762 359.465
  endloop
 endfacet
 facet normal 0.223028 0.115729 -0.967918
  outer loop
   vertex -32.6744 53.7407 359.445
   vertex -33.3091 52.254 359.121
   vertex -34.4192 53.5485 359.02
  endloop
 endfacet
 facet normal 0.288884 0.117059 -0.950181
  outer loop
   vertex -31.3755 52.7355 359.53
   vertex -30.349 51.2008 359.653
   vertex -31.2346 51.3407 359.401
  endloop
 endfacet
 facet normal 0.171606 0.139285 -0.97527
  outer loop
   vertex -31.3755 52.7355 359.53
   vertex -33.3091 52.254 359.121
   vertex -32.6744 53.7407 359.445
  endloop
 endfacet
 facet normal 0.277718 0.0282415 -0.960247
  outer loop
   vertex -30.8644 49.8762 359.465
   vertex -31.2346 51.3407 359.401
   vertex -30.349 51.2008 359.653
  endloop
 endfacet
 facet normal 0.103794 0.101985 -0.989356
  outer loop
   vertex -31.2346 51.3407 359.401
   vertex -32.6537 51.194 359.237
   vertex -31.3755 52.7355 359.53
  endloop
 endfacet
 facet normal 0.116222 -0.0140186 -0.993124
  outer loop
   vertex -30.8644 49.8762 359.465
   vertex -32.6537 51.194 359.237
   vertex -31.2346 51.3407 359.401
  endloop
 endfacet
 facet normal 0.135944 0.0131919 -0.990629
  outer loop
   vertex -30.8644 49.8762 359.465
   vertex -31.8643 48.4652 359.309
   vertex -32.6537 51.194 359.237
  endloop
 endfacet
 facet normal 0.202588 0.0181164 -0.979097
  outer loop
   vertex -33.3091 52.254 359.121
   vertex -31.3755 52.7355 359.53
   vertex -32.6537 51.194 359.237
  endloop
 endfacet
 facet normal 0.375107 0.0841582 -0.923154
  outer loop
   vertex -31.8643 48.4652 359.309
   vertex -32.8206 48.6141 358.934
   vertex -32.6537 51.194 359.237
  endloop
 endfacet
 facet normal 0.140717 0.0434906 -0.989094
  outer loop
   vertex -35.0576 51.7024 358.848
   vertex -34.4192 53.5485 359.02
   vertex -33.3091 52.254 359.121
  endloop
 endfacet
 facet normal 0.17474 0.0312617 -0.984118
  outer loop
   vertex -34.4192 53.5485 359.02
   vertex -35.0576 51.7024 358.848
   vertex -35.5437 53.8527 358.83
  endloop
 endfacet
 facet normal 0.0692258 0.00729627 -0.997574
  outer loop
   vertex -35.5437 53.8527 358.83
   vertex -35.0576 51.7024 358.848
   vertex -36.187 52.0285 358.772
  endloop
 endfacet
 facet normal 0.157541 -0.0106507 -0.987455
  outer loop
   vertex -32.6537 51.194 359.237
   vertex -35.0576 51.7024 358.848
   vertex -33.3091 52.254 359.121
  endloop
 endfacet
 facet normal 0.162633 0.0140889 -0.986586
  outer loop
   vertex -32.6537 51.194 359.237
   vertex -35.7989 50.5959 358.71
   vertex -35.0576 51.7024 358.848
  endloop
 endfacet
 facet normal 0.07375 0.0746208 -0.994481
  outer loop
   vertex -35.7989 50.5959 358.71
   vertex -36.7043 50.7977 358.658
   vertex -35.0576 51.7024 358.848
  endloop
 endfacet
 facet normal 0.361163 0.0856949 -0.928557
  outer loop
   vertex -32.8206 48.6141 358.934
   vertex -34.031 48.9804 358.497
   vertex -32.6537 51.194 359.237
  endloop
 endfacet
 facet normal 0.357757 -0.131917 -0.92445
  outer loop
   vertex -35.5437 53.8527 358.83
   vertex -36.9614 52.3063 358.502
   vertex -36.4957 53.6886 358.485
  endloop
 endfacet
 facet normal 0.15244 0.126799 -0.980145
  outer loop
   vertex -38.0104 50.2578 358.385
   vertex -36.7043 50.7977 358.658
   vertex -37.1372 49.8032 358.462
  endloop
 endfacet
 facet normal 0.303541 -0.0768556 -0.949714
  outer loop
   vertex -36.187 52.0285 358.772
   vertex -36.9614 52.3063 358.502
   vertex -35.5437 53.8527 358.83
  endloop
 endfacet
 facet normal 0.031569 0.180007 -0.983159
  outer loop
   vertex -37.1372 49.8032 358.462
   vertex -36.7043 50.7977 358.658
   vertex -36.1474 49.8918 358.51
  endloop
 endfacet
 facet normal 0.0834235 0.0570967 -0.994877
  outer loop
   vertex -35.0576 51.7024 358.848
   vertex -36.7043 50.7977 358.658
   vertex -36.187 52.0285 358.772
  endloop
 endfacet
 facet normal 0.314642 -0.04441 -0.948171
  outer loop
   vertex -36.187 52.0285 358.772
   vertex -36.7043 50.7977 358.658
   vertex -36.9614 52.3063 358.502
  endloop
 endfacet
 facet normal 0.278031 -0.0517871 -0.959175
  outer loop
   vertex -36.9614 52.3063 358.502
   vertex -36.7043 50.7977 358.658
   vertex -37.8545 51.2714 358.299
  endloop
 endfacet
 facet normal 0.250398 -0.120021 -0.960675
  outer loop
   vertex -38.0104 50.2578 358.385
   vertex -37.8545 51.2714 358.299
   vertex -36.7043 50.7977 358.658
  endloop
 endfacet
 facet normal 0.34021 -0.131329 -0.931134
  outer loop
   vertex -37.8545 51.2714 358.299
   vertex -38.0104 50.2578 358.385
   vertex -39.0771 50.9333 357.9
  endloop
 endfacet
 facet normal -0.0264017 0.144418 -0.989165
  outer loop
   vertex -48.2337 48.0375 357.145
   vertex -48.6473 47.4619 357.072
   vertex -48.8711 48.5238 357.233
  endloop
 endfacet
 facet normal -0.0399974 0.126948 -0.991103
  outer loop
   vertex -48.2337 48.0375 357.145
   vertex -48.8711 48.5238 357.233
   vertex -48.3269 49.7493 357.368
  endloop
 endfacet
 facet normal -0.52159 0.0309011 -0.852637
  outer loop
   vertex -48.8711 48.5238 357.233
   vertex -49.0235 47.3863 357.285
   vertex -49.6716 47.4558 357.684
  endloop
 endfacet
 facet normal -0.0469535 0.129961 -0.990407
  outer loop
   vertex -48.3269 49.7493 357.368
   vertex -48.8711 48.5238 357.233
   vertex -48.8341 50.1298 357.442
  endloop
 endfacet
 facet normal -0.538323 0.0482055 -0.841359
  outer loop
   vertex -49.6716 47.4558 357.684
   vertex -50.2684 49.4658 358.181
   vertex -48.8711 48.5238 357.233
  endloop
 endfacet
 facet normal -0.498985 0.123123 -0.85782
  outer loop
   vertex -48.8341 50.1298 357.442
   vertex -48.8711 48.5238 357.233
   vertex -50.2684 49.4658 358.181
  endloop
 endfacet
 facet normal -0.530669 0.242345 -0.812194
  outer loop
   vertex -48.7032 51.3046 357.707
   vertex -48.8341 50.1298 357.442
   vertex -50.2684 49.4658 358.181
  endloop
 endfacet
 facet normal 0.286964 -0.0535356 -0.956444
  outer loop
   vertex -52.1438 47.5875 357.674
   vertex -53.1918 47.0977 357.387
   vertex -53.5719 48.1151 357.216
  endloop
 endfacet
 facet normal 0.362228 -0.248636 -0.898315
  outer loop
   vertex -52.1438 47.5875 357.674
   vertex -52.686 47.0578 357.602
   vertex -53.1918 47.0977 357.387
  endloop
 endfacet
 facet normal 0.336788 0.0987381 -0.936389
  outer loop
   vertex -52.1438 47.5875 357.674
   vertex -53.5719 48.1151 357.216
   vertex -52.8626 48.7589 357.539
  endloop
 endfacet
 facet normal 0.211314 0.0170324 -0.97727
  outer loop
   vertex -52.1438 47.5875 357.674
   vertex -52.8626 48.7589 357.539
   vertex -51.0946 47.6523 357.902
  endloop
 endfacet
 facet normal 0.0607388 -0.556508 -0.828619
  outer loop
   vertex 9.41823 57.9269 373.82
   vertex 6.92071 57.7496 373.756
   vertex 8.01301 58.2217 373.519
  endloop
 endfacet
 facet normal -0.0154415 -0.315379 -0.94884
  outer loop
   vertex 20.829 58.4379 373.521
   vertex 18.2047 58.7379 373.464
   vertex 22.1721 61.0768 372.622
  endloop
 endfacet
 facet normal -0.0145611 -0.46179 -0.88687
  outer loop
   vertex 15.8532 59.1116 373.308
   vertex 18.2047 58.7379 373.464
   vertex 16.2424 58.2601 373.745
  endloop
 endfacet
 facet normal -0.017545 -0.462635 -0.886375
  outer loop
   vertex 14.3603 59.3445 373.216
   vertex 15.8532 59.1116 373.308
   vertex 14.2066 58.4575 373.682
  endloop
 endfacet
 facet normal -0.149821 -0.439371 -0.885724
  outer loop
   vertex 13.0986 58.1741 374.01
   vertex 14.3603 59.3445 373.216
   vertex 14.2066 58.4575 373.682
  endloop
 endfacet
 facet normal -0.0174541 -0.462812 -0.886285
  outer loop
   vertex 14.2066 58.4575 373.682
   vertex 15.8532 59.1116 373.308
   vertex 16.2424 58.2601 373.745
  endloop
 endfacet
 facet normal 0.102255 -0.52516 -0.844838
  outer loop
   vertex 12.1207 58.2392 373.958
   vertex 10.8773 58.0132 373.948
   vertex 9.9527 59.0349 373.201
  endloop
 endfacet
 facet normal 0.0868201 -0.535592 -0.840002
  outer loop
   vertex 10.8773 58.0132 373.948
   vertex 8.01301 58.2217 373.519
   vertex 9.9527 59.0349 373.201
  endloop
 endfacet
 facet normal 0.0657095 -0.526664 -0.84753
  outer loop
   vertex 6.92071 57.7496 373.756
   vertex 4.39612 57.7227 373.577
   vertex 4.81052 58.3457 373.222
  endloop
 endfacet
 facet normal -0.049056 -0.299619 -0.952797
  outer loop
   vertex 23.2518 58.2161 373.466
   vertex 20.829 58.4379 373.521
   vertex 22.1721 61.0768 372.622
  endloop
 endfacet
 facet normal 0.124752 -0.516936 -0.846885
  outer loop
   vertex 12.1621 59.2325 373.226
   vertex 13.7297 60.3497 372.775
   vertex 13.0986 58.1741 374.01
  endloop
 endfacet
 facet normal 0.00330509 -0.593333 -0.80495
  outer loop
   vertex 13.0986 58.1741 374.01
   vertex 12.1207 58.2392 373.958
   vertex 12.1621 59.2325 373.226
  endloop
 endfacet
 facet normal 0.0621906 -0.593777 -0.802223
  outer loop
   vertex 12.1207 58.2392 373.958
   vertex 9.9527 59.0349 373.201
   vertex 12.1621 59.2325 373.226
  endloop
 endfacet
 facet normal 0.0483775 -0.518616 -0.853638
  outer loop
   vertex 4.39612 57.7227 373.577
   vertex 2.11355 57.4719 373.6
   vertex 4.81052 58.3457 373.222
  endloop
 endfacet
 facet normal -0.12339 -0.462587 -0.877945
  outer loop
   vertex 13.7297 60.3497 372.775
   vertex 14.3603 59.3445 373.216
   vertex 13.0986 58.1741 374.01
  endloop
 endfacet
 facet normal 0.0503889 -0.450532 -0.891337
  outer loop
   vertex 12.1621 59.2325 373.226
   vertex 9.9527 59.0349 373.201
   vertex 11.2681 60.1356 372.719
  endloop
 endfacet
 facet normal 0.0561264 -0.548629 -0.83418
  outer loop
   vertex 8.01301 58.2217 373.519
   vertex 6.92071 57.7496 373.756
   vertex 4.81052 58.3457 373.222
  endloop
 endfacet
 facet normal 0.0137372 -0.359226 -0.93315
  outer loop
   vertex 22.1721 61.0768 372.622
   vertex 18.2047 58.7379 373.464
   vertex 17.7183 60.0259 372.961
  endloop
 endfacet
 facet normal 0.00423272 -0.362375 -0.932023
  outer loop
   vertex 18.2047 58.7379 373.464
   vertex 15.8532 59.1116 373.308
   vertex 17.7183 60.0259 372.961
  endloop
 endfacet
 facet normal -0.00275329 -0.382642 -0.923893
  outer loop
   vertex 15.8532 59.1116 373.308
   vertex 14.3603 59.3445 373.216
   vertex 15.667 60.3661 372.789
  endloop
 endfacet
 facet normal 0.0589345 -0.4437 -0.894235
  outer loop
   vertex 13.7297 60.3497 372.775
   vertex 12.1621 59.2325 373.226
   vertex 11.2681 60.1356 372.719
  endloop
 endfacet
 facet normal -0.220788 -0.291054 -0.930881
  outer loop
   vertex 28.7899 57.2687 372.988
   vertex 27.0471 57.2891 373.395
   vertex 29.092 59.9788 372.069
  endloop
 endfacet
 facet normal -0.108162 -0.372215 -0.921823
  outer loop
   vertex 23.2518 58.2161 373.466
   vertex 29.092 59.9788 372.069
   vertex 27.0471 57.2891 373.395
  endloop
 endfacet
 facet normal 0.0298806 -0.473139 -0.880481
  outer loop
   vertex 2.11355 57.4719 373.6
   vertex 4.12278 59.7668 372.435
   vertex 4.81052 58.3457 373.222
  endloop
 endfacet
 facet normal 0.0144427 -0.380423 -0.9247
  outer loop
   vertex 15.667 60.3661 372.789
   vertex 17.7183 60.0259 372.961
   vertex 15.8532 59.1116 373.308
  endloop
 endfacet
 facet normal 0.0949975 -0.539326 -0.836722
  outer loop
   vertex -1.60943 57.3358 373.202
   vertex -4.12003 57.0627 373.093
   vertex -3.63033 57.8331 372.652
  endloop
 endfacet
 facet normal 0.111117 -0.545959 -0.830411
  outer loop
   vertex -4.12003 57.0627 373.093
   vertex -5.84234 57.9381 372.287
   vertex -3.63033 57.8331 372.652
  endloop
 endfacet
 facet normal 0.139361 -0.50828 -0.849841
  outer loop
   vertex -5.6588 56.8949 372.941
   vertex -5.84234 57.9381 372.287
   vertex -4.12003 57.0627 373.093
  endloop
 endfacet
 facet normal 0.152884 -0.60955 -0.777866
  outer loop
   vertex -7.52221 57.1843 372.348
   vertex -5.6588 56.8949 372.941
   vertex -7.04211 56.6411 372.868
  endloop
 endfacet
 facet normal 0.0354075 -0.272604 -0.961475
  outer loop
   vertex 15.667 60.3661 372.789
   vertex 16.5938 62.6238 372.183
   vertex 17.7183 60.0259 372.961
  endloop
 endfacet
 facet normal 0.00999371 -0.396479 -0.91799
  outer loop
   vertex 15.667 60.3661 372.789
   vertex 14.3603 59.3445 373.216
   vertex 13.7297 60.3497 372.775
  endloop
 endfacet
 facet normal 0.0456904 -0.44602 -0.893856
  outer loop
   vertex 11.2681 60.1356 372.719
   vertex 9.9527 59.0349 373.201
   vertex 8.62923 60.3603 372.472
  endloop
 endfacet
 facet normal 0.0419255 -0.449047 -0.892524
  outer loop
   vertex 9.9527 59.0349 373.201
   vertex 8.01301 58.2217 373.519
   vertex 8.62923 60.3603 372.472
  endloop
 endfacet
 facet normal 0.0643749 -0.459433 -0.885877
  outer loop
   vertex 4.12278 59.7668 372.435
   vertex 8.01301 58.2217 373.519
   vertex 4.81052 58.3457 373.222
  endloop
 endfacet
 facet normal -0.153638 -0.248848 -0.956279
  outer loop
   vertex 29.092 59.9788 372.069
   vertex 23.2518 58.2161 373.466
   vertex 24.3641 62.8632 372.078
  endloop
 endfacet
 facet normal -0.00567317 -0.284937 -0.95853
  outer loop
   vertex 24.3641 62.8632 372.078
   vertex 23.2518 58.2161 373.466
   vertex 22.1721 61.0768 372.622
  endloop
 endfacet
 facet normal 0.0901609 -0.292536 -0.951995
  outer loop
   vertex 16.5938 62.6238 372.183
   vertex 15.667 60.3661 372.789
   vertex 15.518 61.7911 372.337
  endloop
 endfacet
 facet normal 0.192185 -0.496784 -0.846328
  outer loop
   vertex -7.52221 57.1843 372.348
   vertex -5.84234 57.9381 372.287
   vertex -5.6588 56.8949 372.941
  endloop
 endfacet
 facet normal 0.23774 -0.546108 -0.803272
  outer loop
   vertex -7.87638 56.5947 372.644
   vertex -9.20702 56.5891 372.254
   vertex -7.52221 57.1843 372.348
  endloop
 endfacet
 facet normal 0.00944547 -0.301434 -0.95344
  outer loop
   vertex 13.7297 60.3497 372.775
   vertex 15.518 61.7911 372.337
   vertex 15.667 60.3661 372.789
  endloop
 endfacet
 facet normal 0.054182 -0.381604 -0.922736
  outer loop
   vertex 13.7297 60.3497 372.775
   vertex 11.2681 60.1356 372.719
   vertex 12.397 61.3405 372.287
  endloop
 endfacet
 facet normal 0.110476 -0.484844 -0.867595
  outer loop
   vertex 0.76713 59.6721 372.199
   vertex 2.11355 57.4719 373.6
   vertex -1.60943 57.3358 373.202
  endloop
 endfacet
 facet normal 0.12781 -0.455163 -0.881188
  outer loop
   vertex -3.63033 57.8331 372.652
   vertex -2.4704 59.2914 372.067
   vertex -1.60943 57.3358 373.202
  endloop
 endfacet
 facet normal 0.126308 -0.436262 -0.890911
  outer loop
   vertex -3.63033 57.8331 372.652
   vertex -5.84234 57.9381 372.287
   vertex -4.71326 58.8429 372.004
  endloop
 endfacet
 facet normal -0.00473546 -0.288757 -0.957391
  outer loop
   vertex 17.7183 60.0259 372.961
   vertex 16.5938 62.6238 372.183
   vertex 22.1721 61.0768 372.622
  endloop
 endfacet
 facet normal 0.0177963 -0.310839 -0.950296
  outer loop
   vertex 15.518 61.7911 372.337
   vertex 13.7297 60.3497 372.775
   vertex 13.9033 62.5333 372.064
  endloop
 endfacet
 facet normal 0.110432 -0.315643 -0.94243
  outer loop
   vertex 13.9033 62.5333 372.064
   vertex 13.7297 60.3497 372.775
   vertex 12.397 61.3405 372.287
  endloop
 endfacet
 facet normal -0.242283 -0.31692 -0.916985
  outer loop
   vertex 34.7792 55.8266 372.21
   vertex 34.0579 55.782 372.416
   vertex 32.9539 59.4789 371.43
  endloop
 endfacet
 facet normal -0.167942 -0.295014 -0.940618
  outer loop
   vertex 33.1848 56.0825 372.454
   vertex 32.22 56.7625 372.413
   vertex 32.9539 59.4789 371.43
  endloop
 endfacet
 facet normal -0.259224 -0.265958 -0.928477
  outer loop
   vertex 32.9539 59.4789 371.43
   vertex 32.22 56.7625 372.413
   vertex 30.9624 56.6512 372.796
  endloop
 endfacet
 facet normal -0.174726 -0.325797 -0.929154
  outer loop
   vertex 28.7899 57.2687 372.988
   vertex 32.9539 59.4789 371.43
   vertex 30.9624 56.6512 372.796
  endloop
 endfacet
 facet normal 0.0443772 -0.449567 -0.892143
  outer loop
   vertex 8.01301 58.2217 373.519
   vertex 6.29312 60.979 372.044
   vertex 8.62923 60.3603 372.472
  endloop
 endfacet
 facet normal 0.0790656 -0.431426 -0.898677
  outer loop
   vertex 6.29312 60.979 372.044
   vertex 8.01301 58.2217 373.519
   vertex 4.12278 59.7668 372.435
  endloop
 endfacet
 facet normal -0.142543 -0.294589 -0.944933
  outer loop
   vertex 33.1848 56.0825 372.454
   vertex 32.9539 59.4789 371.43
   vertex 34.0579 55.782 372.416
  endloop
 endfacet
 facet normal 0.0747543 -0.502661 -0.861245
  outer loop
   vertex 0.76713 59.6721 372.199
   vertex 4.12278 59.7668 372.435
   vertex 2.11355 57.4719 373.6
  endloop
 endfacet
 facet normal 0.0349081 -0.154323 -0.987404
  outer loop
   vertex 22.1721 61.0768 372.622
   vertex 16.5938 62.6238 372.183
   vertex 18.6809 64.4844 371.966
  endloop
 endfacet
 facet normal 0.084257 -0.400062 -0.912607
  outer loop
   vertex -2.4704 59.2914 372.067
   vertex -0.984013 60.5625 371.647
   vertex 0.76713 59.6721 372.199
  endloop
 endfacet
 facet normal 0.0910303 -0.469604 -0.878171
  outer loop
   vertex 0.76713 59.6721 372.199
   vertex -1.60943 57.3358 373.202
   vertex -2.4704 59.2914 372.067
  endloop
 endfacet
 facet normal 0.0101993 -0.194564 -0.980837
  outer loop
   vertex 16.5938 62.6238 372.183
   vertex 15.518 61.7911 372.337
   vertex 15.8159 63.3544 372.03
  endloop
 endfacet
 facet normal -0.193082 -0.295728 -0.935556
  outer loop
   vertex 32.9539 59.4789 371.43
   vertex 28.7899 57.2687 372.988
   vertex 29.092 59.9788 372.069
  endloop
 endfacet
 facet normal 0.053837 -0.381957 -0.922611
  outer loop
   vertex 11.2681 60.1356 372.719
   vertex 8.62923 60.3603 372.472
   vertex 8.65953 61.9515 371.815
  endloop
 endfacet
 facet normal 0.0677303 -0.38186 -0.921735
  outer loop
   vertex 8.65953 61.9515 371.815
   vertex 8.62923 60.3603 372.472
   vertex 6.29312 60.979 372.044
  endloop
 endfacet
 facet normal 0.050775 -0.387767 -0.920358
  outer loop
   vertex 6.29312 60.979 372.044
   vertex 4.12278 59.7668 372.435
   vertex 5.32651 61.8042 371.643
  endloop
 endfacet
 facet normal -0.0534755 -0.230278 -0.971655
  outer loop
   vertex 24.3641 62.8632 372.078
   vertex 22.1721 61.0768 372.622
   vertex 22.4039 63.1201 372.125
  endloop
 endfacet
 facet normal 0.0755556 -0.359948 -0.929908
  outer loop
   vertex 4.12278 59.7668 372.435
   vertex 0.76713 59.6721 372.199
   vertex 3.83965 62.1642 371.484
  endloop
 endfacet
 facet normal -0.0656098 -0.253038 -0.965229
  outer loop
   vertex 18.6809 64.4844 371.966
   vertex 20.8714 63.5197 372.07
   vertex 22.1721 61.0768 372.622
  endloop
 endfacet
 facet normal -0.0260006 -0.233482 -0.972013
  outer loop
   vertex 22.1721 61.0768 372.622
   vertex 20.8714 63.5197 372.07
   vertex 22.4039 63.1201 372.125
  endloop
 endfacet
 facet normal 0.114273 -0.446841 -0.887285
  outer loop
   vertex -2.4704 59.2914 372.067
   vertex -3.63033 57.8331 372.652
   vertex -4.71326 58.8429 372.004
  endloop
 endfacet
 facet normal 0.041846 -0.161932 -0.985914
  outer loop
   vertex 18.6809 64.4844 371.966
   vertex 16.5938 62.6238 372.183
   vertex 15.8159 63.3544 372.03
  endloop
 endfacet
 facet normal 0.206227 0.0289754 -0.978075
  outer loop
   vertex 14.8434 66.0411 372.238
   vertex 12.7592 64.875 371.764
   vertex 12.8021 65.5143 371.792
  endloop
 endfacet
 facet normal -0.0244152 0.196778 -0.980144
  outer loop
   vertex 16.2176 65.1506 372.025
   vertex 14.7128 64.3513 371.902
   vertex 14.8434 66.0411 372.238
  endloop
 endfacet
 facet normal 0.143463 -0.393213 -0.908186
  outer loop
   vertex -5.84234 57.9381 372.287
   vertex -7.52221 57.1843 372.348
   vertex -7.62829 61.139 370.619
  endloop
 endfacet
 facet normal 0.187814 -0.389227 -0.901791
  outer loop
   vertex -7.52221 57.1843 372.348
   vertex -9.20702 56.5891 372.254
   vertex -7.62829 61.139 370.619
  endloop
 endfacet
 facet normal 0.238448 -0.573716 -0.783577
  outer loop
   vertex -9.20702 56.5891 372.254
   vertex -10.2983 56.2134 372.197
   vertex -10.9455 56.3801 371.878
  endloop
 endfacet
 facet normal 0.0707358 -0.205182 -0.976164
  outer loop
   vertex 15.518 61.7911 372.337
   vertex 13.9033 62.5333 372.064
   vertex 15.8159 63.3544 372.03
  endloop
 endfacet
 facet normal 0.0937542 -0.296099 -0.950545
  outer loop
   vertex 13.9033 62.5333 372.064
   vertex 12.397 61.3405 372.287
   vertex 11.3399 62.476 371.829
  endloop
 endfacet
 facet normal 0.0223991 -0.355949 -0.934237
  outer loop
   vertex 12.397 61.3405 372.287
   vertex 11.2681 60.1356 372.719
   vertex 11.3399 62.476 371.829
  endloop
 endfacet
 facet normal -0.199725 -0.29909 -0.933089
  outer loop
   vertex 32.9539 59.4789 371.43
   vertex 36.4642 55.1444 372.068
   vertex 34.7792 55.8266 372.21
  endloop
 endfacet
 facet normal 0.0104257 -0.367641 -0.929909
  outer loop
   vertex 4.12278 59.7668 372.435
   vertex 3.83965 62.1642 371.484
   vertex 5.32651 61.8042 371.643
  endloop
 endfacet
 facet normal 0.0579073 0.169556 -0.983818
  outer loop
   vertex 16.2176 65.1506 372.025
   vertex 17.3911 65.2141 372.105
   vertex 17.0565 64.5914 371.978
  endloop
 endfacet
 facet normal -0.00951785 -0.0324692 -0.999427
  outer loop
   vertex 17.0565 64.5914 371.978
   vertex 18.6809 64.4844 371.966
   vertex 15.8159 63.3544 372.03
  endloop
 endfacet
 facet normal 0.0205012 0.114232 -0.993243
  outer loop
   vertex 17.0565 64.5914 371.978
   vertex 14.7128 64.3513 371.902
   vertex 16.2176 65.1506 372.025
  endloop
 endfacet
 facet normal 0.0407604 -0.0827386 -0.995737
  outer loop
   vertex 17.0565 64.5914 371.978
   vertex 15.8159 63.3544 372.03
   vertex 14.7128 64.3513 371.902
  endloop
 endfacet
 facet normal 0.0776893 0.136901 -0.987534
  outer loop
   vertex 12.8021 65.5143 371.792
   vertex 11.8831 65.2136 371.678
   vertex 11.9589 65.5457 371.73
  endloop
 endfacet
 facet normal 0.118464 0.184833 -0.975604
  outer loop
   vertex 14.8434 66.0411 372.238
   vertex 14.7128 64.3513 371.902
   vertex 12.7592 64.875 371.764
  endloop
 endfacet
 facet normal 0.111398 0.0359976 -0.993124
  outer loop
   vertex 12.7592 64.875 371.764
   vertex 11.8831 65.2136 371.678
   vertex 12.8021 65.5143 371.792
  endloop
 endfacet
 facet normal 0.0755848 0.0192524 -0.996954
  outer loop
   vertex 14.7128 64.3513 371.902
   vertex 12.2789 63.7565 371.706
   vertex 12.7592 64.875 371.764
  endloop
 endfacet
 facet normal 0.0251824 -0.099841 -0.994685
  outer loop
   vertex 13.9033 62.5333 372.064
   vertex 14.7128 64.3513 371.902
   vertex 15.8159 63.3544 372.03
  endloop
 endfacet
 facet normal 0.112962 -0.137972 -0.983973
  outer loop
   vertex 14.7128 64.3513 371.902
   vertex 13.9033 62.5333 372.064
   vertex 12.2789 63.7565 371.706
  endloop
 endfacet
 facet normal 0.0936785 -0.163051 -0.98216
  outer loop
   vertex 13.9033 62.5333 372.064
   vertex 11.3399 62.476 371.829
   vertex 12.2789 63.7565 371.706
  endloop
 endfacet
 facet normal 0.357063 -0.591503 -0.722932
  outer loop
   vertex -11.6897 55.8795 371.92
   vertex -12.1288 56.0581 371.557
   vertex -10.9455 56.3801 371.878
  endloop
 endfacet
 facet normal 0.0746175 -0.356447 -0.931331
  outer loop
   vertex 11.3399 62.476 371.829
   vertex 11.2681 60.1356 372.719
   vertex 8.65953 61.9515 371.815
  endloop
 endfacet
 facet normal 0.0433153 -0.327647 -0.943807
  outer loop
   vertex 8.65953 61.9515 371.815
   vertex 6.29312 60.979 372.044
   vertex 6.81876 62.5925 371.508
  endloop
 endfacet
 facet normal 0.0897502 -0.391288 -0.915881
  outer loop
   vertex 0.76713 59.6721 372.199
   vertex -0.984013 60.5625 371.647
   vertex 0.639214 61.0659 371.591
  endloop
 endfacet
 facet normal -0.142266 -0.255953 -0.956163
  outer loop
   vertex 36.4642 55.1444 372.068
   vertex 32.9539 59.4789 371.43
   vertex 36.7813 59.5705 370.836
  endloop
 endfacet
 facet normal -0.216212 -0.354045 -0.909893
  outer loop
   vertex 29.092 59.9788 372.069
   vertex 26.9134 62.0828 371.768
   vertex 28.2293 61.5388 371.667
  endloop
 endfacet
 facet normal -0.13584 -0.200367 -0.970258
  outer loop
   vertex 39.7143 54.3108 371.65
   vertex 38.5126 54.6897 371.74
   vertex 39.9944 57.191 371.016
  endloop
 endfacet
 facet normal -0.153427 -0.189804 -0.96976
  outer loop
   vertex 37.4715 55.1583 371.813
   vertex 39.9944 57.191 371.016
   vertex 38.5126 54.6897 371.74
  endloop
 endfacet
 facet normal -0.144213 -0.199333 -0.969262
  outer loop
   vertex 39.7143 54.3108 371.65
   vertex 39.9944 57.191 371.016
   vertex 41.023 53.6995 371.581
  endloop
 endfacet
 facet normal 0.0251816 0.0409942 -0.998842
  outer loop
   vertex 10.6444 64.7122 371.704
   vertex 12.7592 64.875 371.764
   vertex 12.2789 63.7565 371.706
  endloop
 endfacet
 facet normal 0.054046 0.0903693 -0.994441
  outer loop
   vertex 12.2789 63.7565 371.706
   vertex 9.74769 63.3118 371.528
   vertex 10.6444 64.7122 371.704
  endloop
 endfacet
 facet normal 0.0982023 -0.166273 -0.981178
  outer loop
   vertex 11.3399 62.476 371.829
   vertex 9.74769 63.3118 371.528
   vertex 12.2789 63.7565 371.706
  endloop
 endfacet
 facet normal 0.0533544 -0.246817 -0.967592
  outer loop
   vertex 11.3399 62.476 371.829
   vertex 8.65953 61.9515 371.815
   vertex 9.74769 63.3118 371.528
  endloop
 endfacet
 facet normal 0.070299 -0.259444 -0.963196
  outer loop
   vertex 6.81876 62.5925 371.508
   vertex 9.74769 63.3118 371.528
   vertex 8.65953 61.9515 371.815
  endloop
 endfacet
 facet normal 0.0959985 -0.341833 -0.934845
  outer loop
   vertex 6.81876 62.5925 371.508
   vertex 6.29312 60.979 372.044
   vertex 5.32651 61.8042 371.643
  endloop
 endfacet
 facet normal 0.0745543 -0.309597 -0.947941
  outer loop
   vertex 0.639214 61.0659 371.591
   vertex 1.29516 61.9526 371.353
   vertex 3.83965 62.1642 371.484
  endloop
 endfacet
 facet normal 0.103151 -0.389732 -0.915133
  outer loop
   vertex 3.83965 62.1642 371.484
   vertex 0.76713 59.6721 372.199
   vertex 0.639214 61.0659 371.591
  endloop
 endfacet
 facet normal -0.194501 -0.31524 -0.928867
  outer loop
   vertex 32.9539 59.4789 371.43
   vertex 29.092 59.9788 372.069
   vertex 30.1447 60.9646 371.514
  endloop
 endfacet
 facet normal -0.174396 -0.335051 -0.92592
  outer loop
   vertex 28.2293 61.5388 371.667
   vertex 30.1447 60.9646 371.514
   vertex 29.092 59.9788 372.069
  endloop
 endfacet
 facet normal 0.0665249 -0.38231 -0.921637
  outer loop
   vertex -0.984013 60.5625 371.647
   vertex -2.4704 59.2914 372.067
   vertex -3.12149 61.1886 371.233
  endloop
 endfacet
 facet normal 0.127159 -0.36226 -0.923363
  outer loop
   vertex -3.12149 61.1886 371.233
   vertex -2.4704 59.2914 372.067
   vertex -4.39799 60.2868 371.411
  endloop
 endfacet
 facet normal 0.105057 -0.397335 -0.91164
  outer loop
   vertex -2.4704 59.2914 372.067
   vertex -4.71326 58.8429 372.004
   vertex -4.39799 60.2868 371.411
  endloop
 endfacet
 facet normal -0.148462 -0.325907 -0.933672
  outer loop
   vertex 42.5246 53.2962 371.483
   vertex 41.8497 53.0622 371.672
   vertex 41.023 53.6995 371.581
  endloop
 endfacet
 facet normal 0.0760401 -0.392957 -0.916408
  outer loop
   vertex -4.39799 60.2868 371.411
   vertex -4.71326 58.8429 372.004
   vertex -6.51439 61.4911 370.719
  endloop
 endfacet
 facet normal -0.264251 -0.259784 -0.928808
  outer loop
   vertex 60.8593 42.8084 371.529
   vertex 60.3798 42.9279 371.632
   vertex 60.2555 43.6049 371.478
  endloop
 endfacet
 facet normal 0.0820692 -0.389351 -0.917426
  outer loop
   vertex -4.71326 58.8429 372.004
   vertex -5.84234 57.9381 372.287
   vertex -6.51439 61.4911 370.719
  endloop
 endfacet
 facet normal 0.19691 -0.364428 -0.910175
  outer loop
   vertex -5.84234 57.9381 372.287
   vertex -7.62829 61.139 370.619
   vertex -6.51439 61.4911 370.719
  endloop
 endfacet
 facet normal 0.239527 -0.404621 -0.882558
  outer loop
   vertex -9.20702 56.5891 372.254
   vertex -10.9455 56.3801 371.878
   vertex -11.6114 57.8595 371.019
  endloop
 endfacet
 facet normal 0.333726 -0.356479 -0.872668
  outer loop
   vertex -10.9455 56.3801 371.878
   vertex -12.1288 56.0581 371.557
   vertex -11.6114 57.8595 371.019
  endloop
 endfacet
 facet normal -0.046682 -0.1083 -0.993022
  outer loop
   vertex 55.367 46.28 371.451
   vertex 53.4528 47.5268 371.405
   vertex 56.6348 49.0343 371.091
  endloop
 endfacet
 facet normal 0.397947 -0.365591 -0.841416
  outer loop
   vertex -12.1288 56.0581 371.557
   vertex -12.9837 55.7674 371.279
   vertex -11.6114 57.8595 371.019
  endloop
 endfacet
 facet normal 0.425447 -0.627677 -0.651933
  outer loop
   vertex -12.1288 56.0581 371.557
   vertex -12.434 55.7027 371.7
   vertex -12.9837 55.7674 371.279
  endloop
 endfacet
 facet normal -0.181495 -0.290039 -0.939647
  outer loop
   vertex 31.3069 60.7914 371.343
   vertex 32.9539 59.4789 371.43
   vertex 30.1447 60.9646 371.514
  endloop
 endfacet
 facet normal -0.154522 -0.261616 -0.952722
  outer loop
   vertex 30.1447 60.9646 371.514
   vertex 28.2293 61.5388 371.667
   vertex 29.6092 61.5285 371.446
  endloop
 endfacet
 facet normal -0.109745 -0.241801 -0.9641
  outer loop
   vertex 39.9944 57.191 371.016
   vertex 37.4715 55.1583 371.813
   vertex 37.9762 57.7641 371.102
  endloop
 endfacet
 facet normal -0.0768756 -0.172685 -0.981972
  outer loop
   vertex 45.9621 53.6512 371.202
   vertex 43.3299 52.3152 371.643
   vertex 43.3487 55.0194 371.166
  endloop
 endfacet
 facet normal -0.0158162 -0.173589 -0.984691
  outer loop
   vertex 43.3299 52.3152 371.643
   vertex 42.5246 53.2962 371.483
   vertex 43.3487 55.0194 371.166
  endloop
 endfacet
 facet normal -0.0155494 0.163402 -0.986437
  outer loop
   vertex 6.81876 62.5925 371.508
   vertex 3.83965 62.1642 371.484
   vertex 4.55528 62.848 371.586
  endloop
 endfacet
 facet normal -0.100192 -0.133474 -0.985975
  outer loop
   vertex 41.023 53.6995 371.581
   vertex 43.3487 55.0194 371.166
   vertex 42.5246 53.2962 371.483
  endloop
 endfacet
 facet normal 0.0434455 -0.247992 -0.967787
  outer loop
   vertex 6.81876 62.5925 371.508
   vertex 5.32651 61.8042 371.643
   vertex 3.83965 62.1642 371.484
  endloop
 endfacet
 facet normal -0.0508183 -0.104266 -0.99325
  outer loop
   vertex 60.2555 43.6049 371.478
   vertex 58.6721 44.4624 371.469
   vertex 60.0523 47.1524 371.116
  endloop
 endfacet
 facet normal 0.0659526 -0.317884 -0.945833
  outer loop
   vertex 0.639214 61.0659 371.591
   vertex -0.984013 60.5625 371.647
   vertex -1.27659 61.7723 371.22
  endloop
 endfacet
 facet normal 0.0919155 -0.311581 -0.945764
  outer loop
   vertex -0.984013 60.5625 371.647
   vertex -3.12149 61.1886 371.233
   vertex -1.27659 61.7723 371.22
  endloop
 endfacet
 facet normal -0.0818091 -0.125319 -0.988738
  outer loop
   vertex 62.451 42.7476 371.405
   vertex 60.8593 42.8084 371.529
   vertex 60.2555 43.6049 371.478
  endloop
 endfacet
 facet normal -0.0413044 -0.0724338 -0.996518
  outer loop
   vertex 50.962 48.961 371.404
   vertex 54.902 50.8691 371.102
   vertex 53.4528 47.5268 371.405
  endloop
 endfacet
 facet normal -0.089765 -0.156587 -0.983577
  outer loop
   vertex 53.4528 47.5268 371.405
   vertex 51.8906 47.8005 371.504
   vertex 50.962 48.961 371.404
  endloop
 endfacet
 facet normal -0.0541514 -0.102198 -0.993289
  outer loop
   vertex 57.9988 48.3473 371.106
   vertex 58.6721 44.4624 371.469
   vertex 56.7773 45.2816 371.488
  endloop
 endfacet
 facet normal -0.062137 -0.103292 -0.992708
  outer loop
   vertex 46.1302 51.3395 371.432
   vertex 44.9799 51.974 371.438
   vertex 45.9621 53.6512 371.202
  endloop
 endfacet
 facet normal -0.135279 -0.0599355 -0.988993
  outer loop
   vertex 44.9799 51.974 371.438
   vertex 43.3299 52.3152 371.643
   vertex 45.9621 53.6512 371.202
  endloop
 endfacet
 facet normal -0.0480128 -0.104652 -0.993349
  outer loop
   vertex 56.7773 45.2816 371.488
   vertex 55.367 46.28 371.451
   vertex 57.9988 48.3473 371.106
  endloop
 endfacet
 facet normal -0.0837781 -0.170993 -0.981704
  outer loop
   vertex 58.6721 44.4624 371.469
   vertex 57.4082 44.6396 371.546
   vertex 56.7773 45.2816 371.488
  endloop
 endfacet
 facet normal -0.0873719 -0.149114 -0.984952
  outer loop
   vertex 46.1302 51.3395 371.432
   vertex 45.3727 51.4068 371.489
   vertex 44.9799 51.974 371.438
  endloop
 endfacet
 facet normal -0.0916298 -0.176826 -0.979968
  outer loop
   vertex 53.4528 47.5268 371.405
   vertex 55.367 46.28 371.451
   vertex 54.1939 46.4167 371.536
  endloop
 endfacet
 facet normal -0.141246 -0.235037 -0.961669
  outer loop
   vertex 37.9762 57.7641 371.102
   vertex 37.4715 55.1583 371.813
   vertex 36.7813 59.5705 370.836
  endloop
 endfacet
 facet normal -0.234756 -0.245014 -0.940669
  outer loop
   vertex 37.4715 55.1583 371.813
   vertex 36.4642 55.1444 372.068
   vertex 36.7813 59.5705 370.836
  endloop
 endfacet
 facet normal -0.0307448 -0.0940131 -0.995096
  outer loop
   vertex 50.962 48.961 371.404
   vertex 53.4096 51.4841 371.09
   vertex 54.902 50.8691 371.102
  endloop
 endfacet
 facet normal -0.0442104 -0.109436 -0.99301
  outer loop
   vertex 57.9988 48.3473 371.106
   vertex 55.367 46.28 371.451
   vertex 56.6348 49.0343 371.091
  endloop
 endfacet
 facet normal -0.0698374 -0.0599927 -0.995753
  outer loop
   vertex 56.6348 49.0343 371.091
   vertex 53.4528 47.5268 371.405
   vertex 54.902 50.8691 371.102
  endloop
 endfacet
 facet normal -0.103851 -0.0740246 -0.991834
  outer loop
   vertex 32.4124 60.5541 371.194
   vertex 32.8884 60.6767 371.135
   vertex 34.0092 60.0558 371.064
  endloop
 endfacet
 facet normal -0.16753 -0.291109 -0.941907
  outer loop
   vertex 34.0092 60.0558 371.064
   vertex 32.9539 59.4789 371.43
   vertex 32.4124 60.5541 371.194
  endloop
 endfacet
 facet normal -0.136195 -0.340972 -0.930155
  outer loop
   vertex 36.7813 59.5705 370.836
   vertex 32.9539 59.4789 371.43
   vertex 34.0092 60.0558 371.064
  endloop
 endfacet
 facet normal -0.0829861 -0.0644328 -0.994466
  outer loop
   vertex 62.451 42.7476 371.405
   vertex 66.8152 44.2574 370.943
   vertex 65.7816 41.4211 371.213
  endloop
 endfacet
 facet normal -0.0245424 -0.0767112 -0.996751
  outer loop
   vertex 50.1199 54.1141 371.064
   vertex 45.9621 53.6512 371.202
   vertex 47.9896 54.8476 371.06
  endloop
 endfacet
 facet normal 0.0504438 0.0170725 -0.998581
  outer loop
   vertex 1.29516 61.9526 371.353
   vertex -1.27659 61.7723 371.22
   vertex -0.0347642 62.3139 371.292
  endloop
 endfacet
 facet normal 0.0706031 -0.306983 -0.949092
  outer loop
   vertex -1.27659 61.7723 371.22
   vertex 1.29516 61.9526 371.353
   vertex 0.639214 61.0659 371.591
  endloop
 endfacet
 facet normal -0.147811 -0.187451 -0.971089
  outer loop
   vertex 65.7816 41.4211 371.213
   vertex 68.1882 40.2954 371.064
   vertex 65.2185 40.57 371.463
  endloop
 endfacet
 facet normal -0.154091 -0.140707 -0.977986
  outer loop
   vertex 69.268 39.0921 371.067
   vertex 67.3598 39.5969 371.295
   vertex 68.1882 40.2954 371.064
  endloop
 endfacet
 facet normal -0.145342 -0.151017 -0.977788
  outer loop
   vertex 65.2185 40.57 371.463
   vertex 68.1882 40.2954 371.064
   vertex 67.3598 39.5969 371.295
  endloop
 endfacet
 facet normal -0.0973472 -0.138363 -0.985586
  outer loop
   vertex 43.3487 55.0194 371.166
   vertex 41.023 53.6995 371.581
   vertex 42.8373 57.1313 370.92
  endloop
 endfacet
 facet normal -0.0368188 -0.170197 -0.984722
  outer loop
   vertex 39.9944 57.191 371.016
   vertex 42.8373 57.1313 370.92
   vertex 41.023 53.6995 371.581
  endloop
 endfacet
 facet normal -0.0124056 -0.102212 -0.994685
  outer loop
   vertex 60.0523 47.1524 371.116
   vertex 61.5078 46.6155 371.153
   vertex 60.2555 43.6049 371.478
  endloop
 endfacet
 facet normal 0.211814 -0.394767 -0.894032
  outer loop
   vertex -7.62829 61.139 370.619
   vertex -9.20702 56.5891 372.254
   vertex -9.9708 59.5333 370.773
  endloop
 endfacet
 facet normal -0.054677 -0.102286 -0.993251
  outer loop
   vertex 57.9988 48.3473 371.106
   vertex 60.0523 47.1524 371.116
   vertex 58.6721 44.4624 371.469
  endloop
 endfacet
 facet normal -0.0635471 -0.0760388 -0.995078
  outer loop
   vertex 50.962 48.961 371.404
   vertex 47.4848 50.2048 371.531
   vertex 50.1199 54.1141 371.064
  endloop
 endfacet
 facet normal -0.0712235 -0.097877 -0.992647
  outer loop
   vertex 66.8152 44.2574 370.943
   vertex 62.451 42.7476 371.405
   vertex 60.2555 43.6049 371.478
  endloop
 endfacet
 facet normal -0.0213821 -0.104369 -0.994309
  outer loop
   vertex 45.9621 53.6512 371.202
   vertex 50.1199 54.1141 371.064
   vertex 47.4848 50.2048 371.531
  endloop
 endfacet
 facet normal -0.103407 -0.116674 -0.987772
  outer loop
   vertex 65.7816 41.4211 371.213
   vertex 63.8311 41.5836 371.398
   vertex 62.451 42.7476 371.405
  endloop
 endfacet
 facet normal -0.0108735 -0.0997868 -0.994949
  outer loop
   vertex 47.4848 50.2048 371.531
   vertex 46.1302 51.3395 371.432
   vertex 45.9621 53.6512 371.202
  endloop
 endfacet
 facet normal -0.111725 -0.244504 -0.96319
  outer loop
   vertex 63.8311 41.5836 371.398
   vertex 65.7816 41.4211 371.213
   vertex 64.6595 40.886 371.479
  endloop
 endfacet
 facet normal -0.0876873 -0.0558035 -0.994584
  outer loop
   vertex 68.1882 40.2954 371.064
   vertex 65.7816 41.4211 371.213
   vertex 67.5574 44.1204 370.905
  endloop
 endfacet
 facet normal -0.0641329 -0.0713907 -0.995385
  outer loop
   vertex 66.8152 44.2574 370.943
   vertex 67.5574 44.1204 370.905
   vertex 65.7816 41.4211 371.213
  endloop
 endfacet
 facet normal -0.040657 -0.0844599 -0.995597
  outer loop
   vertex 53.4096 51.4841 371.09
   vertex 50.962 48.961 371.404
   vertex 52.1968 52.4924 371.054
  endloop
 endfacet
 facet normal -0.0902074 -0.170429 -0.981232
  outer loop
   vertex 39.9944 57.191 371.016
   vertex 37.9762 57.7641 371.102
   vertex 39.2172 58.5466 370.852
  endloop
 endfacet
 facet normal 0.0599356 -0.211167 -0.975611
  outer loop
   vertex -2.81236 61.9462 371.088
   vertex -1.27659 61.7723 371.22
   vertex -3.12149 61.1886 371.233
  endloop
 endfacet
 facet normal 0.108956 -0.338704 -0.934563
  outer loop
   vertex -4.39799 60.2868 371.411
   vertex -5.14467 61.3821 370.927
   vertex -3.12149 61.1886 371.233
  endloop
 endfacet
 facet normal -0.095613 -0.0934494 -0.991022
  outer loop
   vertex 35.4316 60.0002 370.932
   vertex 34.0092 60.0558 371.064
   vertex 34.7086 60.2205 370.981
  endloop
 endfacet
 facet normal -0.0951048 -0.0769751 -0.992487
  outer loop
   vertex 34.0092 60.0558 371.064
   vertex 35.4316 60.0002 370.932
   vertex 36.7813 59.5705 370.836
  endloop
 endfacet
 facet normal 0.115402 -0.334618 -0.935261
  outer loop
   vertex -4.39799 60.2868 371.411
   vertex -6.51439 61.4911 370.719
   vertex -5.14467 61.3821 370.927
  endloop
 endfacet
 facet normal -0.200497 -0.225526 -0.953383
  outer loop
   vertex 70.9906 37.9157 370.983
   vertex 69.5463 38.3965 371.173
   vertex 69.268 39.0921 371.067
  endloop
 endfacet
 facet normal -0.248725 -0.398247 -0.882913
  outer loop
   vertex 70.9906 37.9157 370.983
   vertex 70.7087 37.7348 371.144
   vertex 69.5463 38.3965 371.173
  endloop
 endfacet
 facet normal -0.00798102 -0.00392325 -0.99996
  outer loop
   vertex 51.5905 53.1604 371.056
   vertex 50.8954 53.0421 371.062
   vertex 50.1199 54.1141 371.064
  endloop
 endfacet
 facet normal 0.0017303 0.0655843 -0.997846
  outer loop
   vertex 61.5078 46.6155 371.153
   vertex 62.4045 46.5612 371.151
   vertex 62.7732 46.0189 371.116
  endloop
 endfacet
 facet normal -0.066644 -0.0796407 -0.994593
  outer loop
   vertex 62.7732 46.0189 371.116
   vertex 60.2555 43.6049 371.478
   vertex 61.5078 46.6155 371.153
  endloop
 endfacet
 facet normal 0.106619 0.152305 -0.982566
  outer loop
   vertex 46.3301 55.7449 371.019
   vertex 46.472 56.11 371.091
   vertex 47.9896 54.8476 371.06
  endloop
 endfacet
 facet normal 0.20612 0.111578 -0.972144
  outer loop
   vertex 45.9373 56.2961 370.999
   vertex 46.472 56.11 371.091
   vertex 46.3301 55.7449 371.019
  endloop
 endfacet
 facet normal -0.0877749 -0.0263277 -0.995792
  outer loop
   vertex 64.6075 45.0949 371.055
   vertex 60.2555 43.6049 371.478
   vertex 63.5792 46.0265 371.121
  endloop
 endfacet
 facet normal 0.00760449 -0.156048 -0.98772
  outer loop
   vertex 62.7732 46.0189 371.116
   vertex 63.5792 46.0265 371.121
   vertex 60.2555 43.6049 371.478
  endloop
 endfacet
 facet normal -0.0205247 -0.0834662 -0.996299
  outer loop
   vertex 47.9896 54.8476 371.06
   vertex 45.9621 53.6512 371.202
   vertex 46.3301 55.7449 371.019
  endloop
 endfacet
 facet normal -0.0102425 -0.118128 -0.992946
  outer loop
   vertex 42.8373 57.1313 370.92
   vertex 44.8941 56.3899 370.987
   vertex 43.3487 55.0194 371.166
  endloop
 endfacet
 facet normal 0.255266 -0.38082 -0.888716
  outer loop
   vertex -9.20702 56.5891 372.254
   vertex -11.6114 57.8595 371.019
   vertex -9.9708 59.5333 370.773
  endloop
 endfacet
 facet normal 0.332848 -0.328185 -0.884029
  outer loop
   vertex -11.6114 57.8595 371.019
   vertex -12.9837 55.7674 371.279
   vertex -12.9995 57.9386 370.467
  endloop
 endfacet
 facet normal -0.0365118 -0.150384 -0.987953
  outer loop
   vertex 39.9944 57.191 371.016
   vertex 41.0039 57.8918 370.872
   vertex 42.8373 57.1313 370.92
  endloop
 endfacet
 facet normal -0.0341642 -0.0914509 -0.995223
  outer loop
   vertex 43.3487 55.0194 371.166
   vertex 44.8941 56.3899 370.987
   vertex 45.9621 53.6512 371.202
  endloop
 endfacet
 facet normal -0.0156635 -0.084322 -0.996315
  outer loop
   vertex 44.8941 56.3899 370.987
   vertex 46.3301 55.7449 371.019
   vertex 45.9621 53.6512 371.202
  endloop
 endfacet
 facet normal -0.0747896 -0.0640697 -0.995139
  outer loop
   vertex 60.2555 43.6049 371.478
   vertex 64.6075 45.0949 371.055
   vertex 66.8152 44.2574 370.943
  endloop
 endfacet
 facet normal -0.00793598 -0.00418789 -0.99996
  outer loop
   vertex 50.8954 53.0421 371.062
   vertex 51.5905 53.1604 371.056
   vertex 52.1968 52.4924 371.054
  endloop
 endfacet
 facet normal -0.0416656 -0.084106 -0.995585
  outer loop
   vertex 52.1968 52.4924 371.054
   vertex 50.962 48.961 371.404
   vertex 50.8954 53.0421 371.062
  endloop
 endfacet
 facet normal -0.119812 -0.0848433 -0.989165
  outer loop
   vertex 50.1199 54.1141 371.064
   vertex 50.8954 53.0421 371.062
   vertex 50.962 48.961 371.404
  endloop
 endfacet
 facet normal 0.0765661 0.129085 -0.988673
  outer loop
   vertex 36.7813 59.5705 370.836
   vertex 37.6585 59.4791 370.892
   vertex 37.609 59.1256 370.842
  endloop
 endfacet
 facet normal 0.0368193 0.0118614 -0.999252
  outer loop
   vertex 42.8373 57.1313 370.92
   vertex 43.8614 57.238 370.959
   vertex 44.8941 56.3899 370.987
  endloop
 endfacet
 facet normal 0.0562872 0.0407482 -0.997583
  outer loop
   vertex 42.1276 57.9398 370.913
   vertex 43.0806 57.5782 370.952
   vertex 42.8373 57.1313 370.92
  endloop
 endfacet
 facet normal 0.0354812 0.0224714 -0.999118
  outer loop
   vertex 41.0039 57.8918 370.872
   vertex 42.1276 57.9398 370.913
   vertex 42.8373 57.1313 370.92
  endloop
 endfacet
 facet normal -0.111202 -0.0921912 -0.989512
  outer loop
   vertex 69.268 39.0921 371.067
   vertex 70.8545 41.9653 370.621
   vertex 70.9906 37.9157 370.983
  endloop
 endfacet
 facet normal 0.0236878 0.048584 -0.998538
  outer loop
   vertex 37.609 59.1256 370.842
   vertex 38.5504 59.1803 370.867
   vertex 39.2172 58.5466 370.852
  endloop
 endfacet
 facet normal -0.108276 -0.214556 -0.970691
  outer loop
   vertex 37.9762 57.7641 371.102
   vertex 36.7813 59.5705 370.836
   vertex 37.609 59.1256 370.842
  endloop
 endfacet
 facet normal -0.0676396 -0.204703 -0.976484
  outer loop
   vertex 37.609 59.1256 370.842
   vertex 39.2172 58.5466 370.852
   vertex 37.9762 57.7641 371.102
  endloop
 endfacet
 facet normal -0.0414767 -0.143405 -0.988795
  outer loop
   vertex 39.2172 58.5466 370.852
   vertex 41.0039 57.8918 370.872
   vertex 39.9944 57.191 371.016
  endloop
 endfacet
 facet normal -0.125741 -0.0618941 -0.99013
  outer loop
   vertex 70.8545 41.9653 370.621
   vertex 68.1882 40.2954 371.064
   vertex 67.5574 44.1204 370.905
  endloop
 endfacet
 facet normal -0.104305 -0.0960593 -0.989896
  outer loop
   vertex 68.1882 40.2954 371.064
   vertex 70.8545 41.9653 370.621
   vertex 69.268 39.0921 371.067
  endloop
 endfacet
 facet normal 0.232344 -0.360505 -0.903356
  outer loop
   vertex -9.9708 59.5333 370.773
   vertex -11.6114 57.8595 371.019
   vertex -11.4862 59.6091 370.353
  endloop
 endfacet
 facet normal 0.508042 -0.298465 -0.807968
  outer loop
   vertex -12.9837 55.7674 371.279
   vertex -13.7193 55.6712 370.852
   vertex -12.9995 57.9386 370.467
  endloop
 endfacet
 facet normal -0.150841 -0.0930458 -0.984169
  outer loop
   vertex 70.9906 37.9157 370.983
   vertex 70.8545 41.9653 370.621
   vertex 72.814 41.3271 370.381
  endloop
 endfacet
 facet normal -0.2048 -0.171681 -0.96363
  outer loop
   vertex 72.7016 36.638 370.943
   vertex 75.5271 36.2815 370.406
   vertex 74.0782 35.9669 370.77
  endloop
 endfacet
 facet normal 0.230141 -0.419954 -0.87788
  outer loop
   vertex -9.5541 60.7839 370.284
   vertex -7.62829 61.139 370.619
   vertex -9.9708 59.5333 370.773
  endloop
 endfacet
 facet normal 0.29492 -0.3583 -0.885801
  outer loop
   vertex -12.5958 59.2273 370.138
   vertex -11.4862 59.6091 370.353
   vertex -11.6114 57.8595 371.019
  endloop
 endfacet
 facet normal -0.15944 -0.0882876 -0.983252
  outer loop
   vertex 72.814 41.3271 370.381
   vertex 73.9281 40.4068 370.283
   vertex 70.9906 37.9157 370.983
  endloop
 endfacet
 facet normal 0.332568 -0.329754 -0.88355
  outer loop
   vertex -12.9995 57.9386 370.467
   vertex -12.5958 59.2273 370.138
   vertex -11.6114 57.8595 371.019
  endloop
 endfacet
 facet normal -0.134405 -0.117985 -0.983877
  outer loop
   vertex 73.9281 40.4068 370.283
   vertex 75.7865 39.8658 370.094
   vertex 70.9906 37.9157 370.983
  endloop
 endfacet
 facet normal -0.126002 -0.137971 -0.982389
  outer loop
   vertex 75.7865 39.8658 370.094
   vertex 72.7016 36.638 370.943
   vertex 70.9906 37.9157 370.983
  endloop
 endfacet
 facet normal 0.523256 -0.301446 -0.797078
  outer loop
   vertex -14.5304 55.4055 370.42
   vertex -12.9995 57.9386 370.467
   vertex -13.7193 55.6712 370.852
  endloop
 endfacet
 facet normal -0.194882 -0.0710525 -0.97825
  outer loop
   vertex 75.7865 39.8658 370.094
   vertex 75.5271 36.2815 370.406
   vertex 72.7016 36.638 370.943
  endloop
 endfacet
 facet normal -0.226651 -0.141113 -0.963699
  outer loop
   vertex 75.5271 36.2815 370.406
   vertex 76.6012 34.8431 370.364
   vertex 75.5994 35.1479 370.555
  endloop
 endfacet
 facet normal -0.409661 -0.435613 -0.801511
  outer loop
   vertex 78.8063 33.3518 370.156
   vertex 78.0392 33.7218 370.347
   vertex 77.9649 34.1155 370.171
  endloop
 endfacet
 facet normal -0.313554 -0.353919 -0.88115
  outer loop
   vertex 76.6012 34.8431 370.364
   vertex 77.9649 34.1155 370.171
   vertex 77.305 34.1698 370.384
  endloop
 endfacet
 facet normal 0.231895 -0.420294 -0.877256
  outer loop
   vertex -9.9708 59.5333 370.773
   vertex -11.5186 60.6768 369.816
   vertex -9.5541 60.7839 370.284
  endloop
 endfacet
 facet normal 0.220597 -0.432893 -0.874037
  outer loop
   vertex -9.9708 59.5333 370.773
   vertex -11.4862 59.6091 370.353
   vertex -11.5186 60.6768 369.816
  endloop
 endfacet
 facet normal -0.203379 -0.123514 -0.971278
  outer loop
   vertex 75.5271 36.2815 370.406
   vertex 77.9649 34.1155 370.171
   vertex 76.6012 34.8431 370.364
  endloop
 endfacet
 facet normal 0.382589 -0.405836 -0.830014
  outer loop
   vertex -12.4231 60.36 369.554
   vertex -11.5186 60.6768 369.816
   vertex -11.4862 59.6091 370.353
  endloop
 endfacet
 facet normal 0.393908 -0.341283 -0.853442
  outer loop
   vertex -12.5958 59.2273 370.138
   vertex -12.9995 57.9386 370.467
   vertex -14.2087 58.8111 369.56
  endloop
 endfacet
 facet normal 0.448751 -0.265223 -0.853392
  outer loop
   vertex -12.9995 57.9386 370.467
   vertex -15.0732 57.712 369.447
   vertex -14.2087 58.8111 369.56
  endloop
 endfacet
 facet normal 0.525338 -0.302739 -0.795216
  outer loop
   vertex -14.5304 55.4055 370.42
   vertex -15.2643 55.0382 370.075
   vertex -12.9995 57.9386 370.467
  endloop
 endfacet
 facet normal -0.204868 -0.107351 -0.972885
  outer loop
   vertex 76.5623 38.6832 369.923
   vertex 77.8698 37.7921 369.746
   vertex 75.5271 36.2815 370.406
  endloop
 endfacet
 facet normal -0.198303 -0.117608 -0.973059
  outer loop
   vertex 77.9649 34.1155 370.171
   vertex 75.5271 36.2815 370.406
   vertex 77.8698 37.7921 369.746
  endloop
 endfacet
 facet normal -0.302497 -0.0609098 -0.951202
  outer loop
   vertex 75.7865 39.8658 370.094
   vertex 76.5623 38.6832 369.923
   vertex 75.5271 36.2815 370.406
  endloop
 endfacet
 facet normal 0.321511 -0.472202 -0.820765
  outer loop
   vertex -12.5958 59.2273 370.138
   vertex -12.4231 60.36 369.554
   vertex -11.4862 59.6091 370.353
  endloop
 endfacet
 facet normal -0.226831 -0.231346 -0.946059
  outer loop
   vertex 77.9649 34.1155 370.171
   vertex 80.0844 34.6545 369.531
   vertex 78.8063 33.3518 370.156
  endloop
 endfacet
 facet normal -0.26552 -0.192711 -0.944649
  outer loop
   vertex 78.8063 33.3518 370.156
   vertex 80.0844 34.6545 369.531
   vertex 79.9201 32.974 369.92
  endloop
 endfacet
 facet normal 0.338305 -0.471483 -0.814404
  outer loop
   vertex -13.5821 59.86 369.362
   vertex -12.4231 60.36 369.554
   vertex -12.5958 59.2273 370.138
  endloop
 endfacet
 facet normal 0.398507 -0.394371 -0.828048
  outer loop
   vertex -14.2087 58.8111 369.56
   vertex -13.5821 59.86 369.362
   vertex -12.5958 59.2273 370.138
  endloop
 endfacet
 facet normal -0.292928 -0.188353 -0.937399
  outer loop
   vertex 81.3618 32.5933 369.546
   vertex 79.9201 32.974 369.92
   vertex 80.0844 34.6545 369.531
  endloop
 endfacet
 facet normal -0.308384 -0.272404 -0.911425
  outer loop
   vertex 79.9201 32.974 369.92
   vertex 81.3618 32.5933 369.546
   vertex 80.794 32.2624 369.837
  endloop
 endfacet
 facet normal -0.00701715 0.0014499 -0.999974
  outer loop
   vertex 78.0147 38.4934 369.746
   vertex 77.8698 37.7921 369.746
   vertex 77.6187 38.6395 369.749
  endloop
 endfacet
 facet normal -0.164184 -0.0451728 -0.985395
  outer loop
   vertex 77.6187 38.6395 369.749
   vertex 77.8698 37.7921 369.746
   vertex 76.5623 38.6832 369.923
  endloop
 endfacet
 facet normal -0.254072 -0.117543 -0.960016
  outer loop
   vertex 77.8698 37.7921 369.746
   vertex 79.0455 37.3826 369.485
   vertex 77.9649 34.1155 370.171
  endloop
 endfacet
 facet normal 0.449581 -0.234572 -0.861889
  outer loop
   vertex -15.2643 55.0382 370.075
   vertex -15.0732 57.712 369.447
   vertex -12.9995 57.9386 370.467
  endloop
 endfacet
 facet normal -0.258218 -0.122451 -0.958295
  outer loop
   vertex 80.0844 34.6545 369.531
   vertex 77.9649 34.1155 370.171
   vertex 79.7624 36.7032 369.356
  endloop
 endfacet
 facet normal -0.27553 -0.109402 -0.955047
  outer loop
   vertex 79.0455 37.3826 369.485
   vertex 79.7624 36.7032 369.356
   vertex 77.9649 34.1155 370.171
  endloop
 endfacet
 facet normal 0.379005 -0.385241 -0.841394
  outer loop
   vertex -14.2087 58.8111 369.56
   vertex -14.6512 59.6207 368.99
   vertex -13.5821 59.86 369.362
  endloop
 endfacet
 facet normal 0.468571 -0.282494 -0.837041
  outer loop
   vertex -15.0732 57.712 369.447
   vertex -15.9938 58.5347 368.654
   vertex -14.2087 58.8111 369.56
  endloop
 endfacet
 facet normal -0.229092 -0.0148017 -0.973292
  outer loop
   vertex 79.7624 36.7032 369.356
   vertex 80.411 36.8565 369.201
   vertex 80.7075 36.1465 369.142
  endloop
 endfacet
 facet normal -0.289367 -0.126537 -0.948818
  outer loop
   vertex 79.7624 36.7032 369.356
   vertex 80.7075 36.1465 369.142
   vertex 80.0844 34.6545 369.531
  endloop
 endfacet
 facet normal -0.177209 -0.000123798 -0.984173
  outer loop
   vertex 79.6063 37.4309 369.384
   vertex 79.7624 36.7032 369.356
   vertex 79.0455 37.3826 369.485
  endloop
 endfacet
 facet normal 0.468344 -0.218792 -0.856028
  outer loop
   vertex -15.8277 59.6414 368.462
   vertex -14.2087 58.8111 369.56
   vertex -15.9938 58.5347 368.654
  endloop
 endfacet
 facet normal 0.508089 -0.231192 -0.829696
  outer loop
   vertex -15.0732 57.712 369.447
   vertex -15.2643 55.0382 370.075
   vertex -15.9938 58.5347 368.654
  endloop
 endfacet
 facet normal 0.621335 -0.180267 -0.762526
  outer loop
   vertex -15.2643 55.0382 370.075
   vertex -18.3242 56.6993 367.189
   vertex -15.9938 58.5347 368.654
  endloop
 endfacet
 facet normal 0.653349 -0.440811 -0.615485
  outer loop
   vertex -16.4606 54.3968 369.391
   vertex -16.9924 54.3919 368.83
   vertex -16.1354 54.9151 369.365
  endloop
 endfacet
 facet normal -0.282878 -0.129647 -0.950353
  outer loop
   vertex 80.7075 36.1465 369.142
   vertex 81.3302 35.8947 368.991
   vertex 80.0844 34.6545 369.531
  endloop
 endfacet
 facet normal 0.668149 -0.0579626 -0.741766
  outer loop
   vertex -18.3242 56.6993 367.189
   vertex -15.2643 55.0382 370.075
   vertex -17.6226 55.4575 367.918
  endloop
 endfacet
 facet normal -0.0583634 0.253251 -0.965639
  outer loop
   vertex 82.0356 35.5768 368.865
   vertex 81.3302 35.8947 368.991
   vertex 81.771 35.8819 368.961
  endloop
 endfacet
 facet normal -0.2463 -0.168191 -0.954488
  outer loop
   vertex 80.0844 34.6545 369.531
   vertex 81.3302 35.8947 368.991
   vertex 82.0356 35.5768 368.865
  endloop
 endfacet
 facet normal 0.621524 -0.26375 -0.737661
  outer loop
   vertex -17.6226 55.4575 367.918
   vertex -16.1354 54.9151 369.365
   vertex -16.9924 54.3919 368.83
  endloop
 endfacet
 facet normal 0.662164 -0.221159 -0.71598
  outer loop
   vertex -18.1098 54.0312 367.908
   vertex -17.6226 55.4575 367.918
   vertex -16.9924 54.3919 368.83
  endloop
 endfacet
 facet normal 0.595773 -0.122938 -0.793688
  outer loop
   vertex -18.3242 56.6993 367.189
   vertex -16.6054 59.3217 368.073
   vertex -15.9938 58.5347 368.654
  endloop
 endfacet
 facet normal 0.420828 0.029806 -0.906651
  outer loop
   vertex -17.439 59.1366 367.68
   vertex -16.6054 59.3217 368.073
   vertex -18.3242 56.6993 367.189
  endloop
 endfacet
 facet normal 0.663428 -0.361255 -0.655255
  outer loop
   vertex -18.6266 53.4231 367.72
   vertex -19.5139 53.3118 366.883
   vertex -18.1098 54.0312 367.908
  endloop
 endfacet
 facet normal 0.534227 -0.0237976 -0.845006
  outer loop
   vertex -18.3242 56.6993 367.189
   vertex -18.3401 58.5432 367.127
   vertex -17.439 59.1366 367.68
  endloop
 endfacet
 facet normal 0.642359 -0.0842689 -0.761757
  outer loop
   vertex -18.3242 56.6993 367.189
   vertex -17.6226 55.4575 367.918
   vertex -19.856 55.6351 366.015
  endloop
 endfacet
 facet normal 0.651343 -0.251045 -0.716051
  outer loop
   vertex -19.5139 53.3118 366.883
   vertex -19.4228 54.4751 366.558
   vertex -18.1098 54.0312 367.908
  endloop
 endfacet
 facet normal 0.661801 -0.221033 -0.716355
  outer loop
   vertex -17.6226 55.4575 367.918
   vertex -18.1098 54.0312 367.908
   vertex -19.4228 54.4751 366.558
  endloop
 endfacet
 facet normal 0.539943 -0.0236261 -0.84137
  outer loop
   vertex -18.3242 56.6993 367.189
   vertex -19.3484 58.1137 366.492
   vertex -18.3401 58.5432 367.127
  endloop
 endfacet
 facet normal 0.638636 -0.117488 -0.760487
  outer loop
   vertex -19.856 55.6351 366.015
   vertex -17.6226 55.4575 367.918
   vertex -19.4228 54.4751 366.558
  endloop
 endfacet
 facet normal 0.669605 -0.436956 -0.600582
  outer loop
   vertex -20.4159 52.7927 366.255
   vertex -19.5139 53.3118 366.883
   vertex -19.873 52.811 366.847
  endloop
 endfacet
 facet normal 0.593297 0.0332779 -0.804295
  outer loop
   vertex -19.856 55.6351 366.015
   vertex -19.3484 58.1137 366.492
   vertex -18.3242 56.6993 367.189
  endloop
 endfacet
 facet normal 0.608247 0.0280909 -0.793251
  outer loop
   vertex -20.7296 56.3649 365.371
   vertex -19.3484 58.1137 366.492
   vertex -19.856 55.6351 366.015
  endloop
 endfacet
 facet normal 0.631856 -0.254049 -0.732268
  outer loop
   vertex -21.3705 53.7124 365.142
   vertex -19.4228 54.4751 366.558
   vertex -19.5139 53.3118 366.883
  endloop
 endfacet
 facet normal 0.64044 -0.224203 -0.734554
  outer loop
   vertex -19.5139 53.3118 366.883
   vertex -20.4159 52.7927 366.255
   vertex -21.3705 53.7124 365.142
  endloop
 endfacet
 facet normal 0.62438 -0.488181 -0.609777
  outer loop
   vertex -20.7919 52.4005 366.184
   vertex -21.2925 52.4747 365.612
   vertex -20.4159 52.7927 366.255
  endloop
 endfacet
 facet normal 0.629348 -0.240904 -0.738841
  outer loop
   vertex -21.2925 52.4747 365.612
   vertex -21.3705 53.7124 365.142
   vertex -20.4159 52.7927 366.255
  endloop
 endfacet
 facet normal 0.616379 -0.133116 -0.776117
  outer loop
   vertex -21.3705 53.7124 365.142
   vertex -19.856 55.6351 366.015
   vertex -19.4228 54.4751 366.558
  endloop
 endfacet
 facet normal 0.618224 -0.135418 -0.774248
  outer loop
   vertex -21.3705 53.7124 365.142
   vertex -21.6504 55.1675 364.664
   vertex -19.856 55.6351 366.015
  endloop
 endfacet
 facet normal 0.633187 -0.239578 -0.735987
  outer loop
   vertex -22.5732 52.3002 364.567
   vertex -21.3705 53.7124 365.142
   vertex -21.2925 52.4747 365.612
  endloop
 endfacet
 facet normal 0.599535 0.0114725 -0.800266
  outer loop
   vertex -21.6504 55.1675 364.664
   vertex -20.7296 56.3649 365.371
   vertex -19.856 55.6351 366.015
  endloop
 endfacet
 facet normal 0.549977 0.0685348 -0.832363
  outer loop
   vertex -22.0701 55.9729 364.453
   vertex -20.7296 56.3649 365.371
   vertex -21.6504 55.1675 364.664
  endloop
 endfacet
 facet normal 0.558487 0.0745969 -0.826152
  outer loop
   vertex -21.6504 55.1675 364.664
   vertex -22.9691 55.1946 363.775
   vertex -22.0701 55.9729 364.453
  endloop
 endfacet
 facet normal 0.601819 -0.142381 -0.785838
  outer loop
   vertex -21.6504 55.1675 364.664
   vertex -21.3705 53.7124 365.142
   vertex -23.2094 54.2351 363.639
  endloop
 endfacet
 facet normal 0.558535 -0.0223643 -0.829179
  outer loop
   vertex -23.2094 54.2351 363.639
   vertex -22.9691 55.1946 363.775
   vertex -21.6504 55.1675 364.664
  endloop
 endfacet
 facet normal 0.603611 -0.199792 -0.77184
  outer loop
   vertex -21.3705 53.7124 365.142
   vertex -22.5732 52.3002 364.567
   vertex -24.1181 52.512 363.304
  endloop
 endfacet
 facet normal 0.59654 -0.161749 -0.786115
  outer loop
   vertex -24.1181 52.512 363.304
   vertex -23.2094 54.2351 363.639
   vertex -21.3705 53.7124 365.142
  endloop
 endfacet
 facet normal 0.591852 -0.250853 -0.766018
  outer loop
   vertex -24.1181 52.512 363.304
   vertex -22.5732 52.3002 364.567
   vertex -23.8246 51.3936 363.897
  endloop
 endfacet
 facet normal 0.626249 -0.434367 -0.647409
  outer loop
   vertex -23.8246 51.3936 363.897
   vertex -24.4568 50.8592 363.644
   vertex -25.1389 50.8267 363.006
  endloop
 endfacet
 facet normal 0.516878 -0.00812745 -0.856021
  outer loop
   vertex -22.9691 55.1946 363.775
   vertex -23.2094 54.2351 363.639
   vertex -24.6839 54.7295 362.744
  endloop
 endfacet
 facet normal 0.582014 -0.151599 -0.798922
  outer loop
   vertex -23.2094 54.2351 363.639
   vertex -24.1181 52.512 363.304
   vertex -24.7782 53.4981 362.636
  endloop
 endfacet
 facet normal 0.526924 0.0341314 -0.849227
  outer loop
   vertex -24.7782 53.4981 362.636
   vertex -24.6839 54.7295 362.744
   vertex -23.2094 54.2351 363.639
  endloop
 endfacet
 facet normal 0.6133 -0.238339 -0.753032
  outer loop
   vertex -25.1389 50.8267 363.006
   vertex -24.1181 52.512 363.304
   vertex -23.8246 51.3936 363.897
  endloop
 endfacet
 facet normal 0.599901 -0.227759 -0.766971
  outer loop
   vertex -25.1389 50.8267 363.006
   vertex -26.1091 51.1808 362.142
   vertex -24.1181 52.512 363.304
  endloop
 endfacet
 facet normal 0.585307 -0.148196 -0.797153
  outer loop
   vertex -24.7782 53.4981 362.636
   vertex -24.1181 52.512 363.304
   vertex -25.7629 52.4167 362.114
  endloop
 endfacet
 facet normal 0.583316 -0.181327 -0.791747
  outer loop
   vertex -26.1091 51.1808 362.142
   vertex -25.7629 52.4167 362.114
   vertex -24.1181 52.512 363.304
  endloop
 endfacet
 facet normal 0.618578 -0.426958 -0.659597
  outer loop
   vertex -25.1389 50.8267 363.006
   vertex -25.8544 50.32 362.663
   vertex -26.3389 50.2252 362.27
  endloop
 endfacet
 facet normal 0.483563 0.0795146 -0.871691
  outer loop
   vertex -26.3097 54.2462 361.798
   vertex -24.6839 54.7295 362.744
   vertex -26.0636 53.3086 361.849
  endloop
 endfacet
 facet normal 0.518044 0.035285 -0.854626
  outer loop
   vertex -24.6839 54.7295 362.744
   vertex -24.7782 53.4981 362.636
   vertex -26.0636 53.3086 361.849
  endloop
 endfacet
 facet normal 0.528576 -0.0730891 -0.845734
  outer loop
   vertex -24.7782 53.4981 362.636
   vertex -25.7629 52.4167 362.114
   vertex -26.0636 53.3086 361.849
  endloop
 endfacet
 facet normal 0.593251 -0.245355 -0.766716
  outer loop
   vertex -26.3389 50.2252 362.27
   vertex -26.1091 51.1808 362.142
   vertex -25.1389 50.8267 363.006
  endloop
 endfacet
 facet normal 0.468644 0.0751366 -0.880186
  outer loop
   vertex -27.0653 53.3946 361.323
   vertex -26.3097 54.2462 361.798
   vertex -26.0636 53.3086 361.849
  endloop
 endfacet
 facet normal -0.60237 0.276788 -0.748691
  outer loop
   vertex -48.7032 51.3046 357.707
   vertex -49.5668 51.6892 358.544
   vertex -48.6565 52.499 358.111
  endloop
 endfacet
 facet normal -0.470121 -0.47267 -0.745365
  outer loop
   vertex -49.8633 54.3415 358.235
   vertex -48.8093 53.3799 358.18
   vertex -49.6745 53.8604 358.421
  endloop
 endfacet
 facet normal 0.0102021 0.0593235 -0.998187
  outer loop
   vertex -52.372 53.404 358.976
   vertex -51.1744 53.3829 358.987
   vertex -51.0538 52.4199 358.931
  endloop
 endfacet
 facet normal 0.0449864 0.105697 -0.99338
  outer loop
   vertex -51.0538 52.4199 358.931
   vertex -53.8038 53.0735 358.876
   vertex -52.372 53.404 358.976
  endloop
 endfacet
 facet normal -0.0720636 0.0407807 -0.996566
  outer loop
   vertex -49.857 52.4332 358.845
   vertex -51.0538 52.4199 358.931
   vertex -50.3617 53.1783 358.912
  endloop
 endfacet
 facet normal -0.0798398 0.0478999 -0.995656
  outer loop
   vertex -51.1744 53.3829 358.987
   vertex -50.3617 53.1783 358.912
   vertex -51.0538 52.4199 358.931
  endloop
 endfacet
 facet normal -0.34286 -0.148854 -0.927518
  outer loop
   vertex -49.857 52.4332 358.845
   vertex -50.3617 53.1783 358.912
   vertex -49.6053 53.2243 358.625
  endloop
 endfacet
 facet normal -0.0724967 0.127301 -0.989211
  outer loop
   vertex -49.857 52.4332 358.845
   vertex -50.1771 51.2874 358.721
   vertex -51.0538 52.4199 358.931
  endloop
 endfacet
 facet normal -0.395995 0.207429 -0.894517
  outer loop
   vertex -50.1771 51.2874 358.721
   vertex -49.857 52.4332 358.845
   vertex -49.5668 51.6892 358.544
  endloop
 endfacet
 facet normal -0.494151 -0.0834336 -0.865363
  outer loop
   vertex -49.2041 52.5697 358.459
   vertex -49.857 52.4332 358.845
   vertex -49.6053 53.2243 358.625
  endloop
 endfacet
 facet normal -0.525026 0.135161 -0.840285
  outer loop
   vertex -49.5668 51.6892 358.544
   vertex -49.857 52.4332 358.845
   vertex -49.2041 52.5697 358.459
  endloop
 endfacet
 facet normal -0.411583 0.237559 -0.879867
  outer loop
   vertex -49.7952 50.4045 358.304
   vertex -50.1771 51.2874 358.721
   vertex -49.5668 51.6892 358.544
  endloop
 endfacet
 facet normal -0.414364 -0.318509 -0.852558
  outer loop
   vertex -49.6053 53.2243 358.625
   vertex -49.6745 53.8604 358.421
   vertex -48.8093 53.3799 358.18
  endloop
 endfacet
 facet normal -0.476369 -0.069717 -0.876477
  outer loop
   vertex -48.8093 53.3799 358.18
   vertex -49.2041 52.5697 358.459
   vertex -49.6053 53.2243 358.625
  endloop
 endfacet
 facet normal -0.614539 0.249103 -0.748525
  outer loop
   vertex -49.7952 50.4045 358.304
   vertex -49.5668 51.6892 358.544
   vertex -48.7032 51.3046 357.707
  endloop
 endfacet
 facet normal -0.328323 0.283555 -0.901
  outer loop
   vertex -50.2684 49.4658 358.181
   vertex -50.1771 51.2874 358.721
   vertex -49.7952 50.4045 358.304
  endloop
 endfacet
 facet normal -0.538704 -0.0274847 -0.842047
  outer loop
   vertex -48.6565 52.499 358.111
   vertex -49.2041 52.5697 358.459
   vertex -48.8093 53.3799 358.18
  endloop
 endfacet
 facet normal -0.519416 0.132473 -0.844191
  outer loop
   vertex -49.5668 51.6892 358.544
   vertex -49.2041 52.5697 358.459
   vertex -48.6565 52.499 358.111
  endloop
 endfacet
 facet normal -0.440432 -0.244606 -0.863822
  outer loop
   vertex 83.718 30.9395 369.078
   vertex 83.0164 30.9703 369.427
   vertex 82.51 31.2288 369.612
  endloop
 endfacet
 facet normal -0.41383 -0.448203 -0.792375
  outer loop
   vertex 83.0164 30.9703 369.427
   vertex 83.718 30.9395 369.078
   vertex 83.6469 30.5614 369.329
  endloop
 endfacet
 facet normal -0.499826 -0.411832 -0.76195
  outer loop
   vertex 84.2721 30.2263 369.1
   vertex 83.6469 30.5614 369.329
   vertex 83.718 30.9395 369.078
  endloop
 endfacet
 facet normal -0.328072 -0.253809 -0.909917
  outer loop
   vertex 80.0844 34.6545 369.531
   vertex 84.4816 33.495 368.269
   vertex 82.51 31.2288 369.612
  endloop
 endfacet
 facet normal -0.44144 -0.368208 -0.818263
  outer loop
   vertex 83.718 30.9395 369.078
   vertex 85.0669 30.1668 368.698
   vertex 84.2721 30.2263 369.1
  endloop
 endfacet
 facet normal -0.28567 -0.0412848 -0.957438
  outer loop
   vertex 84.4816 33.495 368.269
   vertex 80.0844 34.6545 369.531
   vertex 83.3387 34.3769 368.572
  endloop
 endfacet
 facet normal -0.406559 -0.177416 -0.896233
  outer loop
   vertex 85.885 32.2896 367.871
   vertex 82.51 31.2288 369.612
   vertex 84.4816 33.495 368.269
  endloop
 endfacet
 facet normal -0.373817 -0.208061 -0.903865
  outer loop
   vertex 85.0669 30.1668 368.698
   vertex 83.718 30.9395 369.078
   vertex 85.885 32.2896 367.871
  endloop
 endfacet
 facet normal -0.425221 -0.119558 -0.897158
  outer loop
   vertex 82.51 31.2288 369.612
   vertex 85.885 32.2896 367.871
   vertex 83.718 30.9395 369.078
  endloop
 endfacet
 facet normal -0.43902 -0.29059 -0.850187
  outer loop
   vertex 85.3401 29.6078 368.748
   vertex 85.0669 30.1668 368.698
   vertex 86.1854 29.3752 368.391
  endloop
 endfacet
 facet normal -0.409739 -0.237351 -0.880783
  outer loop
   vertex 86.1854 29.3752 368.391
   vertex 85.0669 30.1668 368.698
   vertex 86.3275 30.8183 367.936
  endloop
 endfacet
 facet normal -0.553991 -0.427897 -0.714142
  outer loop
   vertex 86.744 28.7154 368.353
   vertex 86.1854 29.3752 368.391
   vertex 87.1017 28.7413 368.06
  endloop
 endfacet
 facet normal -0.442928 -0.172085 -0.879887
  outer loop
   vertex 86.3275 30.8183 367.936
   vertex 85.0669 30.1668 368.698
   vertex 85.885 32.2896 367.871
  endloop
 endfacet
 facet normal -0.464628 -0.224328 -0.85662
  outer loop
   vertex 87.1017 28.7413 368.06
   vertex 86.1854 29.3752 368.391
   vertex 86.3275 30.8183 367.936
  endloop
 endfacet
 facet normal -0.394203 -0.158551 -0.905243
  outer loop
   vertex 86.3275 30.8183 367.936
   vertex 85.885 32.2896 367.871
   vertex 86.5251 31.8915 367.662
  endloop
 endfacet
 facet normal -0.322108 -0.0209862 -0.94647
  outer loop
   vertex 86.5251 31.8915 367.662
   vertex 85.885 32.2896 367.871
   vertex 86.3461 32.3831 367.712
  endloop
 endfacet
 facet normal -0.464927 -0.137699 -0.874575
  outer loop
   vertex 86.8528 31.5344 367.544
   vertex 86.3275 30.8183 367.936
   vertex 86.5251 31.8915 367.662
  endloop
 endfacet
 facet normal -0.415972 -0.18253 -0.89087
  outer loop
   vertex 86.3275 30.8183 367.936
   vertex 86.8528 31.5344 367.544
   vertex 87.3689 31.1295 367.386
  endloop
 endfacet
 facet normal -0.408391 -0.205324 -0.889415
  outer loop
   vertex 86.3275 30.8183 367.936
   vertex 87.3689 31.1295 367.386
   vertex 87.1017 28.7413 368.06
  endloop
 endfacet
 facet normal -0.344742 -0.0742205 -0.935759
  outer loop
   vertex 87.3689 31.1295 367.386
   vertex 86.8528 31.5344 367.544
   vertex 87.1105 31.7118 367.435
  endloop
 endfacet
 facet normal -0.351346 0.0419683 -0.935305
  outer loop
   vertex 87.3689 31.1295 367.386
   vertex 87.9707 31.1314 367.16
   vertex 88.0116 30.7161 367.126
  endloop
 endfacet
 facet normal -0.470918 -0.190417 -0.861381
  outer loop
   vertex 87.1017 28.7413 368.06
   vertex 87.3689 31.1295 367.386
   vertex 88.0116 30.7161 367.126
  endloop
 endfacet
 facet normal -0.469037 -0.191641 -0.862136
  outer loop
   vertex 88.5115 30.3114 366.944
   vertex 87.1017 28.7413 368.06
   vertex 88.0116 30.7161 367.126
  endloop
 endfacet
 facet normal -0.386214 -0.0632038 -0.920241
  outer loop
   vertex 88.0116 30.7161 367.126
   vertex 88.4316 30.7414 366.948
   vertex 88.5115 30.3114 366.944
  endloop
 endfacet
 facet normal -0.627029 -0.421549 -0.655081
  outer loop
   vertex 88.1615 28.1046 367.617
   vertex 88.9592 27.2351 367.413
   vertex 88.424 27.5308 367.735
  endloop
 endfacet
 facet normal -0.509322 -0.276015 -0.815111
  outer loop
   vertex 88.9592 27.2351 367.413
   vertex 88.1615 28.1046 367.617
   vertex 89.6239 27.3876 366.946
  endloop
 endfacet
 facet normal -0.504183 -0.291586 -0.812882
  outer loop
   vertex 89.6239 27.3876 366.946
   vertex 89.6028 26.769 367.181
   vertex 88.9592 27.2351 367.413
  endloop
 endfacet
 facet normal -0.487774 -0.199548 -0.849857
  outer loop
   vertex 89.6239 27.3876 366.946
   vertex 88.1615 28.1046 367.617
   vertex 88.9118 29.0985 366.953
  endloop
 endfacet
 facet normal -0.51613 -0.288711 -0.806384
  outer loop
   vertex 89.6239 27.3876 366.946
   vertex 90.2609 26.4528 366.873
   vertex 89.6028 26.769 367.181
  endloop
 endfacet
 facet normal -0.442057 -0.132283 -0.887179
  outer loop
   vertex 89.6689 29.6201 366.498
   vertex 90.4542 28.5853 366.261
   vertex 88.9118 29.0985 366.953
  endloop
 endfacet
 facet normal -0.45285 -0.184921 -0.872199
  outer loop
   vertex 90.4542 28.5853 366.261
   vertex 89.6239 27.3876 366.946
   vertex 88.9118 29.0985 366.953
  endloop
 endfacet
 facet normal -0.469533 -0.253893 -0.845622
  outer loop
   vertex 90.2609 26.4528 366.873
   vertex 89.6239 27.3876 366.946
   vertex 90.9731 26.781 366.379
  endloop
 endfacet
 facet normal -0.450793 -0.186735 -0.872878
  outer loop
   vertex 89.6239 27.3876 366.946
   vertex 90.4542 28.5853 366.261
   vertex 90.9731 26.781 366.379
  endloop
 endfacet
endsolid
