solid ascii
 facet normal 0.444607 -0.0386069 0.894893
  outer loop
   vertex -13.3688 32.117 446.767
   vertex -14.3379 32.4304 447.262
   vertex -14.1916 31.1718 447.135
  endloop
 endfacet
 facet normal 0.205097 -0.0173511 0.978588
  outer loop
   vertex -13.6689 30.5259 447.014
   vertex -14.1916 31.1718 447.135
   vertex -14.0447 30.3695 447.09
  endloop
 endfacet
 facet normal 0.348652 -0.211612 0.913051
  outer loop
   vertex -14.5378 33.2217 447.376
   vertex -12.7833 35.0207 447.123
   vertex -14.2657 33.8641 447.421
  endloop
 endfacet
 facet normal 0.323529 0.0852761 0.942368
  outer loop
   vertex -14.1916 31.1718 447.135
   vertex -13.6689 30.5259 447.014
   vertex -13.3688 32.117 446.767
  endloop
 endfacet
 facet normal 0.291738 -0.0361424 0.955815
  outer loop
   vertex -13.5746 29.9643 446.964
   vertex -12.8587 30.4543 446.764
   vertex -13.6689 30.5259 447.014
  endloop
 endfacet
 facet normal 0.363537 -0.227488 0.903377
  outer loop
   vertex -14.5378 33.2217 447.376
   vertex -12.2949 33.232 446.476
   vertex -12.7833 35.0207 447.123
  endloop
 endfacet
 facet normal 0.368059 -0.163109 0.915384
  outer loop
   vertex -12.2949 33.232 446.476
   vertex -14.5378 33.2217 447.376
   vertex -12.9918 32.5853 446.641
  endloop
 endfacet
 facet normal 0.383824 0.0705411 0.920708
  outer loop
   vertex -13.6689 30.5259 447.014
   vertex -12.7801 32.0856 446.524
   vertex -13.3688 32.117 446.767
  endloop
 endfacet
 facet normal 0.297153 0.0302492 0.954351
  outer loop
   vertex -13.6689 30.5259 447.014
   vertex -12.8587 30.4543 446.764
   vertex -12.3228 30.9639 446.581
  endloop
 endfacet
 facet normal 0.361856 -0.228133 0.903889
  outer loop
   vertex -11.2825 33.0905 446.035
   vertex -12.7833 35.0207 447.123
   vertex -12.2949 33.232 446.476
  endloop
 endfacet
 facet normal 0.330339 -0.00842945 0.943825
  outer loop
   vertex -12.8587 30.4543 446.764
   vertex -12.1386 30.5694 446.513
   vertex -12.3228 30.9639 446.581
  endloop
 endfacet
 facet normal 0.349574 -0.238846 0.905953
  outer loop
   vertex -11.2825 33.0905 446.035
   vertex -11.359 34.9775 446.562
   vertex -12.7833 35.0207 447.123
  endloop
 endfacet
 facet normal 0.307762 -0.0202507 0.951248
  outer loop
   vertex -11.6944 30.8851 446.376
   vertex -12.3228 30.9639 446.581
   vertex -12.1386 30.5694 446.513
  endloop
 endfacet
 facet normal 0.316895 0.0657788 0.946177
  outer loop
   vertex -12.3228 30.9639 446.581
   vertex -11.6944 30.8851 446.376
   vertex -11.5087 31.4145 446.277
  endloop
 endfacet
 facet normal 0.304251 -0.0858449 0.948716
  outer loop
   vertex -12.9918 32.5853 446.641
   vertex -11.8705 32.2495 446.251
   vertex -12.2949 33.232 446.476
  endloop
 endfacet
 facet normal 0.48808 -0.399091 0.776212
  outer loop
   vertex -11.4815 30.8576 446.228
   vertex -11.2463 31.1161 446.213
   vertex -11.6944 30.8851 446.376
  endloop
 endfacet
 facet normal 0.464303 -0.464417 0.754148
  outer loop
   vertex -11.6944 30.8851 446.376
   vertex -11.8556 30.6054 446.303
   vertex -11.4815 30.8576 446.228
  endloop
 endfacet
 facet normal 0.309519 0.0687824 0.948402
  outer loop
   vertex -11.6944 30.8851 446.376
   vertex -11.2463 31.1161 446.213
   vertex -11.5087 31.4145 446.277
  endloop
 endfacet
 facet normal 0.420904 -0.144376 0.895542
  outer loop
   vertex -9.46856 36.5075 445.984
   vertex -9.98648 36.5731 446.238
   vertex -10.0706 36.0549 446.194
  endloop
 endfacet
 facet normal 0.437203 -0.225434 0.870651
  outer loop
   vertex -11.2825 33.0905 446.035
   vertex -10.0706 36.0549 446.194
   vertex -11.359 34.9775 446.562
  endloop
 endfacet
 facet normal 0.39435 -0.0399127 0.918093
  outer loop
   vertex -11.2825 33.0905 446.035
   vertex -12.2949 33.232 446.476
   vertex -11.8705 32.2495 446.251
  endloop
 endfacet
 facet normal 0.321884 0.0807441 0.94333
  outer loop
   vertex -10.872 31.3881 446.062
   vertex -11.5087 31.4145 446.277
   vertex -11.2463 31.1161 446.213
  endloop
 endfacet
 facet normal 0.373689 0.190186 0.907847
  outer loop
   vertex -11.5087 31.4145 446.277
   vertex -10.5928 31.4431 445.894
   vertex -11.8705 32.2495 446.251
  endloop
 endfacet
 facet normal 0.292653 0.0407595 0.955349
  outer loop
   vertex -11.2825 33.0905 446.035
   vertex -11.8705 32.2495 446.251
   vertex -10.5928 31.4431 445.894
  endloop
 endfacet
 facet normal 0.426175 -0.0680131 0.902081
  outer loop
   vertex -9.07739 36.8252 445.868
   vertex -8.49967 37.0363 445.611
   vertex -8.99946 37.0747 445.85
  endloop
 endfacet
 facet normal 0.465214 -0.235948 0.853173
  outer loop
   vertex -10.0706 36.0549 446.194
   vertex -11.2825 33.0905 446.035
   vertex -10.3665 33.8009 445.732
  endloop
 endfacet
 facet normal 0.466775 -0.235977 0.852312
  outer loop
   vertex -10.3665 33.8009 445.732
   vertex -9.26554 34.5195 445.328
   vertex -10.0706 36.0549 446.194
  endloop
 endfacet
 facet normal 0.43721 -0.121311 0.89114
  outer loop
   vertex -8.1955 37.5156 445.527
   vertex -8.49967 37.0363 445.611
   vertex -7.7427 37.5314 445.307
  endloop
 endfacet
 facet normal 0.471524 -0.232543 0.85064
  outer loop
   vertex -9.46856 36.5075 445.984
   vertex -10.0706 36.0549 446.194
   vertex -9.26554 34.5195 445.328
  endloop
 endfacet
 facet normal 0.376499 -0.0569926 0.924662
  outer loop
   vertex -9.26554 34.5195 445.328
   vertex -10.3665 33.8009 445.732
   vertex -9.33981 32.7148 445.247
  endloop
 endfacet
 facet normal 0.47008 -0.259266 0.843686
  outer loop
   vertex -8.49967 37.0363 445.611
   vertex -9.07739 36.8252 445.868
   vertex -8.2367 35.3882 444.958
  endloop
 endfacet
 facet normal 0.464683 -0.263488 0.845366
  outer loop
   vertex -8.2367 35.3882 444.958
   vertex -9.07739 36.8252 445.868
   vertex -9.46856 36.5075 445.984
  endloop
 endfacet
 facet normal 0.493409 -0.226709 0.839733
  outer loop
   vertex -8.2367 35.3882 444.958
   vertex -9.46856 36.5075 445.984
   vertex -9.26554 34.5195 445.328
  endloop
 endfacet
 facet normal 0.437734 -0.093892 0.894189
  outer loop
   vertex -7.7427 37.5314 445.307
   vertex -7.69198 37.8536 445.316
   vertex -8.1955 37.5156 445.527
  endloop
 endfacet
 facet normal 0.497124 -0.249892 0.830917
  outer loop
   vertex -7.7427 37.5314 445.307
   vertex -8.49967 37.0363 445.611
   vertex -8.2367 35.3882 444.958
  endloop
 endfacet
 facet normal 0.445524 -0.15187 0.882294
  outer loop
   vertex -8.2367 35.3882 444.958
   vertex -9.26554 34.5195 445.328
   vertex -7.76573 33.5048 444.396
  endloop
 endfacet
 facet normal 0.519679 -0.252684 0.81614
  outer loop
   vertex -7.24181 38.0415 445.146
   vertex -7.7427 37.5314 445.307
   vertex -8.2367 35.3882 444.958
  endloop
 endfacet
 facet normal 0.497621 -0.059316 0.865364
  outer loop
   vertex -9.26554 34.5195 445.328
   vertex -9.33981 32.7148 445.247
   vertex -7.76573 33.5048 444.396
  endloop
 endfacet
 facet normal 0.553018 -0.108224 0.826111
  outer loop
   vertex -8.2367 35.3882 444.958
   vertex -7.76573 33.5048 444.396
   vertex -7.12281 33.9963 444.03
  endloop
 endfacet
 facet normal 0.480736 -0.240012 0.843378
  outer loop
   vertex -8.2367 35.3882 444.958
   vertex -6.11362 38.5091 444.636
   vertex -7.24181 38.0415 445.146
  endloop
 endfacet
 facet normal 0.532633 -0.0685609 0.843565
  outer loop
   vertex -7.12281 33.9963 444.03
   vertex -7.76573 33.5048 444.396
   vertex -7.40576 33.73 444.187
  endloop
 endfacet
 facet normal 0.521262 -0.271109 0.809189
  outer loop
   vertex -6.11362 38.5091 444.636
   vertex -8.2367 35.3882 444.958
   vertex -4.9531 35.953 443.032
  endloop
 endfacet
 facet normal 0.544181 -0.118281 0.830588
  outer loop
   vertex -8.2367 35.3882 444.958
   vertex -7.12281 33.9963 444.03
   vertex -5.60299 35.0058 443.178
  endloop
 endfacet
 facet normal 0.513564 -0.282153 0.810334
  outer loop
   vertex -5.33268 38.9972 444.311
   vertex -6.11362 38.5091 444.636
   vertex -4.64257 37.6484 443.404
  endloop
 endfacet
 facet normal 0.436682 -0.106803 0.893253
  outer loop
   vertex -4.58434 39.317 443.946
   vertex -3.97224 39.9294 443.72
   vertex -4.74388 39.618 444.06
  endloop
 endfacet
 facet normal 0.518887 -0.27279 0.810149
  outer loop
   vertex -4.9531 35.953 443.032
   vertex -4.64257 37.6484 443.404
   vertex -6.11362 38.5091 444.636
  endloop
 endfacet
 facet normal 0.521514 -0.231227 0.821314
  outer loop
   vertex -8.2367 35.3882 444.958
   vertex -5.60299 35.0058 443.178
   vertex -4.9531 35.953 443.032
  endloop
 endfacet
 facet normal 0.517916 -0.254329 0.81675
  outer loop
   vertex -3.79871 39.1524 443.368
   vertex -3.05693 40.3225 443.262
   vertex -3.97224 39.9294 443.72
  endloop
 endfacet
 facet normal 0.541081 -0.243771 0.804865
  outer loop
   vertex -3.79871 39.1524 443.368
   vertex -3.97224 39.9294 443.72
   vertex -4.58434 39.317 443.946
  endloop
 endfacet
 facet normal 0.523587 -0.274478 0.806547
  outer loop
   vertex -4.64257 37.6484 443.404
   vertex -3.79871 39.1524 443.368
   vertex -5.33268 38.9972 444.311
  endloop
 endfacet
 facet normal 0.569032 -0.300963 0.765261
  outer loop
   vertex -2.75443 38.1086 442.181
   vertex -3.79871 39.1524 443.368
   vertex -4.64257 37.6484 443.404
  endloop
 endfacet
 facet normal 0.605089 -0.274776 0.747238
  outer loop
   vertex -4.9531 35.953 443.032
   vertex -3.47745 36.4695 442.027
   vertex -4.64257 37.6484 443.404
  endloop
 endfacet
 facet normal 0.568729 -0.32198 0.756886
  outer loop
   vertex -4.64257 37.6484 443.404
   vertex -3.47745 36.4695 442.027
   vertex -2.75443 38.1086 442.181
  endloop
 endfacet
 facet normal 0.573965 -0.294637 0.764038
  outer loop
   vertex -3.79871 39.1524 443.368
   vertex -2.75443 38.1086 442.181
   vertex -3.05693 40.3225 443.262
  endloop
 endfacet
 facet normal 0.508405 -0.142691 0.849214
  outer loop
   vertex -2.68818 40.9638 443.149
   vertex -3.05693 40.3225 443.262
   vertex -1.86406 40.9186 442.648
  endloop
 endfacet
 facet normal 0.542368 -0.219119 0.811063
  outer loop
   vertex -1.86406 40.9186 442.648
   vertex -1.09887 41.4615 442.283
   vertex -1.79182 41.4268 442.737
  endloop
 endfacet
 facet normal 0.652437 -0.539442 0.532286
  outer loop
   vertex -4.84118 35.4353 442.694
   vertex -4.39295 35.6597 442.372
   vertex -4.48332 35.7586 442.583
  endloop
 endfacet
 facet normal 0.681765 -0.505428 0.528904
  outer loop
   vertex -4.04608 36.1098 442.355
   vertex -4.48332 35.7586 442.583
   vertex -4.39295 35.6597 442.372
  endloop
 endfacet
 facet normal 0.566864 -0.23016 0.791007
  outer loop
   vertex -0.992328 41.9645 442.353
   vertex -1.09887 41.4615 442.283
   vertex -0.411216 42.0588 441.964
  endloop
 endfacet
 facet normal 0.575681 -0.293908 0.763026
  outer loop
   vertex -1.58332 39.2783 441.748
   vertex -3.05693 40.3225 443.262
   vertex -2.75443 38.1086 442.181
  endloop
 endfacet
 facet normal 0.553096 -0.310548 0.773075
  outer loop
   vertex -3.05693 40.3225 443.262
   vertex -1.4026 40.4211 442.118
   vertex -1.86406 40.9186 442.648
  endloop
 endfacet
 facet normal 0.549365 -0.334765 0.765591
  outer loop
   vertex -1.58332 39.2783 441.748
   vertex -1.4026 40.4211 442.118
   vertex -3.05693 40.3225 443.262
  endloop
 endfacet
 facet normal 0.673197 -0.498162 0.54648
  outer loop
   vertex -4.39295 35.6597 442.372
   vertex -3.98072 35.9063 442.089
   vertex -4.04608 36.1098 442.355
  endloop
 endfacet
 facet normal 0.567895 -0.580467 0.583569
  outer loop
   vertex -3.72156 36.1126 442.042
   vertex -4.04608 36.1098 442.355
   vertex -3.98072 35.9063 442.089
  endloop
 endfacet
 facet normal 0.57129 -0.288616 0.768328
  outer loop
   vertex -1.4026 40.4211 442.118
   vertex -1.09887 41.4615 442.283
   vertex -1.86406 40.9186 442.648
  endloop
 endfacet
 facet normal 0.614866 -0.338157 0.712454
  outer loop
   vertex -2.75443 38.1086 442.181
   vertex -3.47745 36.4695 442.027
   vertex -2.78372 37.0988 441.727
  endloop
 endfacet
 facet normal 0.607138 -0.294286 0.738091
  outer loop
   vertex -1.09887 41.4615 442.283
   vertex -1.4026 40.4211 442.118
   vertex -0.369762 40.7687 441.407
  endloop
 endfacet
 facet normal 0.617136 -0.3586 0.700392
  outer loop
   vertex -2.03448 37.457 441.213
   vertex -1.58332 39.2783 441.748
   vertex -2.75443 38.1086 442.181
  endloop
 endfacet
 facet normal 0.636335 -0.331607 0.696502
  outer loop
   vertex -2.78372 37.0988 441.727
   vertex -2.03448 37.457 441.213
   vertex -2.75443 38.1086 442.181
  endloop
 endfacet
 facet normal 0.695544 -0.541774 0.471911
  outer loop
   vertex -3.20064 36.5052 441.66
   vertex -2.78372 37.0988 441.727
   vertex -3.47745 36.4695 442.027
  endloop
 endfacet
 facet normal 0.588411 -0.346074 0.730756
  outer loop
   vertex 0.161229 42.5401 441.731
   vertex -0.411216 42.0588 441.964
   vertex 0.759586 41.8788 440.936
  endloop
 endfacet
 facet normal 0.603214 -0.299719 0.739122
  outer loop
   vertex -0.411216 42.0588 441.964
   vertex -1.09887 41.4615 442.283
   vertex -0.369762 40.7687 441.407
  endloop
 endfacet
 facet normal 0.603 -0.299789 0.739268
  outer loop
   vertex -0.369762 40.7687 441.407
   vertex 0.759586 41.8788 440.936
   vertex -0.411216 42.0588 441.964
  endloop
 endfacet
 facet normal 0.626567 -0.298531 0.719926
  outer loop
   vertex 0.759586 41.8788 440.936
   vertex 0.753757 42.8601 441.348
   vertex 0.161229 42.5401 441.731
  endloop
 endfacet
 facet normal 0.631522 -0.575704 0.51937
  outer loop
   vertex -2.42502 37.0349 441.22
   vertex -2.03448 37.457 441.213
   vertex -2.78372 37.0988 441.727
  endloop
 endfacet
 facet normal 0.608096 -0.329953 0.722046
  outer loop
   vertex -0.369762 40.7687 441.407
   vertex -1.4026 40.4211 442.118
   vertex -1.58332 39.2783 441.748
  endloop
 endfacet
 facet normal 0.661563 -0.604757 0.443399
  outer loop
   vertex -2.42502 37.0349 441.22
   vertex -1.41165 37.7512 440.685
   vertex -2.03448 37.457 441.213
  endloop
 endfacet
 facet normal 0.627446 -0.351997 0.694557
  outer loop
   vertex -0.513229 39.185 440.734
   vertex -0.369762 40.7687 441.407
   vertex -1.58332 39.2783 441.748
  endloop
 endfacet
 facet normal 0.625441 -0.358497 0.693039
  outer loop
   vertex -2.03448 37.457 441.213
   vertex -0.513229 39.185 440.734
   vertex -1.58332 39.2783 441.748
  endloop
 endfacet
 facet normal 0.614402 -0.297148 0.730899
  outer loop
   vertex 1.28753 43.3685 441.106
   vertex 0.753757 42.8601 441.348
   vertex 1.80962 42.7213 440.404
  endloop
 endfacet
 facet normal 0.612789 -0.302812 0.729928
  outer loop
   vertex 0.759586 41.8788 440.936
   vertex 1.80962 42.7213 440.404
   vertex 0.753757 42.8601 441.348
  endloop
 endfacet
 facet normal 0.59956 -0.314566 0.735919
  outer loop
   vertex 2.03829 43.8239 440.689
   vertex 1.28753 43.3685 441.106
   vertex 1.80962 42.7213 440.404
  endloop
 endfacet
 facet normal 0.671833 -0.340416 0.657843
  outer loop
   vertex -0.513229 39.185 440.734
   vertex 0.326269 39.261 439.916
   vertex -0.369762 40.7687 441.407
  endloop
 endfacet
 facet normal 0.691317 -0.452438 0.563366
  outer loop
   vertex -1.41165 37.7512 440.685
   vertex -0.513229 39.185 440.734
   vertex -2.03448 37.457 441.213
  endloop
 endfacet
 facet normal 0.614524 -0.408139 0.675117
  outer loop
   vertex -0.513229 39.185 440.734
   vertex -1.41165 37.7512 440.685
   vertex -0.637418 38.4604 440.409
  endloop
 endfacet
 facet normal 0.642307 -0.368238 0.672192
  outer loop
   vertex 0.759586 41.8788 440.936
   vertex -0.369762 40.7687 441.407
   vertex 0.326269 39.261 439.916
  endloop
 endfacet
 facet normal 0.539888 -0.185631 0.821013
  outer loop
   vertex 2.03829 43.8239 440.689
   vertex 2.60601 44.3163 440.427
   vertex 2.30294 44.3327 440.63
  endloop
 endfacet
 facet normal 0.698191 -0.629572 0.340834
  outer loop
   vertex -1.03964 38.0452 440.466
   vertex -0.637418 38.4604 440.409
   vertex -1.41165 37.7512 440.685
  endloop
 endfacet
 facet normal 0.664344 -0.39771 0.63283
  outer loop
   vertex -0.637418 38.4604 440.409
   vertex -0.222645 38.7857 440.178
   vertex -0.513229 39.185 440.734
  endloop
 endfacet
 facet normal 0.656014 -0.407338 0.635391
  outer loop
   vertex -0.222645 38.7857 440.178
   vertex 0.326269 39.261 439.916
   vertex -0.513229 39.185 440.734
  endloop
 endfacet
 facet normal 0.608869 -0.314516 0.728257
  outer loop
   vertex 1.80962 42.7213 440.404
   vertex 2.60601 44.3163 440.427
   vertex 2.03829 43.8239 440.689
  endloop
 endfacet
 facet normal 0.621581 -0.371592 0.689606
  outer loop
   vertex 0.326269 39.261 439.916
   vertex 2.00221 41.3574 439.535
   vertex 0.759586 41.8788 440.936
  endloop
 endfacet
 facet normal 0.631818 -0.351077 0.691051
  outer loop
   vertex 2.00221 41.3574 439.535
   vertex 1.80962 42.7213 440.404
   vertex 0.759586 41.8788 440.936
  endloop
 endfacet
 facet normal 0.693145 -0.5973 0.403463
  outer loop
   vertex -0.495463 38.4333 440.125
   vertex -0.222645 38.7857 440.178
   vertex -0.637418 38.4604 440.409
  endloop
 endfacet
 facet normal 0.536205 -0.547946 0.642059
  outer loop
   vertex 3.5959 45.21 439.949
   vertex 2.92171 44.8924 440.241
   vertex 3.95134 45.2391 439.677
  endloop
 endfacet
 facet normal 0.522482 -0.205502 0.827515
  outer loop
   vertex 1.80962 42.7213 440.404
   vertex 3.95134 45.2391 439.677
   vertex 2.92171 44.8924 440.241
  endloop
 endfacet
 facet normal 0.703081 -0.625936 0.337464
  outer loop
   vertex -0.187242 38.6702 439.89
   vertex 0.326269 39.261 439.916
   vertex -0.222645 38.7857 440.178
  endloop
 endfacet
 facet normal 0.720878 -0.608096 0.332497
  outer loop
   vertex -0.495463 38.4333 440.125
   vertex -0.187242 38.6702 439.89
   vertex -0.222645 38.7857 440.178
  endloop
 endfacet
 facet normal 0.618436 -0.202503 0.759296
  outer loop
   vertex 4.20374 45.7512 439.608
   vertex 3.95134 45.2391 439.677
   vertex 4.62449 45.4463 439.184
  endloop
 endfacet
 facet normal 0.620459 -0.370395 0.691258
  outer loop
   vertex 1.43383 40.1048 439.374
   vertex 2.00221 41.3574 439.535
   vertex 0.326269 39.261 439.916
  endloop
 endfacet
 facet normal 0.657537 -0.381851 0.649489
  outer loop
   vertex 2.18887 40.5188 438.853
   vertex 2.00221 41.3574 439.535
   vertex 1.43383 40.1048 439.374
  endloop
 endfacet
 facet normal 0.66101 -0.447873 0.602059
  outer loop
   vertex 1.43383 40.1048 439.374
   vertex 1.67165 39.9974 439.033
   vertex 2.18887 40.5188 438.853
  endloop
 endfacet
 facet normal 0.644822 -0.390722 0.656917
  outer loop
   vertex 3.30003 41.5338 438.366
   vertex 2.00221 41.3574 439.535
   vertex 2.18887 40.5188 438.853
  endloop
 endfacet
 facet normal 0.654798 -0.338191 0.675919
  outer loop
   vertex 1.80962 42.7213 440.404
   vertex 2.00221 41.3574 439.535
   vertex 3.30003 41.5338 438.366
  endloop
 endfacet
 facet normal 0.684402 -0.490347 0.539586
  outer loop
   vertex 2.64974 40.7626 438.49
   vertex 3.30003 41.5338 438.366
   vertex 2.18887 40.5188 438.853
  endloop
 endfacet
 facet normal 0.636939 -0.342361 0.690722
  outer loop
   vertex 4.13541 42.7449 438.271
   vertex 3.95134 45.2391 439.677
   vertex 1.80962 42.7213 440.404
  endloop
 endfacet
 facet normal 0.62744 -0.379451 0.679953
  outer loop
   vertex 3.30003 41.5338 438.366
   vertex 4.13541 42.7449 438.271
   vertex 1.80962 42.7213 440.404
  endloop
 endfacet
 facet normal 0.641924 -0.309588 0.70149
  outer loop
   vertex 6.47428 46.2919 437.918
   vertex 6.25399 46.9409 438.406
   vertex 5.64468 46.4071 438.728
  endloop
 endfacet
 facet normal 0.612457 -0.738705 0.281444
  outer loop
   vertex 2.18559 40.4014 438.552
   vertex 2.64974 40.7626 438.49
   vertex 2.18887 40.5188 438.853
  endloop
 endfacet
 facet normal 0.63699 -0.342338 0.690687
  outer loop
   vertex 3.95134 45.2391 439.677
   vertex 4.13541 42.7449 438.271
   vertex 5.25355 43.4737 437.601
  endloop
 endfacet
 facet normal 0.695879 -0.504623 0.510988
  outer loop
   vertex 2.64974 40.7626 438.49
   vertex 3.02249 41.0498 438.266
   vertex 3.30003 41.5338 438.366
  endloop
 endfacet
 facet normal 0.662068 -0.495779 0.562022
  outer loop
   vertex 3.02249 41.0498 438.266
   vertex 3.32494 41.2848 438.117
   vertex 3.30003 41.5338 438.366
  endloop
 endfacet
 facet normal 0.620814 -0.360623 0.69609
  outer loop
   vertex 4.62449 45.4463 439.184
   vertex 3.95134 45.2391 439.677
   vertex 5.25355 43.4737 437.601
  endloop
 endfacet
 facet normal 0.571108 -0.0149383 0.820739
  outer loop
   vertex 6.82421 47.6704 438.196
   vertex 7.16475 47.7774 437.961
   vertex 6.98433 47.9118 438.089
  endloop
 endfacet
 facet normal 0.649851 -0.397426 0.647878
  outer loop
   vertex 4.39703 42.1783 437.661
   vertex 4.13541 42.7449 438.271
   vertex 3.30003 41.5338 438.366
  endloop
 endfacet
 facet normal 0.654957 -0.560933 0.506345
  outer loop
   vertex 4.39703 42.1783 437.661
   vertex 3.30003 41.5338 438.366
   vertex 3.94809 41.7516 437.769
  endloop
 endfacet
 facet normal 0.54582 -0.0629733 0.835533
  outer loop
   vertex 7.16475 47.7774 437.961
   vertex 7.58296 48.1249 437.714
   vertex 6.98433 47.9118 438.089
  endloop
 endfacet
 facet normal 0.539544 -0.0353417 0.841215
  outer loop
   vertex 6.98433 47.9118 438.089
   vertex 7.58296 48.1249 437.714
   vertex 7.78261 48.6501 437.608
  endloop
 endfacet
 facet normal 0.646681 -0.388975 0.656127
  outer loop
   vertex 5.25355 43.4737 437.601
   vertex 4.13541 42.7449 438.271
   vertex 5.03721 42.721 437.368
  endloop
 endfacet
 facet normal 0.641537 -0.405075 0.651417
  outer loop
   vertex 4.39703 42.1783 437.661
   vertex 5.03721 42.721 437.368
   vertex 4.13541 42.7449 438.271
  endloop
 endfacet
 facet normal 0.689967 -0.640652 0.336913
  outer loop
   vertex 4.2293 41.9256 437.524
   vertex 4.39703 42.1783 437.661
   vertex 3.94809 41.7516 437.769
  endloop
 endfacet
 facet normal 0.567091 -0.190131 0.80141
  outer loop
   vertex 7.58296 48.1249 437.714
   vertex 8.56381 48.7785 437.175
   vertex 8.32652 48.956 437.385
  endloop
 endfacet
 facet normal 0.665354 -0.326544 0.671322
  outer loop
   vertex 4.62449 45.4463 439.184
   vertex 5.25355 43.4737 437.601
   vertex 6.53873 43.7425 436.458
  endloop
 endfacet
 facet normal 0.687042 -0.561376 0.461335
  outer loop
   vertex 4.39703 42.1783 437.661
   vertex 4.8944 42.4361 437.234
   vertex 5.03721 42.721 437.368
  endloop
 endfacet
 facet normal 0.598328 -0.278268 0.751379
  outer loop
   vertex 7.58296 48.1249 437.714
   vertex 6.47428 46.2919 437.918
   vertex 8.56381 48.7785 437.175
  endloop
 endfacet
 facet normal 0.642114 -0.360785 0.676405
  outer loop
   vertex 6.53873 43.7425 436.458
   vertex 5.64468 46.4071 438.728
   vertex 4.62449 45.4463 439.184
  endloop
 endfacet
 facet normal 0.619234 -0.378368 0.688032
  outer loop
   vertex 6.53873 43.7425 436.458
   vertex 6.47428 46.2919 437.918
   vertex 5.64468 46.4071 438.728
  endloop
 endfacet
 facet normal 0.665006 -0.388567 0.637795
  outer loop
   vertex 5.82413 43.27 436.882
   vertex 5.25355 43.4737 437.601
   vertex 5.03721 42.721 437.368
  endloop
 endfacet
 facet normal 0.55453 -0.211102 0.804943
  outer loop
   vertex 8.56381 48.7785 437.175
   vertex 8.80486 49.1792 437.114
   vertex 8.32652 48.956 437.385
  endloop
 endfacet
 facet normal 0.651429 -0.415682 0.634703
  outer loop
   vertex 5.25355 43.4737 437.601
   vertex 5.82413 43.27 436.882
   vertex 6.53873 43.7425 436.458
  endloop
 endfacet
 facet normal 0.702751 -0.559155 0.439871
  outer loop
   vertex 4.8944 42.4361 437.234
   vertex 5.29594 42.7197 436.953
   vertex 5.03721 42.721 437.368
  endloop
 endfacet
 facet normal 0.679663 -0.597433 0.425597
  outer loop
   vertex 5.29594 42.7197 436.953
   vertex 5.82413 43.27 436.882
   vertex 5.03721 42.721 437.368
  endloop
 endfacet
 facet normal 0.710571 -0.333151 0.619758
  outer loop
   vertex 8.56381 48.7785 437.175
   vertex 9.14633 49.5075 436.899
   vertex 8.80486 49.1792 437.114
  endloop
 endfacet
 facet normal 0.53223 -0.10735 0.839766
  outer loop
   vertex 8.56381 48.7785 437.175
   vertex 9.7344 49.7634 436.559
   vertex 9.14633 49.5075 436.899
  endloop
 endfacet
 facet normal 0.717107 -0.659025 0.226813
  outer loop
   vertex 5.63987 42.9876 436.644
   vertex 5.82413 43.27 436.882
   vertex 5.29594 42.7197 436.953
  endloop
 endfacet
 facet normal 0.644199 -0.336024 0.687092
  outer loop
   vertex 8.56381 48.7785 437.175
   vertex 6.47428 46.2919 437.918
   vertex 8.69317 45.896 435.644
  endloop
 endfacet
 facet normal 0.630528 -0.373657 0.680305
  outer loop
   vertex 6.53873 43.7425 436.458
   vertex 8.69317 45.896 435.644
   vertex 6.47428 46.2919 437.918
  endloop
 endfacet
 facet normal 0.620532 -0.356864 0.698275
  outer loop
   vertex 7.87205 44.8595 435.844
   vertex 8.69317 45.896 435.644
   vertex 6.53873 43.7425 436.458
  endloop
 endfacet
 facet normal 0.538357 -0.123954 0.833551
  outer loop
   vertex 10.5791 50.6185 436.171
   vertex 10.3517 50.2496 436.263
   vertex 11.154 50.8157 435.829
  endloop
 endfacet
 facet normal 0.644802 -0.383216 0.661344
  outer loop
   vertex 8.613 45.3452 435.403
   vertex 8.69317 45.896 435.644
   vertex 7.87205 44.8595 435.844
  endloop
 endfacet
 facet normal 0.611446 -0.349593 0.709872
  outer loop
   vertex 8.69317 45.896 435.644
   vertex 11.6081 47.8895 434.115
   vertex 8.56381 48.7785 437.175
  endloop
 endfacet
 facet normal 0.624759 -0.316899 0.713618
  outer loop
   vertex 8.56381 48.7785 437.175
   vertex 11.6081 47.8895 434.115
   vertex 10.3517 50.2496 436.263
  endloop
 endfacet
 facet normal 0.662779 -0.5668 0.489349
  outer loop
   vertex 8.19093 44.8715 435.426
   vertex 8.613 45.3452 435.403
   vertex 7.87205 44.8595 435.844
  endloop
 endfacet
 facet normal 0.652293 -0.585957 0.480799
  outer loop
   vertex 7.5843 44.4161 435.694
   vertex 8.19093 44.8715 435.426
   vertex 7.87205 44.8595 435.844
  endloop
 endfacet
 facet normal 0.669086 -0.377489 0.640176
  outer loop
   vertex 9.22863 45.8055 435.031
   vertex 8.69317 45.896 435.644
   vertex 8.613 45.3452 435.403
  endloop
 endfacet
 facet normal 0.618541 -0.329904 0.713141
  outer loop
   vertex 10.3517 50.2496 436.263
   vertex 11.358 48.9976 434.811
   vertex 11.154 50.8157 435.829
  endloop
 endfacet
 facet normal 0.646661 -0.295695 0.703132
  outer loop
   vertex 11.6081 47.8895 434.115
   vertex 11.358 48.9976 434.811
   vertex 10.3517 50.2496 436.263
  endloop
 endfacet
 facet normal 0.691836 -0.596704 0.40658
  outer loop
   vertex 8.19093 44.8715 435.426
   vertex 9.22863 45.8055 435.031
   vertex 8.613 45.3452 435.403
  endloop
 endfacet
 facet normal 0.569641 -0.644182 0.51043
  outer loop
   vertex 11.8891 51.674 435.531
   vertex 14.4006 52.4599 433.72
   vertex 12.8989 52.124 434.972
  endloop
 endfacet
 facet normal 0.54531 -0.362111 0.755985
  outer loop
   vertex 12.404 48.412 433.776
   vertex 11.154 50.8157 435.829
   vertex 11.358 48.9976 434.811
  endloop
 endfacet
 facet normal 0.629533 -0.28872 0.721338
  outer loop
   vertex 11.8891 51.674 435.531
   vertex 11.154 50.8157 435.829
   vertex 12.404 48.412 433.776
  endloop
 endfacet
 facet normal 0.645676 -0.342169 0.682659
  outer loop
   vertex 14.4006 52.4599 433.72
   vertex 13.5806 53.0752 434.804
   vertex 12.8989 52.124 434.972
  endloop
 endfacet
 facet normal 0.497252 -0.40706 0.766187
  outer loop
   vertex 14.5692 53.5469 434.413
   vertex 14.0866 53.4543 434.677
   vertex 13.5806 53.0752 434.804
  endloop
 endfacet
 facet normal 0.614525 -0.4573 0.642834
  outer loop
   vertex 10.2095 46.9603 434.791
   vertex 11.0554 47.1454 434.114
   vertex 11.6081 47.8895 434.115
  endloop
 endfacet
 facet normal 0.643054 -0.281643 0.712151
  outer loop
   vertex 11.8891 51.674 435.531
   vertex 12.404 48.412 433.776
   vertex 13.4308 49.4997 433.279
  endloop
 endfacet
 facet normal 0.60532 -0.499417 0.619815
  outer loop
   vertex 10.2095 46.9603 434.791
   vertex 10.6463 46.7848 434.223
   vertex 11.0554 47.1454 434.114
  endloop
 endfacet
 facet normal 0.631937 -0.124255 0.764994
  outer loop
   vertex 15.2266 54.813 434.212
   vertex 14.8989 54.3776 434.412
   vertex 15.1443 54.0989 434.164
  endloop
 endfacet
 facet normal 0.611615 -0.152266 0.776364
  outer loop
   vertex 15.1443 54.0989 434.164
   vertex 14.8989 54.3776 434.412
   vertex 14.6377 53.925 434.529
  endloop
 endfacet
 facet normal 0.62376 -0.330333 0.708381
  outer loop
   vertex 14.5692 53.5469 434.413
   vertex 15.1443 54.0989 434.164
   vertex 14.6377 53.925 434.529
  endloop
 endfacet
 facet normal 0.552259 -0.350475 0.756424
  outer loop
   vertex 12.404 48.412 433.776
   vertex 11.358 48.9976 434.811
   vertex 11.6081 47.8895 434.115
  endloop
 endfacet
 facet normal 0.549981 -0.344014 0.761035
  outer loop
   vertex 12.404 48.412 433.776
   vertex 11.6081 47.8895 434.115
   vertex 12.001 47.7611 433.773
  endloop
 endfacet
 facet normal 0.660475 -0.622367 0.420038
  outer loop
   vertex 11.0554 47.1454 434.114
   vertex 10.6463 46.7848 434.223
   vertex 10.8601 46.8531 433.988
  endloop
 endfacet
 facet normal 0.765355 -0.130572 0.630225
  outer loop
   vertex 15.2266 54.813 434.212
   vertex 15.1443 54.0989 434.164
   vertex 15.703 53.7682 433.417
  endloop
 endfacet
 facet normal 0.658589 -0.39811 0.638569
  outer loop
   vertex 15.1443 54.0989 434.164
   vertex 14.5692 53.5469 434.413
   vertex 15.0197 53.2271 433.749
  endloop
 endfacet
 facet normal 0.617984 -0.31009 0.722454
  outer loop
   vertex 11.8891 51.674 435.531
   vertex 13.4308 49.4997 433.279
   vertex 14.4006 52.4599 433.72
  endloop
 endfacet
 facet normal 0.470171 -0.0443968 0.881458
  outer loop
   vertex 16.04 56.9062 433.867
   vertex 15.4943 55.2963 434.077
   vertex 15.9755 56.2825 433.87
  endloop
 endfacet
 facet normal 0.70233 -0.199247 0.683398
  outer loop
   vertex 15.703 53.7682 433.417
   vertex 15.9755 56.2825 433.87
   vertex 15.4943 55.2963 434.077
  endloop
 endfacet
 facet normal 0.703191 -0.198803 0.682642
  outer loop
   vertex 15.4943 55.2963 434.077
   vertex 15.2266 54.813 434.212
   vertex 15.703 53.7682 433.417
  endloop
 endfacet
 facet normal 0.718717 -0.617762 0.319085
  outer loop
   vertex 10.8601 46.8531 433.988
   vertex 11.1515 47.0759 433.763
   vertex 11.0554 47.1454 434.114
  endloop
 endfacet
 facet normal 0.522981 -0.573148 0.630867
  outer loop
   vertex 15.0197 53.2271 433.749
   vertex 14.5692 53.5469 434.413
   vertex 13.5806 53.0752 434.804
  endloop
 endfacet
 facet normal 0.663909 -0.174442 0.727183
  outer loop
   vertex 16.3138 57.1781 433.783
   vertex 17.5581 58.604 432.989
   vertex 16.5746 57.9623 433.733
  endloop
 endfacet
 facet normal 0.669087 -0.182757 0.720363
  outer loop
   vertex 15.9755 56.2825 433.87
   vertex 17.5581 58.604 432.989
   vertex 16.3138 57.1781 433.783
  endloop
 endfacet
 facet normal 0.553042 -0.472221 0.686405
  outer loop
   vertex 14.4006 52.4599 433.72
   vertex 15.0197 53.2271 433.749
   vertex 13.5806 53.0752 434.804
  endloop
 endfacet
 facet normal 0.609906 -0.380813 0.694979
  outer loop
   vertex 12.001 47.7611 433.773
   vertex 12.5241 48.1207 433.511
   vertex 12.404 48.412 433.776
  endloop
 endfacet
 facet normal 0.638096 -0.403395 0.655824
  outer loop
   vertex 15.1443 54.0989 434.164
   vertex 15.0197 53.2271 433.749
   vertex 15.703 53.7682 433.417
  endloop
 endfacet
 facet normal 0.589903 -0.499988 0.634055
  outer loop
   vertex 14.4006 52.4599 433.72
   vertex 15.9207 52.8901 432.645
   vertex 15.0197 53.2271 433.749
  endloop
 endfacet
 facet normal 0.732153 -0.328738 0.596559
  outer loop
   vertex 14.5461 51.7623 433.157
   vertex 14.4006 52.4599 433.72
   vertex 13.4308 49.4997 433.279
  endloop
 endfacet
 facet normal 0.684339 -0.200479 0.701062
  outer loop
   vertex 15.9755 56.2825 433.87
   vertex 15.703 53.7682 433.417
   vertex 17.5581 58.604 432.989
  endloop
 endfacet
 facet normal 0.640684 -0.411218 0.648401
  outer loop
   vertex 15.9207 52.8901 432.645
   vertex 15.703 53.7682 433.417
   vertex 15.0197 53.2271 433.749
  endloop
 endfacet
 facet normal 0.713831 -0.485491 0.504721
  outer loop
   vertex 13.0886 48.529 433.105
   vertex 13.4903 49.0406 433.029
   vertex 13.0105 48.7011 433.381
  endloop
 endfacet
 facet normal 0.599955 -0.422929 0.679106
  outer loop
   vertex 14.4006 52.4599 433.72
   vertex 14.5461 51.7623 433.157
   vertex 15.9207 52.8901 432.645
  endloop
 endfacet
 facet normal 0.73646 -0.512675 0.441351
  outer loop
   vertex 13.0886 48.529 433.105
   vertex 13.6618 49.0244 432.724
   vertex 13.4903 49.0406 433.029
  endloop
 endfacet
 facet normal 0.757397 -0.4722 0.450974
  outer loop
   vertex 13.4903 49.0406 433.029
   vertex 13.6618 49.0244 432.724
   vertex 13.9174 49.4363 432.726
  endloop
 endfacet
 facet normal 0.606299 -0.437479 0.664089
  outer loop
   vertex 15.8411 51.1085 431.544
   vertex 15.9207 52.8901 432.645
   vertex 14.5461 51.7623 433.157
  endloop
 endfacet
 facet normal 0.715354 -0.215598 0.66467
  outer loop
   vertex 19.9251 57.323 430.026
   vertex 17.5581 58.604 432.989
   vertex 15.703 53.7682 433.417
  endloop
 endfacet
 facet normal 0.737855 -0.332029 0.587645
  outer loop
   vertex 14.3672 49.6975 432.215
   vertex 14.5461 51.7623 433.157
   vertex 13.4308 49.4997 433.279
  endloop
 endfacet
 facet normal 0.734992 -0.286871 0.614404
  outer loop
   vertex 15.703 53.7682 433.417
   vertex 16.5071 53.5367 432.347
   vertex 19.9251 57.323 430.026
  endloop
 endfacet
 facet normal 0.706672 -0.360207 0.608988
  outer loop
   vertex 15.703 53.7682 433.417
   vertex 15.9207 52.8901 432.645
   vertex 16.5071 53.5367 432.347
  endloop
 endfacet
 facet normal 0.767256 -0.478203 0.427364
  outer loop
   vertex 13.6618 49.0244 432.724
   vertex 14.095 49.4594 432.433
   vertex 13.9174 49.4363 432.726
  endloop
 endfacet
 facet normal 0.642599 -0.363416 0.674533
  outer loop
   vertex 14.3672 49.6975 432.215
   vertex 14.9752 50.3661 431.996
   vertex 14.5461 51.7623 433.157
  endloop
 endfacet
 facet normal 0.643475 -0.36275 0.674056
  outer loop
   vertex 15.3626 50.8749 431.9
   vertex 14.5461 51.7623 433.157
   vertex 14.9752 50.3661 431.996
  endloop
 endfacet
 facet normal 0.681918 -0.308396 0.663234
  outer loop
   vertex 19.7034 61.4723 431.675
   vertex 19.1529 61.7347 432.363
   vertex 17.8411 61.1137 433.423
  endloop
 endfacet
 facet normal 0.662386 -0.337764 0.668701
  outer loop
   vertex 14.5461 51.7623 433.157
   vertex 15.3626 50.8749 431.9
   vertex 15.8411 51.1085 431.544
  endloop
 endfacet
 facet normal 0.723054 -0.196076 0.66238
  outer loop
   vertex 17.5581 58.604 432.989
   vertex 19.9251 57.323 430.026
   vertex 17.8411 61.1137 433.423
  endloop
 endfacet
 facet normal 0.702997 -0.352995 0.617405
  outer loop
   vertex 16.8695 52.4377 431.306
   vertex 16.5071 53.5367 432.347
   vertex 15.9207 52.8901 432.645
  endloop
 endfacet
 facet normal 0.672486 -0.371174 0.640307
  outer loop
   vertex 20.306 61.3117 430.949
   vertex 19.7034 61.4723 431.675
   vertex 17.8411 61.1137 433.423
  endloop
 endfacet
 facet normal 0.672884 -0.410405 0.615463
  outer loop
   vertex 15.9207 52.8901 432.645
   vertex 15.8411 51.1085 431.544
   vertex 16.8695 52.4377 431.306
  endloop
 endfacet
 facet normal 0.754627 -0.597175 0.271882
  outer loop
   vertex 14.9758 50.2503 431.74
   vertex 14.9752 50.3661 431.996
   vertex 14.3672 49.6975 432.215
  endloop
 endfacet
 facet normal 0.664155 -0.400863 0.631036
  outer loop
   vertex 16.4275 51.6377 431.263
   vertex 16.8695 52.4377 431.306
   vertex 15.8411 51.1085 431.544
  endloop
 endfacet
 facet normal 0.723818 -0.452888 0.520558
  outer loop
   vertex 14.9752 50.3661 431.996
   vertex 15.3794 50.5937 431.632
   vertex 15.3626 50.8749 431.9
  endloop
 endfacet
 facet normal 0.662862 -0.681616 0.309861
  outer loop
   vertex 14.9758 50.2503 431.74
   vertex 15.3794 50.5937 431.632
   vertex 14.9752 50.3661 431.996
  endloop
 endfacet
 facet normal 0.660973 -0.496653 0.562539
  outer loop
   vertex 15.3626 50.8749 431.9
   vertex 15.3794 50.5937 431.632
   vertex 15.8411 51.1085 431.544
  endloop
 endfacet
 facet normal 0.72421 -0.263009 0.637453
  outer loop
   vertex 17.6042 53.3414 431.02
   vertex 19.9251 57.323 430.026
   vertex 16.5071 53.5367 432.347
  endloop
 endfacet
 facet normal 0.699328 -0.223869 0.678839
  outer loop
   vertex 20.306 61.3117 430.949
   vertex 17.8411 61.1137 433.423
   vertex 19.9251 57.323 430.026
  endloop
 endfacet
 facet normal 0.690848 -0.363935 0.624724
  outer loop
   vertex 16.8695 52.4377 431.306
   vertex 17.6042 53.3414 431.02
   vertex 16.5071 53.5367 432.347
  endloop
 endfacet
 facet normal 0.684711 -0.663997 0.300465
  outer loop
   vertex 15.6844 50.8537 431.338
   vertex 16.1362 51.2395 431.161
   vertex 15.8411 51.1085 431.544
  endloop
 endfacet
 facet normal 0.745074 -0.631571 0.214438
  outer loop
   vertex 15.3794 50.5937 431.632
   vertex 15.6844 50.8537 431.338
   vertex 15.8411 51.1085 431.544
  endloop
 endfacet
 facet normal 0.714598 -0.610315 0.341855
  outer loop
   vertex 16.1362 51.2395 431.161
   vertex 16.4275 51.6377 431.263
   vertex 15.8411 51.1085 431.544
  endloop
 endfacet
 facet normal 0.750241 -0.122212 0.649771
  outer loop
   vertex 19.7034 61.4723 431.675
   vertex 20.306 61.3117 430.949
   vertex 20.1722 61.6334 431.164
  endloop
 endfacet
 facet normal 0.717509 -0.610693 0.335016
  outer loop
   vertex 16.6155 51.6386 430.862
   vertex 16.4275 51.6377 431.263
   vertex 16.1362 51.2395 431.161
  endloop
 endfacet
 facet normal 0.604305 -0.15726 0.781079
  outer loop
   vertex 19.9251 57.323 430.026
   vertex 17.6042 53.3414 431.02
   vertex 18.506 54.4625 430.548
  endloop
 endfacet
 facet normal 0.716985 -0.4258 0.55193
  outer loop
   vertex 16.4275 51.6377 431.263
   vertex 16.953 51.9561 430.826
   vertex 16.8695 52.4377 431.306
  endloop
 endfacet
 facet normal 0.668464 -0.675195 0.311877
  outer loop
   vertex 16.6155 51.6386 430.862
   vertex 16.953 51.9561 430.826
   vertex 16.4275 51.6377 431.263
  endloop
 endfacet
 facet normal 0.697974 -0.374206 0.610575
  outer loop
   vertex 16.8695 52.4377 431.306
   vertex 17.7118 52.7067 430.508
   vertex 17.6042 53.3414 431.02
  endloop
 endfacet
 facet normal 0.7058 -0.43495 0.559164
  outer loop
   vertex 17.3328 52.2793 430.598
   vertex 16.8695 52.4377 431.306
   vertex 16.953 51.9561 430.826
  endloop
 endfacet
 facet normal 0.738372 -0.218176 0.638126
  outer loop
   vertex 22.7129 58.9104 427.343
   vertex 20.306 61.3117 430.949
   vertex 19.9251 57.323 430.026
  endloop
 endfacet
 facet normal 0.678086 -0.485017 0.55223
  outer loop
   vertex 17.3328 52.2793 430.598
   vertex 17.7118 52.7067 430.508
   vertex 16.8695 52.4377 431.306
  endloop
 endfacet
 facet normal 0.687451 -0.723049 0.0679109
  outer loop
   vertex 16.953 51.9561 430.826
   vertex 16.6155 51.6386 430.862
   vertex 17.0585 52.0287 430.531
  endloop
 endfacet
 facet normal 0.81785 0.0090214 0.575361
  outer loop
   vertex 20.6272 61.3391 430.492
   vertex 20.306 61.3117 430.949
   vertex 20.8354 60.9603 430.202
  endloop
 endfacet
 facet normal 0.702981 -0.292555 0.64825
  outer loop
   vertex 18.506 54.4625 430.548
   vertex 17.6042 53.3414 431.02
   vertex 18.3052 53.2576 430.222
  endloop
 endfacet
 facet normal 0.767612 -0.161859 0.62014
  outer loop
   vertex 20.306 61.3117 430.949
   vertex 22.7129 58.9104 427.343
   vertex 20.8354 60.9603 430.202
  endloop
 endfacet
 facet normal 0.66609 -0.74383 0.0551565
  outer loop
   vertex 17.3328 52.2793 430.598
   vertex 16.953 51.9561 430.826
   vertex 17.0585 52.0287 430.531
  endloop
 endfacet
 facet normal 0.669493 -0.394316 0.629519
  outer loop
   vertex 17.7118 52.7067 430.508
   vertex 18.3052 53.2576 430.222
   vertex 17.6042 53.3414 431.02
  endloop
 endfacet
 facet normal 0.736284 -0.579252 0.349791
  outer loop
   vertex 17.3328 52.2793 430.598
   vertex 17.8356 52.6823 430.207
   vertex 17.7118 52.7067 430.508
  endloop
 endfacet
 facet normal 0.661271 -0.745675 0.0817924
  outer loop
   vertex 17.0585 52.0287 430.531
   vertex 17.8356 52.6823 430.207
   vertex 17.3328 52.2793 430.598
  endloop
 endfacet
 facet normal 0.722488 -0.598752 0.345697
  outer loop
   vertex 17.8356 52.6823 430.207
   vertex 18.3052 53.2576 430.222
   vertex 17.7118 52.7067 430.508
  endloop
 endfacet
 facet normal 0.703681 -0.226183 0.673553
  outer loop
   vertex 18.506 54.4625 430.548
   vertex 19.8468 55.4594 429.482
   vertex 19.9251 57.323 430.026
  endloop
 endfacet
 facet normal 0.702054 -0.583693 0.407948
  outer loop
   vertex 18.7735 53.4113 429.636
   vertex 18.3052 53.2576 430.222
   vertex 17.8356 52.6823 430.207
  endloop
 endfacet
 facet normal 0.706929 -0.23895 0.665698
  outer loop
   vertex 19.8468 55.4594 429.482
   vertex 18.506 54.4625 430.548
   vertex 19.2513 54.149 429.644
  endloop
 endfacet
 facet normal 0.708153 -0.291961 0.642868
  outer loop
   vertex 18.3052 53.2576 430.222
   vertex 18.8653 53.5989 429.76
   vertex 18.506 54.4625 430.548
  endloop
 endfacet
 facet normal 0.669343 -0.329234 0.666021
  outer loop
   vertex 18.8653 53.5989 429.76
   vertex 19.2513 54.149 429.644
   vertex 18.506 54.4625 430.548
  endloop
 endfacet
 facet normal 0.693547 -0.601494 0.396481
  outer loop
   vertex 18.7735 53.4113 429.636
   vertex 18.8653 53.5989 429.76
   vertex 18.3052 53.2576 430.222
  endloop
 endfacet
 facet normal 0.711785 -0.258796 0.652983
  outer loop
   vertex 21.4285 60.6134 429.418
   vertex 20.8354 60.9603 430.202
   vertex 22.7129 58.9104 427.343
  endloop
 endfacet
 facet normal 0.719669 -0.222252 0.657784
  outer loop
   vertex 19.9251 57.323 430.026
   vertex 19.8468 55.4594 429.482
   vertex 20.7892 57.2798 429.066
  endloop
 endfacet
 facet normal 0.730178 -0.159356 0.664413
  outer loop
   vertex 20.7892 57.2798 429.066
   vertex 22.7129 58.9104 427.343
   vertex 19.9251 57.323 430.026
  endloop
 endfacet
 facet normal 0.74817 -0.415988 0.51691
  outer loop
   vertex 18.8653 53.5989 429.76
   vertex 19.1973 53.7909 429.434
   vertex 19.2513 54.149 429.644
  endloop
 endfacet
 facet normal 0.76766 -0.277429 0.577695
  outer loop
   vertex 19.6121 54.2894 429.232
   vertex 19.8468 55.4594 429.482
   vertex 19.2513 54.149 429.644
  endloop
 endfacet
 facet normal 0.749831 -0.415198 0.515135
  outer loop
   vertex 19.1973 53.7909 429.434
   vertex 19.6121 54.2894 429.232
   vertex 19.2513 54.149 429.644
  endloop
 endfacet
 facet normal 0.728731 -0.229847 0.645075
  outer loop
   vertex 20.7892 57.2798 429.066
   vertex 19.8468 55.4594 429.482
   vertex 20.8557 56.1379 428.584
  endloop
 endfacet
 facet normal 0.729232 -0.279718 0.624483
  outer loop
   vertex 20.1938 54.7812 428.773
   vertex 19.8468 55.4594 429.482
   vertex 19.6121 54.2894 429.232
  endloop
 endfacet
 facet normal 0.779658 -0.00893242 0.626141
  outer loop
   vertex 22.0663 60.5547 428.623
   vertex 21.7095 60.8859 429.072
   vertex 21.4285 60.6134 429.418
  endloop
 endfacet
 facet normal 0.759581 -0.186382 0.623136
  outer loop
   vertex 22.7129 58.9104 427.343
   vertex 22.0663 60.5547 428.623
   vertex 21.4285 60.6134 429.418
  endloop
 endfacet
 facet normal 0.754828 -0.52143 0.397928
  outer loop
   vertex 20.1938 54.7812 428.773
   vertex 19.6121 54.2894 429.232
   vertex 19.9095 54.3849 428.793
  endloop
 endfacet
 facet normal 0.750986 -0.195629 0.630674
  outer loop
   vertex 22.0663 60.5547 428.623
   vertex 22.7129 58.9104 427.343
   vertex 22.7904 60.62 427.781
  endloop
 endfacet
 facet normal 0.782774 -0.202756 0.588349
  outer loop
   vertex 21.5596 56.0494 427.617
   vertex 20.7892 57.2798 429.066
   vertex 20.8557 56.1379 428.584
  endloop
 endfacet
 facet normal 0.771273 -0.252021 0.584486
  outer loop
   vertex 20.9304 55.4133 428.173
   vertex 21.5596 56.0494 427.617
   vertex 20.8557 56.1379 428.584
  endloop
 endfacet
 facet normal 0.8011 -0.417775 0.428606
  outer loop
   vertex 21.0075 55.2308 427.851
   vertex 21.5596 56.0494 427.617
   vertex 20.9304 55.4133 428.173
  endloop
 endfacet
 facet normal 0.749182 -0.252199 0.612472
  outer loop
   vertex 21.5596 56.0494 427.617
   vertex 22.2537 56.9286 427.13
   vertex 20.7892 57.2798 429.066
  endloop
 endfacet
 facet normal 0.735417 -0.199274 0.647651
  outer loop
   vertex 22.7129 58.9104 427.343
   vertex 23.7106 60.7204 426.767
   vertex 22.7904 60.62 427.781
  endloop
 endfacet
 facet normal 0.759375 -0.270639 0.591696
  outer loop
   vertex 20.7892 57.2798 429.066
   vertex 24.0189 57.3846 424.969
   vertex 22.7129 58.9104 427.343
  endloop
 endfacet
 facet normal 0.781127 -0.120199 0.612692
  outer loop
   vertex 22.2537 56.9286 427.13
   vertex 24.0189 57.3846 424.969
   vertex 20.7892 57.2798 429.066
  endloop
 endfacet
 facet normal 0.758402 -0.270179 0.593152
  outer loop
   vertex 22.2537 56.9286 427.13
   vertex 21.5596 56.0494 427.617
   vertex 22.1735 56.1766 426.89
  endloop
 endfacet
 facet normal 0.86494 -0.233946 0.444014
  outer loop
   vertex 22.1735 56.1766 426.89
   vertex 22.5814 56.0866 426.048
   vertex 22.2537 56.9286 427.13
  endloop
 endfacet
 facet normal 0.752594 -0.217 0.621702
  outer loop
   vertex 22.7129 58.9104 427.343
   vertex 23.7629 59.2 426.173
   vertex 23.7106 60.7204 426.767
  endloop
 endfacet
 facet normal 0.751624 -0.390534 0.531549
  outer loop
   vertex 22.5814 56.0866 426.048
   vertex 24.0189 57.3846 424.969
   vertex 22.2537 56.9286 427.13
  endloop
 endfacet
 facet normal 0.746681 -0.291312 0.598001
  outer loop
   vertex 22.7129 58.9104 427.343
   vertex 24.0189 57.3846 424.969
   vertex 23.7629 59.2 426.173
  endloop
 endfacet
 facet normal 0.759953 -0.0194408 0.649687
  outer loop
   vertex 24.3543 60.9526 426.021
   vertex 23.7106 60.7204 426.767
   vertex 24.7215 60.736 425.585
  endloop
 endfacet
 facet normal 0.738299 -0.245562 0.628183
  outer loop
   vertex 24.779 59.8498 425.171
   vertex 24.7215 60.736 425.585
   vertex 23.7106 60.7204 426.767
  endloop
 endfacet
 facet normal 0.752276 -0.217142 0.622037
  outer loop
   vertex 24.779 59.8498 425.171
   vertex 23.7106 60.7204 426.767
   vertex 23.7629 59.2 426.173
  endloop
 endfacet
 facet normal 0.733704 -0.300657 0.609331
  outer loop
   vertex 24.2252 58.492 425.267
   vertex 23.7629 59.2 426.173
   vertex 24.0189 57.3846 424.969
  endloop
 endfacet
 facet normal 0.757822 -0.266994 0.595332
  outer loop
   vertex 23.7629 59.2 426.173
   vertex 24.2252 58.492 425.267
   vertex 24.779 59.8498 425.171
  endloop
 endfacet
 facet normal 0.504087 0.38256 0.774302
  outer loop
   vertex 23.0466 56.2913 425.644
   vertex 23.5195 56.6215 425.173
   vertex 22.5814 56.0866 426.048
  endloop
 endfacet
 facet normal 0.765599 0.00296458 0.643311
  outer loop
   vertex 24.7215 60.736 425.585
   vertex 24.8747 61.098 425.401
   vertex 24.3543 60.9526 426.021
  endloop
 endfacet
 facet normal 0.737477 -0.324242 0.592448
  outer loop
   vertex 22.5814 56.0866 426.048
   vertex 23.5195 56.6215 425.173
   vertex 24.0189 57.3846 424.969
  endloop
 endfacet
 facet normal 0.75518 -0.236594 0.611331
  outer loop
   vertex 24.779 59.8498 425.171
   vertex 25.784 60.7477 424.277
   vertex 24.7215 60.736 425.585
  endloop
 endfacet
 facet normal 0.731111 0.0368492 0.681262
  outer loop
   vertex 24.8747 61.098 425.401
   vertex 24.7215 60.736 425.585
   vertex 25.363 61.0972 424.877
  endloop
 endfacet
 facet normal 0.768741 -0.143835 0.623176
  outer loop
   vertex 25.784 60.7477 424.277
   vertex 25.363 61.0972 424.877
   vertex 24.7215 60.736 425.585
  endloop
 endfacet
 facet normal 0.768487 -0.272503 0.578939
  outer loop
   vertex 24.2252 58.492 425.267
   vertex 24.9628 58.9426 424.5
   vertex 24.779 59.8498 425.171
  endloop
 endfacet
 facet normal 0.790074 -0.292202 0.538889
  outer loop
   vertex 24.0189 57.3846 424.969
   vertex 24.6592 57.9024 424.311
   vertex 24.2252 58.492 425.267
  endloop
 endfacet
 facet normal 0.767909 -0.27301 0.579466
  outer loop
   vertex 25.5507 59.5371 424.001
   vertex 24.779 59.8498 425.171
   vertex 24.9628 58.9426 424.5
  endloop
 endfacet
 facet normal 0.779996 -0.376903 0.49955
  outer loop
   vertex 24.0796 56.9562 424.551
   vertex 24.0189 57.3846 424.969
   vertex 23.5195 56.6215 425.173
  endloop
 endfacet
 facet normal 0.769795 -0.324539 0.549627
  outer loop
   vertex 24.2252 58.492 425.267
   vertex 24.6592 57.9024 424.311
   vertex 24.9628 58.9426 424.5
  endloop
 endfacet
 facet normal 0.794248 -0.362926 0.487294
  outer loop
   vertex 24.0189 57.3846 424.969
   vertex 24.0796 56.9562 424.551
   vertex 24.6592 57.9024 424.311
  endloop
 endfacet
 facet normal 0.747967 -0.543417 0.381108
  outer loop
   vertex 23.5195 56.6215 425.173
   vertex 23.8515 56.6233 424.524
   vertex 24.0796 56.9562 424.551
  endloop
 endfacet
 facet normal 0.816586 -0.392966 0.422805
  outer loop
   vertex 24.0796 56.9562 424.551
   vertex 24.6176 56.9326 423.49
   vertex 24.6592 57.9024 424.311
  endloop
 endfacet
 facet normal 0.735437 -0.0964374 0.670695
  outer loop
   vertex 25.784 60.7477 424.277
   vertex 26.296 61.3487 423.802
   vertex 25.7181 61.2675 424.424
  endloop
 endfacet
 facet normal 0.797502 -0.0684131 0.599425
  outer loop
   vertex 25.7181 61.2675 424.424
   vertex 25.363 61.0972 424.877
   vertex 25.784 60.7477 424.277
  endloop
 endfacet
 facet normal 0.765418 -0.279649 0.579597
  outer loop
   vertex 25.5507 59.5371 424.001
   vertex 25.784 60.7477 424.277
   vertex 24.779 59.8498 425.171
  endloop
 endfacet
 facet normal 0.775845 -0.48446 0.404182
  outer loop
   vertex 24.231 56.8124 424.088
   vertex 24.6176 56.9326 423.49
   vertex 24.0796 56.9562 424.551
  endloop
 endfacet
 facet normal 0.737261 -0.538286 0.408282
  outer loop
   vertex 23.8515 56.6233 424.524
   vertex 24.231 56.8124 424.088
   vertex 24.0796 56.9562 424.551
  endloop
 endfacet
 facet normal 0.795692 -0.325092 0.511067
  outer loop
   vertex 24.9628 58.9426 424.5
   vertex 24.6592 57.9024 424.311
   vertex 25.5438 58.1559 423.095
  endloop
 endfacet
 facet normal 0.760309 -0.280135 0.58605
  outer loop
   vertex 25.5507 59.5371 424.001
   vertex 26.7095 60.1571 422.794
   vertex 25.784 60.7477 424.277
  endloop
 endfacet
 facet normal 0.784806 -0.342654 0.516399
  outer loop
   vertex 25.5438 58.1559 423.095
   vertex 25.5507 59.5371 424.001
   vertex 24.9628 58.9426 424.5
  endloop
 endfacet
 facet normal 0.75939 -0.145768 0.634097
  outer loop
   vertex 26.296 61.3487 423.802
   vertex 25.784 60.7477 424.277
   vertex 26.6395 60.9414 423.297
  endloop
 endfacet
 facet normal 0.770023 -0.431161 0.470281
  outer loop
   vertex 24.6176 56.9326 423.49
   vertex 25.5438 58.1559 423.095
   vertex 24.6592 57.9024 424.311
  endloop
 endfacet
 facet normal 0.745529 -0.311372 0.589266
  outer loop
   vertex 26.7095 60.1571 422.794
   vertex 26.6395 60.9414 423.297
   vertex 25.784 60.7477 424.277
  endloop
 endfacet
 facet normal 0.763079 -0.299272 0.572841
  outer loop
   vertex 26.7095 60.1571 422.794
   vertex 27.3917 61.1137 422.385
   vertex 26.6395 60.9414 423.297
  endloop
 endfacet
 facet normal 0.776498 -0.148053 0.612479
  outer loop
   vertex 26.6395 60.9414 423.297
   vertex 27.3917 61.1137 422.385
   vertex 26.8587 61.454 423.143
  endloop
 endfacet
 facet normal 0.733056 -0.583698 0.349178
  outer loop
   vertex 25.0106 57.0311 422.775
   vertex 25.4261 57.3262 422.396
   vertex 25.1729 57.3456 422.96
  endloop
 endfacet
 facet normal 0.789263 -0.345956 0.507325
  outer loop
   vertex 26.7095 60.1571 422.794
   vertex 26.8678 59.5797 422.154
   vertex 27.3917 61.1137 422.385
  endloop
 endfacet
 facet normal 0.756905 -0.381023 0.530958
  outer loop
   vertex 26.8678 59.5797 422.154
   vertex 26.7095 60.1571 422.794
   vertex 25.5507 59.5371 424.001
  endloop
 endfacet
 facet normal 0.764677 -0.356116 0.537075
  outer loop
   vertex 25.5438 58.1559 423.095
   vertex 26.8678 59.5797 422.154
   vertex 25.5507 59.5371 424.001
  endloop
 endfacet
 facet normal 0.789624 -0.433749 0.433999
  outer loop
   vertex 25.1729 57.3456 422.96
   vertex 26.0592 58.0986 422.1
   vertex 25.5438 58.1559 423.095
  endloop
 endfacet
 facet normal 0.783179 -0.5006 0.368822
  outer loop
   vertex 25.1729 57.3456 422.96
   vertex 25.4261 57.3262 422.396
   vertex 26.0592 58.0986 422.1
  endloop
 endfacet
 facet normal 0.665589 -0.728403 0.162542
  outer loop
   vertex 25.3139 57.1545 422.086
   vertex 25.4261 57.3262 422.396
   vertex 25.0106 57.0311 422.775
  endloop
 endfacet
 facet normal 0.784822 -0.44422 0.432114
  outer loop
   vertex 25.5438 58.1559 423.095
   vertex 26.0592 58.0986 422.1
   vertex 26.8678 59.5797 422.154
  endloop
 endfacet
 facet normal 0.760453 -0.342778 0.551557
  outer loop
   vertex 28.0126 60.6536 421.243
   vertex 27.3917 61.1137 422.385
   vertex 26.8678 59.5797 422.154
  endloop
 endfacet
 facet normal 0.761682 0.32283 0.561801
  outer loop
   vertex 28.0167 61.4404 421.712
   vertex 27.6911 61.6187 422.051
   vertex 27.5169 61.5059 422.352
  endloop
 endfacet
 facet normal 0.766117 -0.332015 0.550301
  outer loop
   vertex 28.0126 60.6536 421.243
   vertex 28.0167 61.4404 421.712
   vertex 27.3917 61.1137 422.385
  endloop
 endfacet
 facet normal 0.763851 -0.191959 0.616184
  outer loop
   vertex 27.3917 61.1137 422.385
   vertex 28.0167 61.4404 421.712
   vertex 27.5169 61.5059 422.352
  endloop
 endfacet
 facet normal 0.781652 -0.442751 0.439307
  outer loop
   vertex 26.0592 58.0986 422.1
   vertex 27.1141 59.1136 421.246
   vertex 26.8678 59.5797 422.154
  endloop
 endfacet
 facet normal 0.781605 -0.509269 0.360191
  outer loop
   vertex 26.3038 57.8707 421.247
   vertex 27.1141 59.1136 421.246
   vertex 26.0592 58.0986 422.1
  endloop
 endfacet
 facet normal 0.751809 -0.550661 0.362706
  outer loop
   vertex 25.7103 57.4095 421.777
   vertex 26.3038 57.8707 421.247
   vertex 26.0592 58.0986 422.1
  endloop
 endfacet
 facet normal 0.738675 -0.601927 0.303386
  outer loop
   vertex 25.8856 57.3464 421.225
   vertex 26.3038 57.8707 421.247
   vertex 25.7103 57.4095 421.777
  endloop
 endfacet
 facet normal 0.775163 -0.451405 0.44199
  outer loop
   vertex 27.1141 59.1136 421.246
   vertex 28.0126 60.6536 421.243
   vertex 26.8678 59.5797 422.154
  endloop
 endfacet
 facet normal 0.780991 -0.454832 0.427997
  outer loop
   vertex 27.7678 59.5943 420.564
   vertex 28.0126 60.6536 421.243
   vertex 27.1141 59.1136 421.246
  endloop
 endfacet
 facet normal 0.765891 -0.403135 0.500892
  outer loop
   vertex 28.0126 60.6536 421.243
   vertex 28.8034 61.2937 420.549
   vertex 28.3914 61.3397 421.216
  endloop
 endfacet
 facet normal 0.742782 -0.604547 0.287745
  outer loop
   vertex 25.8856 57.3464 421.225
   vertex 26.2838 57.5258 420.574
   vertex 26.3038 57.8707 421.247
  endloop
 endfacet
 facet normal 0.787723 -0.513273 0.340651
  outer loop
   vertex 26.3038 57.8707 421.247
   vertex 27.0711 58.4025 420.274
   vertex 27.1141 59.1136 421.246
  endloop
 endfacet
 facet normal 0.843597 -0.0984334 0.527878
  outer loop
   vertex 28.4156 61.5363 421.214
   vertex 28.3914 61.3397 421.216
   vertex 28.8034 61.2937 420.549
  endloop
 endfacet
 facet normal 0.765859 -0.534635 0.357246
  outer loop
   vertex 27.0711 58.4025 420.274
   vertex 27.7678 59.5943 420.564
   vertex 27.1141 59.1136 421.246
  endloop
 endfacet
 facet normal 0.760024 -0.587258 0.278372
  outer loop
   vertex 27.0711 58.4025 420.274
   vertex 26.3038 57.8707 421.247
   vertex 26.2838 57.5258 420.574
  endloop
 endfacet
 facet normal 0.766583 -0.441328 0.466454
  outer loop
   vertex 28.0126 60.6536 421.243
   vertex 28.5761 60.4486 420.123
   vertex 28.8034 61.2937 420.549
  endloop
 endfacet
 facet normal 0.750553 -0.47073 0.463771
  outer loop
   vertex 27.7678 59.5943 420.564
   vertex 28.5761 60.4486 420.123
   vertex 28.0126 60.6536 421.243
  endloop
 endfacet
 facet normal 0.754596 -0.445726 0.481574
  outer loop
   vertex 29.4 61.1498 419.481
   vertex 28.8034 61.2937 420.549
   vertex 28.5761 60.4486 420.123
  endloop
 endfacet
 facet normal 0.634794 -0.756618 0.156735
  outer loop
   vertex 26.8512 57.7661 419.436
   vertex 26.2838 57.5258 420.574
   vertex 26.3766 57.4862 420.007
  endloop
 endfacet
 facet normal 0.76041 -0.534341 0.369129
  outer loop
   vertex 27.0711 58.4025 420.274
   vertex 28.0977 59.3702 419.56
   vertex 27.7678 59.5943 420.564
  endloop
 endfacet
 facet normal 0.810741 -0.163013 0.562251
  outer loop
   vertex 29.0089 61.5742 420.334
   vertex 28.8034 61.2937 420.549
   vertex 29.3332 61.5418 419.857
  endloop
 endfacet
 facet normal 0.762694 -0.531063 0.369148
  outer loop
   vertex 27.7678 59.5943 420.564
   vertex 28.0977 59.3702 419.56
   vertex 28.5761 60.4486 420.123
  endloop
 endfacet
 facet normal 0.761242 -0.596858 0.253517
  outer loop
   vertex 26.2838 57.5258 420.574
   vertex 26.8512 57.7661 419.436
   vertex 27.0711 58.4025 420.274
  endloop
 endfacet
 facet normal 0.802057 -0.336573 0.493379
  outer loop
   vertex 29.4 61.1498 419.481
   vertex 29.3332 61.5418 419.857
   vertex 28.8034 61.2937 420.549
  endloop
 endfacet
 facet normal 0.778763 -0.360043 0.513709
  outer loop
   vertex 29.3332 61.5418 419.857
   vertex 29.4 61.1498 419.481
   vertex 29.75 61.4931 419.191
  endloop
 endfacet
 facet normal 0.748675 -0.61885 0.237718
  outer loop
   vertex 27.0711 58.4025 420.274
   vertex 27.3641 57.943 418.155
   vertex 28.0977 59.3702 419.56
  endloop
 endfacet
 facet normal 0.782208 -0.577639 0.233418
  outer loop
   vertex 26.8512 57.7661 419.436
   vertex 27.3641 57.943 418.155
   vertex 27.0711 58.4025 420.274
  endloop
 endfacet
 facet normal 0.755232 -0.506669 0.415827
  outer loop
   vertex 29.2586 60.4179 418.846
   vertex 29.4 61.1498 419.481
   vertex 28.5761 60.4486 420.123
  endloop
 endfacet
 facet normal 0.737141 -0.53946 0.406946
  outer loop
   vertex 28.0977 59.3702 419.56
   vertex 29.2586 60.4179 418.846
   vertex 28.5761 60.4486 420.123
  endloop
 endfacet
 facet normal 0.8482 0.151154 0.507651
  outer loop
   vertex 29.75 61.4931 419.191
   vertex 30.191 61.5944 418.424
   vertex 29.7915 61.6498 419.075
  endloop
 endfacet
 facet normal 0.562897 -0.816565 0.127945
  outer loop
   vertex 26.5818 57.5619 419.318
   vertex 26.9258 57.674 418.52
   vertex 26.8512 57.7661 419.436
  endloop
 endfacet
 facet normal 0.695752 -0.652737 0.299774
  outer loop
   vertex 28.7581 59.3981 418.088
   vertex 28.0977 59.3702 419.56
   vertex 27.3641 57.943 418.155
  endloop
 endfacet
 facet normal 0.854485 -0.24282 0.459232
  outer loop
   vertex 29.75 61.4931 419.191
   vertex 30.3222 61.2958 418.022
   vertex 30.191 61.5944 418.424
  endloop
 endfacet
 facet normal 0.786496 -0.417194 0.455383
  outer loop
   vertex 29.75 61.4931 419.191
   vertex 29.4 61.1498 419.481
   vertex 30.3222 61.2958 418.022
  endloop
 endfacet
 facet normal 0.735544 -0.597851 0.318667
  outer loop
   vertex 28.7581 59.3981 418.088
   vertex 29.2586 60.4179 418.846
   vertex 28.0977 59.3702 419.56
  endloop
 endfacet
 facet normal 0.594137 -0.794078 0.128228
  outer loop
   vertex 26.9258 57.674 418.52
   vertex 27.3641 57.943 418.155
   vertex 26.8512 57.7661 419.436
  endloop
 endfacet
 facet normal 0.748804 -0.510938 0.422178
  outer loop
   vertex 30.3222 61.2958 418.022
   vertex 29.4 61.1498 419.481
   vertex 29.2586 60.4179 418.846
  endloop
 endfacet
 facet normal 0.746125 -0.545075 0.38235
  outer loop
   vertex 29.2586 60.4179 418.846
   vertex 30.0922 60.4773 417.304
   vertex 30.3222 61.2958 418.022
  endloop
 endfacet
 facet normal 0.8079 -0.315311 0.497872
  outer loop
   vertex 30.3222 61.2958 418.022
   vertex 30.4786 61.5418 417.924
   vertex 30.191 61.5944 418.424
  endloop
 endfacet
 facet normal 0.705311 -0.612031 0.357707
  outer loop
   vertex 28.7581 59.3981 418.088
   vertex 30.0922 60.4773 417.304
   vertex 29.2586 60.4179 418.846
  endloop
 endfacet
 facet normal 0.600055 -0.787592 0.140115
  outer loop
   vertex 27.2871 57.7751 417.541
   vertex 27.3641 57.943 418.155
   vertex 26.9258 57.674 418.52
  endloop
 endfacet
 facet normal 0.702349 -0.636047 0.319609
  outer loop
   vertex 29.4116 59.6926 417.238
   vertex 30.0922 60.4773 417.304
   vertex 28.7581 59.3981 418.088
  endloop
 endfacet
 facet normal 0.698663 -0.656202 0.285077
  outer loop
   vertex 28.7581 59.3981 418.088
   vertex 27.3641 57.943 418.155
   vertex 28.139 57.9513 416.275
  endloop
 endfacet
 facet normal 0.685448 -0.664977 0.296592
  outer loop
   vertex 28.139 57.9513 416.275
   vertex 29.4116 59.6926 417.238
   vertex 28.7581 59.3981 418.088
  endloop
 endfacet
 facet normal 0.823337 -0.343466 0.451827
  outer loop
   vertex 30.3222 61.2958 418.022
   vertex 31.1941 61.4942 416.584
   vertex 30.4786 61.5418 417.924
  endloop
 endfacet
 facet normal 0.79488 -0.436199 0.421778
  outer loop
   vertex 31.2332 61.2241 416.231
   vertex 31.1941 61.4942 416.584
   vertex 30.3222 61.2958 418.022
  endloop
 endfacet
 facet normal 0.733559 -0.552867 0.395258
  outer loop
   vertex 30.0922 60.4773 417.304
   vertex 31.2332 61.2241 416.231
   vertex 30.3222 61.2958 418.022
  endloop
 endfacet
 facet normal 0.71133 -0.641174 0.287932
  outer loop
   vertex 29.4116 59.6926 417.238
   vertex 31.7333 61.4883 415.501
   vertex 30.0922 60.4773 417.304
  endloop
 endfacet
 facet normal 0.682287 -0.665732 0.302134
  outer loop
   vertex 28.139 57.9513 416.275
   vertex 28.4926 57.9774 415.534
   vertex 29.4116 59.6926 417.238
  endloop
 endfacet
 facet normal 0.659244 -0.677425 0.326332
  outer loop
   vertex 28.4926 57.9774 415.534
   vertex 31.7974 60.2527 413.581
   vertex 29.4116 59.6926 417.238
  endloop
 endfacet
 facet normal 0.727743 -0.565432 0.388172
  outer loop
   vertex 29.4116 59.6926 417.238
   vertex 31.7974 60.2527 413.581
   vertex 31.7333 61.4883 415.501
  endloop
 endfacet
 facet normal 0.659016 -0.678352 0.324864
  outer loop
   vertex 31.7974 60.2527 413.581
   vertex 28.4926 57.9774 415.534
   vertex 28.8432 57.8597 414.577
  endloop
 endfacet
 facet normal 0.736473 -0.543427 0.402859
  outer loop
   vertex 31.8255 60.9068 414.675
   vertex 32.348 61.0871 413.963
   vertex 32.1197 61.2566 414.609
  endloop
 endfacet
 facet normal 0.863844 -0.319831 0.389205
  outer loop
   vertex 32.348 61.0871 413.963
   vertex 32.4821 61.3933 413.917
   vertex 32.1197 61.2566 414.609
  endloop
 endfacet
 facet normal 0.888625 -0.0455079 0.456372
  outer loop
   vertex 32.1197 61.2566 414.609
   vertex 32.4821 61.3933 413.917
   vertex 32.1451 61.4918 414.583
  endloop
 endfacet
 facet normal 0.656857 -0.656642 0.370622
  outer loop
   vertex 28.8432 57.8597 414.577
   vertex 29.8695 58.1492 413.271
   vertex 31.7974 60.2527 413.581
  endloop
 endfacet
 facet normal 0.697695 -0.622624 0.354345
  outer loop
   vertex 31.7974 60.2527 413.581
   vertex 32.348 61.0871 413.963
   vertex 31.8255 60.9068 414.675
  endloop
 endfacet
 facet normal 0.789392 -0.429105 0.439009
  outer loop
   vertex 32.348 61.0871 413.963
   vertex 32.8893 61.0383 412.942
   vertex 32.6982 61.2863 413.528
  endloop
 endfacet
 facet normal 0.67708 -0.624805 0.38882
  outer loop
   vertex 31.7974 60.2527 413.581
   vertex 32.8893 61.0383 412.942
   vertex 32.348 61.0871 413.963
  endloop
 endfacet
 facet normal 0.66005 -0.658287 0.361928
  outer loop
   vertex 29.8695 58.1492 413.271
   vertex 30.6977 58.0752 411.626
   vertex 31.7974 60.2527 413.581
  endloop
 endfacet
 facet normal 0.678294 -0.612087 0.40653
  outer loop
   vertex 33.0664 60.4721 411.794
   vertex 32.8893 61.0383 412.942
   vertex 31.7974 60.2527 413.581
  endloop
 endfacet
 facet normal 0.626239 -0.691644 0.359796
  outer loop
   vertex 30.7757 57.7025 410.457
   vertex 33.0664 60.4721 411.794
   vertex 31.7974 60.2527 413.581
  endloop
 endfacet
 facet normal 0.760671 -0.60206 0.242701
  outer loop
   vertex 31.7974 60.2527 413.581
   vertex 30.6977 58.0752 411.626
   vertex 30.7757 57.7025 410.457
  endloop
 endfacet
 facet normal 0.610513 -0.691421 0.386279
  outer loop
   vertex 33.0664 60.4721 411.794
   vertex 30.7757 57.7025 410.457
   vertex 32.6329 58.7904 409.469
  endloop
 endfacet
 facet normal 0.629452 -0.680604 0.374925
  outer loop
   vertex 33.0664 60.4721 411.794
   vertex 32.6329 58.7904 409.469
   vertex 33.5502 60.1048 410.315
  endloop
 endfacet
 facet normal 0.685476 -0.679213 0.262282
  outer loop
   vertex 30.5209 57.7369 411.212
   vertex 30.7757 57.7025 410.457
   vertex 30.6977 58.0752 411.626
  endloop
 endfacet
 facet normal 0.857491 -0.308193 0.411978
  outer loop
   vertex 33.992 61.0363 410.776
   vertex 33.6901 60.9449 411.336
   vertex 33.8099 60.7609 410.949
  endloop
 endfacet
 facet normal 0.675625 -0.632864 0.378173
  outer loop
   vertex 33.5502 60.1048 410.315
   vertex 33.8099 60.7609 410.949
   vertex 33.0664 60.4721 411.794
  endloop
 endfacet
 facet normal 0.849664 -0.281843 0.445685
  outer loop
   vertex 33.992 61.0363 410.776
   vertex 33.8099 60.7609 410.949
   vertex 34.1447 60.7898 410.329
  endloop
 endfacet
 facet normal 0.703578 -0.617803 0.351138
  outer loop
   vertex 34.1447 60.7898 410.329
   vertex 33.8099 60.7609 410.949
   vertex 33.5502 60.1048 410.315
  endloop
 endfacet
 facet normal 0.700974 -0.615723 0.359891
  outer loop
   vertex 34.1447 60.7898 410.329
   vertex 33.5502 60.1048 410.315
   vertex 34.4661 60.5484 409.29
  endloop
 endfacet
 facet normal 0.637047 -0.69419 0.335069
  outer loop
   vertex 32.0732 57.9698 408.833
   vertex 32.6329 58.7904 409.469
   vertex 31.5895 58.025 409.867
  endloop
 endfacet
 facet normal 0.673014 -0.671093 0.310943
  outer loop
   vertex 33.5502 60.1048 410.315
   vertex 33.8394 59.6368 408.679
   vertex 34.4661 60.5484 409.29
  endloop
 endfacet
 facet normal 0.67381 -0.67033 0.310866
  outer loop
   vertex 33.5502 60.1048 410.315
   vertex 32.6329 58.7904 409.469
   vertex 33.8394 59.6368 408.679
  endloop
 endfacet
 facet normal 0.669265 -0.684728 0.288499
  outer loop
   vertex 32.5838 58.2267 408.245
   vertex 33.8394 59.6368 408.679
   vertex 32.6329 58.7904 409.469
  endloop
 endfacet
 facet normal 0.673241 -0.681512 0.286858
  outer loop
   vertex 32.0732 57.9698 408.833
   vertex 32.5838 58.2267 408.245
   vertex 32.6329 58.7904 409.469
  endloop
 endfacet
 facet normal 0.703965 -0.659928 0.262542
  outer loop
   vertex 33.8394 59.6368 408.679
   vertex 34.8489 60.3767 407.832
   vertex 34.4661 60.5484 409.29
  endloop
 endfacet
 facet normal 0.756069 -0.596754 0.268782
  outer loop
   vertex 34.8489 60.3767 407.832
   vertex 34.8878 60.721 408.487
   vertex 34.4661 60.5484 409.29
  endloop
 endfacet
 facet normal 0.644343 -0.725212 0.242673
  outer loop
   vertex 32.2333 57.8149 407.945
   vertex 32.5838 58.2267 408.245
   vertex 32.0732 57.9698 408.833
  endloop
 endfacet
 facet normal 0.683489 -0.685669 0.250401
  outer loop
   vertex 32.5838 58.2267 408.245
   vertex 33.3365 58.8061 407.777
   vertex 33.8394 59.6368 408.679
  endloop
 endfacet
 facet normal 0.671184 -0.715564 0.193597
  outer loop
   vertex 32.7207 58.0594 407.152
   vertex 33.3365 58.8061 407.777
   vertex 32.5838 58.2267 408.245
  endloop
 endfacet
 facet normal 0.704989 -0.672233 0.22604
  outer loop
   vertex 33.8394 59.6368 408.679
   vertex 33.3365 58.8061 407.777
   vertex 34.3835 59.6563 407.04
  endloop
 endfacet
 facet normal 0.675665 -0.71325 0.186416
  outer loop
   vertex 32.7207 58.0594 407.152
   vertex 33.5259 58.7516 406.882
   vertex 33.3365 58.8061 407.777
  endloop
 endfacet
 facet normal 0.673021 -0.713846 0.193564
  outer loop
   vertex 32.2333 57.8149 407.945
   vertex 32.7207 58.0594 407.152
   vertex 32.5838 58.2267 408.245
  endloop
 endfacet
 facet normal 0.790571 -0.575519 0.209226
  outer loop
   vertex 34.8489 60.3767 407.832
   vertex 35.2952 60.5317 406.572
   vertex 35.1665 60.725 407.59
  endloop
 endfacet
 facet normal 0.690337 -0.688915 0.220977
  outer loop
   vertex 34.3835 59.6563 407.04
   vertex 34.8489 60.3767 407.832
   vertex 33.8394 59.6368 408.679
  endloop
 endfacet
 facet normal 0.695872 -0.69273 0.189442
  outer loop
   vertex 34.3835 59.6563 407.04
   vertex 33.3365 58.8061 407.777
   vertex 33.5259 58.7516 406.882
  endloop
 endfacet
 facet normal 0.727304 -0.663362 0.176011
  outer loop
   vertex 34.8489 60.3767 407.832
   vertex 34.3835 59.6563 407.04
   vertex 35.2952 60.5317 406.572
  endloop
 endfacet
 facet normal 0.704175 -0.693841 0.150739
  outer loop
   vertex 33.5259 58.7516 406.882
   vertex 34.2469 59.0623 404.944
   vertex 34.3835 59.6563 407.04
  endloop
 endfacet
 facet normal 0.722905 -0.675695 0.144375
  outer loop
   vertex 34.2469 59.0623 404.944
   vertex 35.2952 60.5317 406.572
   vertex 34.3835 59.6563 407.04
  endloop
 endfacet
 facet normal 0.71087 -0.684802 0.160345
  outer loop
   vertex 34.2469 59.0623 404.944
   vertex 35.6084 60.6208 405.564
   vertex 35.2952 60.5317 406.572
  endloop
 endfacet
 facet normal 0.7928 -0.577344 0.195301
  outer loop
   vertex 35.6084 60.6208 405.564
   vertex 35.6591 60.844 406.018
   vertex 35.2952 60.5317 406.572
  endloop
 endfacet
 facet normal 0.676558 -0.723785 0.135663
  outer loop
   vertex 33.1771 58.2012 405.685
   vertex 34.2469 59.0623 404.944
   vertex 33.5259 58.7516 406.882
  endloop
 endfacet
 facet normal 0.844034 -0.512569 0.157734
  outer loop
   vertex 35.6591 60.844 406.018
   vertex 35.6084 60.6208 405.564
   vertex 35.8479 61.0161 405.567
  endloop
 endfacet
 facet normal 0.683428 -0.690868 0.235856
  outer loop
   vertex 34.2469 59.0623 404.944
   vertex 35.7041 60.3379 404.458
   vertex 35.6084 60.6208 405.564
  endloop
 endfacet
 facet normal 0.683623 -0.678728 0.268304
  outer loop
   vertex 35.2601 59.5788 403.669
   vertex 35.7041 60.3379 404.458
   vertex 34.2469 59.0623 404.944
  endloop
 endfacet
 facet normal 0.842054 -0.500581 0.200909
  outer loop
   vertex 35.7041 60.3379 404.458
   vertex 36.0591 61.216 405.158
   vertex 35.6084 60.6208 405.564
  endloop
 endfacet
 facet normal 0.690118 -0.7003 0.182532
  outer loop
   vertex 33.7892 58.5156 404.577
   vertex 34.2469 59.0623 404.944
   vertex 33.1771 58.2012 405.685
  endloop
 endfacet
 facet normal 0.663486 -0.70858 0.240209
  outer loop
   vertex 34.2469 59.0623 404.944
   vertex 33.9711 58.4993 404.045
   vertex 35.2601 59.5788 403.669
  endloop
 endfacet
 facet normal 0.84266 -0.328555 0.426587
  outer loop
   vertex 36.5395 61.1783 404.18
   vertex 36.3184 61.2838 404.698
   vertex 36.0591 61.216 405.158
  endloop
 endfacet
 facet normal 0.716564 -0.588357 0.374663
  outer loop
   vertex 35.7041 60.3379 404.458
   vertex 36.5395 61.1783 404.18
   vertex 36.0591 61.216 405.158
  endloop
 endfacet
 facet normal 0.654041 -0.641132 0.401473
  outer loop
   vertex 34.793 58.6796 402.994
   vertex 35.2601 59.5788 403.669
   vertex 33.9711 58.4993 404.045
  endloop
 endfacet
 facet normal 0.855392 -0.140769 0.498487
  outer loop
   vertex 37.0995 61.4472 403.469
   vertex 36.9243 61.6149 403.817
   vertex 36.8069 61.4788 403.98
  endloop
 endfacet
 facet normal 0.727265 -0.651097 0.217162
  outer loop
   vertex 35.2601 59.5788 403.669
   vertex 36.5395 61.1783 404.18
   vertex 35.7041 60.3379 404.458
  endloop
 endfacet
 facet normal 0.790032 -0.386073 0.476232
  outer loop
   vertex 36.5395 61.1783 404.18
   vertex 37.0995 61.4472 403.469
   vertex 36.8069 61.4788 403.98
  endloop
 endfacet
 facet normal 0.659693 -0.648828 0.379246
  outer loop
   vertex 36.5133 60.3696 402.842
   vertex 36.5395 61.1783 404.18
   vertex 35.2601 59.5788 403.669
  endloop
 endfacet
 facet normal 0.661822 -0.638581 0.392691
  outer loop
   vertex 34.793 58.6796 402.994
   vertex 35.5957 59.5023 402.979
   vertex 35.2601 59.5788 403.669
  endloop
 endfacet
 facet normal 0.82727 -0.345616 0.442916
  outer loop
   vertex 37.0995 61.4472 403.469
   vertex 37.5602 61.9143 402.973
   vertex 37.276 61.7441 403.371
  endloop
 endfacet
 facet normal 0.661999 -0.638359 0.392752
  outer loop
   vertex 35.5957 59.5023 402.979
   vertex 36.5133 60.3696 402.842
   vertex 35.2601 59.5788 403.669
  endloop
 endfacet
 facet normal 0.725039 -0.595604 0.345797
  outer loop
   vertex 36.5395 61.1783 404.18
   vertex 36.5133 60.3696 402.842
   vertex 37.0995 61.4472 403.469
  endloop
 endfacet
 facet normal 0.613805 -0.589316 0.52531
  outer loop
   vertex 34.793 58.6796 402.994
   vertex 35.5652 58.7913 402.217
   vertex 35.5957 59.5023 402.979
  endloop
 endfacet
 facet normal 0.663018 -0.611731 0.4315
  outer loop
   vertex 36.5133 60.3696 402.842
   vertex 39.3751 61.9738 400.719
   vertex 37.0995 61.4472 403.469
  endloop
 endfacet
 facet normal 0.61244 -0.559798 0.558161
  outer loop
   vertex 35.5957 59.5023 402.979
   vertex 36.1109 59.0609 401.971
   vertex 36.5133 60.3696 402.842
  endloop
 endfacet
 facet normal 0.775952 -0.104811 0.622023
  outer loop
   vertex 39.3751 61.9738 400.719
   vertex 37.5602 61.9143 402.973
   vertex 37.0995 61.4472 403.469
  endloop
 endfacet
 facet normal 0.555917 -0.618741 0.555082
  outer loop
   vertex 36.1109 59.0609 401.971
   vertex 35.5957 59.5023 402.979
   vertex 35.5652 58.7913 402.217
  endloop
 endfacet
 facet normal 0.771375 0.123137 0.624355
  outer loop
   vertex 39.3751 61.9738 400.719
   vertex 37.9546 61.9991 402.469
   vertex 37.5602 61.9143 402.973
  endloop
 endfacet
 facet normal 0.675197 -0.541195 0.501216
  outer loop
   vertex 36.1109 59.0609 401.971
   vertex 39.3751 61.9738 400.719
   vertex 36.5133 60.3696 402.842
  endloop
 endfacet
 facet normal 0.545011 -0.734904 0.403584
  outer loop
   vertex 35.5652 58.7913 402.217
   vertex 36.2975 58.8912 401.41
   vertex 36.1109 59.0609 401.971
  endloop
 endfacet
 facet normal 0.692098 0.0803114 0.717321
  outer loop
   vertex 38.882 62.1471 401.434
   vertex 39.165 62.343 401.139
   vertex 38.6861 62.3435 401.601
  endloop
 endfacet
 facet normal 0.649385 -0.471126 0.596941
  outer loop
   vertex 36.8184 59.2201 401.327
   vertex 39.3751 61.9738 400.719
   vertex 36.1109 59.0609 401.971
  endloop
 endfacet
 facet normal 0.533731 -0.743724 0.4025
  outer loop
   vertex 36.8184 59.2201 401.327
   vertex 36.1109 59.0609 401.971
   vertex 36.2975 58.8912 401.41
  endloop
 endfacet
 facet normal 0.631051 0.417711 0.653676
  outer loop
   vertex 39.165 62.343 401.139
   vertex 38.9833 62.5643 401.173
   vertex 38.6861 62.3435 401.601
  endloop
 endfacet
 facet normal 0.467627 0.25388 0.846682
  outer loop
   vertex 39.3237 62.5043 401.003
   vertex 38.9833 62.5643 401.173
   vertex 39.165 62.343 401.139
  endloop
 endfacet
 facet normal 0.630637 -0.445158 0.635713
  outer loop
   vertex 39.3751 61.9738 400.719
   vertex 36.8184 59.2201 401.327
   vertex 37.4447 59.2848 400.751
  endloop
 endfacet
 facet normal 0.529079 -0.727831 0.436278
  outer loop
   vertex 36.2975 58.8912 401.41
   vertex 36.9329 59.036 400.881
   vertex 36.8184 59.2201 401.327
  endloop
 endfacet
 facet normal 0.728321 -0.153415 0.667842
  outer loop
   vertex 39.165 62.343 401.139
   vertex 39.863 62.4788 400.409
   vertex 39.3237 62.5043 401.003
  endloop
 endfacet
 facet normal 0.480605 -0.760187 0.43719
  outer loop
   vertex 36.9329 59.036 400.881
   vertex 37.4447 59.2848 400.751
   vertex 36.8184 59.2201 401.327
  endloop
 endfacet
 facet normal 0.715834 -0.306438 0.627437
  outer loop
   vertex 39.165 62.343 401.139
   vertex 39.3751 61.9738 400.719
   vertex 39.863 62.4788 400.409
  endloop
 endfacet
 facet normal 0.576449 -0.610275 0.543389
  outer loop
   vertex 37.3555 59.1293 400.671
   vertex 37.7196 59.2435 400.413
   vertex 37.4447 59.2848 400.751
  endloop
 endfacet
 facet normal 0.69973 -0.465753 0.541712
  outer loop
   vertex 39.3751 61.9738 400.719
   vertex 38.1711 59.6532 400.279
   vertex 38.7408 59.5414 399.447
  endloop
 endfacet
 facet normal 0.635718 -0.448898 0.627976
  outer loop
   vertex 37.4447 59.2848 400.751
   vertex 38.1711 59.6532 400.279
   vertex 39.3751 61.9738 400.719
  endloop
 endfacet
 facet normal 0.635371 -0.510771 0.579152
  outer loop
   vertex 37.7196 59.2435 400.413
   vertex 38.1711 59.6532 400.279
   vertex 37.4447 59.2848 400.751
  endloop
 endfacet
 facet normal 0.663542 0.0355775 0.747293
  outer loop
   vertex 39.863 62.4788 400.409
   vertex 40.4616 62.8463 399.86
   vertex 39.9389 62.7856 400.327
  endloop
 endfacet
 facet normal 0.667556 -0.585032 0.460549
  outer loop
   vertex 38.1711 59.6532 400.279
   vertex 37.7196 59.2435 400.413
   vertex 38.1813 59.3901 399.93
  endloop
 endfacet
 facet normal 0.760832 -0.445276 0.472084
  outer loop
   vertex 39.3751 61.9738 400.719
   vertex 38.7408 59.5414 399.447
   vertex 39.863 62.4788 400.409
  endloop
 endfacet
 facet normal 0.702381 -0.0890639 0.706208
  outer loop
   vertex 41.2124 62.884 399.118
   vertex 40.4616 62.8463 399.86
   vertex 39.863 62.4788 400.409
  endloop
 endfacet
 facet normal 0.59725 -0.631965 0.493875
  outer loop
   vertex 38.7408 59.5414 399.447
   vertex 38.1711 59.6532 400.279
   vertex 38.1813 59.3901 399.93
  endloop
 endfacet
 facet normal 0.703313 -0.0230146 0.710507
  outer loop
   vertex 41.2124 62.884 399.118
   vertex 40.9061 63.0318 399.426
   vertex 40.4616 62.8463 399.86
  endloop
 endfacet
 facet normal 0.601958 -0.446736 0.661871
  outer loop
   vertex 40.7235 60.2944 398.152
   vertex 39.863 62.4788 400.409
   vertex 38.7408 59.5414 399.447
  endloop
 endfacet
 facet normal 0.715845 0.0298036 0.697623
  outer loop
   vertex 41.2124 62.884 399.118
   vertex 41.3901 63.1569 398.924
   vertex 40.9061 63.0318 399.426
  endloop
 endfacet
 facet normal 0.698866 -0.362047 0.616854
  outer loop
   vertex 40.7235 60.2944 398.152
   vertex 41.2124 62.884 399.118
   vertex 39.863 62.4788 400.409
  endloop
 endfacet
 facet normal 0.696103 -0.362573 0.619662
  outer loop
   vertex 40.7235 60.2944 398.152
   vertex 42.2014 63.0976 398.132
   vertex 41.2124 62.884 399.118
  endloop
 endfacet
 facet normal 0.699551 0.051166 0.712749
  outer loop
   vertex 41.3901 63.1569 398.924
   vertex 41.2124 62.884 399.118
   vertex 42.2014 63.0976 398.132
  endloop
 endfacet
 facet normal 0.692326 -0.0610793 0.718995
  outer loop
   vertex 42.2014 63.0976 398.132
   vertex 42.5798 63.4315 397.796
   vertex 42.1447 63.3379 398.207
  endloop
 endfacet
 facet normal 0.651199 -0.338474 0.679246
  outer loop
   vertex 41.6862 60.7217 397.442
   vertex 42.2014 63.0976 398.132
   vertex 40.7235 60.2944 398.152
  endloop
 endfacet
 facet normal 0.647566 -0.491845 0.582019
  outer loop
   vertex 40.7235 60.2944 398.152
   vertex 41.2896 60.2883 397.517
   vertex 41.6862 60.7217 397.442
  endloop
 endfacet
 facet normal 0.56768 -0.644454 0.512268
  outer loop
   vertex 40.7437 60.0602 397.835
   vertex 41.2896 60.2883 397.517
   vertex 40.7235 60.2944 398.152
  endloop
 endfacet
 facet normal 0.69745 -0.0730138 0.712904
  outer loop
   vertex 42.2014 63.0976 398.132
   vertex 43.444 63.3386 396.941
   vertex 42.5798 63.4315 397.796
  endloop
 endfacet
 facet normal 0.663189 -0.337778 0.667897
  outer loop
   vertex 41.6862 60.7217 397.442
   vertex 42.5028 60.844 396.693
   vertex 42.2014 63.0976 398.132
  endloop
 endfacet
 facet normal 0.657628 -0.505041 0.558981
  outer loop
   vertex 41.2896 60.2883 397.517
   vertex 41.7683 60.4324 397.084
   vertex 41.6862 60.7217 397.442
  endloop
 endfacet
 facet normal 0.686655 -0.323785 0.650897
  outer loop
   vertex 42.5028 60.844 396.693
   vertex 43.444 63.3386 396.941
   vertex 42.2014 63.0976 398.132
  endloop
 endfacet
 facet normal 0.598357 -0.550524 0.582145
  outer loop
   vertex 42.1587 60.5659 396.809
   vertex 41.6862 60.7217 397.442
   vertex 41.7683 60.4324 397.084
  endloop
 endfacet
 facet normal 0.61855 -0.519432 0.589565
  outer loop
   vertex 42.1587 60.5659 396.809
   vertex 42.5028 60.844 396.693
   vertex 41.6862 60.7217 397.442
  endloop
 endfacet
 facet normal 0.644392 -0.599098 0.475227
  outer loop
   vertex 42.1587 60.5659 396.809
   vertex 42.6155 60.6765 396.329
   vertex 42.5028 60.844 396.693
  endloop
 endfacet
 facet normal 0.668101 -0.107725 0.736231
  outer loop
   vertex 43.444 63.3386 396.941
   vertex 43.9362 63.7872 396.56
   vertex 42.9408 63.587 397.434
  endloop
 endfacet
 facet normal 0.693141 -0.325461 0.643141
  outer loop
   vertex 42.5028 60.844 396.693
   vertex 44.7089 63.7817 395.802
   vertex 43.444 63.3386 396.941
  endloop
 endfacet
 facet normal 0.641735 -0.601661 0.475584
  outer loop
   vertex 43.1482 61.1506 396.21
   vertex 42.5028 60.844 396.693
   vertex 42.6155 60.6765 396.329
  endloop
 endfacet
 facet normal 0.690812 -0.158858 0.705367
  outer loop
   vertex 44.7089 63.7817 395.802
   vertex 43.9362 63.7872 396.56
   vertex 43.444 63.3386 396.941
  endloop
 endfacet
 facet normal 0.657045 -0.281289 0.699406
  outer loop
   vertex 44.7089 63.7817 395.802
   vertex 42.5028 60.844 396.693
   vertex 43.1482 61.1506 396.21
  endloop
 endfacet
 facet normal 0.67215 -0.293281 0.679853
  outer loop
   vertex 43.1482 61.1506 396.21
   vertex 43.6275 61.1851 395.751
   vertex 44.7089 63.7817 395.802
  endloop
 endfacet
 facet normal 0.649059 -0.284171 0.705669
  outer loop
   vertex 44.2418 61.3962 395.271
   vertex 44.7089 63.7817 395.802
   vertex 43.6275 61.1851 395.751
  endloop
 endfacet
 facet normal 0.634806 -0.491359 0.596312
  outer loop
   vertex 43.6275 61.1851 395.751
   vertex 43.8005 61.0348 395.443
   vertex 44.2418 61.3962 395.271
  endloop
 endfacet
 facet normal 0.674534 -0.276533 0.684495
  outer loop
   vertex 45.699 64.1225 394.964
   vertex 44.7089 63.7817 395.802
   vertex 44.7955 61.483 394.788
  endloop
 endfacet
 facet normal 0.655175 -0.284111 0.700019
  outer loop
   vertex 44.2418 61.3962 395.271
   vertex 44.7955 61.483 394.788
   vertex 44.7089 63.7817 395.802
  endloop
 endfacet
 facet normal 0.643958 0.0102388 0.764992
  outer loop
   vertex 45.1944 64.1788 395.388
   vertex 44.7089 63.7817 395.802
   vertex 45.699 64.1225 394.964
  endloop
 endfacet
 facet normal 0.620373 -0.452731 0.640447
  outer loop
   vertex 44.1105 61.1286 395.209
   vertex 44.2418 61.3962 395.271
   vertex 43.8005 61.0348 395.443
  endloop
 endfacet
 facet normal 0.684347 -0.164526 0.710352
  outer loop
   vertex 46.5287 63.9556 394.126
   vertex 46.258 64.3537 394.479
   vertex 45.699 64.1225 394.964
  endloop
 endfacet
 facet normal 0.638406 -0.26667 0.722028
  outer loop
   vertex 46.3877 62.1269 393.618
   vertex 45.699 64.1225 394.964
   vertex 44.7955 61.483 394.788
  endloop
 endfacet
 facet normal 0.663457 -0.24732 0.706157
  outer loop
   vertex 46.3877 62.1269 393.618
   vertex 46.5287 63.9556 394.126
   vertex 45.699 64.1225 394.964
  endloop
 endfacet
 facet normal 0.617577 -0.597257 0.511744
  outer loop
   vertex 44.7955 61.483 394.788
   vertex 45.2922 61.4945 394.202
   vertex 46.3877 62.1269 393.618
  endloop
 endfacet
 facet normal 0.660576 -0.2478 0.708685
  outer loop
   vertex 46.3877 62.1269 393.618
   vertex 47.1229 62.1506 392.941
   vertex 46.5287 63.9556 394.126
  endloop
 endfacet
 facet normal 0.667861 -0.242183 0.703782
  outer loop
   vertex 47.1229 62.1506 392.941
   vertex 47.5334 64.2038 393.258
   vertex 46.5287 63.9556 394.126
  endloop
 endfacet
 facet normal 0.673504 -0.396851 0.62362
  outer loop
   vertex 46.2206 61.826 393.607
   vertex 46.5902 61.8891 393.248
   vertex 46.3877 62.1269 393.618
  endloop
 endfacet
 facet normal 0.608656 -0.238521 0.756734
  outer loop
   vertex 47.5334 64.2038 393.258
   vertex 47.1229 62.1506 392.941
   vertex 47.7992 62.7247 392.578
  endloop
 endfacet
 facet normal 0.60285 -0.479229 0.637896
  outer loop
   vertex 46.5902 61.8891 393.248
   vertex 47.1229 62.1506 392.941
   vertex 46.3877 62.1269 393.618
  endloop
 endfacet
 facet normal 0.655831 -0.214851 0.723688
  outer loop
   vertex 47.5334 64.2038 393.258
   vertex 47.7992 62.7247 392.578
   vertex 48.6138 64.7229 392.433
  endloop
 endfacet
 facet normal 0.595572 -0.633697 0.493682
  outer loop
   vertex 46.9131 61.902 392.875
   vertex 47.1229 62.1506 392.941
   vertex 46.5902 61.8891 393.248
  endloop
 endfacet
 facet normal 0.593868 -0.633029 0.496583
  outer loop
   vertex 47.2449 61.9897 392.59
   vertex 47.1229 62.1506 392.941
   vertex 46.9131 61.902 392.875
  endloop
 endfacet
 facet normal 0.642548 -0.140098 0.753329
  outer loop
   vertex 47.5334 64.2038 393.258
   vertex 48.6138 64.7229 392.433
   vertex 48.044 64.7873 392.931
  endloop
 endfacet
 facet normal 0.637298 -0.205924 0.742594
  outer loop
   vertex 48.6138 64.7229 392.433
   vertex 47.7992 62.7247 392.578
   vertex 48.8573 62.862 391.708
  endloop
 endfacet
 facet normal 0.623318 -0.339236 0.704552
  outer loop
   vertex 48.8573 62.862 391.708
   vertex 47.7992 62.7247 392.578
   vertex 48.1933 62.3626 392.055
  endloop
 endfacet
 facet normal 0.657724 -0.191371 0.728544
  outer loop
   vertex 49.4392 64.8187 391.713
   vertex 48.6138 64.7229 392.433
   vertex 49.7077 63.0423 391.004
  endloop
 endfacet
 facet normal 0.671887 -0.377334 0.637328
  outer loop
   vertex 48.8936 62.5584 391.49
   vertex 48.8573 62.862 391.708
   vertex 48.5926 62.4582 391.748
  endloop
 endfacet
 facet normal 0.649616 -0.200689 0.733296
  outer loop
   vertex 48.8573 62.862 391.708
   vertex 49.7077 63.0423 391.004
   vertex 48.6138 64.7229 392.433
  endloop
 endfacet
 facet normal 0.63405 -0.399604 0.66204
  outer loop
   vertex 48.8573 62.862 391.708
   vertex 48.8936 62.5584 391.49
   vertex 49.2506 62.7322 391.253
  endloop
 endfacet
 facet normal 0.621808 -0.207438 0.755198
  outer loop
   vertex 49.7077 63.0423 391.004
   vertex 50.4146 64.8482 390.918
   vertex 49.4392 64.8187 391.713
  endloop
 endfacet
 facet normal 0.633009 -0.401734 0.661747
  outer loop
   vertex 49.2506 62.7322 391.253
   vertex 49.7077 63.0423 391.004
   vertex 48.8573 62.862 391.708
  endloop
 endfacet
 facet normal 0.545668 -0.605259 0.579575
  outer loop
   vertex 49.9754 62.9437 390.649
   vertex 49.7077 63.0423 391.004
   vertex 49.5252 62.7868 390.909
  endloop
 endfacet
 facet normal 0.578029 -0.561739 0.591889
  outer loop
   vertex 50.4817 63.1939 390.392
   vertex 49.7077 63.0423 391.004
   vertex 49.9754 62.9437 390.649
  endloop
 endfacet
 facet normal 0.629077 -0.27184 0.728262
  outer loop
   vertex 50.4817 63.1939 390.392
   vertex 51.1768 63.7657 390.005
   vertex 49.7077 63.0423 391.004
  endloop
 endfacet
 facet normal 0.617501 -0.20556 0.759235
  outer loop
   vertex 50.4146 64.8482 390.918
   vertex 49.7077 63.0423 391.004
   vertex 51.1768 63.7657 390.005
  endloop
 endfacet
 facet normal 0.651183 0.221843 0.725773
  outer loop
   vertex 50.8456 65.4397 390.535
   vertex 50.6261 65.2759 390.782
   vertex 51.4237 65.107 390.118
  endloop
 endfacet
 facet normal 0.63018 -0.0656378 0.77367
  outer loop
   vertex 50.6261 65.2759 390.782
   vertex 50.4146 64.8482 390.918
   vertex 51.4237 65.107 390.118
  endloop
 endfacet
 facet normal 0.639049 -0.180624 0.747657
  outer loop
   vertex 50.4146 64.8482 390.918
   vertex 51.1768 63.7657 390.005
   vertex 51.4237 65.107 390.118
  endloop
 endfacet
 facet normal 0.613212 -0.177722 0.769666
  outer loop
   vertex 51.9439 63.7058 389.38
   vertex 51.4237 65.107 390.118
   vertex 51.1768 63.7657 390.005
  endloop
 endfacet
 facet normal 0.58212 -0.199105 0.788349
  outer loop
   vertex 51.4237 65.107 390.118
   vertex 51.9439 63.7058 389.38
   vertex 52.3391 64.984 389.411
  endloop
 endfacet
 facet normal 0.600575 -0.0942243 0.793997
  outer loop
   vertex 52.4477 65.5412 389.395
   vertex 51.4237 65.107 390.118
   vertex 52.3391 64.984 389.411
  endloop
 endfacet
 facet normal 0.641614 -0.216228 0.73592
  outer loop
   vertex 52.3391 64.984 389.411
   vertex 51.9439 63.7058 389.38
   vertex 52.4822 63.7069 388.911
  endloop
 endfacet
 facet normal 0.616161 -0.0976201 0.781547
  outer loop
   vertex 52.3391 64.984 389.411
   vertex 53.3102 65.6772 388.732
   vertex 52.4477 65.5412 389.395
  endloop
 endfacet
 facet normal 0.603388 -0.39697 0.69162
  outer loop
   vertex 52.4822 63.7069 388.911
   vertex 51.9439 63.7058 389.38
   vertex 51.867 63.4025 389.273
  endloop
 endfacet
 facet normal 0.57598 -0.732495 0.362902
  outer loop
   vertex 51.867 63.4025 389.273
   vertex 52.3588 63.5524 388.795
   vertex 52.4822 63.7069 388.911
  endloop
 endfacet
 facet normal 0.65652 -0.210073 0.724466
  outer loop
   vertex 52.4822 63.7069 388.911
   vertex 53.3102 65.6772 388.732
   vertex 52.3391 64.984 389.411
  endloop
 endfacet
 facet normal 0.595531 -0.179115 0.78311
  outer loop
   vertex 53.3102 65.6772 388.732
   vertex 52.4822 63.7069 388.911
   vertex 53.2715 64.1669 388.416
  endloop
 endfacet
 facet normal 0.649508 -0.55383 0.520972
  outer loop
   vertex 52.9098 63.7418 388.415
   vertex 53.2715 64.1669 388.416
   vertex 52.4822 63.7069 388.911
  endloop
 endfacet
 facet normal 0.571842 -0.182024 0.799915
  outer loop
   vertex 53.3102 65.6772 388.732
   vertex 53.2715 64.1669 388.416
   vertex 55.3363 64.1629 386.939
  endloop
 endfacet
 facet normal 0.571539 -0.487809 0.659837
  outer loop
   vertex 52.9098 63.7418 388.415
   vertex 53.5322 63.8515 387.957
   vertex 53.2715 64.1669 388.416
  endloop
 endfacet
 facet normal 0.474902 -0.575872 0.665462
  outer loop
   vertex 55.3363 64.1629 386.939
   vertex 53.2715 64.1669 388.416
   vertex 53.5322 63.8515 387.957
  endloop
 endfacet
 facet normal 0.486144 -0.519662 0.702578
  outer loop
   vertex 54.3464 63.8182 387.369
   vertex 55.3363 64.1629 386.939
   vertex 53.5322 63.8515 387.957
  endloop
 endfacet
 facet normal 0.602348 -0.127149 0.788042
  outer loop
   vertex 55.3363 64.1629 386.939
   vertex 54.7899 65.5969 387.588
   vertex 53.3102 65.6772 388.732
  endloop
 endfacet
 facet normal 0.617401 -0.116834 0.777924
  outer loop
   vertex 54.7899 65.5969 387.588
   vertex 55.3363 64.1629 386.939
   vertex 55.5934 65.6215 386.954
  endloop
 endfacet
 facet normal 0.520539 -0.388403 0.760383
  outer loop
   vertex 55.2338 63.9061 386.878
   vertex 55.3363 64.1629 386.939
   vertex 54.8298 63.8091 387.105
  endloop
 endfacet
 facet normal 0.540874 -0.103929 0.834658
  outer loop
   vertex 55.3363 64.1629 386.939
   vertex 56.2287 65.2414 386.495
   vertex 55.5934 65.6215 386.954
  endloop
 endfacet
 facet normal 0.588979 -0.273738 0.760375
  outer loop
   vertex 55.8385 64.2268 386.573
   vertex 56.0537 64.6176 386.547
   vertex 55.3363 64.1629 386.939
  endloop
 endfacet
 facet normal 0.572718 -0.398744 0.716239
  outer loop
   vertex 55.8385 64.2268 386.573
   vertex 55.3363 64.1629 386.939
   vertex 55.2338 63.9061 386.878
  endloop
 endfacet
 facet normal 0.62155 0.100692 0.776876
  outer loop
   vertex 56.0188 65.7191 386.601
   vertex 55.5934 65.6215 386.954
   vertex 56.2287 65.2414 386.495
  endloop
 endfacet
endsolid
