solid ascii
 facet normal 0.534409 0.256191 -0.805465
  outer loop
   vertex 18.1055 70.9646 342.35
   vertex 18.0275 71.3002 342.405
   vertex 18.3084 71.2079 342.562
  endloop
 endfacet
 facet normal 0.54404 0.426043 -0.722847
  outer loop
   vertex 18.0275 71.3002 342.405
   vertex 18.1386 71.8302 342.801
   vertex 18.3084 71.2079 342.562
  endloop
 endfacet
 facet normal -0.227473 0.427706 -0.874828
  outer loop
   vertex 17.5233 72.2847 342.858
   vertex 17.6909 71.4125 342.388
   vertex 17.1385 71.2496 342.452
  endloop
 endfacet
 facet normal -0.250795 0.432863 -0.86587
  outer loop
   vertex 17.5233 72.2847 342.858
   vertex 17.1385 71.2496 342.452
   vertex 17.0139 72.3316 343.029
  endloop
 endfacet
 facet normal 0.184652 0.418901 -0.889059
  outer loop
   vertex 17.6909 71.4125 342.388
   vertex 17.889 71.9046 342.661
   vertex 18.0275 71.3002 342.405
  endloop
 endfacet
 facet normal 0.0234987 0.477742 -0.878186
  outer loop
   vertex 17.6909 71.4125 342.388
   vertex 17.5233 72.2847 342.858
   vertex 17.889 71.9046 342.661
  endloop
 endfacet
 facet normal 0.535723 0.430464 -0.726431
  outer loop
   vertex 18.0275 71.3002 342.405
   vertex 17.889 71.9046 342.661
   vertex 18.1386 71.8302 342.801
  endloop
 endfacet
 facet normal -0.251422 0.430211 -0.86701
  outer loop
   vertex 17.0139 72.3316 343.029
   vertex 17.3576 72.9698 343.246
   vertex 17.5233 72.2847 342.858
  endloop
 endfacet
 facet normal -0.4934 0.276169 -0.824795
  outer loop
   vertex 16.1301 70.6209 342.76
   vertex 15.2232 70.7627 343.35
   vertex 16.2238 71.1526 342.882
  endloop
 endfacet
 facet normal -0.505862 0.353912 -0.78667
  outer loop
   vertex 16.2238 71.1526 342.882
   vertex 15.2232 70.7627 343.35
   vertex 14.5768 72.9818 344.764
  endloop
 endfacet
 facet normal -0.456279 0.404592 -0.792537
  outer loop
   vertex 14.5768 72.9818 344.764
   vertex 17.0139 72.3316 343.029
   vertex 16.2238 71.1526 342.882
  endloop
 endfacet
 facet normal -0.418429 0.508091 -0.752835
  outer loop
   vertex 17.0139 72.3316 343.029
   vertex 16.0237 73.0586 344.07
   vertex 17.1207 73.3249 343.64
  endloop
 endfacet
 facet normal -0.406964 0.664576 -0.626673
  outer loop
   vertex 16.0237 73.0586 344.07
   vertex 16.8506 73.5414 344.045
   vertex 17.1207 73.3249 343.64
  endloop
 endfacet
 facet normal -0.271981 0.761433 -0.588427
  outer loop
   vertex 17.3302 73.7212 344.056
   vertex 17.1207 73.3249 343.64
   vertex 16.8506 73.5414 344.045
  endloop
 endfacet
 facet normal -0.472096 0.371799 -0.799306
  outer loop
   vertex 15.2232 70.7627 343.35
   vertex 13.2307 69.8687 344.111
   vertex 14.5768 72.9818 344.764
  endloop
 endfacet
 facet normal -0.386689 0.541862 -0.746229
  outer loop
   vertex 14.5768 72.9818 344.764
   vertex 16.0237 73.0586 344.07
   vertex 17.0139 72.3316 343.029
  endloop
 endfacet
 facet normal -0.350817 0.279215 -0.893849
  outer loop
   vertex 13.2307 69.8687 344.111
   vertex 12.3296 69.9626 344.494
   vertex 12.8765 71.4405 344.741
  endloop
 endfacet
 facet normal -0.265509 0.306546 -0.914076
  outer loop
   vertex 14.5768 72.9818 344.764
   vertex 13.2307 69.8687 344.111
   vertex 12.8765 71.4405 344.741
  endloop
 endfacet
 facet normal -0.332291 0.529238 -0.780698
  outer loop
   vertex 13.8326 72.8361 344.982
   vertex 14.5768 72.9818 344.764
   vertex 13.218 72.4679 344.994
  endloop
 endfacet
 facet normal -0.27285 0.31457 -0.909175
  outer loop
   vertex 14.5768 72.9818 344.764
   vertex 12.8765 71.4405 344.741
   vertex 13.218 72.4679 344.994
  endloop
 endfacet
 facet normal -0.361807 0.334533 -0.870163
  outer loop
   vertex 12.8765 71.4405 344.741
   vertex 12.0662 72.5488 345.504
   vertex 13.218 72.4679 344.994
  endloop
 endfacet
 facet normal -0.336589 0.111533 -0.935023
  outer loop
   vertex 10.8603 69.1777 345.007
   vertex 9.71798 69.1929 345.42
   vertex 10.842 69.8268 345.091
  endloop
 endfacet
 facet normal -0.408766 0.295578 -0.863449
  outer loop
   vertex 12.0662 72.5488 345.504
   vertex 12.8765 71.4405 344.741
   vertex 12.3296 69.9626 344.494
  endloop
 endfacet
 facet normal -0.3939 0.23761 -0.88791
  outer loop
   vertex 8.87941 71.7525 346.477
   vertex 10.842 69.8268 345.091
   vertex 9.71798 69.1929 345.42
  endloop
 endfacet
 facet normal -0.380141 0.252906 -0.88968
  outer loop
   vertex 10.842 69.8268 345.091
   vertex 8.87941 71.7525 346.477
   vertex 12.3296 69.9626 344.494
  endloop
 endfacet
 facet normal -0.347658 0.310155 -0.884838
  outer loop
   vertex 12.3296 69.9626 344.494
   vertex 8.87941 71.7525 346.477
   vertex 12.0662 72.5488 345.504
  endloop
 endfacet
 facet normal -0.362176 0.706501 -0.608017
  outer loop
   vertex 8.87941 71.7525 346.477
   vertex 11.1326 72.3585 345.839
   vertex 12.0662 72.5488 345.504
  endloop
 endfacet
 facet normal -0.220253 -0.136287 -0.965875
  outer loop
   vertex 8.37201 68.5103 345.881
   vertex 7.60455 68.4395 346.066
   vertex 8.24133 68.7641 345.875
  endloop
 endfacet
 facet normal -0.351857 0.256473 -0.900232
  outer loop
   vertex 9.71798 69.1929 345.42
   vertex 8.24133 68.7641 345.875
   vertex 8.87941 71.7525 346.477
  endloop
 endfacet
 facet normal -0.359409 0.52187 -0.773613
  outer loop
   vertex 10.4535 72.3118 346.123
   vertex 11.1326 72.3585 345.839
   vertex 8.87941 71.7525 346.477
  endloop
 endfacet
 facet normal -0.31948 0.0706821 -0.944953
  outer loop
   vertex 7.60455 68.4395 346.066
   vertex 6.63347 68.4888 346.398
   vertex 8.24133 68.7641 345.875
  endloop
 endfacet
 facet normal -0.309189 0.250807 -0.917332
  outer loop
   vertex 8.87941 71.7525 346.477
   vertex 8.24133 68.7641 345.875
   vertex 7.78695 70.8703 346.604
  endloop
 endfacet
 facet normal -0.337365 0.242091 -0.909712
  outer loop
   vertex 7.78695 70.8703 346.604
   vertex 8.24133 68.7641 345.875
   vertex 6.63347 68.4888 346.398
  endloop
 endfacet
 facet normal -0.352756 0.309704 -0.882976
  outer loop
   vertex 7.95277 71.675 346.82
   vertex 8.87941 71.7525 346.477
   vertex 7.78695 70.8703 346.604
  endloop
 endfacet
 facet normal -0.364232 0.253919 -0.896025
  outer loop
   vertex 7.78695 70.8703 346.604
   vertex 6.63347 68.4888 346.398
   vertex 6.79554 71.262 347.118
  endloop
 endfacet
 facet normal -0.305436 0.117992 -0.944874
  outer loop
   vertex 4.85805 67.7027 346.881
   vertex 4.03706 67.8517 347.165
   vertex 5.17792 68.2184 346.842
  endloop
 endfacet
 facet normal -0.324356 0.246352 -0.913293
  outer loop
   vertex 6.63347 68.4888 346.398
   vertex 5.17792 68.2184 346.842
   vertex 4.43225 69.4239 347.432
  endloop
 endfacet
 facet normal -0.334859 0.23896 -0.911464
  outer loop
   vertex 4.43225 69.4239 347.432
   vertex 5.17792 68.2184 346.842
   vertex 4.03706 67.8517 347.165
  endloop
 endfacet
 facet normal -0.303966 0.276077 -0.911804
  outer loop
   vertex 4.03706 67.8517 347.165
   vertex 2.5797 67.621 347.581
   vertex 2.5502 68.7841 347.943
  endloop
 endfacet
 facet normal -0.314028 0.267932 -0.910823
  outer loop
   vertex 5.44248 70.9037 347.519
   vertex 6.63347 68.4888 346.398
   vertex 4.43225 69.4239 347.432
  endloop
 endfacet
 facet normal -0.336218 0.255027 -0.906597
  outer loop
   vertex 5.44248 70.9037 347.519
   vertex 6.79554 71.262 347.118
   vertex 6.63347 68.4888 346.398
  endloop
 endfacet
 facet normal -0.328993 0.237895 -0.913876
  outer loop
   vertex 2.5502 68.7841 347.943
   vertex 4.43225 69.4239 347.432
   vertex 4.03706 67.8517 347.165
  endloop
 endfacet
 facet normal -0.344536 0.287746 -0.893587
  outer loop
   vertex 5.44248 70.9037 347.519
   vertex 4.43225 69.4239 347.432
   vertex 4.32449 70.7824 347.911
  endloop
 endfacet
 facet normal -0.341495 0.290711 -0.893794
  outer loop
   vertex 2.5502 68.7841 347.943
   vertex 2.36553 70.538 348.584
   vertex 4.43225 69.4239 347.432
  endloop
 endfacet
 facet normal -0.343088 0.288025 -0.894054
  outer loop
   vertex 4.43225 69.4239 347.432
   vertex 2.36553 70.538 348.584
   vertex 4.32449 70.7824 347.911
  endloop
 endfacet
 facet normal -0.341657 0.226184 -0.912201
  outer loop
   vertex -56.781 66.2164 369.987
   vertex -56.9586 64.8552 369.716
   vertex -57.8462 66.2085 370.384
  endloop
 endfacet
 facet normal -0.334924 0.23121 -0.913437
  outer loop
   vertex -56.9586 64.8552 369.716
   vertex -58.9816 62.2921 369.809
   vertex -57.8462 66.2085 370.384
  endloop
 endfacet
 facet normal -0.313879 0.224613 -0.922512
  outer loop
   vertex -55.6338 65.8933 369.518
   vertex -56.9586 64.8552 369.716
   vertex -56.781 66.2164 369.987
  endloop
 endfacet
 facet normal -0.268846 0.294959 -0.916908
  outer loop
   vertex -55.6338 65.8933 369.518
   vertex -54.819 66.2381 369.39
   vertex -54.4033 65.7963 369.126
  endloop
 endfacet
 facet normal -0.326686 -0.222529 -0.918563
  outer loop
   vertex -55.3224 61.9065 368.601
   vertex -57.8004 61.722 369.527
   vertex -58.9816 62.2921 369.809
  endloop
 endfacet
 facet normal -0.285101 0.18444 -0.940584
  outer loop
   vertex -55.6338 65.8933 369.518
   vertex -54.4033 65.7963 369.126
   vertex -56.9586 64.8552 369.716
  endloop
 endfacet
 facet normal -0.288164 0.194632 -0.937593
  outer loop
   vertex -55.3224 61.9065 368.601
   vertex -56.9586 64.8552 369.716
   vertex -54.4033 65.7963 369.126
  endloop
 endfacet
 facet normal -0.289014 0.194103 -0.937441
  outer loop
   vertex -55.3224 61.9065 368.601
   vertex -58.9816 62.2921 369.809
   vertex -56.9586 64.8552 369.716
  endloop
 endfacet
 facet normal -0.314533 0.199572 -0.92803
  outer loop
   vertex -54.2209 61.6894 368.181
   vertex -55.3224 61.9065 368.601
   vertex -54.4033 65.7963 369.126
  endloop
 endfacet
 facet normal -0.419625 0.139682 -0.896885
  outer loop
   vertex -52.8036 63.4426 368.011
   vertex -54.4033 65.7963 369.126
   vertex -53.6054 65.0342 368.634
  endloop
 endfacet
 facet normal -0.301874 0.261976 -0.916646
  outer loop
   vertex -52.0684 65.1992 368.175
   vertex -53.6054 65.0342 368.634
   vertex -53.3677 65.749 368.76
  endloop
 endfacet
 facet normal -0.351207 0.195116 -0.915742
  outer loop
   vertex -52.8036 63.4426 368.011
   vertex -54.2209 61.6894 368.181
   vertex -54.4033 65.7963 369.126
  endloop
 endfacet
 facet normal -0.300497 0.212576 -0.929792
  outer loop
   vertex -52.0684 65.1992 368.175
   vertex -52.8036 63.4426 368.011
   vertex -53.6054 65.0342 368.634
  endloop
 endfacet
 facet normal -0.21978 0.620871 -0.752473
  outer loop
   vertex -52.0684 65.1992 368.175
   vertex -50.9722 65.3073 367.944
   vertex -50.3057 64.8706 367.389
  endloop
 endfacet
 facet normal -0.29182 0.144217 -0.945538
  outer loop
   vertex -52.8036 63.4426 368.011
   vertex -53.244 61.6731 367.877
   vertex -54.2209 61.6894 368.181
  endloop
 endfacet
 facet normal -0.353635 0.232595 -0.906003
  outer loop
   vertex -50.8701 64.0569 367.414
   vertex -52.8036 63.4426 368.011
   vertex -52.0684 65.1992 368.175
  endloop
 endfacet
 facet normal -0.361947 0.223254 -0.90507
  outer loop
   vertex -50.3057 64.8706 367.389
   vertex -50.8701 64.0569 367.414
   vertex -52.0684 65.1992 368.175
  endloop
 endfacet
 facet normal -0.315712 0.149518 -0.937001
  outer loop
   vertex -53.244 61.6731 367.877
   vertex -52.8036 63.4426 368.011
   vertex -52.3925 61.1147 367.501
  endloop
 endfacet
 facet normal -0.333698 0.145124 -0.931442
  outer loop
   vertex -50.8701 64.0569 367.414
   vertex -52.3925 61.1147 367.501
   vertex -52.8036 63.4426 368.011
  endloop
 endfacet
 facet normal -0.378128 0.266354 -0.886608
  outer loop
   vertex 1.57691 67.1727 347.874
   vertex 2.5502 68.7841 347.943
   vertex 2.5797 67.621 347.581
  endloop
 endfacet
 facet normal -0.339225 0.207108 -0.917623
  outer loop
   vertex -49.165 64.3818 366.857
   vertex -50.8701 64.0569 367.414
   vertex -50.3057 64.8706 367.389
  endloop
 endfacet
 facet normal -0.352282 0.15499 -0.922971
  outer loop
   vertex -48.0933 63.0258 366.181
   vertex -52.3925 61.1147 367.501
   vertex -50.8701 64.0569 367.414
  endloop
 endfacet
 facet normal -0.327152 0.0859704 -0.941053
  outer loop
   vertex -52.3925 61.1147 367.501
   vertex -48.0933 63.0258 366.181
   vertex -51.3831 60.6102 367.104
  endloop
 endfacet
 facet normal -0.411298 0.222384 -0.883957
  outer loop
   vertex -50.736 60.5589 366.79
   vertex -51.3831 60.6102 367.104
   vertex -48.0933 63.0258 366.181
  endloop
 endfacet
 facet normal -0.337662 0.192461 -0.921381
  outer loop
   vertex -49.165 64.3818 366.857
   vertex -48.0933 63.0258 366.181
   vertex -50.8701 64.0569 367.414
  endloop
 endfacet
 facet normal -0.333888 0.128066 -0.933872
  outer loop
   vertex -50.3807 60.2634 366.62
   vertex -48.0933 63.0258 366.181
   vertex -49.8376 60.0023 366.39
  endloop
 endfacet
 facet normal -0.337145 0.131014 -0.932292
  outer loop
   vertex -48.0933 63.0258 366.181
   vertex -50.3807 60.2634 366.62
   vertex -50.736 60.5589 366.79
  endloop
 endfacet
 facet normal -0.325446 0.20316 -0.923478
  outer loop
   vertex -48.0933 63.0258 366.181
   vertex -49.165 64.3818 366.857
   vertex -47.6982 64.2996 366.322
  endloop
 endfacet
 facet normal -0.301416 0.108404 -0.94731
  outer loop
   vertex -49.4465 59.735 366.235
   vertex -49.8376 60.0023 366.39
   vertex -48.0933 63.0258 366.181
  endloop
 endfacet
 facet normal -0.360422 0.212329 -0.908302
  outer loop
   vertex -46.717 63.6038 365.77
   vertex -48.0933 63.0258 366.181
   vertex -47.6982 64.2996 366.322
  endloop
 endfacet
 facet normal -0.217814 -0.165341 -0.961883
  outer loop
   vertex -44.6425 63.8843 365.252
   vertex -48.0933 63.0258 366.181
   vertex -46.717 63.6038 365.77
  endloop
 endfacet
 facet normal -0.344832 0.451761 -0.822802
  outer loop
   vertex -48.5267 59.5829 365.766
   vertex -49.4465 59.735 366.235
   vertex -47.8149 59.5525 365.451
  endloop
 endfacet
 facet normal -0.221641 0.183523 -0.957703
  outer loop
   vertex -47.8149 59.5525 365.451
   vertex -48.0933 63.0258 366.181
   vertex -47.1913 58.808 365.164
  endloop
 endfacet
 facet normal -0.413669 0.155387 -0.897069
  outer loop
   vertex -48.0933 63.0258 366.181
   vertex -47.8149 59.5525 365.451
   vertex -49.4465 59.735 366.235
  endloop
 endfacet
 facet normal -0.316729 0.299081 -0.90013
  outer loop
   vertex -42.972 61.5692 363.895
   vertex -48.0933 63.0258 366.181
   vertex -44.6425 63.8843 365.252
  endloop
 endfacet
 facet normal -0.409903 0.130027 -0.902813
  outer loop
   vertex -48.0933 63.0258 366.181
   vertex -45.9203 58.8848 364.598
   vertex -47.1913 58.808 365.164
  endloop
 endfacet
 facet normal -0.356996 0.182559 -0.916093
  outer loop
   vertex -45.1618 58.4714 364.131
   vertex -48.0933 63.0258 366.181
   vertex -42.972 61.5692 363.895
  endloop
 endfacet
 facet normal -0.49423 0.0718398 -0.866358
  outer loop
   vertex -45.9203 58.8848 364.598
   vertex -48.0933 63.0258 366.181
   vertex -45.1618 58.4714 364.131
  endloop
 endfacet
 facet normal -0.334579 0.227877 -0.914401
  outer loop
   vertex -42.9013 62.9451 364.212
   vertex -42.972 61.5692 363.895
   vertex -43.9789 63.3411 364.705
  endloop
 endfacet
 facet normal -0.344982 0.387511 -0.854881
  outer loop
   vertex -42.9013 62.9451 364.212
   vertex -42.0609 63.3866 364.073
   vertex -41.3912 63.1467 363.694
  endloop
 endfacet
 facet normal -0.343002 0.227605 -0.911343
  outer loop
   vertex -41.3912 63.1467 363.694
   vertex -42.972 61.5692 363.895
   vertex -42.9013 62.9451 364.212
  endloop
 endfacet
 facet normal -0.415987 0.0763731 -0.906158
  outer loop
   vertex -44.8366 58.0832 363.949
   vertex -45.1618 58.4714 364.131
   vertex -44.0834 58.2701 363.619
  endloop
 endfacet
 facet normal -0.351099 0.287733 -0.891033
  outer loop
   vertex -40.7907 63.2973 363.506
   vertex -40.4909 62.8363 363.239
   vertex -41.3912 63.1467 363.694
  endloop
 endfacet
 facet normal -0.365733 0.252356 -0.895855
  outer loop
   vertex -40.4909 62.8363 363.239
   vertex -42.972 61.5692 363.895
   vertex -41.3912 63.1467 363.694
  endloop
 endfacet
 facet normal -0.388092 0.205894 -0.898327
  outer loop
   vertex -44.0834 58.2701 363.619
   vertex -45.1618 58.4714 364.131
   vertex -42.972 61.5692 363.895
  endloop
 endfacet
 facet normal -0.365554 0.251902 -0.896056
  outer loop
   vertex -39.7954 60.0038 362.159
   vertex -42.972 61.5692 363.895
   vertex -40.4909 62.8363 363.239
  endloop
 endfacet
 facet normal -0.367857 0.199898 -0.908142
  outer loop
   vertex -43.0835 57.4026 363.023
   vertex -44.0834 58.2701 363.619
   vertex -42.972 61.5692 363.895
  endloop
 endfacet
 facet normal -0.392919 0.198428 -0.89791
  outer loop
   vertex -39.7954 60.0038 362.159
   vertex -43.0835 57.4026 363.023
   vertex -42.972 61.5692 363.895
  endloop
 endfacet
 facet normal -0.363469 0.252656 -0.896691
  outer loop
   vertex -39.0656 62.9702 362.699
   vertex -39.7954 60.0038 362.159
   vertex -40.4909 62.8363 363.239
  endloop
 endfacet
 facet normal -0.435735 0.265092 -0.860152
  outer loop
   vertex -41.9214 57.1842 362.367
   vertex -43.0835 57.4026 363.023
   vertex -39.7954 60.0038 362.159
  endloop
 endfacet
 facet normal -0.342254 0.285723 -0.895112
  outer loop
   vertex -37.8362 63.1145 362.275
   vertex -37.1754 62.136 361.71
   vertex -39.0656 62.9702 362.699
  endloop
 endfacet
 facet normal -0.359035 0.251928 -0.89868
  outer loop
   vertex -37.1754 62.136 361.71
   vertex -39.7954 60.0038 362.159
   vertex -39.0656 62.9702 362.699
  endloop
 endfacet
 facet normal -0.386373 0.225347 -0.89439
  outer loop
   vertex -41.2857 56.381 361.89
   vertex -41.9214 57.1842 362.367
   vertex -39.7954 60.0038 362.159
  endloop
 endfacet
 facet normal -0.342334 0.290527 -0.893533
  outer loop
   vertex 2.36553 70.538 348.584
   vertex 2.5502 68.7841 347.943
   vertex 1.5734 70.4134 348.847
  endloop
 endfacet
 facet normal -0.345595 0.28319 -0.894633
  outer loop
   vertex -36.6464 63.3313 361.884
   vertex -37.1754 62.136 361.71
   vertex -37.8362 63.1145 362.275
  endloop
 endfacet
 facet normal -0.422149 0.238592 -0.874565
  outer loop
   vertex -39.0566 55.1639 360.482
   vertex -41.2857 56.381 361.89
   vertex -39.7954 60.0038 362.159
  endloop
 endfacet
 facet normal -0.337506 0.280195 -0.898655
  outer loop
   vertex -37.1754 62.136 361.71
   vertex -36.6464 63.3313 361.884
   vertex -35.2341 63.5924 361.435
  endloop
 endfacet
 facet normal -0.336228 0.262106 -0.904573
  outer loop
   vertex -39.7954 60.0038 362.159
   vertex -37.1218 55.8616 359.965
   vertex -39.0566 55.1639 360.482
  endloop
 endfacet
 facet normal -0.343519 0.25676 -0.903365
  outer loop
   vertex -36.1321 57.133 359.95
   vertex -37.1218 55.8616 359.965
   vertex -39.7954 60.0038 362.159
  endloop
 endfacet
 facet normal -0.470763 0.283948 -0.835318
  outer loop
   vertex -32.8882 63.4018 360.421
   vertex -34.0512 58.7025 359.479
   vertex -33.9807 64.2646 361.33
  endloop
 endfacet
 facet normal -0.309582 0.303777 -0.901043
  outer loop
   vertex -34.0512 58.7025 359.479
   vertex -37.1754 62.136 361.71
   vertex -33.9807 64.2646 361.33
  endloop
 endfacet
 facet normal -0.353352 0.244012 -0.903106
  outer loop
   vertex -37.1754 62.136 361.71
   vertex -36.1321 57.133 359.95
   vertex -39.7954 60.0038 362.159
  endloop
 endfacet
 facet normal -0.356386 0.315134 -0.879591
  outer loop
   vertex -31.9179 62.8077 359.815
   vertex -32.8882 63.4018 360.421
   vertex -31.5113 64.3114 360.189
  endloop
 endfacet
 facet normal -0.384429 0.271975 -0.882181
  outer loop
   vertex -32.8882 63.4018 360.421
   vertex -31.9179 62.8077 359.815
   vertex -34.0512 58.7025 359.479
  endloop
 endfacet
 facet normal -0.362349 0.241151 -0.900305
  outer loop
   vertex -37.1754 62.136 361.71
   vertex -34.9508 58.1165 359.738
   vertex -36.1321 57.133 359.95
  endloop
 endfacet
 facet normal -0.340477 0.312616 -0.886762
  outer loop
   vertex -30.2757 64.7835 359.881
   vertex -31.9179 62.8077 359.815
   vertex -31.5113 64.3114 360.189
  endloop
 endfacet
 facet normal -0.368846 0.335528 -0.866818
  outer loop
   vertex -30.9365 62.5819 359.31
   vertex -31.9179 62.8077 359.815
   vertex -30.2757 64.7835 359.881
  endloop
 endfacet
 facet normal -0.394058 0.276514 -0.876503
  outer loop
   vertex -34.0512 58.7025 359.479
   vertex -31.9179 62.8077 359.815
   vertex -31.2768 61.0967 358.987
  endloop
 endfacet
 facet normal -0.397997 0.217027 -0.891346
  outer loop
   vertex -34.0512 58.7025 359.479
   vertex -34.9508 58.1165 359.738
   vertex -37.1754 62.136 361.71
  endloop
 endfacet
 facet normal -0.318406 0.0709996 -0.945292
  outer loop
   vertex -34.2395 58.1376 359.5
   vertex -34.9508 58.1165 359.738
   vertex -34.0512 58.7025 359.479
  endloop
 endfacet
 facet normal -0.387589 0.279825 -0.878335
  outer loop
   vertex -31.9179 62.8077 359.815
   vertex -30.9365 62.5819 359.31
   vertex -31.2768 61.0967 358.987
  endloop
 endfacet
 facet normal -0.373557 0.336337 -0.864484
  outer loop
   vertex -30.9365 62.5819 359.31
   vertex -30.2757 64.7835 359.881
   vertex -29.0646 64.6815 359.318
  endloop
 endfacet
 facet normal -0.373801 0.460747 -0.804975
  outer loop
   vertex -28.4457 65.1906 359.322
   vertex -27.8243 65.0553 358.956
   vertex -29.0646 64.6815 359.318
  endloop
 endfacet
 facet normal -0.379844 0.278852 -0.88202
  outer loop
   vertex -30.9365 62.5819 359.31
   vertex -29.8312 61.8829 358.613
   vertex -31.2768 61.0967 358.987
  endloop
 endfacet
 facet normal -0.35335 0.318379 -0.879647
  outer loop
   vertex -29.0646 64.6815 359.318
   vertex -29.8312 61.8829 358.613
   vertex -30.9365 62.5819 359.31
  endloop
 endfacet
 facet normal -0.38357 0.245278 -0.890344
  outer loop
   vertex 0.586453 67.1298 348.23
   vertex -0.122505 66.8052 348.446
   vertex -0.536727 69.0722 349.249
  endloop
 endfacet
 facet normal -0.339398 0.243667 -0.908535
  outer loop
   vertex -31.0292 59.7227 358.526
   vertex -32.4356 60.0419 359.137
   vertex -31.2768 61.0967 358.987
  endloop
 endfacet
 facet normal -0.36162 0.235835 -0.902005
  outer loop
   vertex -29.7946 60.0458 358.118
   vertex -31.2768 61.0967 358.987
   vertex -29.8312 61.8829 358.613
  endloop
 endfacet
 facet normal -0.368907 0.320802 -0.872349
  outer loop
   vertex -29.0646 64.6815 359.318
   vertex -27.953 62.2344 357.948
   vertex -29.8312 61.8829 358.613
  endloop
 endfacet
 facet normal -0.360302 0.23772 -0.902037
  outer loop
   vertex -29.7946 60.0458 358.118
   vertex -31.0292 59.7227 358.526
   vertex -31.2768 61.0967 358.987
  endloop
 endfacet
 facet normal -0.316116 0.00999988 -0.948668
  outer loop
   vertex -30.1341 59.5594 358.226
   vertex -31.0292 59.7227 358.526
   vertex -29.7946 60.0458 358.118
  endloop
 endfacet
 facet normal -0.33556 0.278119 -0.900028
  outer loop
   vertex 1.57691 67.1727 347.874
   vertex 0.586453 67.1298 348.23
   vertex -0.536727 69.0722 349.249
  endloop
 endfacet
 facet normal -0.354588 0.328934 -0.875254
  outer loop
   vertex -29.0646 64.6815 359.318
   vertex -27.8243 65.0553 358.956
   vertex -27.953 62.2344 357.948
  endloop
 endfacet
 facet normal -0.365769 0.268489 -0.891138
  outer loop
   vertex -29.8312 61.8829 358.613
   vertex -27.953 62.2344 357.948
   vertex -28.8467 60.7746 357.875
  endloop
 endfacet
 facet normal -0.404127 0.230459 -0.885195
  outer loop
   vertex -29.8312 61.8829 358.613
   vertex -28.8467 60.7746 357.875
   vertex -29.7946 60.0458 358.118
  endloop
 endfacet
 facet normal -0.359154 0.341425 -0.868584
  outer loop
   vertex -26.1673 63.4352 357.634
   vertex -27.8243 65.0553 358.956
   vertex -25.7313 65.1302 358.12
  endloop
 endfacet
 facet normal -0.372758 0.327277 -0.868298
  outer loop
   vertex -27.953 62.2344 357.948
   vertex -27.8243 65.0553 358.956
   vertex -26.1673 63.4352 357.634
  endloop
 endfacet
 facet normal -0.37529 0.274034 -0.885473
  outer loop
   vertex -27.6115 61.1543 357.469
   vertex -28.8467 60.7746 357.875
   vertex -27.953 62.2344 357.948
  endloop
 endfacet
 facet normal -0.352972 0.151209 -0.923334
  outer loop
   vertex -28.6308 60.1001 357.682
   vertex -29.7946 60.0458 358.118
   vertex -28.8467 60.7746 357.875
  endloop
 endfacet
 facet normal -0.359105 0.191475 -0.913445
  outer loop
   vertex -27.7963 60.4452 357.393
   vertex -28.8467 60.7746 357.875
   vertex -27.6115 61.1543 357.469
  endloop
 endfacet
 facet normal -0.37578 0.141754 -0.915803
  outer loop
   vertex -28.8467 60.7746 357.875
   vertex -27.7963 60.4452 357.393
   vertex -28.6308 60.1001 357.682
  endloop
 endfacet
 facet normal -0.353631 0.377845 -0.855674
  outer loop
   vertex -23.4564 65.9258 357.525
   vertex -23.3342 64.8988 357.021
   vertex -24.4459 65.6112 357.795
  endloop
 endfacet
 facet normal -0.348109 0.340026 -0.873615
  outer loop
   vertex -24.4459 65.6112 357.795
   vertex -26.1673 63.4352 357.634
   vertex -25.7313 65.1302 358.12
  endloop
 endfacet
 facet normal -0.379246 0.276613 -0.882982
  outer loop
   vertex -26.7101 60.8779 357.066
   vertex -26.1673 63.4352 357.634
   vertex -24.7799 62.6336 356.787
  endloop
 endfacet
 facet normal -0.341279 0.27226 -0.899668
  outer loop
   vertex -26.1673 63.4352 357.634
   vertex -26.7101 60.8779 357.066
   vertex -27.953 62.2344 357.948
  endloop
 endfacet
 facet normal -0.356671 0.253927 -0.899059
  outer loop
   vertex -0.536727 69.0722 349.249
   vertex 2.5502 68.7841 347.943
   vertex 1.57691 67.1727 347.874
  endloop
 endfacet
 facet normal -0.342021 0.335516 -0.877753
  outer loop
   vertex -24.4459 65.6112 357.795
   vertex -24.7799 62.6336 356.787
   vertex -26.1673 63.4352 357.634
  endloop
 endfacet
 facet normal -0.310527 0.301595 -0.90145
  outer loop
   vertex -26.7101 60.8779 357.066
   vertex -27.6115 61.1543 357.469
   vertex -27.953 62.2344 357.948
  endloop
 endfacet
 facet normal -0.40195 0.309186 -0.861881
  outer loop
   vertex -23.3342 64.8988 357.021
   vertex -22.9213 63.1637 356.206
   vertex -24.4459 65.6112 357.795
  endloop
 endfacet
 facet normal -0.366836 0.334961 -0.86789
  outer loop
   vertex -22.9213 63.1637 356.206
   vertex -24.7799 62.6336 356.787
   vertex -24.4459 65.6112 357.795
  endloop
 endfacet
 facet normal -0.364513 0.258573 -0.894578
  outer loop
   vertex -24.8546 61.4558 356.477
   vertex -26.7101 60.8779 357.066
   vertex -24.7799 62.6336 356.787
  endloop
 endfacet
 facet normal -0.286032 0.35078 -0.891706
  outer loop
   vertex -22.0005 66.3905 357.18
   vertex -22.9213 63.1637 356.206
   vertex -23.3342 64.8988 357.021
  endloop
 endfacet
 facet normal -0.361854 0.25868 -0.895626
  outer loop
   vertex -24.8546 61.4558 356.477
   vertex -24.7799 62.6336 356.787
   vertex -23.4478 61.6822 355.974
  endloop
 endfacet
 facet normal -0.421029 0.293316 -0.858312
  outer loop
   vertex -20.0057 65.6868 355.961
   vertex -19.8562 63.499 355.14
   vertex -22.0005 66.3905 357.18
  endloop
 endfacet
 facet normal -0.34136 0.359548 -0.868446
  outer loop
   vertex -19.8562 63.499 355.14
   vertex -22.9213 63.1637 356.206
   vertex -22.0005 66.3905 357.18
  endloop
 endfacet
 facet normal -0.356045 0.266775 -0.89558
  outer loop
   vertex -22.9213 63.1637 356.206
   vertex -23.4478 61.6822 355.974
   vertex -24.7799 62.6336 356.787
  endloop
 endfacet
 facet normal -0.370117 0.346667 -0.861879
  outer loop
   vertex -18.9301 66.6064 355.869
   vertex -20.0057 65.6868 355.961
   vertex -19.9601 66.5609 356.293
  endloop
 endfacet
 facet normal -0.340798 0.309799 -0.887627
  outer loop
   vertex -20.0057 65.6868 355.961
   vertex -18.9301 66.6064 355.869
   vertex -19.8562 63.499 355.14
  endloop
 endfacet
 facet normal -0.342509 0.29102 -0.893306
  outer loop
   vertex -19.8562 63.499 355.14
   vertex -20.8816 62.4978 355.207
   vertex -22.9213 63.1637 356.206
  endloop
 endfacet
 facet normal -0.345524 0.283614 -0.894526
  outer loop
   vertex -22.0239 61.9577 355.477
   vertex -22.9213 63.1637 356.206
   vertex -20.8816 62.4978 355.207
  endloop
 endfacet
 facet normal -0.363369 0.26882 -0.892019
  outer loop
   vertex -22.9213 63.1637 356.206
   vertex -22.0239 61.9577 355.477
   vertex -23.4478 61.6822 355.974
  endloop
 endfacet
 facet normal -0.342926 0.310207 -0.886664
  outer loop
   vertex -17.7869 66.724 355.468
   vertex -19.8562 63.499 355.14
   vertex -18.9301 66.6064 355.869
  endloop
 endfacet
 facet normal -0.372034 0.507663 -0.77709
  outer loop
   vertex -17.4423 67.1327 355.57
   vertex -16.7098 67.0419 355.16
   vertex -17.7869 66.724 355.468
  endloop
 endfacet
 facet normal -0.345092 0.311467 -0.885381
  outer loop
   vertex -16.7098 67.0419 355.16
   vertex -19.8562 63.499 355.14
   vertex -17.7869 66.724 355.468
  endloop
 endfacet
 facet normal -0.324381 0.271598 -0.906097
  outer loop
   vertex -19.1354 62.6751 354.635
   vertex -20.8816 62.4978 355.207
   vertex -19.8562 63.499 355.14
  endloop
 endfacet
 facet normal -0.351248 0.316909 -0.881019
  outer loop
   vertex -15.2413 67.2739 354.658
   vertex -19.8562 63.499 355.14
   vertex -16.7098 67.0419 355.16
  endloop
 endfacet
 facet normal -0.376472 0.410097 -0.830716
  outer loop
   vertex -15.2413 67.2739 354.658
   vertex -14.3702 67.6887 354.468
   vertex -14.0116 67.5176 354.221
  endloop
 endfacet
 facet normal -0.325383 0.282561 -0.902377
  outer loop
   vertex -15.2413 67.2739 354.658
   vertex -17.5513 63.2566 354.233
   vertex -19.8562 63.499 355.14
  endloop
 endfacet
 facet normal -0.328248 0.268015 -0.905771
  outer loop
   vertex -17.5513 63.2566 354.233
   vertex -19.1354 62.6751 354.635
   vertex -19.8562 63.499 355.14
  endloop
 endfacet
 facet normal -0.310727 0.204798 -0.928174
  outer loop
   vertex -17.884 62.6023 354.2
   vertex -19.1354 62.6751 354.635
   vertex -17.5513 63.2566 354.233
  endloop
 endfacet
 facet normal -0.301336 0.200228 -0.932258
  outer loop
   vertex -17.5513 63.2566 354.233
   vertex -17.3175 62.7052 354.039
   vertex -17.884 62.6023 354.2
  endloop
 endfacet
 facet normal -0.368904 0.262897 -0.891513
  outer loop
   vertex -14.0116 67.5176 354.221
   vertex -12.0539 66.6158 353.145
   vertex -15.2413 67.2739 354.658
  endloop
 endfacet
 facet normal -0.285771 0.261842 -0.921832
  outer loop
   vertex -15.2413 67.2739 354.658
   vertex -16.2141 62.9381 353.728
   vertex -17.5513 63.2566 354.233
  endloop
 endfacet
 facet normal -0.385529 0.322657 -0.864442
  outer loop
   vertex -12.0539 66.6158 353.145
   vertex -12.2785 68.038 353.776
   vertex -11.2869 67.9449 353.299
  endloop
 endfacet
 facet normal -0.363528 0.281175 -0.888137
  outer loop
   vertex -12.0539 66.6158 353.145
   vertex -12.5853 65.0507 352.867
   vertex -15.2413 67.2739 354.658
  endloop
 endfacet
 facet normal -0.401143 0.277263 -0.873046
  outer loop
   vertex -15.2413 67.2739 354.658
   vertex -14.5611 63.6482 353.194
   vertex -16.2141 62.9381 353.728
  endloop
 endfacet
 facet normal -0.34361 0.295475 -0.891418
  outer loop
   vertex -13.3085 63.9192 352.801
   vertex -14.5611 63.6482 353.194
   vertex -15.2413 67.2739 354.658
  endloop
 endfacet
 facet normal -0.361914 0.283133 -0.888174
  outer loop
   vertex -13.3085 63.9192 352.801
   vertex -15.2413 67.2739 354.658
   vertex -12.5853 65.0507 352.867
  endloop
 endfacet
 facet normal -0.324096 0.291331 -0.900049
  outer loop
   vertex -11.2869 67.9449 353.299
   vertex -9.84633 64.5858 351.693
   vertex -12.0539 66.6158 353.145
  endloop
 endfacet
 facet normal -0.337645 0.268439 -0.902184
  outer loop
   vertex -12.0784 64.0616 352.383
   vertex -13.3085 63.9192 352.801
   vertex -12.5853 65.0507 352.867
  endloop
 endfacet
 facet normal -0.3377 0.440257 -0.831945
  outer loop
   vertex -8.58286 67.8383 352.145
   vertex -11.2869 67.9449 353.299
   vertex -9.60466 68.5512 352.937
  endloop
 endfacet
 facet normal -0.338992 0.274903 -0.899729
  outer loop
   vertex -12.0539 66.6158 353.145
   vertex -9.84633 64.5858 351.693
   vertex -12.5853 65.0507 352.867
  endloop
 endfacet
 facet normal -0.373701 0.342793 -0.861882
  outer loop
   vertex -7.68149 68.2226 351.907
   vertex -8.58286 67.8383 352.145
   vertex -8.51773 68.5932 352.417
  endloop
 endfacet
 facet normal -0.371412 0.252177 -0.893566
  outer loop
   vertex -11.2869 67.9449 353.299
   vertex -8.58286 67.8383 352.145
   vertex -8.55807 64.8842 351.301
  endloop
 endfacet
 facet normal -0.338687 0.283673 -0.897118
  outer loop
   vertex -8.55807 64.8842 351.301
   vertex -9.84633 64.5858 351.693
   vertex -11.2869 67.9449 353.299
  endloop
 endfacet
 facet normal -0.331529 0.304573 -0.89293
  outer loop
   vertex -7.68149 68.2226 351.907
   vertex -6.9069 68.796 351.815
   vertex -6.41818 67.5367 351.204
  endloop
 endfacet
 facet normal -0.366097 0.287357 -0.885098
  outer loop
   vertex -5.80484 68.8756 351.385
   vertex -6.41818 67.5367 351.204
   vertex -6.9069 68.796 351.815
  endloop
 endfacet
 facet normal -0.351877 0.270389 -0.896143
  outer loop
   vertex -7.68149 68.2226 351.907
   vertex -6.41818 67.5367 351.204
   vertex -8.58286 67.8383 352.145
  endloop
 endfacet
 facet normal -0.342121 0.255478 -0.904259
  outer loop
   vertex -8.58286 67.8383 352.145
   vertex -7.38435 65.1358 350.928
   vertex -8.55807 64.8842 351.301
  endloop
 endfacet
 facet normal -0.304284 0.0652262 -0.950345
  outer loop
   vertex -8.55807 64.8842 351.301
   vertex -8.995 64.4924 351.414
   vertex -9.84633 64.5858 351.693
  endloop
 endfacet
 facet normal -0.357102 0.247253 -0.900747
  outer loop
   vertex -8.58286 67.8383 352.145
   vertex -6.41818 67.5367 351.204
   vertex -7.38435 65.1358 350.928
  endloop
 endfacet
 facet normal -0.359836 0.284941 -0.88844
  outer loop
   vertex -4.68029 68.559 350.828
   vertex -6.41818 67.5367 351.204
   vertex -5.80484 68.8756 351.385
  endloop
 endfacet
 facet normal -0.295379 -0.037278 -0.954653
  outer loop
   vertex -7.38435 65.1358 350.928
   vertex -7.69866 64.7581 351.04
   vertex -8.55807 64.8842 351.301
  endloop
 endfacet
 facet normal -0.364555 0.370228 -0.854418
  outer loop
   vertex -4.13381 69.3348 350.931
   vertex -3.05783 68.8988 350.283
   vertex -4.68029 68.559 350.828
  endloop
 endfacet
 facet normal -0.33701 0.237854 -0.910961
  outer loop
   vertex -3.60488 65.9924 349.76
   vertex -6.41818 67.5367 351.204
   vertex -4.68029 68.559 350.828
  endloop
 endfacet
 facet normal -0.335855 0.239865 -0.91086
  outer loop
   vertex -7.38435 65.1358 350.928
   vertex -6.41818 67.5367 351.204
   vertex -3.60488 65.9924 349.76
  endloop
 endfacet
 facet normal -0.35087 0.284626 -0.89212
  outer loop
   vertex -0.536727 69.0722 349.249
   vertex 1.5734 70.4134 348.847
   vertex 2.5502 68.7841 347.943
  endloop
 endfacet
 facet normal -0.352799 0.229626 -0.907086
  outer loop
   vertex -3.05783 68.8988 350.283
   vertex -3.60488 65.9924 349.76
   vertex -4.68029 68.559 350.828
  endloop
 endfacet
 facet normal -0.372585 0.332158 -0.866517
  outer loop
   vertex -2.95688 69.5964 350.507
   vertex -1.44545 69.6848 349.891
   vertex -3.05783 68.8988 350.283
  endloop
 endfacet
 facet normal -0.405001 0.235215 -0.883543
  outer loop
   vertex -1.9878 68.3072 349.635
   vertex -3.60488 65.9924 349.76
   vertex -3.05783 68.8988 350.283
  endloop
 endfacet
 facet normal -0.363314 0.306516 -0.879802
  outer loop
   vertex -1.9878 68.3072 349.635
   vertex -3.05783 68.8988 350.283
   vertex -1.44545 69.6848 349.891
  endloop
 endfacet
 facet normal -0.545577 0.339762 -0.766099
  outer loop
   vertex -1.9878 68.3072 349.635
   vertex -2.78427 66.8298 349.547
   vertex -3.60488 65.9924 349.76
  endloop
 endfacet
 facet normal -0.457768 0.230141 -0.858769
  outer loop
   vertex -2.98796 66.0254 349.44
   vertex -3.60488 65.9924 349.76
   vertex -2.78427 66.8298 349.547
  endloop
 endfacet
 facet normal -0.395991 0.316097 -0.862133
  outer loop
   vertex -0.536727 69.0722 349.249
   vertex -1.9878 68.3072 349.635
   vertex -1.44545 69.6848 349.891
  endloop
 endfacet
 facet normal -0.376141 0.265546 -0.887696
  outer loop
   vertex -0.922999 66.8235 348.74
   vertex -1.9878 68.3072 349.635
   vertex -0.536727 69.0722 349.249
  endloop
 endfacet
 facet normal -0.383428 0.259511 -0.886361
  outer loop
   vertex -0.922999 66.8235 348.74
   vertex -2.78427 66.8298 349.547
   vertex -1.9878 68.3072 349.635
  endloop
 endfacet
 facet normal -0.432205 0.225575 -0.873107
  outer loop
   vertex -2.38938 66.3556 349.229
   vertex -2.98796 66.0254 349.44
   vertex -2.78427 66.8298 349.547
  endloop
 endfacet
 facet normal -0.327433 0.261752 -0.907895
  outer loop
   vertex -0.122505 66.8052 348.446
   vertex -0.922999 66.8235 348.74
   vertex -0.536727 69.0722 349.249
  endloop
 endfacet
 facet normal -0.338828 0.562781 -0.753971
  outer loop
   vertex 1.5734 70.4134 348.847
   vertex 1.77936 70.6888 348.96
   vertex 2.36553 70.538 348.584
  endloop
 endfacet
 facet normal -0.281068 0.282176 -0.917266
  outer loop
   vertex -75.0123 66.2923 377.078
   vertex -75.9453 64.7616 376.893
   vertex -75.8716 66.4668 377.395
  endloop
 endfacet
 facet normal -0.298568 0.217718 -0.929223
  outer loop
   vertex -74.9824 66.8625 377.202
   vertex -75.0123 66.2923 377.078
   vertex -75.8716 66.4668 377.395
  endloop
 endfacet
 facet normal -0.372731 0.215796 -0.902499
  outer loop
   vertex -74.2477 66.8811 376.903
   vertex -75.0123 66.2923 377.078
   vertex -74.9824 66.8625 377.202
  endloop
 endfacet
 facet normal -0.416392 0.284028 -0.863682
  outer loop
   vertex -74.0377 65.8266 376.455
   vertex -75.0123 66.2923 377.078
   vertex -74.2477 66.8811 376.903
  endloop
 endfacet
 facet normal -0.38629 0.339122 -0.857774
  outer loop
   vertex -75.0123 66.2923 377.078
   vertex -74.0377 65.8266 376.455
   vertex -75.9453 64.7616 376.893
  endloop
 endfacet
 facet normal -0.336883 0.0744109 -0.938602
  outer loop
   vertex -73.7286 67.5533 376.77
   vertex -72.8806 67.6085 376.47
   vertex -74.2477 66.8811 376.903
  endloop
 endfacet
 facet normal -0.422738 0.281768 -0.861336
  outer loop
   vertex -74.0377 65.8266 376.455
   vertex -74.2477 66.8811 376.903
   vertex -72.8806 67.6085 376.47
  endloop
 endfacet
 facet normal -0.416316 0.412429 -0.810298
  outer loop
   vertex -74.6405 64.668 376.175
   vertex -75.9453 64.7616 376.893
   vertex -74.0377 65.8266 376.455
  endloop
 endfacet
 facet normal -0.405871 0.408722 -0.817445
  outer loop
   vertex -74.0377 65.8266 376.455
   vertex -73.5514 64.3095 375.455
   vertex -74.6405 64.668 376.175
  endloop
 endfacet
 facet normal -0.23649 0.566482 -0.789412
  outer loop
   vertex -71.1333 67.3764 375.78
   vertex -72.8806 67.6085 376.47
   vertex -72.0802 67.5371 376.179
  endloop
 endfacet
 facet normal -0.310848 0.320246 -0.894883
  outer loop
   vertex -72.2191 65.7245 375.566
   vertex -72.8806 67.6085 376.47
   vertex -71.1333 67.3764 375.78
  endloop
 endfacet
 facet normal -0.409974 0.273554 -0.870109
  outer loop
   vertex -72.8806 67.6085 376.47
   vertex -72.2191 65.7245 375.566
   vertex -74.0377 65.8266 376.455
  endloop
 endfacet
 facet normal -0.379034 0.421517 -0.823806
  outer loop
   vertex -74.0377 65.8266 376.455
   vertex -72.2191 65.7245 375.566
   vertex -73.5514 64.3095 375.455
  endloop
 endfacet
 facet normal -0.336367 0.335103 -0.880093
  outer loop
   vertex -72.2191 65.7245 375.566
   vertex -71.1333 67.3764 375.78
   vertex -70.0676 67.4219 375.39
  endloop
 endfacet
 facet normal -0.382334 0.424388 -0.820802
  outer loop
   vertex -73.5514 64.3095 375.455
   vertex -72.2191 65.7245 375.566
   vertex -72.427 64.3961 374.976
  endloop
 endfacet
 facet normal -0.386043 0.4033 -0.82965
  outer loop
   vertex -71.3725 63.9264 374.298
   vertex -72.2191 65.7245 375.566
   vertex -70.0676 67.4219 375.39
  endloop
 endfacet
 facet normal -0.347675 0.425496 -0.835509
  outer loop
   vertex -71.3725 63.9264 374.298
   vertex -72.427 64.3961 374.976
   vertex -72.2191 65.7245 375.566
  endloop
 endfacet
 facet normal -0.329521 0.391427 -0.859186
  outer loop
   vertex -71.3725 63.9264 374.298
   vertex -70.0676 67.4219 375.39
   vertex -68.5588 67.5111 374.852
  endloop
 endfacet
 facet normal -0.335848 0.39571 -0.854763
  outer loop
   vertex -68.5588 67.5111 374.852
   vertex -69.5843 63.6469 373.466
   vertex -71.3725 63.9264 374.298
  endloop
 endfacet
 facet normal -0.47366 0.288739 -0.832031
  outer loop
   vertex -66.4522 63.7917 372.362
   vertex -68.5588 67.5111 374.852
   vertex -67.6381 66.9467 374.132
  endloop
 endfacet
 facet normal -0.337119 0.361067 -0.869472
  outer loop
   vertex -66.5227 67.2176 373.812
   vertex -66.4522 63.7917 372.362
   vertex -67.6381 66.9467 374.132
  endloop
 endfacet
 facet normal -0.365446 0.356428 -0.859888
  outer loop
   vertex -65.3573 66.9601 373.21
   vertex -66.4522 63.7917 372.362
   vertex -66.5227 67.2176 373.812
  endloop
 endfacet
 facet normal -0.312231 0.344818 -0.885219
  outer loop
   vertex -66.4522 63.7917 372.362
   vertex -65.3573 66.9601 373.21
   vertex -64.1016 67.1678 372.848
  endloop
 endfacet
 facet normal -0.297583 0.408972 -0.862662
  outer loop
   vertex -68.5588 67.5111 374.852
   vertex -66.4522 63.7917 372.362
   vertex -67.9638 63.7739 372.875
  endloop
 endfacet
 facet normal -0.341825 0.39634 -0.852098
  outer loop
   vertex -68.5588 67.5111 374.852
   vertex -67.9638 63.7739 372.875
   vertex -69.5843 63.6469 373.466
  endloop
 endfacet
 facet normal -0.343899 0.368092 -0.863853
  outer loop
   vertex -68.8956 63.2835 373.037
   vertex -69.5843 63.6469 373.466
   vertex -67.9638 63.7739 372.875
  endloop
 endfacet
 facet normal -0.183863 0.783422 -0.59367
  outer loop
   vertex -63.4763 67.235 372.743
   vertex -64.1016 67.1678 372.848
   vertex -63.9749 67.2862 372.965
  endloop
 endfacet
 facet normal -0.182682 0.793936 -0.579908
  outer loop
   vertex -63.1769 67.1629 372.55
   vertex -64.1016 67.1678 372.848
   vertex -63.4763 67.235 372.743
  endloop
 endfacet
 facet normal -0.287978 0.329917 -0.899013
  outer loop
   vertex -64.1016 67.1678 372.848
   vertex -63.1769 67.1629 372.55
   vertex -66.4522 63.7917 372.362
  endloop
 endfacet
 facet normal -0.284708 0.326861 -0.901168
  outer loop
   vertex -66.4522 63.7917 372.362
   vertex -63.1769 67.1629 372.55
   vertex -63.6406 64.206 371.624
  endloop
 endfacet
 facet normal -0.346055 0.329381 -0.878495
  outer loop
   vertex -62.4541 65.77 371.743
   vertex -63.6406 64.206 371.624
   vertex -63.1769 67.1629 372.55
  endloop
 endfacet
 facet normal -0.282246 0.282048 -0.916944
  outer loop
   vertex -63.6406 64.206 371.624
   vertex -65.6474 63.0918 371.899
   vertex -66.4522 63.7917 372.362
  endloop
 endfacet
 facet normal -0.257992 0.269107 -0.927912
  outer loop
   vertex -63.6406 64.206 371.624
   vertex -62.598 62.4816 370.834
   vertex -64.1116 62.7511 371.333
  endloop
 endfacet
 facet normal -0.278389 0.274225 -0.920489
  outer loop
   vertex -63.6406 64.206 371.624
   vertex -64.1116 62.7511 371.333
   vertex -65.6474 63.0918 371.899
  endloop
 endfacet
 facet normal -0.259975 0.267825 -0.92773
  outer loop
   vertex -62.4541 65.77 371.743
   vertex -62.598 62.4816 370.834
   vertex -63.6406 64.206 371.624
  endloop
 endfacet
endsolid
