solid ascii
 facet normal -0.611557 -0.416121 0.672935
  outer loop
   vertex 2.43429 37.1369 461.079
   vertex 2.78439 35.6456 460.475
   vertex 3.09822 36.9034 461.538
  endloop
 endfacet
 facet normal -0.613449 -0.116787 0.781051
  outer loop
   vertex 1.549 37.7471 460.55
   vertex 2.01846 37.5552 460.89
   vertex 1.77343 38.0463 460.771
  endloop
 endfacet
 facet normal -0.647897 -0.390877 0.653793
  outer loop
   vertex 3.09822 36.9034 461.538
   vertex 2.78439 35.6456 460.475
   vertex 3.49767 35.7847 461.265
  endloop
 endfacet
 facet normal -0.683931 -0.406045 0.606108
  outer loop
   vertex 2.78439 35.6456 460.475
   vertex 2.43429 37.1369 461.079
   vertex 2.01846 37.5552 460.89
  endloop
 endfacet
 facet normal -0.61687 -0.460777 0.638088
  outer loop
   vertex 2.78439 35.6456 460.475
   vertex 3.26185 35.0618 460.515
   vertex 3.49767 35.7847 461.265
  endloop
 endfacet
 facet normal -0.677654 -0.405176 0.613692
  outer loop
   vertex 2.01846 37.5552 460.89
   vertex 1.89463 36.2522 459.893
   vertex 2.78439 35.6456 460.475
  endloop
 endfacet
 facet normal -0.640279 -0.482701 0.59753
  outer loop
   vertex 2.78439 35.6456 460.475
   vertex 2.73409 34.8037 459.741
   vertex 3.26185 35.0618 460.515
  endloop
 endfacet
 facet normal -0.638322 -0.428596 0.639415
  outer loop
   vertex 1.89463 36.2522 459.893
   vertex 2.01846 37.5552 460.89
   vertex 1.549 37.7471 460.55
  endloop
 endfacet
 facet normal -0.68497 -0.455107 0.568941
  outer loop
   vertex 2.73409 34.8037 459.741
   vertex 2.78439 35.6456 460.475
   vertex 2.10114 35.4113 459.465
  endloop
 endfacet
 facet normal -0.683741 -0.45734 0.568628
  outer loop
   vertex 1.89463 36.2522 459.893
   vertex 2.10114 35.4113 459.465
   vertex 2.78439 35.6456 460.475
  endloop
 endfacet
 facet normal -0.578041 -0.569788 0.584132
  outer loop
   vertex 3.26185 35.0618 460.515
   vertex 2.73409 34.8037 459.741
   vertex 3.27825 34.4731 459.957
  endloop
 endfacet
 facet normal -0.658541 -0.267118 0.703542
  outer loop
   vertex 0.329315 39.1211 459.93
   vertex -0.138153 38.5985 459.294
   vertex 1.549 37.7471 460.55
  endloop
 endfacet
 facet normal -0.409003 -0.534354 0.739718
  outer loop
   vertex 0.0374718 39.051 459.718
   vertex -0.138153 38.5985 459.294
   vertex 0.329315 39.1211 459.93
  endloop
 endfacet
 facet normal -0.690963 -0.333005 0.641621
  outer loop
   vertex -0.138153 38.5985 459.294
   vertex 0.0374718 39.051 459.718
   vertex -0.248149 39.2949 459.537
  endloop
 endfacet
 facet normal -0.668683 -0.423267 0.611317
  outer loop
   vertex 1.89463 36.2522 459.893
   vertex 1.549 37.7471 460.55
   vertex -0.138153 38.5985 459.294
  endloop
 endfacet
 facet normal -0.634272 -0.174783 0.753094
  outer loop
   vertex -0.248149 39.2949 459.537
   vertex -0.485673 39.6915 459.429
   vertex -0.735609 39.4223 459.156
  endloop
 endfacet
 facet normal -0.701472 -0.500067 0.507809
  outer loop
   vertex 2.10114 35.4113 459.465
   vertex 2.1349 34.7963 458.906
   vertex 2.73409 34.8037 459.741
  endloop
 endfacet
 facet normal -0.667814 -0.565281 0.484233
  outer loop
   vertex 2.1349 34.7963 458.906
   vertex 2.89143 34.2803 459.347
   vertex 2.73409 34.8037 459.741
  endloop
 endfacet
 facet normal -0.711596 -0.487298 0.506134
  outer loop
   vertex 1.89463 36.2522 459.893
   vertex -0.138153 38.5985 459.294
   vertex 1.54953 35.1161 458.314
  endloop
 endfacet
 facet normal -0.632503 -0.342328 0.694804
  outer loop
   vertex -0.735609 39.4223 459.156
   vertex -0.138153 38.5985 459.294
   vertex -0.248149 39.2949 459.537
  endloop
 endfacet
 facet normal -0.582951 -0.281616 0.762142
  outer loop
   vertex -2.02789 40.3955 458.338
   vertex -2.21792 40.9296 458.39
   vertex -2.57679 40.9688 458.13
  endloop
 endfacet
 facet normal -0.559431 -0.464341 0.686603
  outer loop
   vertex 1.54953 35.1161 458.314
   vertex -0.138153 38.5985 459.294
   vertex 1.21483 35.3434 458.195
  endloop
 endfacet
 facet normal -0.662731 -0.456273 0.593803
  outer loop
   vertex -0.691124 36.7598 457.264
   vertex 0.167279 36.2743 457.849
   vertex -0.138153 38.5985 459.294
  endloop
 endfacet
 facet normal -0.64544 -0.471231 0.601123
  outer loop
   vertex 0.902889 35.5321 458.008
   vertex 1.21483 35.3434 458.195
   vertex -0.138153 38.5985 459.294
  endloop
 endfacet
 facet normal -0.654159 -0.470463 0.592233
  outer loop
   vertex 0.902889 35.5321 458.008
   vertex -0.138153 38.5985 459.294
   vertex 0.630447 35.7498 457.88
  endloop
 endfacet
 facet normal -0.659138 -0.307165 0.686431
  outer loop
   vertex -2.73547 41.2512 458.104
   vertex -3.15165 41.3085 457.73
   vertex -2.57679 40.9688 458.13
  endloop
 endfacet
 facet normal -0.689129 -0.398389 0.6053
  outer loop
   vertex -0.138153 38.5985 459.294
   vertex -0.735609 39.4223 459.156
   vertex -1.76082 38.1858 457.175
  endloop
 endfacet
 facet normal -0.68169 -0.407898 0.607386
  outer loop
   vertex -3.06248 39.6524 456.699
   vertex -1.76082 38.1858 457.175
   vertex -0.735609 39.4223 459.156
  endloop
 endfacet
 facet normal -0.588474 -0.481257 0.649684
  outer loop
   vertex 0.167279 36.2743 457.849
   vertex 0.630447 35.7498 457.88
   vertex -0.138153 38.5985 459.294
  endloop
 endfacet
 facet normal -0.685079 -0.395501 0.611756
  outer loop
   vertex -2.02789 40.3955 458.338
   vertex -3.06248 39.6524 456.699
   vertex -0.735609 39.4223 459.156
  endloop
 endfacet
 facet normal -0.721605 -0.618885 0.31027
  outer loop
   vertex 0.167279 36.2743 457.849
   vertex 0.359319 35.9426 457.634
   vertex 0.630447 35.7498 457.88
  endloop
 endfacet
 facet normal -0.669922 -0.419048 0.612864
  outer loop
   vertex -2.57679 40.9688 458.13
   vertex -3.06248 39.6524 456.699
   vertex -2.02789 40.3955 458.338
  endloop
 endfacet
 facet normal -0.615033 -0.647623 0.449799
  outer loop
   vertex -0.195915 36.3282 457.43
   vertex 0.359319 35.9426 457.634
   vertex 0.167279 36.2743 457.849
  endloop
 endfacet
 facet normal -0.658536 -0.563968 0.498268
  outer loop
   vertex -0.691124 36.7598 457.264
   vertex -0.195915 36.3282 457.43
   vertex 0.167279 36.2743 457.849
  endloop
 endfacet
 facet normal -0.672918 -0.430136 0.601801
  outer loop
   vertex -2.57679 40.9688 458.13
   vertex -3.15165 41.3085 457.73
   vertex -3.48394 40.7622 456.968
  endloop
 endfacet
 facet normal -0.732759 -0.236157 0.638197
  outer loop
   vertex -3.88368 41.7925 457.162
   vertex -3.57714 41.9007 457.554
   vertex -3.96478 42.3144 457.262
  endloop
 endfacet
 facet normal -0.682173 -0.692839 0.233695
  outer loop
   vertex -0.691124 36.7598 457.264
   vertex -0.668037 36.6271 456.938
   vertex -0.195915 36.3282 457.43
  endloop
 endfacet
 facet normal -0.771905 -0.278735 0.571376
  outer loop
   vertex -0.668037 36.6271 456.938
   vertex -0.401393 36.4258 457.2
   vertex -0.195915 36.3282 457.43
  endloop
 endfacet
 facet normal -0.660368 -0.458228 0.59493
  outer loop
   vertex -1.76082 38.1858 457.175
   vertex -0.691124 36.7598 457.264
   vertex -0.138153 38.5985 459.294
  endloop
 endfacet
 facet normal -0.627057 -0.239478 0.741249
  outer loop
   vertex -3.88368 41.7925 457.162
   vertex -3.96478 42.3144 457.262
   vertex -4.3109 42.3169 456.97
  endloop
 endfacet
 facet normal -0.737129 -0.401547 0.543507
  outer loop
   vertex -4.3109 42.3169 456.97
   vertex -4.67487 42.5966 456.683
   vertex -3.88368 41.7925 457.162
  endloop
 endfacet
 facet normal -0.710807 -0.457457 0.534309
  outer loop
   vertex -1.76082 38.1858 457.175
   vertex -3.06248 39.6524 456.699
   vertex -3.04774 38.3073 455.567
  endloop
 endfacet
 facet normal -0.683711 -0.406531 0.60603
  outer loop
   vertex -2.57679 40.9688 458.13
   vertex -3.48394 40.7622 456.968
   vertex -3.06248 39.6524 456.699
  endloop
 endfacet
 facet normal -0.574841 -0.771299 0.273231
  outer loop
   vertex -1.00655 36.8507 456.857
   vertex -0.668037 36.6271 456.938
   vertex -0.691124 36.7598 457.264
  endloop
 endfacet
 facet normal -0.660391 -0.0950706 0.744879
  outer loop
   vertex -4.28754 42.5855 457.025
   vertex -4.67487 42.5966 456.683
   vertex -4.3109 42.3169 456.97
  endloop
 endfacet
 facet normal -0.670347 -0.341547 0.658772
  outer loop
   vertex -5.32272 42.5565 456.003
   vertex -4.67487 42.5966 456.683
   vertex -5.02054 42.9201 456.499
  endloop
 endfacet
 facet normal -0.706138 -0.460446 0.537921
  outer loop
   vertex -3.06248 39.6524 456.699
   vertex -3.57682 38.593 455.117
   vertex -3.04774 38.3073 455.567
  endloop
 endfacet
 facet normal -0.673526 -0.32768 0.662562
  outer loop
   vertex -5.32272 42.5565 456.003
   vertex -5.36399 43.1873 456.273
   vertex -5.82108 43.3787 455.903
  endloop
 endfacet
 facet normal -0.683074 -0.324721 0.654191
  outer loop
   vertex -5.36399 43.1873 456.273
   vertex -5.32272 42.5565 456.003
   vertex -5.02054 42.9201 456.499
  endloop
 endfacet
 facet normal -0.714575 -0.338397 0.612267
  outer loop
   vertex -4.67487 42.5966 456.683
   vertex -5.64418 41.7811 455.101
   vertex -3.88368 41.7925 457.162
  endloop
 endfacet
 facet normal -0.703954 -0.397462 0.588619
  outer loop
   vertex -3.06248 39.6524 456.699
   vertex -3.88368 41.7925 457.162
   vertex -4.59301 39.3657 454.675
  endloop
 endfacet
 facet normal -0.626492 -0.46656 0.624364
  outer loop
   vertex -5.64418 41.7811 455.101
   vertex -4.67487 42.5966 456.683
   vertex -5.32272 42.5565 456.003
  endloop
 endfacet
 facet normal -0.693521 -0.406702 0.594661
  outer loop
   vertex -5.64418 41.7811 455.101
   vertex -4.59301 39.3657 454.675
   vertex -3.88368 41.7925 457.162
  endloop
 endfacet
 facet normal -0.619425 -0.266978 0.738265
  outer loop
   vertex -5.82108 43.3787 455.903
   vertex -6.19439 43.9655 455.802
   vertex -6.45268 43.9094 455.565
  endloop
 endfacet
 facet normal -0.641952 -0.524086 0.559671
  outer loop
   vertex -4.59301 39.3657 454.675
   vertex -3.57682 38.593 455.117
   vertex -3.06248 39.6524 456.699
  endloop
 endfacet
 facet normal -0.667829 -0.391679 0.632924
  outer loop
   vertex -6.45268 43.9094 455.565
   vertex -5.64418 41.7811 455.101
   vertex -5.82108 43.3787 455.903
  endloop
 endfacet
 facet normal -0.727253 -0.370559 0.577745
  outer loop
   vertex -5.82108 43.3787 455.903
   vertex -5.64418 41.7811 455.101
   vertex -5.32272 42.5565 456.003
  endloop
 endfacet
 facet normal -0.734823 -0.321189 0.597388
  outer loop
   vertex -6.81843 44.3816 455.369
   vertex -7.48814 44.0018 454.341
   vertex -6.45268 43.9094 455.565
  endloop
 endfacet
 facet normal -0.726688 -0.398108 0.559852
  outer loop
   vertex -6.45268 43.9094 455.565
   vertex -6.38909 42.3758 454.557
   vertex -5.64418 41.7811 455.101
  endloop
 endfacet
 facet normal -0.633086 -0.494837 0.595264
  outer loop
   vertex -7.48814 44.0018 454.341
   vertex -6.81843 44.3816 455.369
   vertex -7.28264 44.6038 455.06
  endloop
 endfacet
 facet normal -0.70662 -0.409321 0.577187
  outer loop
   vertex -5.22974 39.5977 454.06
   vertex -4.59301 39.3657 454.675
   vertex -5.64418 41.7811 455.101
  endloop
 endfacet
 facet normal -0.735969 -0.400604 0.545771
  outer loop
   vertex -7.28264 44.6038 455.06
   vertex -7.71327 45.0121 454.779
   vertex -7.48814 44.0018 454.341
  endloop
 endfacet
 facet normal -0.597431 -0.522301 0.608505
  outer loop
   vertex -8.19033 45.1547 454.433
   vertex -8.21598 44.8846 454.176
   vertex -7.71327 45.0121 454.779
  endloop
 endfacet
 facet normal -0.65177 -0.41923 0.632014
  outer loop
   vertex -8.21598 44.8846 454.176
   vertex -7.48814 44.0018 454.341
   vertex -7.71327 45.0121 454.779
  endloop
 endfacet
 facet normal -0.733124 -0.46044 0.500523
  outer loop
   vertex -6.95551 41.4362 452.863
   vertex -5.64418 41.7811 455.101
   vertex -6.38909 42.3758 454.557
  endloop
 endfacet
 facet normal -0.583026 -0.676973 0.449208
  outer loop
   vertex -4.61181 39.1543 454.332
   vertex -4.59301 39.3657 454.675
   vertex -4.90482 39.3476 454.243
  endloop
 endfacet
 facet normal -0.767576 -0.388692 0.509653
  outer loop
   vertex -6.95551 41.4362 452.863
   vertex -5.22974 39.5977 454.06
   vertex -5.64418 41.7811 455.101
  endloop
 endfacet
 facet normal -0.685704 -0.512924 0.516449
  outer loop
   vertex -5.22974 39.5977 454.06
   vertex -4.90482 39.3476 454.243
   vertex -4.59301 39.3657 454.675
  endloop
 endfacet
 facet normal -0.71268 -0.405693 0.572276
  outer loop
   vertex -7.48814 44.0018 454.341
   vertex -6.38909 42.3758 454.557
   vertex -6.45268 43.9094 455.565
  endloop
 endfacet
 facet normal -0.417865 -0.855725 0.305162
  outer loop
   vertex -13.0075 49.959 453.517
   vertex -13.0338 50.153 454.025
   vertex -13.3162 50.2613 453.942
  endloop
 endfacet
 facet normal -0.740319 -0.42519 0.520712
  outer loop
   vertex -9.43015 46.4684 453.743
   vertex -8.21598 44.8846 454.176
   vertex -8.19033 45.1547 454.433
  endloop
 endfacet
 facet normal -0.40811 -0.8597 0.307185
  outer loop
   vertex -12.7456 49.9558 453.856
   vertex -13.0338 50.153 454.025
   vertex -13.0075 49.959 453.517
  endloop
 endfacet
 facet normal -0.769794 -0.402868 0.495091
  outer loop
   vertex -5.99189 40.2638 453.417
   vertex -5.594 39.8034 453.661
   vertex -5.22974 39.5977 454.06
  endloop
 endfacet
 facet normal -0.680929 -0.680415 0.270871
  outer loop
   vertex -5.594 39.8034 453.661
   vertex -5.31771 39.5675 453.763
   vertex -5.22974 39.5977 454.06
  endloop
 endfacet
 facet normal -0.522177 -0.826866 0.208864
  outer loop
   vertex -13.7658 50.4884 453.717
   vertex -13.0075 49.959 453.517
   vertex -13.3162 50.2613 453.942
  endloop
 endfacet
 facet normal -0.0903725 -0.665513 0.740895
  outer loop
   vertex -12.481 49.8297 453.775
   vertex -12.7456 49.9558 453.856
   vertex -12.466 49.5627 453.537
  endloop
 endfacet
 facet normal -0.547062 -0.726524 0.415795
  outer loop
   vertex -12.7456 49.9558 453.856
   vertex -13.0075 49.959 453.517
   vertex -12.466 49.5627 453.537
  endloop
 endfacet
 facet normal -0.769063 -0.394463 0.502932
  outer loop
   vertex -6.95551 41.4362 452.863
   vertex -5.99189 40.2638 453.417
   vertex -5.22974 39.5977 454.06
  endloop
 endfacet
 facet normal -0.789865 -0.58493 0.184311
  outer loop
   vertex -5.594 39.8034 453.661
   vertex -5.99189 40.2638 453.417
   vertex -5.76759 39.9105 453.257
  endloop
 endfacet
 facet normal -0.752339 -0.443614 0.487024
  outer loop
   vertex -10.4409 46.2646 451.996
   vertex -8.21598 44.8846 454.176
   vertex -9.43015 46.4684 453.743
  endloop
 endfacet
 facet normal -0.591857 -0.492095 0.638395
  outer loop
   vertex -10.164 46.7809 453.181
   vertex -10.2208 47.0944 453.37
   vertex -10.7574 47.5465 453.221
  endloop
 endfacet
 facet normal -0.629309 -0.481688 0.609875
  outer loop
   vertex -10.2208 47.0944 453.37
   vertex -10.164 46.7809 453.181
   vertex -9.81706 46.767 453.528
  endloop
 endfacet
 facet normal -0.658769 -0.390648 0.642976
  outer loop
   vertex -9.43015 46.4684 453.743
   vertex -9.81706 46.767 453.528
   vertex -10.164 46.7809 453.181
  endloop
 endfacet
 facet normal -0.450631 -0.581574 0.677276
  outer loop
   vertex -13.0075 49.959 453.517
   vertex -11.5536 48.3317 453.087
   vertex -12.466 49.5627 453.537
  endloop
 endfacet
 facet normal -0.532125 -0.570361 0.625724
  outer loop
   vertex -11.5536 48.3317 453.087
   vertex -11.7537 48.8497 453.389
   vertex -12.0816 49.273 453.496
  endloop
 endfacet
 facet normal -0.624876 -0.770588 0.125395
  outer loop
   vertex -14.3538 50.8583 453.06
   vertex -13.4408 50.0496 452.64
   vertex -13.7658 50.4884 453.717
  endloop
 endfacet
 facet normal -0.531567 -0.828302 0.177067
  outer loop
   vertex -13.4408 50.0496 452.64
   vertex -13.0075 49.959 453.517
   vertex -13.7658 50.4884 453.717
  endloop
 endfacet
 facet normal -0.305543 -0.518415 0.798679
  outer loop
   vertex -11.5536 48.3317 453.087
   vertex -12.0816 49.273 453.496
   vertex -12.466 49.5627 453.537
  endloop
 endfacet
 facet normal -0.612546 -0.662173 0.431642
  outer loop
   vertex -10.4409 46.2646 451.996
   vertex -9.43015 46.4684 453.743
   vertex -10.164 46.7809 453.181
  endloop
 endfacet
 facet normal -0.682543 -0.68035 0.266945
  outer loop
   vertex -13.4408 50.0496 452.64
   vertex -11.5536 48.3317 453.087
   vertex -13.0075 49.959 453.517
  endloop
 endfacet
 facet normal -0.663737 -0.595886 0.452076
  outer loop
   vertex -11.5536 48.3317 453.087
   vertex -10.4409 46.2646 451.996
   vertex -10.7574 47.5465 453.221
  endloop
 endfacet
 facet normal -0.708722 -0.570968 0.414377
  outer loop
   vertex -10.7574 47.5465 453.221
   vertex -10.4409 46.2646 451.996
   vertex -10.164 46.7809 453.181
  endloop
 endfacet
 facet normal -0.625595 -0.770336 0.123344
  outer loop
   vertex -14.4828 50.8513 452.362
   vertex -13.4408 50.0496 452.64
   vertex -14.3538 50.8583 453.06
  endloop
 endfacet
 facet normal -0.739787 -0.521906 0.424652
  outer loop
   vertex -9.70251 44.6972 451.356
   vertex -8.21598 44.8846 454.176
   vertex -10.4409 46.2646 451.996
  endloop
 endfacet
 facet normal -0.749012 -0.475326 0.461569
  outer loop
   vertex -8.21598 44.8846 454.176
   vertex -7.66526 42.1543 452.258
   vertex -6.38909 42.3758 454.557
  endloop
 endfacet
 facet normal -0.792121 -0.381486 0.476457
  outer loop
   vertex -7.66526 42.1543 452.258
   vertex -6.95551 41.4362 452.863
   vertex -6.38909 42.3758 454.557
  endloop
 endfacet
 facet normal -0.771166 -0.462718 0.437259
  outer loop
   vertex -9.70251 44.6972 451.356
   vertex -7.66526 42.1543 452.258
   vertex -8.21598 44.8846 454.176
  endloop
 endfacet
 facet normal -0.860941 -0.477365 0.175795
  outer loop
   vertex -9.70251 44.6972 451.356
   vertex -10.4409 46.2646 451.996
   vertex -10.1134 45.5561 451.676
  endloop
 endfacet
 facet normal -0.797272 -0.483149 0.361835
  outer loop
   vertex -7.66526 42.1543 452.258
   vertex -7.2275 41.1728 451.912
   vertex -6.95551 41.4362 452.863
  endloop
 endfacet
 facet normal -0.826578 -0.435168 0.356927
  outer loop
   vertex -7.2275 41.1728 451.912
   vertex -6.98474 41.0283 452.298
   vertex -6.95551 41.4362 452.863
  endloop
 endfacet
 facet normal -0.719172 -0.585003 0.374918
  outer loop
   vertex -11.9607 47.2229 450.576
   vertex -10.4409 46.2646 451.996
   vertex -11.5536 48.3317 453.087
  endloop
 endfacet
 facet normal -0.781966 -0.486248 0.389991
  outer loop
   vertex -7.81786 41.811 451.524
   vertex -7.2275 41.1728 451.912
   vertex -7.66526 42.1543 452.258
  endloop
 endfacet
 facet normal -0.772129 -0.61346 0.165779
  outer loop
   vertex -7.81786 41.811 451.524
   vertex -7.56486 41.485 451.496
   vertex -7.2275 41.1728 451.912
  endloop
 endfacet
 facet normal -0.614859 -0.77713 0.134227
  outer loop
   vertex -16.5611 52.4034 451.828
   vertex -15.323 51.3119 451.18
   vertex -14.4828 50.8513 452.362
  endloop
 endfacet
 facet normal -0.679628 -0.667383 0.304475
  outer loop
   vertex -13.4408 50.0496 452.64
   vertex -13.698 49.4967 450.854
   vertex -11.5536 48.3317 453.087
  endloop
 endfacet
 facet normal -0.630962 -0.719171 0.290998
  outer loop
   vertex -14.5363 49.898 449.89
   vertex -13.4408 50.0496 452.64
   vertex -14.4828 50.8513 452.362
  endloop
 endfacet
 facet normal -0.713304 -0.591052 0.376638
  outer loop
   vertex -13.698 49.4967 450.854
   vertex -11.9607 47.2229 450.576
   vertex -11.5536 48.3317 453.087
  endloop
 endfacet
 facet normal -0.673445 -0.673209 0.305388
  outer loop
   vertex -13.4408 50.0496 452.64
   vertex -14.5363 49.898 449.89
   vertex -13.698 49.4967 450.854
  endloop
 endfacet
 facet normal -0.721132 -0.641015 0.262809
  outer loop
   vertex -14.4828 50.8513 452.362
   vertex -15.323 51.3119 451.18
   vertex -14.5363 49.898 449.89
  endloop
 endfacet
 facet normal -0.760167 -0.513426 0.398171
  outer loop
   vertex -9.22538 42.696 449.978
   vertex -7.81786 41.811 451.524
   vertex -7.66526 42.1543 452.258
  endloop
 endfacet
 facet normal -0.632843 -0.769395 0.0868366
  outer loop
   vertex -15.7582 51.5991 450.553
   vertex -15.323 51.3119 451.18
   vertex -16.5611 52.4034 451.828
  endloop
 endfacet
 facet normal -0.73015 -0.531472 0.42944
  outer loop
   vertex -10.4409 46.2646 451.996
   vertex -10.564 45.3833 450.696
   vertex -10.1134 45.5561 451.676
  endloop
 endfacet
 facet normal -0.740683 -0.515064 0.43139
  outer loop
   vertex -10.564 45.3833 450.696
   vertex -9.70251 44.6972 451.356
   vertex -10.1134 45.5561 451.676
  endloop
 endfacet
 facet normal -0.735781 -0.394124 0.55072
  outer loop
   vertex -7.66526 42.1543 452.258
   vertex -9.70251 44.6972 451.356
   vertex -10.564 45.3833 450.696
  endloop
 endfacet
 facet normal -0.733106 -0.52869 0.427834
  outer loop
   vertex -11.9607 47.2229 450.576
   vertex -10.564 45.3833 450.696
   vertex -10.4409 46.2646 451.996
  endloop
 endfacet
 facet normal -0.665493 -0.746348 -0.00913882
  outer loop
   vertex -16.5611 52.4034 451.828
   vertex -17.5317 53.2743 451.383
   vertex -17.207 52.9969 450.393
  endloop
 endfacet
 facet normal -0.913019 -0.384989 -0.134836
  outer loop
   vertex -15.323 51.3119 451.18
   vertex -14.9938 50.7809 450.467
   vertex -14.5363 49.898 449.89
  endloop
 endfacet
 facet normal -0.682351 -0.69921 0.213315
  outer loop
   vertex -8.16276 41.938 450.837
   vertex -7.81786 41.811 451.524
   vertex -8.53782 42.2311 450.598
  endloop
 endfacet
 facet normal -0.673857 -0.737722 0.0410286
  outer loop
   vertex -16.5226 52.2743 450.139
   vertex -15.7582 51.5991 450.553
   vertex -16.5611 52.4034 451.828
  endloop
 endfacet
 facet normal -0.719085 -0.693955 0.0366523
  outer loop
   vertex -17.207 52.9969 450.393
   vertex -16.5226 52.2743 450.139
   vertex -16.5611 52.4034 451.828
  endloop
 endfacet
 facet normal -0.709257 -0.681552 0.180114
  outer loop
   vertex -15.7582 51.5991 450.553
   vertex -14.9938 50.7809 450.467
   vertex -15.323 51.3119 451.18
  endloop
 endfacet
 facet normal -0.655774 -0.73394 0.176896
  outer loop
   vertex -8.53782 42.2311 450.598
   vertex -7.81786 41.811 451.524
   vertex -9.22538 42.696 449.978
  endloop
 endfacet
 facet normal -0.699416 -0.677387 0.227956
  outer loop
   vertex -14.9938 50.7809 450.467
   vertex -15.7582 51.5991 450.553
   vertex -15.628 51.2476 449.908
  endloop
 endfacet
 facet normal -0.730767 -0.68202 -0.0287822
  outer loop
   vertex -17.1983 53.0199 449.627
   vertex -16.5226 52.2743 450.139
   vertex -17.207 52.9969 450.393
  endloop
 endfacet
 facet normal -0.710145 -0.66849 0.220942
  outer loop
   vertex -16.5226 52.2743 450.139
   vertex -15.628 51.2476 449.908
   vertex -15.7582 51.5991 450.553
  endloop
 endfacet
 facet normal -0.658549 -0.709716 0.250232
  outer loop
   vertex -7.66526 42.1543 452.258
   vertex -10.8918 43.819 448.488
   vertex -9.86726 43.0774 449.081
  endloop
 endfacet
 facet normal -0.762562 -0.469054 0.445519
  outer loop
   vertex -10.564 45.3833 450.696
   vertex -10.8918 43.819 448.488
   vertex -7.66526 42.1543 452.258
  endloop
 endfacet
 facet normal -0.618997 -0.641357 0.453324
  outer loop
   vertex -16.4222 49.1317 445.83
   vertex -15.628 51.2476 449.908
   vertex -16.5226 52.2743 450.139
  endloop
 endfacet
 facet normal -0.7312 -0.595894 0.332049
  outer loop
   vertex -15.628 51.2476 449.908
   vertex -14.5363 49.898 449.89
   vertex -14.9938 50.7809 450.467
  endloop
 endfacet
 facet normal -0.717282 -0.513888 0.47056
  outer loop
   vertex -11.9607 47.2229 450.576
   vertex -10.8918 43.819 448.488
   vertex -10.564 45.3833 450.696
  endloop
 endfacet
 facet normal -0.72872 -0.50951 0.457566
  outer loop
   vertex -12.4022 46.8171 449.421
   vertex -10.8918 43.819 448.488
   vertex -11.9607 47.2229 450.576
  endloop
 endfacet
 facet normal -0.725321 -0.562778 0.396472
  outer loop
   vertex -13.698 49.4967 450.854
   vertex -14.5363 49.898 449.89
   vertex -12.4022 46.8171 449.421
  endloop
 endfacet
 facet normal -0.801124 -0.492292 0.340366
  outer loop
   vertex -16.5226 52.2743 450.139
   vertex -17.1983 53.0199 449.627
   vertex -16.4222 49.1317 445.83
  endloop
 endfacet
 facet normal -0.677288 -0.573786 0.460489
  outer loop
   vertex -13.698 49.4967 450.854
   vertex -12.4022 46.8171 449.421
   vertex -11.9607 47.2229 450.576
  endloop
 endfacet
 facet normal -0.698335 -0.570642 0.432084
  outer loop
   vertex -16.4222 49.1317 445.83
   vertex -14.5363 49.898 449.89
   vertex -15.628 51.2476 449.908
  endloop
 endfacet
 facet normal -0.933684 -0.327596 0.144621
  outer loop
   vertex -17.169 52.615 448.899
   vertex -16.4222 49.1317 445.83
   vertex -17.1983 53.0199 449.627
  endloop
 endfacet
 facet normal -0.708283 -0.556701 0.434073
  outer loop
   vertex -16.4222 49.1317 445.83
   vertex -12.4022 46.8171 449.421
   vertex -14.5363 49.898 449.89
  endloop
 endfacet
 facet normal -0.705458 -0.508909 0.493296
  outer loop
   vertex -11.5333 44.0433 447.802
   vertex -10.8918 43.819 448.488
   vertex -12.4022 46.8171 449.421
  endloop
 endfacet
 facet normal -0.997583 -0.0694756 -0.00150723
  outer loop
   vertex -17.1877 52.8773 449.185
   vertex -17.169 52.615 448.899
   vertex -17.1983 53.0199 449.627
  endloop
 endfacet
 facet normal -0.910388 -0.332868 0.245749
  outer loop
   vertex -17.276 52.7504 448.686
   vertex -17.169 52.615 448.899
   vertex -17.1877 52.8773 449.185
  endloop
 endfacet
 facet normal -0.717771 -0.540555 0.438868
  outer loop
   vertex -17.2697 52.1869 448.207
   vertex -16.4222 49.1317 445.83
   vertex -17.169 52.615 448.899
  endloop
 endfacet
 facet normal -0.745386 -0.276217 0.606716
  outer loop
   vertex -11.5333 44.0433 447.802
   vertex -11.3243 43.9252 448.005
   vertex -10.8918 43.819 448.488
  endloop
 endfacet
 facet normal -0.918897 -0.261418 0.295446
  outer loop
   vertex -17.276 52.7504 448.686
   vertex -17.2697 52.1869 448.207
   vertex -17.169 52.615 448.899
  endloop
 endfacet
 facet normal -0.755887 -0.519587 0.398327
  outer loop
   vertex -17.6716 51.8731 447.035
   vertex -16.4222 49.1317 445.83
   vertex -17.2697 52.1869 448.207
  endloop
 endfacet
 facet normal -0.726162 -0.501793 0.469993
  outer loop
   vertex -12.4022 46.8171 449.421
   vertex -11.8927 44.2974 447.518
   vertex -11.5333 44.0433 447.802
  endloop
 endfacet
 facet normal -0.785452 -0.46624 0.407044
  outer loop
   vertex -12.4022 46.8171 449.421
   vertex -12.1873 44.4183 447.088
   vertex -11.8927 44.2974 447.518
  endloop
 endfacet
 facet normal -0.721738 -0.514726 0.462766
  outer loop
   vertex -12.1873 44.4183 447.088
   vertex -12.4022 46.8171 449.421
   vertex -12.6572 44.6726 446.638
  endloop
 endfacet
 facet normal -0.696267 -0.536306 0.477061
  outer loop
   vertex -12.4022 46.8171 449.421
   vertex -13.2839 45.1144 446.22
   vertex -12.6572 44.6726 446.638
  endloop
 endfacet
 facet normal -0.653642 -0.726451 0.212183
  outer loop
   vertex -13.2839 45.1144 446.22
   vertex -12.8952 44.7556 446.189
   vertex -12.6572 44.6726 446.638
  endloop
 endfacet
 facet normal -0.70649 -0.528759 0.470409
  outer loop
   vertex -17.8337 51.0221 445.835
   vertex -16.4222 49.1317 445.83
   vertex -17.6716 51.8731 447.035
  endloop
 endfacet
 facet normal -0.800838 -0.408535 0.4379
  outer loop
   vertex -13.2839 45.1144 446.22
   vertex -12.4022 46.8171 449.421
   vertex -13.6599 45.0958 445.515
  endloop
 endfacet
 facet normal -0.717415 -0.510401 0.474139
  outer loop
   vertex -16.4222 49.1317 445.83
   vertex -14.592 45.6674 444.87
   vertex -12.4022 46.8171 449.421
  endloop
 endfacet
 facet normal -0.818027 -0.305665 0.487238
  outer loop
   vertex -18.5426 51.6377 445.031
   vertex -18.5021 51.2854 444.878
   vertex -17.8337 51.0221 445.835
  endloop
 endfacet
 facet normal -0.674285 -0.570727 0.468626
  outer loop
   vertex -14.592 45.6674 444.87
   vertex -13.6599 45.0958 445.515
   vertex -12.4022 46.8171 449.421
  endloop
 endfacet
 facet normal -0.74491 -0.557172 0.366973
  outer loop
   vertex -16.4222 49.1317 445.83
   vertex -17.8337 51.0221 445.835
   vertex -18.5021 51.2854 444.878
  endloop
 endfacet
 facet normal -0.755232 -0.512295 0.408875
  outer loop
   vertex -16.4222 49.1317 445.83
   vertex -14.8546 45.6012 444.302
   vertex -14.592 45.6674 444.87
  endloop
 endfacet
 facet normal -0.744217 -0.553365 0.37407
  outer loop
   vertex -16.4222 49.1317 445.83
   vertex -18.5021 51.2854 444.878
   vertex -19.2327 51.6285 443.932
  endloop
 endfacet
 facet normal -0.803269 -0.312559 0.507016
  outer loop
   vertex -18.5426 51.6377 445.031
   vertex -19.2327 51.6285 443.932
   vertex -18.5021 51.2854 444.878
  endloop
 endfacet
 facet normal -0.694535 -0.522458 0.49463
  outer loop
   vertex -16.4222 49.1317 445.83
   vertex -16.5549 46.7472 443.125
   vertex -14.8546 45.6012 444.302
  endloop
 endfacet
 facet normal -0.742644 -0.484556 0.462261
  outer loop
   vertex -18.6298 47.3493 440.415
   vertex -16.4222 49.1317 445.83
   vertex -19.2327 51.6285 443.932
  endloop
 endfacet
 facet normal -0.831715 -0.395612 0.389541
  outer loop
   vertex -16.4222 49.1317 445.83
   vertex -17.0563 46.5705 441.875
   vertex -16.5549 46.7472 443.125
  endloop
 endfacet
 facet normal -0.699541 -0.543406 0.46406
  outer loop
   vertex -18.6298 47.3493 440.415
   vertex -17.0563 46.5705 441.875
   vertex -16.4222 49.1317 445.83
  endloop
 endfacet
 facet normal -0.739913 -0.493011 0.457678
  outer loop
   vertex -16.5549 46.7472 443.125
   vertex -16.5793 46.393 442.704
   vertex -16.1634 46.2042 443.173
  endloop
 endfacet
 facet normal -0.827145 -0.405498 0.389106
  outer loop
   vertex -16.5793 46.393 442.704
   vertex -16.5549 46.7472 443.125
   vertex -17.0563 46.5705 441.875
  endloop
 endfacet
 facet normal -0.726961 -0.481227 0.489846
  outer loop
   vertex -20.8516 50.205 440.131
   vertex -19.2327 51.6285 443.932
   vertex -20.383 51.6571 442.253
  endloop
 endfacet
 facet normal -0.700472 -0.0874028 0.708308
  outer loop
   vertex -18.6298 47.3493 440.415
   vertex -17.712 46.8577 441.262
   vertex -17.0563 46.5705 441.875
  endloop
 endfacet
 facet normal -0.669643 -0.525599 0.524714
  outer loop
   vertex -19.661 47.7157 439.466
   vertex -18.6298 47.3493 440.415
   vertex -19.2327 51.6285 443.932
  endloop
 endfacet
 facet normal -0.733936 -0.474022 0.486457
  outer loop
   vertex -21.0446 51.92 441.511
   vertex -20.8516 50.205 440.131
   vertex -20.383 51.6571 442.253
  endloop
 endfacet
 facet normal -0.728395 -0.479203 0.489699
  outer loop
   vertex -19.661 47.7157 439.466
   vertex -19.2327 51.6285 443.932
   vertex -20.8516 50.205 440.131
  endloop
 endfacet
 facet normal -0.768949 -0.451076 0.453043
  outer loop
   vertex -21.439 52.1444 441.065
   vertex -20.8516 50.205 440.131
   vertex -21.0446 51.92 441.511
  endloop
 endfacet
 facet normal -0.710262 -0.46825 0.525613
  outer loop
   vertex -22.3491 52.2486 439.928
   vertex -20.8516 50.205 440.131
   vertex -21.439 52.1444 441.065
  endloop
 endfacet
 facet normal -0.701511 -0.476978 0.529504
  outer loop
   vertex -20.8516 50.205 440.131
   vertex -20.1163 47.7681 438.91
   vertex -19.661 47.7157 439.466
  endloop
 endfacet
 facet normal -0.610803 -0.683402 0.399852
  outer loop
   vertex -19.661 47.7157 439.466
   vertex -19.2706 47.3732 439.477
   vertex -18.6298 47.3493 440.415
  endloop
 endfacet
 facet normal -0.692386 -0.451454 0.562842
  outer loop
   vertex -22.3491 52.2486 439.928
   vertex -22.9697 52.1444 439.081
   vertex -20.8516 50.205 440.131
  endloop
 endfacet
 facet normal -0.676612 -0.482748 0.556013
  outer loop
   vertex -20.1163 47.7681 438.91
   vertex -20.8516 50.205 440.131
   vertex -21.2878 48.8883 438.457
  endloop
 endfacet
 facet normal -0.602272 -0.672718 0.42979
  outer loop
   vertex -20.1163 47.7681 438.91
   vertex -19.2706 47.3732 439.477
   vertex -19.661 47.7157 439.466
  endloop
 endfacet
 facet normal -0.696484 -0.464566 0.54689
  outer loop
   vertex -22.9697 52.1444 439.081
   vertex -21.2878 48.8883 438.457
   vertex -20.8516 50.205 440.131
  endloop
 endfacet
 facet normal -0.696917 -0.45284 0.556096
  outer loop
   vertex -23.8557 52.248 438.055
   vertex -23.3762 51.1613 437.771
   vertex -22.9697 52.1444 439.081
  endloop
 endfacet
 facet normal -0.703292 -0.55672 0.44209
  outer loop
   vertex -21.2878 48.8883 438.457
   vertex -20.4957 47.7733 438.313
   vertex -20.1163 47.7681 438.91
  endloop
 endfacet
 facet normal -0.691704 -0.463435 0.553872
  outer loop
   vertex -22.9697 52.1444 439.081
   vertex -22.9173 50.6858 437.926
   vertex -21.2878 48.8883 438.457
  endloop
 endfacet
 facet normal -0.678414 -0.470909 0.563914
  outer loop
   vertex -22.9173 50.6858 437.926
   vertex -22.9697 52.1444 439.081
   vertex -23.3762 51.1613 437.771
  endloop
 endfacet
 facet normal -0.71451 -0.504553 0.484666
  outer loop
   vertex -22.9173 50.6858 437.926
   vertex -22.3467 48.3706 436.357
   vertex -21.2878 48.8883 438.457
  endloop
 endfacet
 facet normal -0.667048 -0.540146 0.513117
  outer loop
   vertex -21.6032 48.2053 437.328
   vertex -20.4957 47.7733 438.313
   vertex -21.2878 48.8883 438.457
  endloop
 endfacet
 facet normal -0.659785 -0.566966 0.493188
  outer loop
   vertex -21.6032 48.2053 437.328
   vertex -21.0288 47.9083 437.755
   vertex -20.4957 47.7733 438.313
  endloop
 endfacet
 facet normal -0.706694 -0.453704 0.542896
  outer loop
   vertex -23.8557 52.248 438.055
   vertex -24.1292 51.5995 437.157
   vertex -23.3762 51.1613 437.771
  endloop
 endfacet
 facet normal -0.779631 -0.100922 0.618053
  outer loop
   vertex -24.83 52.3828 436.848
   vertex -23.8557 52.248 438.055
   vertex -23.6756 52.5593 438.333
  endloop
 endfacet
 facet normal -0.723427 -0.436067 0.535255
  outer loop
   vertex -23.8557 52.248 438.055
   vertex -24.83 52.3828 436.848
   vertex -24.1292 51.5995 437.157
  endloop
 endfacet
 facet normal -0.70336 -0.521266 0.483288
  outer loop
   vertex -23.3762 51.1613 437.771
   vertex -23.2108 48.5804 435.228
   vertex -22.9173 50.6858 437.926
  endloop
 endfacet
 facet normal -0.731225 -0.496915 0.467317
  outer loop
   vertex -23.2108 48.5804 435.228
   vertex -22.3467 48.3706 436.357
   vertex -22.9173 50.6858 437.926
  endloop
 endfacet
 facet normal -0.735378 -0.462542 0.495251
  outer loop
   vertex -24.83 52.3828 436.848
   vertex -25.0609 51.4747 435.657
   vertex -24.1292 51.5995 437.157
  endloop
 endfacet
 facet normal -0.732971 -0.500701 0.460491
  outer loop
   vertex -23.3762 51.1613 437.771
   vertex -25.9498 50.586 433.049
   vertex -23.2108 48.5804 435.228
  endloop
 endfacet
 facet normal -0.693325 -0.56542 0.446767
  outer loop
   vertex -24.1292 51.5995 437.157
   vertex -25.9498 50.586 433.049
   vertex -23.3762 51.1613 437.771
  endloop
 endfacet
 facet normal -0.666437 -0.524923 0.52945
  outer loop
   vertex -25.381 52.2553 436.028
   vertex -25.0609 51.4747 435.657
   vertex -24.83 52.3828 436.848
  endloop
 endfacet
 facet normal -0.609618 -0.663431 0.43385
  outer loop
   vertex -25.9498 50.586 433.049
   vertex -24.1292 51.5995 437.157
   vertex -25.0609 51.4747 435.657
  endloop
 endfacet
 facet normal -0.722254 -0.473098 0.504507
  outer loop
   vertex -26.2359 52.4847 434.922
   vertex -25.0609 51.4747 435.657
   vertex -25.7259 52.6488 435.806
  endloop
 endfacet
 facet normal -0.727981 -0.533935 0.430066
  outer loop
   vertex -26.2359 52.4847 434.922
   vertex -25.9498 50.586 433.049
   vertex -25.0609 51.4747 435.657
  endloop
 endfacet
 facet normal -0.783592 -0.345661 0.516238
  outer loop
   vertex -27.0467 52.8143 433.912
   vertex -26.2359 52.4847 434.922
   vertex -25.7259 52.6488 435.806
  endloop
 endfacet
 facet normal -0.738534 -0.526602 0.42102
  outer loop
   vertex -27.0467 52.8143 433.912
   vertex -25.9498 50.586 433.049
   vertex -26.2359 52.4847 434.922
  endloop
 endfacet
 facet normal -0.725786 -0.497434 0.475178
  outer loop
   vertex -25.2927 49.0856 432.482
   vertex -24.578 49.0592 433.546
   vertex -25.9498 50.586 433.049
  endloop
 endfacet
 facet normal -0.546453 -0.761691 0.34816
  outer loop
   vertex -24.4726 48.8716 433.301
   vertex -24.578 49.0592 433.546
   vertex -25.2927 49.0856 432.482
  endloop
 endfacet
 facet normal -0.687198 -0.530494 0.496322
  outer loop
   vertex -28.1926 52.7288 432.234
   vertex -25.9498 50.586 433.049
   vertex -27.0467 52.8143 433.912
  endloop
 endfacet
 facet normal -0.634925 -0.500484 0.588546
  outer loop
   vertex -25.7782 49.2535 432.101
   vertex -25.2927 49.0856 432.482
   vertex -25.9498 50.586 433.049
  endloop
 endfacet
 facet normal -0.740204 -0.162232 0.652518
  outer loop
   vertex -28.1926 52.7288 432.234
   vertex -28.3226 53.0886 432.176
   vertex -28.7602 52.9978 431.657
  endloop
 endfacet
 facet normal -0.710364 -0.46646 0.527066
  outer loop
   vertex -25.9498 50.586 433.049
   vertex -29.3724 51.7135 429.434
   vertex -25.7782 49.2535 432.101
  endloop
 endfacet
 facet normal -0.689712 -0.537268 0.485429
  outer loop
   vertex -28.1926 52.7288 432.234
   vertex -29.3724 51.7135 429.434
   vertex -25.9498 50.586 433.049
  endloop
 endfacet
 facet normal -0.739607 -0.400714 0.540749
  outer loop
   vertex -28.7602 52.9978 431.657
   vertex -28.8376 52.6211 431.272
   vertex -28.1926 52.7288 432.234
  endloop
 endfacet
 facet normal -0.735271 -0.404647 0.543726
  outer loop
   vertex -28.8376 52.6211 431.272
   vertex -28.7602 52.9978 431.657
   vertex -29.2244 53.0216 431.047
  endloop
 endfacet
 facet normal -0.620299 -0.616511 0.484916
  outer loop
   vertex -29.3724 51.7135 429.434
   vertex -28.1926 52.7288 432.234
   vertex -28.8376 52.6211 431.272
  endloop
 endfacet
 facet normal -0.708126 -0.416347 0.570274
  outer loop
   vertex -29.3724 51.7135 429.434
   vertex -26.4215 49.1409 431.22
   vertex -25.7782 49.2535 432.101
  endloop
 endfacet
 facet normal -0.634661 -0.212083 0.743119
  outer loop
   vertex -29.3724 51.7135 429.434
   vertex -27.5948 49.7928 430.404
   vertex -26.4215 49.1409 431.22
  endloop
 endfacet
 facet normal -0.744569 -0.434277 0.506972
  outer loop
   vertex -29.6563 52.9671 430.366
   vertex -28.8376 52.6211 431.272
   vertex -29.2244 53.0216 431.047
  endloop
 endfacet
 facet normal -0.726516 -0.508303 0.462389
  outer loop
   vertex -29.6563 52.9671 430.366
   vertex -29.3724 51.7135 429.434
   vertex -28.8376 52.6211 431.272
  endloop
 endfacet
 facet normal -0.732943 -0.400689 0.549766
  outer loop
   vertex -29.3724 51.7135 429.434
   vertex -28.2297 49.3434 429.23
   vertex -27.5948 49.7928 430.404
  endloop
 endfacet
 facet normal -0.732805 -0.505003 0.456035
  outer loop
   vertex -30.5018 53.1519 429.212
   vertex -29.3724 51.7135 429.434
   vertex -29.6563 52.9671 430.366
  endloop
 endfacet
 facet normal -0.729479 -0.500884 0.465807
  outer loop
   vertex -30.5018 53.1519 429.212
   vertex -29.973 51.8712 428.663
   vertex -29.3724 51.7135 429.434
  endloop
 endfacet
 facet normal -0.73616 -0.401799 0.544633
  outer loop
   vertex -29.8371 49.6696 427.298
   vertex -28.2297 49.3434 429.23
   vertex -29.3724 51.7135 429.434
  endloop
 endfacet
 facet normal -0.765719 -0.240754 0.596417
  outer loop
   vertex -28.7722 49.3421 428.533
   vertex -28.2297 49.3434 429.23
   vertex -29.8371 49.6696 427.298
  endloop
 endfacet
 facet normal -0.771884 -0.51871 0.367608
  outer loop
   vertex -30.542 52.8795 428.891
   vertex -31.3455 53.2453 427.72
   vertex -29.973 51.8712 428.663
  endloop
 endfacet
 facet normal -0.767816 -0.371162 0.522204
  outer loop
   vertex -29.973 51.8712 428.663
   vertex -29.8371 49.6696 427.298
   vertex -29.3724 51.7135 429.434
  endloop
 endfacet
 facet normal -0.595256 -0.738136 0.31753
  outer loop
   vertex -29.8371 49.6696 427.298
   vertex -28.9171 49.2899 428.14
   vertex -28.7722 49.3421 428.533
  endloop
 endfacet
 facet normal -0.732792 -0.390658 0.557137
  outer loop
   vertex -29.973 51.8712 428.663
   vertex -31.0683 50.9166 426.553
   vertex -29.8371 49.6696 427.298
  endloop
 endfacet
 facet normal -0.705906 -0.367128 0.605734
  outer loop
   vertex -29.2833 49.3324 427.739
   vertex -28.9171 49.2899 428.14
   vertex -29.8371 49.6696 427.298
  endloop
 endfacet
 facet normal -0.74755 -0.366562 0.553896
  outer loop
   vertex -31.3455 53.2453 427.72
   vertex -31.0683 50.9166 426.553
   vertex -29.973 51.8712 428.663
  endloop
 endfacet
 facet normal -0.808571 -0.337713 0.481833
  outer loop
   vertex -31.0683 50.9166 426.553
   vertex -31.3455 53.2453 427.72
   vertex -31.7874 50.4953 425.051
  endloop
 endfacet
 facet normal -0.683067 -0.622721 0.381625
  outer loop
   vertex -29.2833 49.3324 427.739
   vertex -29.8371 49.6696 427.298
   vertex -29.7533 49.3595 426.942
  endloop
 endfacet
 facet normal -0.749957 -0.451806 0.483153
  outer loop
   vertex -31.0683 50.9166 426.553
   vertex -30.5856 49.478 425.957
   vertex -29.8371 49.6696 427.298
  endloop
 endfacet
 facet normal -0.774643 -0.371926 0.511468
  outer loop
   vertex -31.3455 53.2453 427.72
   vertex -31.8573 53.262 426.957
   vertex -31.7874 50.4953 425.051
  endloop
 endfacet
 facet normal -0.592472 -0.671335 0.445294
  outer loop
   vertex -29.8371 49.6696 427.298
   vertex -30.1808 49.4509 426.511
   vertex -29.7533 49.3595 426.942
  endloop
 endfacet
 facet normal -0.662143 -0.595668 0.454693
  outer loop
   vertex -30.5856 49.478 425.957
   vertex -30.1808 49.4509 426.511
   vertex -29.8371 49.6696 427.298
  endloop
 endfacet
 facet normal -0.839535 0.08437 0.536714
  outer loop
   vertex -32.2717 53.4069 426.286
   vertex -32.3186 53.1565 426.252
   vertex -31.8573 53.262 426.957
  endloop
 endfacet
 facet normal -0.741225 -0.393415 0.543885
  outer loop
   vertex -32.3186 53.1565 426.252
   vertex -31.7874 50.4953 425.051
   vertex -31.8573 53.262 426.957
  endloop
 endfacet
 facet normal -0.819598 -0.232185 0.523784
  outer loop
   vertex -32.6583 53.354 425.808
   vertex -32.8112 52.9823 425.404
   vertex -32.3186 53.1565 426.252
  endloop
 endfacet
 facet normal -0.748467 -0.452134 0.485152
  outer loop
   vertex -31.0683 50.9166 426.553
   vertex -31.7874 50.4953 425.051
   vertex -30.5856 49.478 425.957
  endloop
 endfacet
 facet normal -0.760541 -0.387076 0.521297
  outer loop
   vertex -32.8112 52.9823 425.404
   vertex -31.7874 50.4953 425.051
   vertex -32.3186 53.1565 426.252
  endloop
 endfacet
 facet normal -0.768722 -0.38856 0.508023
  outer loop
   vertex -32.8112 52.9823 425.404
   vertex -33.4678 53.0863 424.49
   vertex -31.7874 50.4953 425.051
  endloop
 endfacet
 facet normal -0.749538 -0.473408 0.462686
  outer loop
   vertex -31.7874 50.4953 425.051
   vertex -31.055 49.6377 425.36
   vertex -30.5856 49.478 425.957
  endloop
 endfacet
 facet normal -0.812967 -0.113928 0.571056
  outer loop
   vertex -33.2612 53.4065 424.848
   vertex -33.4678 53.0863 424.49
   vertex -32.8112 52.9823 425.404
  endloop
 endfacet
 facet normal -0.778662 -0.400408 0.483073
  outer loop
   vertex -33.4678 53.0863 424.49
   vertex -33.4062 51.2787 423.091
   vertex -31.7874 50.4953 425.051
  endloop
 endfacet
 facet normal -0.78514 -0.395567 0.476532
  outer loop
   vertex -33.4062 51.2787 423.091
   vertex -33.4678 53.0863 424.49
   vertex -34.3706 53.2712 423.156
  endloop
 endfacet
 facet normal -0.753319 -0.506187 0.419862
  outer loop
   vertex -33.4062 51.2787 423.091
   vertex -32.417 49.5013 422.723
   vertex -31.7874 50.4953 425.051
  endloop
 endfacet
 facet normal -0.730868 -0.53364 0.425512
  outer loop
   vertex -32.1938 49.5066 423.113
   vertex -31.7874 50.4953 425.051
   vertex -32.417 49.5013 422.723
  endloop
 endfacet
 facet normal -0.884128 -0.00305813 0.467234
  outer loop
   vertex -34.7133 53.3418 422.508
   vertex -34.7519 53.0456 422.433
   vertex -34.3706 53.2712 423.156
  endloop
 endfacet
 facet normal -0.761268 -0.385477 0.52142
  outer loop
   vertex -34.3706 53.2712 423.156
   vertex -34.7855 52.5377 422.008
   vertex -33.4062 51.2787 423.091
  endloop
 endfacet
 facet normal -0.760688 -0.386243 0.521699
  outer loop
   vertex -34.7519 53.0456 422.433
   vertex -34.7855 52.5377 422.008
   vertex -34.3706 53.2712 423.156
  endloop
 endfacet
 facet normal -0.855439 -0.0195305 0.517535
  outer loop
   vertex -34.7133 53.3418 422.508
   vertex -34.9649 53.3389 422.092
   vertex -34.7519 53.0456 422.433
  endloop
 endfacet
 facet normal -0.721815 -0.500657 0.477834
  outer loop
   vertex -32.9318 49.5697 422.017
   vertex -32.417 49.5013 422.723
   vertex -33.4062 51.2787 423.091
  endloop
 endfacet
 facet normal -0.823366 -0.29585 0.484294
  outer loop
   vertex -35.2334 53.2381 421.732
   vertex -35.2101 52.7804 421.492
   vertex -34.7519 53.0456 422.433
  endloop
 endfacet
 facet normal -0.769251 -0.479162 0.422677
  outer loop
   vertex -34.7855 52.5377 422.008
   vertex -32.9318 49.5697 422.017
   vertex -33.4062 51.2787 423.091
  endloop
 endfacet
 facet normal -0.796816 -0.355893 0.488288
  outer loop
   vertex -34.7519 53.0456 422.433
   vertex -35.2101 52.7804 421.492
   vertex -34.7855 52.5377 422.008
  endloop
 endfacet
 facet normal -0.82881 -0.292346 0.477083
  outer loop
   vertex -35.693 53.2421 420.936
   vertex -35.2101 52.7804 421.492
   vertex -35.2334 53.2381 421.732
  endloop
 endfacet
 facet normal -0.774093 -0.482224 0.410169
  outer loop
   vertex -35.2101 52.7804 421.492
   vertex -32.9318 49.5697 422.017
   vertex -34.7855 52.5377 422.008
  endloop
 endfacet
 facet normal -0.825966 -0.264233 0.497957
  outer loop
   vertex -35.693 53.2421 420.936
   vertex -36.1363 53.2144 420.186
   vertex -35.2101 52.7804 421.492
  endloop
 endfacet
 facet normal -0.786575 -0.498581 0.364303
  outer loop
   vertex -32.9318 49.5697 422.017
   vertex -35.2101 52.7804 421.492
   vertex -33.2618 49.4802 421.182
  endloop
 endfacet
 facet normal -0.738477 -0.480409 0.473136
  outer loop
   vertex -35.2101 52.7804 421.492
   vertex -33.835 49.6453 420.455
   vertex -33.2618 49.4802 421.182
  endloop
 endfacet
 facet normal -0.643619 -0.682547 0.346243
  outer loop
   vertex -33.7421 49.4461 420.235
   vertex -33.835 49.6453 420.455
   vertex -34.1147 49.5215 419.691
  endloop
 endfacet
 facet normal -0.799828 -0.473032 0.369481
  outer loop
   vertex -35.2101 52.7804 421.492
   vertex -34.1147 49.5215 419.691
   vertex -33.835 49.6453 420.455
  endloop
 endfacet
 facet normal -0.737729 -0.499159 0.454528
  outer loop
   vertex -35.2101 52.7804 421.492
   vertex -34.4714 49.5788 419.175
   vertex -34.1147 49.5215 419.691
  endloop
 endfacet
 facet normal -0.559221 -0.772531 0.300778
  outer loop
   vertex -34.4714 49.5788 419.175
   vertex -34.3743 49.4287 418.97
   vertex -34.1147 49.5215 419.691
  endloop
 endfacet
 facet normal -0.77398 -0.478617 0.414586
  outer loop
   vertex -35.2101 52.7804 421.492
   vertex -34.9093 49.5931 418.374
   vertex -34.4714 49.5788 419.175
  endloop
 endfacet
 facet normal -0.565824 -0.76972 0.295591
  outer loop
   vertex -34.9093 49.5931 418.374
   vertex -34.3743 49.4287 418.97
   vertex -34.4714 49.5788 419.175
  endloop
 endfacet
 facet normal -0.740577 -0.504319 0.444081
  outer loop
   vertex -35.3895 49.4952 417.462
   vertex -34.9093 49.5931 418.374
   vertex -35.2101 52.7804 421.492
  endloop
 endfacet
 facet normal -0.735001 -0.509173 0.447791
  outer loop
   vertex -37.7685 52.7376 417.244
   vertex -35.3895 49.4952 417.462
   vertex -35.2101 52.7804 421.492
  endloop
 endfacet
 facet normal -0.484084 -0.78447 0.387646
  outer loop
   vertex -35.1208 49.3614 417.641
   vertex -34.866 49.3371 417.91
   vertex -34.9093 49.5931 418.374
  endloop
 endfacet
 facet normal -0.606226 -0.691178 0.393399
  outer loop
   vertex -35.3895 49.4952 417.462
   vertex -35.1208 49.3614 417.641
   vertex -34.9093 49.5931 418.374
  endloop
 endfacet
 facet normal -0.405684 -0.859112 0.312006
  outer loop
   vertex -35.4159 49.248 416.747
   vertex -35.3895 49.4952 417.462
   vertex -35.9186 49.2929 416.217
  endloop
 endfacet
 facet normal -0.750307 -0.523354 0.403906
  outer loop
   vertex -37.7685 52.7376 417.244
   vertex -35.9186 49.2929 416.217
   vertex -35.3895 49.4952 417.462
  endloop
 endfacet
 facet normal -0.492183 -0.800337 0.342368
  outer loop
   vertex -36.3689 49.2678 415.511
   vertex -35.981 49.0977 415.671
   vertex -35.9186 49.2929 416.217
  endloop
 endfacet
 facet normal -0.710493 -0.52219 0.471717
  outer loop
   vertex -37.7685 52.7376 417.244
   vertex -36.3689 49.2678 415.511
   vertex -35.9186 49.2929 416.217
  endloop
 endfacet
 facet normal -0.722551 -0.519347 0.456288
  outer loop
   vertex -37.7685 52.7376 417.244
   vertex -36.6097 49.0089 414.835
   vertex -36.3689 49.2678 415.511
  endloop
 endfacet
 facet normal -0.45017 -0.750573 0.483723
  outer loop
   vertex -36.3689 49.2678 415.511
   vertex -36.3603 48.9939 415.094
   vertex -36.1559 49.0363 415.35
  endloop
 endfacet
 facet normal -0.742729 -0.510649 0.433118
  outer loop
   vertex -38.9461 52.5946 415.056
   vertex -36.6097 49.0089 414.835
   vertex -37.7685 52.7376 417.244
  endloop
 endfacet
 facet normal -0.521734 -0.717944 0.460815
  outer loop
   vertex -36.6097 49.0089 414.835
   vertex -36.3603 48.9939 415.094
   vertex -36.3689 49.2678 415.511
  endloop
 endfacet
 facet normal -0.71123 -0.494239 0.49988
  outer loop
   vertex -38.9461 52.5946 415.056
   vertex -37.1198 48.9389 414.04
   vertex -36.6097 49.0089 414.835
  endloop
 endfacet
 facet normal -0.43838 -0.826127 0.354029
  outer loop
   vertex -36.6097 49.0089 414.835
   vertex -37.1198 48.9389 414.04
   vertex -36.678 48.8733 414.434
  endloop
 endfacet
 facet normal -0.711805 -0.494286 0.499014
  outer loop
   vertex -38.2591 48.6008 412.08
   vertex -37.1198 48.9389 414.04
   vertex -38.9461 52.5946 415.056
  endloop
 endfacet
 facet normal -0.464371 -0.772669 0.432831
  outer loop
   vertex -37.5912 48.7046 413.116
   vertex -37.3385 48.6586 413.305
   vertex -37.1198 48.9389 414.04
  endloop
 endfacet
 facet normal -0.658542 -0.577575 0.482421
  outer loop
   vertex -37.5912 48.7046 413.116
   vertex -37.1198 48.9389 414.04
   vertex -38.2591 48.6008 412.08
  endloop
 endfacet
 facet normal -0.865043 -0.172371 0.471156
  outer loop
   vertex -39.4782 52.4931 414.074
   vertex -39.4457 52.2863 414.058
   vertex -39.1564 52.3733 414.621
  endloop
 endfacet
 facet normal -0.739688 -0.494432 0.456507
  outer loop
   vertex -39.4457 52.2863 414.058
   vertex -39.5993 51.3638 412.81
   vertex -39.1564 52.3733 414.621
  endloop
 endfacet
 facet normal -0.85808 -0.172251 0.483764
  outer loop
   vertex -39.4782 52.4931 414.074
   vertex -39.7407 52.3235 413.548
   vertex -39.4457 52.2863 414.058
  endloop
 endfacet
 facet normal -0.789756 -0.442806 0.424509
  outer loop
   vertex -39.5993 51.3638 412.81
   vertex -39.4457 52.2863 414.058
   vertex -39.7407 52.3235 413.548
  endloop
 endfacet
 facet normal -0.754309 -0.656361 0.01444
  outer loop
   vertex -39.0739 50.7625 412.924
   vertex -38.5536 50.1692 413.135
   vertex -39.5993 51.3638 412.81
  endloop
 endfacet
 facet normal -0.712308 -0.490787 0.501743
  outer loop
   vertex -39.7407 52.3235 413.548
   vertex -40.2554 51.9112 412.414
   vertex -39.5993 51.3638 412.81
  endloop
 endfacet
 facet normal -0.733827 -0.468626 0.49182
  outer loop
   vertex -39.0739 50.7625 412.924
   vertex -38.2591 48.6008 412.08
   vertex -38.5536 50.1692 413.135
  endloop
 endfacet
 facet normal -0.717138 -0.579902 0.386559
  outer loop
   vertex -40.2554 51.9112 412.414
   vertex -40.7619 51.9983 411.605
   vertex -39.5993 51.3638 412.81
  endloop
 endfacet
 facet normal -0.73287 -0.468768 0.49311
  outer loop
   vertex -39.0739 50.7625 412.924
   vertex -39.0024 48.2418 410.634
   vertex -38.2591 48.6008 412.08
  endloop
 endfacet
 facet normal -0.72483 -0.556278 0.40642
  outer loop
   vertex -40.7619 51.9983 411.605
   vertex -39.0739 50.7625 412.924
   vertex -39.5993 51.3638 412.81
  endloop
 endfacet
 facet normal -0.533456 -0.715081 0.451756
  outer loop
   vertex -39.0024 48.2418 410.634
   vertex -38.399 48.2819 411.41
   vertex -38.2591 48.6008 412.08
  endloop
 endfacet
 facet normal -0.730713 -0.45255 0.511134
  outer loop
   vertex -40.7619 51.9983 411.605
   vertex -41.2009 51.6714 410.688
   vertex -39.0739 50.7625 412.924
  endloop
 endfacet
 facet normal -0.509388 -0.742803 0.434474
  outer loop
   vertex -38.399 48.2819 411.41
   vertex -39.0024 48.2418 410.634
   vertex -38.8012 47.9921 410.443
  endloop
 endfacet
 facet normal -0.791225 -0.225531 0.568417
  outer loop
   vertex -42.4979 51.3072 408.374
   vertex -41.9766 50.9225 408.947
   vertex -39.0739 50.7625 412.924
  endloop
 endfacet
 facet normal -0.682447 -0.554893 0.475773
  outer loop
   vertex -41.9766 50.9225 408.947
   vertex -41.732 49.2721 407.373
   vertex -39.0739 50.7625 412.924
  endloop
 endfacet
 facet normal -0.739497 -0.471299 0.480647
  outer loop
   vertex -41.732 49.2721 407.373
   vertex -39.7549 47.5926 408.768
   vertex -39.0739 50.7625 412.924
  endloop
 endfacet
 facet normal -0.692623 -0.548922 0.46793
  outer loop
   vertex -41.732 49.2721 407.373
   vertex -41.9766 50.9225 408.947
   vertex -42.9173 50.8376 407.455
  endloop
 endfacet
 facet normal -0.73413 -0.423089 0.531082
  outer loop
   vertex -41.732 49.2721 407.373
   vertex -40.2631 47.4903 407.984
   vertex -39.7549 47.5926 408.768
  endloop
 endfacet
 facet normal -0.797435 -0.305794 0.520179
  outer loop
   vertex -42.4979 51.3072 408.374
   vertex -42.9173 50.8376 407.455
   vertex -41.9766 50.9225 408.947
  endloop
 endfacet
 facet normal -0.739089 -0.532755 0.412213
  outer loop
   vertex -43.231 50.8395 406.895
   vertex -42.0494 48.979 406.609
   vertex -42.9173 50.8376 407.455
  endloop
 endfacet
 facet normal -0.74925 -0.451524 0.48451
  outer loop
   vertex -42.0494 48.979 406.609
   vertex -40.2631 47.4903 407.984
   vertex -41.732 49.2721 407.373
  endloop
 endfacet
 facet normal -0.699027 -0.519487 0.49142
  outer loop
   vertex -43.231 50.8395 406.895
   vertex -43.5083 50.6706 406.322
   vertex -42.0494 48.979 406.609
  endloop
 endfacet
 facet normal -0.681865 -0.541996 0.491223
  outer loop
   vertex -42.0494 48.979 406.609
   vertex -41.732 49.2721 407.373
   vertex -42.9173 50.8376 407.455
  endloop
 endfacet
 facet normal -0.748573 -0.440434 0.495637
  outer loop
   vertex -42.0494 48.979 406.609
   vertex -41.5169 47.4156 406.024
   vertex -40.2631 47.4903 407.984
  endloop
 endfacet
 facet normal -0.690999 -0.508829 0.513433
  outer loop
   vertex -43.5083 50.6706 406.322
   vertex -43.722 50.4472 405.813
   vertex -42.0494 48.979 406.609
  endloop
 endfacet
 facet normal -0.701642 -0.561491 0.438663
  outer loop
   vertex -43.722 50.4472 405.813
   vertex -43.9728 50.3778 405.323
   vertex -42.0494 48.979 406.609
  endloop
 endfacet
 facet normal -0.883047 -0.0771047 0.462908
  outer loop
   vertex -43.816 50.5813 405.656
   vertex -43.9728 50.3778 405.323
   vertex -43.722 50.4472 405.813
  endloop
 endfacet
 facet normal -0.900052 -0.0189393 0.43537
  outer loop
   vertex -44.0854 50.4414 405.093
   vertex -43.9728 50.3778 405.323
   vertex -43.816 50.5813 405.656
  endloop
 endfacet
 facet normal -0.843588 -0.414898 0.340909
  outer loop
   vertex -41.5169 47.4156 406.024
   vertex -42.0494 48.979 406.609
   vertex -41.5803 46.4936 404.745
  endloop
 endfacet
 facet normal -0.898999 -0.0080032 0.437878
  outer loop
   vertex -44.0854 50.4414 405.093
   vertex -44.473 50.1557 404.292
   vertex -43.9728 50.3778 405.323
  endloop
 endfacet
 facet normal -0.702442 -0.544693 0.458132
  outer loop
   vertex -44.473 50.1557 404.292
   vertex -42.0494 48.979 406.609
   vertex -43.9728 50.3778 405.323
  endloop
 endfacet
 facet normal -0.723307 -0.437028 0.534634
  outer loop
   vertex -44.473 50.1557 404.292
   vertex -44.1455 49.1843 403.941
   vertex -42.0494 48.979 406.609
  endloop
 endfacet
 facet normal -0.694629 -0.510912 0.506418
  outer loop
   vertex -44.1455 49.1843 403.941
   vertex -41.5803 46.4936 404.745
   vertex -42.0494 48.979 406.609
  endloop
 endfacet
 facet normal -0.685699 -0.493975 0.534608
  outer loop
   vertex -44.1455 49.1843 403.941
   vertex -43.6573 46.9081 402.464
   vertex -41.5803 46.4936 404.745
  endloop
 endfacet
 facet normal -0.748522 -0.425043 0.508973
  outer loop
   vertex -44.7066 49.9437 403.75
   vertex -44.8702 49.6618 403.274
   vertex -44.1455 49.1843 403.941
  endloop
 endfacet
 facet normal -0.886635 -0.194186 0.419726
  outer loop
   vertex -44.9797 49.8981 403.152
   vertex -44.8702 49.6618 403.274
   vertex -44.7066 49.9437 403.75
  endloop
 endfacet
 facet normal -0.729899 -0.559792 0.392277
  outer loop
   vertex -44.8702 49.6618 403.274
   vertex -45.0994 49.6376 402.813
   vertex -44.1455 49.1843 403.941
  endloop
 endfacet
 facet normal -0.760437 -0.460338 0.458067
  outer loop
   vertex -43.6573 46.9081 402.464
   vertex -44.1455 49.1843 403.941
   vertex -45.0994 49.6376 402.813
  endloop
 endfacet
 facet normal -0.877626 -0.176649 0.44561
  outer loop
   vertex -44.9797 49.8981 403.152
   vertex -45.0994 49.6376 402.813
   vertex -44.8702 49.6618 403.274
  endloop
 endfacet
 facet normal -0.705368 -0.443387 0.55305
  outer loop
   vertex -44.4429 47.3434 401.811
   vertex -43.6573 46.9081 402.464
   vertex -45.0994 49.6376 402.813
  endloop
 endfacet
 facet normal -0.712192 -0.539217 0.449474
  outer loop
   vertex -43.4133 45.2888 400.908
   vertex -42.8893 46.173 402.799
   vertex -43.6573 46.9081 402.464
  endloop
 endfacet
 facet normal -0.834404 -0.29356 0.466468
  outer loop
   vertex -45.4771 49.4972 402.049
   vertex -45.4818 49.2261 401.87
   vertex -45.0994 49.6376 402.813
  endloop
 endfacet
 facet normal -0.75443 -0.431793 0.494359
  outer loop
   vertex -45.4818 49.2261 401.87
   vertex -44.4429 47.3434 401.811
   vertex -45.0994 49.6376 402.813
  endloop
 endfacet
 facet normal -0.692348 -0.551469 0.465335
  outer loop
   vertex -44.4429 47.3434 401.811
   vertex -43.4133 45.2888 400.908
   vertex -43.6573 46.9081 402.464
  endloop
 endfacet
 facet normal -0.735521 -0.422465 0.529653
  outer loop
   vertex -45.4818 49.2261 401.87
   vertex -45.4901 47.8903 400.793
   vertex -44.4429 47.3434 401.811
  endloop
 endfacet
 facet normal -0.768815 -0.398468 0.500146
  outer loop
   vertex -45.741 49.0183 401.306
   vertex -45.4901 47.8903 400.793
   vertex -45.4818 49.2261 401.87
  endloop
 endfacet
 facet normal -0.871348 -0.166159 0.461675
  outer loop
   vertex -45.741 49.0183 401.306
   vertex -45.4818 49.2261 401.87
   vertex -45.7819 49.2772 401.322
  endloop
 endfacet
 facet normal -0.647343 -0.554321 0.523139
  outer loop
   vertex -44.8578 46.9323 400.862
   vertex -43.4133 45.2888 400.908
   vertex -44.4429 47.3434 401.811
  endloop
 endfacet
 facet normal -0.88363 -0.166609 0.437538
  outer loop
   vertex -45.9582 49.1355 400.912
   vertex -45.741 49.0183 401.306
   vertex -45.7819 49.2772 401.322
  endloop
 endfacet
 facet normal -0.7326 -0.446531 0.513719
  outer loop
   vertex -45.4901 47.8903 400.793
   vertex -44.8578 46.9323 400.862
   vertex -44.4429 47.3434 401.811
  endloop
 endfacet
 facet normal -0.749471 -0.460403 0.475734
  outer loop
   vertex -44.8578 46.9323 400.862
   vertex -45.4901 47.8903 400.793
   vertex -46.0985 47.8939 399.838
  endloop
 endfacet
 facet normal -0.646227 -0.553271 0.525625
  outer loop
   vertex -44.6449 46.0433 400.188
   vertex -43.4133 45.2888 400.908
   vertex -44.8578 46.9323 400.862
  endloop
 endfacet
 facet normal -0.852814 -0.361211 0.377142
  outer loop
   vertex -45.4901 47.8903 400.793
   vertex -45.741 49.0183 401.306
   vertex -46.0895 49.0737 400.571
  endloop
 endfacet
 facet normal -0.785404 -0.29582 0.54372
  outer loop
   vertex -46.0895 49.0737 400.571
   vertex -46.3099 48.5064 399.944
   vertex -45.4901 47.8903 400.793
  endloop
 endfacet
 facet normal -0.747471 -0.505643 0.430826
  outer loop
   vertex -46.0985 47.8939 399.838
   vertex -44.6449 46.0433 400.188
   vertex -44.8578 46.9323 400.862
  endloop
 endfacet
 facet normal -0.787919 -0.35857 0.500611
  outer loop
   vertex -46.3099 48.5064 399.944
   vertex -46.0985 47.8939 399.838
   vertex -45.4901 47.8903 400.793
  endloop
 endfacet
 facet normal -0.72583 -0.476256 0.496338
  outer loop
   vertex -46.0985 47.8939 399.838
   vertex -46.0788 46.6091 398.634
   vertex -44.6449 46.0433 400.188
  endloop
 endfacet
 facet normal -0.825537 -0.360117 0.434516
  outer loop
   vertex -46.3099 48.5064 399.944
   vertex -46.8049 48.3513 398.875
   vertex -46.0985 47.8939 399.838
  endloop
 endfacet
 facet normal -0.693428 -0.578823 0.429095
  outer loop
   vertex -46.0788 46.6091 398.634
   vertex -44.1481 44.755 399.253
   vertex -44.6449 46.0433 400.188
  endloop
 endfacet
 facet normal -0.83468 -0.320315 0.448004
  outer loop
   vertex -46.841 47.1475 397.921
   vertex -46.0985 47.8939 399.838
   vertex -47.1233 48.0314 398.027
  endloop
 endfacet
 facet normal -0.670638 -0.522592 0.526443
  outer loop
   vertex -46.0788 46.6091 398.634
   vertex -44.9208 44.5307 398.046
   vertex -44.1481 44.755 399.253
  endloop
 endfacet
 facet normal -0.758489 -0.451772 0.469677
  outer loop
   vertex -46.0985 47.8939 399.838
   vertex -46.841 47.1475 397.921
   vertex -46.0788 46.6091 398.634
  endloop
 endfacet
 facet normal -0.757265 -0.465888 0.45771
  outer loop
   vertex -46.841 47.1475 397.921
   vertex -46.5698 46.2086 397.414
   vertex -46.0788 46.6091 398.634
  endloop
 endfacet
 facet normal -0.820762 -0.318978 0.473924
  outer loop
   vertex -47.3216 47.5031 397.328
   vertex -46.841 47.1475 397.921
   vertex -47.1233 48.0314 398.027
  endloop
 endfacet
 facet normal -0.728385 -0.529016 0.435427
  outer loop
   vertex -45.1583 44.1367 397.17
   vertex -44.9208 44.5307 398.046
   vertex -46.0788 46.6091 398.634
  endloop
 endfacet
 facet normal -0.707343 -0.536135 0.460679
  outer loop
   vertex -46.5698 46.2086 397.414
   vertex -45.1583 44.1367 397.17
   vertex -46.0788 46.6091 398.634
  endloop
 endfacet
 facet normal -0.818636 -0.359385 0.44797
  outer loop
   vertex -47.3216 47.5031 397.328
   vertex -47.2868 46.742 396.781
   vertex -46.841 47.1475 397.921
  endloop
 endfacet
 facet normal -0.754512 -0.466954 0.461157
  outer loop
   vertex -47.2868 46.742 396.781
   vertex -46.5698 46.2086 397.414
   vertex -46.841 47.1475 397.921
  endloop
 endfacet
 facet normal -0.843252 -0.338591 0.417471
  outer loop
   vertex -47.3216 47.5031 397.328
   vertex -47.6628 47.2629 396.444
   vertex -47.2868 46.742 396.781
  endloop
 endfacet
 facet normal -0.740956 -0.564725 0.363415
  outer loop
   vertex -47.2868 46.742 396.781
   vertex -47.8126 46.8926 395.943
   vertex -46.5698 46.2086 397.414
  endloop
 endfacet
 facet normal -0.939616 -0.180032 0.291052
  outer loop
   vertex -47.4233 47.7429 397.148
   vertex -47.5512 47.594 396.643
   vertex -47.3216 47.5031 397.328
  endloop
 endfacet
 facet normal -0.936764 0.117639 0.329597
  outer loop
   vertex -47.5512 47.594 396.643
   vertex -47.6628 47.2629 396.444
   vertex -47.3216 47.5031 397.328
  endloop
 endfacet
 facet normal -0.745648 -0.551943 0.373322
  outer loop
   vertex -47.8126 46.8926 395.943
   vertex -45.1583 44.1367 397.17
   vertex -46.5698 46.2086 397.414
  endloop
 endfacet
 facet normal -0.8319 -0.297368 0.468523
  outer loop
   vertex -47.6628 47.2629 396.444
   vertex -47.8126 46.8926 395.943
   vertex -47.2868 46.742 396.781
  endloop
 endfacet
 facet normal -0.690956 -0.541188 0.479266
  outer loop
   vertex -46.2807 44.7284 396.22
   vertex -45.5043 43.7513 396.236
   vertex -45.1583 44.1367 397.17
  endloop
 endfacet
 facet normal -0.704742 -0.42625 0.567141
  outer loop
   vertex -47.8126 46.8926 395.943
   vertex -46.2807 44.7284 396.22
   vertex -45.1583 44.1367 397.17
  endloop
 endfacet
 facet normal -0.952924 -0.0235106 0.302298
  outer loop
   vertex -47.6628 47.2629 396.444
   vertex -47.9129 47.1262 395.645
   vertex -47.8126 46.8926 395.943
  endloop
 endfacet
 facet normal -0.68469 -0.53597 0.493899
  outer loop
   vertex -46.2807 44.7284 396.22
   vertex -46.3212 44.1443 395.53
   vertex -45.5043 43.7513 396.236
  endloop
 endfacet
 facet normal -0.67462 -0.578401 0.458628
  outer loop
   vertex -46.3212 44.1443 395.53
   vertex -45.8059 43.6519 395.667
   vertex -45.5043 43.7513 396.236
  endloop
 endfacet
 facet normal -0.755587 -0.477425 0.448502
  outer loop
   vertex -46.3212 44.1443 395.53
   vertex -46.2807 44.7284 396.22
   vertex -47.8126 46.8926 395.943
  endloop
 endfacet
 facet normal -0.913596 0.107876 0.392053
  outer loop
   vertex -47.9129 47.1262 395.645
   vertex -48.0696 46.8857 395.346
   vertex -47.8126 46.8926 395.943
  endloop
 endfacet
 facet normal -0.903468 -0.175749 0.390971
  outer loop
   vertex -48.0696 46.8857 395.346
   vertex -48.0412 46.6173 395.291
   vertex -47.8126 46.8926 395.943
  endloop
 endfacet
 facet normal -0.776849 -0.434446 0.45581
  outer loop
   vertex -48.0412 46.6173 395.291
   vertex -47.559 45.3994 394.952
   vertex -47.8126 46.8926 395.943
  endloop
 endfacet
 facet normal -0.758333 -0.478105 0.443109
  outer loop
   vertex -47.8126 46.8926 395.943
   vertex -46.4569 43.328 394.417
   vertex -46.3212 44.1443 395.53
  endloop
 endfacet
 facet normal -0.680656 -0.592403 0.431007
  outer loop
   vertex -46.3212 44.1443 395.53
   vertex -45.9173 43.3339 395.054
   vertex -45.8059 43.6519 395.667
  endloop
 endfacet
 facet normal -0.604538 -0.605397 0.517715
  outer loop
   vertex -46.3212 44.1443 395.53
   vertex -46.4569 43.328 394.417
   vertex -45.9173 43.3339 395.054
  endloop
 endfacet
 facet normal -0.64817 -0.494442 0.57914
  outer loop
   vertex -47.559 45.3994 394.952
   vertex -46.4569 43.328 394.417
   vertex -47.8126 46.8926 395.943
  endloop
 endfacet
 facet normal -0.914066 -0.172014 0.36728
  outer loop
   vertex -48.0412 46.6173 395.291
   vertex -48.0696 46.8857 395.346
   vertex -48.2261 46.7095 394.874
  endloop
 endfacet
 facet normal -0.913887 -0.174108 0.366738
  outer loop
   vertex -48.2261 46.7095 394.874
   vertex -48.2549 46.4584 394.683
   vertex -48.0412 46.6173 395.291
  endloop
 endfacet
 facet normal -0.712671 -0.504951 0.486955
  outer loop
   vertex -46.4569 43.328 394.417
   vertex -47.559 45.3994 394.952
   vertex -47.6891 44.9041 394.248
  endloop
 endfacet
 facet normal -0.766936 -0.449514 0.457981
  outer loop
   vertex -47.6891 44.9041 394.248
   vertex -47.559 45.3994 394.952
   vertex -47.9667 45.4073 394.277
  endloop
 endfacet
 facet normal -0.722054 -0.514961 0.46201
  outer loop
   vertex -47.6891 44.9041 394.248
   vertex -47.0917 42.9477 393.001
   vertex -46.4569 43.328 394.417
  endloop
 endfacet
 facet normal -0.728124 -0.506045 0.462336
  outer loop
   vertex -47.0917 42.9477 393.001
   vertex -46.8099 43.01 393.513
   vertex -46.4569 43.328 394.417
  endloop
 endfacet
 facet normal -0.530158 -0.713544 0.458026
  outer loop
   vertex -46.4569 43.328 394.417
   vertex -46.8099 43.01 393.513
   vertex -46.4882 42.9398 393.776
  endloop
 endfacet
 facet normal -0.774275 -0.452656 0.442268
  outer loop
   vertex -47.9667 45.4073 394.277
   vertex -48.7705 45.173 392.63
   vertex -47.6891 44.9041 394.248
  endloop
 endfacet
 facet normal -0.711037 -0.519295 0.474087
  outer loop
   vertex -47.4415 43.1546 392.703
   vertex -47.0917 42.9477 393.001
   vertex -47.6891 44.9041 394.248
  endloop
 endfacet
 facet normal -0.848772 -0.272682 0.453023
  outer loop
   vertex -48.7348 46.0188 393.206
   vertex -48.7705 45.173 392.63
   vertex -47.9667 45.4073 394.277
  endloop
 endfacet
 facet normal -0.753063 -0.348331 0.558177
  outer loop
   vertex -48.944 45.5032 392.602
   vertex -48.7705 45.173 392.63
   vertex -48.7348 46.0188 393.206
  endloop
 endfacet
 facet normal -0.761746 -0.486073 0.428341
  outer loop
   vertex -48.7705 45.173 392.63
   vertex -47.4415 43.1546 392.703
   vertex -47.6891 44.9041 394.248
  endloop
 endfacet
 facet normal -0.765816 -0.489147 0.417446
  outer loop
   vertex -47.4415 43.1546 392.703
   vertex -48.7705 45.173 392.63
   vertex -49.0348 44.6634 391.548
  endloop
 endfacet
 facet normal -0.763684 -0.558313 0.324151
  outer loop
   vertex -49.0348 44.6634 391.548
   vertex -47.8151 43.1611 391.834
   vertex -47.4415 43.1546 392.703
  endloop
 endfacet
 facet normal -0.826304 -0.400581 0.395924
  outer loop
   vertex -48.944 45.5032 392.602
   vertex -49.2233 45.2412 391.754
   vertex -48.7705 45.173 392.63
  endloop
 endfacet
 facet normal -0.917314 0.0519139 0.394765
  outer loop
   vertex -47.4415 43.1546 392.703
   vertex -47.8151 43.1611 391.834
   vertex -47.6309 43.093 392.271
  endloop
 endfacet
 facet normal -0.823266 -0.408939 0.393703
  outer loop
   vertex -49.2233 45.2412 391.754
   vertex -49.0348 44.6634 391.548
   vertex -48.7705 45.173 392.63
  endloop
 endfacet
 facet normal -0.793802 -0.416849 0.44285
  outer loop
   vertex -49.3571 44.7672 391.068
   vertex -49.0348 44.6634 391.548
   vertex -49.2233 45.2412 391.754
  endloop
 endfacet
 facet normal -0.77825 -0.465029 0.421989
  outer loop
   vertex -49.0348 44.6634 391.548
   vertex -49.3571 44.7672 391.068
   vertex -49.5073 44.4487 390.44
  endloop
 endfacet
 facet normal -0.958859 0.0600568 0.277457
  outer loop
   vertex -49.4015 45.01 390.862
   vertex -49.5498 44.7028 390.416
   vertex -49.3571 44.7672 391.068
  endloop
 endfacet
 facet normal -0.947178 -0.13074 0.29285
  outer loop
   vertex -49.5498 44.7028 390.416
   vertex -49.5073 44.4487 390.44
   vertex -49.3571 44.7672 391.068
  endloop
 endfacet
endsolid
