solid ascii
 facet normal -0.650712 -0.195442 -0.733741
  outer loop
   vertex -43.5068 62.8606 397.241
   vertex -43.9207 63.5141 397.434
   vertex -43.3135 63.7675 396.828
  endloop
 endfacet
 facet normal -0.734521 -0.38676 -0.55758
  outer loop
   vertex -42.9356 61.6598 397.325
   vertex -42.3104 61.2942 396.755
   vertex -42.5071 60.9974 397.22
  endloop
 endfacet
 facet normal -0.733987 -0.404019 -0.545924
  outer loop
   vertex -42.9356 61.6598 397.325
   vertex -42.7529 61.9927 396.833
   vertex -42.3104 61.2942 396.755
  endloop
 endfacet
 facet normal -0.684796 -0.176066 -0.707146
  outer loop
   vertex -43.3135 63.7675 396.828
   vertex -42.7142 62.4648 396.572
   vertex -43.5068 62.8606 397.241
  endloop
 endfacet
 facet normal -0.663873 -0.161928 -0.730104
  outer loop
   vertex -42.7142 62.4648 396.572
   vertex -43.3135 63.7675 396.828
   vertex -42.3272 62.9251 396.118
  endloop
 endfacet
 facet normal -0.698822 -0.374662 -0.609324
  outer loop
   vertex -42.7529 61.9927 396.833
   vertex -42.0722 61.7883 396.178
   vertex -42.3104 61.2942 396.755
  endloop
 endfacet
 facet normal -0.619176 -0.0654162 -0.782523
  outer loop
   vertex -43.3135 63.7675 396.828
   vertex -42.7189 63.9651 396.341
   vertex -42.3272 62.9251 396.118
  endloop
 endfacet
 facet normal -0.706894 -0.296978 -0.641955
  outer loop
   vertex -42.7142 62.4648 396.572
   vertex -42.0722 61.7883 396.178
   vertex -42.7529 61.9927 396.833
  endloop
 endfacet
 facet normal -0.604582 -0.057357 -0.794475
  outer loop
   vertex -42.7189 63.9651 396.341
   vertex -42.0702 64.2746 395.825
   vertex -42.3272 62.9251 396.118
  endloop
 endfacet
 facet normal -0.647834 -0.184329 -0.739144
  outer loop
   vertex -42.7142 62.4648 396.572
   vertex -42.3272 62.9251 396.118
   vertex -42.0722 61.7883 396.178
  endloop
 endfacet
 facet normal -0.680618 -0.0293233 -0.732052
  outer loop
   vertex -42.0702 64.2746 395.825
   vertex -41.5982 63.0306 395.436
   vertex -42.3272 62.9251 396.118
  endloop
 endfacet
 facet normal -0.726137 -0.197639 -0.658532
  outer loop
   vertex -42.0722 61.7883 396.178
   vertex -42.3272 62.9251 396.118
   vertex -41.64 62.2429 395.565
  endloop
 endfacet
 facet normal -0.69576 -0.247677 -0.674222
  outer loop
   vertex -41.64 62.2429 395.565
   vertex -41.2691 61.5249 395.446
   vertex -42.0722 61.7883 396.178
  endloop
 endfacet
 facet normal -0.687625 -0.383879 -0.616286
  outer loop
   vertex -41.2691 61.5249 395.446
   vertex -41.7576 60.992 396.323
   vertex -42.0722 61.7883 396.178
  endloop
 endfacet
 facet normal -0.608627 -0.571329 -0.550596
  outer loop
   vertex -41.7576 60.992 396.323
   vertex -40.8999 60.9177 395.452
   vertex -41.3645 60.8209 396.066
  endloop
 endfacet
 facet normal -0.666706 -0.411507 -0.621421
  outer loop
   vertex -41.7576 60.992 396.323
   vertex -41.2691 61.5249 395.446
   vertex -40.8999 60.9177 395.452
  endloop
 endfacet
 facet normal -0.648613 -0.00810398 -0.761075
  outer loop
   vertex -41.5982 63.0306 395.436
   vertex -42.0702 64.2746 395.825
   vertex -40.9743 63.6209 394.898
  endloop
 endfacet
 facet normal -0.674202 -0.0843811 -0.733711
  outer loop
   vertex -41.5982 63.0306 395.436
   vertex -41.64 62.2429 395.565
   vertex -42.3272 62.9251 396.118
  endloop
 endfacet
 facet normal -0.669204 -0.0853746 -0.738158
  outer loop
   vertex -41.64 62.2429 395.565
   vertex -41.5982 63.0306 395.436
   vertex -40.9349 62.3792 394.91
  endloop
 endfacet
 facet normal -0.63251 0.0367661 -0.773679
  outer loop
   vertex -40.912 64.5662 394.892
   vertex -40.9743 63.6209 394.898
   vertex -42.0702 64.2746 395.825
  endloop
 endfacet
 facet normal -0.729242 -0.190736 -0.657135
  outer loop
   vertex 18.5294 48.5155 337.621
   vertex 19.217 47.623 337.117
   vertex 18.4724 47.4036 338.007
  endloop
 endfacet
 facet normal -0.63765 -0.0276698 -0.769829
  outer loop
   vertex -40.9349 62.3792 394.91
   vertex -41.5982 63.0306 395.436
   vertex -40.9743 63.6209 394.898
  endloop
 endfacet
 facet normal -0.643252 -0.210279 -0.736213
  outer loop
   vertex -41.2691 61.5249 395.446
   vertex -41.64 62.2429 395.565
   vertex -40.9349 62.3792 394.91
  endloop
 endfacet
 facet normal -0.647665 -0.400195 -0.648363
  outer loop
   vertex -40.8999 60.9177 395.452
   vertex -41.2691 61.5249 395.446
   vertex -40.4191 61.4681 394.632
  endloop
 endfacet
 facet normal -0.714821 -0.309694 -0.626993
  outer loop
   vertex -40.4191 61.4681 394.632
   vertex -40.1277 60.9048 394.578
   vertex -40.8999 60.9177 395.452
  endloop
 endfacet
 facet normal -0.687168 -0.173773 -0.70541
  outer loop
   vertex -41.2691 61.5249 395.446
   vertex -40.9349 62.3792 394.91
   vertex -40.4191 61.4681 394.632
  endloop
 endfacet
 facet normal -0.656999 0.0385123 -0.752907
  outer loop
   vertex -40.9743 63.6209 394.898
   vertex -40.912 64.5662 394.892
   vertex -39.8389 64.7303 393.964
  endloop
 endfacet
 facet normal -0.634583 -0.00122297 -0.772854
  outer loop
   vertex -40.9743 63.6209 394.898
   vertex -39.8389 64.7303 393.964
   vertex -39.9623 62.3983 394.069
  endloop
 endfacet
 facet normal -0.646383 -0.136884 -0.750634
  outer loop
   vertex -39.9623 62.3983 394.069
   vertex -40.4191 61.4681 394.632
   vertex -40.9349 62.3792 394.91
  endloop
 endfacet
 facet normal -0.653507 -0.0280433 -0.756401
  outer loop
   vertex -40.9743 63.6209 394.898
   vertex -39.9623 62.3983 394.069
   vertex -40.9349 62.3792 394.91
  endloop
 endfacet
 facet normal -0.67067 -0.114228 -0.732908
  outer loop
   vertex -39.9623 62.3983 394.069
   vertex -39.5222 61.1425 393.862
   vertex -40.4191 61.4681 394.632
  endloop
 endfacet
 facet normal -0.687404 -0.122913 -0.715799
  outer loop
   vertex -39.9623 62.3983 394.069
   vertex -38.9548 61.7663 393.21
   vertex -39.5222 61.1425 393.862
  endloop
 endfacet
 facet normal -0.689533 -0.274125 -0.670372
  outer loop
   vertex -38.723 60.7878 393.185
   vertex -39.1787 60.6893 393.694
   vertex -39.5222 61.1425 393.862
  endloop
 endfacet
 facet normal -0.687645 0.00369291 -0.726038
  outer loop
   vertex -38.9287 64.5521 393.101
   vertex -39.9623 62.3983 394.069
   vertex -39.8389 64.7303 393.964
  endloop
 endfacet
 facet normal -0.675685 -0.141586 -0.723466
  outer loop
   vertex -38.9548 61.7663 393.21
   vertex -38.723 60.7878 393.185
   vertex -39.5222 61.1425 393.862
  endloop
 endfacet
 facet normal -0.687124 -0.144588 -0.712007
  outer loop
   vertex -38.723 60.7878 393.185
   vertex -38.9548 61.7663 393.21
   vertex -38.1329 60.7312 392.627
  endloop
 endfacet
 facet normal -0.688247 0.00423993 -0.725464
  outer loop
   vertex -39.9623 62.3983 394.069
   vertex -38.9287 64.5521 393.101
   vertex -37.9173 64.6372 392.142
  endloop
 endfacet
 facet normal -0.662351 -0.0389643 -0.74818
  outer loop
   vertex -38.9548 61.7663 393.21
   vertex -39.9623 62.3983 394.069
   vertex -37.9173 64.6372 392.142
  endloop
 endfacet
 facet normal -0.719853 -0.223163 -0.657275
  outer loop
   vertex 19.217 47.623 337.117
   vertex 19.1636 46.9117 337.417
   vertex 18.4724 47.4036 338.007
  endloop
 endfacet
 facet normal -0.680058 -0.134022 -0.720805
  outer loop
   vertex -38.9548 61.7663 393.21
   vertex -37.5089 61.0878 391.972
   vertex -38.1329 60.7312 392.627
  endloop
 endfacet
 facet normal -0.699825 -0.0127812 -0.7142
  outer loop
   vertex -36.9379 64.5979 391.183
   vertex -38.9548 61.7663 393.21
   vertex -37.9173 64.6372 392.142
  endloop
 endfacet
 facet normal -0.676484 -0.0890422 -0.731055
  outer loop
   vertex 18.5294 48.5155 337.621
   vertex 17.8109 49.1302 338.211
   vertex 18.0611 49.4871 337.936
  endloop
 endfacet
 facet normal -0.676614 -0.0442103 -0.73501
  outer loop
   vertex -36.9379 64.5979 391.183
   vertex -37.0301 62.0688 391.42
   vertex -38.9548 61.7663 393.21
  endloop
 endfacet
 facet normal -0.671106 -0.0867244 -0.736272
  outer loop
   vertex -37.5089 61.0878 391.972
   vertex -38.9548 61.7663 393.21
   vertex -37.0301 62.0688 391.42
  endloop
 endfacet
 facet normal -0.672329 -0.0447311 -0.7389
  outer loop
   vertex -36.9379 64.5979 391.183
   vertex -36.0071 65.012 390.311
   vertex -37.0301 62.0688 391.42
  endloop
 endfacet
 facet normal -0.64699 -0.108857 -0.754688
  outer loop
   vertex -36.6512 60.3853 391.338
   vertex -37.5089 61.0878 391.972
   vertex -37.0301 62.0688 391.42
  endloop
 endfacet
 facet normal -0.691029 -0.120816 -0.712659
  outer loop
   vertex -35.9619 61.9994 390.396
   vertex -36.6512 60.3853 391.338
   vertex -37.0301 62.0688 391.42
  endloop
 endfacet
 facet normal -0.692732 -0.0307215 -0.720541
  outer loop
   vertex -37.0301 62.0688 391.42
   vertex -36.0071 65.012 390.311
   vertex -35.9619 61.9994 390.396
  endloop
 endfacet
 facet normal -0.69346 -0.118614 -0.710665
  outer loop
   vertex -35.9619 61.9994 390.396
   vertex -35.6891 60.4164 390.394
   vertex -36.6512 60.3853 391.338
  endloop
 endfacet
 facet normal -0.756694 -0.0446454 -0.652243
  outer loop
   vertex -35.5257 63.7045 389.842
   vertex -36.0071 65.012 390.311
   vertex -35.107 64.8186 389.28
  endloop
 endfacet
 facet normal -0.738231 -0.0300877 -0.673877
  outer loop
   vertex -35.9619 61.9994 390.396
   vertex -36.0071 65.012 390.311
   vertex -35.5257 63.7045 389.842
  endloop
 endfacet
 facet normal -0.687446 -0.146208 -0.711366
  outer loop
   vertex -35.168 61.5181 389.664
   vertex -34.9472 60.5383 389.652
   vertex -35.6891 60.4164 390.394
  endloop
 endfacet
 facet normal -0.711716 -0.121784 -0.69183
  outer loop
   vertex -35.168 61.5181 389.664
   vertex -35.6891 60.4164 390.394
   vertex -35.9619 61.9994 390.396
  endloop
 endfacet
 facet normal -0.673155 -0.142814 -0.72558
  outer loop
   vertex -34.9472 60.5383 389.652
   vertex -35.168 61.5181 389.664
   vertex -34.0973 60.1649 388.937
  endloop
 endfacet
 facet normal -0.655659 0.391226 -0.645797
  outer loop
   vertex -35.279 65.0272 389.581
   vertex -35.107 64.8186 389.28
   vertex -36.0071 65.012 390.311
  endloop
 endfacet
 facet normal -0.830986 0.032146 -0.555364
  outer loop
   vertex -35.107 64.8186 389.28
   vertex -35.9619 61.9994 390.396
   vertex -35.5257 63.7045 389.842
  endloop
 endfacet
 facet normal -0.696204 -0.177133 -0.695647
  outer loop
   vertex -32.8205 62.6909 387.016
   vertex -34.0973 60.1649 388.937
   vertex -35.168 61.5181 389.664
  endloop
 endfacet
 facet normal -0.727221 -0.0504575 -0.684546
  outer loop
   vertex -35.107 64.8186 389.28
   vertex -34.2203 63.2181 388.456
   vertex -35.9619 61.9994 390.396
  endloop
 endfacet
 facet normal -0.707234 -0.102775 -0.699469
  outer loop
   vertex -35.9619 61.9994 390.396
   vertex -34.2203 63.2181 388.456
   vertex -35.168 61.5181 389.664
  endloop
 endfacet
 facet normal -0.766976 -0.0984659 -0.634076
  outer loop
   vertex -34.2203 63.2181 388.456
   vertex -35.107 64.8186 389.28
   vertex -33.9236 64.5002 387.898
  endloop
 endfacet
 facet normal -0.728871 -0.0770905 -0.680298
  outer loop
   vertex -34.2203 63.2181 388.456
   vertex -32.8205 62.6909 387.016
   vertex -35.168 61.5181 389.664
  endloop
 endfacet
 facet normal -0.827561 -0.00857319 -0.56131
  outer loop
   vertex -33.5271 60.9719 388.084
   vertex -34.0973 60.1649 388.937
   vertex -32.8205 62.6909 387.016
  endloop
 endfacet
 facet normal -0.743845 -0.11444 -0.658481
  outer loop
   vertex -33.2703 64.7881 387.11
   vertex -34.2203 63.2181 388.456
   vertex -33.9236 64.5002 387.898
  endloop
 endfacet
 facet normal -0.66651 -0.176102 -0.724398
  outer loop
   vertex -32.8205 62.6909 387.016
   vertex -32.7515 60.0068 387.605
   vertex -33.5271 60.9719 388.084
  endloop
 endfacet
 facet normal -0.734124 -0.127562 -0.666926
  outer loop
   vertex -33.2703 64.7881 387.11
   vertex -32.8205 62.6909 387.016
   vertex -34.2203 63.2181 388.456
  endloop
 endfacet
 facet normal -0.765698 -0.13605 -0.628647
  outer loop
   vertex -32.608 64.6786 386.327
   vertex -32.8205 62.6909 387.016
   vertex -33.2703 64.7881 387.11
  endloop
 endfacet
 facet normal -0.747282 -0.160706 -0.644782
  outer loop
   vertex -32.8205 62.6909 387.016
   vertex -31.3031 61.4968 385.555
   vertex -32.7515 60.0068 387.605
  endloop
 endfacet
 facet normal -0.802191 -0.0398503 -0.595736
  outer loop
   vertex -31.3031 61.4968 385.555
   vertex -32.206 60.1334 386.862
   vertex -32.7515 60.0068 387.605
  endloop
 endfacet
 facet normal -0.74004 0.172422 -0.650085
  outer loop
   vertex -32.9975 64.9523 386.843
   vertex -32.608 64.6786 386.327
   vertex -33.2703 64.7881 387.11
  endloop
 endfacet
 facet normal -0.797936 -0.119478 -0.590782
  outer loop
   vertex -32.608 64.6786 386.327
   vertex -32.0872 63.9892 385.763
   vertex -32.8205 62.6909 387.016
  endloop
 endfacet
 facet normal -0.753089 -0.184207 -0.631605
  outer loop
   vertex -31.3031 61.4968 385.555
   vertex -32.8205 62.6909 387.016
   vertex -32.0872 63.9892 385.763
  endloop
 endfacet
 facet normal -0.753402 -0.120715 -0.646385
  outer loop
   vertex -31.3031 61.4968 385.555
   vertex -31.7072 60.1367 386.28
   vertex -32.206 60.1334 386.862
  endloop
 endfacet
 facet normal -0.762764 -0.112804 -0.636763
  outer loop
   vertex -31.3031 61.4968 385.555
   vertex -31.3435 60.0256 385.864
   vertex -31.7072 60.1367 386.28
  endloop
 endfacet
 facet normal -0.787499 -0.0969866 -0.608637
  outer loop
   vertex -31.8092 64.4493 385.33
   vertex -32.0872 63.9892 385.763
   vertex -32.608 64.6786 386.327
  endloop
 endfacet
 facet normal -0.741981 -0.118238 -0.659913
  outer loop
   vertex -31.3031 61.4968 385.555
   vertex -30.4232 60.189 384.8
   vertex -31.3435 60.0256 385.864
  endloop
 endfacet
 facet normal -0.616427 -0.4983 -0.609684
  outer loop
   vertex -30.8917 60.0173 385.414
   vertex -31.3435 60.0256 385.864
   vertex -30.4232 60.189 384.8
  endloop
 endfacet
 facet normal -0.746287 -0.181329 -0.640449
  outer loop
   vertex -31.3031 61.4968 385.555
   vertex -32.0872 63.9892 385.763
   vertex -30.9157 62.2264 384.897
  endloop
 endfacet
 facet normal -0.761623 -0.136086 -0.63357
  outer loop
   vertex -31.2489 63.5389 384.852
   vertex -32.0872 63.9892 385.763
   vertex -31.8092 64.4493 385.33
  endloop
 endfacet
 facet normal -0.769356 -0.215932 -0.601219
  outer loop
   vertex -31.2489 63.5389 384.852
   vertex -30.9157 62.2264 384.897
   vertex -32.0872 63.9892 385.763
  endloop
 endfacet
 facet normal -0.766172 -0.155516 -0.623534
  outer loop
   vertex -31.3031 61.4968 385.555
   vertex -30.9157 62.2264 384.897
   vertex -30.4232 60.189 384.8
  endloop
 endfacet
 facet normal -0.717824 -0.141055 -0.681786
  outer loop
   vertex -30.0121 60.9196 384.216
   vertex -30.4232 60.189 384.8
   vertex -30.9157 62.2264 384.897
  endloop
 endfacet
 facet normal -0.745901 -0.211025 -0.631744
  outer loop
   vertex -31.2489 63.5389 384.852
   vertex -30.6779 64.0353 384.012
   vertex -30.9157 62.2264 384.897
  endloop
 endfacet
 facet normal -0.759262 -0.20274 -0.618399
  outer loop
   vertex -30.6779 64.0353 384.012
   vertex -30.0121 60.9196 384.216
   vertex -30.9157 62.2264 384.897
  endloop
 endfacet
 facet normal -0.757722 -0.0374681 -0.651501
  outer loop
   vertex -31.0923 64.6259 384.46
   vertex -30.6779 64.0353 384.012
   vertex -31.3292 64.2 384.76
  endloop
 endfacet
 facet normal -0.715847 -0.143431 -0.683368
  outer loop
   vertex -30.0121 60.9196 384.216
   vertex -29.8332 59.9315 384.236
   vertex -30.4232 60.189 384.8
  endloop
 endfacet
 facet normal -0.783146 -0.0819186 -0.616419
  outer loop
   vertex -30.3224 64.572 383.489
   vertex -30.6779 64.0353 384.012
   vertex -31.0923 64.6259 384.46
  endloop
 endfacet
 facet normal -0.70102 -0.141064 -0.699051
  outer loop
   vertex -29.8332 59.9315 384.236
   vertex -30.0121 60.9196 384.216
   vertex -29.2984 59.7168 383.743
  endloop
 endfacet
 facet normal -0.778661 -0.0893957 -0.621044
  outer loop
   vertex -30.6779 64.0353 384.012
   vertex -30.3224 64.572 383.489
   vertex -29.7727 64.265 382.844
  endloop
 endfacet
 facet normal -0.738067 -0.182501 -0.649578
  outer loop
   vertex -30.0121 60.9196 384.216
   vertex -28.8744 62.0846 382.596
   vertex -29.2984 59.7168 383.743
  endloop
 endfacet
 facet normal -0.398369 0.311635 -0.862662
  outer loop
   vertex 17.5914 50.196 338.409
   vertex 18.1204 49.9809 338.087
   vertex 18.0611 49.4871 337.936
  endloop
 endfacet
 facet normal -0.754459 -0.20211 -0.624454
  outer loop
   vertex -29.7727 64.265 382.844
   vertex -30.0121 60.9196 384.216
   vertex -30.6779 64.0353 384.012
  endloop
 endfacet
 facet normal -0.662532 -0.216279 -0.71713
  outer loop
   vertex -28.8744 62.0846 382.596
   vertex -28.6942 59.8316 383.109
   vertex -29.1603 59.9563 383.502
  endloop
 endfacet
 facet normal -0.743944 -0.204368 -0.636224
  outer loop
   vertex -28.8744 62.0846 382.596
   vertex -28.2153 59.8286 382.55
   vertex -28.6942 59.8316 383.109
  endloop
 endfacet
 facet normal -0.716795 -0.220059 -0.661648
  outer loop
   vertex -29.7727 64.265 382.844
   vertex -28.8744 62.0846 382.596
   vertex -30.0121 60.9196 384.216
  endloop
 endfacet
 facet normal -0.769167 -0.249999 -0.588117
  outer loop
   vertex -28.8744 62.0846 382.596
   vertex -29.7727 64.265 382.844
   vertex -29.1115 63.8845 382.141
  endloop
 endfacet
 facet normal -0.710932 -0.193912 -0.675999
  outer loop
   vertex -28.1114 61.2534 382.032
   vertex -28.2153 59.8286 382.55
   vertex -28.8744 62.0846 382.596
  endloop
 endfacet
 facet normal -0.738863 -0.255012 -0.623738
  outer loop
   vertex -29.1115 63.8845 382.141
   vertex -28.1114 61.2534 382.032
   vertex -28.8744 62.0846 382.596
  endloop
 endfacet
 facet normal -0.716856 -0.19557 -0.669231
  outer loop
   vertex 18.5294 48.5155 337.621
   vertex 18.4724 47.4036 338.007
   vertex 17.8109 49.1302 338.211
  endloop
 endfacet
 facet normal -0.711892 -0.193516 -0.675101
  outer loop
   vertex -28.1114 61.2534 382.032
   vertex -27.5625 60.1377 381.773
   vertex -28.2153 59.8286 382.55
  endloop
 endfacet
 facet normal -0.752871 -0.175517 -0.634333
  outer loop
   vertex -29.0792 64.3133 381.984
   vertex -28.142 63.7122 381.038
   vertex -29.1115 63.8845 382.141
  endloop
 endfacet
 facet normal -0.731298 -0.251715 -0.633911
  outer loop
   vertex -28.1114 61.2534 382.032
   vertex -29.1115 63.8845 382.141
   vertex -27.5814 61.5067 381.32
  endloop
 endfacet
 facet normal -0.74367 -0.219254 -0.631572
  outer loop
   vertex -27.5814 61.5067 381.32
   vertex -27.5625 60.1377 381.773
   vertex -28.1114 61.2534 382.032
  endloop
 endfacet
 facet normal -0.72007 -0.226928 -0.655746
  outer loop
   vertex -27.5814 61.5067 381.32
   vertex -26.8031 59.9011 381.021
   vertex -27.5625 60.1377 381.773
  endloop
 endfacet
 facet normal -0.74197 -0.243321 -0.62472
  outer loop
   vertex -26.8031 59.9011 381.021
   vertex -27.5814 61.5067 381.32
   vertex -26.3147 60.1423 380.347
  endloop
 endfacet
 facet normal -0.748838 -0.172068 -0.640027
  outer loop
   vertex -28.142 63.7122 381.038
   vertex -28.4677 64.3448 381.249
   vertex -27.6661 64.1444 380.365
  endloop
 endfacet
 facet normal -0.726844 -0.265732 -0.633312
  outer loop
   vertex -27.5814 61.5067 381.32
   vertex -28.142 63.7122 381.038
   vertex -26.8366 63.6021 379.586
  endloop
 endfacet
 facet normal -0.744073 -0.267417 -0.612244
  outer loop
   vertex -28.142 63.7122 381.038
   vertex -27.5814 61.5067 381.32
   vertex -29.1115 63.8845 382.141
  endloop
 endfacet
 facet normal -0.735888 -0.25687 -0.626488
  outer loop
   vertex -26.8366 63.6021 379.586
   vertex -25.6099 60.1976 379.541
   vertex -27.5814 61.5067 381.32
  endloop
 endfacet
 facet normal -0.728484 -0.211674 -0.65154
  outer loop
   vertex -25.6099 60.1976 379.541
   vertex -26.3147 60.1423 380.347
   vertex -27.5814 61.5067 381.32
  endloop
 endfacet
 facet normal -0.719335 0.155546 -0.677025
  outer loop
   vertex -27.6661 64.1444 380.365
   vertex -27.8389 64.3856 380.604
   vertex -27.1692 64.3184 379.877
  endloop
 endfacet
 facet normal -0.736474 -0.196841 -0.647193
  outer loop
   vertex -26.8366 63.6021 379.586
   vertex -28.142 63.7122 381.038
   vertex -27.6661 64.1444 380.365
  endloop
 endfacet
 facet normal -0.721604 0.247695 -0.646479
  outer loop
   vertex -27.1692 64.3184 379.877
   vertex -26.7187 64.1483 379.309
   vertex -27.6661 64.1444 380.365
  endloop
 endfacet
 facet normal -0.732471 -0.175496 -0.65779
  outer loop
   vertex -26.7187 64.1483 379.309
   vertex -26.8366 63.6021 379.586
   vertex -27.6661 64.1444 380.365
  endloop
 endfacet
 facet normal -0.717555 0.25886 -0.646611
  outer loop
   vertex -27.1692 64.3184 379.877
   vertex -26.5496 64.3048 379.184
   vertex -26.7187 64.1483 379.309
  endloop
 endfacet
 facet normal -0.666319 -0.102024 -0.738655
  outer loop
   vertex 17.8109 49.1302 338.211
   vertex 17.4926 49.7828 338.408
   vertex 18.0611 49.4871 337.936
  endloop
 endfacet
 facet normal -0.587373 0.142389 -0.796692
  outer loop
   vertex 18.0611 49.4871 337.936
   vertex 17.4926 49.7828 338.408
   vertex 17.5914 50.196 338.409
  endloop
 endfacet
 facet normal -0.718995 -0.250495 -0.648304
  outer loop
   vertex -26.8366 63.6021 379.586
   vertex -25.6681 64.1303 378.086
   vertex -25.6099 60.1976 379.541
  endloop
 endfacet
 facet normal -0.526726 -0.301795 -0.794657
  outer loop
   vertex -25.4456 62.041 378.732
   vertex -25.6099 60.1976 379.541
   vertex -25.6681 64.1303 378.086
  endloop
 endfacet
 facet normal -0.749521 -0.163535 -0.641463
  outer loop
   vertex -26.7187 64.1483 379.309
   vertex -25.6681 64.1303 378.086
   vertex -26.8366 63.6021 379.586
  endloop
 endfacet
 facet normal -0.703117 -0.232275 -0.672068
  outer loop
   vertex -25.6099 60.1976 379.541
   vertex -25.4456 62.041 378.732
   vertex -24.7932 60.3757 378.625
  endloop
 endfacet
 facet normal -0.699369 -0.278068 -0.658454
  outer loop
   vertex -24.1519 61.9271 377.406
   vertex -25.4456 62.041 378.732
   vertex -25.6681 64.1303 378.086
  endloop
 endfacet
 facet normal -0.705919 -0.233591 -0.668665
  outer loop
   vertex -24.1519 61.9271 377.406
   vertex -24.7932 60.3757 378.625
   vertex -25.4456 62.041 378.732
  endloop
 endfacet
 facet normal -0.713094 -0.226535 -0.66346
  outer loop
   vertex -23.8218 60.273 377.616
   vertex -24.7932 60.3757 378.625
   vertex -24.1519 61.9271 377.406
  endloop
 endfacet
 facet normal -0.728435 -0.313237 -0.609315
  outer loop
   vertex -25.6681 64.1303 378.086
   vertex -24.9955 63.9317 377.384
   vertex -24.1519 61.9271 377.406
  endloop
 endfacet
 facet normal -0.68923 -0.224981 -0.688728
  outer loop
   vertex -23.8218 60.273 377.616
   vertex -24.1519 61.9271 377.406
   vertex -23.3261 60.4932 377.048
  endloop
 endfacet
 facet normal -0.734931 -0.211417 -0.644344
  outer loop
   vertex -24.5161 64.4992 376.651
   vertex -24.9955 63.9317 377.384
   vertex -25.6681 64.1303 378.086
  endloop
 endfacet
 facet normal -0.729032 -0.202037 -0.653983
  outer loop
   vertex 17.8058 47.4104 338.748
   vertex 17.8109 49.1302 338.211
   vertex 18.4724 47.4036 338.007
  endloop
 endfacet
 facet normal -0.70178 -0.236376 -0.672035
  outer loop
   vertex -23.2392 61.7278 376.523
   vertex -23.3261 60.4932 377.048
   vertex -24.1519 61.9271 377.406
  endloop
 endfacet
 facet normal -0.687476 -0.242668 -0.684463
  outer loop
   vertex -23.2392 61.7278 376.523
   vertex -22.3177 60.426 376.059
   vertex -23.3261 60.4932 377.048
  endloop
 endfacet
 facet normal -0.696609 -0.300308 -0.651576
  outer loop
   vertex -22.7366 63.7429 375.056
   vertex -24.1519 61.9271 377.406
   vertex -24.9955 63.9317 377.384
  endloop
 endfacet
 facet normal -0.696226 -0.300826 -0.651746
  outer loop
   vertex -23.2392 61.7278 376.523
   vertex -24.1519 61.9271 377.406
   vertex -22.7366 63.7429 375.056
  endloop
 endfacet
 facet normal -0.70894 -0.319816 -0.628587
  outer loop
   vertex -21.3157 60.7129 374.87
   vertex -21.9574 60.3448 375.781
   vertex -23.2392 61.7278 376.523
  endloop
 endfacet
 facet normal -0.691869 -0.300367 -0.65658
  outer loop
   vertex -20.7563 63.2332 373.218
   vertex -23.2392 61.7278 376.523
   vertex -21.5353 63.528 373.904
  endloop
 endfacet
 facet normal -0.705731 -0.272128 -0.654133
  outer loop
   vertex -23.2392 61.7278 376.523
   vertex -20.7563 63.2332 373.218
   vertex -21.3157 60.7129 374.87
  endloop
 endfacet
 facet normal -0.69252 -0.289553 -0.660739
  outer loop
   vertex -22.4193 64.7757 374.328
   vertex -21.6062 64.9213 373.412
   vertex -23.2392 61.7278 376.523
  endloop
 endfacet
 facet normal -0.714854 -0.264901 -0.647157
  outer loop
   vertex -21.6062 64.9213 373.412
   vertex -21.5353 63.528 373.904
   vertex -23.2392 61.7278 376.523
  endloop
 endfacet
 facet normal -0.686608 -0.28736 -0.667827
  outer loop
   vertex -19.9413 61.7981 372.99
   vertex -20.5354 60.8239 374.02
   vertex -21.3157 60.7129 374.87
  endloop
 endfacet
 facet normal -0.715756 -0.204268 -0.667808
  outer loop
   vertex -21.8087 65.5295 373.443
   vertex -21.6062 64.9213 373.412
   vertex -22.4193 64.7757 374.328
  endloop
 endfacet
 facet normal -0.688102 -0.284744 -0.66741
  outer loop
   vertex -21.3157 60.7129 374.87
   vertex -20.7563 63.2332 373.218
   vertex -19.9413 61.7981 372.99
  endloop
 endfacet
 facet normal -0.691902 -0.272522 -0.668584
  outer loop
   vertex -20.9499 64.3552 372.961
   vertex -20.7563 63.2332 373.218
   vertex -21.5353 63.528 373.904
  endloop
 endfacet
 facet normal -0.692955 -0.271163 -0.668045
  outer loop
   vertex -21.6062 64.9213 373.412
   vertex -20.9499 64.3552 372.961
   vertex -21.5353 63.528 373.904
  endloop
 endfacet
 facet normal -0.721641 -0.244618 -0.647608
  outer loop
   vertex -19.9413 61.7981 372.99
   vertex -19.8502 60.9495 373.209
   vertex -20.5354 60.8239 374.02
  endloop
 endfacet
 facet normal -0.720744 -0.206234 -0.661812
  outer loop
   vertex -21.3139 65.3053 372.974
   vertex -21.6062 64.9213 373.412
   vertex -21.8087 65.5295 373.443
  endloop
 endfacet
 facet normal -0.686904 -0.253848 -0.680973
  outer loop
   vertex -21.3139 65.3053 372.974
   vertex -20.9499 64.3552 372.961
   vertex -21.6062 64.9213 373.412
  endloop
 endfacet
 facet normal -0.702399 -0.247639 -0.667316
  outer loop
   vertex -19.2293 60.8026 372.61
   vertex -19.8502 60.9495 373.209
   vertex -19.9413 61.7981 372.99
  endloop
 endfacet
 facet normal -0.671603 -0.24775 -0.698262
  outer loop
   vertex -20.8395 65.4285 372.474
   vertex -20.9499 64.3552 372.961
   vertex -21.3139 65.3053 372.974
  endloop
 endfacet
 facet normal -0.778207 -0.360219 -0.514428
  outer loop
   vertex -19.2293 60.8026 372.61
   vertex -19.9413 61.7981 372.99
   vertex -20.7563 63.2332 373.218
  endloop
 endfacet
 facet normal -0.706913 -0.11215 -0.698352
  outer loop
   vertex -21.4259 65.7933 373.009
   vertex -20.8395 65.4285 372.474
   vertex -21.3139 65.3053 372.974
  endloop
 endfacet
 facet normal -0.679044 -0.244264 -0.692267
  outer loop
   vertex -20.8395 65.4285 372.474
   vertex -19.8326 65.0355 371.625
   vertex -20.9499 64.3552 372.961
  endloop
 endfacet
 facet normal -0.726704 -0.143255 -0.671848
  outer loop
   vertex -20.8395 65.4285 372.474
   vertex -20.9586 65.9435 372.493
   vertex -20.4776 65.7687 372.01
  endloop
 endfacet
 facet normal -0.664546 -0.273907 -0.695237
  outer loop
   vertex -19.8326 65.0355 371.625
   vertex -20.7563 63.2332 373.218
   vertex -20.9499 64.3552 372.961
  endloop
 endfacet
 facet normal -0.678255 -0.230229 -0.697829
  outer loop
   vertex -20.4776 65.7687 372.01
   vertex -19.8326 65.0355 371.625
   vertex -20.8395 65.4285 372.474
  endloop
 endfacet
 facet normal -0.671927 -0.247523 -0.698031
  outer loop
   vertex -14.8213 65.0266 366.869
   vertex -19.2293 60.8026 372.61
   vertex -20.7563 63.2332 373.218
  endloop
 endfacet
 facet normal -0.661773 -0.27669 -0.696778
  outer loop
   vertex -20.7563 63.2332 373.218
   vertex -19.8326 65.0355 371.625
   vertex -14.8213 65.0266 366.869
  endloop
 endfacet
 facet normal -0.666781 -0.211289 -0.714675
  outer loop
   vertex -20.1184 65.9848 371.611
   vertex -19.8326 65.0355 371.625
   vertex -20.4776 65.7687 372.01
  endloop
 endfacet
 facet normal -0.741321 -0.123099 -0.659765
  outer loop
   vertex -19.2293 60.8026 372.61
   vertex -14.8213 65.0266 366.869
   vertex -18.3295 61.0811 371.547
  endloop
 endfacet
 facet normal -0.694304 -0.212623 -0.687557
  outer loop
   vertex 17.8058 47.4104 338.748
   vertex 17.2191 47.7223 339.244
   vertex 17.8109 49.1302 338.211
  endloop
 endfacet
 facet normal -0.644873 -0.370889 -0.668266
  outer loop
   vertex -18.3295 61.0811 371.547
   vertex -17.6415 61.256 370.786
   vertex -17.8504 60.7958 371.243
  endloop
 endfacet
 facet normal -0.702057 -0.131141 -0.699942
  outer loop
   vertex 17.4926 49.7828 338.408
   vertex 17.8109 49.1302 338.211
   vertex 17.1223 49.5394 338.825
  endloop
 endfacet
 facet normal -0.674387 -0.213464 -0.706849
  outer loop
   vertex -20.1184 65.9848 371.611
   vertex -19.52 66.1076 371.003
   vertex -19.8326 65.0355 371.625
  endloop
 endfacet
 facet normal -0.525761 0.127765 -0.840982
  outer loop
   vertex 17.4926 49.7828 338.408
   vertex 17.0409 50.353 338.777
   vertex 17.5914 50.196 338.409
  endloop
 endfacet
 facet normal -0.709195 -0.178176 -0.682126
  outer loop
   vertex -18.3295 61.0811 371.547
   vertex -14.8213 65.0266 366.869
   vertex -17.6415 61.256 370.786
  endloop
 endfacet
 facet normal -0.665803 -0.255374 -0.701064
  outer loop
   vertex -19.8326 65.0355 371.625
   vertex -18.4858 65.8095 370.064
   vertex -14.8213 65.0266 366.869
  endloop
 endfacet
 facet normal -0.689631 -0.20233 -0.695321
  outer loop
   vertex -19.8326 65.0355 371.625
   vertex -19.52 66.1076 371.003
   vertex -18.4858 65.8095 370.064
  endloop
 endfacet
 facet normal -0.687557 -0.142667 -0.711977
  outer loop
   vertex -18.4858 65.8095 370.064
   vertex -19.52 66.1076 371.003
   vertex -19.0265 66.449 370.458
  endloop
 endfacet
 facet normal -0.690768 -0.203988 -0.693706
  outer loop
   vertex -17.6415 61.256 370.786
   vertex -14.8213 65.0266 366.869
   vertex -16.8919 60.9621 370.126
  endloop
 endfacet
 facet normal -0.707715 -0.0888876 -0.700884
  outer loop
   vertex -18.2865 66.7764 369.626
   vertex -17.9092 66.6347 369.263
   vertex -18.468 66.4947 369.845
  endloop
 endfacet
 facet normal -0.700206 -0.193892 -0.687108
  outer loop
   vertex -14.8213 65.0266 366.869
   vertex -14.6786 60.8505 367.902
   vertex -16.8919 60.9621 370.126
  endloop
 endfacet
 facet normal -0.680357 -0.207022 -0.703034
  outer loop
   vertex -18.4858 65.8095 370.064
   vertex -18.468 66.4947 369.845
   vertex -17.9092 66.6347 369.263
  endloop
 endfacet
 facet normal -0.699298 -0.0326625 -0.714084
  outer loop
   vertex -17.9001 66.9863 369.238
   vertex -17.9092 66.6347 369.263
   vertex -18.2865 66.7764 369.626
  endloop
 endfacet
 facet normal -0.66724 -0.223464 -0.710531
  outer loop
   vertex -17.9092 66.6347 369.263
   vertex -14.8213 65.0266 366.869
   vertex -18.4858 65.8095 370.064
  endloop
 endfacet
 facet normal -0.731009 0.199683 -0.652497
  outer loop
   vertex -17.673 67.2001 369.049
   vertex -17.4253 67.0318 368.72
   vertex -17.9001 66.9863 369.238
  endloop
 endfacet
 facet normal -0.735596 -0.0290724 -0.676796
  outer loop
   vertex -17.4253 67.0318 368.72
   vertex -17.9092 66.6347 369.263
   vertex -17.9001 66.9863 369.238
  endloop
 endfacet
 facet normal -0.827746 -0.178021 -0.532114
  outer loop
   vertex -17.5315 67.2835 368.801
   vertex -17.4253 67.0318 368.72
   vertex -17.673 67.2001 369.049
  endloop
 endfacet
 facet normal -0.789775 0.0494947 -0.611397
  outer loop
   vertex -17.1073 67.2883 368.33
   vertex -17.4253 67.0318 368.72
   vertex -17.3384 67.4304 368.64
  endloop
 endfacet
 facet normal -0.818883 -0.0978569 -0.565557
  outer loop
   vertex -17.1254 67.5784 368.306
   vertex -17.1073 67.2883 368.33
   vertex -17.3384 67.4304 368.64
  endloop
 endfacet
 facet normal -0.664751 -0.208483 -0.717384
  outer loop
   vertex -17.1073 67.2883 368.33
   vertex -14.8213 65.0266 366.869
   vertex -17.9092 66.6347 369.263
  endloop
 endfacet
 facet normal -0.501038 0.210703 -0.839384
  outer loop
   vertex 17.5914 50.196 338.409
   vertex 17.0409 50.353 338.777
   vertex 17.1267 50.7124 338.816
  endloop
 endfacet
 facet normal -0.710628 -0.1019 -0.696149
  outer loop
   vertex -17.1254 67.5784 368.306
   vertex -16.7062 67.5517 367.882
   vertex -17.1073 67.2883 368.33
  endloop
 endfacet
 facet normal -0.650057 -0.180173 -0.738216
  outer loop
   vertex -14.8213 65.0266 366.869
   vertex -17.1073 67.2883 368.33
   vertex -15.6179 66.2822 367.264
  endloop
 endfacet
 facet normal -0.660671 -0.216475 -0.718785
  outer loop
   vertex -16.7062 67.5517 367.882
   vertex -15.6179 66.2822 367.264
   vertex -17.1073 67.2883 368.33
  endloop
 endfacet
 facet normal -0.631183 -0.173037 -0.756086
  outer loop
   vertex -16.4991 68.142 367.574
   vertex -15.6179 66.2822 367.264
   vertex -16.7062 67.5517 367.882
  endloop
 endfacet
 facet normal -0.677223 -0.15954 -0.718273
  outer loop
   vertex -14.3741 60.2963 367.738
   vertex -14.6786 60.8505 367.902
   vertex -13.9828 60.2696 367.375
  endloop
 endfacet
 facet normal -0.690712 -0.195797 -0.696118
  outer loop
   vertex -14.8213 65.0266 366.869
   vertex -13.9828 60.2696 367.375
   vertex -14.6786 60.8505 367.902
  endloop
 endfacet
 facet normal -0.669395 -0.194267 -0.717057
  outer loop
   vertex -14.8213 65.0266 366.869
   vertex -13.5446 60.0589 367.023
   vertex -13.9828 60.2696 367.375
  endloop
 endfacet
 facet normal -0.690616 -0.21197 -0.691461
  outer loop
   vertex -15.6179 66.2822 367.264
   vertex -16.4991 68.142 367.574
   vertex -13.811 66.9878 365.243
  endloop
 endfacet
 facet normal -0.535758 -0.742222 -0.402579
  outer loop
   vertex -13.1147 59.7947 366.938
   vertex -13.5446 60.0589 367.023
   vertex -13.2697 60.0373 366.697
  endloop
 endfacet
 facet normal -0.753862 -0.213013 -0.621544
  outer loop
   vertex -13.5446 60.0589 367.023
   vertex -14.8213 65.0266 366.869
   vertex -13.2697 60.0373 366.697
  endloop
 endfacet
 facet normal -0.688167 -0.21898 -0.691718
  outer loop
   vertex -15.6179 66.2822 367.264
   vertex -13.811 66.9878 365.243
   vertex -14.8213 65.0266 366.869
  endloop
 endfacet
 facet normal -0.732286 -0.205347 -0.649299
  outer loop
   vertex -12.8174 59.7365 366.282
   vertex -13.2697 60.0373 366.697
   vertex -14.8213 65.0266 366.869
  endloop
 endfacet
 facet normal -0.681768 -0.136188 -0.71878
  outer loop
   vertex -13.811 66.9878 365.243
   vertex -16.4991 68.142 367.574
   vertex -15.2454 69.0068 366.221
  endloop
 endfacet
 facet normal -0.698091 -0.157637 -0.698441
  outer loop
   vertex -13.811 66.9878 365.243
   vertex -15.2454 69.0068 366.221
   vertex -14.0094 68.1102 365.188
  endloop
 endfacet
 facet normal -0.708645 -0.193139 -0.678616
  outer loop
   vertex -12.8174 59.7365 366.282
   vertex -14.8213 65.0266 366.869
   vertex -11.7671 60.029 365.102
  endloop
 endfacet
 facet normal -0.677977 -0.16072 -0.717298
  outer loop
   vertex -14.8213 65.0266 366.869
   vertex -9.84027 61.8132 362.881
   vertex -11.7671 60.029 365.102
  endloop
 endfacet
 facet normal -0.691284 -0.215659 -0.68965
  outer loop
   vertex -14.8213 65.0266 366.869
   vertex -13.811 66.9878 365.243
   vertex -9.84027 61.8132 362.881
  endloop
 endfacet
 facet normal -0.692273 -0.1569 -0.704372
  outer loop
   vertex -13.811 66.9878 365.243
   vertex -14.0094 68.1102 365.188
   vertex -13.4167 67.5826 364.723
  endloop
 endfacet
 facet normal -0.673115 -0.212747 -0.708276
  outer loop
   vertex -11.7671 60.029 365.102
   vertex -11.2643 60.2759 364.55
   vertex -11.2719 59.2612 364.862
  endloop
 endfacet
 facet normal -0.720744 -0.18683 -0.66755
  outer loop
   vertex 16.4475 47.8869 340.031
   vertex 17.8109 49.1302 338.211
   vertex 17.2191 47.7223 339.244
  endloop
 endfacet
 facet normal -0.692246 -0.156934 -0.704391
  outer loop
   vertex -13.4167 67.5826 364.723
   vertex -13.1309 66.8875 364.597
   vertex -13.811 66.9878 365.243
  endloop
 endfacet
 facet normal -0.715159 -0.197319 -0.670532
  outer loop
   vertex 17.1223 49.5394 338.825
   vertex 17.8109 49.1302 338.211
   vertex 16.4475 47.8869 340.031
  endloop
 endfacet
 facet normal -0.716751 -0.0871781 -0.691858
  outer loop
   vertex -9.84027 61.8132 362.881
   vertex -11.2643 60.2759 364.55
   vertex -11.7671 60.029 365.102
  endloop
 endfacet
 facet normal -0.697373 -0.205871 -0.686505
  outer loop
   vertex -11.2719 59.2612 364.862
   vertex -11.2643 60.2759 364.55
   vertex -10.7747 59.0776 364.412
  endloop
 endfacet
 facet normal -0.695474 -0.204838 -0.688736
  outer loop
   vertex -10.7747 59.0776 364.412
   vertex -11.2643 60.2759 364.55
   vertex -10.2915 59.7435 363.726
  endloop
 endfacet
 facet normal -0.73577 -0.435171 -0.518911
  outer loop
   vertex -10.435 58.6511 364.288
   vertex -10.7747 59.0776 364.412
   vertex -10.2765 58.7766 363.958
  endloop
 endfacet
 facet normal -0.684064 -0.142895 -0.715289
  outer loop
   vertex -10.2915 59.7435 363.726
   vertex -11.2643 60.2759 364.55
   vertex -9.84027 61.8132 362.881
  endloop
 endfacet
 facet normal -0.718412 -0.172817 -0.673809
  outer loop
   vertex -10.2915 59.7435 363.726
   vertex -10.2765 58.7766 363.958
   vertex -10.7747 59.0776 364.412
  endloop
 endfacet
 facet normal -0.667033 -0.175299 -0.724111
  outer loop
   vertex -11.2838 64.8854 363.467
   vertex -10.5218 64.2909 362.909
   vertex -9.84027 61.8132 362.881
  endloop
 endfacet
 facet normal -0.650871 -0.161004 -0.74192
  outer loop
   vertex -9.84027 61.8132 362.881
   vertex -9.33487 58.208 363.22
   vertex -10.2915 59.7435 363.726
  endloop
 endfacet
 facet normal -0.547741 0.0796665 -0.832847
  outer loop
   vertex -11.2838 64.8854 363.467
   vertex -10.6308 64.6077 363.011
   vertex -10.5218 64.2909 362.909
  endloop
 endfacet
 facet normal -0.694287 -0.183113 -0.696014
  outer loop
   vertex -9.84027 61.8132 362.881
   vertex -10.5218 64.2909 362.909
   vertex -9.96623 63.8607 362.468
  endloop
 endfacet
 facet normal -0.673472 -0.185762 -0.715491
  outer loop
   vertex -9.43779 62.3954 362.351
   vertex -9.84027 61.8132 362.881
   vertex -9.96623 63.8607 362.468
  endloop
 endfacet
 facet normal -0.682426 -0.162673 -0.712623
  outer loop
   vertex -8.30819 61.4183 361.504
   vertex -9.33487 58.208 363.22
   vertex -9.84027 61.8132 362.881
  endloop
 endfacet
 facet normal -0.726593 -0.128417 -0.67496
  outer loop
   vertex -8.30819 61.4183 361.504
   vertex -8.33394 58.7836 362.033
   vertex -9.33487 58.208 363.22
  endloop
 endfacet
 facet normal -0.841511 0.0981243 -0.531253
  outer loop
   vertex -9.43779 62.3954 362.351
   vertex -8.84066 63.185 361.551
   vertex -9.84027 61.8132 362.881
  endloop
 endfacet
 facet normal -0.686478 -0.191572 -0.701461
  outer loop
   vertex -8.84066 63.185 361.551
   vertex -9.43779 62.3954 362.351
   vertex -9.96623 63.8607 362.468
  endloop
 endfacet
 facet normal -0.6829 -0.187036 -0.706163
  outer loop
   vertex -8.84066 63.185 361.551
   vertex -8.30819 61.4183 361.504
   vertex -9.84027 61.8132 362.881
  endloop
 endfacet
 facet normal -0.693746 -0.190614 -0.694538
  outer loop
   vertex -8.84066 63.185 361.551
   vertex -7.94982 62.8322 360.758
   vertex -8.30819 61.4183 361.504
  endloop
 endfacet
 facet normal -0.686935 -0.195225 -0.700005
  outer loop
   vertex -7.47701 60.5482 360.931
   vertex -8.30819 61.4183 361.504
   vertex -7.94982 62.8322 360.758
  endloop
 endfacet
 facet normal -0.658276 -0.141995 -0.739263
  outer loop
   vertex -7.47701 60.5482 360.931
   vertex -8.33394 58.7836 362.033
   vertex -8.30819 61.4183 361.504
  endloop
 endfacet
 facet normal -0.678211 -0.0677775 -0.731735
  outer loop
   vertex -7.94982 62.8322 360.758
   vertex -8.84066 63.185 361.551
   vertex -8.17045 63.1504 360.933
  endloop
 endfacet
 facet normal -0.683044 -0.194718 -0.703943
  outer loop
   vertex -7.94982 62.8322 360.758
   vertex -6.79674 62.182 359.819
   vertex -7.47701 60.5482 360.931
  endloop
 endfacet
 facet normal -0.670282 -0.130696 -0.730507
  outer loop
   vertex -8.33394 58.7836 362.033
   vertex -7.47701 60.5482 360.931
   vertex -6.46454 59.7993 360.136
  endloop
 endfacet
 facet normal -0.709677 -0.112042 -0.695561
  outer loop
   vertex 17.0409 50.353 338.777
   vertex 17.4926 49.7828 338.408
   vertex 17.1223 49.5394 338.825
  endloop
 endfacet
 facet normal -0.663902 -0.211726 -0.717221
  outer loop
   vertex -6.79674 62.182 359.819
   vertex -6.55819 60.6481 360.051
   vertex -7.47701 60.5482 360.931
  endloop
 endfacet
 facet normal -0.675809 -0.146887 -0.722293
  outer loop
   vertex -7.47701 60.5482 360.931
   vertex -6.55819 60.6481 360.051
   vertex -6.46454 59.7993 360.136
  endloop
 endfacet
 facet normal -0.687357 -0.211967 -0.694702
  outer loop
   vertex -6.79674 62.182 359.819
   vertex -6.01262 61.8581 359.142
   vertex -6.55819 60.6481 360.051
  endloop
 endfacet
 facet normal -0.705168 -0.194315 -0.681894
  outer loop
   vertex -6.01262 61.8581 359.142
   vertex -5.8584 60.2772 359.433
   vertex -6.55819 60.6481 360.051
  endloop
 endfacet
 facet normal -0.697409 -0.147178 -0.701398
  outer loop
   vertex -5.8584 60.2772 359.433
   vertex -6.46454 59.7993 360.136
   vertex -6.55819 60.6481 360.051
  endloop
 endfacet
 facet normal -0.684463 -0.0911805 -0.723323
  outer loop
   vertex -8.33394 58.7836 362.033
   vertex -6.46454 59.7993 360.136
   vertex -5.65475 59.1702 359.449
  endloop
 endfacet
 facet normal -0.681995 -0.108196 -0.72331
  outer loop
   vertex -5.65475 59.1702 359.449
   vertex -6.00289 57.0595 360.093
   vertex -8.33394 58.7836 362.033
  endloop
 endfacet
 facet normal -0.700633 -0.145208 -0.69859
  outer loop
   vertex -5.39286 56.7092 359.554
   vertex -6.00289 57.0595 360.093
   vertex -5.24736 57.0992 359.327
  endloop
 endfacet
 facet normal -0.706023 -0.097559 -0.701437
  outer loop
   vertex -6.00289 57.0595 360.093
   vertex -5.65475 59.1702 359.449
   vertex -5.24736 57.0992 359.327
  endloop
 endfacet
 facet normal -0.701245 -0.139106 -0.699218
  outer loop
   vertex -6.46454 59.7993 360.136
   vertex -5.8584 60.2772 359.433
   vertex -5.65475 59.1702 359.449
  endloop
 endfacet
 facet normal -0.685151 -0.195979 -0.701542
  outer loop
   vertex -5.46076 61.7007 358.647
   vertex -5.8584 60.2772 359.433
   vertex -6.01262 61.8581 359.142
  endloop
 endfacet
 facet normal -0.71435 -0.0997149 -0.692648
  outer loop
   vertex -5.24736 57.0992 359.327
   vertex -5.65475 59.1702 359.449
   vertex -4.75521 59.6237 358.456
  endloop
 endfacet
 facet normal -0.701469 -0.139144 -0.698985
  outer loop
   vertex -5.8584 60.2772 359.433
   vertex -4.75521 59.6237 358.456
   vertex -5.65475 59.1702 359.449
  endloop
 endfacet
 facet normal -0.595483 0.280096 -0.752958
  outer loop
   vertex -5.46076 61.7007 358.647
   vertex -6.01262 61.8581 359.142
   vertex -5.28866 61.8112 358.552
  endloop
 endfacet
 facet normal -0.70946 -0.178298 -0.681819
  outer loop
   vertex -5.46076 61.7007 358.647
   vertex -4.75521 59.6237 358.456
   vertex -5.8584 60.2772 359.433
  endloop
 endfacet
 facet normal -0.564873 0.189239 -0.803186
  outer loop
   vertex -5.46076 61.7007 358.647
   vertex -5.28866 61.8112 358.552
   vertex -5.1061 61.694 358.396
  endloop
 endfacet
 facet normal -0.701522 -0.174768 -0.690886
  outer loop
   vertex -5.46076 61.7007 358.647
   vertex -4.50072 60.9899 357.852
   vertex -4.75521 59.6237 358.456
  endloop
 endfacet
 facet normal -0.670808 -0.121639 -0.731588
  outer loop
   vertex -4.75521 59.6237 358.456
   vertex -3.71163 58.217 357.733
   vertex -5.24736 57.0992 359.327
  endloop
 endfacet
 facet normal -0.693845 -0.179118 -0.697492
  outer loop
   vertex -4.50072 60.9899 357.852
   vertex -3.85487 60.7972 357.259
   vertex -4.75521 59.6237 358.456
  endloop
 endfacet
 facet normal -0.670935 -0.121362 -0.731517
  outer loop
   vertex -3.71163 58.217 357.733
   vertex -4.47043 56.6316 358.692
   vertex -5.24736 57.0992 359.327
  endloop
 endfacet
 facet normal -0.676005 -0.128576 -0.725593
  outer loop
   vertex -4.75521 59.6237 358.456
   vertex -3.73684 59.1452 357.592
   vertex -3.71163 58.217 357.733
  endloop
 endfacet
 facet normal -0.679709 -0.11305 -0.724718
  outer loop
   vertex -3.55724 55.9682 357.939
   vertex -4.47043 56.6316 358.692
   vertex -3.71163 58.217 357.733
  endloop
 endfacet
 facet normal -0.685616 -0.190607 -0.702566
  outer loop
   vertex -3.85487 60.7972 357.259
   vertex -3.73684 59.1452 357.592
   vertex -4.75521 59.6237 358.456
  endloop
 endfacet
 facet normal -0.674364 0.0117687 -0.738306
  outer loop
   vertex -3.94504 61.0886 357.346
   vertex -3.85487 60.7972 357.259
   vertex -4.50072 60.9899 357.852
  endloop
 endfacet
 facet normal -0.688962 -0.190207 -0.699395
  outer loop
   vertex -3.85487 60.7972 357.259
   vertex -2.83669 59.0764 356.724
   vertex -3.73684 59.1452 357.592
  endloop
 endfacet
 facet normal -0.693553 -0.126563 -0.709201
  outer loop
   vertex -3.71163 58.217 357.733
   vertex -3.73684 59.1452 357.592
   vertex -2.83669 59.0764 356.724
  endloop
 endfacet
 facet normal -0.691469 -0.112834 -0.71354
  outer loop
   vertex -3.55724 55.9682 357.939
   vertex -3.71163 58.217 357.733
   vertex -1.85002 57.9703 355.968
  endloop
 endfacet
 facet normal -0.719544 -0.0669159 -0.691216
  outer loop
   vertex -1.85002 57.9703 355.968
   vertex -2.43732 56.4866 356.723
   vertex -3.55724 55.9682 357.939
  endloop
 endfacet
 facet normal -0.599929 0.0618359 -0.79766
  outer loop
   vertex -3.18098 60.7693 356.75
   vertex -2.7232 60.1926 356.361
   vertex -3.85487 60.7972 357.259
  endloop
 endfacet
 facet normal -0.666372 -0.168464 -0.726339
  outer loop
   vertex -2.7232 60.1926 356.361
   vertex -2.83669 59.0764 356.724
   vertex -3.85487 60.7972 357.259
  endloop
 endfacet
 facet normal -0.691192 -0.130774 -0.710741
  outer loop
   vertex -2.83669 59.0764 356.724
   vertex -1.85002 57.9703 355.968
   vertex -3.71163 58.217 357.733
  endloop
 endfacet
 facet normal -0.7158 -0.0702048 -0.694767
  outer loop
   vertex -1.85002 57.9703 355.968
   vertex 1.18354 57.8078 352.859
   vertex -2.43732 56.4866 356.723
  endloop
 endfacet
 facet normal -0.670261 -0.167012 -0.723089
  outer loop
   vertex -2.7232 60.1926 356.361
   vertex -2.15883 60.1573 355.846
   vertex -2.83669 59.0764 356.724
  endloop
 endfacet
 facet normal -0.690002 -0.128661 -0.71228
  outer loop
   vertex -1.85002 57.9703 355.968
   vertex -2.83669 59.0764 356.724
   vertex -1.88762 58.6646 355.879
  endloop
 endfacet
 facet normal -0.688855 -0.171786 -0.70425
  outer loop
   vertex 1.18354 57.8078 352.859
   vertex -1.89153 55.3229 356.473
   vertex -2.43732 56.4866 356.723
  endloop
 endfacet
 facet normal -0.745516 -0.0445775 -0.664996
  outer loop
   vertex -1.51081 55.3402 356.045
   vertex -1.89153 55.3229 356.473
   vertex 1.18354 57.8078 352.859
  endloop
 endfacet
 facet normal -0.691801 -0.141344 -0.70812
  outer loop
   vertex -2.15883 60.1573 355.846
   vertex -1.88762 58.6646 355.879
   vertex -2.83669 59.0764 356.724
  endloop
 endfacet
 facet normal -0.713251 -0.126976 -0.689312
  outer loop
   vertex -1.85002 57.9703 355.968
   vertex -1.88762 58.6646 355.879
   vertex 1.18354 57.8078 352.859
  endloop
 endfacet
 facet normal -0.690325 -0.141108 -0.709606
  outer loop
   vertex -1.88762 58.6646 355.879
   vertex -2.15883 60.1573 355.846
   vertex -1.78516 59.9385 355.526
  endloop
 endfacet
 facet normal -0.682603 -0.171781 -0.710313
  outer loop
   vertex 1.18354 57.8078 352.859
   vertex -0.945878 55.1381 355.551
   vertex -1.51081 55.3402 356.045
  endloop
 endfacet
 facet normal -0.686615 -0.166052 -0.707804
  outer loop
   vertex -0.526761 54.8927 355.202
   vertex -0.945878 55.1381 355.551
   vertex 1.18354 57.8078 352.859
  endloop
 endfacet
 facet normal -0.7135 -0.132343 -0.688043
  outer loop
   vertex -1.24008 59.655 355.017
   vertex 1.18354 57.8078 352.859
   vertex -1.88762 58.6646 355.879
  endloop
 endfacet
 facet normal -0.710344 -0.476613 -0.51793
  outer loop
   vertex -0.554997 54.7044 355.414
   vertex -0.945878 55.1381 355.551
   vertex -0.526761 54.8927 355.202
  endloop
 endfacet
 facet normal -0.712606 -0.133534 -0.688739
  outer loop
   vertex -1.78516 59.9385 355.526
   vertex -1.24008 59.655 355.017
   vertex -1.88762 58.6646 355.879
  endloop
 endfacet
 facet normal -0.672778 -0.0186723 -0.739609
  outer loop
   vertex -1.24008 59.655 355.017
   vertex -0.222483 59.1139 354.105
   vertex 1.18354 57.8078 352.859
  endloop
 endfacet
 facet normal -0.687009 -0.165599 -0.707528
  outer loop
   vertex -0.122999 54.8497 354.82
   vertex -0.526761 54.8927 355.202
   vertex 1.18354 57.8078 352.859
  endloop
 endfacet
 facet normal -0.689886 -0.162887 -0.705355
  outer loop
   vertex 1.18354 57.8078 352.859
   vertex 0.591126 54.5403 354.193
   vertex -0.122999 54.8497 354.82
  endloop
 endfacet
 facet normal -0.719075 -0.146927 -0.679223
  outer loop
   vertex 0.591126 54.5403 354.193
   vertex 1.18354 57.8078 352.859
   vertex 1.2366 54.1642 353.591
  endloop
 endfacet
 facet normal -0.699886 -0.150465 -0.698227
  outer loop
   vertex 3.05156 54.3857 351.724
   vertex 1.2366 54.1642 353.591
   vertex 1.18354 57.8078 352.859
  endloop
 endfacet
 facet normal -0.703306 -0.0836459 -0.705949
  outer loop
   vertex 0.182903 59.1067 353.702
   vertex 1.18354 57.8078 352.859
   vertex -0.222483 59.1139 354.105
  endloop
 endfacet
 facet normal -0.685005 -0.225719 -0.692689
  outer loop
   vertex 1.83487 53.9567 353.067
   vertex 1.2366 54.1642 353.591
   vertex 3.05156 54.3857 351.724
  endloop
 endfacet
 facet normal -0.697395 -0.187535 -0.691716
  outer loop
   vertex 3.05156 54.3857 351.724
   vertex 2.28656 53.6785 352.687
   vertex 1.83487 53.9567 353.067
  endloop
 endfacet
 facet normal -0.700703 -0.151239 -0.697239
  outer loop
   vertex 1.18354 57.8078 352.859
   vertex 2.22583 58.0085 351.768
   vertex 3.05156 54.3857 351.724
  endloop
 endfacet
 facet normal -0.70066 -0.151229 -0.697284
  outer loop
   vertex 3.67634 56.4246 350.654
   vertex 3.05156 54.3857 351.724
   vertex 2.22583 58.0085 351.768
  endloop
 endfacet
 facet normal -0.678214 -0.167658 -0.715484
  outer loop
   vertex 3.67634 56.4246 350.654
   vertex 4.05082 52.9466 351.114
   vertex 3.05156 54.3857 351.724
  endloop
 endfacet
 facet normal -0.692493 -0.135848 -0.708519
  outer loop
   vertex 2.22583 58.0085 351.768
   vertex 3.41881 57.3253 350.733
   vertex 3.67634 56.4246 350.654
  endloop
 endfacet
 facet normal -0.659625 -0.123568 -0.741368
  outer loop
   vertex 3.67634 56.4246 350.654
   vertex 3.41881 57.3253 350.733
   vertex 4.12749 57.154 350.131
  endloop
 endfacet
 facet normal -0.677071 -0.167678 -0.71656
  outer loop
   vertex 4.05082 52.9466 351.114
   vertex 3.67634 56.4246 350.654
   vertex 4.74285 56.806 349.557
  endloop
 endfacet
 facet normal -0.732303 -0.131622 -0.668137
  outer loop
   vertex 5.02479 52.6836 350.172
   vertex 4.57756 52.8621 350.627
   vertex 6.5966 55.8168 347.832
  endloop
 endfacet
 facet normal -0.702169 -0.0734791 -0.708209
  outer loop
   vertex 3.67634 56.4246 350.654
   vertex 4.12749 57.154 350.131
   vertex 4.74285 56.806 349.557
  endloop
 endfacet
 facet normal -0.682301 -0.199166 -0.703419
  outer loop
   vertex 4.57756 52.8621 350.627
   vertex 4.05082 52.9466 351.114
   vertex 6.5966 55.8168 347.832
  endloop
 endfacet
 facet normal -0.704908 -0.162089 -0.69053
  outer loop
   vertex 5.02479 52.6836 350.172
   vertex 6.5966 55.8168 347.832
   vertex 5.62376 52.4517 349.615
  endloop
 endfacet
 facet normal -0.71483 -0.147588 -0.683546
  outer loop
   vertex 4.74285 56.806 349.557
   vertex 6.5966 55.8168 347.832
   vertex 4.05082 52.9466 351.114
  endloop
 endfacet
 facet normal -0.692187 -0.360722 -0.625106
  outer loop
   vertex 5.62376 52.4517 349.615
   vertex 6.04743 52.2002 349.291
   vertex 5.7315 52.2155 349.632
  endloop
 endfacet
 facet normal -0.665154 -0.190285 -0.722054
  outer loop
   vertex 6.5966 55.8168 347.832
   vertex 6.04743 52.2002 349.291
   vertex 5.62376 52.4517 349.615
  endloop
 endfacet
 facet normal -0.658814 0.0713735 -0.748913
  outer loop
   vertex 4.74285 56.806 349.557
   vertex 5.38771 56.5465 348.965
   vertex 6.5966 55.8168 347.832
  endloop
 endfacet
 facet normal -0.656761 0.0767472 -0.750183
  outer loop
   vertex 5.74931 56.5815 348.652
   vertex 6.5966 55.8168 347.832
   vertex 5.38771 56.5465 348.965
  endloop
 endfacet
 facet normal -0.708634 -0.168772 -0.685094
  outer loop
   vertex 6.04743 52.2002 349.291
   vertex 6.5966 55.8168 347.832
   vertex 7.02601 52.4388 348.22
  endloop
 endfacet
 facet normal -0.693321 -0.168609 -0.700626
  outer loop
   vertex 7.02601 52.4388 348.22
   vertex 6.5966 55.8168 347.832
   vertex 9.38419 52.7563 345.81
  endloop
 endfacet
 facet normal -0.692164 -0.101649 -0.714547
  outer loop
   vertex 6.86354 55.9884 347.549
   vertex 7.2979 55.6318 347.179
   vertex 6.5966 55.8168 347.832
  endloop
 endfacet
 facet normal -0.694535 -0.146509 -0.704384
  outer loop
   vertex 7.2979 55.6318 347.179
   vertex 7.74202 54.6129 346.953
   vertex 6.5966 55.8168 347.832
  endloop
 endfacet
 facet normal -0.786418 -0.412574 -0.459706
  outer loop
   vertex 7.74202 54.6129 346.953
   vertex 9.38419 52.7563 345.81
   vertex 6.5966 55.8168 347.832
  endloop
 endfacet
 facet normal -0.706918 -0.257475 -0.658766
  outer loop
   vertex 8.73645 51.0611 346.923
   vertex 8.25772 51.3342 347.33
   vertex 7.02601 52.4388 348.22
  endloop
 endfacet
 facet normal -0.657571 -0.121723 -0.743494
  outer loop
   vertex 7.74202 54.6129 346.953
   vertex 7.2979 55.6318 347.179
   vertex 7.91739 55.4125 346.667
  endloop
 endfacet
 facet normal -0.694224 -0.215328 -0.686795
  outer loop
   vertex 8.73645 51.0611 346.923
   vertex 7.02601 52.4388 348.22
   vertex 9.18478 51.051 346.473
  endloop
 endfacet
 facet normal -0.702605 -0.0980045 -0.704799
  outer loop
   vertex 7.91739 55.4125 346.667
   vertex 8.51887 55.0269 346.121
   vertex 7.74202 54.6129 346.953
  endloop
 endfacet
 facet normal -0.702298 -0.200696 -0.683007
  outer loop
   vertex 9.38419 52.7563 345.81
   vertex 7.74202 54.6129 346.953
   vertex 8.66288 54.2764 346.105
  endloop
 endfacet
 facet normal -0.695704 -0.118399 -0.708503
  outer loop
   vertex 7.74202 54.6129 346.953
   vertex 8.51887 55.0269 346.121
   vertex 8.66288 54.2764 346.105
  endloop
 endfacet
 facet normal -0.700756 -0.248012 -0.668903
  outer loop
   vertex 9.18478 51.051 346.473
   vertex 7.02601 52.4388 348.22
   vertex 10.0572 50.7166 345.683
  endloop
 endfacet
 facet normal -0.690279 -0.184201 -0.699703
  outer loop
   vertex 9.38419 52.7563 345.81
   vertex 10.0572 50.7166 345.683
   vertex 7.02601 52.4388 348.22
  endloop
 endfacet
 facet normal -0.706836 -0.12078 -0.69699
  outer loop
   vertex 8.66288 54.2764 346.105
   vertex 8.51887 55.0269 346.121
   vertex 9.36205 54.6397 345.333
  endloop
 endfacet
 facet normal -0.709569 -0.205918 -0.673877
  outer loop
   vertex 9.42728 54.0052 345.383
   vertex 9.38419 52.7563 345.81
   vertex 8.66288 54.2764 346.105
  endloop
 endfacet
 facet normal -0.704889 -0.190037 -0.683387
  outer loop
   vertex 9.38419 52.7563 345.81
   vertex 10.868 50.3272 344.955
   vertex 10.0572 50.7166 345.683
  endloop
 endfacet
 facet normal -0.690117 -0.212696 -0.691736
  outer loop
   vertex 9.38419 52.7563 345.81
   vertex 9.42728 54.0052 345.383
   vertex 10.2257 54.1855 344.531
  endloop
 endfacet
 facet normal -0.704586 -0.127432 -0.698082
  outer loop
   vertex 9.36205 54.6397 345.333
   vertex 9.42728 54.0052 345.383
   vertex 8.66288 54.2764 346.105
  endloop
 endfacet
 facet normal -0.707151 -0.192484 -0.680359
  outer loop
   vertex 10.2257 54.1855 344.531
   vertex 10.868 50.3272 344.955
   vertex 9.38419 52.7563 345.81
  endloop
 endfacet
 facet normal -0.710103 -0.127555 -0.692448
  outer loop
   vertex 9.42728 54.0052 345.383
   vertex 9.36205 54.6397 345.333
   vertex 10.2257 54.1855 344.531
  endloop
 endfacet
 facet normal -0.710448 -0.192649 -0.676868
  outer loop
   vertex 10.868 50.3272 344.955
   vertex 10.2257 54.1855 344.531
   vertex 10.9267 53.7296 343.925
  endloop
 endfacet
 facet normal -0.713841 -0.191598 -0.673588
  outer loop
   vertex 10.9267 53.7296 343.925
   vertex 11.6544 50.2766 344.136
   vertex 10.868 50.3272 344.955
  endloop
 endfacet
 facet normal -0.679993 -0.160472 -0.715442
  outer loop
   vertex 11.7169 53.5154 343.222
   vertex 12.4075 52.6888 342.751
   vertex 10.9267 53.7296 343.925
  endloop
 endfacet
 facet normal -0.687857 -0.187805 -0.701129
  outer loop
   vertex 12.4075 52.6888 342.751
   vertex 11.6544 50.2766 344.136
   vertex 10.9267 53.7296 343.925
  endloop
 endfacet
 facet normal -0.685763 -0.189391 -0.702752
  outer loop
   vertex 12.4075 52.6888 342.751
   vertex 12.3544 49.7865 343.585
   vertex 11.6544 50.2766 344.136
  endloop
 endfacet
 facet normal -0.703204 -0.184444 -0.686647
  outer loop
   vertex 12.4075 52.6888 342.751
   vertex 12.9052 49.6745 343.051
   vertex 12.3544 49.7865 343.585
  endloop
 endfacet
 facet normal -0.691004 -0.178156 -0.700552
  outer loop
   vertex 12.452 53.2319 342.569
   vertex 12.4075 52.6888 342.751
   vertex 11.7169 53.5154 343.222
  endloop
 endfacet
 facet normal -0.671233 -0.0350725 -0.740416
  outer loop
   vertex 12.1064 53.5975 342.865
   vertex 12.452 53.2319 342.569
   vertex 11.7169 53.5154 343.222
  endloop
 endfacet
 facet normal -0.671379 -0.182343 -0.718332
  outer loop
   vertex 12.4075 52.6888 342.751
   vertex 13.7989 49.0233 342.381
   vertex 12.9052 49.6745 343.051
  endloop
 endfacet
 facet normal -0.686704 -0.189837 -0.701712
  outer loop
   vertex 14.6543 52.0355 340.729
   vertex 13.7989 49.0233 342.381
   vertex 12.4075 52.6888 342.751
  endloop
 endfacet
 facet normal -0.677547 -0.0619132 -0.732869
  outer loop
   vertex 12.4075 52.6888 342.751
   vertex 13.9477 52.7132 341.325
   vertex 14.6543 52.0355 340.729
  endloop
 endfacet
 facet normal -0.725405 -0.145012 -0.672874
  outer loop
   vertex 14.8831 49.1818 341.178
   vertex 13.7989 49.0233 342.381
   vertex 15.5655 51.3225 339.981
  endloop
 endfacet
 facet normal -0.703673 -0.177496 -0.687996
  outer loop
   vertex 13.7989 49.0233 342.381
   vertex 14.6543 52.0355 340.729
   vertex 15.5655 51.3225 339.981
  endloop
 endfacet
 facet normal -0.696481 -0.2362 -0.677587
  outer loop
   vertex 15.0558 48.5148 341.233
   vertex 14.2581 48.9822 341.89
   vertex 14.8831 49.1818 341.178
  endloop
 endfacet
 facet normal -0.728813 -0.24153 -0.640698
  outer loop
   vertex 15.0558 48.5148 341.233
   vertex 14.8831 49.1818 341.178
   vertex 15.6521 48.4503 340.579
  endloop
 endfacet
 facet normal -0.70209 -0.163707 -0.693015
  outer loop
   vertex 14.8831 49.1818 341.178
   vertex 15.5655 51.3225 339.981
   vertex 17.1223 49.5394 338.825
  endloop
 endfacet
 facet normal -0.700922 -0.169552 -0.692792
  outer loop
   vertex 15.6521 48.4503 340.579
   vertex 14.8831 49.1818 341.178
   vertex 17.1223 49.5394 338.825
  endloop
 endfacet
 facet normal -0.662076 -0.246219 -0.707835
  outer loop
   vertex 15.6521 48.4503 340.579
   vertex 17.1223 49.5394 338.825
   vertex 16.4475 47.8869 340.031
  endloop
 endfacet
 facet normal -0.652263 -0.0808848 -0.753664
  outer loop
   vertex 16.7529 50.8039 339.009
   vertex 17.1223 49.5394 338.825
   vertex 15.5655 51.3225 339.981
  endloop
 endfacet
endsolid
