solid ascii
 facet normal 0.0165931 -0.0131604 -0.999776
  outer loop
   vertex 43.2405 31.2961 327.648
   vertex 42.8643 31.5822 327.638
   vertex 43.112 31.818 327.639
  endloop
 endfacet
 facet normal -0.0197959 -0.377565 -0.925771
  outer loop
   vertex 42.6825 31.1219 327.731
   vertex 43.2405 31.2961 327.648
   vertex 43.0924 30.9851 327.778
  endloop
 endfacet
 facet normal 0.117794 -0.430225 -0.895003
  outer loop
   vertex 43.4809 31.1248 327.762
   vertex 43.0924 30.9851 327.778
   vertex 43.2405 31.2961 327.648
  endloop
 endfacet
 facet normal -0.0959587 -0.160549 -0.982352
  outer loop
   vertex 43.2405 31.2961 327.648
   vertex 42.6825 31.1219 327.731
   vertex 42.8643 31.5822 327.638
  endloop
 endfacet
 facet normal -0.0849129 0.0934341 -0.991998
  outer loop
   vertex 43.112 31.818 327.639
   vertex 42.8643 31.5822 327.638
   vertex 42.5717 32.4947 327.749
  endloop
 endfacet
 facet normal -0.0734155 -0.513814 -0.854755
  outer loop
   vertex 43.0924 30.9851 327.778
   vertex 42.3966 30.8716 327.906
   vertex 42.6825 31.1219 327.731
  endloop
 endfacet
 facet normal -0.196495 0.122373 -0.972838
  outer loop
   vertex 42.2917 35.9544 328.109
   vertex 42.3706 34.96 327.968
   vertex 41.6978 34.9292 328.1
  endloop
 endfacet
 facet normal 0.201975 0.153209 -0.967333
  outer loop
   vertex 42.6913 35.9201 328.187
   vertex 42.3706 34.96 327.968
   vertex 42.2917 35.9544 328.109
  endloop
 endfacet
 facet normal -0.168957 0.137554 -0.975978
  outer loop
   vertex 42.6389 33.993 327.902
   vertex 41.0748 31.9157 327.88
   vertex 39.3822 34.03 328.471
  endloop
 endfacet
 facet normal -0.171606 0.0357125 -0.984518
  outer loop
   vertex 39.3822 34.03 328.471
   vertex 41.6978 34.9292 328.1
   vertex 42.6389 33.993 327.902
  endloop
 endfacet
 facet normal -0.127472 0.106425 -0.986116
  outer loop
   vertex 42.5717 32.4947 327.749
   vertex 41.0748 31.9157 327.88
   vertex 42.6389 33.993 327.902
  endloop
 endfacet
 facet normal -0.193122 0.0133572 -0.981084
  outer loop
   vertex 41.6978 34.9292 328.1
   vertex 42.3706 34.96 327.968
   vertex 42.6389 33.993 327.902
  endloop
 endfacet
 facet normal -0.588602 -0.142983 -0.795678
  outer loop
   vertex 39.1586 32.598 328.706
   vertex 39.9294 32.7192 328.114
   vertex 40.1624 31.8993 328.089
  endloop
 endfacet
 facet normal -0.36911 0.221751 -0.902543
  outer loop
   vertex 40.349 37.0268 329.167
   vertex 42.2917 35.9544 328.109
   vertex 41.6978 34.9292 328.1
  endloop
 endfacet
 facet normal -0.21255 0.148899 -0.965739
  outer loop
   vertex 39.3822 34.03 328.471
   vertex 39.7432 35.0447 328.548
   vertex 41.6978 34.9292 328.1
  endloop
 endfacet
 facet normal -0.302883 0.178789 -0.936107
  outer loop
   vertex 39.7432 35.0447 328.548
   vertex 39.3822 34.03 328.471
   vertex 38.7715 35.273 328.906
  endloop
 endfacet
 facet normal -0.672993 -0.445414 -0.590497
  outer loop
   vertex 39.1586 32.598 328.706
   vertex 40.1624 31.8993 328.089
   vertex 39.0118 31.738 329.522
  endloop
 endfacet
 facet normal -0.424676 -0.796376 -0.430622
  outer loop
   vertex 39.0118 31.738 329.522
   vertex 40.1624 31.8993 328.089
   vertex 39.7916 31.4103 329.359
  endloop
 endfacet
 facet normal -0.307855 0.160323 -0.937828
  outer loop
   vertex 39.3809 35.7002 328.779
   vertex 39.7432 35.0447 328.548
   vertex 38.7715 35.273 328.906
  endloop
 endfacet
 facet normal -0.566695 -0.514154 -0.643819
  outer loop
   vertex 39.1586 32.598 328.706
   vertex 39.0118 31.738 329.522
   vertex 37.8428 32.3816 330.037
  endloop
 endfacet
 facet normal -0.675717 -0.219569 -0.703702
  outer loop
   vertex 37.5558 33.3866 329.999
   vertex 39.1586 32.598 328.706
   vertex 37.8428 32.3816 330.037
  endloop
 endfacet
 facet normal -0.657516 -0.115668 -0.744509
  outer loop
   vertex 37.5558 33.3866 329.999
   vertex 38.5583 34.0086 329.017
   vertex 39.1586 32.598 328.706
  endloop
 endfacet
 facet normal -0.575382 -0.602623 -0.552975
  outer loop
   vertex 37.8428 32.3816 330.037
   vertex 39.0118 31.738 329.522
   vertex 38.1696 31.9512 330.166
  endloop
 endfacet
 facet normal -0.688503 -0.034032 -0.724435
  outer loop
   vertex 37.5558 33.3866 329.999
   vertex 38.2418 36.1119 329.219
   vertex 38.5583 34.0086 329.017
  endloop
 endfacet
 facet normal -0.555639 -0.595726 -0.579979
  outer loop
   vertex 36.2081 32.3184 331.668
   vertex 37.8428 32.3816 330.037
   vertex 38.1696 31.9512 330.166
  endloop
 endfacet
 facet normal -0.72517 -0.0144936 -0.688417
  outer loop
   vertex 36.3688 32.6433 331.265
   vertex 38.2418 36.1119 329.219
   vertex 37.5558 33.3866 329.999
  endloop
 endfacet
 facet normal -0.589534 -0.149851 -0.793722
  outer loop
   vertex 36.3688 32.6433 331.265
   vertex 35.3513 34.7342 331.626
   vertex 38.2418 36.1119 329.219
  endloop
 endfacet
 facet normal -0.960356 -0.148466 -0.235952
  outer loop
   vertex -80.3879 39.641 405.547
   vertex -80.4159 38.8765 406.142
   vertex -80.5055 39.5832 406.062
  endloop
 endfacet
 facet normal -0.917404 -0.12064 -0.379231
  outer loop
   vertex -80.3879 39.641 405.547
   vertex -80.528 40.0054 405.77
   vertex -80.2915 40.0961 405.169
  endloop
 endfacet
 facet normal -0.822521 -0.330246 -0.46303
  outer loop
   vertex -79.6416 39.1773 404.552
   vertex -80.4159 38.8765 406.142
   vertex -80.3879 39.641 405.547
  endloop
 endfacet
 facet normal -0.826954 -0.245114 -0.506029
  outer loop
   vertex -80.3879 39.641 405.547
   vertex -80.2915 40.0961 405.169
   vertex -79.6416 39.1773 404.552
  endloop
 endfacet
 facet normal -0.788395 -0.287733 -0.543731
  outer loop
   vertex -79.6949 38.6147 404.927
   vertex -79.6416 39.1773 404.552
   vertex -79.2878 38.1531 404.581
  endloop
 endfacet
 facet normal -0.694746 -0.481966 -0.533889
  outer loop
   vertex -79.2878 38.1531 404.581
   vertex -78.7046 38.1565 403.819
   vertex -78.8854 37.8544 404.327
  endloop
 endfacet
 facet normal -0.761806 -0.279697 -0.584312
  outer loop
   vertex -79.6416 39.1773 404.552
   vertex -78.7046 38.1565 403.819
   vertex -79.2878 38.1531 404.581
  endloop
 endfacet
 facet normal -0.742674 -0.0822714 -0.66458
  outer loop
   vertex -78.7766 38.7279 403.641
   vertex -79.6416 39.1773 404.552
   vertex -79.112 39.6715 403.899
  endloop
 endfacet
 facet normal -0.761333 -0.278363 -0.585565
  outer loop
   vertex -78.7766 38.7279 403.641
   vertex -78.7046 38.1565 403.819
   vertex -79.6416 39.1773 404.552
  endloop
 endfacet
 facet normal -0.525387 0.123783 -0.841811
  outer loop
   vertex -78.4021 39.0871 403.37
   vertex -79.112 39.6715 403.899
   vertex -78.6045 40.4043 403.69
  endloop
 endfacet
 facet normal -0.592318 0.00974116 -0.805645
  outer loop
   vertex -78.7766 38.7279 403.641
   vertex -79.112 39.6715 403.899
   vertex -78.4021 39.0871 403.37
  endloop
 endfacet
 facet normal -0.674011 -0.295815 -0.676907
  outer loop
   vertex -78.7766 38.7279 403.641
   vertex -78.1915 38.2643 403.261
   vertex -78.7046 38.1565 403.819
  endloop
 endfacet
 facet normal -0.348992 0.207146 -0.913945
  outer loop
   vertex -78.6045 40.4043 403.69
   vertex -77.4737 41.2946 403.46
   vertex -78.0206 39.6099 403.287
  endloop
 endfacet
 facet normal -0.408915 0.155624 -0.899205
  outer loop
   vertex -78.0206 39.6099 403.287
   vertex -78.4021 39.0871 403.37
   vertex -78.6045 40.4043 403.69
  endloop
 endfacet
 facet normal -0.563663 -0.0349382 -0.825266
  outer loop
   vertex -78.4021 39.0871 403.37
   vertex -78.1915 38.2643 403.261
   vertex -78.7766 38.7279 403.641
  endloop
 endfacet
 facet normal -0.610298 -0.479887 -0.630273
  outer loop
   vertex 36.2081 32.3184 331.668
   vertex 36.3688 32.6433 331.265
   vertex 37.8428 32.3816 330.037
  endloop
 endfacet
 facet normal -0.338382 0.204179 -0.918591
  outer loop
   vertex -76.0952 40.3174 402.735
   vertex -78.0206 39.6099 403.287
   vertex -77.4737 41.2946 403.46
  endloop
 endfacet
 facet normal -0.647464 -0.212565 -0.731851
  outer loop
   vertex 37.5558 33.3866 329.999
   vertex 37.8428 32.3816 330.037
   vertex 36.3688 32.6433 331.265
  endloop
 endfacet
 facet normal -0.327889 0.0899523 -0.940424
  outer loop
   vertex -77.7291 38.5399 403.083
   vertex -78.4021 39.0871 403.37
   vertex -78.0206 39.6099 403.287
  endloop
 endfacet
 facet normal -0.233472 -0.219949 -0.947161
  outer loop
   vertex -78.1915 38.2643 403.261
   vertex -77.7291 38.5399 403.083
   vertex -77.6514 38.1043 403.165
  endloop
 endfacet
 facet normal -0.294613 -0.509559 -0.808426
  outer loop
   vertex -77.6514 38.1043 403.165
   vertex -78.1352 38.0223 403.393
   vertex -78.1915 38.2643 403.261
  endloop
 endfacet
 facet normal -0.373226 0.0273284 -0.927338
  outer loop
   vertex -77.7291 38.5399 403.083
   vertex -78.1915 38.2643 403.261
   vertex -78.4021 39.0871 403.37
  endloop
 endfacet
 facet normal -0.183653 0.13557 -0.973598
  outer loop
   vertex -78.0206 39.6099 403.287
   vertex -77.1126 38.4846 402.959
   vertex -77.7291 38.5399 403.083
  endloop
 endfacet
 facet normal -0.211152 -0.217075 -0.953044
  outer loop
   vertex -77.6514 38.1043 403.165
   vertex -77.7291 38.5399 403.083
   vertex -77.1126 38.4846 402.959
  endloop
 endfacet
 facet normal -0.316308 0.150159 -0.936697
  outer loop
   vertex -75.7435 41.9191 402.873
   vertex -76.0952 40.3174 402.735
   vertex -76.4457 41.3695 403.022
  endloop
 endfacet
 facet normal -0.260669 -0.0431031 -0.964466
  outer loop
   vertex -76.0952 40.3174 402.735
   vertex -76.4844 38.4415 402.924
   vertex -78.0206 39.6099 403.287
  endloop
 endfacet
 facet normal -0.372914 0.160621 -0.913858
  outer loop
   vertex -75.3418 39.8705 402.349
   vertex -76.0952 40.3174 402.735
   vertex -75.7435 41.9191 402.873
  endloop
 endfacet
 facet normal -0.456356 -0.000828028 -0.889797
  outer loop
   vertex -76.0952 40.3174 402.735
   vertex -75.3418 39.8705 402.349
   vertex -75.7189 39.2346 402.543
  endloop
 endfacet
 facet normal -0.467543 0.00759367 -0.883938
  outer loop
   vertex -75.1551 39.1418 402.244
   vertex -75.7189 39.2346 402.543
   vertex -75.3418 39.8705 402.349
  endloop
 endfacet
 facet normal -0.242251 0.300737 -0.922427
  outer loop
   vertex -73.944 40.5008 401.938
   vertex -75.7435 41.9191 402.873
   vertex -74.6902 42.6909 402.848
  endloop
 endfacet
 facet normal -0.347043 0.167953 -0.922688
  outer loop
   vertex -75.7435 41.9191 402.873
   vertex -73.944 40.5008 401.938
   vertex -75.3418 39.8705 402.349
  endloop
 endfacet
 facet normal -0.335243 0.135491 -0.932338
  outer loop
   vertex -73.944 40.5008 401.938
   vertex -74.689 39.442 402.052
   vertex -75.3418 39.8705 402.349
  endloop
 endfacet
 facet normal -0.218035 -0.424784 -0.878646
  outer loop
   vertex -75.1551 39.1418 402.244
   vertex -74.2042 39.2308 401.965
   vertex -75.0654 38.8889 402.344
  endloop
 endfacet
 facet normal -0.397344 0.0303679 -0.917167
  outer loop
   vertex -74.689 39.442 402.052
   vertex -75.1551 39.1418 402.244
   vertex -75.3418 39.8705 402.349
  endloop
 endfacet
 facet normal -0.343246 0.258271 -0.903038
  outer loop
   vertex -73.944 40.5008 401.938
   vertex -74.6902 42.6909 402.848
   vertex -71.8391 42.2598 401.641
  endloop
 endfacet
 facet normal -0.263223 -0.21697 -0.94002
  outer loop
   vertex -74.2042 39.2308 401.965
   vertex -74.689 39.442 402.052
   vertex -73.9605 39.5374 401.826
  endloop
 endfacet
 facet normal -0.25808 -0.203324 -0.944486
  outer loop
   vertex -75.1551 39.1418 402.244
   vertex -74.689 39.442 402.052
   vertex -74.2042 39.2308 401.965
  endloop
 endfacet
 facet normal -0.398376 0.0904257 -0.912754
  outer loop
   vertex -71.4445 43.9446 401.698
   vertex -71.1844 42.7891 401.47
   vertex -71.9571 43.8263 401.91
  endloop
 endfacet
 facet normal -0.300307 0.201961 -0.932217
  outer loop
   vertex -71.8391 42.2598 401.641
   vertex -71.7017 40.544 401.225
   vertex -73.944 40.5008 401.938
  endloop
 endfacet
 facet normal -0.302227 0.149567 -0.941429
  outer loop
   vertex -72.6813 40.1633 401.479
   vertex -73.944 40.5008 401.938
   vertex -71.7017 40.544 401.225
  endloop
 endfacet
 facet normal -0.191965 -0.373142 -0.907697
  outer loop
   vertex -73.9605 39.5374 401.826
   vertex -73.4022 39.508 401.72
   vertex -73.6268 39.39 401.816
  endloop
 endfacet
 facet normal -0.160251 -0.299111 -0.940666
  outer loop
   vertex -73.6268 39.39 401.816
   vertex -74.2042 39.2308 401.965
   vertex -73.9605 39.5374 401.826
  endloop
 endfacet
 facet normal -0.11302 -0.26263 -0.958255
  outer loop
   vertex -73.4022 39.508 401.72
   vertex -73.2194 39.7577 401.63
   vertex -72.7329 39.6323 401.607
  endloop
 endfacet
 facet normal -0.192951 -0.204613 -0.959637
  outer loop
   vertex -73.9605 39.5374 401.826
   vertex -73.2194 39.7577 401.63
   vertex -73.4022 39.508 401.72
  endloop
 endfacet
 facet normal -0.611997 0.0182471 -0.79065
  outer loop
   vertex -70.905 44.4906 401.293
   vertex -71.1844 42.7891 401.47
   vertex -71.4445 43.9446 401.698
  endloop
 endfacet
 facet normal -0.378241 0.174144 -0.90918
  outer loop
   vertex -70.5047 41.89 401.015
   vertex -71.8391 42.2598 401.641
   vertex -71.1844 42.7891 401.47
  endloop
 endfacet
 facet normal -0.373233 0.190254 -0.90802
  outer loop
   vertex -71.8391 42.2598 401.641
   vertex -70.5047 41.89 401.015
   vertex -71.7017 40.544 401.225
  endloop
 endfacet
 facet normal -0.27048 0.0547058 -0.96117
  outer loop
   vertex -72.2051 40.0754 401.34
   vertex -72.6813 40.1633 401.479
   vertex -71.7017 40.544 401.225
  endloop
 endfacet
 facet normal -0.601784 -0.0516237 -0.796989
  outer loop
   vertex -70.5047 41.89 401.015
   vertex -71.1844 42.7891 401.47
   vertex -70.2197 42.0726 400.788
  endloop
 endfacet
 facet normal -0.542981 -0.290157 -0.788023
  outer loop
   vertex 35.3513 34.7342 331.626
   vertex 34.5629 37.1791 331.269
   vertex 35.382 36.9554 330.787
  endloop
 endfacet
 facet normal -0.572878 0.00881248 -0.819594
  outer loop
   vertex -71.1844 42.7891 401.47
   vertex -70.905 44.4906 401.293
   vertex -70.2197 42.0726 400.788
  endloop
 endfacet
 facet normal -0.298461 0.117657 -0.947142
  outer loop
   vertex -70.8805 40.4859 400.959
   vertex -71.7017 40.544 401.225
   vertex -70.5047 41.89 401.015
  endloop
 endfacet
 facet normal -0.110973 -0.58252 -0.805205
  outer loop
   vertex -70.6106 40.3958 400.987
   vertex -71.2334 40.3223 401.126
   vertex -70.8805 40.4859 400.959
  endloop
 endfacet
 facet normal -0.314231 -0.255466 -0.914328
  outer loop
   vertex -71.2334 40.3223 401.126
   vertex -71.7017 40.544 401.225
   vertex -70.8805 40.4859 400.959
  endloop
 endfacet
 facet normal -0.77582 -0.0894325 -0.624584
  outer loop
   vertex -70.4719 44.3092 400.781
   vertex -70.2197 42.0726 400.788
   vertex -70.905 44.4906 401.293
  endloop
 endfacet
 facet normal -0.707977 -0.0820227 -0.701456
  outer loop
   vertex -70.2197 42.0726 400.788
   vertex -70.4719 44.3092 400.781
   vertex -69.7138 44.402 400.005
  endloop
 endfacet
 facet normal -0.657396 0.0969756 -0.747279
  outer loop
   vertex -70.3345 40.6933 400.71
   vertex -70.5047 41.89 401.015
   vertex -70.2197 42.0726 400.788
  endloop
 endfacet
 facet normal -0.426586 0.0864194 -0.900309
  outer loop
   vertex -69.5997 40.7784 400.37
   vertex -70.3345 40.6933 400.71
   vertex -70.2197 42.0726 400.788
  endloop
 endfacet
 facet normal -0.741612 0.0918023 -0.664518
  outer loop
   vertex -69.2759 44.986 399.597
   vertex -69.7138 44.402 400.005
   vertex -69.4674 45.0388 399.818
  endloop
 endfacet
 facet normal -0.612704 -0.0385731 -0.789371
  outer loop
   vertex -69.5997 40.7784 400.37
   vertex -70.2197 42.0726 400.788
   vertex -68.4767 41.0515 399.485
  endloop
 endfacet
 facet normal -0.617667 -0.0832312 -0.782023
  outer loop
   vertex -69.2759 44.986 399.597
   vertex -68.4478 43.3974 399.112
   vertex -69.7138 44.402 400.005
  endloop
 endfacet
 facet normal -0.63375 -0.119264 -0.764289
  outer loop
   vertex -68.4478 43.3974 399.112
   vertex -70.2197 42.0726 400.788
   vertex -69.7138 44.402 400.005
  endloop
 endfacet
 facet normal -0.636661 -0.113431 -0.762756
  outer loop
   vertex -70.2197 42.0726 400.788
   vertex -68.4478 43.3974 399.112
   vertex -68.4767 41.0515 399.485
  endloop
 endfacet
 facet normal -0.536952 -0.0110455 -0.84354
  outer loop
   vertex -68.1858 45.0174 398.924
   vertex -68.4478 43.3974 399.112
   vertex -68.837 44.9823 399.339
  endloop
 endfacet
 facet normal -0.616584 -0.046405 -0.78592
  outer loop
   vertex -67.2003 41.9795 398.217
   vertex -67.8654 41.5527 398.764
   vertex -68.4478 43.3974 399.112
  endloop
 endfacet
 facet normal -0.723697 -0.0996593 -0.682884
  outer loop
   vertex -68.4767 41.0515 399.485
   vertex -68.4478 43.3974 399.112
   vertex -67.8654 41.5527 398.764
  endloop
 endfacet
 facet normal -0.56659 -0.00398363 -0.82399
  outer loop
   vertex -68.1858 45.0174 398.924
   vertex -66.7475 43.1581 397.944
   vertex -68.4478 43.3974 399.112
  endloop
 endfacet
 facet normal -0.563613 0.0252799 -0.825652
  outer loop
   vertex -67.2003 41.9795 398.217
   vertex -68.4478 43.3974 399.112
   vertex -66.7475 43.1581 397.944
  endloop
 endfacet
 facet normal -0.523801 0.0432172 -0.850743
  outer loop
   vertex -68.1858 45.0174 398.924
   vertex -66.8495 45.8783 398.145
   vertex -66.7475 43.1581 397.944
  endloop
 endfacet
 facet normal -0.498718 0.265591 -0.825071
  outer loop
   vertex -66.8495 45.8783 398.145
   vertex -66.5362 46.2368 398.071
   vertex -65.9625 46.0838 397.675
  endloop
 endfacet
 facet normal -0.605375 0.0485504 -0.794458
  outer loop
   vertex -66.7292 42.0444 397.862
   vertex -67.2003 41.9795 398.217
   vertex -66.7475 43.1581 397.944
  endloop
 endfacet
 facet normal -0.391451 0.0531984 -0.91866
  outer loop
   vertex -64.9335 42.4838 397.132
   vertex -66.7475 43.1581 397.944
   vertex -66.8495 45.8783 398.145
  endloop
 endfacet
 facet normal -0.468115 -0.000516503 -0.883667
  outer loop
   vertex -64.9335 42.4838 397.132
   vertex -66.8495 45.8783 398.145
   vertex -65.9625 46.0838 397.675
  endloop
 endfacet
 facet normal -0.392844 0.0490164 -0.918298
  outer loop
   vertex -65.9799 42.1537 397.562
   vertex -66.7475 43.1581 397.944
   vertex -64.9335 42.4838 397.132
  endloop
 endfacet
 facet normal -0.28845 -0.278889 -0.915979
  outer loop
   vertex -65.9799 42.1537 397.562
   vertex -64.9335 42.4838 397.132
   vertex -65.4981 42.0069 397.455
  endloop
 endfacet
 facet normal -0.495073 -0.0104663 -0.868788
  outer loop
   vertex -65.9625 46.0838 397.675
   vertex -63.582 43.9655 396.344
   vertex -64.9335 42.4838 397.132
  endloop
 endfacet
 facet normal -0.250554 -0.321777 -0.913062
  outer loop
   vertex -64.4131 42.3595 397.033
   vertex -65.4981 42.0069 397.455
   vertex -64.9335 42.4838 397.132
  endloop
 endfacet
 facet normal -0.285096 -0.595282 -0.751238
  outer loop
   vertex -64.4131 42.3595 397.033
   vertex -64.9335 42.4838 397.132
   vertex -64.2122 42.4778 396.863
  endloop
 endfacet
 facet normal -0.34527 -0.175388 -0.921969
  outer loop
   vertex -63.582 43.9655 396.344
   vertex -64.2122 42.4778 396.863
   vertex -64.9335 42.4838 397.132
  endloop
 endfacet
 facet normal -0.504396 0.0329731 -0.862843
  outer loop
   vertex -65.1233 46.7532 397.21
   vertex -63.6091 46.4178 396.312
   vertex -65.9625 46.0838 397.675
  endloop
 endfacet
 facet normal -0.471901 0.0553405 -0.879913
  outer loop
   vertex -64.5448 46.7227 396.833
   vertex -63.8172 47.0442 396.463
   vertex -63.6091 46.4178 396.312
  endloop
 endfacet
 facet normal -0.49931 -0.0168153 -0.86626
  outer loop
   vertex -63.582 43.9655 396.344
   vertex -65.9625 46.0838 397.675
   vertex -63.6091 46.4178 396.312
  endloop
 endfacet
 facet normal -0.403285 -0.338066 -0.850337
  outer loop
   vertex -63.3177 42.9501 396.251
   vertex -63.0087 42.74 396.188
   vertex -64.2122 42.4778 396.863
  endloop
 endfacet
 facet normal -0.45393 0.0634472 -0.888775
  outer loop
   vertex -62.7808 47.3007 395.952
   vertex -63.6091 46.4178 396.312
   vertex -63.8172 47.0442 396.463
  endloop
 endfacet
 facet normal -0.540348 -0.063814 -0.839018
  outer loop
   vertex -64.2122 42.4778 396.863
   vertex -63.582 43.9655 396.344
   vertex -63.3177 42.9501 396.251
  endloop
 endfacet
 facet normal -0.435375 -0.0165501 -0.900097
  outer loop
   vertex -62.3647 45.8792 395.72
   vertex -63.582 43.9655 396.344
   vertex -63.6091 46.4178 396.312
  endloop
 endfacet
 facet normal -0.431671 -0.0298008 -0.901539
  outer loop
   vertex -63.3177 42.9501 396.251
   vertex -63.582 43.9655 396.344
   vertex -62.5311 43.1425 395.868
  endloop
 endfacet
 facet normal -0.445089 -0.00885344 -0.895443
  outer loop
   vertex -62.1822 44.0875 395.647
   vertex -63.582 43.9655 396.344
   vertex -62.3647 45.8792 395.72
  endloop
 endfacet
 facet normal -0.442009 -0.0463126 -0.895814
  outer loop
   vertex -63.582 43.9655 396.344
   vertex -62.1822 44.0875 395.647
   vertex -62.5311 43.1425 395.868
  endloop
 endfacet
 facet normal -0.420672 0.0248666 -0.906872
  outer loop
   vertex -62.7808 47.3007 395.952
   vertex -62.3647 45.8792 395.72
   vertex -63.6091 46.4178 396.312
  endloop
 endfacet
 facet normal -0.382422 0.0387241 -0.923176
  outer loop
   vertex -62.7808 47.3007 395.952
   vertex -61.7625 47.9645 395.558
   vertex -62.3647 45.8792 395.72
  endloop
 endfacet
 facet normal -0.354103 -0.0852468 -0.931313
  outer loop
   vertex -61.8393 43.3186 395.587
   vertex -62.1822 44.0875 395.647
   vertex -61.2004 43.68 395.311
  endloop
 endfacet
 facet normal -0.397793 -0.00313851 -0.91747
  outer loop
   vertex -60.9499 44.8833 395.11
   vertex -62.1822 44.0875 395.647
   vertex -62.3647 45.8792 395.72
  endloop
 endfacet
 facet normal -0.194485 -0.354629 -0.914557
  outer loop
   vertex -61.2822 43.2968 395.477
   vertex -61.8393 43.3186 395.587
   vertex -61.2004 43.68 395.311
  endloop
 endfacet
 facet normal -0.353064 -0.0821938 -0.931982
  outer loop
   vertex -62.1822 44.0875 395.647
   vertex -60.9499 44.8833 395.11
   vertex -61.2004 43.68 395.311
  endloop
 endfacet
 facet normal -0.519845 -0.285211 -0.805243
  outer loop
   vertex 35.3513 34.7342 331.626
   vertex 33.6096 37.0025 331.947
   vertex 34.5629 37.1791 331.269
  endloop
 endfacet
 facet normal -0.388995 0.0116234 -0.921166
  outer loop
   vertex -60.9499 44.8833 395.11
   vertex -62.3647 45.8792 395.72
   vertex -59.9607 48.0323 394.732
  endloop
 endfacet
 facet normal -0.41777 0.0501759 -0.907166
  outer loop
   vertex -61.7625 47.9645 395.558
   vertex -59.9607 48.0323 394.732
   vertex -62.3647 45.8792 395.72
  endloop
 endfacet
 facet normal -0.35165 -0.0825718 -0.932483
  outer loop
   vertex -60.9499 44.8833 395.11
   vertex -60.421 43.8843 394.999
   vertex -61.2004 43.68 395.311
  endloop
 endfacet
 facet normal -0.383514 0.00962306 -0.923485
  outer loop
   vertex -60.9499 44.8833 395.11
   vertex -59.9607 48.0323 394.732
   vertex -59.5733 45.2379 394.542
  endloop
 endfacet
 facet normal -0.343105 -0.152589 -0.92682
  outer loop
   vertex -59.8007 43.7994 394.863
   vertex -60.9499 44.8833 395.11
   vertex -59.5733 45.2379 394.542
  endloop
 endfacet
 facet normal -0.468893 -0.121121 -0.874911
  outer loop
   vertex -58.9934 44.3943 394.348
   vertex -59.8007 43.7994 394.863
   vertex -59.5733 45.2379 394.542
  endloop
 endfacet
 facet normal -0.310251 0.0216104 -0.950409
  outer loop
   vertex -59.9607 48.0323 394.732
   vertex -58.2083 44.473 394.079
   vertex -59.5733 45.2379 394.542
  endloop
 endfacet
 facet normal -0.351795 -0.00147278 -0.936076
  outer loop
   vertex -58.2083 44.473 394.079
   vertex -59.9607 48.0323 394.732
   vertex -57.1955 45.3558 393.697
  endloop
 endfacet
 facet normal -0.353719 -0.0435861 -0.934336
  outer loop
   vertex -59.9607 48.0323 394.732
   vertex -58.7692 48.6735 394.251
   vertex -56.0517 45.3553 393.377
  endloop
 endfacet
 facet normal -0.337509 -0.028585 -0.940888
  outer loop
   vertex -55.1002 50.25 392.887
   vertex -56.0517 45.3553 393.377
   vertex -58.7692 48.6735 394.251
  endloop
 endfacet
 facet normal -0.268183 0.0936981 -0.958801
  outer loop
   vertex -57.1955 45.3558 393.697
   vertex -59.9607 48.0323 394.732
   vertex -56.0517 45.3553 393.377
  endloop
 endfacet
 facet normal -0.206535 -0.218575 -0.953713
  outer loop
   vertex -55.1622 45.5533 393.139
   vertex -56.0517 45.3553 393.377
   vertex -55.4765 46.1427 393.072
  endloop
 endfacet
 facet normal -0.534566 0.0109133 -0.845057
  outer loop
   vertex -55.1002 50.25 392.887
   vertex -54.066 47.3251 392.195
   vertex -55.4765 46.1427 393.072
  endloop
 endfacet
 facet normal -0.472302 0.00357058 -0.881429
  outer loop
   vertex -55.1002 50.25 392.887
   vertex -55.4765 46.1427 393.072
   vertex -56.0517 45.3553 393.377
  endloop
 endfacet
 facet normal -0.496611 -0.0502792 -0.866516
  outer loop
   vertex -54.066 47.3251 392.195
   vertex -54.6734 46.2242 392.607
   vertex -55.4765 46.1427 393.072
  endloop
 endfacet
 facet normal -0.419457 0.0451053 -0.906654
  outer loop
   vertex -54.066 47.3251 392.195
   vertex -54.7787 49.8632 392.651
   vertex -53.0181 50.6174 391.874
  endloop
 endfacet
 facet normal -0.485125 0.278493 -0.828912
  outer loop
   vertex -53.9893 50.5448 392.418
   vertex -53.0181 50.6174 391.874
   vertex -54.7787 49.8632 392.651
  endloop
 endfacet
 facet normal -0.56075 -0.000472438 -0.827985
  outer loop
   vertex -54.1141 46.5991 392.228
   vertex -54.6734 46.2242 392.607
   vertex -54.066 47.3251 392.195
  endloop
 endfacet
 facet normal -0.388559 0.0338917 -0.9208
  outer loop
   vertex -51.8103 47.348 391.244
   vertex -54.066 47.3251 392.195
   vertex -53.0181 50.6174 391.874
  endloop
 endfacet
 facet normal -0.636474 0.369296 -0.677142
  outer loop
   vertex -51.9014 51.3025 391.198
   vertex -53.0181 50.6174 391.874
   vertex -52.6717 51.0696 391.795
  endloop
 endfacet
 facet normal -0.629463 -0.175636 -0.75692
  outer loop
   vertex 36.3688 32.6433 331.265
   vertex 34.8378 33.3768 332.368
   vertex 35.3513 34.7342 331.626
  endloop
 endfacet
 facet normal -0.59147 -0.0636114 -0.803814
  outer loop
   vertex -51.6742 48.0284 391.09
   vertex -51.8103 47.348 391.244
   vertex -53.0181 50.6174 391.874
  endloop
 endfacet
 facet normal -0.575038 -0.0512343 -0.816521
  outer loop
   vertex -53.0181 50.6174 391.874
   vertex -50.8778 47.9985 390.531
   vertex -51.6742 48.0284 391.09
  endloop
 endfacet
 facet normal -0.572945 0.136479 -0.808151
  outer loop
   vertex -53.0181 50.6174 391.874
   vertex -51.9014 51.3025 391.198
   vertex -49.6685 50.8883 389.545
  endloop
 endfacet
 facet normal -0.568016 -0.0427336 -0.821907
  outer loop
   vertex -50.8778 47.9985 390.531
   vertex -53.0181 50.6174 391.874
   vertex -49.6685 50.8883 389.545
  endloop
 endfacet
 facet normal -0.560788 -0.118618 -0.819418
  outer loop
   vertex 33.6096 37.0025 331.947
   vertex 34.1579 37.4429 331.508
   vertex 34.5629 37.1791 331.269
  endloop
 endfacet
 facet normal -0.584569 0.0733125 -0.808025
  outer loop
   vertex -50.9655 51.5348 390.542
   vertex -49.6685 50.8883 389.545
   vertex -51.9014 51.3025 391.198
  endloop
 endfacet
 facet normal -0.536105 0.192098 -0.822004
  outer loop
   vertex -49.6685 50.8883 389.545
   vertex -50.9655 51.5348 390.542
   vertex -50.0364 51.8128 390.001
  endloop
 endfacet
 facet normal -0.526119 -0.240376 -0.815732
  outer loop
   vertex -50.0637 48.7551 389.783
   vertex -50.2875 48.2065 390.089
   vertex -50.8778 47.9985 390.531
  endloop
 endfacet
 facet normal -0.542712 0.342752 -0.766802
  outer loop
   vertex -49.3094 52.644 389.858
   vertex -50.0364 51.8128 390.001
   vertex -50.0559 52.4508 390.3
  endloop
 endfacet
 facet normal -0.700739 0.0504322 -0.711633
  outer loop
   vertex -49.6685 50.8883 389.545
   vertex -50.0637 48.7551 389.783
   vertex -50.8778 47.9985 390.531
  endloop
 endfacet
 facet normal -0.436946 0.277583 -0.855585
  outer loop
   vertex -45.869 55.8569 389.631
   vertex -45.7404 55.5322 389.46
   vertex -46.4635 55.2663 389.743
  endloop
 endfacet
 facet normal -0.335773 -0.0853462 -0.938068
  outer loop
   vertex -44.3151 54.2001 389.071
   vertex -46.4635 55.2663 389.743
   vertex -45.7404 55.5322 389.46
  endloop
 endfacet
 facet normal -0.26518 0.0716873 -0.96153
  outer loop
   vertex -46.4635 55.2663 389.743
   vertex -44.3151 54.2001 389.071
   vertex -47.2503 54.6628 389.915
  endloop
 endfacet
 facet normal -0.259025 0.107667 -0.959851
  outer loop
   vertex -44.3151 54.2001 389.071
   vertex -48.1853 54.1516 390.11
   vertex -47.2503 54.6628 389.915
  endloop
 endfacet
 facet normal -0.373893 0.344545 -0.8611
  outer loop
   vertex -49.3094 52.644 389.858
   vertex -48.3163 53.0094 389.573
   vertex -48.9923 51.7285 389.354
  endloop
 endfacet
 facet normal -0.488155 0.285039 -0.824899
  outer loop
   vertex -48.9923 51.7285 389.354
   vertex -50.0364 51.8128 390.001
   vertex -49.3094 52.644 389.858
  endloop
 endfacet
 facet normal -0.502072 0.213553 -0.838044
  outer loop
   vertex -48.9923 51.7285 389.354
   vertex -49.6685 50.8883 389.545
   vertex -50.0364 51.8128 390.001
  endloop
 endfacet
 facet normal -0.565953 0.204448 -0.798685
  outer loop
   vertex -45.4095 56.081 389.366
   vertex -45.0462 56.3132 389.168
   vertex -45.7404 55.5322 389.46
  endloop
 endfacet
 facet normal -0.321108 -0.0677432 -0.944616
  outer loop
   vertex -44.3151 54.2001 389.071
   vertex -45.7404 55.5322 389.46
   vertex -45.0462 56.3132 389.168
  endloop
 endfacet
 facet normal -0.253108 0.264879 -0.93047
  outer loop
   vertex -44.3151 54.2001 389.071
   vertex -46.2503 52.79 389.196
   vertex -48.1853 54.1516 390.11
  endloop
 endfacet
 facet normal -0.345313 0.332298 -0.877688
  outer loop
   vertex -48.2199 51.8074 389.08
   vertex -48.9923 51.7285 389.354
   vertex -48.3163 53.0094 389.573
  endloop
 endfacet
 facet normal 0.0231614 0.0444301 -0.998744
  outer loop
   vertex -43.8875 52.1339 388.989
   vertex -46.5572 51.5019 388.899
   vertex -44.3151 54.2001 389.071
  endloop
 endfacet
 facet normal -0.260474 0.275441 -0.925357
  outer loop
   vertex -46.5572 51.5019 388.899
   vertex -46.2503 52.79 389.196
   vertex -44.3151 54.2001 389.071
  endloop
 endfacet
 facet normal -0.346316 0.251755 -0.903706
  outer loop
   vertex -48.4901 50.7896 388.9
   vertex -48.9923 51.7285 389.354
   vertex -48.2199 51.8074 389.08
  endloop
 endfacet
 facet normal -0.475071 0.186859 -0.859879
  outer loop
   vertex -48.9923 51.7285 389.354
   vertex -49.0596 50.2873 389.078
   vertex -49.6685 50.8883 389.545
  endloop
 endfacet
 facet normal -0.523245 -0.142472 -0.840189
  outer loop
   vertex -45.0462 56.3132 389.168
   vertex -44.015 56.2294 388.54
   vertex -44.3151 54.2001 389.071
  endloop
 endfacet
 facet normal -0.109182 0.0168486 -0.993879
  outer loop
   vertex -43.1508 52.8376 388.92
   vertex -43.8875 52.1339 388.989
   vertex -44.3151 54.2001 389.071
  endloop
 endfacet
 facet normal 0.14979 -0.250596 -0.956433
  outer loop
   vertex -43.3503 52.0619 389.092
   vertex -43.8875 52.1339 388.989
   vertex -43.1508 52.8376 388.92
  endloop
 endfacet
 facet normal -0.0586508 0.237558 -0.969601
  outer loop
   vertex -46.2503 52.79 389.196
   vertex -46.5572 51.5019 388.899
   vertex -47.3722 52.3334 389.152
  endloop
 endfacet
 facet normal 0.122895 -0.389084 -0.912968
  outer loop
   vertex -43.3503 52.0619 389.092
   vertex -46.5572 51.5019 388.899
   vertex -43.8875 52.1339 388.989
  endloop
 endfacet
 facet normal 0.0778926 -0.104308 -0.99149
  outer loop
   vertex -43.3503 52.0619 389.092
   vertex -44.6463 51.3604 389.064
   vertex -46.5572 51.5019 388.899
  endloop
 endfacet
 facet normal -0.440703 0.188649 -0.877606
  outer loop
   vertex -48.9923 51.7285 389.354
   vertex -48.4901 50.7896 388.9
   vertex -49.0596 50.2873 389.078
  endloop
 endfacet
 facet normal -0.205733 -0.160573 -0.965345
  outer loop
   vertex -44.015 56.2294 388.54
   vertex -42.1736 53.281 388.638
   vertex -43.1508 52.8376 388.92
  endloop
 endfacet
 facet normal -0.341964 -0.190232 -0.920257
  outer loop
   vertex -44.3151 54.2001 389.071
   vertex -44.015 56.2294 388.54
   vertex -43.1508 52.8376 388.92
  endloop
 endfacet
 facet normal -0.0436752 0.251412 -0.966894
  outer loop
   vertex -46.5572 51.5019 388.899
   vertex -47.6719 50.7199 388.746
   vertex -47.3722 52.3334 389.152
  endloop
 endfacet
 facet normal -0.0775004 0.256804 -0.963351
  outer loop
   vertex -47.3722 52.3334 389.152
   vertex -47.6719 50.7199 388.746
   vertex -48.2199 51.8074 389.08
  endloop
 endfacet
 facet normal -0.163084 0.213633 -0.963205
  outer loop
   vertex -47.6719 50.7199 388.746
   vertex -48.4901 50.7896 388.9
   vertex -48.2199 51.8074 389.08
  endloop
 endfacet
 facet normal -0.371899 0.0943892 -0.923462
  outer loop
   vertex -48.4019 49.6989 388.753
   vertex -49.0596 50.2873 389.078
   vertex -48.4901 50.7896 388.9
  endloop
 endfacet
 facet normal -0.161614 -0.250868 -0.954435
  outer loop
   vertex -43.1508 52.8376 388.92
   vertex -42.1736 53.281 388.638
   vertex -42.2245 52.7393 388.789
  endloop
 endfacet
 facet normal -0.494256 -0.33534 -0.802034
  outer loop
   vertex -44.015 56.2294 388.54
   vertex -41.379 54.3509 387.701
   vertex -42.1736 53.281 388.638
  endloop
 endfacet
 facet normal 0.128352 0.172611 -0.976592
  outer loop
   vertex -45.6225 50.8578 388.908
   vertex -46.828 50.5378 388.693
   vertex -46.5572 51.5019 388.899
  endloop
 endfacet
 facet normal -0.0153909 0.213056 -0.976919
  outer loop
   vertex -47.6719 50.7199 388.746
   vertex -46.5572 51.5019 388.899
   vertex -46.828 50.5378 388.693
  endloop
 endfacet
 facet normal -0.0212668 0.187324 -0.982068
  outer loop
   vertex -46.828 50.5378 388.693
   vertex -47.2663 50.1159 388.622
   vertex -47.6719 50.7199 388.746
  endloop
 endfacet
 facet normal 0.200477 -0.0436016 -0.978728
  outer loop
   vertex -46.6005 50.3042 388.75
   vertex -47.2663 50.1159 388.622
   vertex -46.828 50.5378 388.693
  endloop
 endfacet
 facet normal -0.0718464 0.154052 -0.985447
  outer loop
   vertex -47.2663 50.1159 388.622
   vertex -47.8486 49.825 388.619
   vertex -47.6719 50.7199 388.746
  endloop
 endfacet
 facet normal 0.0503288 -0.0904144 -0.994632
  outer loop
   vertex -47.8486 49.825 388.619
   vertex -47.2663 50.1159 388.622
   vertex -47.526 49.8065 388.637
  endloop
 endfacet
 facet normal -0.53065 0.137813 -0.836312
  outer loop
   vertex 34.8378 33.3768 332.368
   vertex 35.3779 32.7378 331.92
   vertex 34.5407 32.961 332.488
  endloop
 endfacet
 facet normal -0.538234 0.128986 -0.832867
  outer loop
   vertex 36.3688 32.6433 331.265
   vertex 35.3779 32.7378 331.92
   vertex 34.8378 33.3768 332.368
  endloop
 endfacet
 facet normal -0.518234 -0.386442 -0.762952
  outer loop
   vertex -43.1804 56.9759 387.595
   vertex -41.379 54.3509 387.701
   vertex -44.015 56.2294 388.54
  endloop
 endfacet
 facet normal -0.566298 -0.417318 -0.710741
  outer loop
   vertex -41.6363 57.5817 386.009
   vertex -41.379 54.3509 387.701
   vertex -43.1804 56.9759 387.595
  endloop
 endfacet
 facet normal -0.660013 -0.20779 -0.721946
  outer loop
   vertex -43.1804 56.9759 387.595
   vertex -42.5675 57.5203 386.878
   vertex -41.6363 57.5817 386.009
  endloop
 endfacet
 facet normal -0.502015 -0.432276 -0.749078
  outer loop
   vertex -40.6815 58.3409 384.931
   vertex -41.379 54.3509 387.701
   vertex -41.6363 57.5817 386.009
  endloop
 endfacet
 facet normal -0.573423 -0.397199 -0.716533
  outer loop
   vertex -38.007 54.7324 384.791
   vertex -41.379 54.3509 387.701
   vertex -40.6815 58.3409 384.931
  endloop
 endfacet
 facet normal -0.610913 -0.426918 -0.666728
  outer loop
   vertex -40.6815 58.3409 384.931
   vertex -35.4164 57.5408 380.619
   vertex -38.007 54.7324 384.791
  endloop
 endfacet
 facet normal -0.590663 -0.450073 -0.66974
  outer loop
   vertex -38.007 54.7324 384.791
   vertex -35.4164 57.5408 380.619
   vertex -36.597 55.181 383.246
  endloop
 endfacet
 facet normal -0.555973 -0.461789 -0.691118
  outer loop
   vertex -34.2613 57.6789 379.698
   vertex -35.5683 55.0021 382.538
   vertex -36.597 55.181 383.246
  endloop
 endfacet
 facet normal -0.490284 -0.527274 -0.693977
  outer loop
   vertex -34.2613 57.6789 379.698
   vertex -36.597 55.181 383.246
   vertex -35.4164 57.5408 380.619
  endloop
 endfacet
 facet normal -0.617862 -0.440579 -0.651258
  outer loop
   vertex -35.4164 57.5408 380.619
   vertex -38.5151 58.6181 382.83
   vertex -37.3769 58.8031 381.625
  endloop
 endfacet
 facet normal -0.602124 -0.423856 -0.676604
  outer loop
   vertex -34.4866 55.1703 381.47
   vertex -35.5683 55.0021 382.538
   vertex -34.2613 57.6789 379.698
  endloop
 endfacet
 facet normal -0.56295 -0.324707 -0.760034
  outer loop
   vertex 35.3513 34.7342 331.626
   vertex 33.5344 33.7365 333.398
   vertex 33.6096 37.0025 331.947
  endloop
 endfacet
 facet normal -0.61821 -0.442332 -0.649737
  outer loop
   vertex -35.4164 57.5408 380.619
   vertex -37.3769 58.8031 381.625
   vertex -36.195 58.7068 380.566
  endloop
 endfacet
 facet normal -0.591321 -0.42917 -0.682753
  outer loop
   vertex -34.2613 57.6789 379.698
   vertex -32.6807 54.7868 380.147
   vertex -34.4866 55.1703 381.47
  endloop
 endfacet
 facet normal -0.667378 -0.133071 -0.732734
  outer loop
   vertex -36.9179 59.0671 381.159
   vertex -36.195 58.7068 380.566
   vertex -37.3769 58.8031 381.625
  endloop
 endfacet
 facet normal -0.593357 -0.210762 -0.776857
  outer loop
   vertex 32.8801 37.5044 332.368
   vertex 33.6096 37.0025 331.947
   vertex 32.5402 37.2008 332.71
  endloop
 endfacet
 facet normal -0.604722 -0.434142 -0.667707
  outer loop
   vertex -35.0734 58.4841 379.695
   vertex -35.4164 57.5408 380.619
   vertex -36.195 58.7068 380.566
  endloop
 endfacet
 facet normal -0.459445 -0.530628 -0.712281
  outer loop
   vertex -34.2912 58.2055 379.398
   vertex -35.4164 57.5408 380.619
   vertex -35.0734 58.4841 379.695
  endloop
 endfacet
 facet normal -0.525782 -0.443388 -0.72592
  outer loop
   vertex -34.2613 57.6789 379.698
   vertex -35.4164 57.5408 380.619
   vertex -34.2912 58.2055 379.398
  endloop
 endfacet
 facet normal -0.676784 -0.213652 -0.704497
  outer loop
   vertex -35.8644 59.2028 380.098
   vertex -35.2131 58.9664 379.544
   vertex -36.195 58.7068 380.566
  endloop
 endfacet
 facet normal -0.61151 -0.392267 -0.687155
  outer loop
   vertex -36.195 58.7068 380.566
   vertex -35.2131 58.9664 379.544
   vertex -35.0734 58.4841 379.695
  endloop
 endfacet
 facet normal -0.563135 -0.418402 -0.712614
  outer loop
   vertex -34.2613 57.6789 379.698
   vertex -33.5338 57.2073 379.4
   vertex -32.6807 54.7868 380.147
  endloop
 endfacet
 facet normal -0.47401 -0.18759 -0.860305
  outer loop
   vertex -33.8143 58.1179 379.356
   vertex -33.5338 57.2073 379.4
   vertex -34.2613 57.6789 379.698
  endloop
 endfacet
 facet normal -0.353363 -0.264639 -0.897274
  outer loop
   vertex -33.2165 57.8926 379.187
   vertex -33.8143 58.1179 379.356
   vertex -33.1661 58.1441 379.093
  endloop
 endfacet
 facet normal -0.327335 -0.171643 -0.929188
  outer loop
   vertex -33.8143 58.1179 379.356
   vertex -33.2165 57.8926 379.187
   vertex -33.5688 57.6821 379.35
  endloop
 endfacet
 facet normal -0.234517 -0.118867 -0.964817
  outer loop
   vertex -33.5338 57.2073 379.4
   vertex -33.8143 58.1179 379.356
   vertex -33.5688 57.6821 379.35
  endloop
 endfacet
 facet normal -0.49413 -0.636543 -0.592156
  outer loop
   vertex -33.8017 58.428 378.945
   vertex -35.2131 58.9664 379.544
   vertex -33.7669 59.1415 378.149
  endloop
 endfacet
 facet normal -0.457058 -0.496685 -0.737835
  outer loop
   vertex -35.0734 58.4841 379.695
   vertex -33.8017 58.428 378.945
   vertex -34.2912 58.2055 379.398
  endloop
 endfacet
 facet normal -0.481232 -0.385827 -0.787117
  outer loop
   vertex -33.8017 58.428 378.945
   vertex -35.0734 58.4841 379.695
   vertex -35.2131 58.9664 379.544
  endloop
 endfacet
 facet normal -0.259174 -0.660606 -0.704577
  outer loop
   vertex -33.5198 58.3063 379.071
   vertex -33.1661 58.1441 379.093
   vertex -33.8143 58.1179 379.356
  endloop
 endfacet
 facet normal -0.190749 -0.716607 -0.670887
  outer loop
   vertex -34.2912 58.2055 379.398
   vertex -33.5198 58.3063 379.071
   vertex -33.8143 58.1179 379.356
  endloop
 endfacet
 facet normal -0.546117 -0.12743 -0.82796
  outer loop
   vertex -33.5688 57.6821 379.35
   vertex -33.0733 57.6572 379.027
   vertex -33.5338 57.2073 379.4
  endloop
 endfacet
 facet normal -0.166106 -0.495213 -0.852744
  outer loop
   vertex -33.8143 58.1179 379.356
   vertex -34.2613 57.6789 379.698
   vertex -34.2912 58.2055 379.398
  endloop
 endfacet
 facet normal -0.521769 0.239187 -0.818869
  outer loop
   vertex -33.2165 57.8926 379.187
   vertex -33.0733 57.6572 379.027
   vertex -33.5688 57.6821 379.35
  endloop
 endfacet
 facet normal -0.613241 -0.211991 -0.760918
  outer loop
   vertex -32.5991 57.5472 378.552
   vertex -32.3051 56.546 378.594
   vertex -33.5338 57.2073 379.4
  endloop
 endfacet
 facet normal -0.645127 -0.423621 -0.63589
  outer loop
   vertex -32.6807 54.7868 380.147
   vertex -33.5338 57.2073 379.4
   vertex -32.3051 56.546 378.594
  endloop
 endfacet
 facet normal -0.854871 -0.228638 -0.465747
  outer loop
   vertex -32.6807 54.7868 380.147
   vertex -32.3051 56.546 378.594
   vertex -32.3379 55.7479 379.046
  endloop
 endfacet
 facet normal -0.616235 -0.164453 -0.770201
  outer loop
   vertex -33.1661 58.1441 379.093
   vertex -32.7743 57.9217 378.827
   vertex -33.2165 57.8926 379.187
  endloop
 endfacet
 facet normal -0.303149 -0.742045 -0.597888
  outer loop
   vertex -33.5198 58.3063 379.071
   vertex -33.0356 58.3067 378.825
   vertex -33.1661 58.1441 379.093
  endloop
 endfacet
 facet normal -0.630887 0.135482 -0.763954
  outer loop
   vertex -32.7743 57.9217 378.827
   vertex -33.0733 57.6572 379.027
   vertex -33.2165 57.8926 379.187
  endloop
 endfacet
 facet normal -0.689889 0.113393 -0.714979
  outer loop
   vertex -33.0733 57.6572 379.027
   vertex -32.5991 57.5472 378.552
   vertex -33.5338 57.2073 379.4
  endloop
 endfacet
 facet normal -0.721453 -0.377593 -0.580455
  outer loop
   vertex -33.0356 58.3067 378.825
   vertex -32.5596 58.172 378.321
   vertex -33.1661 58.1441 379.093
  endloop
 endfacet
 facet normal -0.661725 -0.521432 -0.538729
  outer loop
   vertex -32.7743 57.9217 378.827
   vertex -33.1661 58.1441 379.093
   vertex -32.5596 58.172 378.321
  endloop
 endfacet
 facet normal -0.666375 0.21295 -0.71456
  outer loop
   vertex -32.7743 57.9217 378.827
   vertex -32.5991 57.5472 378.552
   vertex -33.0733 57.6572 379.027
  endloop
 endfacet
 facet normal -0.615421 -0.43411 -0.65788
  outer loop
   vertex -32.3379 55.7479 379.046
   vertex -30.7683 54.7048 378.266
   vertex -32.1914 55.0719 379.355
  endloop
 endfacet
 facet normal -0.896395 -0.102741 -0.431184
  outer loop
   vertex -32.5596 58.172 378.321
   vertex -32.5991 57.5472 378.552
   vertex -32.7743 57.9217 378.827
  endloop
 endfacet
 facet normal -0.736955 -0.242862 -0.630806
  outer loop
   vertex -32.5991 57.5472 378.552
   vertex -31.978 57.2521 377.94
   vertex -32.3051 56.546 378.594
  endloop
 endfacet
 facet normal -0.733784 -0.19429 -0.651009
  outer loop
   vertex -32.5596 58.172 378.321
   vertex -31.978 57.2521 377.94
   vertex -32.5991 57.5472 378.552
  endloop
 endfacet
 facet normal -0.466125 -0.727245 -0.503827
  outer loop
   vertex -33.2351 58.4865 378.492
   vertex -32.4742 58.6521 377.549
   vertex -32.5596 58.172 378.321
  endloop
 endfacet
 facet normal -0.639343 -0.168271 -0.750284
  outer loop
   vertex 34.8378 33.3768 332.368
   vertex 33.5344 33.7365 333.398
   vertex 35.3513 34.7342 331.626
  endloop
 endfacet
 facet normal -0.673558 -0.591943 -0.442631
  outer loop
   vertex -32.5596 58.172 378.321
   vertex -32.4742 58.6521 377.549
   vertex -31.7358 57.9764 377.329
  endloop
 endfacet
 facet normal -0.629812 -0.350335 -0.693254
  outer loop
   vertex -31.978 57.2521 377.94
   vertex -30.602 56.1557 377.244
   vertex -32.3051 56.546 378.594
  endloop
 endfacet
 facet normal -0.424725 -0.769 -0.477754
  outer loop
   vertex -32.4742 58.6521 377.549
   vertex -33.2351 58.4865 378.492
   vertex -33.2458 58.8366 377.938
  endloop
 endfacet
 facet normal -0.769412 -0.241535 -0.591326
  outer loop
   vertex -31.7358 57.9764 377.329
   vertex -31.978 57.2521 377.94
   vertex -32.5596 58.172 378.321
  endloop
 endfacet
 facet normal -0.634537 -0.363288 -0.682191
  outer loop
   vertex -30.602 56.1557 377.244
   vertex -31.978 57.2521 377.94
   vertex -31.7358 57.9764 377.329
  endloop
 endfacet
 facet normal -0.628419 -0.36362 -0.687656
  outer loop
   vertex -32.3051 56.546 378.594
   vertex -30.602 56.1557 377.244
   vertex -32.3379 55.7479 379.046
  endloop
 endfacet
 facet normal -0.609302 -0.408767 -0.679457
  outer loop
   vertex -30.7683 54.7048 378.266
   vertex -32.3379 55.7479 379.046
   vertex -30.602 56.1557 377.244
  endloop
 endfacet
 facet normal -0.629572 -0.397896 -0.667322
  outer loop
   vertex -30.602 56.1557 377.244
   vertex -29.9814 54.6907 377.532
   vertex -30.7683 54.7048 378.266
  endloop
 endfacet
 facet normal -0.477771 -0.544247 -0.689587
  outer loop
   vertex -32.4742 58.6521 377.549
   vertex -33.2458 58.8366 377.938
   vertex -32.9461 59.2032 377.441
  endloop
 endfacet
 facet normal -0.473535 -0.358747 -0.804404
  outer loop
   vertex -29.9814 54.6907 377.532
   vertex -30.602 56.1557 377.244
   vertex -29.0436 53.9798 377.297
  endloop
 endfacet
 facet normal -0.44815 -0.525473 -0.723215
  outer loop
   vertex -32.9461 59.2032 377.441
   vertex -32.3453 59.4657 376.878
   vertex -32.4742 58.6521 377.549
  endloop
 endfacet
 facet normal -0.605373 -0.447159 -0.658462
  outer loop
   vertex -32.4742 58.6521 377.549
   vertex -32.3453 59.4657 376.878
   vertex -31.7358 57.9764 377.329
  endloop
 endfacet
 facet normal -0.57642 -0.443708 -0.686195
  outer loop
   vertex -32.3453 59.4657 376.878
   vertex -30.477 59.0243 375.594
   vertex -31.7358 57.9764 377.329
  endloop
 endfacet
 facet normal -0.557119 -0.512393 -0.653507
  outer loop
   vertex -28.0951 54.1063 376.296
   vertex -27.767 53.6182 376.399
   vertex -28.548 53.8373 376.893
  endloop
 endfacet
 facet normal -0.640028 -0.233673 -0.731957
  outer loop
   vertex -32.1462 59.835 376.586
   vertex -31.6531 59.8251 376.158
   vertex -32.3453 59.4657 376.878
  endloop
 endfacet
 facet normal -0.61614 -0.456915 -0.641561
  outer loop
   vertex -30.602 56.1557 377.244
   vertex -28.0951 54.1063 376.296
   vertex -29.0436 53.9798 377.297
  endloop
 endfacet
 facet normal -0.542856 -0.301448 -0.78386
  outer loop
   vertex -31.7358 57.9764 377.329
   vertex -28.0951 54.1063 376.296
   vertex -30.602 56.1557 377.244
  endloop
 endfacet
 facet normal -0.585723 -0.343037 -0.734339
  outer loop
   vertex -32.3453 59.4657 376.878
   vertex -31.6531 59.8251 376.158
   vertex -30.477 59.0243 375.594
  endloop
 endfacet
 facet normal -0.564689 -0.51557 -0.644449
  outer loop
   vertex -28.0951 54.1063 376.296
   vertex -26.783 53.5329 375.605
   vertex -27.767 53.6182 376.399
  endloop
 endfacet
 facet normal -0.567231 -0.290263 -0.770712
  outer loop
   vertex -31.2912 60.7906 375.528
   vertex -30.477 59.0243 375.594
   vertex -31.6531 59.8251 376.158
  endloop
 endfacet
 facet normal -0.604117 -0.381567 -0.699606
  outer loop
   vertex -28.0951 54.1063 376.296
   vertex -31.7358 57.9764 377.329
   vertex -28.538 58.4892 374.288
  endloop
 endfacet
 facet normal -0.582403 -0.436163 -0.68598
  outer loop
   vertex -30.477 59.0243 375.594
   vertex -28.538 58.4892 374.288
   vertex -31.7358 57.9764 377.329
  endloop
 endfacet
 facet normal -0.556898 -0.391802 -0.732363
  outer loop
   vertex -26.783 53.5329 375.605
   vertex -28.0951 54.1063 376.296
   vertex -28.538 58.4892 374.288
  endloop
 endfacet
 facet normal -0.659632 -0.329304 -0.675607
  outer loop
   vertex -30.477 59.0243 375.594
   vertex -31.2912 60.7906 375.528
   vertex -30.4556 60.7602 374.727
  endloop
 endfacet
 facet normal -0.546263 -0.368866 -0.75202
  outer loop
   vertex -30.4556 60.7602 374.727
   vertex -28.438 60.3757 373.45
   vertex -30.477 59.0243 375.594
  endloop
 endfacet
 facet normal -0.588489 -0.301956 -0.750003
  outer loop
   vertex -28.538 58.4892 374.288
   vertex -30.477 59.0243 375.594
   vertex -28.438 60.3757 373.45
  endloop
 endfacet
 facet normal -0.547715 -0.349652 -0.7601
  outer loop
   vertex -29.2769 60.9355 373.797
   vertex -28.438 60.3757 373.45
   vertex -30.4556 60.7602 374.727
  endloop
 endfacet
 facet normal -0.57764 -0.394444 -0.714665
  outer loop
   vertex -26.1536 56.8853 373.246
   vertex -26.783 53.5329 375.605
   vertex -28.538 58.4892 374.288
  endloop
 endfacet
 facet normal -0.602896 -0.296967 -0.740491
  outer loop
   vertex -27.654 59.1681 373.296
   vertex -28.538 58.4892 374.288
   vertex -28.438 60.3757 373.45
  endloop
 endfacet
 facet normal -0.558648 -0.338621 -0.757132
  outer loop
   vertex -27.0792 58.8126 373.067
   vertex -26.1536 56.8853 373.246
   vertex -28.538 58.4892 374.288
  endloop
 endfacet
 facet normal -0.688451 -0.337812 -0.641808
  outer loop
   vertex -24.0887 54.0395 373.096
   vertex -24.1417 52.8556 373.776
   vertex -25.4993 52.8713 375.224
  endloop
 endfacet
 facet normal -0.473708 -0.502694 -0.723118
  outer loop
   vertex -25.4993 52.8713 375.224
   vertex -26.783 53.5329 375.605
   vertex -25.1113 55.4747 373.16
  endloop
 endfacet
 facet normal -0.477476 -0.182836 -0.859411
  outer loop
   vertex -29.2769 60.9355 373.797
   vertex -28.7382 60.7837 373.53
   vertex -28.438 60.3757 373.45
  endloop
 endfacet
 facet normal -0.58612 -0.389784 -0.710304
  outer loop
   vertex -26.1536 56.8853 373.246
   vertex -25.1113 55.4747 373.16
   vertex -26.783 53.5329 375.605
  endloop
 endfacet
 facet normal -0.577776 -0.386909 -0.718663
  outer loop
   vertex -23.4223 52.7899 373.233
   vertex -24.1417 52.8556 373.776
   vertex -24.0887 54.0395 373.096
  endloop
 endfacet
 facet normal -0.573759 -0.498868 -0.649563
  outer loop
   vertex -22.4639 52.1176 372.992
   vertex -22.4217 51.7774 373.216
   vertex -22.8548 51.8927 373.51
  endloop
 endfacet
 facet normal -0.511835 -0.472443 -0.717511
  outer loop
   vertex -22.4639 52.1176 372.992
   vertex -23.3864 52.1572 373.624
   vertex -23.4223 52.7899 373.233
  endloop
 endfacet
 facet normal -0.632086 -0.421373 -0.650317
  outer loop
   vertex -25.1113 55.4747 373.16
   vertex -24.0887 54.0395 373.096
   vertex -25.4993 52.8713 375.224
  endloop
 endfacet
 facet normal -0.550645 -0.33545 -0.764371
  outer loop
   vertex -25.9328 57.808 372.682
   vertex -26.1536 56.8853 373.246
   vertex -27.0792 58.8126 373.067
  endloop
 endfacet
 facet normal -0.179097 0.167162 -0.969526
  outer loop
   vertex -25.9664 58.1837 372.753
   vertex -25.9328 57.808 372.682
   vertex -27.0792 58.8126 373.067
  endloop
 endfacet
 facet normal -0.526568 -0.341625 -0.778472
  outer loop
   vertex -24.6565 57.376 372.018
   vertex -25.1113 55.4747 373.16
   vertex -26.1536 56.8853 373.246
  endloop
 endfacet
 facet normal -0.460176 -0.770955 -0.440302
  outer loop
   vertex -21.3181 51.6391 372.578
   vertex -20.569 51.2388 372.496
   vertex -21.2022 51.438 372.809
  endloop
 endfacet
 facet normal -0.38173 -0.783391 -0.49049
  outer loop
   vertex -22.4217 51.7774 373.216
   vertex -21.3181 51.6391 372.578
   vertex -21.2022 51.438 372.809
  endloop
 endfacet
 facet normal -0.47446 -0.524393 -0.707036
  outer loop
   vertex -22.4639 52.1176 372.992
   vertex -21.3181 51.6391 372.578
   vertex -22.4217 51.7774 373.216
  endloop
 endfacet
 facet normal -0.537209 -0.369604 -0.758155
  outer loop
   vertex -23.468 55.3876 371.999
   vertex -23.4223 52.7899 373.233
   vertex -24.0887 54.0395 373.096
  endloop
 endfacet
 facet normal -0.551156 -0.359123 -0.753166
  outer loop
   vertex -25.1113 55.4747 373.16
   vertex -23.468 55.3876 371.999
   vertex -24.0887 54.0395 373.096
  endloop
 endfacet
 facet normal -0.557028 -0.32564 -0.763989
  outer loop
   vertex -25.1113 55.4747 373.16
   vertex -24.6565 57.376 372.018
   vertex -23.468 55.3876 371.999
  endloop
 endfacet
 facet normal -0.470056 -0.38546 -0.79402
  outer loop
   vertex -22.4639 52.1176 372.992
   vertex -23.4223 52.7899 373.233
   vertex -23.468 55.3876 371.999
  endloop
 endfacet
 facet normal -0.451252 -0.383291 -0.805891
  outer loop
   vertex -22.4639 52.1176 372.992
   vertex -23.468 55.3876 371.999
   vertex -21.3181 51.6391 372.578
  endloop
 endfacet
 facet normal -0.451864 -0.745108 -0.490543
  outer loop
   vertex -21.3181 51.6391 372.578
   vertex -20.5976 51.453 372.197
   vertex -20.569 51.2388 372.496
  endloop
 endfacet
 facet normal -0.534992 -0.710208 -0.45759
  outer loop
   vertex -20.5976 51.453 372.197
   vertex -20.0178 51.0652 372.121
   vertex -20.569 51.2388 372.496
  endloop
 endfacet
 facet normal -0.575316 -0.336749 -0.745394
  outer loop
   vertex -23.468 55.3876 371.999
   vertex -24.6565 57.376 372.018
   vertex -23.1614 56.3645 371.321
  endloop
 endfacet
 facet normal -0.506923 -0.408025 -0.759305
  outer loop
   vertex -23.468 55.3876 371.999
   vertex -20.5976 51.453 372.197
   vertex -21.3181 51.6391 372.578
  endloop
 endfacet
 facet normal -0.295541 -0.261839 -0.918747
  outer loop
   vertex -20.0178 51.0652 372.121
   vertex -20.5976 51.453 372.197
   vertex -23.468 55.3876 371.999
  endloop
 endfacet
 facet normal -0.578552 -0.480414 -0.659151
  outer loop
   vertex -23.468 55.3876 371.999
   vertex -18.8341 50.902 371.201
   vertex -20.0178 51.0652 372.121
  endloop
 endfacet
 facet normal -0.499288 -0.377011 -0.780112
  outer loop
   vertex -19.4183 55.2719 369.463
   vertex -18.8341 50.902 371.201
   vertex -23.468 55.3876 371.999
  endloop
 endfacet
 facet normal -0.503111 -0.345373 -0.792211
  outer loop
   vertex -22.4253 56.4102 370.891
   vertex -20.5746 55.7442 370.006
   vertex -23.468 55.3876 371.999
  endloop
 endfacet
 facet normal -0.462354 -0.459803 -0.758162
  outer loop
   vertex -17.5195 50.2314 370.806
   vertex -18.8341 50.902 371.201
   vertex -17.7164 53.8673 368.721
  endloop
 endfacet
 facet normal -0.508043 -0.32829 -0.796315
  outer loop
   vertex -20.5746 55.7442 370.006
   vertex -19.4183 55.2719 369.463
   vertex -23.468 55.3876 371.999
  endloop
 endfacet
 facet normal -0.607316 -0.362376 -0.707001
  outer loop
   vertex -17.7164 53.8673 368.721
   vertex -18.8341 50.902 371.201
   vertex -19.4183 55.2719 369.463
  endloop
 endfacet
 facet normal -0.507216 -0.726303 -0.463914
  outer loop
   vertex -15.5847 49.7093 369.39
   vertex -14.998 49.5768 368.956
   vertex -14.9662 49.3553 369.268
  endloop
 endfacet
 facet normal -0.536387 -0.441513 -0.719274
  outer loop
   vertex -17.5195 50.2314 370.806
   vertex -17.7164 53.8673 368.721
   vertex -16.4658 53.982 367.718
  endloop
 endfacet
 facet normal -0.560526 -0.701174 -0.440642
  outer loop
   vertex -14.998 49.5768 368.956
   vertex -14.4258 49.2991 368.67
   vertex -14.9662 49.3553 369.268
  endloop
 endfacet
 facet normal -0.595013 -0.447226 -0.667794
  outer loop
   vertex -15.1893 50.3405 368.615
   vertex -14.998 49.5768 368.956
   vertex -15.5847 49.7093 369.39
  endloop
 endfacet
 facet normal -0.622297 -0.385903 -0.681047
  outer loop
   vertex -16.4658 53.982 367.718
   vertex -15.1893 50.3405 368.615
   vertex -17.5195 50.2314 370.806
  endloop
 endfacet
 facet normal -0.564352 -0.45031 -0.691901
  outer loop
   vertex -14.998 49.5768 368.956
   vertex -15.1893 50.3405 368.615
   vertex -14.4258 49.2991 368.67
  endloop
 endfacet
 facet normal -0.590226 -0.534822 -0.604647
  outer loop
   vertex -13.2966 49.1497 367.741
   vertex -12.6644 48.5108 367.689
   vertex -13.8339 48.9309 368.459
  endloop
 endfacet
 facet normal -0.596593 -0.471696 -0.649291
  outer loop
   vertex -15.1893 50.3405 368.615
   vertex -13.2966 49.1497 367.741
   vertex -14.4258 49.2991 368.67
  endloop
 endfacet
 facet normal -0.566308 -0.568287 -0.596947
  outer loop
   vertex -14.4258 49.2991 368.67
   vertex -13.2966 49.1497 367.741
   vertex -13.8339 48.9309 368.459
  endloop
 endfacet
 facet normal -0.606314 -0.384065 -0.696332
  outer loop
   vertex -16.4658 53.982 367.718
   vertex -13.6056 51.432 366.634
   vertex -15.1893 50.3405 368.615
  endloop
 endfacet
 facet normal -0.58395 -0.416913 -0.696553
  outer loop
   vertex -13.2966 49.1497 367.741
   vertex -15.1893 50.3405 368.615
   vertex -13.6056 51.432 366.634
  endloop
 endfacet
 facet normal -0.520537 -0.456339 -0.721662
  outer loop
   vertex -13.2966 49.1497 367.741
   vertex -12.1221 48.3018 367.43
   vertex -12.6644 48.5108 367.689
  endloop
 endfacet
 facet normal -0.567099 -0.312061 -0.762244
  outer loop
   vertex -16.4658 53.982 367.718
   vertex -14.7764 53.3203 366.732
   vertex -13.6056 51.432 366.634
  endloop
 endfacet
 facet normal -0.612157 -0.34257 -0.712678
  outer loop
   vertex -13.4175 52.5688 365.926
   vertex -13.6056 51.432 366.634
   vertex -14.7764 53.3203 366.732
  endloop
 endfacet
 facet normal -0.508321 -0.430563 -0.745805
  outer loop
   vertex -13.2966 49.1497 367.741
   vertex -13.6056 51.432 366.634
   vertex -12.1221 48.3018 367.43
  endloop
 endfacet
 facet normal -0.505382 -0.39438 -0.767498
  outer loop
   vertex -13.4175 52.5688 365.926
   vertex -12.592 52.484 365.426
   vertex -13.6056 51.432 366.634
  endloop
 endfacet
 facet normal -0.6167 -0.259299 -0.743266
  outer loop
   vertex -12.592 52.484 365.426
   vertex -11.9806 51.2191 365.36
   vertex -13.6056 51.432 366.634
  endloop
 endfacet
 facet normal -0.648514 -0.408948 -0.642021
  outer loop
   vertex -10.9318 50.2998 364.955
   vertex -10.3499 48.3628 365.601
   vertex -12.1221 48.3018 367.43
  endloop
 endfacet
 facet normal -0.586898 -0.449412 -0.673484
  outer loop
   vertex -11.9806 51.2191 365.36
   vertex -12.1221 48.3018 367.43
   vertex -13.6056 51.432 366.634
  endloop
 endfacet
 facet normal -0.544127 0.150599 -0.825376
  outer loop
   vertex 34.5407 32.961 332.488
   vertex 33.4182 33.0213 333.239
   vertex 34.8378 33.3768 332.368
  endloop
 endfacet
 facet normal -0.551626 0.265413 -0.790737
  outer loop
   vertex 33.5344 33.7365 333.398
   vertex 34.8378 33.3768 332.368
   vertex 33.4182 33.0213 333.239
  endloop
 endfacet
 facet normal -0.627574 -0.430064 -0.648996
  outer loop
   vertex -10.9318 50.2998 364.955
   vertex -12.1221 48.3018 367.43
   vertex -11.9806 51.2191 365.36
  endloop
 endfacet
 facet normal -0.554201 -0.288254 -0.780878
  outer loop
   vertex -11.2013 51.8988 364.556
   vertex -10.9318 50.2998 364.955
   vertex -11.9806 51.2191 365.36
  endloop
 endfacet
 facet normal -0.592388 -0.409386 -0.693887
  outer loop
   vertex -10.9318 50.2998 364.955
   vertex -9.89412 49.883 364.315
   vertex -10.3499 48.3628 365.601
  endloop
 endfacet
 facet normal -0.591242 -0.536493 -0.60217
  outer loop
   vertex -9.414 47.4058 365.365
   vertex -8.28633 47.217 364.426
   vertex -8.62831 46.9743 364.978
  endloop
 endfacet
 facet normal -0.59306 -0.408927 -0.693584
  outer loop
   vertex -9.89412 49.883 364.315
   vertex -9.414 47.4058 365.365
   vertex -10.3499 48.3628 365.601
  endloop
 endfacet
 facet normal -0.631924 -0.359483 -0.686618
  outer loop
   vertex -8.28633 47.217 364.426
   vertex -9.414 47.4058 365.365
   vertex -7.85561 47.9802 363.63
  endloop
 endfacet
 facet normal -0.557452 -0.575488 -0.598381
  outer loop
   vertex -7.73548 46.6751 364.434
   vertex -8.62831 46.9743 364.978
   vertex -8.28633 47.217 364.426
  endloop
 endfacet
 facet normal -0.665977 -0.284331 -0.68966
  outer loop
   vertex -10.9318 50.2998 364.955
   vertex -11.2013 51.8988 364.556
   vertex -10.444 51.1001 364.154
  endloop
 endfacet
 facet normal -0.590348 -0.362143 -0.721347
  outer loop
   vertex -10.444 51.1001 364.154
   vertex -9.89412 49.883 364.315
   vertex -10.9318 50.2998 364.955
  endloop
 endfacet
 facet normal -0.614433 -0.631558 -0.47287
  outer loop
   vertex -8.28633 47.217 364.426
   vertex -7.05494 46.4937 363.792
   vertex -7.73548 46.6751 364.434
  endloop
 endfacet
 facet normal -0.640995 -0.339778 -0.688242
  outer loop
   vertex -8.38455 50.5965 362.831
   vertex -7.85561 47.9802 363.63
   vertex -9.414 47.4058 365.365
  endloop
 endfacet
 facet normal -0.561793 -0.352805 -0.748276
  outer loop
   vertex -10.444 51.1001 364.154
   vertex -9.37674 50.8492 363.471
   vertex -9.89412 49.883 364.315
  endloop
 endfacet
 facet normal -0.593398 -0.395984 -0.700768
  outer loop
   vertex -8.28633 47.217 364.426
   vertex -7.85561 47.9802 363.63
   vertex -7.05494 46.4937 363.792
  endloop
 endfacet
 facet normal -0.529918 -0.415954 -0.739033
  outer loop
   vertex -9.89412 49.883 364.315
   vertex -8.38455 50.5965 362.831
   vertex -9.414 47.4058 365.365
  endloop
 endfacet
 facet normal -0.569209 -0.346505 -0.745611
  outer loop
   vertex -9.37674 50.8492 363.471
   vertex -8.38455 50.5965 362.831
   vertex -9.89412 49.883 364.315
  endloop
 endfacet
 facet normal -0.543858 -0.386032 -0.745116
  outer loop
   vertex -7.39895 49.8982 362.303
   vertex -6.2711 46.0953 363.45
   vertex -7.85561 47.9802 363.63
  endloop
 endfacet
 facet normal -0.668648 -0.361323 -0.649889
  outer loop
   vertex -5.08185 46.0702 362.371
   vertex -5.52774 45.7712 362.996
   vertex -5.78618 45.9059 363.187
  endloop
 endfacet
 facet normal -0.551038 -0.586415 -0.593696
  outer loop
   vertex -6.2711 46.0953 363.45
   vertex -5.08185 46.0702 362.371
   vertex -5.78618 45.9059 363.187
  endloop
 endfacet
 facet normal -0.504706 -0.58136 -0.638195
  outer loop
   vertex -5.08185 46.0702 362.371
   vertex -5.0605 45.6455 362.741
   vertex -5.52774 45.7712 362.996
  endloop
 endfacet
 facet normal -0.62013 -0.341121 -0.706452
  outer loop
   vertex -8.38455 50.5965 362.831
   vertex -7.39895 49.8982 362.303
   vertex -7.85561 47.9802 363.63
  endloop
 endfacet
 facet normal -0.644902 -0.520201 -0.559904
  outer loop
   vertex -5.08185 46.0702 362.371
   vertex -4.47121 45.5166 362.182
   vertex -5.0605 45.6455 362.741
  endloop
 endfacet
 facet normal -0.501824 0.0399153 -0.864048
  outer loop
   vertex -7.7809 50.3931 362.471
   vertex -8.38455 50.5965 362.831
   vertex -7.8684 50.5918 362.531
  endloop
 endfacet
 facet normal -0.540748 -0.135514 -0.830197
  outer loop
   vertex -7.7809 50.3931 362.471
   vertex -7.39895 49.8982 362.303
   vertex -8.38455 50.5965 362.831
  endloop
 endfacet
 facet normal -0.617934 -0.389292 -0.683088
  outer loop
   vertex -6.2711 46.0953 363.45
   vertex -7.39895 49.8982 362.303
   vertex -4.34481 48.5948 360.283
  endloop
 endfacet
 facet normal -0.625809 -0.380448 -0.680898
  outer loop
   vertex -5.08185 46.0702 362.371
   vertex -6.2711 46.0953 363.45
   vertex -4.34481 48.5948 360.283
  endloop
 endfacet
 facet normal -0.583162 -0.409846 -0.70139
  outer loop
   vertex -4.34481 48.5948 360.283
   vertex -3.65772 45.2007 361.695
   vertex -5.08185 46.0702 362.371
  endloop
 endfacet
 facet normal -0.591551 -0.618925 -0.51672
  outer loop
   vertex -3.65772 45.2007 361.695
   vertex -2.13567 44.9056 360.306
   vertex -2.85891 44.8413 361.211
  endloop
 endfacet
 facet normal -0.618955 -0.574601 -0.53547
  outer loop
   vertex -2.13567 44.9056 360.306
   vertex -2.23188 44.5498 360.799
   vertex -2.85891 44.8413 361.211
  endloop
 endfacet
 facet normal -0.659274 -0.398677 -0.637506
  outer loop
   vertex -3.51588 48.4121 359.54
   vertex -3.65772 45.2007 361.695
   vertex -4.34481 48.5948 360.283
  endloop
 endfacet
 facet normal -0.659162 -0.398736 -0.637586
  outer loop
   vertex -3.51588 48.4121 359.54
   vertex -2.13567 44.9056 360.306
   vertex -3.65772 45.2007 361.695
  endloop
 endfacet
 facet normal -0.646535 -0.553151 -0.525372
  outer loop
   vertex -2.13567 44.9056 360.306
   vertex -1.2715 44.246 359.937
   vertex -2.23188 44.5498 360.799
  endloop
 endfacet
 facet normal -0.676136 -0.251612 -0.692482
  outer loop
   vertex -4.09152 48.9159 359.919
   vertex -3.51588 48.4121 359.54
   vertex -4.34481 48.5948 360.283
  endloop
 endfacet
 facet normal -0.659809 -0.398831 -0.636856
  outer loop
   vertex -2.13567 44.9056 360.306
   vertex -3.51588 48.4121 359.54
   vertex -0.863661 45.9837 358.313
  endloop
 endfacet
 facet normal -0.611693 -0.463471 -0.641113
  outer loop
   vertex -0.863661 45.9837 358.313
   vertex -0.472606 43.9086 359.44
   vertex -2.13567 44.9056 360.306
  endloop
 endfacet
 facet normal -0.655143 -0.387959 -0.648287
  outer loop
   vertex -1.72605 47.6472 358.189
   vertex -0.863661 45.9837 358.313
   vertex -3.51588 48.4121 359.54
  endloop
 endfacet
 facet normal -0.620887 -0.0745504 -0.780347
  outer loop
   vertex -2.30512 48.3249 358.585
   vertex -1.72605 47.6472 358.189
   vertex -3.51588 48.4121 359.54
  endloop
 endfacet
 facet normal -0.679353 -0.444946 -0.583526
  outer loop
   vertex 0.101554 43.7139 358.92
   vertex -0.472606 43.9086 359.44
   vertex -0.863661 45.9837 358.313
  endloop
 endfacet
 facet normal -0.628342 -0.438961 -0.642262
  outer loop
   vertex 0.101554 43.7139 358.92
   vertex -0.863661 45.9837 358.313
   vertex 1.80893 43.0374 357.712
  endloop
 endfacet
 facet normal -0.646434 -0.384254 -0.659145
  outer loop
   vertex -1.72605 47.6472 358.189
   vertex -0.636624 47.324 357.309
   vertex -0.863661 45.9837 358.313
  endloop
 endfacet
 facet normal -0.589125 -0.316709 -0.743389
  outer loop
   vertex 32.5402 37.2008 332.71
   vertex 33.6096 37.0025 331.947
   vertex 33.5344 33.7365 333.398
  endloop
 endfacet
 facet normal -0.641136 -0.387568 -0.662371
  outer loop
   vertex -0.636624 47.324 357.309
   vertex 0.498403 46.9298 356.441
   vertex -0.863661 45.9837 358.313
  endloop
 endfacet
 facet normal -0.654349 -0.366598 -0.661387
  outer loop
   vertex 0.498403 46.9298 356.441
   vertex 1.70381 45.7723 355.89
   vertex -0.863661 45.9837 358.313
  endloop
 endfacet
 facet normal -0.633546 -0.445685 -0.632443
  outer loop
   vertex 1.80893 43.0374 357.712
   vertex -0.863661 45.9837 358.313
   vertex 1.70381 45.7723 355.89
  endloop
 endfacet
 facet normal -0.631322 -0.321506 -0.705738
  outer loop
   vertex 1.70381 45.7723 355.89
   vertex 0.498403 46.9298 356.441
   vertex 1.34956 46.7204 355.775
  endloop
 endfacet
 facet normal -0.618243 -0.452096 -0.64295
  outer loop
   vertex 1.80893 43.0374 357.712
   vertex 1.70381 45.7723 355.89
   vertex 2.69123 42.6628 357.127
  endloop
 endfacet
 facet normal -0.650094 -0.450005 -0.612269
  outer loop
   vertex 1.70381 45.7723 355.89
   vertex 4.02403 44.8695 354.09
   vertex 2.69123 42.6628 357.127
  endloop
 endfacet
 facet normal -0.582002 -0.533912 -0.613361
  outer loop
   vertex 3.22278 42.6505 356.444
   vertex 4.32019 43.4256 354.728
   vertex 3.91543 42.2091 356.171
  endloop
 endfacet
 facet normal -0.690665 -0.445717 -0.569489
  outer loop
   vertex 4.32019 43.4256 354.728
   vertex 5.4229 42.0133 354.496
   vertex 3.91543 42.2091 356.171
  endloop
 endfacet
 facet normal -0.770452 -0.227557 -0.595501
  outer loop
   vertex 2.69123 42.6628 357.127
   vertex 4.32019 43.4256 354.728
   vertex 3.22278 42.6505 356.444
  endloop
 endfacet
 facet normal -0.654961 -0.303303 -0.692122
  outer loop
   vertex 3.11886 45.9547 354.471
   vertex 4.02403 44.8695 354.09
   vertex 1.70381 45.7723 355.89
  endloop
 endfacet
 facet normal -0.690864 -0.406026 -0.598206
  outer loop
   vertex 2.69123 42.6628 357.127
   vertex 4.02403 44.8695 354.09
   vertex 4.32019 43.4256 354.728
  endloop
 endfacet
 facet normal -0.665191 -0.317577 -0.67577
  outer loop
   vertex 3.11886 45.9547 354.471
   vertex 4.22004 45.5399 353.582
   vertex 4.02403 44.8695 354.09
  endloop
 endfacet
 facet normal -0.633908 -0.38474 -0.670922
  outer loop
   vertex 6.32397 45.0295 351.915
   vertex 5.4229 42.0133 354.496
   vertex 4.32019 43.4256 354.728
  endloop
 endfacet
 facet normal -0.661693 -0.36348 -0.655778
  outer loop
   vertex 6.32397 45.0295 351.915
   vertex 6.7589 41.315 353.535
   vertex 5.4229 42.0133 354.496
  endloop
 endfacet
 facet normal -0.607246 -0.422002 -0.673176
  outer loop
   vertex 4.02403 44.8695 354.09
   vertex 6.32397 45.0295 351.915
   vertex 4.32019 43.4256 354.728
  endloop
 endfacet
 facet normal -0.648464 -0.598294 -0.470678
  outer loop
   vertex 6.7589 41.315 353.535
   vertex 7.4949 40.7643 353.221
   vertex 6.96052 40.9651 353.702
  endloop
 endfacet
 facet normal -0.625762 -0.599016 -0.499601
  outer loop
   vertex 6.50475 41.1126 354.096
   vertex 6.7589 41.315 353.535
   vertex 6.96052 40.9651 353.702
  endloop
 endfacet
 facet normal -0.638583 -0.541927 -0.546376
  outer loop
   vertex 7.56499 40.9973 352.908
   vertex 7.4949 40.7643 353.221
   vertex 6.7589 41.315 353.535
  endloop
 endfacet
 facet normal -0.657734 -0.323242 -0.680369
  outer loop
   vertex 4.02403 44.8695 354.09
   vertex 4.22004 45.5399 353.582
   vertex 5.32772 45.0814 352.729
  endloop
 endfacet
 facet normal -0.69172 -0.355215 -0.628765
  outer loop
   vertex 6.7589 41.315 353.535
   vertex 6.32397 45.0295 351.915
   vertex 7.9476 42.8555 351.357
  endloop
 endfacet
 facet normal -0.742489 -0.42073 -0.521244
  outer loop
   vertex 6.32397 45.0295 351.915
   vertex 6.99771 44.4575 351.417
   vertex 7.9476 42.8555 351.357
  endloop
 endfacet
 facet normal -0.648317 -0.408306 -0.642628
  outer loop
   vertex 8.60919 40.7489 352.028
   vertex 6.7589 41.315 353.535
   vertex 7.9476 42.8555 351.357
  endloop
 endfacet
 facet normal -0.632269 -0.408299 -0.658428
  outer loop
   vertex 7.9476 42.8555 351.357
   vertex 10.8309 39.7274 350.528
   vertex 8.60919 40.7489 352.028
  endloop
 endfacet
 facet normal -0.655026 -0.363583 -0.662381
  outer loop
   vertex 6.99771 44.4575 351.417
   vertex 8.31745 43.7359 350.508
   vertex 7.9476 42.8555 351.357
  endloop
 endfacet
 facet normal -0.629344 -0.207668 -0.748866
  outer loop
   vertex 7.51922 44.4349 350.985
   vertex 8.31745 43.7359 350.508
   vertex 6.99771 44.4575 351.417
  endloop
 endfacet
 facet normal -0.609236 -0.376623 -0.697844
  outer loop
   vertex 10.8309 39.7274 350.528
   vertex 7.9476 42.8555 351.357
   vertex 9.90598 43.6472 349.22
  endloop
 endfacet
 facet normal -0.585066 -0.422037 -0.692519
  outer loop
   vertex 8.31745 43.7359 350.508
   vertex 9.90598 43.6472 349.22
   vertex 7.9476 42.8555 351.357
  endloop
 endfacet
 facet normal -0.685988 -0.370777 -0.626055
  outer loop
   vertex 11.15 42.3013 348.654
   vertex 10.8309 39.7274 350.528
   vertex 9.90598 43.6472 349.22
  endloop
 endfacet
 facet normal -0.658293 -0.322397 -0.680228
  outer loop
   vertex 10.9354 43.1868 348.442
   vertex 11.15 42.3013 348.654
   vertex 9.90598 43.6472 349.22
  endloop
 endfacet
 facet normal -0.632102 -0.403357 -0.661627
  outer loop
   vertex 11.15 42.3013 348.654
   vertex 13.1681 39.1551 348.644
   vertex 10.8309 39.7274 350.528
  endloop
 endfacet
 facet normal -0.602208 -0.384061 -0.699888
  outer loop
   vertex 13.1681 39.1551 348.644
   vertex 11.15 42.3013 348.654
   vertex 12.6363 42.5038 347.264
  endloop
 endfacet
 facet normal -0.603435 -0.421119 -0.677145
  outer loop
   vertex 13.1681 39.1551 348.644
   vertex 14.2001 40.7363 346.741
   vertex 14.4202 38.464 347.958
  endloop
 endfacet
 facet normal -0.612166 -0.319346 -0.723375
  outer loop
   vertex 32.5402 37.2008 332.71
   vertex 33.5344 33.7365 333.398
   vertex 32.0905 34.2732 334.383
  endloop
 endfacet
 facet normal -0.48225 -0.782556 -0.393753
  outer loop
   vertex 14.4202 38.464 347.958
   vertex 15.8185 38.1261 346.917
   vertex 16.58 37.8435 346.546
  endloop
 endfacet
 facet normal -0.604968 -0.42068 -0.676049
  outer loop
   vertex 14.4202 38.464 347.958
   vertex 14.2001 40.7363 346.741
   vertex 15.8185 38.1261 346.917
  endloop
 endfacet
 facet normal -0.638389 -0.377754 -0.670642
  outer loop
   vertex 13.1681 39.1551 348.644
   vertex 12.6363 42.5038 347.264
   vertex 13.9739 42.0595 346.241
  endloop
 endfacet
 facet normal -0.660062 -0.361641 -0.658434
  outer loop
   vertex 13.9739 42.0595 346.241
   vertex 14.2001 40.7363 346.741
   vertex 13.1681 39.1551 348.644
  endloop
 endfacet
 facet normal -0.634067 -0.174172 -0.753408
  outer loop
   vertex 13.9739 42.0595 346.241
   vertex 12.6363 42.5038 347.264
   vertex 13.3546 42.5578 346.647
  endloop
 endfacet
 facet normal -0.578538 -0.406394 -0.707204
  outer loop
   vertex 15.7493 41.8477 344.835
   vertex 15.8185 38.1261 346.917
   vertex 14.2001 40.7363 346.741
  endloop
 endfacet
 facet normal -0.603491 -0.370056 -0.706298
  outer loop
   vertex 14.2001 40.7363 346.741
   vertex 13.9739 42.0595 346.241
   vertex 15.7493 41.8477 344.835
  endloop
 endfacet
 facet normal -0.602528 -0.488522 -0.631115
  outer loop
   vertex 15.8185 38.1261 346.917
   vertex 17.3047 38.0836 345.531
   vertex 17.1798 37.7209 345.931
  endloop
 endfacet
 facet normal -0.614781 -0.479164 -0.626455
  outer loop
   vertex 17.3047 38.0836 345.531
   vertex 17.862 37.5294 345.408
   vertex 17.1798 37.7209 345.931
  endloop
 endfacet
 facet normal -0.63501 -0.386118 -0.669085
  outer loop
   vertex 17.3047 38.0836 345.531
   vertex 15.8185 38.1261 346.917
   vertex 15.7493 41.8477 344.835
  endloop
 endfacet
 facet normal -0.637501 -0.386652 -0.666403
  outer loop
   vertex 17.3047 38.0836 345.531
   vertex 15.7493 41.8477 344.835
   vertex 17.1104 40.9479 344.055
  endloop
 endfacet
 facet normal -0.613573 -0.292229 -0.733573
  outer loop
   vertex 15.7493 41.8477 344.835
   vertex 18.1235 41.1176 343.14
   vertex 17.1104 40.9479 344.055
  endloop
 endfacet
 facet normal -0.574362 -0.405428 -0.711152
  outer loop
   vertex 17.3047 38.0836 345.531
   vertex 17.1104 40.9479 344.055
   vertex 18.1235 41.1176 343.14
  endloop
 endfacet
 facet normal -0.613424 -0.390192 -0.686631
  outer loop
   vertex 19.0154 40.5766 342.586
   vertex 21.0132 36.739 342.982
   vertex 17.3047 38.0836 345.531
  endloop
 endfacet
 facet normal -0.640259 -0.361391 -0.677838
  outer loop
   vertex 19.0154 40.5766 342.586
   vertex 17.3047 38.0836 345.531
   vertex 18.1235 41.1176 343.14
  endloop
 endfacet
 facet normal -0.617576 0.264968 -0.740535
  outer loop
   vertex 33.4182 33.0213 333.239
   vertex 32.7894 33.5232 333.943
   vertex 33.5344 33.7365 333.398
  endloop
 endfacet
 facet normal -0.577867 -0.0610357 -0.813845
  outer loop
   vertex 32.7894 33.5232 333.943
   vertex 32.0905 34.2732 334.383
   vertex 33.5344 33.7365 333.398
  endloop
 endfacet
 facet normal -0.571849 -0.373087 -0.730612
  outer loop
   vertex 21.0132 36.739 342.982
   vertex 19.0154 40.5766 342.586
   vertex 20.8322 40.4258 341.241
  endloop
 endfacet
 facet normal -0.648041 -0.350993 -0.675904
  outer loop
   vertex 20.8322 40.4258 341.241
   vertex 22.4247 37.8649 341.044
   vertex 21.0132 36.739 342.982
  endloop
 endfacet
 facet normal -0.653621 -0.342367 -0.674956
  outer loop
   vertex 21.0132 36.739 342.982
   vertex 22.4247 37.8649 341.044
   vertex 22.005 36.7381 342.022
  endloop
 endfacet
 facet normal -0.591594 -0.468435 -0.65619
  outer loop
   vertex 23.1591 36.3564 341.254
   vertex 22.5609 36.2966 341.836
   vertex 22.005 36.7381 342.022
  endloop
 endfacet
 facet normal -0.621138 -0.331635 -0.710075
  outer loop
   vertex 21.6089 40.0074 340.757
   vertex 22.4247 37.8649 341.044
   vertex 20.8322 40.4258 341.241
  endloop
 endfacet
 facet normal -0.596098 -0.388054 -0.702909
  outer loop
   vertex 23.1591 36.3564 341.254
   vertex 22.005 36.7381 342.022
   vertex 22.4247 37.8649 341.044
  endloop
 endfacet
 facet normal -0.58047 -0.719031 -0.382163
  outer loop
   vertex 23.1591 36.3564 341.254
   vertex 23.9274 35.953 340.846
   vertex 23.537 36.0019 341.347
  endloop
 endfacet
 facet normal -0.582054 -0.383205 -0.717194
  outer loop
   vertex 23.1591 36.3564 341.254
   vertex 22.4247 37.8649 341.044
   vertex 23.9274 35.953 340.846
  endloop
 endfacet
 facet normal -0.606576 -0.327985 -0.724218
  outer loop
   vertex 21.6089 40.0074 340.757
   vertex 23.7034 39.2163 339.361
   vertex 22.4247 37.8649 341.044
  endloop
 endfacet
 facet normal -0.623117 -0.306531 -0.719558
  outer loop
   vertex 23.7034 39.2163 339.361
   vertex 24.14 37.7771 339.596
   vertex 22.4247 37.8649 341.044
  endloop
 endfacet
 facet normal -0.602523 -0.402175 -0.689363
  outer loop
   vertex 22.4247 37.8649 341.044
   vertex 24.14 37.7771 339.596
   vertex 23.9274 35.953 340.846
  endloop
 endfacet
 facet normal -0.649226 -0.299747 -0.69904
  outer loop
   vertex 31.6111 37.8232 333.306
   vertex 32.5402 37.2008 332.71
   vertex 32.0905 34.2732 334.383
  endloop
 endfacet
 facet normal -0.592148 -0.182871 -0.784805
  outer loop
   vertex 21.6089 40.0074 340.757
   vertex 22.732 39.9112 339.932
   vertex 23.7034 39.2163 339.361
  endloop
 endfacet
 facet normal -0.628275 -0.385366 -0.675843
  outer loop
   vertex 25.3692 37.0731 338.867
   vertex 26.1377 35.622 338.98
   vertex 23.9274 35.953 340.846
  endloop
 endfacet
 facet normal -0.619382 -0.428884 -0.65759
  outer loop
   vertex 23.9274 35.953 340.846
   vertex 26.1377 35.622 338.98
   vertex 25.2772 35.54 339.844
  endloop
 endfacet
 facet normal -0.563094 -0.553792 -0.613384
  outer loop
   vertex 25.2772 35.54 339.844
   vertex 26.1377 35.622 338.98
   vertex 25.8748 35.361 339.457
  endloop
 endfacet
 facet normal -0.624703 -0.390554 -0.676176
  outer loop
   vertex 23.9274 35.953 340.846
   vertex 24.14 37.7771 339.596
   vertex 25.3692 37.0731 338.867
  endloop
 endfacet
 facet normal -0.601929 -0.373737 -0.705693
  outer loop
   vertex 25.3692 37.0731 338.867
   vertex 27.5947 35.3317 337.891
   vertex 26.1377 35.622 338.98
  endloop
 endfacet
 facet normal -0.590986 -0.347162 -0.728158
  outer loop
   vertex 27.5947 35.3317 337.891
   vertex 25.3692 37.0731 338.867
   vertex 26.2593 38.0916 337.659
  endloop
 endfacet
 facet normal -0.598888 -0.350312 -0.720149
  outer loop
   vertex 26.2593 38.0916 337.659
   vertex 27.5643 37.8135 336.709
   vertex 27.5947 35.3317 337.891
  endloop
 endfacet
 facet normal -0.609511 -0.251868 -0.751704
  outer loop
   vertex 26.4189 38.9917 337.228
   vertex 27.1402 38.7235 336.733
   vertex 26.2593 38.0916 337.659
  endloop
 endfacet
 facet normal -0.603857 -0.261577 -0.75295
  outer loop
   vertex 27.1402 38.7235 336.733
   vertex 27.5643 37.8135 336.709
   vertex 26.2593 38.0916 337.659
  endloop
 endfacet
 facet normal -0.575986 -0.357234 -0.735271
  outer loop
   vertex 27.5947 35.3317 337.891
   vertex 27.5643 37.8135 336.709
   vertex 28.8288 38.1211 335.569
  endloop
 endfacet
 facet normal -0.586955 -0.584547 -0.560169
  outer loop
   vertex 30.1679 34.6089 335.949
   vertex 29.7436 34.2482 336.77
   vertex 27.5947 35.3317 337.891
  endloop
 endfacet
 facet normal -0.627046 -0.206276 -0.751175
  outer loop
   vertex 28.0953 38.6466 336.037
   vertex 28.8288 38.1211 335.569
   vertex 27.5643 37.8135 336.709
  endloop
 endfacet
 facet normal -0.639728 -0.304445 -0.705734
  outer loop
   vertex 27.5947 35.3317 337.891
   vertex 28.8288 38.1211 335.569
   vertex 30.2156 37.2145 334.703
  endloop
 endfacet
 facet normal -0.638448 -0.229727 -0.734581
  outer loop
   vertex 30.5625 33.9056 335.826
   vertex 30.1679 34.6089 335.949
   vertex 32.0905 34.2732 334.383
  endloop
 endfacet
 facet normal -0.620596 -0.234603 -0.748213
  outer loop
   vertex 29.7687 38.1447 334.782
   vertex 30.2156 37.2145 334.703
   vertex 28.8288 38.1211 335.569
  endloop
 endfacet
 facet normal -0.62826 -0.323497 -0.707558
  outer loop
   vertex 32.0905 34.2732 334.383
   vertex 27.5947 35.3317 337.891
   vertex 30.2156 37.2145 334.703
  endloop
 endfacet
 facet normal -0.622521 -0.383885 -0.681982
  outer loop
   vertex 27.5947 35.3317 337.891
   vertex 32.0905 34.2732 334.383
   vertex 30.1679 34.6089 335.949
  endloop
 endfacet
 facet normal -0.62366 -0.236339 -0.745112
  outer loop
   vertex 30.4195 38.0826 334.257
   vertex 30.2156 37.2145 334.703
   vertex 29.7687 38.1447 334.782
  endloop
 endfacet
 facet normal -0.604063 -0.304948 -0.736284
  outer loop
   vertex 30.2156 37.2145 334.703
   vertex 31.6111 37.8232 333.306
   vertex 32.0905 34.2732 334.383
  endloop
 endfacet
endsolid
