solid ascii
 facet normal -0.326466 -0.330114 -0.885689
  outer loop
   vertex 32.716 43.5123 354.233
   vertex 31.7394 43.6974 354.524
   vertex 32.195 43.9229 354.272
  endloop
 endfacet
 facet normal -0.356404 -0.304535 -0.883309
  outer loop
   vertex 34.0613 41.2056 354.444
   vertex 34.2381 40.755 354.528
   vertex 33.5335 41.6899 354.49
  endloop
 endfacet
 facet normal -0.496077 -0.356456 -0.791737
  outer loop
   vertex 33.118 42.6657 354.311
   vertex 33.5335 41.6899 354.49
   vertex 32.5898 42.1636 354.868
  endloop
 endfacet
 facet normal -0.524946 -0.321864 -0.787931
  outer loop
   vertex 33.118 42.6657 354.311
   vertex 32.5898 42.1636 354.868
   vertex 32.716 43.5123 354.233
  endloop
 endfacet
 facet normal -0.357624 -0.40332 -0.842281
  outer loop
   vertex 31.7394 43.6974 354.524
   vertex 30.7208 43.5877 355.009
   vertex 30.878 44.1688 354.664
  endloop
 endfacet
 facet normal -0.32549 -0.331788 -0.885422
  outer loop
   vertex 30.878 44.1688 354.664
   vertex 32.195 43.9229 354.272
   vertex 31.7394 43.6974 354.524
  endloop
 endfacet
 facet normal -0.480288 -0.39385 -0.783713
  outer loop
   vertex 34.2381 40.755 354.528
   vertex 33.0837 41.0743 355.075
   vertex 33.5335 41.6899 354.49
  endloop
 endfacet
 facet normal -0.280706 0.026065 -0.95944
  outer loop
   vertex 32.195 43.9229 354.272
   vertex 30.878 44.1688 354.664
   vertex 30.6673 44.4766 354.734
  endloop
 endfacet
 facet normal -0.332748 -0.474236 -0.815095
  outer loop
   vertex 32.716 43.5123 354.233
   vertex 30.4948 42.8536 355.523
   vertex 31.7394 43.6974 354.524
  endloop
 endfacet
 facet normal -0.500814 -0.375289 -0.779963
  outer loop
   vertex 33.5335 41.6899 354.49
   vertex 33.0837 41.0743 355.075
   vertex 32.5898 42.1636 354.868
  endloop
 endfacet
 facet normal -0.477626 -0.336534 -0.811553
  outer loop
   vertex 33.8085 39.9058 355.133
   vertex 33.0837 41.0743 355.075
   vertex 34.2381 40.755 354.528
  endloop
 endfacet
 facet normal -0.413606 -0.0767892 -0.907212
  outer loop
   vertex 29.9869 44.3373 355.056
   vertex 30.6673 44.4766 354.734
   vertex 30.878 44.1688 354.664
  endloop
 endfacet
 facet normal -0.409941 -0.094639 -0.907189
  outer loop
   vertex 30.6673 44.4766 354.734
   vertex 29.9869 44.3373 355.056
   vertex 30.1739 44.7062 354.933
  endloop
 endfacet
 facet normal -0.431809 -0.371228 -0.822029
  outer loop
   vertex 30.7208 43.5877 355.009
   vertex 29.9869 44.3373 355.056
   vertex 30.878 44.1688 354.664
  endloop
 endfacet
 facet normal -0.375199 -0.11639 -0.919608
  outer loop
   vertex 30.1739 44.7062 354.933
   vertex 29.9869 44.3373 355.056
   vertex 29.7331 44.8473 355.095
  endloop
 endfacet
 facet normal -0.338472 -0.467564 -0.816591
  outer loop
   vertex 30.4948 42.8536 355.523
   vertex 30.7208 43.5877 355.009
   vertex 31.7394 43.6974 354.524
  endloop
 endfacet
 facet normal -0.44522 -0.385217 -0.808323
  outer loop
   vertex 29.8445 43.3058 355.626
   vertex 29.9869 44.3373 355.056
   vertex 30.7208 43.5877 355.009
  endloop
 endfacet
 facet normal -0.381403 -0.119706 -0.916626
  outer loop
   vertex 29.1725 44.8493 355.328
   vertex 29.7331 44.8473 355.095
   vertex 29.9869 44.3373 355.056
  endloop
 endfacet
 facet normal -0.384939 -0.363424 -0.848378
  outer loop
   vertex 32.5898 42.1636 354.868
   vertex 30.4948 42.8536 355.523
   vertex 32.716 43.5123 354.233
  endloop
 endfacet
 facet normal -0.464005 -0.363862 -0.807654
  outer loop
   vertex 32.5898 42.1636 354.868
   vertex 33.0837 41.0743 355.075
   vertex 31.7082 41.6409 355.61
  endloop
 endfacet
 facet normal -0.398948 -0.456226 -0.795423
  outer loop
   vertex 30.4948 42.8536 355.523
   vertex 32.5898 42.1636 354.868
   vertex 31.7082 41.6409 355.61
  endloop
 endfacet
 facet normal -0.424126 -0.42817 -0.797989
  outer loop
   vertex 30.7208 43.5877 355.009
   vertex 30.4948 42.8536 355.523
   vertex 29.8445 43.3058 355.626
  endloop
 endfacet
 facet normal -0.473803 -0.20178 -0.857202
  outer loop
   vertex 29.1725 44.8493 355.328
   vertex 28.3503 45.0467 355.736
   vertex 28.5973 45.2569 355.55
  endloop
 endfacet
 facet normal -0.462856 -0.378933 -0.801358
  outer loop
   vertex 29.8445 43.3058 355.626
   vertex 29.0184 44.1943 355.683
   vertex 29.9869 44.3373 355.056
  endloop
 endfacet
 facet normal -0.478584 -0.3287 -0.814195
  outer loop
   vertex 29.1725 44.8493 355.328
   vertex 29.9869 44.3373 355.056
   vertex 29.0184 44.1943 355.683
  endloop
 endfacet
 facet normal -0.481901 -0.327189 -0.812846
  outer loop
   vertex 29.1725 44.8493 355.328
   vertex 29.0184 44.1943 355.683
   vertex 28.3503 45.0467 355.736
  endloop
 endfacet
 facet normal -0.45182 -0.305455 -0.838186
  outer loop
   vertex 31.7082 41.6409 355.61
   vertex 33.0837 41.0743 355.075
   vertex 31.9928 40.8796 355.734
  endloop
 endfacet
 facet normal -0.514935 -0.355108 -0.780218
  outer loop
   vertex 27.8887 44.7471 356.177
   vertex 28.3503 45.0467 355.736
   vertex 29.0184 44.1943 355.683
  endloop
 endfacet
 facet normal -0.963481 -0.241926 -0.11479
  outer loop
   vertex -39.2934 60.7103 417.384
   vertex -39.1044 60.0117 417.27
   vertex -39.2237 60.0223 418.249
  endloop
 endfacet
 facet normal -0.982228 -0.180341 -0.0520042
  outer loop
   vertex -39.2934 60.7103 417.384
   vertex -39.4004 61.1336 417.937
   vertex -39.4159 61.4767 417.04
  endloop
 endfacet
 facet normal -0.999458 0.0210214 0.0253143
  outer loop
   vertex -39.4006 61.6057 417.537
   vertex -39.4159 61.4767 417.04
   vertex -39.4004 61.1336 417.937
  endloop
 endfacet
 facet normal -0.484501 -0.31413 -0.816444
  outer loop
   vertex 31.9928 40.8796 355.734
   vertex 31.1646 40.8887 356.222
   vertex 31.7082 41.6409 355.61
  endloop
 endfacet
 facet normal -0.86111 -0.476346 -0.177722
  outer loop
   vertex -38.8949 59.9128 416.52
   vertex -38.9158 59.7159 417.149
   vertex -39.1044 60.0117 417.27
  endloop
 endfacet
 facet normal -0.953498 -0.225282 -0.200221
  outer loop
   vertex -39.0225 60.4987 416.332
   vertex -39.1044 60.0117 417.27
   vertex -39.2934 60.7103 417.384
  endloop
 endfacet
 facet normal -0.934623 -0.275646 -0.224722
  outer loop
   vertex -39.0225 60.4987 416.332
   vertex -38.8949 59.9128 416.52
   vertex -39.1044 60.0117 417.27
  endloop
 endfacet
 facet normal -0.799248 -0.565476 -0.203568
  outer loop
   vertex -38.8949 59.9128 416.52
   vertex -38.7164 59.7343 416.315
   vertex -38.9158 59.7159 417.149
  endloop
 endfacet
 facet normal -0.990502 0.1251 -0.0570655
  outer loop
   vertex -39.3618 61.8316 416.879
   vertex -39.3219 61.8679 416.266
   vertex -39.4159 61.4767 417.04
  endloop
 endfacet
 facet normal -0.95588 -0.233054 -0.178829
  outer loop
   vertex -39.4159 61.4767 417.04
   vertex -39.2379 61.3482 416.256
   vertex -39.2934 60.7103 417.384
  endloop
 endfacet
 facet normal -0.968837 -0.152852 -0.194916
  outer loop
   vertex -39.3219 61.8679 416.266
   vertex -39.2379 61.3482 416.256
   vertex -39.4159 61.4767 417.04
  endloop
 endfacet
 facet normal -0.947038 -0.257317 -0.192114
  outer loop
   vertex -39.2379 61.3482 416.256
   vertex -39.0225 60.4987 416.332
   vertex -39.2934 60.7103 417.384
  endloop
 endfacet
 facet normal -0.820757 -0.496736 -0.282155
  outer loop
   vertex -38.7164 59.7343 416.315
   vertex -38.8949 59.9128 416.52
   vertex -38.7158 60.0372 415.78
  endloop
 endfacet
 facet normal -0.918915 -0.28696 -0.270647
  outer loop
   vertex -39.0225 60.4987 416.332
   vertex -38.7158 60.0372 415.78
   vertex -38.8949 59.9128 416.52
  endloop
 endfacet
 facet normal -0.907287 -0.259641 -0.330783
  outer loop
   vertex -39.2379 61.3482 416.256
   vertex -38.7471 60.8371 415.311
   vertex -39.0225 60.4987 416.332
  endloop
 endfacet
 facet normal -0.919374 -0.225121 -0.322602
  outer loop
   vertex -39.0225 60.4987 416.332
   vertex -38.7471 60.8371 415.311
   vertex -38.7158 60.0372 415.78
  endloop
 endfacet
 facet normal -0.910314 -0.235285 -0.340542
  outer loop
   vertex -38.7158 60.0372 415.78
   vertex -38.7471 60.8371 415.311
   vertex -38.4579 59.9382 415.159
  endloop
 endfacet
 facet normal -0.907667 -0.254316 -0.333861
  outer loop
   vertex -39.1398 61.7503 415.683
   vertex -38.7471 60.8371 415.311
   vertex -39.2379 61.3482 416.256
  endloop
 endfacet
 facet normal -0.8788 -0.201741 -0.432448
  outer loop
   vertex -38.793 61.723 414.991
   vertex -38.7471 60.8371 415.311
   vertex -39.1398 61.7503 415.683
  endloop
 endfacet
 facet normal -0.834812 -0.479651 -0.27023
  outer loop
   vertex -38.4579 59.9382 415.159
   vertex -38.4978 59.7113 415.685
   vertex -38.7158 60.0372 415.78
  endloop
 endfacet
 facet normal -0.781324 -0.363083 -0.507645
  outer loop
   vertex -37.9637 60.0254 414.336
   vertex -38.2436 59.6644 415.025
   vertex -38.4579 59.9382 415.159
  endloop
 endfacet
 facet normal -0.85478 -0.214927 -0.472396
  outer loop
   vertex -38.2502 61.1204 414.283
   vertex -38.7471 60.8371 415.311
   vertex -38.793 61.723 414.991
  endloop
 endfacet
 facet normal -0.845033 -0.244127 -0.475732
  outer loop
   vertex -38.2502 61.1204 414.283
   vertex -37.9637 60.0254 414.336
   vertex -38.7471 60.8371 415.311
  endloop
 endfacet
 facet normal -0.83466 -0.180542 -0.520333
  outer loop
   vertex -37.9637 60.0254 414.336
   vertex -38.4579 59.9382 415.159
   vertex -38.7471 60.8371 415.311
  endloop
 endfacet
 facet normal -0.852314 -0.199836 -0.483349
  outer loop
   vertex -38.793 61.723 414.991
   vertex -38.3868 61.8747 414.212
   vertex -38.2502 61.1204 414.283
  endloop
 endfacet
 facet normal -0.782041 -0.232606 -0.578192
  outer loop
   vertex -37.9637 60.0254 414.336
   vertex -38.2502 61.1204 414.283
   vertex -37.5198 60.7751 413.434
  endloop
 endfacet
 facet normal -0.44126 -0.458921 -0.771156
  outer loop
   vertex 30.4948 42.8536 355.523
   vertex 30.4814 41.0013 356.633
   vertex 29.8445 43.3058 355.626
  endloop
 endfacet
 facet normal -0.798724 -0.198112 -0.568147
  outer loop
   vertex -38.2502 61.1204 414.283
   vertex -38.3868 61.8747 414.212
   vertex -37.8018 61.7359 413.438
  endloop
 endfacet
 facet normal -0.782017 -0.227112 -0.580405
  outer loop
   vertex -38.2502 61.1204 414.283
   vertex -37.8018 61.7359 413.438
   vertex -37.5198 60.7751 413.434
  endloop
 endfacet
 facet normal -0.748641 -0.279846 -0.601018
  outer loop
   vertex -37.5198 60.7751 413.434
   vertex -36.88 59.929 413.031
   vertex -37.9637 60.0254 414.336
  endloop
 endfacet
 facet normal -0.483095 -0.188872 -0.854954
  outer loop
   vertex 27.4521 45.6375 356.113
   vertex 28.5973 45.2569 355.55
   vertex 28.3503 45.0467 355.736
  endloop
 endfacet
 facet normal -0.729571 -0.211428 -0.650403
  outer loop
   vertex -37.5198 60.7751 413.434
   vertex -37.8018 61.7359 413.438
   vertex -37.0816 62.1024 412.511
  endloop
 endfacet
 facet normal -0.748413 -0.193964 -0.634236
  outer loop
   vertex -37.0816 62.1024 412.511
   vertex -36.4801 60.818 412.194
   vertex -37.5198 60.7751 413.434
  endloop
 endfacet
 facet normal -0.735856 -0.258311 -0.625933
  outer loop
   vertex -36.88 59.929 413.031
   vertex -37.5198 60.7751 413.434
   vertex -36.4801 60.818 412.194
  endloop
 endfacet
 facet normal -0.381316 -0.67218 -0.634643
  outer loop
   vertex 31.1646 40.8887 356.222
   vertex 31.9928 40.8796 355.734
   vertex 31.4344 40.662 356.3
  endloop
 endfacet
 facet normal -0.767681 -0.210101 -0.605411
  outer loop
   vertex -36.46 62.1767 411.697
   vertex -36.4801 60.818 412.194
   vertex -37.0816 62.1024 412.511
  endloop
 endfacet
 facet normal -0.758956 -0.231575 -0.608572
  outer loop
   vertex -36.4801 60.818 412.194
   vertex -36.0411 59.8549 412.013
   vertex -36.88 59.929 413.031
  endloop
 endfacet
 facet normal -0.528581 -0.272197 -0.804059
  outer loop
   vertex 31.1646 40.8887 356.222
   vertex 30.4814 41.0013 356.633
   vertex 31.7082 41.6409 355.61
  endloop
 endfacet
 facet normal -0.845765 -0.302977 -0.439188
  outer loop
   vertex -35.6264 59.6627 411.347
   vertex -36.0411 59.8549 412.013
   vertex -36.4801 60.818 412.194
  endloop
 endfacet
 facet normal -0.770051 -0.551784 -0.320243
  outer loop
   vertex -35.6264 59.6627 411.347
   vertex -35.7422 59.4813 411.938
   vertex -36.0411 59.8549 412.013
  endloop
 endfacet
 facet normal -0.809471 -0.191112 -0.555188
  outer loop
   vertex -36.4801 60.818 412.194
   vertex -36.46 62.1767 411.697
   vertex -35.6264 59.6627 411.347
  endloop
 endfacet
 facet normal -0.741254 0.287389 -0.606589
  outer loop
   vertex -35.9486 62.261 411.112
   vertex -35.8412 61.8267 410.775
   vertex -36.46 62.1767 411.697
  endloop
 endfacet
 facet normal -0.846774 -0.212906 -0.487489
  outer loop
   vertex -35.8412 61.8267 410.775
   vertex -35.6264 59.6627 411.347
   vertex -36.46 62.1767 411.697
  endloop
 endfacet
 facet normal -0.41017 -0.466607 -0.783606
  outer loop
   vertex 31.7082 41.6409 355.61
   vertex 30.4814 41.0013 356.633
   vertex 30.4948 42.8536 355.523
  endloop
 endfacet
 facet normal -0.890253 -0.17129 -0.42203
  outer loop
   vertex -35.6264 59.6627 411.347
   vertex -35.0801 60.699 409.774
   vertex -35.2836 59.6796 410.617
  endloop
 endfacet
 facet normal -0.87597 -0.202652 -0.437731
  outer loop
   vertex -35.8412 61.8267 410.775
   vertex -35.0801 60.699 409.774
   vertex -35.6264 59.6627 411.347
  endloop
 endfacet
 facet normal -0.876809 -0.190183 -0.44163
  outer loop
   vertex -35.0801 60.699 409.774
   vertex -34.8791 59.4727 409.903
   vertex -35.2836 59.6796 410.617
  endloop
 endfacet
 facet normal -0.828688 -0.443978 -0.340823
  outer loop
   vertex -35.2836 59.6796 410.617
   vertex -34.8791 59.4727 409.903
   vertex -34.9354 59.2431 410.339
  endloop
 endfacet
 facet normal -0.859865 -0.14613 -0.489161
  outer loop
   vertex -35.2477 61.8893 409.713
   vertex -35.0801 60.699 409.774
   vertex -35.8412 61.8267 410.775
  endloop
 endfacet
 facet normal -0.541059 -0.457797 -0.705462
  outer loop
   vertex 29.8445 43.3058 355.626
   vertex 30.4814 41.0013 356.633
   vertex 29.0184 44.1943 355.683
  endloop
 endfacet
 facet normal -0.736184 -0.497499 -0.458833
  outer loop
   vertex -34.5654 59.1533 409.746
   vertex -34.8791 59.4727 409.903
   vertex -34.5053 59.5836 409.183
  endloop
 endfacet
 facet normal -0.858891 -0.190788 -0.475296
  outer loop
   vertex -35.0801 60.699 409.774
   vertex -34.5053 59.5836 409.183
   vertex -34.8791 59.4727 409.903
  endloop
 endfacet
 facet normal -0.844578 -0.145318 -0.515335
  outer loop
   vertex -35.2477 61.8893 409.713
   vertex -34.7045 61.7112 408.873
   vertex -35.0801 60.699 409.774
  endloop
 endfacet
 facet normal -0.8482 -0.139978 -0.510845
  outer loop
   vertex -34.7045 61.7112 408.873
   vertex -34.2953 60.7863 408.447
   vertex -35.0801 60.699 409.774
  endloop
 endfacet
 facet normal -0.844185 -0.164769 -0.510101
  outer loop
   vertex -34.2953 60.7863 408.447
   vertex -34.5053 59.5836 409.183
   vertex -35.0801 60.699 409.774
  endloop
 endfacet
 facet normal -0.821118 0.123681 -0.557197
  outer loop
   vertex -34.3173 62.142 408.398
   vertex -34.7045 61.7112 408.873
   vertex -35.2477 61.8893 409.713
  endloop
 endfacet
 facet normal -0.833156 -0.175482 -0.524459
  outer loop
   vertex -34.5053 59.5836 409.183
   vertex -34.2953 60.7863 408.447
   vertex -33.9624 59.4448 408.367
  endloop
 endfacet
 facet normal -0.827433 0.145763 -0.542317
  outer loop
   vertex -34.3173 62.142 408.398
   vertex -34.0762 61.9107 407.968
   vertex -34.7045 61.7112 408.873
  endloop
 endfacet
 facet normal -0.808696 -0.0900527 -0.581293
  outer loop
   vertex -34.0762 61.9107 407.968
   vertex -34.2953 60.7863 408.447
   vertex -34.7045 61.7112 408.873
  endloop
 endfacet
 facet normal -0.729463 0.341503 -0.592671
  outer loop
   vertex -34.0762 61.9107 407.968
   vertex -34.3173 62.142 408.398
   vertex -33.9446 62.1658 407.953
  endloop
 endfacet
 facet normal -0.804953 -0.165785 -0.569706
  outer loop
   vertex -33.9624 59.4448 408.367
   vertex -34.2953 60.7863 408.447
   vertex -33.497 60.326 407.453
  endloop
 endfacet
 facet normal -0.817667 -0.0833354 -0.569628
  outer loop
   vertex -34.0762 61.9107 407.968
   vertex -33.6872 61.6278 407.451
   vertex -34.2953 60.7863 408.447
  endloop
 endfacet
 facet normal -0.800174 -0.117818 -0.588081
  outer loop
   vertex -33.6872 61.6278 407.451
   vertex -33.497 60.326 407.453
   vertex -34.2953 60.7863 408.447
  endloop
 endfacet
 facet normal -0.808583 -0.160187 -0.566157
  outer loop
   vertex -33.497 60.326 407.453
   vertex -33.4508 59.2764 407.684
   vertex -33.9624 59.4448 408.367
  endloop
 endfacet
 facet normal -0.740937 -0.175285 -0.648296
  outer loop
   vertex -33.497 60.326 407.453
   vertex -32.7458 59.17 406.907
   vertex -33.4508 59.2764 407.684
  endloop
 endfacet
 facet normal -0.75745 -0.111661 -0.643274
  outer loop
   vertex -33.6872 61.6278 407.451
   vertex -32.8449 61.5022 406.481
   vertex -33.497 60.326 407.453
  endloop
 endfacet
 facet normal -0.750831 0.0506854 -0.658547
  outer loop
   vertex -33.2122 62.077 406.944
   vertex -32.8449 61.5022 406.481
   vertex -33.6872 61.6278 407.451
  endloop
 endfacet
 facet normal -0.754218 -0.115957 -0.646304
  outer loop
   vertex -32.8449 61.5022 406.481
   vertex -32.6159 60.1408 406.458
   vertex -33.497 60.326 407.453
  endloop
 endfacet
 facet normal -0.752247 -0.190997 -0.630591
  outer loop
   vertex -32.6159 60.1408 406.458
   vertex -32.7458 59.17 406.907
   vertex -33.497 60.326 407.453
  endloop
 endfacet
 facet normal -0.735068 -0.112359 -0.668618
  outer loop
   vertex -32.8449 61.5022 406.481
   vertex -31.7483 60.5823 405.43
   vertex -32.6159 60.1408 406.458
  endloop
 endfacet
 facet normal -0.735951 -0.115045 -0.667189
  outer loop
   vertex -31.7483 60.5823 405.43
   vertex -32.8449 61.5022 406.481
   vertex -31.9224 61.6785 405.433
  endloop
 endfacet
 facet normal -0.745455 -0.195046 -0.63738
  outer loop
   vertex -32.6159 60.1408 406.458
   vertex -31.7281 59.1136 405.734
   vertex -32.7458 59.17 406.907
  endloop
 endfacet
 facet normal -0.723032 -0.14955 -0.674433
  outer loop
   vertex -31.7281 59.1136 405.734
   vertex -32.6159 60.1408 406.458
   vertex -31.7483 60.5823 405.43
  endloop
 endfacet
 facet normal -0.783231 0.069768 -0.617804
  outer loop
   vertex -32.6421 62.0877 406.29
   vertex -32.1908 61.9915 405.707
   vertex -32.8449 61.5022 406.481
  endloop
 endfacet
 facet normal -0.744688 -0.0564451 -0.665022
  outer loop
   vertex -31.9224 61.6785 405.433
   vertex -32.8449 61.5022 406.481
   vertex -32.1908 61.9915 405.707
  endloop
 endfacet
 facet normal -0.728845 -0.148383 -0.668407
  outer loop
   vertex -30.8336 58.9002 404.806
   vertex -31.7281 59.1136 405.734
   vertex -31.7483 60.5823 405.43
  endloop
 endfacet
 facet normal -0.70381 -0.109845 -0.701845
  outer loop
   vertex -31.7483 60.5823 405.43
   vertex -31.9224 61.6785 405.433
   vertex -31.2155 61.935 404.684
  endloop
 endfacet
 facet normal -0.696556 -0.116121 -0.708044
  outer loop
   vertex -30.8336 58.9002 404.806
   vertex -31.7483 60.5823 405.43
   vertex -31.2155 61.935 404.684
  endloop
 endfacet
 facet normal -0.730821 -0.346094 -0.588319
  outer loop
   vertex -30.8336 58.9002 404.806
   vertex -30.4328 58.5927 404.489
   vertex -30.66 58.6339 404.747
  endloop
 endfacet
 facet normal -0.734838 -0.375692 -0.564685
  outer loop
   vertex -30.114 58.7192 403.99
   vertex -30.4328 58.5927 404.489
   vertex -30.8336 58.9002 404.806
  endloop
 endfacet
 facet normal -0.537768 -0.319758 -0.780103
  outer loop
   vertex 27.4521 45.6375 356.113
   vertex 28.3503 45.0467 355.736
   vertex 27.8887 44.7471 356.177
  endloop
 endfacet
 facet normal -0.757828 -0.146359 -0.635827
  outer loop
   vertex -30.8336 58.9002 404.806
   vertex -29.4636 59.0137 403.147
   vertex -30.114 58.7192 403.99
  endloop
 endfacet
 facet normal -0.729788 -0.118904 -0.673254
  outer loop
   vertex -30.8336 58.9002 404.806
   vertex -31.2155 61.935 404.684
   vertex -30.1153 61.473 403.573
  endloop
 endfacet
 facet normal -0.764684 -0.0921613 -0.637781
  outer loop
   vertex -30.1153 61.473 403.573
   vertex -29.4636 59.0137 403.147
   vertex -30.8336 58.9002 404.806
  endloop
 endfacet
 facet normal -0.703845 -0.0639683 -0.707468
  outer loop
   vertex -29.4636 59.0137 403.147
   vertex -30.1153 61.473 403.573
   vertex -29.1017 61.38 402.573
  endloop
 endfacet
 facet normal -0.762429 -0.040057 -0.645831
  outer loop
   vertex -29.1017 61.38 402.573
   vertex -28.7202 60.2774 402.191
   vertex -29.4636 59.0137 403.147
  endloop
 endfacet
 facet normal -0.770874 -0.122309 -0.625135
  outer loop
   vertex -29.1046 58.3662 402.831
   vertex -29.4636 59.0137 403.147
   vertex -28.482 58.6843 402.001
  endloop
 endfacet
 facet normal -0.764244 -0.0374813 -0.643837
  outer loop
   vertex -29.4636 59.0137 403.147
   vertex -28.7202 60.2774 402.191
   vertex -28.482 58.6843 402.001
  endloop
 endfacet
 facet normal -0.74755 -0.0287589 -0.663583
  outer loop
   vertex -28.7202 60.2774 402.191
   vertex -29.1017 61.38 402.573
   vertex -28.0271 61.8052 401.344
  endloop
 endfacet
 facet normal -0.797616 -0.276733 -0.535936
  outer loop
   vertex -28.482 58.6843 402.001
   vertex -28.1736 58.3028 401.739
   vertex -28.3906 58.3221 402.052
  endloop
 endfacet
 facet normal -0.819328 -0.351042 -0.45329
  outer loop
   vertex -28.482 58.6843 402.001
   vertex -27.9672 58.3776 401.308
   vertex -28.1736 58.3028 401.739
  endloop
 endfacet
 facet normal -0.812577 -0.0522613 -0.580506
  outer loop
   vertex -28.482 58.6843 402.001
   vertex -28.7202 60.2774 402.191
   vertex -27.9672 58.3776 401.308
  endloop
 endfacet
 facet normal -0.844967 -0.0898691 -0.527213
  outer loop
   vertex -28.7202 60.2774 402.191
   vertex -27.4903 58.5107 400.521
   vertex -27.9672 58.3776 401.308
  endloop
 endfacet
 facet normal -0.868779 -0.162689 -0.467714
  outer loop
   vertex -27.4903 58.5107 400.521
   vertex -28.7202 60.2774 402.191
   vertex -26.6424 58.2434 399.039
  endloop
 endfacet
 facet normal -0.522102 -0.388467 -0.759278
  outer loop
   vertex 27.8887 44.7471 356.177
   vertex 29.0184 44.1943 355.683
   vertex 27.6272 43.2515 357.122
  endloop
 endfacet
 facet normal -0.849958 -0.0565343 -0.523809
  outer loop
   vertex -26.6424 58.2434 399.039
   vertex -28.7202 60.2774 402.191
   vertex -25.8852 61.1651 397.495
  endloop
 endfacet
 facet normal -0.837524 0.315754 -0.445929
  outer loop
   vertex -28.7202 60.2774 402.191
   vertex -26.338 61.6348 398.678
   vertex -25.8852 61.1651 397.495
  endloop
 endfacet
 facet normal -0.894183 -0.131128 -0.428069
  outer loop
   vertex -26.2423 58.4588 398.245
   vertex -26.1392 57.981 398.176
   vertex -26.3749 58.0148 398.658
  endloop
 endfacet
 facet normal -0.892194 -0.00742403 -0.451592
  outer loop
   vertex -25.8852 61.1651 397.495
   vertex -26.2423 58.4588 398.245
   vertex -26.6424 58.2434 399.039
  endloop
 endfacet
 facet normal -0.890157 -0.128966 -0.437023
  outer loop
   vertex -26.1392 57.981 398.176
   vertex -26.2423 58.4588 398.245
   vertex -25.8163 58.3073 397.422
  endloop
 endfacet
 facet normal -0.764574 -0.403951 -0.502245
  outer loop
   vertex -26.1392 57.981 398.176
   vertex -25.8163 58.3073 397.422
   vertex -25.9472 57.8961 397.952
  endloop
 endfacet
 facet normal -0.888768 -0.00972264 -0.458255
  outer loop
   vertex -25.8852 61.1651 397.495
   vertex -25.8163 58.3073 397.422
   vertex -26.2423 58.4588 398.245
  endloop
 endfacet
 facet normal -0.894692 -0.010164 -0.446568
  outer loop
   vertex -25.8852 61.1651 397.495
   vertex -25.4521 59.2878 396.67
   vertex -25.8163 58.3073 397.422
  endloop
 endfacet
 facet normal -0.859505 0.112711 -0.498546
  outer loop
   vertex -25.2052 61.4143 396.379
   vertex -25.3125 60.7818 396.421
   vertex -25.8852 61.1651 397.495
  endloop
 endfacet
 facet normal -0.885428 -0.0269705 -0.463994
  outer loop
   vertex -25.4521 59.2878 396.67
   vertex -25.3382 58.3358 396.508
   vertex -25.8163 58.3073 397.422
  endloop
 endfacet
 facet normal -0.881819 0.00379494 -0.471574
  outer loop
   vertex -25.8852 61.1651 397.495
   vertex -25.3125 60.7818 396.421
   vertex -25.4521 59.2878 396.67
  endloop
 endfacet
 facet normal -0.867771 -0.00174916 -0.49696
  outer loop
   vertex -25.4521 59.2878 396.67
   vertex -25.3125 60.7818 396.421
   vertex -24.7853 59.1914 395.506
  endloop
 endfacet
 facet normal -0.868241 -0.0195083 -0.495759
  outer loop
   vertex -25.3382 58.3358 396.508
   vertex -25.4521 59.2878 396.67
   vertex -24.7853 59.1914 395.506
  endloop
 endfacet
 facet normal -0.834275 -0.0965757 -0.542824
  outer loop
   vertex -24.7853 59.1914 395.506
   vertex -24.9475 57.9059 395.984
   vertex -25.3382 58.3358 396.508
  endloop
 endfacet
 facet normal -0.878699 -0.0168094 -0.477079
  outer loop
   vertex -24.6821 60.7787 395.26
   vertex -24.7853 59.1914 395.506
   vertex -25.3125 60.7818 396.421
  endloop
 endfacet
 facet normal -0.869311 -0.0200206 -0.49386
  outer loop
   vertex -24.7853 59.1914 395.506
   vertex -24.6821 60.7787 395.26
   vertex -24.1425 60.7585 394.311
  endloop
 endfacet
 facet normal -0.866132 -0.074488 -0.494233
  outer loop
   vertex -24.7853 59.1914 395.506
   vertex -24.3715 58.0027 394.96
   vertex -24.9475 57.9059 395.984
  endloop
 endfacet
 facet normal -0.864692 -0.0277671 -0.501534
  outer loop
   vertex -24.7853 59.1914 395.506
   vertex -24.1425 60.7585 394.311
   vertex -23.9949 58.7269 394.169
  endloop
 endfacet
 facet normal -0.869939 -0.0792502 -0.48675
  outer loop
   vertex -23.9949 58.7269 394.169
   vertex -24.3715 58.0027 394.96
   vertex -24.7853 59.1914 395.506
  endloop
 endfacet
 facet normal -0.460016 -0.440196 -0.771111
  outer loop
   vertex 29.0184 44.1943 355.683
   vertex 30.4814 41.0013 356.633
   vertex 28.4859 42.1617 357.161
  endloop
 endfacet
 facet normal -0.827423 -0.158237 -0.538825
  outer loop
   vertex -24.3715 58.0027 394.96
   vertex -23.9949 58.7269 394.169
   vertex -23.9644 57.7979 394.395
  endloop
 endfacet
 facet normal -0.853688 -0.00304562 -0.520775
  outer loop
   vertex -23.6659 61.3962 393.526
   vertex -23.5279 59.9891 393.308
   vertex -24.1425 60.7585 394.311
  endloop
 endfacet
 facet normal -0.870788 -0.143016 -0.470398
  outer loop
   vertex -23.9949 58.7269 394.169
   vertex -23.4815 58.3112 393.345
   vertex -23.9644 57.7979 394.395
  endloop
 endfacet
 facet normal -0.861482 -0.0271475 -0.507062
  outer loop
   vertex -23.9949 58.7269 394.169
   vertex -24.1425 60.7585 394.311
   vertex -23.5279 59.9891 393.308
  endloop
 endfacet
 facet normal -0.842924 0.000683395 -0.538032
  outer loop
   vertex -23.1904 61.3663 392.781
   vertex -23.5279 59.9891 393.308
   vertex -23.6659 61.3962 393.526
  endloop
 endfacet
 facet normal -0.433325 -0.788215 -0.436974
  outer loop
   vertex 30.4814 41.0013 356.633
   vertex 31.4344 40.662 356.3
   vertex 30.7415 40.6931 356.931
  endloop
 endfacet
 facet normal -0.443502 -0.71416 -0.541555
  outer loop
   vertex 31.4344 40.662 356.3
   vertex 30.4814 41.0013 356.633
   vertex 31.1646 40.8887 356.222
  endloop
 endfacet
 facet normal -0.856057 -0.0350409 -0.515692
  outer loop
   vertex -23.5279 59.9891 393.308
   vertex -23.4815 58.3112 393.345
   vertex -23.9949 58.7269 394.169
  endloop
 endfacet
 facet normal -0.84842 -0.0351045 -0.528159
  outer loop
   vertex -23.4815 58.3112 393.345
   vertex -23.5279 59.9891 393.308
   vertex -23.0723 58.0957 392.702
  endloop
 endfacet
 facet normal -0.837582 -0.00378926 -0.546299
  outer loop
   vertex -23.1904 61.3663 392.781
   vertex -22.8035 60.1839 392.196
   vertex -23.5279 59.9891 393.308
  endloop
 endfacet
 facet normal -0.835579 -0.0254139 -0.548782
  outer loop
   vertex -23.0723 58.0957 392.702
   vertex -23.5279 59.9891 393.308
   vertex -22.8035 60.1839 392.196
  endloop
 endfacet
 facet normal -0.830346 0.0822969 -0.551137
  outer loop
   vertex -22.6334 61.7291 391.996
   vertex -23.1904 61.3663 392.781
   vertex -22.9695 61.8806 392.525
  endloop
 endfacet
 facet normal -0.818904 0.0158851 -0.573711
  outer loop
   vertex -22.6334 61.7291 391.996
   vertex -22.8035 60.1839 392.196
   vertex -23.1904 61.3663 392.781
  endloop
 endfacet
 facet normal -0.848339 -0.0190055 -0.529113
  outer loop
   vertex -22.8035 60.1839 392.196
   vertex -22.527 58.5054 391.813
   vertex -23.0723 58.0957 392.702
  endloop
 endfacet
 facet normal -0.811145 0.0136105 -0.584686
  outer loop
   vertex -22.053 60.878 391.171
   vertex -22.8035 60.1839 392.196
   vertex -22.6334 61.7291 391.996
  endloop
 endfacet
 facet normal -0.816399 0.0311623 -0.576647
  outer loop
   vertex -22.053 60.878 391.171
   vertex -22.1389 59.2939 391.207
   vertex -22.8035 60.1839 392.196
  endloop
 endfacet
 facet normal -0.820678 0.183709 -0.541053
  outer loop
   vertex -22.6334 61.7291 391.996
   vertex -22.3082 62.2747 391.688
   vertex -22.0164 62.1028 391.187
  endloop
 endfacet
 facet normal -0.8349 -0.0119634 -0.550271
  outer loop
   vertex -22.527 58.5054 391.813
   vertex -22.8035 60.1839 392.196
   vertex -22.1389 59.2939 391.207
  endloop
 endfacet
 facet normal -0.801755 0.0317654 -0.596809
  outer loop
   vertex -22.053 60.878 391.171
   vertex -22.6334 61.7291 391.996
   vertex -22.0164 62.1028 391.187
  endloop
 endfacet
 facet normal -0.837885 -0.00705946 -0.545802
  outer loop
   vertex -22.1389 59.2939 391.207
   vertex -22.0484 58.4481 391.079
   vertex -22.527 58.5054 391.813
  endloop
 endfacet
 facet normal -0.711945 0.0304521 -0.701574
  outer loop
   vertex -22.053 60.878 391.171
   vertex -22.0164 62.1028 391.187
   vertex -21.4078 61.8858 390.56
  endloop
 endfacet
 facet normal -0.703517 0.0703186 -0.707191
  outer loop
   vertex -21.4349 62.5701 390.655
   vertex -21.4078 61.8858 390.56
   vertex -22.0164 62.1028 391.187
  endloop
 endfacet
 facet normal -0.743172 0.0725215 -0.665158
  outer loop
   vertex -21.4078 61.8858 390.56
   vertex -21.2818 60.6089 390.28
   vertex -22.053 60.878 391.171
  endloop
 endfacet
 facet normal -0.810007 0.0306117 -0.585621
  outer loop
   vertex -22.053 60.878 391.171
   vertex -21.6066 59.5284 390.483
   vertex -22.1389 59.2939 391.207
  endloop
 endfacet
 facet normal -0.80409 -0.00999766 -0.594424
  outer loop
   vertex -21.6553 58.5698 390.565
   vertex -22.1389 59.2939 391.207
   vertex -21.6066 59.5284 390.483
  endloop
 endfacet
 facet normal -0.738001 0.0963638 -0.667883
  outer loop
   vertex -21.2818 60.6089 390.28
   vertex -21.6066 59.5284 390.483
   vertex -22.053 60.878 391.171
  endloop
 endfacet
 facet normal -0.642775 0.0803102 -0.761834
  outer loop
   vertex -20.6685 62.8511 390.038
   vertex -21.4078 61.8858 390.56
   vertex -21.4349 62.5701 390.655
  endloop
 endfacet
 facet normal -0.780337 -0.0138376 -0.625207
  outer loop
   vertex -21.6553 58.5698 390.565
   vertex -21.6066 59.5284 390.483
   vertex -21.2195 58.7537 390.017
  endloop
 endfacet
 facet normal -0.46483 0.0487208 -0.884059
  outer loop
   vertex 25.8509 46.358 356.839
   vertex 25.9506 46.6015 356.8
   vertex 26.3979 46.3327 356.55
  endloop
 endfacet
 facet normal -0.739452 0.0349214 -0.672303
  outer loop
   vertex -21.1181 59.4567 389.942
   vertex -21.2195 58.7537 390.017
   vertex -21.6066 59.5284 390.483
  endloop
 endfacet
 facet normal -0.634541 -0.423295 -0.646668
  outer loop
   vertex -21.6553 58.5698 390.565
   vertex -21.2195 58.7537 390.017
   vertex -21.1403 58.4104 390.164
  endloop
 endfacet
 facet normal -0.65701 0.0990462 -0.747347
  outer loop
   vertex -20.6685 62.8511 390.038
   vertex -21.2818 60.6089 390.28
   vertex -21.4078 61.8858 390.56
  endloop
 endfacet
 facet normal -0.732747 0.0936295 -0.67403
  outer loop
   vertex -21.1181 59.4567 389.942
   vertex -21.6066 59.5284 390.483
   vertex -21.2818 60.6089 390.28
  endloop
 endfacet
 facet normal -0.765655 -0.394273 -0.508253
  outer loop
   vertex -21.2195 58.7537 390.017
   vertex -20.9832 58.5333 389.832
   vertex -21.1403 58.4104 390.164
  endloop
 endfacet
 facet normal -0.601914 0.144864 -0.785311
  outer loop
   vertex -21.1181 59.4567 389.942
   vertex -21.2818 60.6089 390.28
   vertex -20.4471 60.3475 389.592
  endloop
 endfacet
 facet normal -0.438421 -0.193967 -0.87759
  outer loop
   vertex 27.8887 44.7471 356.177
   vertex 25.8509 46.358 356.839
   vertex 27.0852 46.0746 356.285
  endloop
 endfacet
 facet normal -0.617837 0.0846195 -0.78174
  outer loop
   vertex -20.6685 62.8511 390.038
   vertex -20.4471 60.3475 389.592
   vertex -21.2818 60.6089 390.28
  endloop
 endfacet
 facet normal -0.619223 0.00553374 -0.785196
  outer loop
   vertex -20.6843 58.9071 389.596
   vertex -21.2195 58.7537 390.017
   vertex -21.1181 59.4567 389.942
  endloop
 endfacet
 facet normal -0.617828 -0.00239152 -0.78631
  outer loop
   vertex -20.9832 58.5333 389.832
   vertex -21.2195 58.7537 390.017
   vertex -20.6843 58.9071 389.596
  endloop
 endfacet
 facet normal -0.550301 0.0883171 -0.830283
  outer loop
   vertex -21.1181 59.4567 389.942
   vertex -20.4471 60.3475 389.592
   vertex -20.6843 58.9071 389.596
  endloop
 endfacet
 facet normal -0.565954 0.0958184 -0.81885
  outer loop
   vertex -20.4471 60.3475 389.592
   vertex -20.6685 62.8511 390.038
   vertex -19.6969 63.2915 389.418
  endloop
 endfacet
 facet normal -0.744113 0.488851 -0.455325
  outer loop
   vertex -19.2029 63.7957 389.152
   vertex -19.6969 63.2915 389.418
   vertex -19.2118 63.8641 389.24
  endloop
 endfacet
 facet normal -0.490253 0.0783239 -0.868054
  outer loop
   vertex -19.6299 59.4666 389.051
   vertex -20.6843 58.9071 389.596
   vertex -20.4471 60.3475 389.592
  endloop
 endfacet
 facet normal -0.425189 -0.0771742 -0.901808
  outer loop
   vertex -20.6843 58.9071 389.596
   vertex -19.6299 59.4666 389.051
   vertex -20.1446 58.9017 389.342
  endloop
 endfacet
 facet normal -0.471255 0.0681101 -0.879363
  outer loop
   vertex -19.6969 63.2915 389.418
   vertex -18.6434 60.5878 388.644
   vertex -20.4471 60.3475 389.592
  endloop
 endfacet
 facet normal -0.473235 0.098622 -0.875398
  outer loop
   vertex -19.6299 59.4666 389.051
   vertex -20.4471 60.3475 389.592
   vertex -18.6434 60.5878 388.644
  endloop
 endfacet
 facet normal -0.429791 -0.0543808 -0.90129
  outer loop
   vertex -19.2029 63.7957 389.152
   vertex -18.8695 63.5971 389.005
   vertex -19.6969 63.2915 389.418
  endloop
 endfacet
 facet normal -0.46628 0.070747 -0.881804
  outer loop
   vertex -18.8695 63.5971 389.005
   vertex -18.6434 60.5878 388.644
   vertex -19.6969 63.2915 389.418
  endloop
 endfacet
 facet normal -0.394001 0.0802319 -0.915601
  outer loop
   vertex -18.0274 63.2705 388.614
   vertex -18.6434 60.5878 388.644
   vertex -18.8695 63.5971 389.005
  endloop
 endfacet
 facet normal -0.448085 -0.0905993 -0.889388
  outer loop
   vertex -18.8695 63.5971 389.005
   vertex -18.2035 64.3281 388.595
   vertex -18.0274 63.2705 388.614
  endloop
 endfacet
 facet normal -0.274172 0.0522174 -0.960262
  outer loop
   vertex -18.6434 60.5878 388.644
   vertex -18.0274 63.2705 388.614
   vertex -17.3819 62.3014 388.377
  endloop
 endfacet
 facet normal -0.477277 0.103166 -0.872676
  outer loop
   vertex -18.6699 59.5937 388.541
   vertex -19.6299 59.4666 389.051
   vertex -18.6434 60.5878 388.644
  endloop
 endfacet
 facet normal -0.250088 0.0333363 -0.967649
  outer loop
   vertex -17.3819 62.3014 388.377
   vertex -16.95 61.3905 388.234
   vertex -18.6434 60.5878 388.644
  endloop
 endfacet
 facet normal -0.317987 0.106119 -0.942137
  outer loop
   vertex -18.6434 60.5878 388.644
   vertex -17.8031 60.0783 388.303
   vertex -18.6699 59.5937 388.541
  endloop
 endfacet
 facet normal -0.463179 -0.0929686 -0.881375
  outer loop
   vertex -18.2035 64.3281 388.595
   vertex -17.3819 62.3014 388.377
   vertex -18.0274 63.2705 388.614
  endloop
 endfacet
 facet normal -0.296446 0.143075 -0.944272
  outer loop
   vertex -17.8031 60.0783 388.303
   vertex -18.6434 60.5878 388.644
   vertex -16.95 61.3905 388.234
  endloop
 endfacet
 facet normal -0.207836 0.0838746 -0.974561
  outer loop
   vertex -16.6987 60.5491 388.108
   vertex -17.8031 60.0783 388.303
   vertex -16.95 61.3905 388.234
  endloop
 endfacet
 facet normal -0.130169 -0.103104 -0.986116
  outer loop
   vertex -17.0602 60.0204 388.211
   vertex -17.8031 60.0783 388.303
   vertex -16.6987 60.5491 388.108
  endloop
 endfacet
 facet normal -0.610747 -0.164275 -0.774598
  outer loop
   vertex -17.6716 64.3122 388.179
   vertex -17.3819 62.3014 388.377
   vertex -18.2035 64.3281 388.595
  endloop
 endfacet
 facet normal -0.477203 -0.0890089 -0.874274
  outer loop
   vertex -17.3819 62.3014 388.377
   vertex -16.3783 61.6554 387.895
   vertex -16.95 61.3905 388.234
  endloop
 endfacet
 facet normal -0.0392358 -0.165157 -0.985487
  outer loop
   vertex -16.4847 60.1164 388.172
   vertex -17.0602 60.0204 388.211
   vertex -16.6987 60.5491 388.108
  endloop
 endfacet
 facet normal -0.314841 -0.36579 -0.875827
  outer loop
   vertex -15.9024 60.2995 387.926
   vertex -16.6987 60.5491 388.108
   vertex -15.7642 60.7312 387.696
  endloop
 endfacet
 facet normal -0.502818 -0.0207634 -0.864143
  outer loop
   vertex -16.95 61.3905 388.234
   vertex -16.3783 61.6554 387.895
   vertex -16.6987 60.5491 388.108
  endloop
 endfacet
 facet normal -0.392279 -0.0630853 -0.91768
  outer loop
   vertex -16.6987 60.5491 388.108
   vertex -16.3783 61.6554 387.895
   vertex -15.7642 60.7312 387.696
  endloop
 endfacet
 facet normal -0.635101 -0.165798 -0.754425
  outer loop
   vertex -17.3819 62.3014 388.377
   vertex -17.6716 64.3122 388.179
   vertex -16.624 64.8086 387.188
  endloop
 endfacet
 facet normal -0.522823 -0.192624 -0.830393
  outer loop
   vertex -17.3819 62.3014 388.377
   vertex -15.7978 62.4809 387.338
   vertex -16.3783 61.6554 387.895
  endloop
 endfacet
 facet normal -0.520964 -0.194434 -0.831139
  outer loop
   vertex -15.7978 62.4809 387.338
   vertex -15.3081 61.5749 387.243
   vertex -16.3783 61.6554 387.895
  endloop
 endfacet
 facet normal -0.522098 -0.166843 -0.836407
  outer loop
   vertex -16.3783 61.6554 387.895
   vertex -15.3081 61.5749 387.243
   vertex -15.7642 60.7312 387.696
  endloop
 endfacet
 facet normal -0.342041 -0.574734 -0.743431
  outer loop
   vertex -14.8405 60.6808 387.31
   vertex -15.7642 60.7312 387.696
   vertex -14.8985 60.9378 387.138
  endloop
 endfacet
 facet normal -0.573886 -0.202799 -0.793428
  outer loop
   vertex -16.624 64.8086 387.188
   vertex -15.6078 63.5135 386.784
   vertex -17.3819 62.3014 388.377
  endloop
 endfacet
 facet normal -0.501413 -0.182981 -0.845637
  outer loop
   vertex -15.3081 61.5749 387.243
   vertex -14.8985 60.9378 387.138
   vertex -15.7642 60.7312 387.696
  endloop
 endfacet
 facet normal -0.488212 -0.34115 -0.803284
  outer loop
   vertex -15.7978 62.4809 387.338
   vertex -17.3819 62.3014 388.377
   vertex -15.6078 63.5135 386.784
  endloop
 endfacet
 facet normal -0.373265 -0.572696 -0.729858
  outer loop
   vertex -14.8985 60.9378 387.138
   vertex -14.4061 60.8603 386.947
   vertex -14.8405 60.6808 387.31
  endloop
 endfacet
 facet normal -0.36601 -0.624132 -0.690287
  outer loop
   vertex -14.0703 61.1113 386.542
   vertex -14.4061 60.8603 386.947
   vertex -14.8985 60.9378 387.138
  endloop
 endfacet
 facet normal -0.660566 -0.304207 -0.686375
  outer loop
   vertex -15.6078 63.5135 386.784
   vertex -16.624 64.8086 387.188
   vertex -15.7515 64.8296 386.339
  endloop
 endfacet
 facet normal -0.572953 -0.227111 -0.787493
  outer loop
   vertex -15.3081 61.5749 387.243
   vertex -15.7978 62.4809 387.338
   vertex -14.9682 62.4234 386.751
  endloop
 endfacet
 facet normal -0.584271 -0.219064 -0.781434
  outer loop
   vertex -14.9682 62.4234 386.751
   vertex -14.3092 61.7252 386.454
   vertex -15.3081 61.5749 387.243
  endloop
 endfacet
 facet normal -0.510548 -0.313433 -0.800688
  outer loop
   vertex -14.3092 61.7252 386.454
   vertex -14.0703 61.1113 386.542
   vertex -14.8985 60.9378 387.138
  endloop
 endfacet
 facet normal -0.697487 0.0121054 -0.716495
  outer loop
   vertex -16.1284 65.1319 386.711
   vertex -15.7515 64.8296 386.339
   vertex -16.624 64.8086 387.188
  endloop
 endfacet
 facet normal -0.563722 -0.307557 -0.766568
  outer loop
   vertex -15.6078 63.5135 386.784
   vertex -14.9682 62.4234 386.751
   vertex -15.7978 62.4809 387.338
  endloop
 endfacet
 facet normal -0.578354 -0.243497 -0.778598
  outer loop
   vertex -14.8985 60.9378 387.138
   vertex -15.3081 61.5749 387.243
   vertex -14.3092 61.7252 386.454
  endloop
 endfacet
 facet normal -0.477198 -0.488091 -0.730787
  outer loop
   vertex 30.4814 41.0013 356.633
   vertex 29.3924 41.3458 357.114
   vertex 28.4859 42.1617 357.161
  endloop
 endfacet
 facet normal -0.397289 -0.595341 -0.698378
  outer loop
   vertex -13.9722 60.9766 386.601
   vertex -14.4061 60.8603 386.947
   vertex -14.0703 61.1113 386.542
  endloop
 endfacet
 facet normal -0.654488 -0.305335 -0.691676
  outer loop
   vertex -14.535 65.3572 384.955
   vertex -15.6078 63.5135 386.784
   vertex -15.7515 64.8296 386.339
  endloop
 endfacet
 facet normal -0.625076 -0.345573 -0.699899
  outer loop
   vertex -14.4175 62.9139 386.017
   vertex -14.9682 62.4234 386.751
   vertex -15.6078 63.5135 386.784
  endloop
 endfacet
 facet normal -0.646448 -0.314457 -0.695141
  outer loop
   vertex -14.3092 61.7252 386.454
   vertex -14.9682 62.4234 386.751
   vertex -14.4175 62.9139 386.017
  endloop
 endfacet
 facet normal -0.623981 -0.336554 -0.705251
  outer loop
   vertex -15.6078 63.5135 386.784
   vertex -14.535 65.3572 384.955
   vertex -14.4175 62.9139 386.017
  endloop
 endfacet
 facet normal -0.626859 -0.377357 -0.681652
  outer loop
   vertex -13.6627 62.1632 385.617
   vertex -13.4727 61.3779 385.877
   vertex -14.3092 61.7252 386.454
  endloop
 endfacet
 facet normal -0.667146 -0.309834 -0.677436
  outer loop
   vertex -14.4175 62.9139 386.017
   vertex -13.6627 62.1632 385.617
   vertex -14.3092 61.7252 386.454
  endloop
 endfacet
 facet normal -0.733296 -0.300389 -0.609954
  outer loop
   vertex -12.9618 63.1107 384.17
   vertex -14.4175 62.9139 386.017
   vertex -14.535 65.3572 384.955
  endloop
 endfacet
 facet normal -0.70278 -0.389381 -0.595385
  outer loop
   vertex -12.9618 63.1107 384.17
   vertex -13.6627 62.1632 385.617
   vertex -14.4175 62.9139 386.017
  endloop
 endfacet
 facet normal -0.719873 -0.129155 -0.681984
  outer loop
   vertex -14.535 65.3572 384.955
   vertex -15.7515 64.8296 386.339
   vertex -15.2237 65.4626 385.662
  endloop
 endfacet
 facet normal -0.74877 -0.364466 -0.553632
  outer loop
   vertex -13.6627 62.1632 385.617
   vertex -13.0824 61.5604 385.229
   vertex -13.4727 61.3779 385.877
  endloop
 endfacet
 facet normal -0.646247 -0.538365 -0.540858
  outer loop
   vertex -13.4727 61.3779 385.877
   vertex -13.0824 61.5604 385.229
   vertex -13.0603 61.3008 385.461
  endloop
 endfacet
 facet normal -0.702988 0.114702 -0.701891
  outer loop
   vertex -14.5183 65.735 385
   vertex -14.535 65.3572 384.955
   vertex -15.2237 65.4626 385.662
  endloop
 endfacet
 facet normal -0.767672 -0.437777 -0.468007
  outer loop
   vertex -13.6627 62.1632 385.617
   vertex -12.7825 61.8021 384.511
   vertex -13.0824 61.5604 385.229
  endloop
 endfacet
 facet normal -0.672772 -0.224844 -0.704856
  outer loop
   vertex -12.9618 63.1107 384.17
   vertex -14.535 65.3572 384.955
   vertex -13.7001 65.6804 384.055
  endloop
 endfacet
 facet normal -0.795587 -0.252504 -0.550711
  outer loop
   vertex -12.9618 63.1107 384.17
   vertex -12.7825 61.8021 384.511
   vertex -13.6627 62.1632 385.617
  endloop
 endfacet
 facet normal -0.734028 0.00511574 -0.6791
  outer loop
   vertex -14.0229 65.8261 384.405
   vertex -13.7001 65.6804 384.055
   vertex -14.535 65.3572 384.955
  endloop
 endfacet
 facet normal -0.839131 -0.241914 -0.487172
  outer loop
   vertex -12.5444 62.2046 383.901
   vertex -12.7825 61.8021 384.511
   vertex -12.9618 63.1107 384.17
  endloop
 endfacet
 facet normal -0.690974 -0.229211 -0.685578
  outer loop
   vertex -12.371 64.7784 383.017
   vertex -12.9618 63.1107 384.17
   vertex -13.7001 65.6804 384.055
  endloop
 endfacet
 facet normal -0.766541 -0.169185 -0.619509
  outer loop
   vertex -12.3353 63.3737 383.323
   vertex -12.5444 62.2046 383.901
   vertex -12.9618 63.1107 384.17
  endloop
 endfacet
 facet normal -0.770857 -0.154229 -0.618056
  outer loop
   vertex -12.371 64.7784 383.017
   vertex -12.3353 63.3737 383.323
   vertex -12.9618 63.1107 384.17
  endloop
 endfacet
 facet normal -0.611825 -0.260595 -0.746834
  outer loop
   vertex -12.5444 62.2046 383.901
   vertex -11.9596 61.9894 383.497
   vertex -12.4306 61.6537 384
  endloop
 endfacet
 facet normal -0.497613 -0.430295 -0.753145
  outer loop
   vertex -12.1275 61.5412 383.864
   vertex -12.4306 61.6537 384
   vertex -11.9596 61.9894 383.497
  endloop
 endfacet
 facet normal -0.66963 -0.149532 -0.727486
  outer loop
   vertex -12.9912 65.8773 383.362
   vertex -12.371 64.7784 383.017
   vertex -13.7001 65.6804 384.055
  endloop
 endfacet
 facet normal -0.573365 -0.253545 -0.779081
  outer loop
   vertex -11.9596 61.9894 383.497
   vertex -12.3353 63.3737 383.323
   vertex -11.7016 62.8932 383.013
  endloop
 endfacet
 facet normal -0.611773 -0.259949 -0.747102
  outer loop
   vertex -12.5444 62.2046 383.901
   vertex -12.3353 63.3737 383.323
   vertex -11.9596 61.9894 383.497
  endloop
 endfacet
 facet normal -0.407062 -0.338186 -0.848487
  outer loop
   vertex -10.8205 62.0158 382.94
   vertex -11.9596 61.9894 383.497
   vertex -11.7016 62.8932 383.013
  endloop
 endfacet
 facet normal -0.719611 0.292825 -0.629614
  outer loop
   vertex -12.9912 65.8773 383.362
   vertex -12.9814 66.1422 383.474
   vertex -12.3611 66.1787 382.782
  endloop
 endfacet
 facet normal -0.544726 -0.191691 -0.816412
  outer loop
   vertex -12.371 64.7784 383.017
   vertex -11.7016 62.8932 383.013
   vertex -12.3353 63.3737 383.323
  endloop
 endfacet
 facet normal -0.639678 -0.122807 -0.758769
  outer loop
   vertex -12.3611 66.1787 382.782
   vertex -12.371 64.7784 383.017
   vertex -12.9912 65.8773 383.362
  endloop
 endfacet
 facet normal -0.445219 -0.379626 -0.810965
  outer loop
   vertex -11.7016 62.8932 383.013
   vertex -9.82311 62.2026 382.305
   vertex -10.8205 62.0158 382.94
  endloop
 endfacet
 facet normal -0.466595 0.0496003 -0.883079
  outer loop
   vertex 25.9506 46.6015 356.8
   vertex 25.8509 46.358 356.839
   vertex 25.1422 46.5638 357.225
  endloop
 endfacet
 facet normal -0.563789 -0.29657 -0.770836
  outer loop
   vertex -9.88446 63.2445 381.949
   vertex -9.16327 62.8508 381.573
   vertex -9.82311 62.2026 382.305
  endloop
 endfacet
 facet normal -0.433767 -0.314086 -0.844509
  outer loop
   vertex -9.88446 63.2445 381.949
   vertex -9.82311 62.2026 382.305
   vertex -11.7016 62.8932 383.013
  endloop
 endfacet
 facet normal -0.538587 -0.189502 -0.820983
  outer loop
   vertex -10.4543 64.1918 381.895
   vertex -11.7016 62.8932 383.013
   vertex -12.371 64.7784 383.017
  endloop
 endfacet
 facet normal -0.435079 -0.30992 -0.845373
  outer loop
   vertex -9.88446 63.2445 381.949
   vertex -11.7016 62.8932 383.013
   vertex -10.4543 64.1918 381.895
  endloop
 endfacet
 facet normal -0.539438 -0.32708 -0.775903
  outer loop
   vertex -9.82311 62.2026 382.305
   vertex -9.16327 62.8508 381.573
   vertex -9.0608 62.1172 381.811
  endloop
 endfacet
 facet normal -0.550471 -0.341547 -0.761792
  outer loop
   vertex -12.371 64.7784 383.017
   vertex -11.2126 66.1098 381.583
   vertex -10.4543 64.1918 381.895
  endloop
 endfacet
 facet normal -0.720934 -0.109729 -0.684261
  outer loop
   vertex -12.371 64.7784 383.017
   vertex -12.3611 66.1787 382.782
   vertex -11.2126 66.1098 381.583
  endloop
 endfacet
 facet normal -0.552258 -0.342009 -0.76029
  outer loop
   vertex -11.2126 66.1098 381.583
   vertex -10.2083 64.8438 381.423
   vertex -10.4543 64.1918 381.895
  endloop
 endfacet
 facet normal -0.649856 -0.315164 -0.691634
  outer loop
   vertex -9.0608 62.1172 381.811
   vertex -9.16327 62.8508 381.573
   vertex -8.71158 62.1981 381.446
  endloop
 endfacet
 facet normal -0.594877 -0.397674 -0.698553
  outer loop
   vertex -10.4543 64.1918 381.895
   vertex -9.66619 64.5692 381.009
   vertex -9.88446 63.2445 381.949
  endloop
 endfacet
 facet normal -0.586249 -0.402357 -0.70315
  outer loop
   vertex -9.66619 64.5692 381.009
   vertex -9.16327 62.8508 381.573
   vertex -9.88446 63.2445 381.949
  endloop
 endfacet
 facet normal -0.665341 -0.256491 -0.701095
  outer loop
   vertex -10.2083 64.8438 381.423
   vertex -9.66619 64.5692 381.009
   vertex -10.4543 64.1918 381.895
  endloop
 endfacet
 facet normal -0.771854 -0.44599 -0.453139
  outer loop
   vertex -8.71321 62.6419 381.012
   vertex -8.71158 62.1981 381.446
   vertex -9.16327 62.8508 381.573
  endloop
 endfacet
 facet normal -0.688672 -0.123443 -0.714488
  outer loop
   vertex -10.9969 66.3303 381.337
   vertex -10.5807 66.0978 380.976
   vertex -11.2126 66.1098 381.583
  endloop
 endfacet
 facet normal -0.74487 -0.394585 -0.538026
  outer loop
   vertex -9.07882 63.7454 380.8
   vertex -9.16327 62.8508 381.573
   vertex -9.66619 64.5692 381.009
  endloop
 endfacet
 facet normal -0.788939 -0.357418 -0.499827
  outer loop
   vertex -9.07882 63.7454 380.8
   vertex -8.71321 62.6419 381.012
   vertex -9.16327 62.8508 381.573
  endloop
 endfacet
 facet normal -0.632877 -0.419834 -0.650543
  outer loop
   vertex -10.2083 64.8438 381.423
   vertex -11.2126 66.1098 381.583
   vertex -10.5807 66.0978 380.976
  endloop
 endfacet
 facet normal -0.740367 -0.388744 -0.548393
  outer loop
   vertex -9.29762 64.4146 380.621
   vertex -9.07882 63.7454 380.8
   vertex -9.66619 64.5692 381.009
  endloop
 endfacet
 facet normal -0.6598 -0.418427 -0.624166
  outer loop
   vertex -10.5807 66.0978 380.976
   vertex -10.064 66.0155 380.485
   vertex -10.2083 64.8438 381.423
  endloop
 endfacet
 facet normal -0.675622 -0.408254 -0.613893
  outer loop
   vertex -10.064 66.0155 380.485
   vertex -9.66619 64.5692 381.009
   vertex -10.2083 64.8438 381.423
  endloop
 endfacet
 facet normal -0.920152 -0.341625 -0.191345
  outer loop
   vertex -9.07882 63.7454 380.8
   vertex -8.37614 62.1104 380.34
   vertex -8.71321 62.6419 381.012
  endloop
 endfacet
 facet normal -0.859487 -0.355224 -0.367556
  outer loop
   vertex -9.67186 65.807 379.826
   vertex -9.19314 64.6218 379.852
   vertex -9.66619 64.5692 381.009
  endloop
 endfacet
 facet normal -0.608458 -0.741606 -0.282489
  outer loop
   vertex -9.19314 64.6218 379.852
   vertex -9.29762 64.4146 380.621
   vertex -9.66619 64.5692 381.009
  endloop
 endfacet
 facet normal -0.908516 -0.355694 -0.219273
  outer loop
   vertex -9.29762 64.4146 380.621
   vertex -9.19314 64.6218 379.852
   vertex -9.07882 63.7454 380.8
  endloop
 endfacet
 facet normal -0.8447 -0.371828 -0.385
  outer loop
   vertex -10.064 66.0155 380.485
   vertex -9.67186 65.807 379.826
   vertex -9.66619 64.5692 381.009
  endloop
 endfacet
 facet normal -0.919971 -0.340982 -0.193353
  outer loop
   vertex -8.21773 62.2268 379.381
   vertex -8.37614 62.1104 380.34
   vertex -9.07882 63.7454 380.8
  endloop
 endfacet
 facet normal -0.916151 -0.343306 -0.2069
  outer loop
   vertex -9.19314 64.6218 379.852
   vertex -8.66478 63.618 379.178
   vertex -9.07882 63.7454 380.8
  endloop
 endfacet
 facet normal -0.890321 -0.36557 -0.271453
  outer loop
   vertex -9.67186 65.807 379.826
   vertex -9.41879 66.0379 378.685
   vertex -9.19314 64.6218 379.852
  endloop
 endfacet
 facet normal -0.912047 -0.312509 -0.265533
  outer loop
   vertex -9.67186 65.807 379.826
   vertex -9.88569 66.4302 379.827
   vertex -9.41879 66.0379 378.685
  endloop
 endfacet
 facet normal -0.510505 -0.317384 -0.799157
  outer loop
   vertex 25.8509 46.358 356.839
   vertex 27.8887 44.7471 356.177
   vertex 25.2092 43.5931 358.347
  endloop
 endfacet
 facet normal -0.905111 0.114638 -0.40943
  outer loop
   vertex -9.51328 66.4848 379.019
   vertex -9.41879 66.0379 378.685
   vertex -9.88569 66.4302 379.827
  endloop
 endfacet
 facet normal -0.916099 -0.319924 -0.241684
  outer loop
   vertex -8.82358 64.7685 378.257
   vertex -8.66478 63.618 379.178
   vertex -9.19314 64.6218 379.852
  endloop
 endfacet
 facet normal -0.921587 -0.326727 -0.209589
  outer loop
   vertex -9.07882 63.7454 380.8
   vertex -8.66478 63.618 379.178
   vertex -8.21773 62.2268 379.381
  endloop
 endfacet
 facet normal -0.907329 -0.34389 -0.241856
  outer loop
   vertex -9.41879 66.0379 378.685
   vertex -8.82358 64.7685 378.257
   vertex -9.19314 64.6218 379.852
  endloop
 endfacet
 facet normal -0.897064 -0.330987 -0.292787
  outer loop
   vertex -8.66478 63.618 379.178
   vertex -7.90569 62.0587 378.615
   vertex -8.21773 62.2268 379.381
  endloop
 endfacet
 facet normal -0.977343 -0.0536039 -0.204762
  outer loop
   vertex -9.51328 66.4848 379.019
   vertex -9.37721 66.3799 378.397
   vertex -9.41879 66.0379 378.685
  endloop
 endfacet
 facet normal -0.86394 -0.381971 -0.328184
  outer loop
   vertex -7.59884 63.3834 376.645
   vertex -8.66478 63.618 379.178
   vertex -8.82358 64.7685 378.257
  endloop
 endfacet
 facet normal -0.929794 -0.23764 -0.281087
  outer loop
   vertex -8.96822 65.6648 377.51
   vertex -9.41879 66.0379 378.685
   vertex -9.15341 66.2037 377.667
  endloop
 endfacet
 facet normal -0.907722 -0.345219 -0.238463
  outer loop
   vertex -9.41879 66.0379 378.685
   vertex -8.96822 65.6648 377.51
   vertex -8.82358 64.7685 378.257
  endloop
 endfacet
 facet normal -0.803199 -0.522247 -0.286584
  outer loop
   vertex -7.21186 61.2846 377.71
   vertex -7.44074 61.4429 378.063
   vertex -7.30617 61.6261 377.352
  endloop
 endfacet
 facet normal -0.902618 -0.404257 -0.147842
  outer loop
   vertex -7.30617 61.6261 377.352
   vertex -7.02676 61.154 376.937
   vertex -7.21186 61.2846 377.71
  endloop
 endfacet
 facet normal -0.883001 -0.321699 -0.341788
  outer loop
   vertex -7.44074 61.4429 378.063
   vertex -8.66478 63.618 379.178
   vertex -7.59884 63.3834 376.645
  endloop
 endfacet
 facet normal -0.936418 -0.253545 -0.242564
  outer loop
   vertex -7.44074 61.4429 378.063
   vertex -7.59884 63.3834 376.645
   vertex -7.30617 61.6261 377.352
  endloop
 endfacet
 facet normal -0.854525 -0.406922 -0.322803
  outer loop
   vertex -8.96822 65.6648 377.51
   vertex -8.76244 65.9609 376.592
   vertex -8.82358 64.7685 378.257
  endloop
 endfacet
 facet normal -0.862529 -0.395863 -0.315176
  outer loop
   vertex -8.76244 65.9609 376.592
   vertex -7.59884 63.3834 376.645
   vertex -8.82358 64.7685 378.257
  endloop
 endfacet
 facet normal -0.92907 -0.236394 -0.28451
  outer loop
   vertex -8.96822 65.6648 377.51
   vertex -9.15341 66.2037 377.667
   vertex -8.76244 65.9609 376.592
  endloop
 endfacet
 facet normal -0.91378 -0.303048 -0.270497
  outer loop
   vertex -7.30617 61.6261 377.352
   vertex -6.92931 61.4475 376.279
   vertex -7.02676 61.154 376.937
  endloop
 endfacet
 facet normal -0.922462 -0.266156 -0.279687
  outer loop
   vertex -6.92931 61.4475 376.279
   vertex -7.30617 61.6261 377.352
   vertex -7.59884 63.3834 376.645
  endloop
 endfacet
 facet normal -0.897947 -0.232726 -0.373537
  outer loop
   vertex -8.5779 66.2344 375.978
   vertex -8.27629 65.9454 375.433
   vertex -8.76244 65.9609 376.592
  endloop
 endfacet
 facet normal -0.892296 -0.23582 -0.384963
  outer loop
   vertex -6.72002 62.2423 375.307
   vertex -6.92931 61.4475 376.279
   vertex -7.59884 63.3834 376.645
  endloop
 endfacet
 facet normal -0.850528 -0.391192 -0.351528
  outer loop
   vertex -8.27629 65.9454 375.433
   vertex -7.59884 63.3834 376.645
   vertex -8.76244 65.9609 376.592
  endloop
 endfacet
 facet normal -0.89194 -0.231568 -0.388355
  outer loop
   vertex -6.72002 62.2423 375.307
   vertex -7.59884 63.3834 376.645
   vertex -6.54198 63.2118 374.32
  endloop
 endfacet
 facet normal -0.848695 -0.304957 -0.432109
  outer loop
   vertex -6.92931 61.4475 376.279
   vertex -6.72002 62.2423 375.307
   vertex -6.44349 61.0278 375.621
  endloop
 endfacet
 facet normal -0.847779 -0.392762 -0.356384
  outer loop
   vertex -8.27629 65.9454 375.433
   vertex -6.54198 63.2118 374.32
   vertex -7.59884 63.3834 376.645
  endloop
 endfacet
 facet normal -0.83816 -0.367768 -0.402783
  outer loop
   vertex -8.27629 65.9454 375.433
   vertex -6.7104 64.0151 373.937
   vertex -6.54198 63.2118 374.32
  endloop
 endfacet
 facet normal -0.764852 -0.318868 -0.559754
  outer loop
   vertex -6.72002 62.2423 375.307
   vertex -6.15627 62.3822 374.457
   vertex -6.44349 61.0278 375.621
  endloop
 endfacet
 facet normal -0.701498 -0.335281 -0.628878
  outer loop
   vertex -5.79515 60.6448 375.102
   vertex -6.44349 61.0278 375.621
   vertex -5.67799 61.36 374.59
  endloop
 endfacet
 facet normal -0.853069 -0.35067 -0.386397
  outer loop
   vertex -8.11682 66.2726 374.784
   vertex -7.57996 65.7897 374.037
   vertex -8.27629 65.9454 375.433
  endloop
 endfacet
 facet normal -0.720389 -0.425392 -0.547798
  outer loop
   vertex -6.54198 63.2118 374.32
   vertex -6.15627 62.3822 374.457
   vertex -6.72002 62.2423 375.307
  endloop
 endfacet
 facet normal -0.671704 -0.395766 -0.626245
  outer loop
   vertex -6.44349 61.0278 375.621
   vertex -6.15627 62.3822 374.457
   vertex -5.67799 61.36 374.59
  endloop
 endfacet
 facet normal -0.840417 -0.390644 -0.375628
  outer loop
   vertex -6.7104 64.0151 373.937
   vertex -8.27629 65.9454 375.433
   vertex -7.57996 65.7897 374.037
  endloop
 endfacet
 facet normal -0.702995 -0.40499 -0.58462
  outer loop
   vertex -5.29884 62.1858 373.562
   vertex -5.67799 61.36 374.59
   vertex -6.15627 62.3822 374.457
  endloop
 endfacet
 facet normal -0.792145 -0.298794 -0.532192
  outer loop
   vertex -5.29884 62.1858 373.562
   vertex -4.95057 59.9961 374.273
   vertex -5.67799 61.36 374.59
  endloop
 endfacet
 facet normal -0.872419 -0.300657 -0.385345
  outer loop
   vertex -4.95057 59.9961 374.273
   vertex -4.55057 59.6288 373.654
   vertex -4.74535 59.6403 374.086
  endloop
 endfacet
 facet normal -0.825455 -0.381012 -0.416478
  outer loop
   vertex -7.57996 65.7897 374.037
   vertex -6.70367 64.6859 373.31
   vertex -6.7104 64.0151 373.937
  endloop
 endfacet
 facet normal -0.737479 -0.429013 -0.521606
  outer loop
   vertex -6.54198 63.2118 374.32
   vertex -6.02674 63.4082 373.43
   vertex -6.15627 62.3822 374.457
  endloop
 endfacet
 facet normal -0.764533 -0.305837 -0.567409
  outer loop
   vertex -5.29884 62.1858 373.562
   vertex -4.65175 61.3604 373.135
   vertex -4.95057 59.9961 374.273
  endloop
 endfacet
 facet normal -0.748949 -0.406514 -0.52328
  outer loop
   vertex -6.54198 63.2118 374.32
   vertex -6.7104 64.0151 373.937
   vertex -6.02674 63.4082 373.43
  endloop
 endfacet
 facet normal -0.686908 -0.468989 -0.555164
  outer loop
   vertex -5.29884 62.1858 373.562
   vertex -6.15627 62.3822 374.457
   vertex -6.02674 63.4082 373.43
  endloop
 endfacet
 facet normal -0.871921 -0.186623 -0.452687
  outer loop
   vertex -4.65175 61.3604 373.135
   vertex -4.55057 59.6288 373.654
   vertex -4.95057 59.9961 374.273
  endloop
 endfacet
 facet normal -0.819701 -0.354341 -0.450036
  outer loop
   vertex -6.70367 64.6859 373.31
   vertex -7.57996 65.7897 374.037
   vertex -6.5721 65.8421 372.16
  endloop
 endfacet
 facet normal -0.679104 -0.465667 -0.567426
  outer loop
   vertex -6.02674 63.4082 373.43
   vertex -5.01747 63.1463 372.437
   vertex -5.29884 62.1858 373.562
  endloop
 endfacet
 facet normal -0.753684 -0.44475 -0.483898
  outer loop
   vertex -6.7104 64.0151 373.937
   vertex -6.70367 64.6859 373.31
   vertex -6.02674 63.4082 373.43
  endloop
 endfacet
 facet normal -0.809139 -0.383547 -0.44518
  outer loop
   vertex -7.41957 66.4588 373.169
   vertex -6.5721 65.8421 372.16
   vertex -7.57996 65.7897 374.037
  endloop
 endfacet
 facet normal -0.769998 -0.317282 -0.553567
  outer loop
   vertex -4.45289 62.1497 372.406
   vertex -4.65175 61.3604 373.135
   vertex -5.29884 62.1858 373.562
  endloop
 endfacet
 facet normal -0.737997 -0.439115 -0.512385
  outer loop
   vertex -5.762 64.2153 372.357
   vertex -6.02674 63.4082 373.43
   vertex -6.70367 64.6859 373.31
  endloop
 endfacet
 facet normal -0.743879 -0.404869 -0.531718
  outer loop
   vertex -5.01747 63.1463 372.437
   vertex -4.45289 62.1497 372.406
   vertex -5.29884 62.1858 373.562
  endloop
 endfacet
 facet normal -0.814694 -0.209648 -0.540668
  outer loop
   vertex -4.65175 61.3604 373.135
   vertex -3.71483 60.3552 372.113
   vertex -4.55057 59.6288 373.654
  endloop
 endfacet
 facet normal -0.49902 -0.420322 -0.757832
  outer loop
   vertex 29.0184 44.1943 355.683
   vertex 28.4859 42.1617 357.161
   vertex 27.6272 43.2515 357.122
  endloop
 endfacet
 facet normal -0.668038 -0.506104 -0.545513
  outer loop
   vertex -5.762 64.2153 372.357
   vertex -5.01747 63.1463 372.437
   vertex -6.02674 63.4082 373.43
  endloop
 endfacet
 facet normal -0.742198 -0.377976 -0.553422
  outer loop
   vertex -3.87453 59.1333 372.83
   vertex -3.09026 58.4513 372.244
   vertex -3.51316 58.4881 372.786
  endloop
 endfacet
 facet normal -0.814106 -0.211048 -0.541009
  outer loop
   vertex -3.71483 60.3552 372.113
   vertex -3.87453 59.1333 372.83
   vertex -4.55057 59.6288 373.654
  endloop
 endfacet
 facet normal -0.739203 -0.430789 -0.517687
  outer loop
   vertex -6.5721 65.8421 372.16
   vertex -5.762 64.2153 372.357
   vertex -6.70367 64.6859 373.31
  endloop
 endfacet
 facet normal -0.864632 -0.200845 -0.460515
  outer loop
   vertex -7.41957 66.4588 373.169
   vertex -7.30297 66.8052 372.799
   vertex -7.00837 66.8852 372.211
  endloop
 endfacet
 facet normal -0.748732 -0.259944 -0.609778
  outer loop
   vertex -3.87453 59.1333 372.83
   vertex -3.71483 60.3552 372.113
   vertex -3.28603 59.5588 371.926
  endloop
 endfacet
 facet normal -0.725948 -0.305276 -0.616284
  outer loop
   vertex -3.28603 59.5588 371.926
   vertex -3.09026 58.4513 372.244
   vertex -3.87453 59.1333 372.83
  endloop
 endfacet
 facet normal -0.824928 -0.257094 -0.503385
  outer loop
   vertex -4.45289 62.1497 372.406
   vertex -3.71483 60.3552 372.113
   vertex -4.65175 61.3604 373.135
  endloop
 endfacet
 facet normal -0.812739 -0.315993 -0.489493
  outer loop
   vertex -7.00837 66.8852 372.211
   vertex -6.5721 65.8421 372.16
   vertex -7.41957 66.4588 373.169
  endloop
 endfacet
 facet normal -0.711905 -0.422442 -0.561012
  outer loop
   vertex -6.5721 65.8421 372.16
   vertex -5.38204 65.0079 371.278
   vertex -5.762 64.2153 372.357
  endloop
 endfacet
 facet normal -0.637016 -0.488311 -0.596459
  outer loop
   vertex -5.01747 63.1463 372.437
   vertex -5.762 64.2153 372.357
   vertex -4.81806 63.9513 371.565
  endloop
 endfacet
 facet normal -0.634653 -0.499032 -0.59007
  outer loop
   vertex -4.81806 63.9513 371.565
   vertex -5.762 64.2153 372.357
   vertex -5.38204 65.0079 371.278
  endloop
 endfacet
 facet normal -0.654596 -0.313261 -0.68802
  outer loop
   vertex -3.09026 58.4513 372.244
   vertex -3.28603 59.5588 371.926
   vertex -2.43239 59.2136 371.271
  endloop
 endfacet
 facet normal -0.663816 -0.301003 -0.68465
  outer loop
   vertex -2.4619 57.8366 371.905
   vertex -3.09026 58.4513 372.244
   vertex -2.43239 59.2136 371.271
  endloop
 endfacet
 facet normal -0.807096 -0.313091 -0.500569
  outer loop
   vertex -6.53175 67.217 371.235
   vertex -6.5721 65.8421 372.16
   vertex -7.00837 66.8852 372.211
  endloop
 endfacet
 facet normal -0.768092 -0.217577 -0.602241
  outer loop
   vertex -4.45289 62.1497 372.406
   vertex -3.19009 61.4562 371.046
   vertex -3.71483 60.3552 372.113
  endloop
 endfacet
 facet normal -0.73931 -0.402017 -0.540189
  outer loop
   vertex -4.81806 63.9513 371.565
   vertex -4.45289 62.1497 372.406
   vertex -5.01747 63.1463 372.437
  endloop
 endfacet
 facet normal -0.718039 -0.278329 -0.637928
  outer loop
   vertex -2.43239 59.2136 371.271
   vertex -2.0938 57.8702 371.476
   vertex -2.4619 57.8366 371.905
  endloop
 endfacet
 facet normal -0.714043 -0.470755 -0.518201
  outer loop
   vertex -6.5721 65.8421 372.16
   vertex -5.79865 66.013 370.939
   vertex -5.38204 65.0079 371.278
  endloop
 endfacet
 facet normal -0.802546 -0.316631 -0.505633
  outer loop
   vertex -6.53175 67.217 371.235
   vertex -6.14072 66.7353 370.916
   vertex -6.5721 65.8421 372.16
  endloop
 endfacet
 facet normal -0.758093 -0.375997 -0.532842
  outer loop
   vertex -6.5721 65.8421 372.16
   vertex -6.14072 66.7353 370.916
   vertex -5.79865 66.013 370.939
  endloop
 endfacet
 facet normal -0.739893 -0.251896 -0.623785
  outer loop
   vertex -3.19009 61.4562 371.046
   vertex -3.28603 59.5588 371.926
   vertex -3.71483 60.3552 372.113
  endloop
 endfacet
 facet normal -0.659735 -0.503643 -0.557757
  outer loop
   vertex -2.73208 62.9099 370.038
   vertex -4.81806 63.9513 371.565
   vertex -5.38204 65.0079 371.278
  endloop
 endfacet
 facet normal -0.65369 -0.290952 -0.698596
  outer loop
   vertex -3.19009 61.4562 371.046
   vertex -2.43239 59.2136 371.271
   vertex -3.28603 59.5588 371.926
  endloop
 endfacet
 facet normal -0.765111 -0.393132 -0.509953
  outer loop
   vertex -4.81806 63.9513 371.565
   vertex -3.19009 61.4562 371.046
   vertex -4.45289 62.1497 372.406
  endloop
 endfacet
 facet normal -0.654239 -0.280797 -0.702228
  outer loop
   vertex -2.73208 62.9099 370.038
   vertex -3.19009 61.4562 371.046
   vertex -4.81806 63.9513 371.565
  endloop
 endfacet
 facet normal -0.608624 -0.280118 -0.742368
  outer loop
   vertex -1.87226 61.2033 370.061
   vertex -2.43239 59.2136 371.271
   vertex -3.19009 61.4562 371.046
  endloop
 endfacet
 facet normal -0.624459 -0.248748 -0.740389
  outer loop
   vertex -1.5202 57.3934 371.277
   vertex -0.669648 58.443 370.207
   vertex -0.760468 56.9089 370.799
  endloop
 endfacet
 facet normal -0.634828 -0.245176 -0.732722
  outer loop
   vertex -0.669648 58.443 370.207
   vertex 0.322738 56.9314 369.853
   vertex -0.760468 56.9089 370.799
  endloop
 endfacet
 facet normal -0.673477 -0.339862 -0.656447
  outer loop
   vertex -5.47769 66.984 370.107
   vertex -5.79865 66.013 370.939
   vertex -6.14072 66.7353 370.916
  endloop
 endfacet
 facet normal -0.58482 -0.466286 -0.663749
  outer loop
   vertex -5.79865 66.013 370.939
   vertex -4.78009 65.9483 370.087
   vertex -5.38204 65.0079 371.278
  endloop
 endfacet
 facet normal -0.634734 -0.417347 -0.650334
  outer loop
   vertex -2.73208 62.9099 370.038
   vertex -5.38204 65.0079 371.278
   vertex -4.78009 65.9483 370.087
  endloop
 endfacet
 facet normal -0.625297 -0.269375 -0.732421
  outer loop
   vertex -2.43239 59.2136 371.271
   vertex -1.87226 61.2033 370.061
   vertex -2.0938 57.8702 371.476
  endloop
 endfacet
 facet normal -0.546711 -0.337954 -0.766091
  outer loop
   vertex -2.0938 57.8702 371.476
   vertex -0.669648 58.443 370.207
   vertex -1.5202 57.3934 371.277
  endloop
 endfacet
 facet normal -0.646009 -0.171668 -0.743776
  outer loop
   vertex 0.322738 56.9314 369.853
   vertex -0.278288 56.3509 370.509
   vertex -0.760468 56.9089 370.799
  endloop
 endfacet
 facet normal -0.777121 -0.247699 -0.578557
  outer loop
   vertex -6.00597 67.6462 370.345
   vertex -6.14072 66.7353 370.916
   vertex -6.53175 67.217 371.235
  endloop
 endfacet
 facet normal -0.686031 -0.310859 -0.657821
  outer loop
   vertex -6.00597 67.6462 370.345
   vertex -5.47769 66.984 370.107
   vertex -6.14072 66.7353 370.916
  endloop
 endfacet
 facet normal -0.606226 -0.315273 -0.730132
  outer loop
   vertex -2.73208 62.9099 370.038
   vertex -1.87226 61.2033 370.061
   vertex -3.19009 61.4562 371.046
  endloop
 endfacet
 facet normal -0.604367 -0.393707 -0.692629
  outer loop
   vertex -5.47769 66.984 370.107
   vertex -4.78009 65.9483 370.087
   vertex -5.79865 66.013 370.939
  endloop
 endfacet
 facet normal -0.619481 -0.212584 -0.755679
  outer loop
   vertex 0.322738 56.9314 369.853
   vertex 0.34361 55.9001 370.126
   vertex -0.278288 56.3509 370.509
  endloop
 endfacet
 facet normal -0.578007 -0.193831 -0.792677
  outer loop
   vertex 0.322738 56.9314 369.853
   vertex -0.669648 58.443 370.207
   vertex 0.538476 58.7458 369.252
  endloop
 endfacet
 facet normal -0.415728 -0.26619 -0.869663
  outer loop
   vertex -3.03559 65.5402 369.378
   vertex -2.73208 62.9099 370.038
   vertex -4.78009 65.9483 370.087
  endloop
 endfacet
 facet normal -0.598855 -0.198923 -0.775759
  outer loop
   vertex -5.44131 67.7948 369.871
   vertex -5.47769 66.984 370.107
   vertex -6.00597 67.6462 370.345
  endloop
 endfacet
 facet normal -0.563942 -0.294528 -0.771507
  outer loop
   vertex -1.87226 61.2033 370.061
   vertex -2.73208 62.9099 370.038
   vertex -1.70659 62.5757 369.416
  endloop
 endfacet
 facet normal -0.623148 -0.150848 -0.767418
  outer loop
   vertex 0.263412 60.7138 369.003
   vertex -0.669648 58.443 370.207
   vertex -2.0938 57.8702 371.476
  endloop
 endfacet
 facet normal -0.478337 -0.316041 -0.819336
  outer loop
   vertex -2.0938 57.8702 371.476
   vertex -1.87226 61.2033 370.061
   vertex 0.263412 60.7138 369.003
  endloop
 endfacet
 facet normal -0.541765 -0.225329 -0.809764
  outer loop
   vertex 0.322738 56.9314 369.853
   vertex 1.13271 55.5877 369.685
   vertex 0.34361 55.9001 370.126
  endloop
 endfacet
 facet normal -0.418785 -0.5882 -0.691838
  outer loop
   vertex -3.03559 65.5402 369.378
   vertex -4.78009 65.9483 370.087
   vertex -4.00561 66.272 369.343
  endloop
 endfacet
 facet normal -0.597789 -0.19919 -0.776512
  outer loop
   vertex -5.44131 67.7948 369.871
   vertex -5.00408 67.4728 369.617
   vertex -5.47769 66.984 370.107
  endloop
 endfacet
 facet normal -0.287638 0.244441 -0.92602
  outer loop
   vertex -4.6863 67.5702 369.544
   vertex -5.00408 67.4728 369.617
   vertex -4.99183 67.7789 369.694
  endloop
 endfacet
 facet normal -0.631016 -0.218056 -0.744493
  outer loop
   vertex -2.74759 65.0545 369.423
   vertex -2.34249 63.7354 369.466
   vertex -2.73208 62.9099 370.038
  endloop
 endfacet
 facet normal -0.537592 -0.20684 -0.817442
  outer loop
   vertex 0.322738 56.9314 369.853
   vertex 0.538476 58.7458 369.252
   vertex 1.56048 57.3424 368.935
  endloop
 endfacet
 facet normal -0.545217 -0.227786 -0.806754
  outer loop
   vertex 0.322738 56.9314 369.853
   vertex 1.60181 56.048 369.238
   vertex 1.13271 55.5877 369.685
  endloop
 endfacet
 facet normal -0.52506 -0.576277 -0.626272
  outer loop
   vertex 2.25461 54.5367 369.537
   vertex 1.61174 54.9518 369.694
   vertex 2.26112 54.8796 369.216
  endloop
 endfacet
 facet normal -0.564594 -0.435243 -0.701283
  outer loop
   vertex 2.26112 54.8796 369.216
   vertex 1.61174 54.9518 369.694
   vertex 1.13271 55.5877 369.685
  endloop
 endfacet
 facet normal -0.308053 0.338797 -0.888999
  outer loop
   vertex -4.56934 67.3013 369.401
   vertex -5.00408 67.4728 369.617
   vertex -4.6863 67.5702 369.544
  endloop
 endfacet
 facet normal -0.578221 -0.375484 -0.724342
  outer loop
   vertex -4.69877 66.9169 369.52
   vertex -4.78009 65.9483 370.087
   vertex -5.47769 66.984 370.107
  endloop
 endfacet
 facet normal -0.600965 -0.194776 -0.775179
  outer loop
   vertex -5.47769 66.984 370.107
   vertex -5.00408 67.4728 369.617
   vertex -4.69877 66.9169 369.52
  endloop
 endfacet
 facet normal -0.479112 -0.37448 -0.793862
  outer loop
   vertex -1.01636 61.6113 369.352
   vertex 0.263412 60.7138 369.003
   vertex -1.87226 61.2033 370.061
  endloop
 endfacet
 facet normal -0.562528 -0.27482 -0.779766
  outer loop
   vertex -2.34249 63.7354 369.466
   vertex -1.70659 62.5757 369.416
   vertex -2.73208 62.9099 370.038
  endloop
 endfacet
 facet normal -0.512532 -0.313787 -0.79928
  outer loop
   vertex -1.01636 61.6113 369.352
   vertex -1.87226 61.2033 370.061
   vertex -1.70659 62.5757 369.416
  endloop
 endfacet
 facet normal -0.510056 -0.272453 -0.81585
  outer loop
   vertex 1.60181 56.048 369.238
   vertex 2.26112 54.8796 369.216
   vertex 1.13271 55.5877 369.685
  endloop
 endfacet
 facet normal -0.456983 -0.416648 -0.785857
  outer loop
   vertex 27.6272 43.2515 357.122
   vertex 25.2092 43.5931 358.347
   vertex 27.8887 44.7471 356.177
  endloop
 endfacet
 facet normal -0.476602 -0.10953 -0.872269
  outer loop
   vertex -5.00408 67.4728 369.617
   vertex -4.56934 67.3013 369.401
   vertex -4.69877 66.9169 369.52
  endloop
 endfacet
 facet normal -0.549391 -0.387297 -0.740385
  outer loop
   vertex -4.78009 65.9483 370.087
   vertex -4.69877 66.9169 369.52
   vertex -4.00561 66.272 369.343
  endloop
 endfacet
 facet normal -0.514245 -0.185224 -0.837403
  outer loop
   vertex -2.40724 64.2859 369.384
   vertex -2.34249 63.7354 369.466
   vertex -2.74759 65.0545 369.423
  endloop
 endfacet
 facet normal -0.581396 -0.181616 -0.793092
  outer loop
   vertex 0.263412 60.7138 369.003
   vertex 0.538476 58.7458 369.252
   vertex -0.669648 58.443 370.207
  endloop
 endfacet
 facet normal -0.537013 -0.208494 -0.817403
  outer loop
   vertex 1.56048 57.3424 368.935
   vertex 1.60181 56.048 369.238
   vertex 0.322738 56.9314 369.853
  endloop
 endfacet
 facet normal -0.522396 -0.178521 -0.833806
  outer loop
   vertex 0.263412 60.7138 369.003
   vertex 0.982736 59.8699 368.733
   vertex 0.538476 58.7458 369.252
  endloop
 endfacet
 facet normal -0.639767 -0.630522 -0.439477
  outer loop
   vertex 2.26112 54.8796 369.216
   vertex 3.25958 54.1711 368.779
   vertex 3.0788 54.0792 369.174
  endloop
 endfacet
 facet normal -0.511461 -0.182796 -0.839639
  outer loop
   vertex 1.56048 57.3424 368.935
   vertex 0.538476 58.7458 369.252
   vertex 1.78033 58.8815 368.466
  endloop
 endfacet
 facet normal -0.524757 -0.28098 -0.803542
  outer loop
   vertex 2.26112 54.8796 369.216
   vertex 1.60181 56.048 369.238
   vertex 2.97886 55.5982 368.496
  endloop
 endfacet
 facet normal -0.516168 -0.21081 -0.830139
  outer loop
   vertex 1.60181 56.048 369.238
   vertex 1.56048 57.3424 368.935
   vertex 2.97886 55.5982 368.496
  endloop
 endfacet
 facet normal -0.51096 -0.185592 -0.83933
  outer loop
   vertex 0.982736 59.8699 368.733
   vertex 1.78033 58.8815 368.466
   vertex 0.538476 58.7458 369.252
  endloop
 endfacet
 facet normal -0.501168 -0.195374 -0.843007
  outer loop
   vertex 1.56048 57.3424 368.935
   vertex 2.75544 57.565 368.173
   vertex 2.97886 55.5982 368.496
  endloop
 endfacet
 facet normal -0.538016 -0.264538 -0.800349
  outer loop
   vertex 3.25958 54.1711 368.779
   vertex 2.26112 54.8796 369.216
   vertex 2.97886 55.5982 368.496
  endloop
 endfacet
 facet normal -0.503601 -0.185202 -0.843852
  outer loop
   vertex 2.75544 57.565 368.173
   vertex 1.56048 57.3424 368.935
   vertex 1.78033 58.8815 368.466
  endloop
 endfacet
 facet normal -0.592174 -0.267231 -0.760209
  outer loop
   vertex 2.97886 55.5982 368.496
   vertex 3.87363 54.0706 368.336
   vertex 3.25958 54.1711 368.779
  endloop
 endfacet
 facet normal -0.476597 -0.160645 -0.86432
  outer loop
   vertex 2.75544 57.565 368.173
   vertex 1.78033 58.8815 368.466
   vertex 2.84594 58.6094 367.929
  endloop
 endfacet
 facet normal -0.478326 -0.174695 -0.860631
  outer loop
   vertex 2.28265 59.0924 368.144
   vertex 2.84594 58.6094 367.929
   vertex 1.78033 58.8815 368.466
  endloop
 endfacet
 facet normal -0.477428 -0.194938 -0.856774
  outer loop
   vertex 2.97886 55.5982 368.496
   vertex 2.75544 57.565 368.173
   vertex 4.3967 57.4702 367.28
  endloop
 endfacet
 facet normal -0.53244 -0.236076 -0.812881
  outer loop
   vertex 4.69739 54.4956 367.673
   vertex 4.64232 53.3458 368.043
   vertex 3.87363 54.0706 368.336
  endloop
 endfacet
 facet normal -0.535978 -0.228825 -0.812629
  outer loop
   vertex 3.87363 54.0706 368.336
   vertex 2.97886 55.5982 368.496
   vertex 4.69739 54.4956 367.673
  endloop
 endfacet
 facet normal -0.509316 -0.163124 -0.844978
  outer loop
   vertex 4.3967 57.4702 367.28
   vertex 4.69739 54.4956 367.673
   vertex 2.97886 55.5982 368.496
  endloop
 endfacet
 facet normal -0.462044 -0.163615 -0.871634
  outer loop
   vertex 2.84594 58.6094 367.929
   vertex 3.72224 57.9566 367.587
   vertex 2.75544 57.565 368.173
  endloop
 endfacet
 facet normal -0.479862 -0.116537 -0.86957
  outer loop
   vertex 3.72224 57.9566 367.587
   vertex 4.3967 57.4702 367.28
   vertex 2.75544 57.565 368.173
  endloop
 endfacet
 facet normal -0.286749 0.283611 -0.915063
  outer loop
   vertex 3.64974 58.3768 367.605
   vertex 2.84594 58.6094 367.929
   vertex 3.36791 58.621 367.769
  endloop
 endfacet
 facet normal -0.380162 -0.0259752 -0.924555
  outer loop
   vertex 3.72224 57.9566 367.587
   vertex 2.84594 58.6094 367.929
   vertex 3.64974 58.3768 367.605
  endloop
 endfacet
 facet normal -0.473058 -0.400822 -0.784575
  outer loop
   vertex 28.4859 42.1617 357.161
   vertex 26.3977 42.5475 358.223
   vertex 27.6272 43.2515 357.122
  endloop
 endfacet
 facet normal -0.459095 -0.103225 -0.88237
  outer loop
   vertex 25.1422 46.5638 357.225
   vertex 24.5033 47.3111 357.47
   vertex 25.9506 46.6015 356.8
  endloop
 endfacet
 facet normal -0.510469 -0.163148 -0.844278
  outer loop
   vertex 5.05141 56.2238 367.125
   vertex 4.69739 54.4956 367.673
   vertex 4.3967 57.4702 367.28
  endloop
 endfacet
 facet normal -0.579328 -0.224406 -0.783595
  outer loop
   vertex 4.64232 53.3458 368.043
   vertex 4.69739 54.4956 367.673
   vertex 5.44759 53.0512 367.532
  endloop
 endfacet
 facet normal -0.421149 -0.0115507 -0.906918
  outer loop
   vertex 4.50532 57.9067 367.224
   vertex 4.3967 57.4702 367.28
   vertex 3.72224 57.9566 367.587
  endloop
 endfacet
 facet normal -0.405155 -0.199894 -0.892128
  outer loop
   vertex 4.69739 54.4956 367.673
   vertex 5.05141 56.2238 367.125
   vertex 6.33757 56.866 366.397
  endloop
 endfacet
 facet normal -0.521986 -0.189944 -0.831536
  outer loop
   vertex 6.09405 53.2009 367.092
   vertex 5.44759 53.0512 367.532
   vertex 4.69739 54.4956 367.673
  endloop
 endfacet
 facet normal -0.482632 -0.132113 -0.865802
  outer loop
   vertex 6.33757 56.866 366.397
   vertex 6.09405 53.2009 367.092
   vertex 4.69739 54.4956 367.673
  endloop
 endfacet
 facet normal -0.50498 -0.159775 -0.848214
  outer loop
   vertex 5.05141 56.2238 367.125
   vertex 4.3967 57.4702 367.28
   vertex 4.98187 57.224 366.978
  endloop
 endfacet
 facet normal -0.475003 -0.160199 -0.865279
  outer loop
   vertex 4.98187 57.224 366.978
   vertex 5.56154 56.9528 366.71
   vertex 5.05141 56.2238 367.125
  endloop
 endfacet
 facet normal -0.390629 -0.0208638 -0.920312
  outer loop
   vertex 5.18797 57.5653 366.942
   vertex 4.3967 57.4702 367.28
   vertex 4.50532 57.9067 367.224
  endloop
 endfacet
 facet normal -0.403516 0.148409 -0.902856
  outer loop
   vertex 5.18797 57.5653 366.942
   vertex 4.98187 57.224 366.978
   vertex 4.3967 57.4702 367.28
  endloop
 endfacet
 facet normal -0.271492 -0.00414841 -0.962432
  outer loop
   vertex 5.56154 56.9528 366.71
   vertex 5.37886 57.304 366.76
   vertex 5.86278 57.1899 366.624
  endloop
 endfacet
 facet normal -0.386071 -0.237312 -0.891421
  outer loop
   vertex 5.05141 56.2238 367.125
   vertex 5.56154 56.9528 366.71
   vertex 6.33757 56.866 366.397
  endloop
 endfacet
 facet normal -0.535329 -0.122895 -0.835655
  outer loop
   vertex 6.33757 56.866 366.397
   vertex 7.79634 55.6795 365.637
   vertex 6.09405 53.2009 367.092
  endloop
 endfacet
 facet normal -0.359585 0.121282 -0.925197
  outer loop
   vertex 6.33757 56.866 366.397
   vertex 5.56154 56.9528 366.71
   vertex 5.86278 57.1899 366.624
  endloop
 endfacet
 facet normal -0.491746 -0.164247 -0.855107
  outer loop
   vertex 7.22858 52.2303 366.626
   vertex 6.09405 53.2009 367.092
   vertex 7.79634 55.6795 365.637
  endloop
 endfacet
 facet normal -0.502181 -0.161479 -0.849552
  outer loop
   vertex 8.50222 51.4839 366.015
   vertex 7.22858 52.2303 366.626
   vertex 9.52417 54.8137 364.778
  endloop
 endfacet
 facet normal -0.513079 -0.156083 -0.844031
  outer loop
   vertex 9.33184 51.0658 365.588
   vertex 8.50222 51.4839 366.015
   vertex 9.52417 54.8137 364.778
  endloop
 endfacet
 facet normal -0.537212 -0.240248 -0.808507
  outer loop
   vertex 9.33184 51.0658 365.588
   vertex 9.5148 50.5659 365.615
   vertex 8.50222 51.4839 366.015
  endloop
 endfacet
 facet normal -0.456065 -0.425718 -0.781517
  outer loop
   vertex 25.2092 43.5931 358.347
   vertex 27.6272 43.2515 357.122
   vertex 26.3977 42.5475 358.223
  endloop
 endfacet
 facet normal -0.500241 -0.161578 -0.850677
  outer loop
   vertex 7.22858 52.2303 366.626
   vertex 7.79634 55.6795 365.637
   vertex 8.5673 54.9668 365.319
  endloop
 endfacet
 facet normal -0.50502 -0.158194 -0.848487
  outer loop
   vertex 7.22858 52.2303 366.626
   vertex 8.5673 54.9668 365.319
   vertex 9.52417 54.8137 364.778
  endloop
 endfacet
 facet normal -0.381205 0.000122988 -0.92449
  outer loop
   vertex 8.4463 55.6765 365.369
   vertex 8.5673 54.9668 365.319
   vertex 7.79634 55.6795 365.637
  endloop
 endfacet
 facet normal -0.489285 -0.160169 -0.85729
  outer loop
   vertex 10.4247 50.4197 365.085
   vertex 9.33184 51.0658 365.588
   vertex 9.52417 54.8137 364.778
  endloop
 endfacet
 facet normal -0.499005 -0.0653143 -0.864134
  outer loop
   vertex 8.5673 54.9668 365.319
   vertex 9.22285 55.1713 364.925
   vertex 9.52417 54.8137 364.778
  endloop
 endfacet
 facet normal -0.55471 -0.586607 -0.590075
  outer loop
   vertex 11.399 49.5785 364.696
   vertex 11.404 49.3917 364.877
   vertex 10.8978 49.7004 365.046
  endloop
 endfacet
 facet normal -0.592034 -0.350034 -0.725928
  outer loop
   vertex 10.4247 50.4197 365.085
   vertex 11.399 49.5785 364.696
   vertex 10.8978 49.7004 365.046
  endloop
 endfacet
 facet normal -0.527647 -0.166336 -0.833019
  outer loop
   vertex 10.4247 50.4197 365.085
   vertex 9.52417 54.8137 364.778
   vertex 11.1175 52.4387 364.243
  endloop
 endfacet
 facet normal -0.395017 0.0779962 -0.915357
  outer loop
   vertex 10.5766 54.4868 364.296
   vertex 9.52417 54.8137 364.778
   vertex 10.1475 54.6842 364.498
  endloop
 endfacet
 facet normal -0.43826 -0.0926169 -0.894064
  outer loop
   vertex 11.1175 52.4387 364.243
   vertex 9.52417 54.8137 364.778
   vertex 10.5766 54.4868 364.296
  endloop
 endfacet
 facet normal -0.56488 -0.581964 -0.585003
  outer loop
   vertex 11.399 49.5785 364.696
   vertex 12.0117 49.2904 364.391
   vertex 11.404 49.3917 364.877
  endloop
 endfacet
 facet normal -0.496872 -0.18325 -0.848256
  outer loop
   vertex 10.4247 50.4197 365.085
   vertex 11.1175 52.4387 364.243
   vertex 11.399 49.5785 364.696
  endloop
 endfacet
 facet normal -0.595766 -0.478264 -0.645234
  outer loop
   vertex 12.4515 48.868 364.298
   vertex 11.404 49.3917 364.877
   vertex 12.0117 49.2904 364.391
  endloop
 endfacet
 facet normal -0.538424 -0.0195451 -0.842447
  outer loop
   vertex 11.0238 53.7613 364.027
   vertex 10.5766 54.4868 364.296
   vertex 10.936 54.1977 364.073
  endloop
 endfacet
 facet normal -0.690072 -0.164013 -0.704911
  outer loop
   vertex 11.1175 52.4387 364.243
   vertex 10.5766 54.4868 364.296
   vertex 11.0238 53.7613 364.027
  endloop
 endfacet
 facet normal -0.567815 -0.196776 -0.79929
  outer loop
   vertex 12.7295 51.5631 363.437
   vertex 13.0012 48.6425 363.963
   vertex 12.4515 48.868 364.298
  endloop
 endfacet
 facet normal -0.414256 -0.237924 -0.878512
  outer loop
   vertex 12.0117 49.2904 364.391
   vertex 12.7295 51.5631 363.437
   vertex 12.4515 48.868 364.298
  endloop
 endfacet
 facet normal -0.553477 -0.715206 -0.426783
  outer loop
   vertex 13.0012 48.6425 363.963
   vertex 13.21 48.4308 364.047
   vertex 12.4515 48.868 364.298
  endloop
 endfacet
 facet normal -0.508209 -0.191908 -0.83958
  outer loop
   vertex 12.0117 49.2904 364.391
   vertex 11.399 49.5785 364.696
   vertex 12.7295 51.5631 363.437
  endloop
 endfacet
 facet normal -0.517484 -0.18331 -0.835828
  outer loop
   vertex 11.1175 52.4387 364.243
   vertex 12.7295 51.5631 363.437
   vertex 11.399 49.5785 364.696
  endloop
 endfacet
 facet normal -0.437698 0.00669006 -0.899097
  outer loop
   vertex 11.4495 53.9287 363.821
   vertex 11.0238 53.7613 364.027
   vertex 10.936 54.1977 364.073
  endloop
 endfacet
 facet normal -0.437984 0.00759857 -0.89895
  outer loop
   vertex 11.549 53.5118 363.769
   vertex 11.0238 53.7613 364.027
   vertex 11.4495 53.9287 363.821
  endloop
 endfacet
 facet normal -0.499535 -0.173988 -0.848642
  outer loop
   vertex 11.1175 52.4387 364.243
   vertex 11.0238 53.7613 364.027
   vertex 11.549 53.5118 363.769
  endloop
 endfacet
 facet normal -0.583503 -0.196211 -0.788051
  outer loop
   vertex 13.0012 48.6425 363.963
   vertex 12.7295 51.5631 363.437
   vertex 13.4697 48.7354 363.593
  endloop
 endfacet
 facet normal -0.456811 -0.199259 -0.86696
  outer loop
   vertex 11.549 53.5118 363.769
   vertex 12.3206 53.1178 363.453
   vertex 11.1175 52.4387 364.243
  endloop
 endfacet
 facet normal -0.495946 -0.121595 -0.859798
  outer loop
   vertex 12.7295 51.5631 363.437
   vertex 11.1175 52.4387 364.243
   vertex 12.3206 53.1178 363.453
  endloop
 endfacet
 facet normal -0.319644 0.0417879 -0.946616
  outer loop
   vertex 11.4495 53.9287 363.821
   vertex 11.9966 53.6961 363.626
   vertex 11.549 53.5118 363.769
  endloop
 endfacet
 facet normal -0.337046 0.0914889 -0.937032
  outer loop
   vertex 12.3206 53.1178 363.453
   vertex 11.549 53.5118 363.769
   vertex 11.9966 53.6961 363.626
  endloop
 endfacet
 facet normal -0.504052 -0.178556 -0.845014
  outer loop
   vertex 13.4697 48.7354 363.593
   vertex 12.7295 51.5631 363.437
   vertex 15.9037 47.5528 362.391
  endloop
 endfacet
 facet normal -0.555592 -0.137692 -0.819975
  outer loop
   vertex 12.7295 51.5631 363.437
   vertex 12.3206 53.1178 363.453
   vertex 13.0262 52.7183 363.042
  endloop
 endfacet
 facet normal -0.544529 -0.105727 -0.832052
  outer loop
   vertex 12.7716 53.1717 363.151
   vertex 13.0262 52.7183 363.042
   vertex 12.3206 53.1178 363.453
  endloop
 endfacet
 facet normal -0.258899 0.085926 -0.962075
  outer loop
   vertex 13.2165 53.0566 363.021
   vertex 13.0262 52.7183 363.042
   vertex 12.7716 53.1717 363.151
  endloop
 endfacet
 facet normal -0.397556 0.167643 -0.902134
  outer loop
   vertex 13.865 52.711 362.671
   vertex 13.0262 52.7183 363.042
   vertex 13.2165 53.0566 363.021
  endloop
 endfacet
 facet normal -0.397492 -0.203843 -0.894678
  outer loop
   vertex 12.7295 51.5631 363.437
   vertex 13.0262 52.7183 363.042
   vertex 13.865 52.711 362.671
  endloop
 endfacet
 facet normal -0.498703 -0.173205 -0.849291
  outer loop
   vertex 12.7295 51.5631 363.437
   vertex 14.8151 51.8934 362.145
   vertex 15.9037 47.5528 362.391
  endloop
 endfacet
 facet normal -0.519507 -0.0551239 -0.852686
  outer loop
   vertex 14.8151 51.8934 362.145
   vertex 12.7295 51.5631 363.437
   vertex 13.865 52.711 362.671
  endloop
 endfacet
 facet normal -0.516537 -0.177025 -0.837766
  outer loop
   vertex 15.9037 47.5528 362.391
   vertex 14.8151 51.8934 362.145
   vertex 15.5733 51.2664 361.81
  endloop
 endfacet
 facet normal -0.508947 -0.2873 -0.811438
  outer loop
   vertex 17.4254 46.9161 361.662
   vertex 16.6585 46.8398 362.17
   vertex 15.9037 47.5528 362.391
  endloop
 endfacet
 facet normal -0.492083 -0.208258 -0.845271
  outer loop
   vertex 15.9037 47.5528 362.391
   vertex 16.7534 48.5567 361.649
   vertex 17.4254 46.9161 361.662
  endloop
 endfacet
 facet normal -0.490726 -0.13747 -0.860401
  outer loop
   vertex 24.5033 47.3111 357.47
   vertex 25.1422 46.5638 357.225
   vertex 24.0368 46.9861 357.788
  endloop
 endfacet
 facet normal -0.480652 -0.116897 -0.869085
  outer loop
   vertex 14.8151 51.8934 362.145
   vertex 15.2916 51.7928 361.895
   vertex 15.5733 51.2664 361.81
  endloop
 endfacet
 facet normal -0.335234 -0.0273476 -0.941738
  outer loop
   vertex 15.7417 51.6465 361.739
   vertex 15.5733 51.2664 361.81
   vertex 15.2916 51.7928 361.895
  endloop
 endfacet
 facet normal -0.48573 0.0522497 -0.872546
  outer loop
   vertex 15.5733 51.2664 361.81
   vertex 15.7417 51.6465 361.739
   vertex 16.1445 51.3497 361.497
  endloop
 endfacet
 facet normal -0.506858 -0.177084 -0.843645
  outer loop
   vertex 16.9236 50.4839 361.163
   vertex 15.9037 47.5528 362.391
   vertex 15.5733 51.2664 361.81
  endloop
 endfacet
 facet normal -0.469486 -0.083366 -0.878995
  outer loop
   vertex 16.9236 50.4839 361.163
   vertex 15.5733 51.2664 361.81
   vertex 16.1445 51.3497 361.497
  endloop
 endfacet
 facet normal -0.499766 -0.67725 -0.539969
  outer loop
   vertex 18.0169 46.1327 361.655
   vertex 18.4552 46.0373 361.369
   vertex 18.6351 45.7379 361.578
  endloop
 endfacet
 facet normal -0.558782 -0.415502 -0.717719
  outer loop
   vertex 17.4254 46.9161 361.662
   vertex 18.4552 46.0373 361.369
   vertex 18.0169 46.1327 361.655
  endloop
 endfacet
 facet normal -0.533284 -0.162267 -0.830227
  outer loop
   vertex 16.9236 50.4839 361.163
   vertex 16.7534 48.5567 361.649
   vertex 15.9037 47.5528 362.391
  endloop
 endfacet
 facet normal -0.61108 -0.665923 -0.427935
  outer loop
   vertex 18.4552 46.0373 361.369
   vertex 19.0506 45.5462 361.283
   vertex 18.6351 45.7379 361.578
  endloop
 endfacet
 facet normal -0.496619 -0.311892 -0.809996
  outer loop
   vertex 18.4552 46.0373 361.369
   vertex 17.4254 46.9161 361.662
   vertex 19.0114 46.5774 360.82
  endloop
 endfacet
 facet normal -0.526175 -0.275782 -0.804415
  outer loop
   vertex 18.4552 46.0373 361.369
   vertex 19.0114 46.5774 360.82
   vertex 19.0366 45.771 361.08
  endloop
 endfacet
 facet normal -0.559916 -0.574238 -0.597282
  outer loop
   vertex 18.4552 46.0373 361.369
   vertex 19.0366 45.771 361.08
   vertex 19.0506 45.5462 361.283
  endloop
 endfacet
 facet normal -0.489411 -0.207178 -0.847085
  outer loop
   vertex 16.7534 48.5567 361.649
   vertex 18.7873 49.7174 360.19
   vertex 17.4254 46.9161 361.662
  endloop
 endfacet
 facet normal -0.493135 -0.211277 -0.843907
  outer loop
   vertex 19.6436 49.1361 359.81
   vertex 19.0114 46.5774 360.82
   vertex 17.4254 46.9161 361.662
  endloop
 endfacet
 facet normal -0.594963 -0.558777 -0.577744
  outer loop
   vertex 19.0366 45.771 361.08
   vertex 19.4417 45.4141 361.008
   vertex 19.0506 45.5462 361.283
  endloop
 endfacet
 facet normal -0.509591 -0.167806 -0.843895
  outer loop
   vertex 16.7534 48.5567 361.649
   vertex 16.9236 50.4839 361.163
   vertex 18.7873 49.7174 360.19
  endloop
 endfacet
 facet normal -0.512531 -0.432071 -0.742042
  outer loop
   vertex 19.0366 45.771 361.08
   vertex 19.6168 45.6598 360.744
   vertex 19.4417 45.4141 361.008
  endloop
 endfacet
 facet normal -0.508996 -0.165267 -0.844754
  outer loop
   vertex 18.7873 49.7174 360.19
   vertex 16.9236 50.4839 361.163
   vertex 18.0299 50.169 360.558
  endloop
 endfacet
 facet normal -0.520737 -0.276654 -0.807648
  outer loop
   vertex 19.0366 45.771 361.08
   vertex 19.0114 46.5774 360.82
   vertex 19.6168 45.6598 360.744
  endloop
 endfacet
 facet normal -0.505697 -0.195659 -0.840231
  outer loop
   vertex 17.4254 46.9161 361.662
   vertex 18.7873 49.7174 360.19
   vertex 19.6436 49.1361 359.81
  endloop
 endfacet
 facet normal -0.486841 -0.251911 -0.836377
  outer loop
   vertex 19.0114 46.5774 360.82
   vertex 20.6043 45.7766 360.134
   vertex 19.6168 45.6598 360.744
  endloop
 endfacet
 facet normal -0.351188 0.162436 -0.922107
  outer loop
   vertex 18.7873 49.7174 360.19
   vertex 18.0299 50.169 360.558
   vertex 18.7903 50.1213 360.26
  endloop
 endfacet
 facet normal -0.476548 -0.218407 -0.851587
  outer loop
   vertex 20.6043 45.7766 360.134
   vertex 19.0114 46.5774 360.82
   vertex 19.6436 49.1361 359.81
  endloop
 endfacet
 facet normal -0.52985 -0.333773 -0.77965
  outer loop
   vertex 20.1175 45.1946 360.714
   vertex 20.6043 45.7766 360.134
   vertex 21.0227 44.8905 360.229
  endloop
 endfacet
 facet normal -0.508942 -0.509845 -0.693568
  outer loop
   vertex 21.0227 44.8905 360.229
   vertex 22.0565 44.3061 359.9
   vertex 21.2697 44.5147 360.324
  endloop
 endfacet
 facet normal -0.460157 -0.740742 -0.489446
  outer loop
   vertex 21.2697 44.5147 360.324
   vertex 22.0565 44.3061 359.9
   vertex 21.7761 44.2761 360.209
  endloop
 endfacet
 facet normal -0.427516 0.15747 -0.890187
  outer loop
   vertex 18.7903 50.1213 360.26
   vertex 19.4249 49.6846 359.878
   vertex 18.7873 49.7174 360.19
  endloop
 endfacet
 facet normal -0.441313 -0.0650171 -0.894995
  outer loop
   vertex 18.7873 49.7174 360.19
   vertex 19.4249 49.6846 359.878
   vertex 19.6436 49.1361 359.81
  endloop
 endfacet
 facet normal -0.493888 -0.319891 -0.808544
  outer loop
   vertex 21.0227 44.8905 360.229
   vertex 20.6043 45.7766 360.134
   vertex 21.9549 45.1321 359.564
  endloop
 endfacet
 facet normal -0.523821 -0.37546 -0.764619
  outer loop
   vertex 22.0565 44.3061 359.9
   vertex 21.9549 45.1321 359.564
   vertex 22.692 44.566 359.337
  endloop
 endfacet
 facet normal -0.469193 -0.381655 -0.796365
  outer loop
   vertex 21.0227 44.8905 360.229
   vertex 21.9549 45.1321 359.564
   vertex 22.0565 44.3061 359.9
  endloop
 endfacet
 facet normal -0.43767 -0.063328 -0.896903
  outer loop
   vertex 19.6436 49.1361 359.81
   vertex 19.4249 49.6846 359.878
   vertex 20.3597 49.2716 359.451
  endloop
 endfacet
 facet normal -0.476345 -0.253648 -0.841877
  outer loop
   vertex 22.4765 47.933 358.425
   vertex 21.9549 45.1321 359.564
   vertex 20.6043 45.7766 360.134
  endloop
 endfacet
 facet normal -0.452763 0.0319201 -0.891059
  outer loop
   vertex 19.6436 49.1361 359.81
   vertex 20.3597 49.2716 359.451
   vertex 20.73 48.9696 359.252
  endloop
 endfacet
 facet normal -0.472102 -0.217399 -0.854317
  outer loop
   vertex 19.6436 49.1361 359.81
   vertex 20.73 48.9696 359.252
   vertex 20.6043 45.7766 360.134
  endloop
 endfacet
 facet normal -0.458595 -0.449339 -0.766672
  outer loop
   vertex 22.937 43.9372 359.559
   vertex 22.692 44.566 359.337
   vertex 23.6523 44.2974 358.92
  endloop
 endfacet
 facet normal -0.502846 -0.224881 -0.83461
  outer loop
   vertex 21.6272 48.2881 358.841
   vertex 22.4765 47.933 358.425
   vertex 20.6043 45.7766 360.134
  endloop
 endfacet
 facet normal -0.493271 -0.213513 -0.843265
  outer loop
   vertex 20.73 48.9696 359.252
   vertex 21.2697 48.7141 359.001
   vertex 20.6043 45.7766 360.134
  endloop
 endfacet
 facet normal -0.460627 -0.259407 -0.848841
  outer loop
   vertex 22.4765 47.933 358.425
   vertex 22.692 44.566 359.337
   vertex 21.9549 45.1321 359.564
  endloop
 endfacet
 facet normal -0.506508 -0.435176 -0.74436
  outer loop
   vertex 23.6423 43.6163 359.325
   vertex 23.6523 44.2974 358.92
   vertex 24.2203 43.532 358.981
  endloop
 endfacet
 facet normal -0.571859 -0.179229 -0.800533
  outer loop
   vertex 21.2697 48.7141 359.001
   vertex 21.6272 48.2881 358.841
   vertex 20.6043 45.7766 360.134
  endloop
 endfacet
 facet normal -0.431974 -0.0238877 -0.90157
  outer loop
   vertex 21.2697 48.7141 359.001
   vertex 21.7154 48.5809 358.791
   vertex 21.6272 48.2881 358.841
  endloop
 endfacet
 facet normal -0.473266 -0.413188 -0.778007
  outer loop
   vertex 24.2203 43.532 358.981
   vertex 23.6523 44.2974 358.92
   vertex 25.2092 43.5931 358.347
  endloop
 endfacet
 facet normal -0.441305 -0.511089 -0.737589
  outer loop
   vertex 24.2203 43.532 358.981
   vertex 25.2092 43.5931 358.347
   vertex 24.9487 43.082 358.857
  endloop
 endfacet
 facet normal -0.388691 -0.0401587 -0.920493
  outer loop
   vertex 22.2033 48.3508 358.595
   vertex 21.6272 48.2881 358.841
   vertex 21.7154 48.5809 358.791
  endloop
 endfacet
 facet normal -0.400352 0.108479 -0.909918
  outer loop
   vertex 22.4765 47.933 358.425
   vertex 21.6272 48.2881 358.841
   vertex 22.2033 48.3508 358.595
  endloop
 endfacet
 facet normal -0.451659 -0.32461 -0.831043
  outer loop
   vertex 22.692 44.566 359.337
   vertex 25.1422 46.5638 357.225
   vertex 23.6523 44.2974 358.92
  endloop
 endfacet
 facet normal -0.452386 -0.324011 -0.830881
  outer loop
   vertex 25.1422 46.5638 357.225
   vertex 25.2092 43.5931 358.347
   vertex 23.6523 44.2974 358.92
  endloop
 endfacet
 facet normal -0.598849 -0.391777 -0.698492
  outer loop
   vertex 24.9487 43.082 358.857
   vertex 25.2092 43.5931 358.347
   vertex 25.4306 42.9569 358.514
  endloop
 endfacet
 facet normal -0.49469 -0.256574 -0.830332
  outer loop
   vertex 24.0368 46.9861 357.788
   vertex 22.692 44.566 359.337
   vertex 22.4765 47.933 358.425
  endloop
 endfacet
 facet normal -0.512279 -0.242639 -0.823831
  outer loop
   vertex 24.0368 46.9861 357.788
   vertex 25.1422 46.5638 357.225
   vertex 22.692 44.566 359.337
  endloop
 endfacet
 facet normal -0.5227 -0.311505 -0.793567
  outer loop
   vertex 25.1422 46.5638 357.225
   vertex 25.8509 46.358 356.839
   vertex 25.2092 43.5931 358.347
  endloop
 endfacet
 facet normal -0.456072 -0.556189 -0.694732
  outer loop
   vertex 27.7263 42.0239 357.77
   vertex 26.3977 42.5475 358.223
   vertex 28.4859 42.1617 357.161
  endloop
 endfacet
endsolid
