solid ascii
 facet normal 0.410221 0.19143 0.891669
  outer loop
   vertex 33.7177 53.8425 425.402
   vertex 33.6353 53.3298 425.55
   vertex 33.9172 52.926 425.507
  endloop
 endfacet
 facet normal 0.422704 0.187951 0.886564
  outer loop
   vertex 33.4531 53.6735 425.564
   vertex 33.6353 53.3298 425.55
   vertex 33.7177 53.8425 425.402
  endloop
 endfacet
 facet normal 0.620923 0.23172 0.748839
  outer loop
   vertex 34.5155 52.4294 425.222
   vertex 34.4585 51.7903 425.467
   vertex 34.841 51.5701 425.218
  endloop
 endfacet
 facet normal 0.621952 0.221417 0.7511
  outer loop
   vertex 33.9172 52.926 425.507
   vertex 34.1891 53.3393 425.16
   vertex 33.7177 53.8425 425.402
  endloop
 endfacet
 facet normal 0.721291 0.289735 0.629121
  outer loop
   vertex 33.5167 54.61 425.279
   vertex 33.7177 53.8425 425.402
   vertex 34.5333 54.003 424.393
  endloop
 endfacet
 facet normal 0.698422 0.355571 0.621109
  outer loop
   vertex 34.1891 53.3393 425.16
   vertex 34.5333 54.003 424.393
   vertex 33.7177 53.8425 425.402
  endloop
 endfacet
 facet normal 0.714399 0.337729 0.61284
  outer loop
   vertex 34.1891 53.3393 425.16
   vertex 34.6875 53.0417 424.743
   vertex 34.5333 54.003 424.393
  endloop
 endfacet
 facet normal 0.725687 0.285611 0.625943
  outer loop
   vertex 35.4551 52.1904 424.223
   vertex 34.841 51.5701 425.218
   vertex 35.2481 51.1691 424.929
  endloop
 endfacet
 facet normal 0.732353 0.274513 0.623138
  outer loop
   vertex 34.841 51.5701 425.218
   vertex 35.4551 52.1904 424.223
   vertex 34.5155 52.4294 425.222
  endloop
 endfacet
 facet normal 0.723681 0.317967 0.612522
  outer loop
   vertex 33.8005 54.9947 424.744
   vertex 33.5167 54.61 425.279
   vertex 34.5333 54.003 424.393
  endloop
 endfacet
 facet normal 0.818724 -0.0751044 0.569254
  outer loop
   vertex 35.5536 51.0661 424.476
   vertex 35.7042 51.3586 424.298
   vertex 35.2481 51.1691 424.929
  endloop
 endfacet
 facet normal 0.863249 -0.0419872 0.503028
  outer loop
   vertex 35.1627 50.8871 425.052
   vertex 35.2962 50.9003 424.824
   vertex 35.2481 51.1691 424.929
  endloop
 endfacet
 facet normal 0.818593 -0.0758761 0.56934
  outer loop
   vertex 35.2962 50.9003 424.824
   vertex 35.5536 51.0661 424.476
   vertex 35.2481 51.1691 424.929
  endloop
 endfacet
 facet normal 0.737533 0.276434 0.61614
  outer loop
   vertex 35.7042 51.3586 424.298
   vertex 35.4551 52.1904 424.223
   vertex 35.2481 51.1691 424.929
  endloop
 endfacet
 facet normal 0.731781 0.280372 0.621199
  outer loop
   vertex 35.4551 52.1904 424.223
   vertex 34.6875 53.0417 424.743
   vertex 34.5155 52.4294 425.222
  endloop
 endfacet
 facet normal 0.765667 0.382831 0.516909
  outer loop
   vertex 34.5333 54.003 424.393
   vertex 34.3111 55.2184 423.822
   vertex 33.8005 54.9947 424.744
  endloop
 endfacet
 facet normal 0.665047 0.552573 0.502369
  outer loop
   vertex 33.8288 55.3461 424.32
   vertex 33.8005 54.9947 424.744
   vertex 34.3111 55.2184 423.822
  endloop
 endfacet
 facet normal 0.836718 -0.103537 0.537757
  outer loop
   vertex 35.7042 51.3586 424.298
   vertex 35.5536 51.0661 424.476
   vertex 35.8765 51.2552 424.01
  endloop
 endfacet
 facet normal 0.751803 0.328717 0.571609
  outer loop
   vertex 35.4551 52.1904 424.223
   vertex 34.5333 54.003 424.393
   vertex 34.6875 53.0417 424.743
  endloop
 endfacet
 facet normal 0.777908 0.283532 0.560775
  outer loop
   vertex 35.4551 52.1904 424.223
   vertex 35.7042 51.3586 424.298
   vertex 36.1313 51.5594 423.604
  endloop
 endfacet
 facet normal 0.854333 -0.0225967 0.519235
  outer loop
   vertex 35.8765 51.2552 424.01
   vertex 36.1313 51.5594 423.604
   vertex 35.7042 51.3586 424.298
  endloop
 endfacet
 facet normal 0.670687 0.622487 0.403348
  outer loop
   vertex 34.3292 55.7503 422.971
   vertex 34.3111 55.2184 423.822
   vertex 34.673 55.3922 422.952
  endloop
 endfacet
 facet normal 0.753876 0.330104 0.568069
  outer loop
   vertex 35.4551 52.1904 424.223
   vertex 35.9564 53.1278 423.013
   vertex 34.5333 54.003 424.393
  endloop
 endfacet
 facet normal 0.771433 0.480688 0.416929
  outer loop
   vertex 34.673 55.3922 422.952
   vertex 34.3111 55.2184 423.822
   vertex 35.1716 54.4836 423.077
  endloop
 endfacet
 facet normal 0.769361 0.381412 0.512453
  outer loop
   vertex 34.5333 54.003 424.393
   vertex 35.1716 54.4836 423.077
   vertex 34.3111 55.2184 423.822
  endloop
 endfacet
 facet normal 0.767546 0.239133 0.594717
  outer loop
   vertex 35.4551 52.1904 424.223
   vertex 36.1313 51.5594 423.604
   vertex 36.464 52.0509 422.977
  endloop
 endfacet
 facet normal 0.809221 0.169754 0.562445
  outer loop
   vertex 36.4342 51.6794 423.132
   vertex 36.464 52.0509 422.977
   vertex 36.1313 51.5594 423.604
  endloop
 endfacet
 facet normal 0.750346 0.334613 0.5701
  outer loop
   vertex 35.9564 53.1278 423.013
   vertex 35.4551 52.1904 424.223
   vertex 36.464 52.0509 422.977
  endloop
 endfacet
 facet normal 0.752198 0.411101 0.51497
  outer loop
   vertex 35.9564 53.1278 423.013
   vertex 35.1716 54.4836 423.077
   vertex 34.5333 54.003 424.393
  endloop
 endfacet
 facet normal 0.887855 0.114695 0.4456
  outer loop
   vertex 36.4342 51.6794 423.132
   vertex 36.5774 51.7519 422.828
   vertex 36.464 52.0509 422.977
  endloop
 endfacet
 facet normal 0.815379 0.489885 0.308496
  outer loop
   vertex 35.1716 54.4836 423.077
   vertex 35.4183 55.141 421.381
   vertex 34.673 55.3922 422.952
  endloop
 endfacet
 facet normal 0.76883 0.344372 0.538802
  outer loop
   vertex 36.9041 52.5672 422.019
   vertex 35.9564 53.1278 423.013
   vertex 36.464 52.0509 422.977
  endloop
 endfacet
 facet normal 0.805031 0.447614 0.389316
  outer loop
   vertex 36.0172 54.337 421.497
   vertex 35.1716 54.4836 423.077
   vertex 35.9564 53.1278 423.013
  endloop
 endfacet
 facet normal 0.696674 0.653091 0.296845
  outer loop
   vertex 34.673 55.3922 422.952
   vertex 34.6029 55.7715 422.282
   vertex 34.3292 55.7503 422.971
  endloop
 endfacet
 facet normal 0.842333 0.206043 0.498017
  outer loop
   vertex 36.8593 52.0035 422.328
   vertex 36.9041 52.5672 422.019
   vertex 36.464 52.0509 422.977
  endloop
 endfacet
 facet normal 0.854288 0.0671633 0.515442
  outer loop
   vertex 36.464 52.0509 422.977
   vertex 36.5774 51.7519 422.828
   vertex 36.8593 52.0035 422.328
  endloop
 endfacet
 facet normal 0.749386 0.50266 0.430991
  outer loop
   vertex 36.9041 52.5672 422.019
   vertex 36.0172 54.337 421.497
   vertex 35.9564 53.1278 423.013
  endloop
 endfacet
 facet normal 0.731337 0.593304 0.336358
  outer loop
   vertex 36.0172 54.337 421.497
   vertex 35.4183 55.141 421.381
   vertex 35.1716 54.4836 423.077
  endloop
 endfacet
 facet normal 0.754549 0.601786 0.261744
  outer loop
   vertex 35.4183 55.141 421.381
   vertex 34.6029 55.7715 422.282
   vertex 34.673 55.3922 422.952
  endloop
 endfacet
 facet normal 0.801484 0.237212 0.548957
  outer loop
   vertex 36.8593 52.0035 422.328
   vertex 37.1333 52.2649 421.815
   vertex 36.9041 52.5672 422.019
  endloop
 endfacet
 facet normal 0.738008 0.637241 0.221965
  outer loop
   vertex 35.4183 55.141 421.381
   vertex 34.7724 55.8152 421.593
   vertex 34.6029 55.7715 422.282
  endloop
 endfacet
 facet normal 0.810755 0.261146 0.523908
  outer loop
   vertex 37.1333 52.2649 421.815
   vertex 37.3989 52.5096 421.282
   vertex 36.9041 52.5672 422.019
  endloop
 endfacet
 facet normal 0.6288 0.547986 0.551654
  outer loop
   vertex 36.2484 54.7321 420.841
   vertex 35.4183 55.141 421.381
   vertex 36.0172 54.337 421.497
  endloop
 endfacet
 facet normal 0.668734 0.50881 0.542133
  outer loop
   vertex 36.7184 53.8363 421.102
   vertex 36.2484 54.7321 420.841
   vertex 36.0172 54.337 421.497
  endloop
 endfacet
 facet normal 0.603644 0.380468 0.700613
  outer loop
   vertex 35.6538 55.48 420.816
   vertex 35.5374 56.7622 420.22
   vertex 35.0865 55.8829 421.086
  endloop
 endfacet
 facet normal 0.630764 0.520702 0.575331
  outer loop
   vertex 36.2484 54.7321 420.841
   vertex 35.6538 55.48 420.816
   vertex 35.4183 55.141 421.381
  endloop
 endfacet
 facet normal 0.543883 0.393821 0.74101
  outer loop
   vertex 35.5374 56.7622 420.22
   vertex 35.6538 55.48 420.816
   vertex 36.385 55.7384 420.142
  endloop
 endfacet
 facet normal 0.520535 0.438327 0.732743
  outer loop
   vertex 36.2484 54.7321 420.841
   vertex 36.385 55.7384 420.142
   vertex 35.6538 55.48 420.816
  endloop
 endfacet
 facet normal 0.758042 0.147786 0.635242
  outer loop
   vertex 38.4899 53.3388 419.457
   vertex 38.6774 53.5032 419.195
   vertex 38.2125 53.5753 419.733
  endloop
 endfacet
 facet normal 0.609724 0.306907 0.730783
  outer loop
   vertex 37.1339 57.5375 418.924
   vertex 36.2484 54.7321 420.841
   vertex 38.3773 55.0935 418.913
  endloop
 endfacet
 facet normal 0.60314 0.327386 0.727352
  outer loop
   vertex 38.2125 53.5753 419.733
   vertex 38.3773 55.0935 418.913
   vertex 36.2484 54.7321 420.841
  endloop
 endfacet
 facet normal 0.676988 0.291524 0.675796
  outer loop
   vertex 38.3773 55.0935 418.913
   vertex 38.2125 53.5753 419.733
   vertex 38.8296 53.962 418.948
  endloop
 endfacet
 facet normal 0.759482 0.094561 0.643619
  outer loop
   vertex 38.6774 53.5032 419.195
   vertex 38.8296 53.962 418.948
   vertex 38.2125 53.5753 419.733
  endloop
 endfacet
 facet normal 0.827944 0.0269195 0.560165
  outer loop
   vertex 38.9132 53.6382 418.84
   vertex 38.8296 53.962 418.948
   vertex 38.6774 53.5032 419.195
  endloop
 endfacet
 facet normal 0.629394 0.274087 0.727145
  outer loop
   vertex 38.8296 53.962 418.948
   vertex 39.3093 54.4257 418.358
   vertex 38.3773 55.0935 418.913
  endloop
 endfacet
 facet normal 0.763612 -0.0181263 0.645421
  outer loop
   vertex 38.9132 53.6382 418.84
   vertex 39.1208 53.8385 418.6
   vertex 38.8296 53.962 418.948
  endloop
 endfacet
 facet normal 0.553486 0.278051 0.785074
  outer loop
   vertex 38.1583 56.8508 418.445
   vertex 37.1339 57.5375 418.924
   vertex 38.3773 55.0935 418.913
  endloop
 endfacet
 facet normal 0.769605 0.0160181 0.638319
  outer loop
   vertex 39.1208 53.8385 418.6
   vertex 39.3093 54.4257 418.358
   vertex 38.8296 53.962 418.948
  endloop
 endfacet
 facet normal 0.518718 0.192811 0.83292
  outer loop
   vertex 38.1583 56.8508 418.445
   vertex 37.8066 58 418.398
   vertex 37.1339 57.5375 418.924
  endloop
 endfacet
 facet normal 0.50906 0.190123 0.839471
  outer loop
   vertex 37.8066 58 418.398
   vertex 38.1583 56.8508 418.445
   vertex 38.8661 57.2384 417.928
  endloop
 endfacet
 facet normal 0.612986 0.226411 0.756958
  outer loop
   vertex 39.3093 54.4257 418.358
   vertex 39.1771 55.7632 418.065
   vertex 38.3773 55.0935 418.913
  endloop
 endfacet
 facet normal 0.503652 0.179103 0.845137
  outer loop
   vertex 37.8066 58 418.398
   vertex 38.8661 57.2384 417.928
   vertex 38.1353 58.7981 418.033
  endloop
 endfacet
 facet normal 0.580627 0.276313 0.765848
  outer loop
   vertex 38.3773 55.0935 418.913
   vertex 39.1771 55.7632 418.065
   vertex 38.1583 56.8508 418.445
  endloop
 endfacet
 facet normal 0.576057 0.228843 0.784722
  outer loop
   vertex 39.1771 55.7632 418.065
   vertex 39.3093 54.4257 418.358
   vertex 39.8745 54.8889 417.808
  endloop
 endfacet
 facet normal 0.628016 0.0582734 0.776016
  outer loop
   vertex 39.5604 54.223 418.17
   vertex 39.725 54.3937 418.024
   vertex 39.3093 54.4257 418.358
  endloop
 endfacet
 facet normal 0.511236 0.185704 0.839138
  outer loop
   vertex 38.1583 56.8508 418.445
   vertex 39.1771 55.7632 418.065
   vertex 38.8661 57.2384 417.928
  endloop
 endfacet
 facet normal 0.626504 0.144864 0.765838
  outer loop
   vertex 39.725 54.3937 418.024
   vertex 39.8745 54.8889 417.808
   vertex 39.3093 54.4257 418.358
  endloop
 endfacet
 facet normal 0.261552 0.057702 0.963463
  outer loop
   vertex 38.1353 58.7981 418.033
   vertex 38.8661 57.2384 417.928
   vertex 38.9245 58.7602 417.821
  endloop
 endfacet
 facet normal 0.299084 0.13709 0.944328
  outer loop
   vertex 38.9346 59.1998 417.754
   vertex 38.9245 58.7602 417.821
   vertex 39.6156 59.0435 417.561
  endloop
 endfacet
 facet normal 0.332357 0.0534503 0.941638
  outer loop
   vertex 38.9245 58.7602 417.821
   vertex 38.8661 57.2384 417.928
   vertex 39.6156 59.0435 417.561
  endloop
 endfacet
 facet normal 0.478719 0.180709 0.859169
  outer loop
   vertex 38.8661 57.2384 417.928
   vertex 39.1771 55.7632 418.065
   vertex 39.8972 56.3802 417.534
  endloop
 endfacet
 facet normal 0.500977 0.149022 0.852534
  outer loop
   vertex 39.1771 55.7632 418.065
   vertex 39.8745 54.8889 417.808
   vertex 39.8972 56.3802 417.534
  endloop
 endfacet
 facet normal 0.43712 0.00136428 0.899402
  outer loop
   vertex 40.2446 57.933 417.257
   vertex 39.6156 59.0435 417.561
   vertex 38.8661 57.2384 417.928
  endloop
 endfacet
 facet normal 0.558613 0.14166 0.817241
  outer loop
   vertex 40.395 55.2364 417.392
   vertex 39.8972 56.3802 417.534
   vertex 39.8745 54.8889 417.808
  endloop
 endfacet
 facet normal 0.683028 -0.173776 0.709418
  outer loop
   vertex 40.0975 54.5978 417.522
   vertex 40.395 55.2364 417.392
   vertex 39.8745 54.8889 417.808
  endloop
 endfacet
 facet normal 0.432189 -0.00207997 0.901781
  outer loop
   vertex 39.6156 59.0435 417.561
   vertex 40.2446 57.933 417.257
   vertex 40.4881 59.5476 417.144
  endloop
 endfacet
 facet normal 0.407285 0.07131 0.910513
  outer loop
   vertex 40.2446 57.933 417.257
   vertex 38.8661 57.2384 417.928
   vertex 39.8972 56.3802 417.534
  endloop
 endfacet
 facet normal 0.608928 -0.067882 0.790315
  outer loop
   vertex 40.395 55.2364 417.392
   vertex 40.5475 54.9629 417.251
   vertex 40.902 55.465 417.021
  endloop
 endfacet
 facet normal 0.489987 0.0456754 0.870533
  outer loop
   vertex 40.2446 57.933 417.257
   vertex 39.8972 56.3802 417.534
   vertex 40.7765 56.534 417.031
  endloop
 endfacet
 facet normal 0.480622 0.101032 0.871088
  outer loop
   vertex 39.8972 56.3802 417.534
   vertex 40.395 55.2364 417.392
   vertex 40.7765 56.534 417.031
  endloop
 endfacet
 facet normal 0.571888 0.0594781 0.818173
  outer loop
   vertex 40.7765 56.534 417.031
   vertex 40.395 55.2364 417.392
   vertex 40.902 55.465 417.021
  endloop
 endfacet
 facet normal 0.528354 -0.0202911 0.848782
  outer loop
   vertex 40.2446 57.933 417.257
   vertex 41.4946 60.0291 416.529
   vertex 40.4881 59.5476 417.144
  endloop
 endfacet
 facet normal 0.560417 0.0580565 0.826173
  outer loop
   vertex 40.902 55.465 417.021
   vertex 41.5103 56.2528 416.553
   vertex 40.7765 56.534 417.031
  endloop
 endfacet
 facet normal 0.647191 -0.0477624 0.76083
  outer loop
   vertex 40.902 55.465 417.021
   vertex 41.2955 55.6042 416.695
   vertex 41.5103 56.2528 416.553
  endloop
 endfacet
 facet normal 0.535038 -0.0257869 0.844434
  outer loop
   vertex 40.2446 57.933 417.257
   vertex 43.5871 59.8597 415.198
   vertex 41.4946 60.0291 416.529
  endloop
 endfacet
 facet normal 0.484158 0.0774132 0.871549
  outer loop
   vertex 41.4946 60.0291 416.529
   vertex 42.0472 61.144 416.123
   vertex 41.6499 60.8702 416.368
  endloop
 endfacet
 facet normal 0.538562 0.0395622 0.841657
  outer loop
   vertex 43.5871 59.8597 415.198
   vertex 42.0472 61.144 416.123
   vertex 41.4946 60.0291 416.529
  endloop
 endfacet
 facet normal 0.566 0.0826986 0.820247
  outer loop
   vertex 40.7765 56.534 417.031
   vertex 41.5103 56.2528 416.553
   vertex 40.2446 57.933 417.257
  endloop
 endfacet
 facet normal 0.596249 0.116346 0.794324
  outer loop
   vertex 41.5103 56.2528 416.553
   vertex 42.0655 56.6028 416.085
   vertex 40.2446 57.933 417.257
  endloop
 endfacet
 facet normal 0.672139 -0.0822383 0.735843
  outer loop
   vertex 41.9021 56.0816 416.176
   vertex 42.0655 56.6028 416.085
   vertex 41.5103 56.2528 416.553
  endloop
 endfacet
 facet normal 0.760765 -0.127386 0.636403
  outer loop
   vertex 41.9021 56.0816 416.176
   vertex 42.1485 56.2293 415.911
   vertex 42.0655 56.6028 416.085
  endloop
 endfacet
 facet normal 0.619263 0.172881 0.765915
  outer loop
   vertex 42.0655 56.6028 416.085
   vertex 42.7848 56.8882 415.439
   vertex 40.2446 57.933 417.257
  endloop
 endfacet
 facet normal 0.663488 -0.189687 0.723742
  outer loop
   vertex 42.4611 56.571 415.714
   vertex 42.0655 56.6028 416.085
   vertex 42.1485 56.2293 415.911
  endloop
 endfacet
 facet normal 0.445217 0.188052 0.875453
  outer loop
   vertex 42.0472 61.144 416.123
   vertex 43.2906 61.2448 415.469
   vertex 42.4526 61.3526 415.872
  endloop
 endfacet
 facet normal 0.557057 -0.083391 0.826277
  outer loop
   vertex 42.7848 56.8882 415.439
   vertex 43.5871 59.8597 415.198
   vertex 40.2446 57.933 417.257
  endloop
 endfacet
 facet normal 0.680191 -0.0608221 0.730507
  outer loop
   vertex 42.7848 56.8882 415.439
   vertex 42.0655 56.6028 416.085
   vertex 42.4611 56.571 415.714
  endloop
 endfacet
 facet normal 0.468861 -0.0718733 0.880343
  outer loop
   vertex 43.5871 59.8597 415.198
   vertex 43.2906 61.2448 415.469
   vertex 42.0472 61.144 416.123
  endloop
 endfacet
 facet normal 0.498366 0.0340453 0.866298
  outer loop
   vertex 43.2906 61.2448 415.469
   vertex 43.8688 61.7887 415.115
   vertex 43.4604 61.8638 415.347
  endloop
 endfacet
 facet normal 0.603375 -0.0987316 0.791322
  outer loop
   vertex 42.7848 56.8882 415.439
   vertex 43.1914 57.4735 415.202
   vertex 43.5871 59.8597 415.198
  endloop
 endfacet
 facet normal 0.575992 -0.094156 0.812015
  outer loop
   vertex 43.5871 59.8597 415.198
   vertex 43.1914 57.4735 415.202
   vertex 43.9193 58.2957 414.781
  endloop
 endfacet
 facet normal 0.541773 -0.0292041 0.840018
  outer loop
   vertex 43.8688 61.7887 415.115
   vertex 43.2906 61.2448 415.469
   vertex 44.356 60.8173 414.767
  endloop
 endfacet
 facet normal 0.535337 -0.0503635 0.843136
  outer loop
   vertex 43.5871 59.8597 415.198
   vertex 44.356 60.8173 414.767
   vertex 43.2906 61.2448 415.469
  endloop
 endfacet
 facet normal 0.615465 0.0264912 0.787719
  outer loop
   vertex 43.8688 61.7887 415.115
   vertex 44.356 60.8173 414.767
   vertex 44.5198 62.0372 414.598
  endloop
 endfacet
 facet normal 0.511924 -0.118124 0.85087
  outer loop
   vertex 43.9193 58.2957 414.781
   vertex 44.7136 59.3969 414.456
   vertex 43.5871 59.8597 415.198
  endloop
 endfacet
 facet normal 0.534988 -0.0499738 0.84338
  outer loop
   vertex 44.7136 59.3969 414.456
   vertex 44.356 60.8173 414.767
   vertex 43.5871 59.8597 415.198
  endloop
 endfacet
 facet normal 0.602532 0.0295893 0.797546
  outer loop
   vertex 45.7007 61.8176 413.714
   vertex 44.5198 62.0372 414.598
   vertex 44.356 60.8173 414.767
  endloop
 endfacet
 facet normal 0.514983 -0.120995 0.848618
  outer loop
   vertex 44.7136 59.3969 414.456
   vertex 43.9193 58.2957 414.781
   vertex 44.6722 58.6385 414.373
  endloop
 endfacet
 facet normal 0.434241 0.20234 0.877777
  outer loop
   vertex 44.416 62.5115 414.54
   vertex 44.5198 62.0372 414.598
   vertex 45.1285 62.5442 414.18
  endloop
 endfacet
 facet normal 0.617927 -0.00301853 0.78623
  outer loop
   vertex 44.356 60.8173 414.767
   vertex 45.2905 60.1557 414.03
   vertex 45.7007 61.8176 413.714
  endloop
 endfacet
 facet normal 0.610511 -0.0196584 0.791764
  outer loop
   vertex 44.356 60.8173 414.767
   vertex 44.7136 59.3969 414.456
   vertex 45.2905 60.1557 414.03
  endloop
 endfacet
 facet normal 0.549576 -0.120486 0.82671
  outer loop
   vertex 45.0722 58.9399 414.151
   vertex 44.7136 59.3969 414.456
   vertex 44.6722 58.6385 414.373
  endloop
 endfacet
 facet normal 0.637584 -0.0532809 0.768537
  outer loop
   vertex 45.4606 59.2921 413.829
   vertex 45.2905 60.1557 414.03
   vertex 44.7136 59.3969 414.456
  endloop
 endfacet
 facet normal 0.642253 -0.00755185 0.766456
  outer loop
   vertex 45.4606 59.2921 413.829
   vertex 44.7136 59.3969 414.456
   vertex 45.0722 58.9399 414.151
  endloop
 endfacet
 facet normal 0.592725 -0.0488246 0.803924
  outer loop
   vertex 45.7007 61.8176 413.714
   vertex 45.1285 62.5442 414.18
   vertex 44.5198 62.0372 414.598
  endloop
 endfacet
 facet normal 0.705053 -0.0393875 0.70806
  outer loop
   vertex 45.7007 61.8176 413.714
   vertex 45.2905 60.1557 414.03
   vertex 45.9028 60.5818 413.444
  endloop
 endfacet
 facet normal 0.565959 -0.0805281 0.820491
  outer loop
   vertex 45.1285 62.5442 414.18
   vertex 45.7007 61.8176 413.714
   vertex 46.0208 62.7937 413.589
  endloop
 endfacet
 facet normal 0.669992 -0.0405493 0.74126
  outer loop
   vertex 45.2905 60.1557 414.03
   vertex 45.4606 59.2921 413.829
   vertex 45.83 59.8197 413.524
  endloop
 endfacet
 facet normal 0.715972 -0.102009 0.690636
  outer loop
   vertex 45.977 59.4975 413.324
   vertex 45.83 59.8197 413.524
   vertex 45.4606 59.2921 413.829
  endloop
 endfacet
 facet normal 0.518427 -0.0607827 0.852959
  outer loop
   vertex 46.0208 62.7937 413.589
   vertex 45.7007 61.8176 413.714
   vertex 47.0725 61.8708 412.884
  endloop
 endfacet
 facet normal 0.54141 -0.0249885 0.840387
  outer loop
   vertex 46.0208 62.7937 413.589
   vertex 47.0725 61.8708 412.884
   vertex 46.8558 63.1952 413.063
  endloop
 endfacet
 facet normal 0.59208 -0.0783989 0.802057
  outer loop
   vertex 45.7007 61.8176 413.714
   vertex 45.9028 60.5818 413.444
   vertex 46.4701 60.9785 413.064
  endloop
 endfacet
 facet normal 0.610518 -0.123708 0.782282
  outer loop
   vertex 46.4701 60.9785 413.064
   vertex 45.9028 60.5818 413.444
   vertex 46.5653 60.1457 412.858
  endloop
 endfacet
 facet normal 0.518724 0.0617017 0.852712
  outer loop
   vertex 47.7424 62.8312 412.55
   vertex 47.3336 63.573 412.745
   vertex 46.8558 63.1952 413.063
  endloop
 endfacet
 facet normal 0.488786 -0.0378149 0.871584
  outer loop
   vertex 47.0725 61.8708 412.884
   vertex 47.7424 62.8312 412.55
   vertex 46.8558 63.1952 413.063
  endloop
 endfacet
 facet normal 0.502763 0.307236 0.807983
  outer loop
   vertex 47.3715 63.8292 412.624
   vertex 47.3336 63.573 412.745
   vertex 48.0532 63.6025 412.286
  endloop
 endfacet
 facet normal 0.500595 -0.0485788 0.864318
  outer loop
   vertex 48.5574 61.6934 412.014
   vertex 47.7424 62.8312 412.55
   vertex 47.0725 61.8708 412.884
  endloop
 endfacet
 facet normal 0.534194 0.0729887 0.842205
  outer loop
   vertex 47.7424 62.8312 412.55
   vertex 48.0532 63.6025 412.286
   vertex 47.3336 63.573 412.745
  endloop
 endfacet
 facet normal 0.502753 -0.0287254 0.863953
  outer loop
   vertex 47.0725 61.8708 412.884
   vertex 47.7673 61.0078 412.451
   vertex 48.5574 61.6934 412.014
  endloop
 endfacet
 facet normal 0.58738 0.0399613 0.808324
  outer loop
   vertex 48.0532 63.6025 412.286
   vertex 47.7424 62.8312 412.55
   vertex 48.5574 61.6934 412.014
  endloop
 endfacet
 facet normal 0.412905 0.262475 0.872133
  outer loop
   vertex 48.8755 64.3691 411.666
   vertex 48.3027 64.1936 411.99
   vertex 48.0532 63.6025 412.286
  endloop
 endfacet
 facet normal 0.579406 0.0370184 0.814198
  outer loop
   vertex 48.5574 61.6934 412.014
   vertex 48.8755 64.3691 411.666
   vertex 48.0532 63.6025 412.286
  endloop
 endfacet
 facet normal 0.532894 -0.0642936 0.843736
  outer loop
   vertex 48.9844 60.81 411.677
   vertex 49.4971 61.2144 411.384
   vertex 48.5574 61.6934 412.014
  endloop
 endfacet
 facet normal 0.466642 0.0593025 0.882456
  outer loop
   vertex 50.5233 63.4261 410.858
   vertex 48.8755 64.3691 411.666
   vertex 48.5574 61.6934 412.014
  endloop
 endfacet
 facet normal 0.538526 -0.0498245 0.841135
  outer loop
   vertex 48.5574 61.6934 412.014
   vertex 49.4971 61.2144 411.384
   vertex 50.5233 63.4261 410.858
  endloop
 endfacet
 facet normal 0.553405 -0.0591849 0.830807
  outer loop
   vertex 50.5233 63.4261 410.858
   vertex 49.4971 61.2144 411.384
   vertex 50.1343 61.5576 410.984
  endloop
 endfacet
 facet normal 0.594382 0.199984 0.77892
  outer loop
   vertex 49.5965 64.1631 411.376
   vertex 50.5233 63.4261 410.858
   vertex 50.3872 64.4304 410.704
  endloop
 endfacet
 facet normal 0.668994 0.200408 0.71574
  outer loop
   vertex 51.2852 63.5792 410.103
   vertex 50.3872 64.4304 410.704
   vertex 50.5233 63.4261 410.858
  endloop
 endfacet
 facet normal 0.452415 -0.0340901 0.891156
  outer loop
   vertex 50.8888 62.0031 410.618
   vertex 50.5233 63.4261 410.858
   vertex 50.1343 61.5576 410.984
  endloop
 endfacet
 facet normal 0.668735 0.201448 0.71569
  outer loop
   vertex 51.2852 63.5792 410.103
   vertex 50.5233 63.4261 410.858
   vertex 51.3366 62.6056 410.329
  endloop
 endfacet
 facet normal 0.543963 -0.00179785 0.839107
  outer loop
   vertex 51.3366 62.6056 410.329
   vertex 50.5233 63.4261 410.858
   vertex 50.8888 62.0031 410.618
  endloop
 endfacet
 facet normal 0.73003 0.360002 0.580909
  outer loop
   vertex 51.2015 64.4218 409.686
   vertex 50.3872 64.4304 410.704
   vertex 51.2852 63.5792 410.103
  endloop
 endfacet
 facet normal 0.568605 -0.0282586 0.822125
  outer loop
   vertex 51.3366 62.6056 410.329
   vertex 50.8888 62.0031 410.618
   vertex 51.7601 61.7878 410.008
  endloop
 endfacet
 facet normal 0.563367 -0.0556974 0.824328
  outer loop
   vertex 51.3701 61.4396 410.251
   vertex 51.7601 61.7878 410.008
   vertex 50.8888 62.0031 410.618
  endloop
 endfacet
 facet normal 0.685054 0.48466 0.54388
  outer loop
   vertex 51.2015 64.4218 409.686
   vertex 50.7188 64.8572 409.906
   vertex 50.3872 64.4304 410.704
  endloop
 endfacet
 facet normal 0.739769 0.18897 0.64578
  outer loop
   vertex 51.3366 62.6056 410.329
   vertex 52.2155 62.3124 409.408
   vertex 51.2852 63.5792 410.103
  endloop
 endfacet
 facet normal 0.778181 0.257106 0.573002
  outer loop
   vertex 52.2155 62.3124 409.408
   vertex 52.4834 63.2867 408.607
   vertex 51.2852 63.5792 410.103
  endloop
 endfacet
 facet normal 0.737075 0.120682 0.664948
  outer loop
   vertex 51.7601 61.7878 410.008
   vertex 52.2155 62.3124 409.408
   vertex 51.3366 62.6056 410.329
  endloop
 endfacet
 facet normal 0.779175 0.0391151 0.625585
  outer loop
   vertex 52.3284 61.6946 409.306
   vertex 52.2155 62.3124 409.408
   vertex 51.7601 61.7878 410.008
  endloop
 endfacet
 facet normal 0.764266 0.345428 0.544589
  outer loop
   vertex 52.4834 63.2867 408.607
   vertex 51.2015 64.4218 409.686
   vertex 51.2852 63.5792 410.103
  endloop
 endfacet
 facet normal 0.634048 0.651756 0.41617
  outer loop
   vertex 51.6455 64.7596 408.647
   vertex 51.0536 65.0302 409.125
   vertex 50.7188 64.8572 409.906
  endloop
 endfacet
 facet normal 0.699161 0.536081 0.473065
  outer loop
   vertex 51.2015 64.4218 409.686
   vertex 51.6455 64.7596 408.647
   vertex 50.7188 64.8572 409.906
  endloop
 endfacet
 facet normal 0.758767 0.0312542 0.650612
  outer loop
   vertex 52.3284 61.6946 409.306
   vertex 52.7206 61.8318 408.842
   vertex 52.2155 62.3124 409.408
  endloop
 endfacet
 facet normal 0.789345 0.120669 0.601974
  outer loop
   vertex 52.7206 61.8318 408.842
   vertex 52.9518 62.1253 408.48
   vertex 52.2155 62.3124 409.408
  endloop
 endfacet
 facet normal 0.782055 0.253145 0.56948
  outer loop
   vertex 52.9518 62.1253 408.48
   vertex 52.4834 63.2867 408.607
   vertex 52.2155 62.3124 409.408
  endloop
 endfacet
 facet normal 0.773014 0.427007 0.469163
  outer loop
   vertex 52.4834 63.2867 408.607
   vertex 51.6455 64.7596 408.647
   vertex 51.2015 64.4218 409.686
  endloop
 endfacet
 facet normal 0.759811 0.240392 0.604069
  outer loop
   vertex 53.6123 62.2515 407.599
   vertex 52.4834 63.2867 408.607
   vertex 52.9518 62.1253 408.48
  endloop
 endfacet
 facet normal 0.721016 0.421743 0.54979
  outer loop
   vertex 52.9179 64.0978 407.486
   vertex 52.3266 64.9718 407.591
   vertex 51.6455 64.7596 408.647
  endloop
 endfacet
 facet normal 0.722779 0.395785 0.56652
  outer loop
   vertex 52.4834 63.2867 408.607
   vertex 52.9179 64.0978 407.486
   vertex 51.6455 64.7596 408.647
  endloop
 endfacet
 facet normal 0.759188 0.238048 0.605778
  outer loop
   vertex 53.8569 62.7845 407.083
   vertex 52.4834 63.2867 408.607
   vertex 53.6123 62.2515 407.599
  endloop
 endfacet
 facet normal 0.802674 -0.113632 0.585493
  outer loop
   vertex 53.2592 61.9626 408.027
   vertex 53.6123 62.2515 407.599
   vertex 52.9518 62.1253 408.48
  endloop
 endfacet
 facet normal 0.748212 0.36495 0.554067
  outer loop
   vertex 53.8569 62.7845 407.083
   vertex 52.9179 64.0978 407.486
   vertex 52.4834 63.2867 408.607
  endloop
 endfacet
 facet normal 0.819367 -0.212859 0.532287
  outer loop
   vertex 53.6236 62.0224 407.49
   vertex 53.6123 62.2515 407.599
   vertex 53.2592 61.9626 408.027
  endloop
 endfacet
 facet normal 0.704539 0.406785 0.581507
  outer loop
   vertex 52.9179 64.0978 407.486
   vertex 53.2687 64.9026 406.498
   vertex 52.3266 64.9718 407.591
  endloop
 endfacet
 facet normal 0.736293 0.348458 0.580042
  outer loop
   vertex 52.9179 64.0978 407.486
   vertex 53.8569 62.7845 407.083
   vertex 53.898 63.6981 406.482
  endloop
 endfacet
 facet normal 0.793682 0.138819 0.592283
  outer loop
   vertex 54.4608 62.2502 406.399
   vertex 54.6799 62.7467 405.989
   vertex 53.8569 62.7845 407.083
  endloop
 endfacet
 facet normal 0.819373 0.303504 0.486326
  outer loop
   vertex 53.8569 62.7845 407.083
   vertex 54.1389 62.2379 406.949
   vertex 54.4608 62.2502 406.399
  endloop
 endfacet
 facet normal 0.733477 0.375689 0.566453
  outer loop
   vertex 53.898 63.6981 406.482
   vertex 53.2687 64.9026 406.498
   vertex 52.9179 64.0978 407.486
  endloop
 endfacet
 facet normal 0.758791 0.333799 0.559298
  outer loop
   vertex 53.898 63.6981 406.482
   vertex 53.8569 62.7845 407.083
   vertex 54.6799 62.7467 405.989
  endloop
 endfacet
 facet normal 0.753711 0.386726 0.531379
  outer loop
   vertex 54.4028 63.9935 405.551
   vertex 53.2687 64.9026 406.498
   vertex 53.898 63.6981 406.482
  endloop
 endfacet
 facet normal 0.768929 0.35718 0.530256
  outer loop
   vertex 54.4028 63.9935 405.551
   vertex 53.898 63.6981 406.482
   vertex 54.6799 62.7467 405.989
  endloop
 endfacet
 facet normal 0.75322 0.381402 0.535903
  outer loop
   vertex 54.4028 63.9935 405.551
   vertex 54.0136 65.1176 405.298
   vertex 53.2687 64.9026 406.498
  endloop
 endfacet
 facet normal 0.716038 0.45825 0.52659
  outer loop
   vertex 53.2687 64.9026 406.498
   vertex 54.0136 65.1176 405.298
   vertex 53.2847 65.3901 406.052
  endloop
 endfacet
 facet normal 0.784452 0.353393 0.509655
  outer loop
   vertex 54.4028 63.9935 405.551
   vertex 54.6799 62.7467 405.989
   vertex 55.2187 63.065 404.939
  endloop
 endfacet
 facet normal 0.791857 0.381497 0.476888
  outer loop
   vertex 54.4028 63.9935 405.551
   vertex 55.2187 63.065 404.939
   vertex 54.0136 65.1176 405.298
  endloop
 endfacet
 facet normal 0.771701 0.361561 0.523212
  outer loop
   vertex 55.2187 63.065 404.939
   vertex 54.6274 65.285 404.277
   vertex 54.0136 65.1176 405.298
  endloop
 endfacet
 facet normal 0.715975 0.478014 0.508804
  outer loop
   vertex 54.6274 65.285 404.277
   vertex 53.9936 65.5116 404.956
   vertex 54.0136 65.1176 405.298
  endloop
 endfacet
 facet normal 0.60196 0.627114 0.49434
  outer loop
   vertex 54.9932 65.3832 403.707
   vertex 54.7127 65.6154 403.754
   vertex 54.6274 65.285 404.277
  endloop
 endfacet
 facet normal 0.754156 0.363881 0.546663
  outer loop
   vertex 55.2187 63.065 404.939
   vertex 54.9932 65.3832 403.707
   vertex 54.6274 65.285 404.277
  endloop
 endfacet
 facet normal 0.8543 0.012748 0.519624
  outer loop
   vertex 56.6993 62.9751 402.507
   vertex 55.2187 63.065 404.939
   vertex 55.9277 62.672 403.783
  endloop
 endfacet
 facet normal 0.810409 0.334463 0.481011
  outer loop
   vertex 54.9932 65.3832 403.707
   vertex 55.2187 63.065 404.939
   vertex 56.6993 62.9751 402.507
  endloop
 endfacet
 facet normal 0.860292 -0.0575922 0.506539
  outer loop
   vertex 56.4237 62.8074 402.956
   vertex 56.6993 62.9751 402.507
   vertex 55.9277 62.672 403.783
  endloop
 endfacet
 facet normal 0.766657 0.248055 0.592204
  outer loop
   vertex 56.6993 62.9751 402.507
   vertex 55.7167 65.1334 402.875
   vertex 54.9932 65.3832 403.707
  endloop
 endfacet
 facet normal 0.866672 -0.152657 0.474948
  outer loop
   vertex 56.6587 62.8255 402.533
   vertex 56.6993 62.9751 402.507
   vertex 56.4237 62.8074 402.956
  endloop
 endfacet
 facet normal 0.770195 0.250639 0.586498
  outer loop
   vertex 56.6993 62.9751 402.507
   vertex 56.931 63.9432 401.789
   vertex 55.7167 65.1334 402.875
  endloop
 endfacet
 facet normal 0.742681 0.203066 0.638114
  outer loop
   vertex 56.2471 65.5818 402.115
   vertex 55.7167 65.1334 402.875
   vertex 57.017 64.8148 401.463
  endloop
 endfacet
 facet normal 0.743737 0.168556 0.646873
  outer loop
   vertex 57.017 64.8148 401.463
   vertex 55.7167 65.1334 402.875
   vertex 56.931 63.9432 401.789
  endloop
 endfacet
 facet normal 0.799551 0.222405 0.557902
  outer loop
   vertex 57.0707 63.2528 401.864
   vertex 56.931 63.9432 401.789
   vertex 56.6993 62.9751 402.507
  endloop
 endfacet
 facet normal 0.867432 -0.00826535 0.497487
  outer loop
   vertex 57.0996 62.974 401.809
   vertex 57.0707 63.2528 401.864
   vertex 56.6993 62.9751 402.507
  endloop
 endfacet
 facet normal 0.643456 0.343444 0.684113
  outer loop
   vertex 56.452 65.8134 401.806
   vertex 56.2471 65.5818 402.115
   vertex 57.3079 65.7177 401.049
  endloop
 endfacet
 facet normal 0.698931 0.0995532 0.708226
  outer loop
   vertex 57.017 64.8148 401.463
   vertex 57.3079 65.7177 401.049
   vertex 56.2471 65.5818 402.115
  endloop
 endfacet
 facet normal 0.758853 0.117032 0.64066
  outer loop
   vertex 56.931 63.9432 401.789
   vertex 57.5395 63.3149 401.183
   vertex 57.8627 63.6882 400.732
  endloop
 endfacet
 facet normal 0.759331 0.160894 0.6305
  outer loop
   vertex 57.8627 63.6882 400.732
   vertex 57.017 64.8148 401.463
   vertex 56.931 63.9432 401.789
  endloop
 endfacet
 facet normal 0.802265 0.0259764 0.596403
  outer loop
   vertex 57.8627 63.6882 400.732
   vertex 57.5395 63.3149 401.183
   vertex 57.897 63.2259 400.706
  endloop
 endfacet
 facet normal 0.700622 0.0648618 0.710578
  outer loop
   vertex 57.8627 63.6882 400.732
   vertex 58.2046 64.5854 400.313
   vertex 57.017 64.8148 401.463
  endloop
 endfacet
 facet normal 0.680234 0.0640557 0.730191
  outer loop
   vertex 58.2046 64.5854 400.313
   vertex 58.3262 66.2236 400.056
   vertex 57.3079 65.7177 401.049
  endloop
 endfacet
 facet normal 0.701985 0.0973241 0.70551
  outer loop
   vertex 57.017 64.8148 401.463
   vertex 58.2046 64.5854 400.313
   vertex 57.3079 65.7177 401.049
  endloop
 endfacet
 facet normal 0.735318 0.0358525 0.676773
  outer loop
   vertex 58.2046 64.5854 400.313
   vertex 57.8627 63.6882 400.732
   vertex 58.8046 63.6052 399.713
  endloop
 endfacet
 facet normal 0.663264 0.391758 0.637657
  outer loop
   vertex 58.3262 66.2236 400.056
   vertex 59.0434 65.9583 399.473
   vertex 58.5031 66.3489 399.795
  endloop
 endfacet
 facet normal 0.708767 0.057685 0.70308
  outer loop
   vertex 59.4042 64.3379 399.124
   vertex 58.3262 66.2236 400.056
   vertex 58.2046 64.5854 400.313
  endloop
 endfacet
 facet normal 0.703497 -0.00438265 0.710684
  outer loop
   vertex 58.8046 63.6052 399.713
   vertex 59.4042 64.3379 399.124
   vertex 58.2046 64.5854 400.313
  endloop
 endfacet
 facet normal 0.623968 -0.0292554 0.780902
  outer loop
   vertex 59.4042 64.3379 399.124
   vertex 59.0434 65.9583 399.473
   vertex 58.3262 66.2236 400.056
  endloop
 endfacet
 facet normal 0.718095 -0.0286511 0.695356
  outer loop
   vertex 59.3681 63.6271 399.132
   vertex 59.4042 64.3379 399.124
   vertex 58.8046 63.6052 399.713
  endloop
 endfacet
 facet normal 0.569399 -3.89124e-005 0.822061
  outer loop
   vertex 59.4419 66.3499 399.197
   vertex 59.0434 65.9583 399.473
   vertex 60.272 66.0698 398.622
  endloop
 endfacet
 facet normal 0.643732 -0.0214192 0.764951
  outer loop
   vertex 59.0434 65.9583 399.473
   vertex 59.4042 64.3379 399.124
   vertex 59.8338 65.0707 398.783
  endloop
 endfacet
 facet normal 0.572616 -0.120485 0.810922
  outer loop
   vertex 59.0434 65.9583 399.473
   vertex 59.8338 65.0707 398.783
   vertex 60.272 66.0698 398.622
  endloop
 endfacet
 facet normal 0.544277 -0.104602 0.832359
  outer loop
   vertex 60.272 66.0698 398.622
   vertex 59.8338 65.0707 398.783
   vertex 60.5681 64.2445 398.199
  endloop
 endfacet
 facet normal 0.622156 -0.000421835 0.782893
  outer loop
   vertex 59.8338 65.0707 398.783
   vertex 59.4042 64.3379 399.124
   vertex 60.5681 64.2445 398.199
  endloop
 endfacet
 facet normal 0.535128 -0.0219832 0.844485
  outer loop
   vertex 60.272 66.0698 398.622
   vertex 61.9395 65.7103 397.556
   vertex 61.4483 66.6993 397.893
  endloop
 endfacet
 facet normal 0.517873 -0.112516 0.848026
  outer loop
   vertex 60.5681 64.2445 398.199
   vertex 61.9395 65.7103 397.556
   vertex 60.272 66.0698 398.622
  endloop
 endfacet
 facet normal 0.496013 -0.0849927 0.864145
  outer loop
   vertex 61.4776 64.621 397.714
   vertex 61.9395 65.7103 397.556
   vertex 60.5681 64.2445 398.199
  endloop
 endfacet
 facet normal 0.469942 -0.0665239 0.880187
  outer loop
   vertex 61.4483 66.6993 397.893
   vertex 61.9395 65.7103 397.556
   vertex 62.4732 66.8741 397.359
  endloop
 endfacet
 facet normal 0.556239 -0.116525 0.822813
  outer loop
   vertex 62.4011 64.7997 397.115
   vertex 61.9395 65.7103 397.556
   vertex 61.4776 64.621 397.714
  endloop
 endfacet
 facet normal 0.556513 -0.115953 0.822708
  outer loop
   vertex 63.2323 66.3098 396.766
   vertex 62.4732 66.8741 397.359
   vertex 61.9395 65.7103 397.556
  endloop
 endfacet
 facet normal 0.542986 0.29941 0.784551
  outer loop
   vertex 62.7822 67.2217 397.154
   vertex 63.1739 67.1402 396.914
   vertex 63.0298 67.3753 396.924
  endloop
 endfacet
 facet normal 0.527043 0.0323644 0.849222
  outer loop
   vertex 62.4732 66.8741 397.359
   vertex 63.1739 67.1402 396.914
   vertex 62.7822 67.2217 397.154
  endloop
 endfacet
 facet normal 0.561618 -0.106746 0.820482
  outer loop
   vertex 62.4732 66.8741 397.359
   vertex 63.2323 66.3098 396.766
   vertex 63.1739 67.1402 396.914
  endloop
 endfacet
 facet normal 0.484082 0.261152 0.835143
  outer loop
   vertex 63.3499 67.38 396.737
   vertex 63.0298 67.3753 396.924
   vertex 63.1739 67.1402 396.914
  endloop
 endfacet
 facet normal 0.602203 -0.0794549 0.79438
  outer loop
   vertex 61.9395 65.7103 397.556
   vertex 62.4011 64.7997 397.115
   vertex 63.1897 65.198 396.557
  endloop
 endfacet
 facet normal 0.676664 -0.0828163 0.731619
  outer loop
   vertex 63.9009 67.1259 396.24
   vertex 63.1739 67.1402 396.914
   vertex 63.2323 66.3098 396.766
  endloop
 endfacet
 facet normal 0.675958 -0.081739 0.732393
  outer loop
   vertex 63.9009 67.1259 396.24
   vertex 63.2323 66.3098 396.766
   vertex 64.1469 65.5762 395.84
  endloop
 endfacet
 facet normal 0.632446 -0.166433 0.756513
  outer loop
   vertex 63.1897 65.198 396.557
   vertex 64.1469 65.5762 395.84
   vertex 63.2323 66.3098 396.766
  endloop
 endfacet
 facet normal 0.575745 0.036689 0.816805
  outer loop
   vertex 64.2796 67.6613 395.949
   vertex 63.9009 67.1259 396.24
   vertex 64.8729 67.4122 395.542
  endloop
 endfacet
 facet normal 0.599093 -0.0959641 0.794908
  outer loop
   vertex 64.8729 67.4122 395.542
   vertex 63.9009 67.1259 396.24
   vertex 65.1332 66.1299 395.191
  endloop
 endfacet
 facet normal 0.589598 -0.11284 0.799776
  outer loop
   vertex 63.9009 67.1259 396.24
   vertex 64.1469 65.5762 395.84
   vertex 65.1332 66.1299 395.191
  endloop
 endfacet
 facet normal 0.505543 0.228763 0.831922
  outer loop
   vertex 65.6515 67.7172 394.985
   vertex 64.8022 67.9066 395.449
   vertex 64.8729 67.4122 395.542
  endloop
 endfacet
 facet normal 0.577496 -0.104395 0.809692
  outer loop
   vertex 64.8729 67.4122 395.542
   vertex 65.1332 66.1299 395.191
   vertex 65.9589 66.8117 394.69
  endloop
 endfacet
 facet normal 0.589302 -0.127432 0.797799
  outer loop
   vertex 65.9589 66.8117 394.69
   vertex 65.1332 66.1299 395.191
   vertex 66.0705 66.1633 394.504
  endloop
 endfacet
 facet normal 0.523154 0.182541 0.83246
  outer loop
   vertex 65.5994 68.1081 394.932
   vertex 65.6515 67.7172 394.985
   vertex 66.3547 68.0458 394.471
  endloop
 endfacet
 facet normal 0.595921 -0.0586017 0.800902
  outer loop
   vertex 65.9589 66.8117 394.69
   vertex 65.6515 67.7172 394.985
   vertex 64.8729 67.4122 395.542
  endloop
 endfacet
 facet normal 0.601109 -0.0556436 0.797227
  outer loop
   vertex 65.9589 66.8117 394.69
   vertex 66.9003 67.1384 394.003
   vertex 65.6515 67.7172 394.985
  endloop
 endfacet
 facet normal 0.586507 -0.128456 0.799693
  outer loop
   vertex 66.6283 66.5251 394.153
   vertex 65.9589 66.8117 394.69
   vertex 66.0705 66.1633 394.504
  endloop
 endfacet
 facet normal 0.603769 -0.0473965 0.795749
  outer loop
   vertex 66.9003 67.1384 394.003
   vertex 66.3547 68.0458 394.471
   vertex 65.6515 67.7172 394.985
  endloop
 endfacet
 facet normal 0.604523 -0.0740882 0.793135
  outer loop
   vertex 66.6283 66.5251 394.153
   vertex 66.9003 67.1384 394.003
   vertex 65.9589 66.8117 394.69
  endloop
 endfacet
 facet normal 0.647143 -0.00409416 0.762358
  outer loop
   vertex 67.2354 68.1557 393.724
   vertex 66.3547 68.0458 394.471
   vertex 66.9003 67.1384 394.003
  endloop
 endfacet
endsolid
